<?xml version="1.0" encoding="UTF-8"?>
<svg id="Livello_2" data-name="Livello 2" xmlns="http://www.w3.org/2000/svg" viewBox="0 0 1227.77 2013.36">
  <defs>
    <style>
      .cls-1 {
        fill: #d9edf8;
      }

      .cls-1, .cls-2 {
        stroke-width: 0px;
      }

      .cls-2 {
        fill: #a1c6d6;
      }
    </style>
  </defs>
  <g id="Livello_1-2" data-name="Livello 1">
    <g>
      <rect class="cls-2" x="52.9" y="5.36" width="1152" height="2008"/>
      <path class="cls-1" d="m35.26,762.37c6.83-20.63-6.32-51.04-6.33-73.88-.02-46.37,8.3-96.01,13.65-142.34,8.8-76.28,19.24-160.65,60.86-227.66,21.47-34.57,40.06-75.21,69.18-103.74,22.41-21.95,49.1-41.44,72.99-62.27,49.48-43.14,121.7-71.67,181.32-98.3C551.2-1.33,694.8-16.01,825.91,18.65c32.14,8.5,71.35,11.15,100.38,26.04,31.69,16.25,53.38,49.61,85.43,68.1,42.53,24.54,53.55,58.12,79.99,97.37,24.11,35.79,56.07,59.22,74.63,99.3,18.9,40.82,18.05,84.68,32.08,126.39,14.82,44.07,31.33,85.92,29.16,134.17-2.29,51-6.34,101.77-6.34,152.99s8.74,93.52,4.03,139.98c-9.64,94.95-1.91,192.32-1.91,287.73,0,91.42-7.63,183.26-10.57,274.77-3.04,94.49,1.97,189.9-27.49,279.69-13.78,42-35.18,80.21-67.82,110.09-31.43,28.76-56.24,63.78-91.76,87.43-33.12,22.05-78.06,42.71-115.95,54.11-39.38,11.85-76.3.23-116.39,6.23-44.26,6.63-89.21,15.01-134.68,12.89-39.41-1.84-76.86-17.05-113.25-29.59-83.25-28.69-175.8-35.25-253.85-77.74-33.91-18.46-64.33-42.05-96.09-63.21-44.35-29.55-95.05-77.84-116.32-127.28-34.08-79.21-37.2-167.19-49.71-251.41-10.96-73.78-19.52-148.66-25.93-223.05-7.64-88.76-.94-181.58,2.21-270.35,1.87-52.53-1.25-105.51,13.5-156.04,10.46-35.81,29.72-78.32,32.93-114.25"/>
    </g>
  </g>
</svg>