<?xml version="1.0" encoding="UTF-8"?>
<svg id="Livello_2" data-name="Livello 2" xmlns="http://www.w3.org/2000/svg" viewBox="0 0 765.87 176.56">
  <defs>
    <style>
      .cls-1 {
        fill: #d9edf8;
      }

      .cls-1, .cls-2 {
        stroke-width: 0px;
      }

      .cls-2 {
        fill: #a1c6d6;
      }
    </style>
  </defs>
  <g id="Livello_3" data-name="Livello 3">
    <g>
      <g>
        <path class="cls-2" d="m43.85,34.5c-5.57-5.89-15.98-7.3-25.6-5.2-13.95,3.04-13.81,6.82-14.39,15.52-.95,14.25,1.76,28.57,1.99,42.95.42,26.22-13.28,63.03-.14,87.94,81.11-5.96,162.16,3.42,244.14.13,96.92-3.89,193.16,2.53,289.45,0,29.91-.79,58.12-6.15,87.48-7.74,25.32-1.37,49.76,5.49,74.86,1.15-2.45-21.46,10.06-44.33,8.21-66.64-1.77-21.37,8.09-48.59-2.25-69.21-16.11-.15-33.79,8.49-51.43,9.8-19.55,1.44-39.5-.78-58.66-2.21-48.47-3.63-95.1-5.21-144.36-5.21-107.24,0-216.81,5.79-322.72,13.49-36.03,2.62-83.97-7.06-117.23,2.27,6.77.72,15.22-.14,22.64-1.63"/>
        <path class="cls-1" d="m763.1,154.5c-2.63-.03-5.18-.23-7.74-.43.09-.07.15-.15.17-.24,1.72-.67,2.7-1.85,2.97-3.13,3.55.19,5.05-1.63,1.44-1.86-.52-.03-1.04-.05-1.57-.07-.66-1.94-2.93-3.64-6.74-3.63-1.84.02-3.33-.04-4.88-.15,0,0-.01,0-.02-.01-1.69-.76-3.5-.99-5.1-.71-.16-1.13-.33-2.25-.5-3.38.01-3.71.02-7.43-.02-11.14-.1-9.94-3.07-19.85-3.78-29.79-.35-5-.12-10-.18-14.99-.05-5-.14-10.01-.18-15.01-.08-10,.04-20.01,1.04-30.01.44-4.43.83-8.86,1.33-13.29,1.38-2.83,2.71-5.66,3.76-8.5,1.08-1,1.29-2.23,1.08-3.36.44-1.63.76-3.26.89-4.9.09-1.09-4.81-1.31-5.65-.26-.11.14-.2.27-.3.41-.53-.06-1.11-.04-1.72.09,0-.01-.01-.02-.02-.03-.9-1.1-5.37-.79-5.65.26-.03.11-.05.23-.08.34-1.77-.27-3.73.15-4.16.68-.23-1.07-.47-2.15-.75-3.22-.28-1.06-4.64-1.34-5.65-.26-.72.78-1.35,1.56-1.93,2.34-.35-1.8-1-3.59-2.14-5.37-.58-.9-1.33-1.78-2.26-2.65-1.06-.98-5.69-.89-5.65.26.07,1.95.67,3.88,1.48,5.8.21.51,1.3.71,2.46.69.3,1.16.43,2.33.47,3.49-.22-.05-.45-.08-.7-.1-.73-.06-1.57-.05-2.21.1-.64.14-1.27.3-1.8.49-.5.18-.97.38-1.3.6-.69.46-1.04.97-.95,1.49.05.26.29.5.84.68.5.17,1.32.29,2.03.28.74-.01,1.51-.09,2.03-.28.5-.18.89-.43.84-.68-.02-.1,0-.19.03-.29.05-.08.11-.16.19-.24.09-.06.18-.11.29-.17.22-.08.44-.16.69-.23,0,0,0,0,0,0,0,.21,0,.41-.02.62-.06,1.23-.21,2.45-.39,3.68-7.46.05-14.92.18-22.38.36,3.33-1.45,4.44-3.71,3.48-5.32-.36-.61-1.3-2.19-4.15-1.75.7-.11-2.61-.59-3.81-.67-2.06-.14-4.46-.01-6.72.09-.86-1.01-2.46-1.76-5.17-1.88-3.84-.17-7.88.96-11.02,2.03-2.85-.02-5.69-.06-8.53-.11-7.48-.15-14.88-.59-22.36-.72-13.01-.23-25.99.23-38.91.7-2,.07-4,.14-6.01.2-1.01-.69-2.44-.97-4.42-.45-.83.22-1.61.44-2.42.67-48.3,1.46-96.82,1.27-145.27.91-2.23-.02-4.46-.03-6.69-.05-.89-.22-1.93-.25-3.11-.03h-.03c-48.94-.37-98-.8-146.86.41-6.69.17-13.35.36-20.01.57.24-2.55-1.26-5.43-6.43-4.6-9.72,1.56-18.74,3.46-27.23,5.6-7.91.2-15.83.35-23.79.41-13.48.1-26.97.1-40.45.1-.51-.12-1.1-.16-1.79-.08-.21.02-.41.06-.62.08-11.51,0-23.02.03-34.53.15-26.71.28-53.08,2.05-79.7,2.42.32-4.42.49-8.84.57-13.25.29-1.09.31-2.18.07-3.27-.27-1.22-5.75-1.26-5.75,0,0,1.05-.04,2.09-.06,3.14-.21.8-.56,1.59-1.15,2.37-.33.44.22.79,1.09,1-.11,3.36-.29,6.72-.53,10.07-.48,0-.97,0-1.45,0-.97-.32-2.04-.61-3.24-.86-.58-.12-1.1-.16-1.58-.14-.68-1.59-1.59-3.16-2.84-4.71-.69-.86-5.08-.98-5.54,0-.37.79-.31,1.56-.39,2.35-.06.54,1.02.85,2.25.92.47.83.85,1.67,1.16,2.52-.31,0-.61.01-.91.02-2.71.02-5.4.1-7.93.33-.95.09-1.85.2-2.65.36-5.56.71-9.89,2.08-11.58,4.74-.62.97,1.73,5.38,5.34,2.93,2.96-2.01,13.48-1.61,18.92-1.48.02,2.88-.41,5.77-.9,8.6-.59,3.45-1.4,6.89-1.88,10.34-.56,3.99-.73,7.99-.92,11.98-.4,8.32-.37,16.64-.91,24.96-.54,8.23-2.5,16.46-1.82,24.7.35,4.3,1.58,8.56,3.65,12.8.61,1.25,1.29,2.51,1.96,3.76,0,3.56.1,7.11.3,10.67-.09.42-.05.86.08,1.3.33,5.04.89,10.08,1.71,15.11-.39.15-.64.35-.62.62.02.32.35.57.84.77.12.71.26,1.41.4,2.12-3.82.03-7.64.06-11.46.1-3.69.04-3.71,1.96,0,1.93,3.94-.04,7.88-.07,11.83-.1.27,1.07,4.58,1.28,5.63.24.1-.1.17-.19.26-.29,41.96-.33,83.94-.38,125.91-.12,16.89.11,33.77.27,50.66.48,4.46.08,8.92.15,13.38.21,1.45.96,3.84,1.73,6.63.55.37-.15.76-.3,1.13-.46.87.01,1.73.02,2.6.03,8.6.13,17.19.28,25.78.43,2.01.11,4.03.21,6.05.3,11.67.49,23.45.59,35.2.59.16.46.41.91.77,1.34,1,1.19,3.7,3.08,7.35,1.55,2.06-.87,4.15-1.73,6.22-2.59,43.69.99,87.34,1.78,131.17,1.67,26.69-.06,53.25-.56,79.79-1.21,4,.07,8.01.14,12.02.2,12.9.18,25.7.15,38.57-.2,11.92-.33,23.86-.18,35.75.22,22.87.77,45.55,2.04,68.58,2.21,9.8.07,19.95.01,29.6-.68-.04.51-.08,1.03-.1,1.54-.02.05-.05.1-.05.15v1.18c0,1.24,5.74,1.24,5.75,0,0-1.13.08-2.26.18-3.39,1.87-.21,3.74-.45,5.62-.69-.09,4.11.08,8.21.18,12.32.03,1.34.05,2.69.05,4.03,0,1.24,5.75,1.24,5.75,0v-1.16s-.01-.04-.02-.05c0-.45-.01-.89-.02-1.34.78-.14,1.34-.41,1.34-.8,0-3.05-.05-6.11-.13-9.16,1.43,0,2.81-.31,2.75-.93-.14-1.37-.31-2.74-.46-4.11.48-.05.97-.11,1.45-.15,0,2.02,0,4.04-.07,6.06-.05,1.54-.12,3.09-.2,4.63-.05.94,4,1.33,5.36.49,3.14-1.95,3.55-4.14,3.27-6.31-.23-1.79-.5-3.59-.76-5.38,1.81-.05,3.63-.05,5.48.03,4.88.22,9.5.82,14.46.88,3.7.05,3.69-1.88,0-1.93ZM279.61,21.59c-1.95.76-3.91,1.51-5.84,2.28.65-.58,1.05-1.34,1.22-2.17,1.54-.04,3.08-.07,4.62-.11ZM35.76,142.56c-.83-1.85-1.82-3.78-2.19-5.7.22-.02.45-.06.68-.1.82-.17,1.53-.38,2.19-.62.41.54.86,1.07,1.43,1.6.56.53,2.01.71,3.32.64-.11.58-.21,1.17-.32,1.75-.17.85-.29,2.84,2.44,3.34,1.03.19,1.9.18,2.61.04.09.35.23.71.39,1.06-3.1.27-6.2.53-9.33.73-.37-.92-.8-1.84-1.2-2.73ZM242.14,22.6c1.17-.03,2.35-.06,3.52-.09-35.52,10.59-64.28,23.63-95.49,35.58-12.24,4.69-23.7,9.59-34.96,14.55.82-.55,1.51-.99,1.98-1.29.87-.54,1.76-1.08,2.67-1.61,6.91-2.89,13.85-5.77,20.73-8.66,20.06-8.42,40.14-16.84,60.79-25.1,12.18-4.87,27.49-8.83,40.76-13.37Zm438.78,3.33c-.25.64-.33,1.29-.25,1.94-.55.07-1.12.17-1.73.3-.92.21-1.19,1.21-.39,1.64-3.02.9-6.02,1.81-8.97,2.72-4.21,1.31-8.31,2.66-12.36,4.03,6.42-3.17,12.97-6.31,20.21-9.28,1.16-.45,2.33-.9,3.49-1.36Zm-184.14.61c-6.98,2.76-13.56,5.65-19.9,8.58-10.2,4.71-20.01,9.5-29.61,14.34-4.04.95-7.79,2.03-11.35,3.2,20.02-8.39,40.73-16.67,57.08-25.94,1.26-.06,2.52-.12,3.78-.18Zm37.93-1.87c-10.34,4.5-19.83,9.25-30.26,13.73-4.72,2.03-9.64,3.99-14.67,5.93,13.19-6.44,24.71-13.94,42.54-19.05.78-.21,1.59-.41,2.39-.61Zm-338.46,55.79s.07-.03.1-.05c5.23-2.55,10.53-5.07,15.95-7.57-.03.56.07,1.12.28,1.64-1.95.85-3.9,1.69-5.84,2.54-3.51,1.14-7.01,2.29-10.49,3.44Zm-98.81,28.86c-3.2,1.5-6.4,3-9.57,4.51-6.62,3.15-13.32,6.3-20.96,9.18,2.16-1.07,4.33-2.13,6.42-3.18,7.62-3.84,15.1-7.71,22.77-11.53.38.4.83.74,1.33,1.02Zm-12.63,15.93c11.66-5.44,23.2-10.83,35.15-16.18-6.29,3.55-12.66,7.09-20.03,10.39-6.79,3.04-13.84,6.02-19.44,9.29-6.11,2.18-12.29,4.33-18.74,6.4-.05-.14-.11-.29-.17-.44,9.62-2.66,17.74-6.9,23.24-9.46Zm123.88-30.55c-.42.43-.7.91-.87,1.4-3.71,1.68-7.42,3.36-11.14,5.04,3.74-2.01,7.47-4.01,11.2-6.02.26-.14.54-.28.8-.42Zm-88.47,32.96c14.24-6.67,27.42-13.55,42.01-20.15,4.7-2.12,9.41-4.24,14.12-6.35-5.26,2.84-10.6,5.67-16.17,8.44-14.06,7-26.07,14.56-41.35,21.29-1.16-.31-2.65-.24-4.5.45-3.49,1.3-7.98,3.21-13.04,4.71,7.38-2.71,13.66-5.91,18.94-8.38Zm239.09-34.66c2.58-1.01,5.14-2.03,7.69-3.05-4.67,2.29-9.35,4.57-14.03,6.86-16.33,7.61-33.23,15.09-50.96,22.37-10.3,4.23-21.45,8.2-32.68,12.14,1.64-.73,3.4-1.45,5.32-2.16,9.41-3.47,18.84-6.77,26.76-10.66,8.6-4.22,16.27-8.63,25.31-12.76,1.5-.68,2.98-1.38,4.46-2.07,9.54-3.52,18.93-7.08,28.14-10.68Zm82.12,14.56c.19.91.63,1.76,1.41,2.37-8.26,2.84-17.05,5.5-25.73,8.2.03-.01.06-.02.09-.04,8.22-3.39,16.19-6.85,23.86-10.39.12-.05.24-.1.37-.15Zm15.97,24.55c.48.85,1.19,1.6,2.12,2.1-1.93.81-3.8,1.63-5.64,2.46-2.95-.03-5.9-.07-8.84-.13,4.18-1.46,8.3-2.94,12.37-4.44Zm-37.9,13.17c3.01.07,6.01.14,9.02.22-.16.01-.33.03-.49.04-3.11,0-6.21,0-9.31,0,.26-.09.53-.18.79-.27Zm96.21-17.22c7.02-4.26,15.34-8.33,23.51-12.35-7.91,4.1-15.76,8.22-23.51,12.35Zm48.61,7.1c1.17-.51,2.35-1.02,3.53-1.51,4.65-1.94,9.25-3.9,13.86-5.86,1.72-.18,3.42-.38,5.09-.62-1.28.56-2.56,1.13-3.87,1.69-4.69,2.01-9.66,3.95-14.48,5.93-1.38.12-2.75.25-4.12.38Zm156.15-20.5c.17.58.29,1.15.44,1.73.12,1.27.19,2.54.21,3.82-.79-1.38-1.4-2.77-1.9-4.16-.06-1.98-.06-3.97-.05-5.95.42,1.52.85,3.04,1.31,4.57Zm-40.51-3.81c-4.17,1.57-8.5,3.1-12.85,4.63,4.57-2.19,9.06-4.4,13.45-6.63-.2.67-.4,1.33-.59,2Zm-22.1-7.16c-1.78,1.3-3.56,2.59-5.39,3.88-4.32,1.48-8.67,2.94-12.98,4.42.69-.37,1.39-.75,2.08-1.12,5.59-2.34,10.91-4.76,16.29-7.17Zm-95.1,20.08s.1-.03.15-.05c-.12.57-.15,1.16-.03,1.74-5.71,2.57-11.43,5.15-16.73,7.82-1.73.87-3.44,1.75-5.19,2.62-2.04-.13-4.07-.29-6.14-.47,9.52-3.83,18.8-7.72,27.95-11.66Zm160.04-84.87c0-.09,0-.19,0-.28.01,0,.02,0,.03-.01,0,.1-.02.2-.03.29Zm-31.89,15.95c.02.18.04.36.06.54,0,.07,0,.15,0,.22,0,1.02-.1,2.12-.1,3.23-1.7.62-3.4,1.24-5.09,1.87.5-1.4,1-2.8,1.49-4.19,1.24-.55,2.46-1.1,3.65-1.66Zm-.05,14.67c-.03.32-.07.65-.1.97-14.53,5.67-27.27,11.81-40.2,17.9,6.23-3.46,12.4-6.92,18.88-10.3.26-.14.5-.37.71-.66,6.77-2.68,13.66-5.32,20.71-7.91Zm-198.22,63.25c-.66.71-1.28,1.42-1.85,2.14-.17.21-.31.51-.43.87-2.08.14-4.13.27-6.14.38,2.79-1.13,5.6-2.26,8.43-3.39Zm171.03-66.9c3.89-1.5,7.82-2.98,11.69-4.48-.27.77-.53,1.54-.77,2.3-.1.3-.16.77-.1,1.31-30.21,11.74-57.55,24.28-85.23,36.72,7.51-3.74,15.05-7.47,22.64-11.19,15.55-7.63,31.26-15.22,47.02-22.8,1.59-.62,3.16-1.24,4.77-1.86Zm-430.34,60.97c-3.87,1.52-7.92,3.82-12.82,5.6,2.57-1.42,5.33-2.8,8.06-4.18,1.06-.54,2.08-1.08,3.12-1.63,5.77-2.32,11.48-4.65,17.17-6.99-.6.49-1.17.98-1.7,1.48-.19.18-.39.52-.57.98-4.59,1.53-9.07,3.09-13.26,4.74Zm84-31.31c3.62-1.87,7.23-3.74,10.86-5.61,13.42-6.91,26.5-14.05,40.89-20.83,7.07-3.07,14.13-6.14,21.18-9.21,3.39-1.35,6.87-2.66,10.46-3.95-4.5,2.1-8.97,4.21-13.34,6.33-18.63,9.05-36.05,18.34-55.89,27.11-4.66,2.06-9.38,4.12-14.16,6.16Zm-70.58,37.6c-2.06,1.64-4.51,3.24-7.03,4.82-.35-.29-.75-.56-1.26-.8-.72-.33-1.78-.67-2.9-.83,4.41-1.77,8.98-3.46,13.73-5.11-.87.63-1.72,1.27-2.54,1.92Zm-40.05-6.73c.05.13.1.26.16.38-.98.43-1.98.85-2.96,1.27-4.76,2.08-9.45,4.16-13.62,6.37-2.9,1.54-5.61,3.04-9.63,4.15-.49.06-.97.13-1.44.2-.02-.22-.04-.43-.08-.65,9.86-3.71,18.97-7.65,27.57-11.72Zm-11.13,18.69c.11.09.23.17.35.25-.42,0-.83,0-1.25,0,.31-.08.6-.16.9-.25Zm24.41-.58c.37.31.77.61,1.24.89-1.21,0-2.42,0-3.63-.01-.3,0-.61,0-.91,0,1.13-.28,2.23-.57,3.3-.88Zm96.99-9.93c-.8.47-1.6.95-2.36,1.43-.28-.01-.56-.02-.84-.03,1.07-.46,2.14-.93,3.2-1.39Zm345.26,10.98c.07.16.14.31.23.46-.51,0-1.02.01-1.53.02.44-.16.87-.32,1.3-.48Zm48.77-.52c.12.12.24.23.38.35-.47,0-.93.01-1.4.01.34-.12.68-.24,1.02-.37Zm11.37.17c1.12.11,2.1-.1,2.93-.48.01.18.02.36.03.55-1.06,0-2.11.01-3.17.02.07-.03.14-.06.2-.09Zm-41.56-99.69c-3.86,2-7.65,4.01-11.59,5.91-5.06,2.44-10.1,4.88-15.16,7.32-12.21,4.72-24.23,9.5-36.16,14.3-.05-.21-.12-.42-.2-.62,18.44-8.92,37.79-17.58,58.11-26.04,1.85-.77,3.65-1.55,5.43-2.34-.19.64-.34,1.15-.43,1.47ZM196.6,111.71c-17.84,8.15-36.4,16.24-51.28,25.06-1.67.45-3.38.93-5.13,1.37.16-.69.07-1.39-.24-2.05,8.7-3.34,16.16-7.19,23.37-10.42,19.4-8.7,39.06-17.32,58.26-26.07,8.56-3.9,17.29-7.75,26.13-11.56,5.06-2.11,10.08-4.23,14.99-6.37,4.68-1.96,9.4-3.91,14.15-5.84-26.93,11.92-53.87,23.83-80.25,35.89Zm162.34-77.36c-7.45,2.75-14.96,5.48-22.46,8.2.8-.83,1.03-1.77.95-2.66,8.76-2.43,17.66-4.79,26.22-7.29-1.57.58-3.14,1.16-4.71,1.74Zm-97.02,110.71c0,.15,0,.31.01.46-1.11,0-2.23,0-3.34-.01,1.08-.17,2.19-.32,3.33-.45Zm29.93-.52c1.73.04,3.43.07,5.07.09,3.78.05,7.54.15,11.29.28.17.26.38.52.64.75-6.73-.01-13.45-.03-20.18-.05,1.07-.35,2.13-.71,3.17-1.07Zm299.88-70.53c-2.86.89-5.63,1.81-8.35,2.76.17-.21.31-.43.42-.65,5.03-2.12,10.08-4.23,15.12-6.34,2.16-.9,4.33-1.81,6.51-2.71-4.62,2.3-9.18,4.62-13.71,6.94Zm-198.48-26.34c-1.2.29-2.39.59-3.57.89,1.91-.61,3.81-1.21,5.71-1.82-.71.31-1.43.62-2.14.94ZM62.35,106.2c-4.57,2.34-9.25,4.82-12.99,7.42-.09-1.25-.16-2.49-.22-3.74,10.42-3.88,20.3-7.91,29.91-12.02-5.64,2.76-11.23,5.53-16.7,8.34Zm-19.73-43.34c.34-.18.65-.36.91-.55-.03,1.14-.07,2.28-.12,3.42-.39.27-.76.55-1.14.83.1-1.23.22-2.47.35-3.7Zm9.64,15.45c.05-.45.09-.89.14-1.34,1.41-.19,2.79-.44,4.12-.75-1.43.69-2.85,1.39-4.26,2.09Zm-10.25-2.48c.05,0,.11,0,.16-.01.15.16.33.31.52.45-.15,1.55-.32,3.1-.53,4.64-.01.08-.02.16-.03.24-.06-1.77-.1-3.54-.12-5.32Zm78.16-33.06c-1.71.64-3.4,1.29-5.11,1.94,8.85-4.17,17.27-8.45,25.93-12.66,1.56-.76,3.25-1.49,4.98-2.22,5.43-1.28,10.96-2.52,16.57-3.71-14.97,5.33-28.27,11.34-42.38,16.65Zm-65.18,2.28c-.61.28-1.2.56-1.8.85,0-.16.01-.31.02-.47.22-.02.44-.06.69-.13.35-.11.68-.22,1.03-.33.02.03.04.06.07.08Zm-11.73-7.01c.59-.03,1.17-.06,1.75-.1-.41,3.94-1.13,7.89-1.24,11.83-.02-3.91-.57-7.83-.51-11.73Zm362.2-5.13c-.7.32-1.19.71-1.58,1.12-11.92,3.97-24.39,7.76-36.37,11.7-.72.24-1.44.48-2.16.72,2.09-1,4.2-1.99,6.27-2.99,9.24-4.48,17.65-9.19,27.73-13.37,2.77-.92,5.58-1.83,8.43-2.73,2.84.1,5.65.19,8.42.26-3.64,1.8-7.12,3.62-10.74,5.29ZM70.53,92.15c3.52-1.87,7.14-3.73,10.96-5.55,5.39-2.56,10.97-5.08,16.65-7.58-.44.57-.85,1.15-1.21,1.73-8.65,3.84-17.37,7.67-26.4,11.4Zm663.79,53.03c-.25-3.37-.56-6.75-.94-10.12.21-.99.36-1.98.47-2.97.08.4.18.8.25,1.2.31,1.58.58,3.16.84,4.75.17,2.38.32,4.75.42,7.13-.35,0-.69,0-1.04,0Zm-193.31-81.71c-3.73,1.96-7.42,3.93-11.12,5.9-.87-.78-2.17-1.25-4.12-1.02-.14.02-.27.03-.41.05,12.88-5.71,25.87-11.4,39.23-16.99,4.46-1.87,8.91-3.74,13.34-5.61-12.99,5.71-25.34,11.57-36.93,17.67Zm26.01-32.45c6.35-3.02,13.25-6.01,18.29-9.26,3.39.06,6.77.11,10.16.17-9.63,2.98-19.18,5.99-28.45,9.09Zm-211.42-9.46c-.1-.19-.24-.4-.43-.64.98,0,1.96,0,2.95,0-.85.21-1.69.42-2.52.63Zm-17.1-.34c.05-.1.12-.2.15-.3.38,0,.76,0,1.14,0-.43.1-.87.2-1.29.3Zm-69.95,4.72c.21-.07.42-.14.64-.21-.06.03-.13.05-.19.08-.15.04-.3.09-.45.13Zm-143.38-2.77c-7.65,2.96-14.47,6.23-21.58,9.23-1.68.71-3.42,1.4-5.18,2.09-2.08.67-4.14,1.34-6.17,2.02,10.1-4.54,20.34-9.05,31.46-13.33.49,0,.98,0,1.47-.01Zm-67.43,13.53c0-.29.05-.59.11-.9.91-.24,1.8-.49,2.68-.75-.93.55-1.85,1.1-2.79,1.65Zm-12.81-7.91s-.03.02-.04.03c0-.05.02-.11.03-.16,0,.04.01.09.02.13Zm686.3,41.39s0-.04,0-.07c0,.05,0,.1,0,.14v-.08Zm-19.81-39.87c-.01.6,0,1.19.01,1.79-1.49.6-2.96,1.2-4.42,1.8-.04-.61-.08-1.21-.11-1.82.86-.39,1.72-.78,2.59-1.17.64-.2,1.28-.4,1.92-.6Zm-77.76-6.59c-9.6,3.18-18.41,6.62-27.1,10.09-5.24,2.1-10.38,4.21-15.45,6.33,13.25-5.79,25.95-11.72,37.31-17.95,2.9-.01,5.8-.04,8.7-.08-1.16.54-2.31,1.07-3.46,1.61Zm-540.71,1.04c.03-.33.03-.66-.02-.98.94-.02,1.88-.05,2.81-.07-.93.35-1.87.71-2.8,1.05Zm-26.46,2.41c.18-.86.18-1.85-.28-2.66,3.35-.09,6.7-.18,10.05-.28-3.33.95-6.56,1.95-9.77,2.93Zm655.52-12.16c.08-.19.18-.37.28-.56.02.15.05.29.07.44-.12.04-.23.08-.35.12Zm-17.31,7.03c-1.22.38-2.46.75-3.69,1.13-.89-.93-2.47-1.63-5.3-1.04-1.69.35-2.45,1.12-2.65,1.99-.98-.75-2.11-1.47-3.46-2.17-.42-.22-.95-.35-1.51-.42.08-.26.13-.52.15-.78,6.75-.18,13.52-.32,20.29-.39-1.29.56-2.56,1.12-3.83,1.68Zm-73.65-1.75c.08-.11.13-.22.2-.33,3.11.05,6.22.11,9.34.17-3.18.06-6.35.11-9.53.15Zm97.28-8.08c.11.03.21.07.31.1.02.01.03.02.07.04.03.02.13.08.19.12.03.03.08.07.13.12-.42.13-.83.27-1.24.41-.06-.3-.09-.59-.15-.89-.02-.08-.04-.15-.05-.23.15.11.39.22.74.32ZM28.66,84.9c.13,1.65.3,3.3.47,4.95-.67,5.9-1.2,11.8-1.56,17.7-1.14-7.55.25-15.1,1.09-22.65Zm8.76,67.24c.07-.16.13-.33.19-.49,1.89.1,3.78.16,5.67.17,4.92.17,9.92.18,14.79.13,9.96-.1,19.87-.45,29.8-.66,3.48-.07,6.95-.1,10.41-.09,8.56.16,17.11.4,25.65.68-28.84-.05-57.69.04-86.52.26Zm595.58,3.71c-.78-.03-1.55-.06-2.33-.1,27.71-.38,55.41-.87,83.13-1.15-.12.66-.23,1.33-.32,1.99-4.34.35-8.8.53-13.25.63-22.36.54-45.08-.43-67.23-1.38Zm86.27.18c.07-.49.14-.98.23-1.47,1.76-.02,3.52-.03,5.28-.04-.02.28-.02.56-.04.84-1.81.24-3.64.46-5.47.68Z"/>
      </g>
      <path class="cls-1" d="m86.44,59.85c-3.89-20.99-31.08-23.39-41.7-6.53-6.12,9.72-7.22,23.23-6.66,34.45.48,9.63,3.65,26.8,15.16,29.39,4.97,1.12,9.81-1.96,14.03-4.19,2.77-1.46,6.15-2.37,7.24-5.57,1.09-3.19.79-6.18-.47-9.22-.25-.6-1.32-2.23-2.27-2-7.84,1.88-16.18,12-23.18,3.04-6.03-7.72-5.07-21.13-1.94-29.93,2.71-7.63,10.14-13.02,18.22-13.29,3.74-.12,7.39.81,10.67,2.61,2.98,1.64,6.1,5.66,9.33,6.3,1.79.35,1.71-4.4,1.59-5.06h0Z"/>
      <path class="cls-2" d="m69.03,67.37c-3.45-8.81-12.49-14.15-21.51-9.89-9.32,4.4-11.79,15.89-11.36,25.23.41,9.1,2.29,21.9,11.21,26.77,4.34,2.37,8.68,1.75,13.1.05,4.27-1.65,9.35-6.25,13.9-6.52.91-.06.6-2,.4-2.49-1.48-3.59-2.77-6.59-6.86-7.63-3.5-.89-6.41,1.05-9.57,2.22-7.39,2.75-13.48-1.13-14.97-8.69-1.19-6.04.05-11.28,5.86-14.38,6.46-3.44,12.2-.22,17,4.22,3.95,3.65,3.46-7.26,2.82-8.89h0Z"/>
      <path class="cls-2" d="m86.8,78.51c-1.97-4.92-7.18,2.73-7.84,4.4-1.59,4.05-1.6,8.82-.97,13.07.96,6.44,4.38,15.07,11.27,17.13,8.11,2.42,14.54-7.27,16.16-13.94,2.27-9.33-.4-20.48-7.64-27.02-2.36-2.13-6.34-4.84-9.52-2.65-1.83,1.26-2.31,4.1-2.89,6.06-.67,2.26-.92,4.68-.61,7.02.08.6.91,2.94,1.82,1.58.28-.42.5-.88.81-1.27.53-.66-1.15-.64.67.37,1.08.6,1.81.47,2.95.69,2.78.54,5.14,2.47,6.78,4.71.61.84,1.48,2.5,1.66,3,.21.81.26.93.13.37.12.88.14.97.04.26-.38.25,1.09-2.26-.08.13-1.38,2.8-3.46,6.05-6.66,7.02-5.11,1.55-8.63-4.12-9.38-7.51.34,1.53-.16-2.18,0-.16-.12-1.6-.29,1.02.02-.52-.31,1.54.59-1.22.11-.29.3-.58.43-.91.75-1.38.84-1.23,2.14-2.07,2.81-3.41,1.24-2.49.55-5.28-.39-7.63h0Z"/>
      <path class="cls-2" d="m125.23,64.49c-4.75.66-8.64,5.6-12.34,8.38-3.16,2.37-2.24,8.3-1.06,11.4,1.81,4.77,5.73,6.73,10.47,7.73,2.64.56,5.34.75,7.99,1.26,1.26.24,2.52.52,3.69,1.07.4.19,2.02,1.55,2.32,1.55.93,0,1.16-3.54.01-3.19-.51.16-1.87,2-2.41,2.42-1.99,1.55-4.4,2.66-6.76,3.51-4.16,1.49-9.11,2.5-13.48,1.42,1.04,3.67,2.07,7.34,3.11,11,.76-2.45,1.77-4.49,3.32-6.55.53-.7.79-3.39-.32-3.8-3.31-1.22-5.07-2.37-7.75.39-2.08,2.15-2.61,12.31,1.12,13.43,5.68,1.71,12.29-.25,17.53-2.57,6.47-2.86,11.23-7.83,11.88-15.11.64-7.22-1.98-14.64-9.37-16.78-4.59-1.33-15.2-.17-17.28-5.51-.35,3.8-.71,7.6-1.06,11.4,4.1-3.33,8.22-7.09,11.96-10.81,1.58-1.57,1.9-11.12-1.55-10.65h0Z"/>
      <path class="cls-2" d="m156.55,66.84c-3.8,4.88-3.75,12.27-3.34,18.13.46,6.61,1,14.44,3.31,20.69,1.89,5.13,4.63,2.43,5.29-1.69.74-4.61-.34-7.58-2.38-11.52-.56-1.07-1.06.44-1.02,1,.1,1.44.31,2.73-.12,4.13l1.63-2.2c-.66.17-1.26.4-1.89.65,1.28,2.07,2.56,4.13,3.85,6.2.18-9.6-3.84-18.49-1.9-28.22.26-1.29-.5-10.93-3.42-7.17h0Z"/>
      <path class="cls-2" d="m140.67,70.33c.93,2.28,9.25,1.12,11.26,1.19,3.08.12,6.2.39,9.28.15,5.35-.42,10.91-1.33,13.62-6.39,1.49-2.79,2.18-5.18-.19-7.61-3.84-3.94-9.04-1.18-13.79-.73-3.08.29-6.19.02-9.28.08-2.85.06-7.14-.3-9.72,1.15-4.07,2.28-2.55,8.8-1.18,12.16h0Z"/>
      <path class="cls-2" d="m178.81,114.78l.38.05c.61.08,1.21-.9,1.36-1.31,2.82-7.86,2.22-16.65,1.75-24.84-.26-4.4-.67-8.86-.44-13.27.07-1.38-.03-4.54.99-5.65s1.97,1.16,2.32,2.05c-.1-.26-.21-.19.03.32-.1-.22-.04-1.16.19-1.32-1.64,1.1-2.18,2.21-4.44,2.61-5.09.91-3.08,11.12-1.34,13.89,2.89,4.62,7.25,8.06,11.08,11.86,1.93,1.92,3.95,3.9,5.48,6.18,1.45,2.15,1.37,3.83,2.11,6.31.84,2.81,3.27,4.82,4.87,1.26,3.37-7.51-.45-16.8-5.38-22.67-4.68-5.59-11.1-9.7-15.11-15.85-.45,4.63-.9,9.26-1.34,13.89,7.97-1.65,10.63-9.18,10.38-16.66-.16-4.74-1.72-14.4-7.32-16.08-7.24-2.18-8.32,12.28-8.57,16.32-.45,7.4.33,14.75.9,22.12.28,3.64.6,7.29.58,10.95-.01,2.82-.58,5.77.41,8.48.21.56.43,1.26,1.12,1.35h0Z"/>
      <path class="cls-2" d="m203.58,68.88c.58,3.44,1.49,6.65,1.76,10.16.34,4.51.53,9.02,1.15,13.5,1.16,8.41,3.67,17.04,10.73,22.34.57.32,1.12.3,1.67-.04,6.75-6.6,7.9-16.21,7.99-25.25.1-9.14-1.05-18.42-2.13-27.48-.22-1.81-1.21-5.54-3.64-5.05-2.46.5-2.58,5.42-2.61,7.11-.11,7.24,1.36,14.44,1.68,21.67.26,5.85.27,11.89-4.03,16.35.8-.25,1.6-.51,2.41-.76-6.15-4.29-6.59-12.17-7.28-19.01-.53-5.23-.2-15.64-4.43-19.49-3.01-2.74-3.53,4.34-3.27,5.95h0Z"/>
      <path class="cls-2" d="m233.86,66.17c-1.42,5.97-.19,12.67.57,18.66.78,6.2,1.31,12.27,1.57,18.51.08,1.83.46,6.15,2.83,6.63s3.01-3.41,3.25-4.97c1-6.48-.46-13.61-1.36-20.03-.82-5.84-1.48-11.64-2-17.51-.33-3.72-3.72-6.03-4.85-1.29h0Z"/>
      <path class="cls-2" d="m270.1,57.06c-6.93-1.75-16.16,6.33-18.58,12.35-1.86,4.62-1.52,11.07,1,15.39,2,3.43,5.23,4.09,8.95,4.16,1.7.03,3.48-.17,5.16.12.35.06,2.03.79,2.33.71.12.21.28.31.47.3-.17-1.74-.34-3.48-.5-5.23-.15-.02-5.6,6.87-6.45,7.7-3.15,3.05-6.81,5.75-9.51,9.22-2.86,3.66-3.33,7.27-4.15,11.67-.07.38-.19,2.8.73,2.58.8-.19,1.9.92,2.78.95,1.49.04,3.16-1.13,4.34-1.98,3.21-2.33,6.06-5.52,8.83-8.33,6.13-6.21,11.19-13.3,9.84-22.51-.54-3.68-2.1-7.64-5.67-9.31-3.28-1.53-6.96-.56-10.4-.96-.56-.06-1.39-.37-1.94-.29-.36-.12-.69-.31-.99-.55.08,2.15.15,4.3.23,6.45.25.01,3.94-4.04,4.55-4.49,2.85-2.11,6.63-4.85,9.99-5.99s2.28-11.11-1.02-11.95h0Z"/>
      <path class="cls-2" d="m294.52,63.54c.74,2.77.87,3.12.4,1.07-.19-.69-.49-1.33-.89-1.92-.49-.83-1.01-1.64-1.81-2.21-1.15-.83-2.7-1.2-4.08-.97-3.55.61-5.88,4.98-7.3,7.84-3.74,7.52-5.78,16.92-5.58,25.31.13,5.45,1.13,22.12,10.25,20.12,3.28-.72,6.11-3.25,8.8-5.11,1.8-1.24,3.69-2.34,5.42-3.68,2.13-1.64,2.54-3.35,3.95-5.49,1-1.53,1.03-4.64-.49-5.87-2.54-2.05-3.16-3.2-6.7-1.61-2.44,1.09-4.61,2.99-6.79,4.5-3.51,2.43-6.96,5.19-7.72-.44-.42-3.1-.42-2.76.06-5.94.42-2.81,1.11-5.66,2.03-8.34.76-2.22,1.75-5.05,3.57-6.67,1.73-1.55,3.35-1.07,5.42-1.46,3.08-.58,2.59-7.18,1.46-9.14h0Z"/>
      <path class="cls-2" d="m310.44,72.34c-1.48-1.76-1.27-1.82-3.36-2.46-1.19-.36-1.84.35-2.3,1.44-3.23,7.64-3.34,16.99-2.38,25.09.85,7.15,3.66,18.32,12.53,18.92,7.24.49,11.28-7.15,13.04-13.04,2.35-7.85,2.47-16.96-.23-24.74-2.57-7.41-9.89-13.88-17.72-8.5-2.89,1.98-3.8,13.27.35,14.41,2.34.65,3.3,1.39,3.46,4.19.05.81.9,2.26,1.23.7,1.13-5.4.44-10.73-1.16-15.96l-2.63,11.32c5.1-1.21,9.76-2.07,11.37,3.23.51,1.68.57,3.11.15,5.66-.27,1.66-1.18,4.41-2.6,6.12-3.68,4.44-9.61,3.06-11.45-2.27-1.91-5.52-1.62-13.15-.05-18.73-.46.83-.91,1.67-1.37,2.5,1.94-1.02,1.85-1.06,3.23-2.86.92-1.2.85-3.87-.12-5.02h0Z"/>
      <path class="cls-2" d="m334.27,70.22c-.86-4.37-1.33-5.18-1.42-2.41-.16.97-.27,1.94-.32,2.92-.16,2.07-.16,4.18-.17,6.26-.01,3.82.1,7.64.38,11.45.58,7.8,1.5,15.67,3.56,23.23.82,3,3.28,4.59,4.88,1.26,1.36-2.81,1.36-8.34-.89-10.68l-.91-1.4c-.25-.83-.88-.8-1.08.03l-.4.75c1.19,1.01,2.37,2.03,3.56,3.04-2.9-12.61-4.24-25.58-4.02-38.52.02-1.26-.43-4.82-2.28-4.78s-2.08,3.73-2.04,4.88c.05,1.59-.16,3.05,1.15,3.98h0Z"/>
      <path class="cls-2" d="m337.86,68.97l.03-.35c-.76,1.37-1.52,2.74-2.28,4.11l.69-.2c-.61-.54-1.23-1.08-1.84-1.62,4.06,7.66,9.17,15.22,14.54,22.03,4.88,6.2,12.31,10.45,16.38,17.23,1.32-4.06,2.64-8.11,3.96-12.17-5.14-5.36-6.34-12.56-7.34-19.65-.87-6.16-.21-16.61-4.38-21.55-1.31-1.55-2.96-.54-3.54,1.11-.83,2.38-1.06,5.07-2.01,7.37-.25.62-.43,4.09.99,3.45.84.28,1.68.53,2.53.76.57-.15,1.11-.38,1.62-.68-1.27-2.66-2.54-5.33-3.82-7.99-.65,4.4.45,9.23.92,13.63.46,4.38.89,8.76,1.67,13.09,1.53,8.45,3.91,17.52,10.13,23.8,2.38,2.41,4.12-.6,4.74-2.87.93-3.42.42-7.52-1.52-10.48-4.47-6.82-11.55-11.05-16.79-17.19-5.38-6.3-9.4-14.21-15.84-19.5-.46-.26-.91-.25-1.35.03l-.66.55c-2.1,1.77-2.83,9.35.26,10.64l.17.07c1.95.82,2.61-2.42,2.73-3.65h0Z"/>
      <path class="cls-2" d="m371.24,72.02c-8.06-2.13-5.33,19.87-4.48,23.28,1.98,7.97,7.54,19.53,17.61,15.98,11.38-4,11.3-18.6,7.78-28.1-2.79-7.53-11.23-20.8-20.81-20.21-3.52.21-3.24,7.43-2.97,9.45.48,3.62,1.67,7.38,3.61,10.49,1.13,1.81,1.68-2.51,1.63-2.97-.26-2.51.78-5.19,1.17-7.68-1.32,1.76-2.64,3.52-3.96,5.27,5.85,2.09,10.35,5.14,13.89,10.4.98,1.45,3.21,5.03,2.89,6.27-.02.08-3.29,2.47-4.36,2.9-9.97,4.01-14.02-11.51-10.56-18.29.87-1.7.86-6.2-1.43-6.8h0Z"/>
      <path class="cls-2" d="m433.62,72.28c.65-1.68.81-3.27.86-5.06.04-1.64-.58-6.29-2.97-6.23-2.48.06-2.62,4.87-2.66,6.37-.36,13.39-4.94,28.89.27,41.82,3.84,9.53,13.8,9.13,22.62,9.39,4.94.15,4.8-15.49-.38-15.38-4.72.1-15.28,1.87-17.56-3.89-1.63-4.12-.3-10.61,0-14.9.39-5.73.84-11.44.69-17.19-.04-1.64-.52-6.29-2.97-6.23-2.43.06-2.7,4.87-2.66,6.37.04,1.31.18,2.6.62,3.83.76,2.12,2.86,4.41,4.15,1.09h0Z"/>
      <path class="cls-2" d="m459.53,112.63c-.55-2.53-.44-5.53-.38-9.13.08-4.71.46-9.42.97-14.11.47-4.3,1-8.61,1.93-12.84.28-1.28.94-3.73,1.05-4.03.54-1.5,1.01-1.16-.05-.91-1.16-2.44-2.33-4.89-3.49-7.33.24,10.88,5.61,20.18,10.98,29.31,2.7,4.58,5.57,9.18,7.58,14.12,1.65,4.04,1.29,4.95.6,9.26.65-1.51,1.31-3.02,1.96-4.53-1.47.56-2.3.47-3.8.35-.97-.08-.61,2.19-.43,2.63.9,2.2,2.02,4.18,2.69,6.5.32,1.13,1.73,4.11,3.42,2.87,4.69-3.47,4.42-11.46,3.65-16.62-.83-5.53-2.9-10.77-5.5-15.69-2.72-5.16-5.95-10.04-8.86-15.1-2.18-3.8-5.55-8.83-5.67-13.25-.04-1.38-.78-7.99-3.49-7.33-3.65.89-4.81,5.95-5.69,9.05-1.57,5.57-2.37,11.44-3.01,17.19-1.24,11.02-2.76,23.72.39,34.56.53,1.84,1.74,3.75,3.68,2.48,1.86-1.22,1.88-5.68,1.49-7.45h0Z"/>
      <path class="cls-2" d="m458.17,100.7c3.12-2.2,7.06-1.74,10.74-1.24,3.63.49,7.96,1.96,10.58,2.2-.76-1.58-1.51-3.17-2.27-4.75-.25.64-.5,1.29-.76,1.93-.29.5-.51,4.02.7,3.28,1-.61,1.89-.14,2.89-.65,2.35-1.2,1.51-6.24.75-8.06-.63-1.52-.52-1.94-1.75-3.5-.76-.97-2.11-1.8-3.14-2.43-2.54-1.56-5.32-2.18-8.28-2.26-5.57-.15-10.83,3.64-11.79,9.26-.16.94-.08,7.9,2.31,6.22h0Z"/>
      <path class="cls-2" d="m541.53,69.54c-.26-.07-.07.05.56.35,3.1,1.88,4.06-9.16,1.09-11.09-6.1-3.97-12.58,7.73-14.69,11.78-3.58,6.84-5.76,14.27-8.09,21.59-.75,2.35-.84,11.27,3.19,11.29,4.47.02,9.46-3.63,13.4-5.39,2.78-1.24,5.66-2.47,8.7-2.89,1.21-.17,2.58-.31,3.78-.03.85.2,2.09,1.49,2.68,1.57,2.2.29-2.12-4.8-.41-5.13.04,0-.16.56-.3.7-.76.78-1.3,2.43-1.92,3.36-1.85,2.79-3.98,5.39-6.18,7.91-3.56,4.08-8.46,7.81-11.31,12.42-1.77,2.86-1.92,6.91-.93,10.08.66,2.12,2.41,5.01,4.55,2.52s3.9-5.28,5.87-7.96c.68-.93,1.22-6.45-.89-6.13-2.35.36-4.6.17-6.97.44.41,4.8.82,9.6,1.23,14.4,2.56-1.4,4.73-4.27,6.74-6.35,2.83-2.94,5.57-6.01,8.11-9.21,5.43-6.84,10.21-14.97,8.28-24.05-1.77-8.35-8.21-11.18-16-8.93-3.79,1.1-7.37,2.78-10.93,4.48-2.37,1.13-5.18,3.09-7.89,3.08,1.06,3.76,2.13,7.53,3.19,11.29,1.82-5.75,3.69-11.5,6.24-16.98,1.29-2.75,2.8-5.41,4.79-7.72s4.63-3.47,6.6-5.69c-1.23-2.59-2.47-5.17-3.7-7.76-.18,1-.42,1.99-.72,2.96-.46,1.1.14,7.37,1.89,5.07h0Z"/>
      <path class="cls-2" d="m568.28,110.62l-.75-.08c.92,2.51,1.85,5.02,2.77,7.53,1.49-9.2.46-19.24-.1-28.49-.56-9.28-.8-19.3-3.26-28.3-1.05,3.32-2.1,6.65-3.15,9.97.67.35,2.95,1.37,3.46,1.84.71.64.96-1.57.96-1.73-.03-3.53-.07-6.5-1.27-10.08-2.28-6.8-5.55-.53-5.52,3.53.05,8.89,1.8,17.92,2.44,26.81.64,8.82.25,17.8,1.27,26.58.1.87,1.56,5.89,3.4,4.11l.69-.66c1.97-1.89,3.07-10.6-.94-11.03h0Z"/>
      <path class="cls-2" d="m549.25,66.5c2.62,6.64,9.88,6.88,16.08,7.34,4.81.36,10.59-.24,15.13-2.09,4.06-1.66,8.26-4.35,10.29-8.39,1.38-2.73,2.49-7.61.34-10.24-.51-.62-.97-.11-1.25.39.27-.5-.81.27-1.42.48-1.12.38-2.26.62-3.41.9-3.23.79-6.48,1.18-9.75,1.82-3.72.72-7.42,1.06-11.21.93-3.93-.13-8.64.09-11.87-2.36-3.03-2.29-3.95,6.08-3.9,7.03.09,1.63.38,2.72.96,4.19h0Z"/>
      <path class="cls-2" d="m587.64,71.8c-6.23,9.23-6.07,54.12,13.16,45.16,9.74-4.54,8.69-20.45,7.74-29.09-1.08-9.78-3.62-19.98-7.7-28.96-.43-.96-2.09-3.2-3.43-1.92-7.95,7.66-13.17,26.25-4.72,35.21.81.86.79-1.63.63-1.99-2.21-5.17,2.56-14.67,6.31-18.27-1.14-.64-2.29-1.28-3.43-1.92,2.12,4.67,3.94,10.97,5.11,16.79.92,4.59,3.03,12.32-1.31,15.61-5.47,4.15-8.96-1.62-9.73-6.38-.88-5.4-.62-11.91.92-16.82.48-1.53-.94-11.28-3.54-7.42h0Z"/>
      <path class="cls-2" d="m616.57,64.09c-3.58,17.1-.1,36.63,3.69,53.44.6,2.66,2.76,4.61,4.61,1.84,1.76-2.63,1.39-7.68.06-10.37s-1.71-5.32-2.56-8.01c-.41-1.29-.97.23-.88.87.1.71.94,4.91.38,5.43,1.31,1.59,2.62,3.17,3.94,4.76-1.77-14.5-5.41-28.43-3.89-43.16.21-2,.15-6.22-1.84-7.49-1.94-1.24-3.11.85-3.5,2.7h0Z"/>
      <path class="cls-2" d="m609.05,67.85c4.18-1.92,6.93-6.71,11.05-8.94,5.47-2.95,10.14,6.55,12.13,10.52.41.82,1.24,4.06,1.8,4.4-1.45-.86,1.43-2.79-.76-.76-2.04,1.89-4.09,3.38-6.58,4.68-3.07,1.61-6.45,2.43-7.73,5.95-1.42,3.9-1.11,7.89,1.24,11.29.43.62,1.02.95,1.76,1.01,6.36-1.6,14.01-6.19,16.91-12.27,4.03-8.42,1.79-18.57-2.53-26.39-2.77-5.01-8.37-15.26-15.43-14.05-5.98,1.03-8.88,8.24-13.93,10.75-3.83,1.91-2.49,15.9,2.05,13.81h0Z"/>
      <path class="cls-2" d="m629.64,94.89c.45-.25,12.51,26.82,15.18,29.3,3.06,2.84,4.5-2.16,4.75-4.54.52-4.79-.21-7.83-2.9-11.51-.74-1.02-1.18,1.15-1.15,1.55.04.58.15,2.17-.01,2.96.6-.81,1.19-1.61,1.79-2.42-.39-.08-.77-.04-1.14.12.8.7,1.6,1.41,2.39,2.11-1.68-4.34-15.12-33.09-20.91-26.93-1.53,1.62-1.21,11.12,2,9.36h0Z"/>
      <path class="cls-2" d="m651.21,59.76c-2.58,3.12-2.38,8.56-2.4,12.34-.04,5.88.56,11.77,1.19,17.6.64,5.86,1.42,11.71,2.27,17.55.64,4.38.73,9.34,2.29,13.51,1.36,3.64,4.03,3.98,5.08-.12.93-3.63.67-6.68.25-10.33-.04-.37-.7-2.1-1.28-1.1-.67,1.15-1.25,1.32-2.52,2.02,1.27,2.62,2.54,5.23,3.81,7.85.8-9.1-2.17-19.13-3.42-28.12-.69-4.95-1.33-9.92-1.74-14.9-.17-2.04-.26-4.09-.27-6.14,0-.25.06-2.68.02-1.82,0-.18.29-2.28.1-1.26.24-1.3-.37-10.72-3.38-7.08h0Z"/>
      <path class="cls-2" d="m665.62,120.42c7.45-3.11,6.05-19.04,6.34-25.99.37-8.84-.77-25.09,7.91-30.65l-2.57-.68c4.54,6.35,4.25,15.54,4.5,23,.31,8.98-.07,18.43,2.19,27.19.42,1.63,1.61,4.05,3.6,3.6,2.04-.47,2.6-3.99,2.79-5.6.41-3.37.85-9.21-1.83-11.98-2.39-2.46-3.82-.06-6.33.67-1.05.31-.84,2.55-.12,3.09,1.05.78,2.42,4.72,2.24,2.14-.13-1.83-.13-1.04-.56.29,2.16.56,4.32,1.12,6.49,1.68-2.4-18.25,1.61-41.2-9.96-56.91-.57-.78-1.69-1.27-2.57-.68-9.98,6.67-11.02,22.47-11.72,33.25-.39,6.1-.48,12.21-.81,18.32-.12,2.12-.31,5.01-.54,6.65-.06.43-.35,2.31-.54,3.18-.3,1.35.81-.93-.01-.46-2.62,1.47-1.97,11.33,1.48,9.89h0Z"/>
      <path class="cls-2" d="m670.6,87.81l-.9-.22.42.12c-.06-.03-.12-.06-.17-.11-.22-.15-.44-.16-.65-.05-.26.05-.46.2-.59.45l-.33.37c-.34.33-.58.72-.73,1.17-.18.53-.27,1.07-.25,1.63.01.56.12,1.1.33,1.62.17.44.44.82.79,1.14l.34.36c.15.24.35.38.61.42.22.1.43.08.65-.08.05-.05.1-.09.16-.11l-.42.14.89-.22c.24-.01.43-.11.56-.3.22-.18.37-.41.46-.69.3-.69.41-1.6.37-2.34s-.12-1.63-.49-2.32l-.31-.51c-.19-.26-.44-.41-.75-.43h0Z"/>
      <path class="cls-2" d="m673.16,95.27c6.33-1.05,11.99-3.29,18.52-3.71,3.1-.2,6.2-.29,9.29-.23,2.84.06,5.25,1.4,8.05,1.83,1.25.19.77-2.98.56-3.5-2.79-6.81-9.74-11.72-16.97-12.67-6.35-.84-15.66,1.29-20.53,5.58-2,1.76-3.31,13.43,1.08,12.7h0Z"/>
    </g>
  </g>
</svg>