<?xml version="1.0" encoding="UTF-8"?>
<svg id="Livello_2" data-name="Livello 2" xmlns="http://www.w3.org/2000/svg" viewBox="0 0 605.38 404.87">
  <defs>
    <style>
      .cls-1 {
        fill: #f4e9e9;
      }

      .cls-1, .cls-2 {
        stroke-width: 0px;
      }

      .cls-2 {
        fill: #e0a0a0;
      }
    </style>
  </defs>
  <g id="Livello_3" data-name="Livello 3">
    <g>
      <g>
        <path class="cls-2" d="m533.48,337.19c-1.64-.06-3.23-.43-4.83-.81.06-.14.09-.29.1-.45,1.07-1.24,1.68-3.44,1.85-5.83,2.21.36,3.15-3.03.9-3.46-.32-.06-.65-.09-.98-.13-.41-3.61-1.82-6.76-4.2-6.76-1.15.04-2.08-.07-3.04-.28,0,0,0-.02-.02-.03-1.05-1.42-2.18-1.84-3.18-1.32-.1-2.09-.21-4.19-.31-6.28,0-6.9.01-13.8-.01-20.7-.06-18.48-1.91-36.9-2.35-55.37-.22-9.29-.08-18.58-.11-27.87-.03-9.3-.09-18.6-.11-27.9-.05-18.6.02-37.2.65-55.78.28-8.23.52-16.47.83-24.7.86-5.26,1.69-10.52,2.34-15.79.67-1.86.8-4.14.67-6.25.27-3.03.48-6.06.56-9.11.05-2.02-3-2.43-3.52-.48-.07.25-.12.51-.19.76-.33-.11-.69-.07-1.07.16,0-.02,0-.04-.01-.06-.56-2.04-3.35-1.47-3.52.48-.02.21-.03.42-.05.63-1.1-.49-2.33.28-2.59,1.27-.14-1.99-.29-3.99-.47-5.98-.17-1.96-2.89-2.49-3.52-.48-.45,1.45-.84,2.89-1.2,4.35-.22-3.35-.62-6.68-1.33-9.98-.36-1.67-.83-3.32-1.41-4.92-.66-1.82-3.54-1.65-3.52.48.04,3.62.42,7.2.92,10.79.13.95.81,1.33,1.53,1.29.19,2.16.27,4.32.29,6.49-.14-.08-.28-.16-.44-.19-.46-.1-.98-.09-1.38.18-.4.26-.79.56-1.12.91-.31.34-.6.71-.81,1.12-.43.86-.65,1.81-.59,2.77.03.48.18.92.52,1.27.31.31.82.54,1.27.52.46-.02.94-.17,1.27-.52.31-.34.55-.79.52-1.27-.01-.18,0-.36.02-.54.03-.15.07-.29.12-.44.05-.11.11-.21.18-.31.14-.15.28-.3.43-.43,0,0,0,0,0,0,0,.38,0,.77-.01,1.15-.04,2.28-.13,4.56-.24,6.83-4.65.09-9.3.34-13.95.68,2.07-2.7,2.77-6.89,2.17-9.88-.23-1.13-.81-4.08-2.59-3.25.44-.2-1.63-1.09-2.38-1.25-1.28-.27-2.78-.03-4.19.16-.53-1.89-1.54-3.26-3.22-3.49-2.39-.32-4.91,1.79-6.87,3.77-1.77-.04-3.55-.1-5.32-.21-4.66-.29-9.27-1.09-13.93-1.34-8.11-.43-16.2.43-24.25,1.3-1.25.14-2.49.25-3.74.38-.63-1.29-1.52-1.8-2.76-.84-.52.4-1.01.83-1.51,1.24-30.1,2.7-60.34,2.36-90.54,1.7-1.39-.03-2.78-.06-4.17-.09-.56-.41-1.2-.47-1.94-.06h-.02c-30.5-.69-61.08-1.49-91.53.76-4.17.31-8.32.68-12.47,1.07.15-4.74-.79-10.09-4.01-8.55-6.06,2.9-11.68,6.43-16.97,10.41-4.93.37-9.86.66-14.83.77-8.4.19-16.81.18-25.21.19-.32-.22-.69-.29-1.12-.14-.13.04-.25.1-.38.15-7.17.02-14.35.06-21.52.28-16.65.52-33.08,3.82-49.67,4.49.2-8.21.31-16.42.35-24.64.18-2.02.19-4.06.04-6.09-.17-2.27-3.58-2.33-3.58,0,0,1.94-.03,3.89-.04,5.83-.13,1.48-.35,2.95-.72,4.41-.21.83.14,1.48.68,1.86-.07,6.24-.18,12.49-.33,18.73-.3,0-.6,0-.91,0-.61-.59-1.27-1.13-2.02-1.6-.36-.23-.69-.3-.98-.26-.42-2.95-.99-5.88-1.77-8.76-.43-1.6-3.17-1.81-3.45,0-.23,1.46-.19,2.89-.25,4.37-.03,1.01.63,1.58,1.4,1.7.29,1.55.53,3.11.72,4.68-.19.01-.38.02-.57.04-1.69.03-3.37.19-4.94.61-.59.16-1.15.37-1.65.67-3.47,1.32-6.16,3.87-7.22,8.81-.38,1.8,1.08,10.01,3.33,5.44,1.84-3.74,8.4-3,11.79-2.76.02,5.36-.26,10.72-.56,15.99-.37,6.41-.87,12.81-1.17,19.22-.35,7.42-.45,14.85-.57,22.28-.25,15.46-.23,30.93-.57,46.39-.34,15.3-1.56,30.59-1.14,45.9.22,7.98.99,15.9,2.27,23.79.38,2.33.81,4.66,1.22,6.99,0,6.61.06,13.22.19,19.83-.05.78-.03,1.6.05,2.42.21,9.37.55,18.73,1.07,28.08-.24.28-.4.66-.39,1.15.01.59.22,1.05.53,1.42.08,1.31.16,2.63.25,3.94-2.38.06-4.76.12-7.14.19-2.3.07-2.31,3.65,0,3.58,2.46-.07,4.91-.13,7.37-.19.17,1.99,2.85,2.38,3.51.44.06-.18.11-.36.16-.54,26.15-.62,52.32-.71,78.47-.22,10.53.2,21.05.5,31.57.88,2.78.14,5.56.27,8.34.38.91,1.78,2.39,3.21,4.13,1.02.23-.29.47-.56.7-.85.54.02,1.08.04,1.62.05,5.36.24,10.71.51,16.07.81,1.25.2,2.51.4,3.77.56,7.27.92,14.61,1.1,21.94,1.09.1.85.25,1.69.48,2.5.62,2.22,2.3,5.73,4.58,2.88,1.29-1.61,2.58-3.21,3.87-4.82,27.23,1.84,54.43,3.3,81.75,3.11,16.64-.11,33.18-1.05,49.72-2.25,2.5.13,4.99.26,7.49.37,8.04.34,16.02.28,24.04-.37,7.43-.61,14.87-.33,22.28.42,14.25,1.44,28.39,3.79,42.74,4.1,6.1.13,12.43.02,18.45-1.26-.03.95-.05,1.91-.06,2.86-.01.09-.03.18-.03.29v2.2c0,2.31,3.58,2.31,3.58,0,0-2.1.05-4.2.11-6.3,1.17-.38,2.33-.83,3.5-1.29-.06,7.63.05,15.27.11,22.9.02,2.5.03,4.99.03,7.49,0,2.31,3.58,2.31,3.58,0v-2.16s0-.07,0-.1c0-.83,0-1.66-.01-2.49.48-.27.84-.77.84-1.49,0-5.68-.03-11.36-.08-17.03.89,0,1.75-.58,1.71-1.73-.09-2.54-.19-5.09-.29-7.63.3-.1.6-.2.91-.29,0,3.75,0,7.51-.04,11.26-.03,2.87-.07,5.74-.12,8.6-.03,1.75,2.49,2.47,3.34.9,1.96-3.62,2.21-7.7,2.04-11.74-.14-3.33-.31-6.66-.47-10,1.13-.1,2.26-.1,3.42.06,3.04.41,5.92,1.52,9.01,1.64,2.31.09,2.3-3.49,0-3.58ZM232.16,90.15c-1.21,1.41-2.44,2.82-3.64,4.24.4-1.07.66-2.49.76-4.03.96-.07,1.92-.14,2.88-.21Zm-151.97,224.85c-.52-3.44-1.13-7.02-1.37-10.59.14-.05.28-.11.42-.19.51-.31.95-.71,1.36-1.16.25,1,.54,1.99.89,2.97.35.98,1.25,1.32,2.07,1.19-.07,1.08-.13,2.17-.2,3.26-.11,1.58-.18,5.27,1.52,6.22.64.36,1.18.33,1.62.07.06.66.15,1.31.24,1.97-1.93.5-3.86.98-5.81,1.36-.23-1.71-.5-3.41-.75-5.08ZM208.81,92.03c.73-.06,1.46-.11,2.19-.17-22.14,19.68-40.06,43.92-59.51,66.13-7.63,8.71-14.77,17.82-21.79,27.04.51-1.02.94-1.85,1.23-2.39.54-1,1.1-2,1.66-2.99,4.3-5.37,8.63-10.72,12.92-16.09,12.5-15.65,25.02-31.31,37.89-46.66,7.59-9.06,17.13-16.41,25.4-24.86Zm273.46,6.18c-.15,1.19-.21,2.39-.15,3.61-.34.14-.7.31-1.08.56-.57.38-.74,2.24-.24,3.05-1.88,1.67-3.75,3.36-5.59,5.06-2.62,2.43-5.18,4.94-7.7,7.48,4-5.9,8.08-11.74,12.59-17.25.73-.84,1.45-1.68,2.18-2.52Zm-114.76,1.13c-4.35,5.13-8.45,10.5-12.4,15.94-6.36,8.75-12.47,17.66-18.45,26.66-2.52,1.76-4.85,3.78-7.08,5.94,12.48-15.59,25.39-30.99,35.57-48.21.79-.11,1.57-.22,2.36-.33Zm23.64-3.48c-6.44,8.37-12.36,17.19-18.86,25.52-2.94,3.77-6.01,7.42-9.14,11.03,8.22-11.97,15.4-25.91,26.51-35.4.49-.39.99-.76,1.49-1.14Zm-210.94,103.7s.04-.06.06-.09c3.26-4.73,6.56-9.43,9.94-14.07-.02,1.04.04,2.07.18,3.04-1.22,1.57-2.43,3.15-3.64,4.73-2.19,2.12-4.37,4.25-6.54,6.39Zm-61.58,53.65c-1.99,2.79-3.99,5.58-5.96,8.38-4.13,5.86-8.3,11.7-13.06,17.07,1.35-1.99,2.7-3.95,4-5.91,4.75-7.14,9.41-14.32,14.19-21.43.24.75.52,1.38.83,1.9Zm-7.87,29.61c7.27-10.1,14.46-20.13,21.9-30.08-3.92,6.6-7.89,13.18-12.48,19.32-4.23,5.66-8.62,11.19-12.12,17.26-3.81,4.05-7.66,8.05-11.68,11.9-.03-.26-.07-.54-.11-.82,6-4.94,11.06-12.82,14.48-17.59Zm77.2-56.79c-.26.81-.44,1.68-.54,2.6-2.31,3.13-4.62,6.25-6.94,9.38,2.33-3.73,4.66-7.46,6.98-11.19.16-.26.33-.52.5-.79Zm-55.13,61.26c8.87-12.41,17.09-25.18,26.18-37.45,2.93-3.95,5.86-7.89,8.8-11.81-3.28,5.28-6.6,10.53-10.08,15.69-8.76,13.02-16.25,27.07-25.77,39.58-.73-.57-1.65-.45-2.81.83-2.17,2.41-4.97,5.97-8.13,8.75,4.6-5.04,8.51-10.99,11.8-15.58Zm149.01-64.43c1.61-1.88,3.2-3.77,4.79-5.66-2.91,4.25-5.83,8.5-8.74,12.74-10.17,14.15-20.71,28.05-31.76,41.58-6.42,7.86-13.37,15.24-20.37,22.57,1.02-1.36,2.12-2.7,3.32-4.01,5.87-6.45,11.74-12.59,16.68-19.81,5.36-7.85,10.14-16.05,15.78-23.71.94-1.27,1.85-2.56,2.78-3.84,5.95-6.53,11.8-13.15,17.53-19.86Zm51.18,27.06c.12,1.7.39,3.27.88,4.41-5.15,5.28-10.62,10.23-16.04,15.24.02-.02.04-.04.05-.07,5.12-6.3,10.09-12.74,14.87-19.31.08-.09.15-.18.23-.27Zm9.95,45.62c.3,1.58.74,2.98,1.32,3.91-1.2,1.51-2.37,3.03-3.52,4.57-1.84-.05-3.67-.14-5.51-.24,2.6-2.72,5.18-5.47,7.71-8.25Zm-23.62,24.48c1.87.13,3.75.26,5.62.4-.1.03-.2.05-.31.08-1.94,0-3.87,0-5.8.01.16-.17.33-.33.49-.5Zm59.96-32c4.38-7.92,9.56-15.48,14.65-22.96-4.93,7.62-9.82,15.27-14.65,22.96Zm30.3,13.19c.73-.95,1.46-1.9,2.2-2.82,2.9-3.61,5.77-7.26,8.64-10.89,1.07-.33,2.13-.71,3.17-1.15-.8,1.05-1.6,2.1-2.41,3.14-2.93,3.73-6.02,7.34-9.03,11.02-.86.23-1.71.46-2.57.71Zm97.31-38.1c.11,1.07.18,2.14.27,3.21.08,2.36.12,4.73.13,7.1-.49-2.57-.87-5.15-1.18-7.73-.03-3.69-.04-7.37-.03-11.06.26,2.83.53,5.65.82,8.49Zm-25.25-7.08c-2.6,2.92-5.3,5.77-8.01,8.6,2.85-4.07,5.65-8.17,8.38-12.32-.12,1.24-.25,2.48-.37,3.72Zm-13.77-13.3c-1.11,2.41-2.22,4.81-3.36,7.2-2.69,2.74-5.4,5.47-8.09,8.21.43-.7.86-1.39,1.3-2.09,3.48-4.35,6.8-8.85,10.15-13.32Zm-59.27,37.32s.06-.06.09-.09c-.07,1.05-.09,2.16-.02,3.24-3.56,4.78-7.13,9.56-10.43,14.53-1.08,1.62-2.14,3.25-3.23,4.86-1.27-.24-2.54-.54-3.82-.87,5.93-7.12,11.72-14.36,17.42-21.67Zm99.74-157.76c0-.18,0-.35,0-.53,0,0,.01-.01.02-.02,0,.18,0,.37-.02.55Zm-19.88,29.65c.01.33.02.67.03,1,0,.14,0,.27,0,.41,0,1.9-.06,3.94-.06,6-1.06,1.15-2.12,2.31-3.17,3.47.31-2.6.62-5.2.93-7.8.77-1.02,1.53-2.04,2.27-3.08Zm-.03,27.27c-.02.6-.04,1.2-.06,1.81-9.06,10.54-16.99,21.95-25.05,33.28,3.88-6.42,7.73-12.86,11.77-19.15.16-.25.31-.68.44-1.22,4.22-4.97,8.51-9.88,12.91-14.71Zm-123.53,117.57c-.41,1.31-.8,2.64-1.16,3.98-.1.39-.2.96-.27,1.61-1.3.27-2.57.5-3.83.7,1.74-2.11,3.49-4.2,5.25-6.3Zm106.59-124.36c2.43-2.78,4.88-5.54,7.29-8.33-.17,1.43-.33,2.85-.48,4.28-.06.56-.1,1.44-.06,2.43-18.83,21.82-35.86,45.13-53.12,68.25,4.68-6.95,9.38-13.89,14.11-20.81,9.69-14.18,19.48-28.29,29.3-42.37.99-1.15,1.97-2.31,2.97-3.46Zm-268.19,113.32c-2.41,2.83-4.93,7.11-7.99,10.42,1.6-2.63,3.32-5.2,5.02-7.77.66-1,1.3-2.01,1.94-3.02,3.59-4.31,7.16-8.64,10.7-12.99-.37.9-.73,1.81-1.06,2.74-.12.33-.24.97-.36,1.81-2.86,2.85-5.65,5.75-8.27,8.81Zm52.35-58.2c2.25-3.48,4.51-6.96,6.77-10.43,8.36-12.85,16.52-26.11,25.48-38.72,4.41-5.7,8.8-11.41,13.2-17.13,2.11-2.5,4.28-4.95,6.52-7.34-2.8,3.9-5.59,7.82-8.31,11.77-11.61,16.83-22.46,34.09-34.83,50.4-2.91,3.83-5.85,7.65-8.82,11.45Zm-43.99,69.89c-1.29,3.05-2.81,6.02-4.38,8.96-.22-.54-.47-1.05-.78-1.48-.45-.62-1.11-1.25-1.81-1.55,2.75-3.29,5.6-6.43,8.56-9.5-.54,1.17-1.07,2.35-1.58,3.57Zm-24.96-12.51c.03.24.06.47.1.71-.61.79-1.24,1.57-1.84,2.36-2.96,3.86-5.89,7.73-8.49,11.84-1.81,2.86-3.5,5.66-6,7.71-.31.12-.61.24-.9.38-.01-.4-.03-.81-.05-1.21,6.15-6.89,11.82-14.21,17.18-21.79Zm-6.93,34.73c.07.16.14.31.22.46-.26,0-.52,0-.78,0,.19-.15.38-.31.56-.46Zm15.21-1.08c.23.57.48,1.12.77,1.66-.75,0-1.51-.02-2.26-.02-.19,0-.38,0-.57,0,.7-.52,1.39-1.07,2.05-1.64Zm60.45-18.47c-.5.88-.99,1.76-1.47,2.65-.17-.02-.35-.04-.52-.06.67-.86,1.33-1.72,1.99-2.59Zm215.17,20.4c.04.29.09.57.14.85-.32.01-.63.03-.95.04.27-.3.54-.59.81-.89Zm30.39-.97c.07.22.15.43.23.65-.29,0-.58.02-.87.03.21-.23.42-.45.64-.68Zm7.09.31c.7.21,1.31-.18,1.83-.88,0,.34.01.68.02,1.02-.66.01-1.32.03-1.97.04.04-.06.08-.12.13-.17Zm-25.9-185.3c-2.41,3.72-4.77,7.46-7.22,10.98-3.16,4.53-6.3,9.07-9.45,13.6-7.61,8.78-15.1,17.66-22.53,26.59-.03-.39-.07-.78-.12-1.16,11.49-16.58,23.55-32.68,36.21-48.4,1.15-1.43,2.27-2.88,3.38-4.34-.12,1.19-.21,2.14-.27,2.74Zm-301.77,123.11c-11.12,15.15-22.68,30.2-31.96,46.57-1.04.85-2.11,1.72-3.2,2.55.1-1.28.04-2.58-.15-3.81,5.42-6.21,10.07-13.36,14.57-19.37,12.09-16.16,24.34-32.18,36.31-48.45,5.33-7.25,10.78-14.4,16.29-21.49,3.15-3.92,6.28-7.86,9.34-11.84,2.92-3.64,5.86-7.26,8.82-10.86-16.79,22.15-33.57,44.3-50.01,66.71Zm101.17-143.79c-4.64,5.11-9.32,10.18-14,15.25.5-1.55.64-3.3.59-4.94,5.46-4.51,11.01-8.91,16.34-13.55-.98,1.08-1.96,2.16-2.94,3.24Zm-60.46,205.79c0,.28,0,.57,0,.85-.69,0-1.39-.01-2.08-.02.67-.32,1.37-.59,2.08-.83Zm18.66-.97c1.08.07,2.14.13,3.16.17,2.35.09,4.7.28,7.04.52.11.49.24.96.4,1.39-4.19-.03-8.38-.06-12.57-.09.67-.65,1.33-1.32,1.98-1.99Zm186.89-131.1c-1.78,1.66-3.51,3.37-5.2,5.13.1-.4.19-.8.26-1.21,3.14-3.94,6.28-7.86,9.42-11.78,1.35-1.68,2.7-3.36,4.06-5.04-2.88,4.28-5.72,8.58-8.54,12.9Zm-123.69-48.95c-.75.54-1.49,1.09-2.23,1.65,1.19-1.13,2.38-2.26,3.56-3.39-.44.58-.89,1.16-1.33,1.74Zm-206.23,108.79c-2.85,4.35-5.76,8.97-8.09,13.8-.05-2.32-.1-4.64-.14-6.96,6.49-7.22,12.65-14.71,18.64-22.34-3.51,5.13-7,10.28-10.41,15.5Zm-12.3-80.56c.21-.33.4-.67.57-1.03-.02,2.12-.04,4.24-.07,6.36-.24.51-.47,1.02-.71,1.54.06-2.29.14-4.58.22-6.87Zm6.01,28.73c.03-.83.06-1.66.09-2.49.88-.34,1.74-.82,2.57-1.4-.89,1.29-1.78,2.59-2.66,3.89Zm-6.39-4.6s.07-.01.1-.02c.09.29.2.57.33.83-.1,2.88-.2,5.75-.33,8.63,0,.15-.01.3-.02.44-.04-3.29-.06-6.59-.08-9.88Zm48.71-61.44c-1.07,1.2-2.12,2.41-3.18,3.61,5.52-7.75,10.76-15.7,16.16-23.53.97-1.41,2.02-2.78,3.11-4.13,3.39-2.39,6.83-4.68,10.33-6.89-9.33,9.91-17.62,21.08-26.41,30.95Zm-40.62,4.23c-.38.52-.75,1.05-1.12,1.57,0-.29,0-.58.01-.87.14-.03.28-.1.43-.24.22-.2.42-.42.64-.62.01.05.03.1.04.16Zm-7.31-13.04c.37-.05.73-.12,1.09-.19-.26,7.33-.71,14.67-.77,22-.01-7.27-.36-14.55-.32-21.81Zm225.73-9.54c-.43.6-.74,1.32-.99,2.09-7.43,7.38-15.2,14.43-22.67,21.74-.45.44-.9.89-1.35,1.33,1.3-1.86,2.62-3.7,3.91-5.57,5.76-8.33,11-17.09,17.28-24.85,1.73-1.72,3.47-3.41,5.25-5.07,1.77.18,3.52.36,5.25.49-2.27,3.35-4.44,6.73-6.69,9.84Zm-208.74,110.11c2.2-3.48,4.45-6.93,6.83-10.31,3.36-4.77,6.84-9.45,10.37-14.09-.27,1.06-.53,2.14-.76,3.21-5.39,7.14-10.83,14.25-16.45,21.19Zm413.69,98.57c-.16-6.27-.35-12.54-.59-18.81.13-1.83.22-3.67.29-5.51.05.75.11,1.49.16,2.24.19,2.94.36,5.88.52,8.82.1,4.42.2,8.84.26,13.26-.22,0-.43,0-.65,0Zm-120.47-151.88c-2.32,3.65-4.63,7.31-6.93,10.97-.54-1.46-1.35-2.32-2.57-1.9-.09.03-.17.06-.25.09,8.03-10.62,16.13-21.19,24.45-31.58,2.78-3.47,5.55-6.95,8.31-10.43-8.09,10.62-15.79,21.5-23.02,32.85Zm16.21-60.32c3.96-5.61,8.26-11.17,11.4-17.21,2.11.1,4.22.21,6.33.31-6,5.54-11.96,11.13-17.73,16.9Zm-131.76-17.58c-.06-.34-.15-.75-.27-1.19.61,0,1.22,0,1.84.01-.53.38-1.05.77-1.57,1.18Zm-10.66-.64c.03-.18.07-.36.1-.55.24,0,.47,0,.71,0-.27.19-.54.37-.81.56Zm-43.59,8.77c.13-.13.26-.26.4-.39-.04.05-.08.1-.12.15-.09.08-.19.17-.28.25Zm-89.36-5.14c-4.77,5.5-9.02,11.58-13.45,17.16-1.05,1.32-2.13,2.61-3.23,3.88-1.3,1.24-2.58,2.49-3.84,3.76,6.3-8.45,12.68-16.82,19.61-24.78.3,0,.61-.01.91-.02Zm-42.03,25.15c0-.54.03-1.1.07-1.67.57-.45,1.12-.91,1.67-1.4-.58,1.02-1.16,2.05-1.74,3.07Zm-7.99-14.7s-.02.04-.03.06c0-.1.01-.2.02-.31,0,.08,0,.17.01.25Zm427.71,76.93s0-.08,0-.12c0,.09,0,.18,0,.26v-.14Zm-12.34-74.11c0,1.11,0,2.21,0,3.32-.93,1.11-1.84,2.22-2.76,3.34-.03-1.12-.05-2.25-.07-3.37.54-.73,1.07-1.45,1.62-2.18.4-.37.8-.74,1.2-1.11Zm-48.46-12.25c-5.98,5.92-11.48,12.3-16.89,18.75-3.27,3.89-6.47,7.82-9.63,11.76,8.26-10.76,16.17-21.78,23.25-33.37,1.81-.02,3.61-.07,5.42-.15-.72,1-1.44,2-2.16,3Zm-336.98,1.93c.02-.61.02-1.23-.01-1.83.58-.05,1.17-.09,1.75-.13-.58.66-1.16,1.31-1.74,1.96Zm-16.49,4.48c.11-1.59.11-3.45-.18-4.94,2.09-.17,4.18-.34,6.26-.51-2.08,1.77-4.09,3.63-6.09,5.45Zm408.53-22.61c.05-.35.11-.7.17-1.04.01.27.03.54.05.81-.07.08-.15.15-.22.23Zm-10.79,13.07c-.76.7-1.53,1.4-2.3,2.1-.55-1.72-1.54-3.03-3.31-1.93-1.05.66-1.52,2.08-1.65,3.7-.61-1.39-1.31-2.74-2.16-4.03-.26-.4-.59-.65-.94-.78.05-.48.08-.97.09-1.45,4.21-.33,8.42-.59,12.64-.73-.8,1.03-1.6,2.07-2.38,3.12Zm-45.9-3.25c.05-.2.08-.4.12-.6,1.94.09,3.88.2,5.82.32-1.98.12-3.96.21-5.94.28Zm60.63-15.01c.07.06.13.13.2.19.01.02.02.03.04.08.02.04.08.16.12.23.02.05.05.13.08.22-.26.25-.52.5-.78.76-.03-.55-.06-1.1-.09-1.65,0-.14-.02-.29-.03-.43.1.21.24.41.46.6ZM75.76,207.83c.08,3.07.18,6.13.29,9.2-.42,10.97-.75,21.93-.97,32.9-.71-14.03.15-28.07.68-42.1Zm5.46,124.98c.05-.3.08-.6.12-.91,1.18.19,2.36.29,3.54.31,3.06.32,6.18.33,9.22.24,6.2-.18,12.38-.85,18.57-1.23,2.17-.14,4.33-.18,6.49-.17,5.34.29,10.67.74,15.99,1.27-17.97-.1-35.95.07-53.92.48Zm371.18,6.9c-.48-.06-.97-.12-1.45-.18,17.27-.71,34.53-1.62,51.81-2.13-.07,1.23-.14,2.47-.2,3.7-2.71.64-5.49.98-8.26,1.17-13.94,1-28.09-.8-41.9-2.56Zm53.76.33c.04-.91.09-1.82.14-2.73,1.1-.03,2.2-.06,3.29-.08,0,.52-.02,1.04-.02,1.55-1.13.44-2.27.86-3.41,1.26Z"/>
        <g>
          <path class="cls-2" d="m560.59,131.91c-2.02-13.8-4.62-28.07-10.87-40.68-1.18-2.37-2.58-4.59-3.94-6.86-.41-.68-.91-2.06-1.47-2.95,4.23-2.44,5.7-8.39,5.76-12.79.06-4-.79-12.17-5.53-13.65-1.85-.58-3.15.82-4.75.51-2.17-.43-4.46-5.3-5.63-7.17-6.16-9.81-13.04-19.38-22.45-26.41-6.47-4.83-15.3-10.05-20.42-1.44-2.65,4.45-5.25,8.88-7.93,13.26-1.24-.59-2.03,1.3-2.34,2.59-.14.6-.27,1.19-.4,1.79-3.19,5.02-6.55,9.94-10.28,14.7-5.68,7.22-11.76,14.14-18.13,20.77-.21-.53-.45-1.04-.76-1.49-1.56-2.26-3.43-2.1-4.46.77-1.05,2.92-1.98,5.87-2.85,8.83-1.24,1.21-2.5,2.4-3.76,3.59-.02-.01-.03-.03-.05-.04-2.42-1.59-3.65,1.17-4.16,3.38-.04.19-.1.39-.14.58-5.9,5.03-12.27,9.37-18.65,13.72-1.16-2.64-2.96-4.24-4.9-.34-.9,1.81-1.75,3.65-2.58,5.51-.91.64-1.83,1.29-2.73,1.94-3.63,2.65-8,5.96-12.27,9.74-1.04-.51-2.23-.02-3.2,2.16-.2.44-.39.9-.58,1.35-11.98,11.7-20.99,26.76-6.5,40.11.06.05.11.09.17.13,6.2,8.52,15.97,14.34,26.84,12.61,2.65-.42,5.49-1.39,8.17-.64,3.43.95,4.69,4.07,7.12,6.28,1.56,1.42,3.1,2.02,4.87,2.27-.05,2.91.2,6.97,2.51,8.45,2.73,1.75,3.94-1.26,4.68-3.61.26-.81.49-1.63.74-2.44.7.81,1.37,1.82,2.2,3.03,4.37,6.33,9.38,10.92,15.04,16.09,4.93,4.5,8.78,10.19,14.1,14.26,4.66,3.56,9.26,3.96,14.02.5,4.4-3.2,8.61-8.04,10.54-13.17.83-2.2,1.47-6.45.79-9.87,4.1-6.27,5.08-16.5-.61-22.01-2.57-2.48-6.16-2.83-9.48-3.67-4.82-1.23-8.93-4.25-12.8-7.29-4.13-3.25-7.28-6.75-10.76-10.63-.51-.57-1.02-1.1-1.54-1.62.94-2.68,1.56-5.43,1.69-8.14,4.15-1.3,8.77-1.38,13.18-1.64-.05,2.4.36,4.93,1.6,6.63,1.5,2.05,3.67,2.13,4.6-.74.18-.55.34-1.11.49-1.66,0,.01.02.02.03.03.39-1.7.75-3.4,1.11-5.1,2.54-.35,5.07-.76,7.6-1.19,1.03,1.33,2.29,1.64,3.55-.61,4.12-.72,8.23-1.46,12.36-2.08,16.06-2.41,34.36-3.51,49.02,4.68,4.33,2.42,4.41-8.6,4.15-10.33Zm-53.92-97.57c1.5.9,2.95,1.92,4.37,3.02-.14.29-.28.63-.42,1.02-1.37,3.91-2.65,7.87-3.85,11.85.28-5.28.29-10.58-.11-15.9Zm26.79,31.04c-.17.15-.34.32-.52.54-3.01,3.78-5.41,8.07-7.37,12.58.39-6.86.93-13.74,3.63-19.88,1.39,2.28,2.76,4.56,4.26,6.76Zm3.36,16.17c.04,1.12.15,2.23.32,3.33-.58.67-1.1,1.38-1.56,2.12.31-1.84.7-3.66,1.24-5.45Zm-35.83,34.89c-.05,1.69-.07,3.38-.04,5.08-.23.04-.45.07-.68.11.27-1.72.51-3.46.73-5.19Zm11.59-.72c-.02,1.39.02,2.77.13,4.15-.5.05-.99.11-1.49.17.49-1.43.94-2.87,1.36-4.33Zm22.21,2.89c.04.28.08.55.13.82-.14-.01-.27-.03-.41-.04.09-.26.19-.52.28-.79Zm-12.33-69.79c-2.82,4.45-4.96,9.23-6.64,14.2.59-6.3.8-12.62.38-18.99-.04-.59-.23-1.59-.53-2.68,2.45,2.34,4.72,4.88,6.79,7.47Zm-24.97-18.02c.55-.13,1.15-.12,1.77-.02-3.17,6.39-5.3,13.18-6.92,20.13.44-4.72,1.04-9.41,2.35-13.99-.06-.06-.11-.11-.17-.17.03-.8,0-1.82-.08-2.89.73-1.36,1.46-2.7,3.05-3.07Zm-48.26,104.87c.35-1.89.82-3.69,1.06-4.96.32-1.64.68-3.27,1.04-4.9-.52,3.34-1.17,6.64-2.1,9.86Zm31.09-66.16c-.57,2.95-1.18,5.89-1.84,8.81-.16-.12-.32-.22-.51-.29-.48-.2-.9-.21-1.26-.1,1.67-5.46,3.72-10.87,4.3-16.51.12-1.21-.32-3.11-.99-4.52.53-.74,1.07-1.46,1.59-2.21.11-.16.22-.32.33-.48-.05,4.98-.58,9.95-1.62,15.3Zm-7.48,26.2c-.11,1.06-.23,2.12-.34,3.19-.08.26-.16.52-.24.78.18-1.33.38-2.65.59-3.97Zm4.27,28.77c0,.16,0,.32,0,.48-.09,0-.19.01-.28.02.44-3.51.16-7.19.57-10.77.24-2.09.47-4.18.7-6.27.36-1.14.73-2.28,1.1-3.42-.22,1.68-.44,3.36-.64,5.04-.58,4.95-1.23,9.94-1.45,14.92Zm-18.83-35.67c.13-1.97.16-3.93.06-5.87,1.01-1.07,2.02-2.13,3.01-3.21-1.07,3.02-2.1,6.04-3.07,9.08Zm-2.14-3.55c-.03.16-.07.28-.09.28v-.03s0-.04,0-.05c0-.05.01-.08.02-.13.02-.02.04-.05.07-.07Zm-4.25,4.33c-1.07,5.82-2.18,11.64-3.36,17.44.95-5.66,1.91-11.31,2.86-16.96.16-.16.33-.32.49-.48Zm-52.06,66.52c.06.53.14,1.08.23,1.63-.29-.1-.58-.23-.87-.35.22-.43.43-.85.64-1.28Zm30.89-48.29c.06-.05.13-.09.19-.14-.08.25-.16.51-.24.76.02-.21.04-.41.05-.62Zm-32.44,28.64c.09-1.63.1-3.26.04-4.9,1.04-.91,2.1-1.8,3.16-2.69-1.03,2.55-2.09,5.08-3.2,7.59Zm8.99,22.24c3.01-6.16,5.91-12.41,9-18.54-1.66,5.98-3.25,11.97-4.42,18.04-1.57.21-3.08.41-4.58.5Zm14.02-.14c1.61-4.05,3.22-8.11,4.8-12.18-.7,4.65-1.26,9.33-1.63,14.04-.99-.76-2.04-1.39-3.18-1.85Zm46.77,39.79c.91-1.28,1.84-2.54,2.78-3.8.41,2.67.75,5.35,1.19,8.01-1.5-1.34-2.85-2.9-3.98-4.21Zm25.02-7.27c-.23.11-.38.06-.47-.1.26.07.44.11.47.1Zm-10.17-.07c-.19-.72-.44-1.42-.79-2.07-1.24-2.31-3.45-2.94-4.67-.58-.16-1.19-.33-2.38-.51-3.56,2.53,1.61,5.21,2.93,8.1,3.74-.77.77-1.47,1.61-2.13,2.47Zm-15.51-13.68c.25.22.5.43.75.65-1.57,1.97-3.07,3.99-4.53,6.04.06-1.68.13-3.34-.06-4.72-.6-4.3-1.93-8.42-4.96-11.62-.79-.84-1.62-1.09-2.37-.92-.03-.31-.06-.62-.09-.94,4.33,2.47,7.83,8.52,11.26,11.5Zm25.98-90.38c1.98-11.26,3.05-23.44,6.6-34.57-.93,9.37-2.98,18.75-4.39,27.88-2.22,14.34-5.04,28.65-6,43.13-.76.12-1.51.23-2.27.34,2.11-12.24,3.91-24.55,6.06-36.79Z"/>
          <path class="cls-1" d="m554.66,75.65c2.63-6.25-1.05-12.66-3.03-16.12-1.45-2.53-5.34-9.27-12.04-8.74-1.23.1-2.33.45-3.29.84-14.79-23.79-35.61-48.17-47.82-41.63-1.84.99-3.2,2.57-4.15,4.64-.12.22-.27.42-.34.67-.08.3-.19.6-.28.9-.11.33-.22.66-.31,1-9.62,30.55-51.86,75.12-91.99,96.62-9.33,5.64-10.43,21.65-2.5,36.45,6.44,12.03,16.65,19.49,25.54,19.49,2.29,0,4.48-.49,6.51-1.53.34-.18.69-.36,1.04-.54,2.14,3.73,6.36,6.08,10.31,6.6.81.11,1.61.15,2.41.15.4,0,.78-.06,1.18-.08,11.77,15.45,26.72,28.75,43.47,38.53.58.34,1.22.5,1.84.5.23,0,.45-.05.67-.09.04,0,.08.03.13.03.87,0,1.75-.31,2.45-.94,5.31-4.77,10.15-10.13,14.37-15.9,2.35-3.21,4.87-7.49,3.56-12.25-1.3-4.67-5.47-6.94-8.82-8.76l-.34-.18c-7.42-4.04-14.03-9.69-19.23-16.37.04-.05.09-.08.12-.13,2.15-2.83,3.31-6.92,2.38-10.65,29.66-6.8,59.36-8.2,77.48-2.22.51.17,1.04.19,1.54.14.34.03.7.12,1.03.12,1.55,0,3.01-.34,4.34-1.05,12.57-6.73,2.93-39.19-9.23-65.18,1.16-1.19,2.28-2.58,3.02-4.32Zm-.94,28.72l-22.02,13.35c-1.5-1.92-3.02-3.96-4.59-6.16,8.11-4.74,15.98-9.99,23.45-15.66,1.17,2.94,2.23,5.79,3.16,8.47Zm3.49,11.71c-6.17,3.18-12.2,6.72-18,10.54-1.53-1.65-3.11-3.45-4.75-5.44l20.66-12.53c.82,2.63,1.51,5.1,2.09,7.43Zm-32.59-8.14c-.54-.8-1.08-1.57-1.63-2.4l22.98-20.39c1.02,2.24,1.98,4.43,2.88,6.55-7.7,5.9-15.83,11.35-24.23,16.24Zm15.54-49.86c1.31-.1,3.13,1.6,5.13,5.09,2,3.49,3.71,7.08,2.63,9.64-.55,1.32-1.94,2.55-3.28,3.74l-25.63,22.74c-2.69-4.38-5.43-9.12-8.2-14.28-1.99-3.71-3.76-7.25-5.42-10.71l32.49-15.37c.78-.37,1.67-.79,2.28-.84Zm-38.52-37.55c1.36,1.08,2.84,2.39,4.4,3.88-5.32,3.67-10.14,7.95-14.39,12.8-.57-2.48-.98-4.73-1.27-6.8,3.46-3.4,7.13-6.62,10.96-9.53.13-.1.2-.23.3-.34Zm20.21,22.6c-7.6,5.3-15.45,10.47-23.38,15.46-.8-2.04-1.54-4.01-2.22-5.91.06-.04.12-.06.18-.1l19.9-16.73c1.79,2.24,3.63,4.65,5.52,7.28Zm2.52,3.59c1.72,2.51,3.47,5.2,5.23,8.02l-27.29,12.91c-.75-1.68-1.48-3.33-2.15-4.94,8.21-5.15,16.34-10.52,24.21-16Zm-10.83-14.26l-18.79,15.79c-.66-2.05-1.27-4.01-1.79-5.88,4.64-5.74,10.1-10.69,16.22-14.81,1.39,1.47,2.86,3.14,4.36,4.9Zm-15.58-14.49c-2.8,2.16-5.5,4.5-8.12,6.93-.05-1.66,0-3.1.17-4.3.35-1.05.67-2.09.96-3.11.28-.47.59-.85.96-1.05,1.19-.63,3.28-.11,6.02,1.53Zm-22.84,30.65c.9,9.52,4.7,18.54,8.39,26.44,9.74,20.91,21.43,41.03,34.75,59.89-27.74,1.04-60.76,8.54-88.21,20.74-13.52-10.03-21.96-25.85-22.79-42.66,26.32-16.73,51.7-41.17,67.87-64.41Zm-72.71,107.69l12.92-9.04c1.16,1.53,2.41,2.99,3.72,4.41l-12.85,7.71c-1.26-.86-2.54-1.87-3.78-3.08Zm-6.12-7.85l13.85-9.24c.82,1.53,1.72,3.01,2.67,4.46l-13.38,9.36c-1.11-1.38-2.16-2.91-3.15-4.58Zm-3.6-7.83l14.04-8.89c.45,1.19.93,2.36,1.45,3.52l-13.95,9.31c-.61-1.32-1.11-2.64-1.54-3.93Zm-1.65-8.11c4.29-2.96,8.81-5.57,13.52-7.81.23.92.48,1.83.74,2.74l-13.78,8.73c-.24-1.26-.39-2.48-.48-3.66Zm4-12.32c2.66-1.42,5.32-2.94,7.98-4.54.14,1.56.36,3.1.62,4.63-4.27,1.97-8.41,4.24-12.37,6.79.56-3.27,1.89-5.73,3.78-6.88Zm15.75,41.55l11.44-6.86c1.07,1,2.17,1.96,3.31,2.88-2.72,1.29-5.38,2.63-7.97,4.01-1.78.92-4.16.87-6.78-.03Zm17.75,2.7c8.79-4.16,18.33-7.82,28.18-10.91.7,1.32,1.04,2.84.92,4.33-.08,1.05-.4,2.08-.88,3.02-4.38,1.65-8.91,3.07-13.32,4.45-1.67.52-3.37,1.05-5.04,1.4-1.06-.37-2.24-.29-3.23.38-.64.02-1.28.04-1.9-.04-1.8-.24-3.74-1.22-4.72-2.62Zm52.64,41.01c-14.13-8.56-26.89-19.73-37.25-32.63.58-.17,1.16-.35,1.7-.52,3.95-1.24,7.99-2.52,11.99-3.97,7.47,7.71,15.82,14.56,24.87,20.33l.49.31c2.18,1.38,4.24,2.69,5.6,4.51.58.78,1.03,1.77,1.21,2.77-2.66,3.26-5.55,6.32-8.61,9.2Zm8.54-23.7l.34.19c2.36,1.28,4.8,2.61,5.26,4.29.48,1.74-1.13,4.24-2.4,5.96-.26-.47-.54-.93-.85-1.34-1.85-2.46-4.34-4.05-6.76-5.58l-.48-.31c-8.23-5.24-15.84-11.43-22.73-18.35.57-.23,1.14-.44,1.71-.68,1.54-.66,3.08-1.41,4.57-2.28,5.78,7.38,13.12,13.62,21.34,18.1Zm-21.43-27.36c-1.47,1.93-3.87,3.25-6.37,4.37.02-.19.08-.38.1-.57.16-2.03-.26-4.08-1.08-5.95,2.79-.82,5.61-1.61,8.43-2.34.35,1.32-.02,3.1-1.07,4.49Zm55.25-19.56c-13.88-19.34-26.01-40.06-36.05-61.63-4.26-9.14-8.75-19.8-8.17-30.61,0-.09-.03-.17-.04-.26,1.61-2.57,3.1-5.11,4.46-7.61,2.79,15.25,10.67,35.12,20.64,53.73,9.97,18.61,22.15,36.18,33.29,46.95-4.47-.41-9.19-.6-14.13-.57Zm33.88,3.87c-.37.2-.85.25-1.39.23-1.02-.33-2.07-.64-3.15-.93-2.73-1.31-6.34-4.02-10.56-8.17,5.14-3.36,10.46-6.48,15.9-9.32,2.13,10.47,1.55,16.94-.8,18.2Zm-12.18-105.94c-1.55-1.3-1.75-3.61-.45-5.15,6.78-8.09,12.97-16.78,18.41-25.84,1.04-1.73,3.28-2.29,5.02-1.25,1.73,1.04,2.29,3.29,1.25,5.02-5.63,9.39-12.05,18.4-19.08,26.77-.72.86-1.76,1.31-2.81,1.31-.83,0-1.66-.28-2.35-.85Zm58.71-12.57c-12.51,9.63-25.73,18.62-39.3,26.72-.59.35-1.23.52-1.87.52-1.25,0-2.46-.63-3.14-1.78-1.03-1.73-.47-3.98,1.27-5.01,13.32-7.95,26.3-16.78,38.59-26.23,1.61-1.23,3.9-.93,5.13.67,1.23,1.6.93,3.9-.67,5.13Zm-2.49,44.63c.22,2.01-1.23,3.81-3.23,4.03-5.37.59-10.79.89-16.22.89-4.37,0-8.73-.19-13.07-.57-2.01-.18-3.5-1.95-3.32-3.96.18-2.01,1.92-3.47,3.96-3.32,9.26.81,18.63.72,27.85-.29,2-.23,3.82,1.23,4.03,3.23Z"/>
        </g>
      </g>
      <g>
        <path class="cls-1" d="m110.09,109.36c3.75,14.22,3.22,29.31,3.12,43.9-.09,13.15-2.07,29.32,3.65,41.43.43.91.93-.1.99-.61,1.92-14.96.84-30.62.91-45.75.06-14.74.35-30.61-4.41-44.76-.6-1.78-1.78-3.6-3.54-1.93s-1.25,5.75-.73,7.72h0Z"/>
        <path class="cls-1" d="m96.99,134.82c-.55.44-1.27.75-.45,1.53l1.11,5.41.1-.62-.96,3.06c2.28-4.02,3.83-8.47,6.08-12.53,2.75-4.95,5.91-9.75,9.5-14.13,4.82-5.88,15.24-14.54,22.6-6.82,1.32,1.39.78,2.37-.2,5.49-1.2,3.83-3.04,7.52-5.03,11s-4.27,6.32-6.31,9.55c-1.04,1.65-1.75,3.53-2.25,5.42-.22.84-.24,1.79-.5,2.6.35-1.11-.12-.06-.32.21-.51.67-.81,4.05.58,4.01,2.11-.07,3.21,1.07,5.25-.74,2.61-2.31,4.54-6.27,6.28-9.23,4.53-7.67,8.55-16.16,8.95-25.21.36-8.1-2.37-16.29-11.07-18.12-10.17-2.14-17.92,6.54-23.3,14.03-3.67,5.1-6.7,10.73-9.37,16.4-2.16,4.6-5.24,10.5-4.14,15.73.18.87,1.64,5.36,3.2,2.8.8-1.32.68-2.88,1.45-4.16.55-.91.55-7.09-1.21-5.67h0Z"/>
        <path class="cls-1" d="m131.6,133.44c-6.19.33-1.17,24.2-.51,27.54,2.15,10.87,4.95,21.82,9.15,32.1,1,2.46,3.05,1.93,4.06-.1,1.34-2.67.8-6.31-.22-8.96-3.24-8.42-5.53-17.27-7.58-26.05-1.02-4.39-1.92-8.85-2.38-13.34-.35-3.37.09-6.71-1.11-9.94-.18-.49-.79-1.28-1.41-1.25h0Z"/>
        <path class="cls-1" d="m150.45,132.43c.02,3.7,1,7.37,1.37,11.05.49,4.84.63,9.72.73,14.58.1,5.01.14,10.02.2,15.03.04,3.89-.3,8.02,1.98,11.37.51.75,1.34.59,1.84-.05,1.92-2.47,1.89-4.79.98-7.7-.07-.24-.27-.78-.62-.74l-.25.03c-.76.09-1.04,1.3-1.07,1.9-.12,1.35,0,1.07.34-.83.32,2.23.65,4.47.97,6.7,1.76-3.27,1.14-8.52,1.07-12.56-.09-5.3-.19-10.59-.46-15.89-.4-7.69.08-18.52-4.68-24.98-.21-.29-.49-.45-.84-.47l-.51.1c-.96.19-1.04,1.71-1.04,2.45h0Z"/>
        <path class="cls-1" d="m162.39,102.27c.33,0,.31-1.06-.03-1.06s-.31,1.06.03,1.06h0Z"/>
        <path class="cls-1" d="m152.91,117.17l.23-.47-1.32,1.26c2.87.7,4.43-4.97,4.75-7.05.68-4.46-.41-8.74-3.28-12.22-.88-1.06-2.04-1.02-2.87.07-2.38,3.14-3.34,7.07-3.15,10.96.14,2.82,1.05,5.62,1.96,7.62.41.9,1,.27,1.17-.36.3-1.11.41-1.88.99-3.38s1.21-2.83,2.15-4.11l-2.87.07c2.51,2.96.02-3.96.65-3.61.17-.53.14-.52-.09.05-.11.22-.22.45-.34.67-.34.74-.65,1.44-.86,2.24-.38,1.51-.09,2.94-.29,4.42-.22,1.59,1.32,7.52,3.14,3.83h0Z"/>
        <path class="cls-1" d="m189.19,137.92c1.01-5.03-.08-17.81-7.8-17.02-6.19.63-10.92,8.92-13.21,13.84-8.56,18.4.88,42.6,11.35,58.26.44.66,1.41,1.01,2.11.55,12.32-8.05,14.83-23.58,15.97-37.14.07-.82-.67-4.07-1.69-2.06-4.85,9.64-6.3,21.37-16.02,27.66l2.11.55c-4.15-6.24-7.32-13.21-9.39-20.4-1.59-5.5-3.15-11.91-.94-17.43,1.58-3.95,4.37-8.7,8.14-10.93,4.62-2.73,4.77,1.85,6.64,4.96,1.06,1.75,2.36.97,2.72-.85h0Z"/>
        <path class="cls-1" d="m201.8,126.82c-1.64,10.04-.54,20.56.5,30.6,1.14,10.97,2.22,22.31,4.62,33.09,1.17,5.28,4.5.38,4.26-2.69-.28-3.66-1.14-6.89-3.4-9.87-.69-.91-1.03,1.03-1.03,1.37-.01,1.16.8,4.02.37,4.97l4.05,3.52c-1.39-19.47-7.99-39.15-5.58-58.82.47-3.86-2.87-7.93-3.81-2.19h0Z"/>
        <path class="cls-1" d="m203.7,159.3c1.1,1.59,8.04-.75,9.71-.9,3.33-.3,7.03.05,10.23-.85l-1.64-1.43c1.29,3,.63-4.91.39-1.79.03-.43-.31-2.04-.86-1.04-.78,1.41.52,3.13,1.21,4.22.31.49.78.48,1.24.32.73-.25,1-1.13,1.23-1.79.71-2,1.34-8.06-1.81-8.5-4.91-.69-11.95.22-16.27,2.9-2.63,1.63-5.53,5.79-3.42,8.85h0Z"/>
        <path class="cls-1" d="m217.7,141.16c1.35,10.45,2.07,21,3.52,31.43.61,4.37,1.32,9.07,2.77,13.25,1.75,5.05,4.4.53,4.26-2.68-.21-4.63-1.53-9.1-2.17-13.67-1.46-10.42-2.2-20.96-3.56-31.4-.21-1.64-1.07-4.54-3.21-3.82s-1.78,5.46-1.6,6.9h0Z"/>
        <path class="cls-1" d="m233.63,134.67c-2.25,16.73,6.34,33.09,5.44,49.81l4.51-2.78c-1.01-1.97-1.01-3.85-1.46-6.24-.09-.49-.58-.93-.72-.19-.45,2.33-.55,4.47-1.69,6.53s-1.27,7.69.79,9.46c2.44,2.1,3.82-1.51,3.93-3.71.46-9.23-.93-18.28-2.64-27.33-1.51-7.99-3.56-16.04-3.27-24.23.17-4.89-4.05-7.54-4.88-1.33h0Z"/>
        <path class="cls-1" d="m236.12,112.94l.91.78c.27.23.67.74,1.05.65.45-.11.62-.55.72-.96.15-.61.15-1.33-.05-1.93-.22-.68-.58-1.09-1.03-1.61l-.92-1.07c-.77-.89-1.32.49-1.43,1.11-.17.99-.08,2.33.74,3.03h0Z"/>
        <path class="cls-1" d="m255.78,181.55c-.3-.05-.59-.13-.87-.24-2.99-1.12-3.55,8.4-.32,8.63,6.21.44,5.73-26.23,5.89-30.28.5-12.69.65-25.8,6.56-37.35l-3.93-1.01c4.05,11.15,5.81,22.85,7.43,34.55s2.27,23.93,6.29,34.77l1.3-8.14c-.45.41-1.55-1.21-1.68-1.35-1.26-1.39-1.32,2.35-1.21,2.84.4,1.76.98,3.57,1.3,5.33.29,1.61,1.01,4.51,3.17,3.78,1.96-.67,1.82-5.42,1.58-6.83-2.05-12.06-4.44-23.99-6.22-36.12s-3.7-23.38-7.81-34.48c-.83-2.24-2.5-3.87-3.93-1.01-10.6,21.19-5.12,45.61-9.4,68.12l1.16-2.08-.72.47,2.1,4.34.24-1.48c.22-.54.08-3.55-.94-2.48h0Z"/>
        <path class="cls-1" d="m267.02,160c.33,0,.32-1.06-.03-1.06s-.32,1.06.03,1.06h0Z"/>
        <path class="cls-1" d="m261.25,161.13c3.1,2.28,11.03-1.75,14.85-3.14,2.8-1.01,5.43-1.86,8.43-1.8,1.07.02,1.35.48,1.92.49-.8-1.36-.97-1.51-.51-.44-.17-2.11-.3-2.49-.37-1.14-.6,1.33-.78,3.22-1.27,4.62-.36,1.04.42,5.39,1.5,3.11.64-1.35,1.24-2.71,1.68-4.14.19-.61.72-3.38.49-2.42-.29,1.26.27-.51.34-.77.52-1.8-.14.88.02-.31.18-1.38.42-2.64.23-4.06-.59-4.39-2.93-7.68-7.59-7.26-6.4.58-20.17,5.94-20.06,13.64l1.17-3.68c-.61.36-.84.15-.14.38-2.67-.85-2.23,5.8-.69,6.93h0Z"/>
        <path class="cls-1" d="m292.29,183.55c-1.29-7.51-3.15-14.91-4.19-22.47-.97-7.09-1.94-15.3.78-22.13l-4.61-2.53c2.29,13.1,8.35,24.82,15.26,36.03,2.32,3.77,4.42.04,4.67-2.88.92-10.66,2.11-21.34,4.97-31.68l-3.88,2.37c7,6.35,6.97,18.3,7.56,27.01.38,5.53.65,11.07,1.15,16.59.37,4.1.32,11.29,3.29,14.42.6-3.59,1.19-7.19,1.79-10.78-.65-.38-.64-1.74-1.44-2.27-.16-.11-.37,0-.46.15-1.52,2.18-1.45,5.34-1.33,7.87.07,1.54.41,5.35,2.45,5.71s2.77-2.84,2.82-4.28c.2-5.36-1.32-10.83-1.73-16.21-.47-6.27-.76-12.55-1.34-18.81-.92-9.98-2.18-23.24-10.13-30.41-2.04-1.84-3.32.33-3.88,2.37-3.12,11.32-4.47,23.09-5.4,34.77l4.08-3.84c-5.68-9.04-11.36-18.81-13.29-29.44-.4-2.21-2.94-6.83-4.61-2.53-3.61,9.31-3.31,19.64-2.27,29.41s2.52,19.29,6.62,27.77c1.9,3.95,3.39-2.64,3.12-4.21h0Z"/>
        <path class="cls-1" d="m328.22,133.04c-8.43,1.37-8.86,14.17-8.55,20.63.47,9.86,3.11,21.6,10.21,28.92,5.72,5.9,16.28,6.53,21.71-.25,6.03-7.52,4.69-19.64,1.87-28.14s-9.75-21.58-20-22.69c-.91-.1-1.84,1.31-2.05,1.97-2.28,7.05-2.74,14.6-3.92,21.89-.19,1.19.98,3.69,1.63,1.44,1.56-5.34,4.14-9.37,6.72-14.18l-2.85,1.75c7.79,3.08,13.03,8.79,15.8,16.79,2.14,6.19,1.45,12.5-6.32,13.7-9.29,1.44-14-6.23-16.33-14.15-1.45-4.95-3.83-15.98,2.89-18.31,2.41-.84,1.91-9.81-.81-9.37h0Z"/>
        <path class="cls-1" d="m158.14,219.63c3.06-5.92-3.27-12.17-7.22-15.42-5.97-4.91-13.1-9.48-20.79-11-20.04-3.95-16.15,26.98-13.66,38.03,3.43,15.22,8.39,31.48,15.68,45.33,4.07,7.73,9.26,16.04,16.87,20.75,5.98,3.7,14.22,4.14,19.21-1.44,6.19-6.93,5.99-18.34,4.75-26.94s-4.11-18.78-10.29-25.17c-1.86-1.92-3.27-.02-3.96,1.86-1.06,2.85-.61,6.23.46,8.98,8.31,21.25,19.93,41.04,27.4,62.64,1.36-3.21,2.73-6.42,4.09-9.63-1.82-2.1-3.54-4.37-5.85-5.96-2.49-1.71-5.41-2.55-7.67-4.67-1.08-1.01-1.09,2.14-.66,2.77,2.54,3.68,3.98,7.97,5.94,11.96,1.42,2.9,3.42,5.43,5.34,8,1.42,1.9,3.07.33,3.8-1.18,1.16-2.41,1.1-5.95.29-8.45-7.35-22.65-19.83-43.17-28.53-65.27-1.17,3.61-2.33,7.23-3.5,10.84,5.41,5.55,11.82,21.9,4.96,28.44-4.26,4.06-11,2.29-15.28-.64-5.69-3.88-9.72-10.26-12.9-16.24-5.47-10.27-8.84-21.57-12.14-32.69-1.89-6.37-9.85-27.93,3-27.9,6.75.02,13.53,4.57,18.94,8.17,2.46,1.64,4.71,3.57,7.13,5.24,1.68,1.16,2.11.44,3.51.62.53.06.92-.71,1.09-1.05h0Z"/>
        <path class="cls-1" d="m148.98,263.8c10.18-4.44,20.77-8.04,30.86-12.67l-3.14-1.73c.36.8.79,1.56,1.28,2.29.61,1.01.66,1.02.15.03-.48-1.45-.87-.96-1.18,1.49-.78,1.31-1.59,2.6-2.41,3.88-.35.55-.55,4.1.73,3.38,6.84-3.88,8.08-12.73,6.21-19.68-.23-.85-1.36-3.86-2.83-3.4-10.81,3.37-21.37,8.07-31.75,12.57-3.98,1.73-2.6,15.88,2.08,13.84h0Z"/>
        <path class="cls-1" d="m192.35,245.64c.06,11.38,3,24.16,7.13,34.73.68,1.73,2.02,2.01,3.25.84,1.43-1.36,1.41-4.92,1.06-6.65-.87-4.26-2.78-7.8-5.09-11.47-.45-.71-.78.79-.77,1.02.25,4.56.28,9.16.8,13.69l4.75-4.64c-2.52-8.97-5.78-18.25-6.24-27.64-.07-1.43-.44-5.39-2.58-5.33s-2.32,4.14-2.31,5.45h0Z"/>
        <path class="cls-1" d="m203.88,228.55c.33,0,.32-1.06-.03-1.06s-.32,1.06.03,1.06h0Z"/>
        <path class="cls-1" d="m192.65,232c.75.48,1.63.69,2.42,1.04.94.42,1.37.95,1.81,1.93.52,1.15,1.62,2.11,2.74,1.08,1.28-1.17,1.41-3.54,1.4-5.12-.03-4.87-.54-9.42-2.46-13.94-.46-1.08-1.46-2.16-2.69-1.5-4.1,2.18-5.61,6.43-4.9,10.95.27,1.72.74,3.5,2.07,4.69.27.25.58.46.85.72-.67-.64.26.34.49.53,1.19.99,2.21-1.56,2.34-2.24.4-2.04.29-4.07-.28-6.07-.1-.35-.24-.69-.34-1.05-.59-1.98.72-1.01.11,2.83l-.63,2.68c.12-.38-.45.18.03.02.64-.22,1.44-.95,2.01-1.32l-2.69-1.5c.1.2.78,1.94.58,1.3.1.31.19.63.26.94-.13-.62-.14-.61-.03.03.05.34.09.67.13,1.01-.07-.97-.04-.6.1,1.08.07.82.14,1.63.21,2.45l4.02-5.52c-1.03-1.76-2.08-3.15-4.05-3.23-1.09-.04-2.14.37-3.22.13-1.36-.31-1.7,2.98-1.72,3.61-.04,1.41.1,3.62,1.43,4.48h0Z"/>
        <path class="cls-1" d="m214.92,239.33l.86-2.18c.44-1.11,1-8.37-1.61-7.72-3.57.89-4.48,7.92-5.04,10.89-1.05,5.58-1.33,11.32-1,16.99.55,9.39,2.33,22.79,10.99,28.47,11.63,7.62,18.83-8.54,19.98-17.67,2.08-16.46-7.61-28.48-17.75-40.17-1.98-2.28-3.68.66-4.12,2.54-2.08,9.01-.52,17.71.56,26.73.13,1.05.88.97,1-.02.79-6.29,1.06-12.64,3.44-18.59l-3.67,1.15c4.87,6.9,15.49,15.02,14.64,24.34-.63,6.93-7.48,14.18-13.98,8.19-4.47-4.12-5.4-11.64-5.67-17.35-.33-7.08,1.6-12.99,2.7-19.79l-2.89,2.79,1.19,1.53c.14.18.31.04.37-.12h0Z"/>
        <path class="cls-1" d="m254,235.9c-.29-3.74-1.85-9.21-6.43-9.72-3.75-.41-6.97,3.23-8.79,6.05-6.22,9.64-6.55,22.72-2.48,33.2,3.18,8.19,9.48,17.26,18.27,19.98,10.29,3.19,17.06-6.07,19.63-14.86.6-2.06.7-8.76-2.57-8.99-2.76-.2-2.35,2.57-4.65,3.21-.76.21-.57,1.83-.08,2.22,1.47,1.18,2.14,1.92,2.61,3.68.26-2.75.52-5.5.78-8.25-3.11,5.27-6.31,11.56-13.49,10.47-5.79-.88-10.61-5.95-13.62-10.65-3.54-5.53-4.91-11.3-2.04-17.45,1.05-2.24,2.81-5.31,5.38-6.13s3.65,2.07,5.65,1.62c1.64-.37,1.93-3.07,1.83-4.38h0Z"/>
        <path class="cls-1" d="m278.62,284.26c-1.85-2.54-2.09-7.3-2.4-10.31-.63-5.99-.58-12.11-.52-18.13.11-11.08.91-22.13,1.48-33.2l-2.57,4.63c4.62.45,7.07,5.15,8.67,8.98,2.61,6.25,3.88,13.1,5,19.74,1.19,7.04,2.04,14.14,2.93,21.22.63,5.03.55,11.91,3.67,16.13,1.08,1.46,2.24.18,2.82-.88.99-1.81.64-4.37.21-6.27-.88-3.95-3.08-4.06-5.43-6.81-.67-.78-.69,1.42-.56,1.73.36.87.83,1.67,1.23,2.52.34.71.62,2.54,1.05,1.6l4.04,4.93c.34-6.42-1.2-13.02-2.01-19.38-1.03-8.12-2.09-16.24-3.72-24.26-1.98-9.74-5.37-30.48-18.23-31.7-1.79-.17-2.51,3.52-2.57,4.63-.7,13.74-1.71,27.46-1.61,41.23.05,6.79.31,13.76,1.68,20.42.79,3.83,1.63,9.32,6.12,10.23,2.48.5,1.36-6.14.69-7.07h0Z"/>
        <path class="cls-1" d="m273.51,266.02c3.68-3.64,8.9-5.97,13.6-7.98,2.25-.96,4.68-1.88,7.17-1.64.73.07,1.73.2,2.39.51.38.18,2.33,2.09,1.72,1.09,1.18,1.92,2.27.03,2.39-1.47.61-7.81-2.62-15.62-11.6-12.72-7.35,2.37-13.13,8.9-17.84,14.75-1.45,1.8-.59,10.19,2.17,7.45h0Z"/>
        <path class="cls-1" d="m312.92,233.9c.16-1.85.19-3,1.76-4.29l-2.57-6.92c-2.08,9.68-1.02,20.06.19,29.79.62,4.96,1.4,9.91,2.2,14.85s1.14,9.78,3.03,14.21l.27-7.84-1.95-.13c-.83-.57-.74,2.01-.56,2.34.89,1.42,1.51,2.97,1.86,4.63,1.05,4.03,3.87,1.79,4.1-1.29.66-8.76-2.09-17.9-3.39-26.53-1.4-9.29-1.8-18.36-1.74-27.73.01-2.07-1.81-6.95-3.72-3.27-2.16,4.16-.94,6.89-1.12,11.23-.07,1.61,1.4,3.5,1.62.95h0Z"/>
        <path class="cls-1" d="m296.46,239.06c.05-.08,2.35-1.24,2.56-1.36,1.2-.73,2.33-1.3,3.66-1.8,3.56-1.32,7.09-2.4,10.84-3.06,3.55-.62,7.14-1.07,10.75-1.03,2.44.02,6.19,1.07,8.33-.4l-3.13-3.73c.56-2.33.4-2.81-.47-1.45-.36.61-.75,1.2-1.18,1.77-.45.65-.51,4.73.84,3.86,1.24-.8,2.54.65,3.94-.46,2.68-2.13,1.95-7.43.35-9.96-4.05-6.38-17.94-2.69-23.56-.92-8.09,2.54-15.07,7.31-14.57,16.55.02.42.81,3.52,1.66,1.99h0Z"/>
        <path class="cls-1" d="m338.99,240.41c-1.02-2.01-1.46-3.9-2.75-5.78-.64-.93-1.92-.92-2.51.06-4.26,7.09-4.72,16.05-3.78,24.08.87,7.43,3.38,16.44,9.72,21.11,6.18,4.54,15.29,2.05,19.33-4.19,4.83-7.47,3.3-18.04.7-26.01-2.85-8.73-7.45-17.99-13.81-24.74-.36-.51-.85-.78-1.46-.82-13.05,3.47-13.52,18.86-7.69,28.83,1.14,1.95,1.7-1.67,1.4-2.53-1.83-5.38-1.33-11.07,4.79-13.14.36-1.11.74-1.27,1.17-.49l.44.52c.65.44,1.2,1.5,1.67,2.12,1.18,1.58,2.29,3.23,3.31,4.92,3.02,5,9.79,15.69,6.25,21.66-4.39,7.41-14.65,5.01-18.24-1.44-3.07-5.52-4.32-14.75-1.06-20.48l-2.51.06c.81,1.13,1.09,2.7,1.76,3.95,1.06,1.98,2.44,1.7,3.45-.08,1.12-1.99.82-5.61-.19-7.6h0Z"/>
        <path class="cls-1" d="m365.76,219.83c-2.12,10.59-.75,21.61,1.18,32.13s3.89,21.84,8.07,31.67c.91,2.14,2.52,1.57,3.46-.08,1.15-2.04.78-5.58-.19-7.62-.16-.34-.76-3.88-.65-3.19-.14-.82-.86-1.42-1.14-.3-.32,1.28-.75,2.55-1.09,3.84l1.42-1.89h-.32c.82,1.3,1.64,2.6,2.45,3.9-1.31-9.01-4.42-17.78-6.32-26.68-1.76-8.28-3.95-17.76-2.36-26.23.39-2.1.75-6.05-1.1-7.65s-3.05.19-3.43,2.1h0Z"/>
        <path class="cls-1" d="m364.56,224.36c0-.57.24-1.37.07-1.95-.37-1.24-.22,1.3-.34,1.33.51-.09,1.84-1.49,2.47-1.81,2.68-1.36,5.79-1.88,8.76-1.94s6.01.28,8.69,1.58c.48.23,2.87,2.36,3.11,2.35-1.02.02.66-4.47-.55-2.39-1.49,2.58-2.36,5.55-3.97,8.15-2.04,3.3-4.32,6.45-6.71,9.51-3.79,4.84-7.82,9.83-12.52,13.83,1.45,2.3,2.89,4.6,4.34,6.9-1.04,2.36-1.2,2.87-.47,1.54.24-.35.46-.71.65-1.09.48-1.02.46-2.35.91-3.29s.7-4.24-.69-4.75c.59.22-.81-2.27-1.43-2.66-1.1-.7-1.88-.62-2.94.08-2.87,1.9-2.75,7.43-2.62,10.33.04.92,1.35,9.44,4.34,6.9,7.53-6.39,14.13-14.66,19.53-22.87s11.4-20.23,6.5-30.32c-4.01-8.25-15.33-9.21-23.13-6.7-3.96,1.27-7.08,3.96-8.52,7.93-1.2,3.31-2.3,12.96,2.68,13.76,1.65.26,1.83-3.66,1.83-4.39h0Z"/>
        <path class="cls-1" d="m381.57,246.13c.37-.96.81-1.86,1.28-2.77l-3.11.97c3.61,4.86,7,9.79,10.16,14.95,2.21,3.62,5.26,11.17,9.5,12.52l-1.93-9.2c-.86.71-1.71,1.44-2.54,2.18-.54.47-.51,1.8.05,2.24,1.28.82,2.33,1.88,3.12,3.19,1.02,2.42,3.02,1.93,4.04-.1,1.33-2.65.8-6.26-.22-8.9-2.08-5.38-6.55-10.35-9.69-15.23-2.95-4.59-6.07-9.14-10.75-12.11-2.96-1.88-3.21,5.94-3,7.08.07.39.9,4.19.99,2.61-.05.87,1.08,5.23,2.1,2.56h0Z"/>
        <path class="cls-1" d="m403.44,212.97c-.58-.88-1.03-1.16-2.02-1.58-3.49-1.5-3.58,6.09-3.3,7.77,1.57,9.31,3.71,18.52,5.37,27.81.81,4.52,1.54,9.05,2.09,13.61s.5,9.46,1.78,13.96c1.01,3.54,3.62,3.3,4.52-.11l-4.95-2.79c-.02,3.57,3.39,8.66,4.95,2.79,2.5-9.44-.34-21.14-2.11-30.53-1.88-9.96-4.2-19.83-6.6-29.67l-2.22,9.46v-.35c1.91,1.73,3.13-.36,3.64-2.23.72-2.63.33-5.85-1.17-8.13h0Z"/>
        <path class="cls-1" d="m397.96,186.36c.24,1.17.49,2.33.77,3.48-.32-1.34.13.59.29,1.27.13.53.26,1.05.4,1.58.54,2,1.26,3.95,2.25,5.77.8,1.46,2.21,2.54,3.49.9,1.39-1.78,1.59-5.03,1.14-7.14-.52-2.44-1.09-4.77-2.03-7.08-.3-.73-.62-1.44-.94-2.16-.17-.39-.34-.78-.51-1.17-.13-.29-.56-1.42-.07-.13-.51-1.36-1.66-3.91-3.4-2.33-1.65,1.5-1.78,5.03-1.38,7h0Z"/>
      </g>
      <path class="cls-2" d="m115.26,374.81c-1.25-21.19-6.85-42.06-10.94-62.83-1.17-5.94-2.42-11.85-3.73-17.76,1.35-2.72,2.66-5.46,3.9-8.24,1.53-3.43,1.39-8.27.02-11.71-.77-1.94-3.23-5.33-5.17-2.17-.93,1.51-1.87,3.01-2.81,4.51-1.93-8.08-3.92-16.15-5.92-24.22.3.88.51,1.9.78,3.04.53,2.19,1.93,4.21,4.11,2.86,2.13-1.32,2.07-6.65,1.66-8.58-1.2-5.64-2.27-12.81-8.17-15.47-6.46-2.92-14.59.99-21.07,2.2-5.6,1.04-11.19,2.12-16.81,3.05-.78-1.26-1.79-2.07-2.92-1-.6.57-1.18,1.16-1.77,1.75-2.38.36-4.77.68-7.16.96-.12.01-.25.02-.37.03-.65-.68-1.52-.88-2.69-.32-.32.15-.61.34-.92.5-2.75.01-5.59-.18-8.42-.3-.71-.91-1.58-1.42-2.47-.52-.15.15-.3.29-.45.44-3.73-.03-7.37.26-10.67,1.6-5.45,2.21-10.83,6.4-12.58,12.21-2.23,7.45,1.56,13.64,2.2,20.81,1.75,19.54,5.01,38.15,9.06,57.34,4.06,19.24,7.15,38.66,11.07,57.93,1.06,5.2,2.62,10.99,8.19,12.74,7.31,2.29,16.45.87,23.82-.26,9.02-1.38,17.97-3.65,27.12-4,5.22-.2,10.43.46,15.65.14,14.39-.88,18.24-11.58,17.46-24.73Zm-57.23,10.43c.69-1.06,1.37-2.13,2.06-3.17-.18.95-.31,1.91-.42,2.88-.54.1-1.09.2-1.63.29Zm-3.25-117.25c2.72-2.97,5.24-6.04,7.23-9.64.03-.03.05-.06.08-.09,0-.01,0-.02-.01-.03.21-.39.44-.78.64-1.18.75-.13,1.5-.25,2.25-.37-1.61,2.23-3.06,4.59-4.42,6.98-4.11,5.91-7.93,12.05-11.98,17.88-.72,1.04-1.44,2.07-2.16,3.11,2.53-5.71,5.14-11.38,8.38-16.66Zm-29.67,66.32c-.09,1.77-.35,1.26,0,0h0Zm-12.99-46.01c.57-.7,1.13-1.43,1.68-2.16-.66,2.31-1.14,4.65-1.38,7.03-.22-1.5-.43-3.01-.62-4.51.11-.11.21-.22.32-.36Zm6.08,34.56c.54-.57,1.06-1.14,1.58-1.72-.4,1.18-.79,2.39-1.14,3.62-.15-.63-.29-1.27-.44-1.9Zm5.88,18.12c-.38.89-.77,1.77-1.16,2.66-.16-.73-.31-1.46-.47-2.19.55.03,1.1-.14,1.63-.47Zm10.63,24.89c-.08.21-.11.24,0,0h0Zm65.29-29.85c-.29.2-.59.46-.9.81-5.62,6.21-10.72,12.89-15.87,19.53,2.6-5.09,5.21-10.17,7.86-15.24,2.13-4.07,5.33-8.58,7.32-13.13.53,2.68,1.07,5.35,1.59,8.03Zm4.44,28.6c-.51-1.11-1.2-1.87-1.97-2.18-.3-1.91-.84-3.77-1.78-4.79.84-1.63,1.69-3.27,2.53-4.9.9,4.85,1.7,9.73,2.27,14.63-.3-.93-.64-1.85-1.06-2.77Zm-9.64-54.39c-2.16,1.75-4.14,3.69-5.98,5.76,1.76-3.12,3.51-6.23,5.23-9.36.25,1.2.5,2.4.75,3.6Zm-13.43-10.21c2.23-5.53,4.69-10.94,7.87-15.95.21.97.43,1.95.64,2.92-2.83,4.35-5.67,8.69-8.51,13.04Zm-49.04,86.4c-1.56-.61-1.19,0-1.45-2.19-.43-3.63-1.38-7.26-2.13-10.85.44.1.92.05,1.43-.25,2.9-1.73,4.29-4.6,4.76-7.74.08-.17.18-.36.3-.59.48-.91.92-1.82,1.41-2.72,1.63-2.98,3.42-5.89,5.2-8.78,1.98-3.21,4.02-6.38,6.05-9.55-4.63,8.49-9.16,17.03-13.46,25.7-1.35,2.73-2.07,15.4,3.13,15.17,1.81-.08,3.43-.51,4.9-1.19-.35,1.29-.53,2.63-.54,3.97-3.49.22-6.93.07-9.58-.97Z"/>
      <g>
        <path class="cls-1" d="m106.92,354.9c-.66,0-1.25-.48-1.37-1.15l-16.18-93.37c-.13-.76.38-1.47,1.13-1.61.74-.12,1.47.37,1.61,1.13l16.18,93.37c.13.76-.38,1.47-1.13,1.61-.08.01-.16.02-.24.02Z"/>
        <path class="cls-1" d="m41.74,362.8s-.05,0-.08,0c-1.28-.04-2.28-1.11-2.24-2.39.5-15.38,7.55-23.58,13.38-27.75,7.2-5.15,16.85-6.94,24.6-4.58,6.19,1.9,11.93,5.99,16.6,11.82,3.8,4.75,6.89,10.56,8.95,16.82.4,1.21-.26,2.52-1.48,2.92-1.21.41-2.52-.26-2.92-1.48-1.89-5.74-4.71-11.05-8.16-15.37-4.09-5.11-9.05-8.66-14.34-10.29-6.41-1.96-14.49-.43-20.55,3.91-4.98,3.56-11.01,10.64-11.45,24.13-.04,1.25-1.07,2.24-2.31,2.24Z"/>
        <path class="cls-1" d="m65.57,331.06c-5.44,0-10.7-1.77-15.26-5.27-7.61-5.84-11.81-15.48-10.44-23.98,1.19-7.45,6.36-13.14,14.56-16.03,12.92-5.63,25.05,1.82,30.36,12.12,4.92,9.55,4.59,23.18-7.78,30.56-.08.05-.16.09-.24.12-3.71,1.66-7.49,2.48-11.2,2.48Zm-2.07-42.61c-2.32,0-4.77.49-7.3,1.6-.05.02-.11.05-.17.07-6.66,2.33-10.67,6.62-11.6,12.42-1.1,6.88,2.39,14.75,8.69,19.58,3.67,2.82,11.35,6.84,21.62,2.29,9.74-5.89,10-16.48,5.92-24.39-3.22-6.24-9.52-11.57-17.16-11.57Zm-8.23-.52h.02-.02Z"/>
        <path class="cls-1" d="m69.65,341.12h-.02c-1.8,0-3.57-.76-5.4-2.3-2.1-1.77-3.79-4.03-4.89-6.54-.51-1.17.02-2.54,1.19-3.05,1.17-.52,2.54.02,3.05,1.19.82,1.86,2.07,3.54,3.63,4.85.96.8,1.72,1.21,2.44,1.21.87,0,1.87-.78,2.44-1.9.69-1.36.87-3.12,1.05-4.82.13-1.27,1.26-2.21,2.54-2.06,1.27.13,2.2,1.27,2.06,2.54-.21,2.02-.45,4.31-1.53,6.44-1.37,2.69-3.95,4.43-6.57,4.43Z"/>
        <path class="cls-1" d="m65.56,362.64c-.11,0-.22,0-.33-.02-1.27-.18-2.15-1.35-1.97-2.62l3.1-21.77c.18-1.27,1.35-2.16,2.62-1.97,1.27.18,2.15,1.35,1.97,2.62l-3.1,21.77c-.16,1.16-1.15,1.99-2.29,1.99Z"/>
        <path class="cls-1" d="m80.45,361.3c-.94,0-1.81-.57-2.17-1.5l-8.08-21.34c-.45-1.2.15-2.53,1.35-2.99,1.19-.46,2.53.15,2.99,1.35l8.08,21.34c.45,1.2-.15,2.53-1.35,2.99-.27.1-.55.15-.82.15Z"/>
        <path class="cls-1" d="m74.1,306.16c-9.89,0-19.7-2.55-28.36-7.46-1.11-.63-1.5-2.04-.87-3.16.63-1.11,2.05-1.51,3.16-.87,10.5,5.95,22.83,8.13,34.73,6.14,1.28-.19,2.46.64,2.67,1.9.21,1.26-.64,2.46-1.9,2.67-3.12.52-6.27.78-9.41.78Z"/>
        <path class="cls-1" d="m115.6,380.55c-.49,0-.98-.15-1.4-.47-1.02-.77-1.22-2.23-.45-3.25,1.24-1.64,1.55-4.42.9-8.26l-20.26-120.75c-.83-5.07-1.53-8.28-5.18-10.16-2.97-1.53-7.65-1.04-11.78-.62-1.34.14-2.63.27-3.8.33l-28.81,1.54c-2.49.13-5,.25-7.5.36-4.88.22-9.92.46-14.85.83-3.54.27-5.76,1.66-6.6,4.15-.41,1.21-1.72,1.86-2.93,1.45-1.21-.41-1.86-1.72-1.45-2.93,1.45-4.29,5.23-6.88,10.64-7.28,5-.38,10.07-.61,14.98-.84,2.49-.11,4.98-.23,7.46-.36l28.81-1.54c1.1-.06,2.3-.18,3.56-.31,4.77-.5,10.18-1.05,14.38,1.11,5.91,3.04,6.83,8.61,7.63,13.53l3.31,19.72,16.95,101.01c.88,5.22.29,9.09-1.78,11.83-.46.6-1.15.92-1.85.92Z"/>
        <path class="cls-1" d="m113.79,240.51c-.12,0-.23,0-.35-.03l-8.42-1.28c-1.26-.19-2.13-1.37-1.94-2.64.19-1.26,1.38-2.13,2.64-1.94l8.42,1.28c1.26.19,2.13,1.37,1.94,2.64-.17,1.15-1.16,1.97-2.29,1.97Z"/>
        <path class="cls-1" d="m98.18,230.21c-.37,0-.75-.09-1.1-.28-1.13-.61-1.54-2.02-.93-3.14,1.49-2.75,3.64-5.16,6.2-6.96,1.05-.74,2.49-.48,3.23.56.74,1.05.48,2.49-.56,3.23-1.98,1.39-3.63,3.25-4.79,5.38-.42.77-1.22,1.21-2.04,1.21Z"/>
        <path class="cls-1" d="m89.05,226.09c-.05,0-.1,0-.15,0-1.28-.08-2.24-1.18-2.16-2.46l.63-9.59c.08-1.28,1.17-2.25,2.46-2.16,1.28.08,2.24,1.18,2.16,2.46l-.63,9.59c-.08,1.22-1.1,2.17-2.31,2.17Z"/>
        <path class="cls-1" d="m36.47,382.59c-.7,0-1.4-.32-1.85-.92-1.19-1.58-1.97-3.41-2.3-5.42l-14.82-88.32c-.72-4.28-1.51-8.56-2.29-12.85-1.56-8.5-3.18-17.29-4.22-26-.28-2.35-.11-4.47.51-6.32.41-1.21,1.71-1.87,2.93-1.45,1.21.41,1.86,1.72,1.45,2.93-.4,1.19-.5,2.63-.3,4.29,1.03,8.56,2.63,17.28,4.18,25.71.79,4.31,1.58,8.62,2.3,12.92l14.82,88.32c.21,1.27.7,2.41,1.44,3.4.77,1.02.56,2.48-.46,3.24-.42.31-.9.47-1.39.47Z"/>
        <path class="cls-1" d="m26.89,393.13c-.7,0-1.4-.32-1.85-.93-1.19-1.59-1.97-3.41-2.3-5.41l-14.82-88.32c-.72-4.26-1.5-8.53-2.29-12.8-1.56-8.52-3.18-17.32-4.23-26.05l-.03-.27c-.27-2.22-.58-4.73.88-6.69,3.18-4.27,11.78-13.44,12.15-13.83.88-.93,2.34-.98,3.27-.1.93.88.98,2.34.1,3.27-.09.09-8.79,9.37-11.81,13.43-.35.47-.14,2.21,0,3.36l.03.28c1.03,8.58,2.64,17.31,4.19,25.76.79,4.3,1.58,8.59,2.3,12.87l14.82,88.32c.21,1.27.7,2.41,1.44,3.4.77,1.02.56,2.47-.46,3.24-.42.31-.9.46-1.39.46Z"/>
        <path class="cls-1" d="m39.01,397.55c-1,0-1.99,0-2.99-.03-4.43-.08-8.54-2.07-10.99-5.32-.77-1.02-.56-2.47.46-3.24,1.02-.77,2.47-.56,3.24.46,1.59,2.12,4.34,3.42,7.36,3.47,10.37.17,21.13-.65,31.52-1.44,5.19-.4,10.56-.81,15.8-1.09,1.84-.1,3.71-.14,5.58-.19,3.63-.09,7.39-.18,10.89-.68,2.07-.29,3.21-1.28,4.53-2.42.98-.84,2.13-2.01,3.29-3.26-3.01.29-6.06.37-9.03.44-1.83.05-3.65.09-5.44.18-5.19.28-10.53.69-15.69,1.08-10.5.8-21.35,1.63-31.95,1.45-4.43-.08-8.54-2.06-10.98-5.32-.77-1.02-.56-2.47.46-3.24,1.03-.77,2.48-.56,3.24.46,1.59,2.12,4.34,3.42,7.36,3.47,10.37.17,21.13-.65,31.52-1.44,5.19-.4,10.55-.81,15.8-1.09,1.83-.1,3.7-.14,5.58-.19,3.63-.09,7.39-.18,10.9-.68,1.86-.26,3.2-.88,4.07-1.88.15-.18.24-.29.24-.3.79-.98,2.23-1.15,3.23-.37,1,.78,1.18,2.22.42,3.23-.11.14-.22.28-.34.42-1.28,1.58-6.28,7.63-9.58,10.47-1.63,1.41-3.57,3.07-6.98,3.56-3.77.53-7.67.63-11.43.72-1.83.05-3.66.09-5.45.18-5.19.28-10.53.69-15.69,1.08-9.51.73-19.32,1.48-28.96,1.48Z"/>
        <path class="cls-1" d="m34.46,365.14c-1.22,0-2.25-.96-2.31-2.19-.07-1.28.91-2.37,2.19-2.44l79.93-4.26c1.26-.07,2.37.91,2.44,2.19.07,1.28-.91,2.37-2.19,2.44l-79.93,4.26s-.08,0-.12,0Z"/>
        <path class="cls-1" d="m16.75,259.6c-1.22,0-2.25-.96-2.31-2.19-.07-1.28.91-2.37,2.19-2.44l79.93-4.26c1.26-.04,2.37.91,2.44,2.19.07,1.28-.91,2.37-2.19,2.44l-79.93,4.26s-.08,0-.12,0Z"/>
        <path class="cls-1" d="m78.36,377.83c-2.31,0-4.41-1.12-5.7-3.05-1.28-1.93-1.51-4.25-.6-6.07.51-1.02,1.85-2.75,5.08-2.92h0c4.26-.23,7.1,3.1,7.29,6.31.16,2.64-1.5,5.43-5.57,5.72-.17.01-.33.02-.5.02Zm-1.07-9.27c-.96.05-2.21.33-2.74,1.39-.46.91-.29,2.2.43,3.28.39.59,1.54,1.95,3.69,1.81,2-.14,3.09-1.15,2.99-2.78-.12-1.89-1.9-3.87-4.37-3.71h0Z"/>
        <path class="cls-1" d="m97.43,393.43c-.25,0-.5-.07-.73-.21-.65-.4-.86-1.26-.45-1.91,1.89-3.06,4.01-6.01,6.32-8.77.49-.59,1.37-.66,1.96-.17.59.49.67,1.37.17,1.96-2.23,2.66-4.28,5.5-6.09,8.44-.26.43-.72.66-1.18.66Z"/>
        <path class="cls-1" d="m91.78,392.64c-.35,0-.7-.13-.97-.39-.55-.54-.56-1.41-.03-1.96,2.29-2.35,4.3-4.98,5.98-7.8.39-.66,1.24-.87,1.91-.48.66.39.88,1.24.48,1.91-1.79,3.01-3.94,5.81-6.37,8.32-.27.28-.63.42-1,.42Z"/>
        <path class="cls-1" d="m85.5,393.65c-.25,0-.51-.07-.74-.21-.65-.41-.84-1.27-.43-1.92l5.93-9.4c.41-.65,1.27-.84,1.92-.43.65.41.84,1.27.43,1.92l-5.93,9.4c-.26.42-.72.65-1.18.65Z"/>
        <path class="cls-1" d="m78.03,393.3c-.23,0-.46-.06-.68-.18-.67-.37-.91-1.22-.53-1.89l4.5-8.01c.38-.67,1.22-.9,1.89-.53.67.38.91,1.22.53,1.89l-4.5,8.01c-.26.45-.73.71-1.21.71Z"/>
        <path class="cls-1" d="m71.07,394.29c-.25,0-.51-.07-.74-.21-.65-.41-.84-1.27-.44-1.92l5.34-8.48c.41-.65,1.26-.85,1.92-.44.65.41.84,1.27.44,1.92l-5.34,8.48c-.26.42-.71.65-1.18.65Z"/>
        <path class="cls-1" d="m63.7,394.49c-.26,0-.52-.07-.75-.22-.64-.42-.83-1.28-.41-1.92l5.19-8.01c.42-.64,1.28-.83,1.92-.41.64.42.83,1.28.41,1.92l-5.19,8.01c-.27.41-.71.63-1.17.63Z"/>
        <path class="cls-1" d="m55.53,395.92c-.26,0-.52-.07-.75-.22-.65-.42-.83-1.28-.42-1.92l5.93-9.2c.42-.64,1.27-.83,1.92-.42.65.42.83,1.28.42,1.92l-5.93,9.2c-.27.41-.71.64-1.17.64Z"/>
        <path class="cls-1" d="m49.06,395.94c-.26,0-.52-.07-.75-.22-.65-.42-.83-1.28-.41-1.92l5.23-8.1c.41-.65,1.28-.83,1.92-.41.65.42.83,1.28.41,1.92l-5.23,8.1c-.27.41-.71.64-1.17.64Z"/>
        <path class="cls-1" d="m40.54,396.13c-.27,0-.54-.08-.79-.24-.63-.44-.79-1.3-.36-1.93l6.32-9.19c.44-.63,1.3-.79,1.93-.36.63.44.79,1.3.36,1.93l-6.32,9.19c-.27.39-.7.6-1.15.6Z"/>
        <path class="cls-1" d="m33.23,395.88c-.26,0-.52-.07-.75-.22-.64-.42-.83-1.28-.41-1.92l7.41-11.41c.42-.64,1.28-.83,1.92-.41.64.42.83,1.28.41,1.92l-7.41,11.41c-.27.41-.71.63-1.17.63Z"/>
        <path class="cls-1" d="m27.63,392.63c-.27,0-.54-.08-.78-.24-.64-.43-.8-1.3-.37-1.93l8.64-12.74c.43-.64,1.29-.8,1.93-.37.64.43.8,1.3.37,1.93l-8.64,12.74c-.27.4-.71.61-1.15.61Z"/>
        <path class="cls-1" d="m25.34,385.09c-.26,0-.52-.07-.75-.22-.64-.42-.83-1.28-.41-1.92l7.78-12.04c.42-.64,1.28-.83,1.92-.41.64.42.83,1.28.41,1.92l-7.78,12.04c-.27.41-.71.63-1.17.63Z"/>
        <path class="cls-1" d="m23.66,374.28c-.29,0-.58-.09-.83-.28-.61-.46-.74-1.33-.28-1.94l8.39-11.19c.46-.61,1.33-.74,1.94-.28.61.46.74,1.33.28,1.94l-8.39,11.19c-.27.36-.69.56-1.11.56Z"/>
        <path class="cls-1" d="m22.65,364.45c-.29,0-.59-.09-.84-.28-.61-.46-.73-1.34-.26-1.95l7.72-10.16c.46-.61,1.34-.73,1.95-.27.61.46.73,1.34.27,1.95l-7.72,10.16c-.27.36-.69.55-1.11.55Z"/>
        <path class="cls-1" d="m21.11,356.74c-.32,0-.64-.11-.91-.34-.58-.5-.65-1.38-.15-1.96l7.75-9c.5-.59,1.38-.65,1.96-.15.58.5.65,1.38.15,1.96l-7.75,9c-.27.32-.66.48-1.05.48Z"/>
        <path class="cls-1" d="m19.28,348.1c-.26,0-.52-.07-.75-.22-.64-.42-.83-1.28-.41-1.92l6.99-10.8c.42-.64,1.28-.83,1.92-.41.64.42.83,1.28.41,1.92l-6.99,10.8c-.27.41-.71.64-1.17.64Z"/>
        <path class="cls-1" d="m18.46,338.72c-.32,0-.64-.11-.9-.33-.58-.5-.65-1.38-.15-1.96,2.97-3.48,5.64-7.24,7.95-11.2.38-.66,1.23-.89,1.9-.5.66.39.89,1.24.5,1.9-2.39,4.1-5.16,8-8.24,11.6-.27.32-.66.49-1.06.49Z"/>
        <path class="cls-1" d="m16.58,330.14c-.28,0-.57-.09-.82-.27-.62-.45-.76-1.32-.31-1.94l7.7-10.56c.45-.62,1.32-.76,1.94-.31.62.45.76,1.32.31,1.94l-7.7,10.56c-.27.37-.7.57-1.13.57Z"/>
        <path class="cls-1" d="m15.65,321.07c-.33,0-.66-.12-.92-.35-.58-.51-.63-1.39-.12-1.96,2.46-2.78,4.5-5.9,6.05-9.27.32-.7,1.15-1,1.84-.68.7.32,1,1.15.68,1.84-1.66,3.62-3.85,6.97-6.49,9.95-.28.31-.66.47-1.04.47Z"/>
        <path class="cls-1" d="m12.68,311.57c-.29,0-.59-.09-.84-.28-.61-.46-.73-1.34-.27-1.95l7.6-10.06c.46-.61,1.34-.73,1.95-.27.61.46.73,1.34.27,1.95l-7.6,10.06c-.27.36-.69.55-1.11.55Z"/>
        <path class="cls-1" d="m12.42,301.34c-.26,0-.52-.07-.75-.22-.64-.42-.83-1.28-.41-1.92,2.26-3.5,4.31-7.19,6.1-10.96.33-.69,1.16-.99,1.85-.66.69.33.99,1.16.66,1.85-1.83,3.88-3.94,7.67-6.27,11.28-.27.41-.71.64-1.17.64Z"/>
        <path class="cls-1" d="m10.21,291.66c-.26,0-.53-.08-.77-.23-.64-.42-.81-1.29-.39-1.93l6.65-10c.43-.64,1.29-.82,1.93-.39.64.43.81,1.29.39,1.93l-6.65,10c-.27.4-.71.62-1.16.62Z"/>
        <path class="cls-1" d="m7.38,282.7c-.33,0-.65-.11-.92-.35-.58-.5-.63-1.38-.13-1.96,3.16-3.6,5.76-7.65,7.73-12.02.32-.7,1.14-1.01,1.84-.69.7.31,1.01,1.14.7,1.84-2.08,4.63-4.83,8.9-8.17,12.71-.27.31-.66.47-1.04.47Z"/>
        <path class="cls-1" d="m5.72,273.26c-.18,0-.36-.03-.53-.1-.61-.25-.96-.9-.84-1.54l.08-.44c.08-.46.37-.82.76-1.01,2.42-3.59,4.86-7.18,7.31-10.75.43-.63,1.3-.8,1.93-.36.63.43.79,1.3.36,1.93-2.66,3.88-5.3,7.77-7.92,11.66-.26.39-.7.61-1.15.61Z"/>
        <path class="cls-1" d="m5.37,263.87c-.24,0-.48-.06-.7-.19-.66-.39-.89-1.24-.5-1.9,1.94-3.31,4.26-6.4,6.92-9.16.53-.55,1.41-.57,1.96-.04.55.53.57,1.41.04,1.96-2.5,2.61-4.69,5.51-6.52,8.64-.26.44-.72.69-1.2.69Z"/>
      </g>
      <path class="cls-2" d="m526.92,226.84c-4.34-2.11-8.91-1.81-13.6-1.78-5.86.03-11.72-.05-17.58-.13-5.06-.07-10.11.11-15.16.33-.69-4.39-2.27-8.62-5.07-6.9-3.38,2.09-6.38,4.66-9.16,7.47-2.06.06-4.12.1-6.18.11-3.7,0-7.4-1.02-10.34,1.78-1.23,1.17-2.13,2.75-2.87,4.42-2.32-.81-4.96-.14-7.22,3.01-1.73,2.41-2,5.54-2.61,8.36-1.12,5.26-2.25,10.5-3.02,15.83-3.13,21.68-4,43.66-7.05,65.35-1.51,10.74-3.5,21.41-5.12,32.14-1.37,9.11-2.94,18.58.4,27.48,1.85,4.93,6.28,13.07,12.44,12.75,9.58-.5,18.37-3.5,28.12-2.39,10.15,1.15,18.94,1.36,29.04-.43,9.26-1.64,20.14-1.2,28.24-6.7,6.14-4.17,8.04-11.83,9.06-18.74,1.44-9.71,2.23-19.57,2.96-29.35,1.57-20.96,3.2-41.87,4.11-62.85.66-15.18,8.59-41.03-9.39-49.77Zm-22.02,143.96c.44,1.29,1.05,2.5,1.83,3.61-1.82.38-3.68.66-5.55.89,1.31-1.45,2.55-2.95,3.73-4.5Zm-24.02-122.25c.75-1.59,1.36-3.27,1.78-5.08,1.21-.03,2.41-.06,3.62-.08-1.79,1.73-3.6,3.43-5.4,5.16Zm-46.28,79.52c.46.11.94,0,1.42-.5.3-.31.58-.63.87-.94-.13.22-.24.45-.37.67-.76,1.33-1.54,2.6-2.3,3.88.13-1.04.25-2.07.37-3.11Zm67.36-84.73c-1.21,1.36-2.41,2.73-3.59,4.1-.07-1.43-.29-2.83-.58-4.12,1.24,0,2.48,0,3.72.02.15,0,.3,0,.45,0Zm-73.72,133.02c-.54-1.83.14-4.23.4-6.22.69-5.17,1.51-10.32,2.33-15.48.15-.95.29-1.9.43-2.85.63,1.49,1.51,2.68,2.74,3.22,1.75.76,3.44.67,5.06,0-1.47,4.2-2.69,8.52-3.56,12.99-.27,1.39-.11,7.84,1.21,11.93-3.69.62-7.41.52-8.63-3.6Zm18.21,2c3.44-3.63,6.15-7.89,9.31-11.91.36-.46.63-1.4.8-2.63.8-.9,2.02-2.63,2.27-2.98,1.36-1.89,2.46-3.97,3.65-5.97,1.08-1.8,2.16-3.6,3.24-5.4-2.69,7.27-4.7,14.72-5.39,22.41-.09.97.03,3.53.49,6.16-4.82-.22-9.46-.16-14.37.32Zm27.75.32c1.63-1.63,3.13-3.38,4.52-5.22.32,1.73.75,3.43,1.31,4.76-1.93.23-3.87.39-5.83.45Zm12.79-1.47c2.29-2.39,4.39-4.94,6.39-7.58.37,2.26.96,4.63,1.73,6.34-1.51.17-3.01.37-4.46.62-1.23.21-2.44.42-3.65.62Zm42.95-118.72c-1.06,7.56-1.17,15.1-1.41,22.72-.28,8.84-1.57,17.66-2.27,26.48-1.05,13.33-2,26.63-3.35,39.92-.44-1.6-.99-3.15-1.64-4.28.19-3.08-.58-6.53-1.83-8.98-.86-1.68-2.19-3.33-3.63-2.99-.22-.92-.5-1.8-.84-2.62-.39-.93-1.35-2.89-2.54-3.74,3.25-6.12,6.17-12.4,8.35-19.04,1.08-3.28.34-8.11-.92-11.26-.51-1.29-2.68-5.81-4.66-3.7-5.08,5.44-8.94,12.18-12.95,18.41-4.65,7.22-9.15,14.54-13.49,21.95-3.82,6.52-7.14,13.52-11.2,19.9,4.36-9.43,9.07-18.67,13.48-28.07,4.88-10.41,9.72-20.85,15.19-30.98,5.3-9.81,13.15-18.98,16.79-29.54,1.4-4.05,1.15-8.82-.41-12.81-.22-.55-.51-1.19-.86-1.79.59-1.47,1.07-2.99,1.38-4.57,0-.02,0-.06.01-.08.67.09,1.33.21,1.97.39,1.04.29,2.15.77,3.07,1.29.18.1,3.34,2.71,3.16,1.88,1.03,2.59-1.03,8.89-1.4,11.53Z"/>
      <g>
        <path class="cls-1" d="m439.93,348.03c.67,0,1.26-.48,1.37-1.16l16.26-93.83c.13-.76-.38-1.48-1.14-1.61-.75-.12-1.48.38-1.61,1.14l-16.26,93.83c-.13.76.38,1.48,1.14,1.61.08.01.16.02.24.02Z"/>
        <path class="cls-1" d="m505.44,355.96s.05,0,.08,0c1.28-.04,2.29-1.12,2.25-2.4-.5-15.46-7.59-23.7-13.45-27.89-7.23-5.17-16.94-6.98-24.72-4.6-6.22,1.91-11.99,6.02-16.68,11.88-3.82,4.77-6.93,10.62-8.99,16.91-.4,1.22.26,2.54,1.49,2.94,1.22.41,2.54-.27,2.94-1.49,1.89-5.77,4.73-11.11,8.2-15.45,4.11-5.13,9.09-8.71,14.41-10.34,6.45-1.97,14.56-.43,20.65,3.93,5,3.58,11.06,10.69,11.5,24.25.04,1.26,1.07,2.25,2.32,2.25Z"/>
        <path class="cls-1" d="m470.24,321.57c-.08-.04-.16-.08-.24-.13-12.43-7.41-12.76-21.11-7.81-30.71,5.34-10.35,17.52-17.83,30.51-12.18,8.24,2.9,13.43,8.62,14.63,16.11,1.37,8.55-2.85,18.24-10.5,24.1-4.59,3.51-9.87,5.3-15.34,5.3-3.72,0-7.53-.83-11.25-2.5Zm-3.92-28.7c-4.1,7.95-3.84,18.59,5.95,24.51,10.32,4.57,18.04.52,21.73-2.31,6.33-4.85,9.84-12.76,8.73-19.67-.94-5.83-4.97-10.14-11.66-12.48-.06-.02-.11-.04-.17-.07-2.54-1.12-5-1.61-7.33-1.61-7.68,0-14.01,5.35-17.25,11.63Zm25.5-12.15h.02-.02Z"/>
        <path class="cls-1" d="m477.39,334.18h.02c1.81,0,3.59-.76,5.43-2.31,2.11-1.77,3.81-4.05,4.92-6.57.52-1.18-.02-2.55-1.2-3.07-1.18-.53-2.55.02-3.07,1.2-.82,1.87-2.08,3.56-3.65,4.88-.96.81-1.73,1.21-2.45,1.22-.87,0-1.88-.78-2.45-1.91-.69-1.37-.88-3.13-1.05-4.84-.13-1.28-1.26-2.22-2.55-2.07-1.28.13-2.21,1.27-2.07,2.55.21,2.03.45,4.33,1.53,6.47,1.38,2.71,3.97,4.45,6.6,4.45Z"/>
        <path class="cls-1" d="m481.51,355.81c.11,0,.22,0,.33-.02,1.27-.18,2.16-1.36,1.98-2.63l-3.12-21.87c-.18-1.27-1.36-2.17-2.63-1.98-1.27.18-2.16,1.36-1.98,2.63l3.12,21.87c.17,1.16,1.16,2,2.3,2Z"/>
        <path class="cls-1" d="m466.54,354.46c.94,0,1.82-.57,2.18-1.5l8.12-21.45c.45-1.2-.15-2.55-1.35-3-1.2-.46-2.54.15-3,1.35l-8.12,21.45c-.45,1.2.15,2.55,1.35,3,.27.1.55.15.82.15Z"/>
        <path class="cls-1" d="m472.92,299.05c9.94,0,19.8-2.56,28.51-7.5,1.12-.63,1.51-2.05.88-3.17-.63-1.12-2.06-1.51-3.17-.88-10.55,5.98-22.95,8.17-34.9,6.17-1.28-.19-2.47.65-2.68,1.91-.21,1.27.65,2.47,1.91,2.68,3.14.52,6.3.78,9.46.78Z"/>
        <path class="cls-1" d="m431.22,373.8c.49,0,.98-.15,1.41-.47,1.02-.78,1.22-2.24.45-3.26-1.25-1.65-1.56-4.44-.91-8.3l20.37-121.35c.84-5.1,1.54-8.32,5.21-10.21,2.99-1.53,7.69-1.05,11.84-.62,1.35.14,2.64.27,3.81.33l28.95,1.55c2.51.13,5.02.25,7.53.37,4.9.23,9.97.46,14.92.83,3.56.27,5.79,1.67,6.63,4.17.41,1.22,1.73,1.87,2.95,1.46,1.22-.41,1.87-1.73,1.46-2.95-1.45-4.31-5.25-6.91-10.69-7.32-5.02-.38-10.12-.61-15.05-.84-2.5-.11-5-.23-7.5-.36l-28.95-1.55c-1.1-.06-2.31-.19-3.58-.32-4.8-.5-10.23-1.06-14.45,1.11-5.94,3.06-6.86,8.65-7.67,13.59l-3.32,19.82-17.04,101.51c-.88,5.25-.3,9.14,1.79,11.89.46.6,1.15.92,1.86.92Z"/>
        <path class="cls-1" d="m433.03,233.07c.12,0,.23,0,.35-.03l8.47-1.29c1.27-.19,2.15-1.38,1.95-2.65-.19-1.27-1.39-2.14-2.65-1.95l-8.47,1.29c-1.27.19-2.15,1.38-1.95,2.65.17,1.15,1.17,1.98,2.3,1.98Z"/>
        <path class="cls-1" d="m448.72,222.72c.37,0,.75-.09,1.11-.28,1.13-.61,1.55-2.03.94-3.15-1.5-2.77-3.65-5.18-6.23-6.99-1.05-.74-2.51-.49-3.24.57-.74,1.05-.49,2.5.57,3.24,1.99,1.4,3.65,3.27,4.81,5.4.42.78,1.22,1.22,2.05,1.22Z"/>
        <path class="cls-1" d="m457.89,218.58c.05,0,.1,0,.15,0,1.28-.08,2.25-1.19,2.17-2.47l-.63-9.64c-.08-1.28-1.18-2.26-2.47-2.17-1.28.08-2.25,1.19-2.17,2.47l.63,9.64c.08,1.23,1.1,2.18,2.32,2.18Z"/>
        <path class="cls-1" d="m510.73,375.85c.71,0,1.41-.32,1.86-.93,1.2-1.59,1.98-3.42,2.31-5.44l14.9-88.76c.72-4.3,1.51-8.6,2.31-12.91,1.57-8.54,3.19-17.38,4.25-26.13.28-2.36.11-4.49-.52-6.35-.41-1.22-1.72-1.87-2.95-1.46-1.22.41-1.87,1.73-1.46,2.95.4,1.19.51,2.64.31,4.31-1.04,8.61-2.65,17.37-4.2,25.84-.8,4.33-1.59,8.66-2.32,12.98l-14.9,88.76c-.21,1.28-.7,2.43-1.45,3.42-.77,1.03-.57,2.49.46,3.26.42.31.91.47,1.4.47Z"/>
        <path class="cls-1" d="m520.37,386.45c.71,0,1.41-.32,1.86-.93,1.2-1.6,1.98-3.43,2.31-5.44l14.89-88.76c.72-4.28,1.51-8.57,2.3-12.87,1.57-8.56,3.2-17.41,4.25-26.17l.03-.27c.27-2.23.58-4.76-.89-6.73-3.2-4.29-11.84-13.51-12.21-13.9-.88-.94-2.35-.98-3.29-.11-.94.88-.98,2.35-.11,3.29.09.09,8.83,9.42,11.87,13.5.35.47.14,2.22,0,3.38l-.03.28c-1.04,8.62-2.65,17.4-4.21,25.89-.79,4.32-1.59,8.63-2.31,12.94l-14.89,88.76c-.21,1.27-.7,2.42-1.45,3.42-.77,1.03-.56,2.49.47,3.26.42.31.91.47,1.39.47Z"/>
        <path class="cls-1" d="m508.19,390.89c1,0,2,0,3-.03,4.45-.08,8.58-2.08,11.04-5.35.77-1.03.56-2.49-.47-3.26-1.03-.77-2.48-.56-3.26.47-1.6,2.13-4.37,3.44-7.4,3.49-10.42.17-21.23-.65-31.67-1.45-5.22-.4-10.61-.81-15.88-1.09-1.85-.1-3.72-.15-5.61-.19-3.65-.09-7.43-.18-10.95-.68-2.08-.3-3.23-1.28-4.56-2.43-.98-.84-2.14-2.02-3.31-3.27,3.02.29,6.09.37,9.07.44,1.84.05,3.67.09,5.47.19,5.21.28,10.58.69,15.77,1.09,10.55.81,21.45,1.64,32.11,1.46,4.45-.08,8.58-2.07,11.04-5.35.77-1.03.56-2.49-.46-3.26-1.03-.77-2.49-.57-3.26.46-1.6,2.13-4.37,3.44-7.39,3.49-10.42.17-21.23-.65-31.68-1.45-5.21-.4-10.61-.81-15.87-1.09-1.84-.1-3.72-.15-5.6-.19-3.65-.09-7.43-.19-10.96-.68-1.87-.26-3.21-.88-4.09-1.89-.15-.19-.24-.29-.24-.3-.8-.99-2.24-1.16-3.25-.38-1,.78-1.19,2.23-.42,3.24.11.14.23.29.34.42,1.29,1.58,6.31,7.67,9.63,10.52,1.64,1.41,3.59,3.09,7.02,3.57,3.79.54,7.7.63,11.49.73,1.84.05,3.67.09,5.48.19,5.21.28,10.58.69,15.77,1.09,9.56.73,19.41,1.49,29.11,1.49Z"/>
        <path class="cls-1" d="m512.75,358.31c1.23,0,2.26-.96,2.32-2.2.07-1.28-.92-2.38-2.2-2.45l-80.32-4.29c-1.26-.07-2.38.92-2.45,2.2-.07,1.28.92,2.38,2.2,2.45l80.32,4.29s.08,0,.13,0Z"/>
        <path class="cls-1" d="m530.55,252.25c1.23,0,2.26-.96,2.32-2.2.07-1.28-.92-2.38-2.2-2.45l-80.32-4.29c-1.27-.04-2.38.91-2.45,2.2-.07,1.28.92,2.38,2.2,2.45l80.32,4.29s.08,0,.13,0Z"/>
        <path class="cls-1" d="m468.13,371.05c-4.09-.28-5.76-3.09-5.6-5.75.2-3.23,3.05-6.57,7.33-6.34h0c3.25.17,4.59,1.91,5.1,2.94.92,1.83.69,4.16-.6,6.1-1.3,1.95-3.41,3.07-5.73,3.07-.17,0-.33,0-.5-.02Zm1.58-9.3c-2.48-.16-4.28,1.83-4.39,3.72-.1,1.63.99,2.65,3,2.79,2.17.15,3.32-1.22,3.71-1.81.72-1.09.89-2.38.43-3.3-.53-1.06-1.79-1.35-2.76-1.4h0Z"/>
        <path class="cls-1" d="m449.48,386.75c.25,0,.5-.07.73-.21.66-.41.86-1.27.46-1.92-1.89-3.07-4.03-6.04-6.36-8.81-.5-.59-1.38-.67-1.97-.17-.59.49-.67,1.38-.17,1.97,2.24,2.67,4.3,5.53,6.12,8.49.26.43.72.66,1.19.66Z"/>
        <path class="cls-1" d="m455.15,385.96c.35,0,.7-.13.97-.39.55-.54.57-1.42.03-1.97-2.3-2.36-4.32-5-6.01-7.84-.39-.66-1.25-.88-1.91-.49-.66.39-.88,1.25-.49,1.91,1.8,3.03,3.96,5.84,6.41,8.36.27.28.64.42,1,.42Z"/>
        <path class="cls-1" d="m461.46,386.97c.25,0,.51-.07.74-.21.65-.41.85-1.27.44-1.93l-5.95-9.44c-.41-.65-1.28-.85-1.93-.44-.65.41-.85,1.27-.44,1.93l5.95,9.44c.27.42.72.65,1.18.65Z"/>
        <path class="cls-1" d="m468.97,386.61c.23,0,.47-.06.68-.18.67-.38.91-1.23.53-1.9l-4.52-8.05c-.38-.67-1.23-.91-1.9-.53-.67.38-.91,1.23-.53,1.9l4.52,8.05c.26.46.73.71,1.22.71Z"/>
        <path class="cls-1" d="m475.96,387.61c.25,0,.51-.07.74-.21.65-.41.85-1.27.44-1.93l-5.36-8.53c-.41-.65-1.27-.85-1.93-.44-.65.41-.85,1.27-.44,1.93l5.36,8.53c.27.42.72.65,1.18.65Z"/>
        <path class="cls-1" d="m483.37,387.81c.26,0,.52-.07.76-.22.65-.42.83-1.29.41-1.93l-5.22-8.05c-.42-.65-1.28-.83-1.93-.41-.65.42-.83,1.28-.41,1.93l5.21,8.05c.27.41.72.64,1.17.64Z"/>
        <path class="cls-1" d="m491.58,389.25c.26,0,.52-.07.75-.22.65-.42.83-1.28.42-1.93l-5.96-9.25c-.42-.65-1.28-.83-1.93-.42-.65.42-.83,1.28-.42,1.93l5.96,9.25c.27.41.72.64,1.18.64Z"/>
        <path class="cls-1" d="m498.08,389.27c.26,0,.52-.07.75-.22.65-.42.83-1.28.42-1.93l-5.25-8.14c-.41-.65-1.28-.84-1.93-.42-.65.42-.83,1.28-.42,1.93l5.25,8.14c.27.41.72.64,1.17.64Z"/>
        <path class="cls-1" d="m506.65,389.46c.27,0,.55-.08.79-.25.64-.44.8-1.31.36-1.94l-6.35-9.23c-.44-.64-1.31-.8-1.94-.36-.64.44-.8,1.31-.36,1.94l6.35,9.23c.27.39.71.61,1.15.61Z"/>
        <path class="cls-1" d="m513.99,389.21c.26,0,.52-.07.76-.23.65-.42.83-1.29.41-1.93l-7.45-11.47c-.42-.65-1.28-.83-1.93-.41-.65.42-.83,1.29-.41,1.93l7.45,11.47c.27.41.71.64,1.17.64Z"/>
        <path class="cls-1" d="m519.62,385.94c.27,0,.54-.08.78-.24.64-.43.81-1.3.37-1.94l-8.68-12.81c-.43-.64-1.3-.8-1.94-.37-.64.43-.81,1.3-.37,1.94l8.68,12.81c.27.4.71.61,1.16.61Z"/>
        <path class="cls-1" d="m521.92,378.37c.26,0,.52-.07.76-.22.65-.42.83-1.28.41-1.93l-7.82-12.1c-.42-.65-1.28-.83-1.93-.41-.65.42-.83,1.28-.41,1.93l7.82,12.1c.27.41.72.64,1.17.64Z"/>
        <path class="cls-1" d="m523.61,367.5c.29,0,.59-.09.84-.28.62-.46.74-1.34.28-1.95l-8.44-11.25c-.46-.62-1.34-.75-1.95-.28-.62.46-.74,1.34-.28,1.95l8.44,11.25c.27.37.69.56,1.12.56Z"/>
        <path class="cls-1" d="m524.62,357.63c.29,0,.59-.09.84-.29.61-.47.73-1.34.27-1.96l-7.76-10.21c-.47-.61-1.34-.73-1.96-.27-.61.47-.73,1.34-.27,1.96l7.76,10.21c.27.36.69.55,1.11.55Z"/>
        <path class="cls-1" d="m526.17,349.88c.32,0,.65-.11.91-.34.59-.5.65-1.39.15-1.97l-7.79-9.04c-.51-.59-1.39-.65-1.97-.15-.59.5-.65,1.39-.15,1.97l7.79,9.04c.28.32.67.49,1.06.49Z"/>
        <path class="cls-1" d="m528.01,341.19c.26,0,.52-.07.76-.22.65-.42.83-1.28.41-1.93l-7.02-10.86c-.42-.65-1.28-.83-1.93-.41-.65.42-.83,1.28-.41,1.93l7.02,10.86c.27.41.72.64,1.17.64Z"/>
        <path class="cls-1" d="m528.83,331.77c.32,0,.64-.11.91-.33.59-.5.65-1.38.15-1.97-2.98-3.49-5.67-7.28-7.99-11.25-.39-.67-1.24-.89-1.91-.5-.67.39-.89,1.24-.5,1.91,2.4,4.12,5.19,8.04,8.28,11.66.28.32.67.49,1.06.49Z"/>
        <path class="cls-1" d="m530.73,323.15c.29,0,.57-.09.82-.27.62-.45.76-1.33.31-1.95l-7.74-10.61c-.46-.63-1.33-.76-1.95-.31-.62.45-.76,1.33-.31,1.95l7.74,10.61c.27.38.7.57,1.13.57Z"/>
        <path class="cls-1" d="m531.66,314.03c.33,0,.66-.12.93-.35.58-.51.63-1.39.12-1.97-2.47-2.79-4.52-5.93-6.08-9.32-.33-.7-1.16-1.01-1.85-.69-.7.32-1.01,1.15-.69,1.85,1.67,3.64,3.87,7,6.52,10,.28.31.66.47,1.05.47Z"/>
        <path class="cls-1" d="m534.64,304.49c.29,0,.59-.09.84-.28.62-.47.74-1.34.27-1.96l-7.64-10.11c-.46-.62-1.34-.74-1.96-.27-.61.47-.74,1.34-.27,1.96l7.64,10.11c.27.36.69.55,1.12.55Z"/>
        <path class="cls-1" d="m534.9,294.2c.26,0,.52-.07.76-.22.65-.42.83-1.28.41-1.93-2.27-3.52-4.34-7.23-6.13-11.01-.33-.7-1.16-.99-1.86-.67-.7.33-1,1.16-.67,1.86,1.84,3.9,3.96,7.71,6.31,11.33.27.41.72.64,1.17.64Z"/>
        <path class="cls-1" d="m537.12,284.48c.27,0,.53-.08.77-.23.64-.43.82-1.29.39-1.93l-6.68-10.05c-.43-.64-1.29-.82-1.94-.39-.64.43-.82,1.29-.39,1.94l6.68,10.05c.27.41.71.62,1.16.62Z"/>
        <path class="cls-1" d="m539.97,275.47c.33,0,.66-.11.92-.35.58-.51.64-1.39.13-1.97-3.17-3.62-5.79-7.69-7.77-12.08-.32-.7-1.15-1.01-1.85-.7-.7.32-1.02,1.14-.7,1.85,2.09,4.65,4.86,8.95,8.21,12.77.27.31.66.48,1.05.48Z"/>
        <path class="cls-1" d="m541.64,265.98c.18,0,.36-.03.53-.1.61-.25.96-.9.84-1.55l-.08-.45c-.08-.46-.37-.82-.76-1.01-2.43-3.61-4.88-7.21-7.35-10.8-.43-.63-1.3-.8-1.94-.36-.64.43-.8,1.3-.36,1.94,2.67,3.9,5.32,7.8,7.96,11.72.27.39.71.62,1.16.62Z"/>
        <path class="cls-1" d="m541.99,256.54c.24,0,.48-.06.7-.19.67-.39.89-1.24.5-1.91-1.95-3.33-4.29-6.43-6.95-9.21-.53-.56-1.42-.58-1.97-.04-.56.53-.57,1.42-.04,1.97,2.51,2.62,4.72,5.54,6.55,8.68.26.45.73.69,1.21.69Z"/>
      </g>
    </g>
  </g>
</svg>