<?xml version="1.0" encoding="utf-8"?>
<!-- Generator: Adobe Illustrator 28.1.0, SVG Export Plug-In . SVG Version: 6.00 Build 0)  -->
<svg version="1.1" id="Livello_2_00000152973796408220289860000006449300089673109410_"
	 xmlns="http://www.w3.org/2000/svg" xmlns:xlink="http://www.w3.org/1999/xlink" x="0px" y="0px" viewBox="0 0 1096 1944.2"
	 style="enable-background:new 0 0 1096 1944.2;" xml:space="preserve">
<style type="text/css">
	.st0{clip-path:url(#SVGID_00000078740694158914109900000016232324645021854871_);}
	.st1{fill:#FFADAD;}
	.st2{fill:#E0A0A0;}
	.st3{fill:#E5BD93;}
	.st4{fill:#FFD6A5;}
</style>
<g id="Livello_1-2">
	<g>
		<defs>
			<rect id="SVGID_1_" y="0" width="1096" height="1944.2"/>
		</defs>
		<clipPath id="SVGID_00000028285308578850501820000013302629677444448387_">
			<use xlink:href="#SVGID_1_"  style="overflow:visible;"/>
		</clipPath>
		<g style="clip-path:url(#SVGID_00000028285308578850501820000013302629677444448387_);">
			<g>
				<rect x="-29.7" y="-25.4" class="st1" width="1152" height="2008"/>
				<path class="st2" d="M-88.3,416.5c9.7-31,3.3-64.1,15.4-96.7c16.9-45.4,42.8-85.2,67.1-127.2c47.6-82,97.6-190.6,172.8-250.2
					c79.2-62.8,201.9-109.8,300.9-123.3c97.1-13.2,221.2-47.8,309.8,13.3c21.6,14.9,34.7,37.5,55,53.1c19.1,14.7,43,24.4,62.3,38.2
					c42.3,30.1,63,64.9,84.7,111.4c20.4,44,51.3,81.6,71.5,125.9c21.9,48.1,36.1,100.4,54.3,149.8c42.5,115.7,63.5,245.3,54.4,368
					c-5.4,72.2-2.8,142.5,0,214.7c2.8,74.7,32.5,144.9,46.7,217.7c30.5,156.2,4,320.1-70.3,460c-30.3,57.1-80.7,89.8-134.2,125.7
					c-25.8,17.3-51.6,32.6-76.8,50.8c-22.4,16.2-41.3,39.1-64.1,53.8c-43.9,28.4-104.3,41.3-152.7,60.4
					c-58.6,23.2-115,28.3-177.3,18.5c-54-8.6-108.3-15.6-162.4-24c-30.4-4.8-61.8,4.7-91-7.8c-24.4-10.4-42.5-33.6-61-51.9
					c-49.3-48.9-88.3-107.2-139.9-153.1c-60.4-53.8-117.6-98.9-149.4-176c-34.7-84.1-54.6-172.7-57.8-263.8
					c-3.3-94.2,10.1-188.7,10.1-283.3c0-84.4-3.4-165.5,0-250c1.2-30.1,44.4-185.7-2.7-199.9c-19.2-5.7-45.9,62.3-52.3,75.7
					c-18.9,39.4-31.2,77.3-35.8,121.4c-11.4,110.9-12.8,223.9-23.9,334.8c-14.9,148.6-12.4,301.7-10.6,451.2
					c1.4,118,23.1,236.9,32.8,355c6.6,80.5,11.4,189.1,98.6,223.4c36.6,14.4,77.4,8.5,117.4,8.3c57.9-0.2,116.1-1.8,174.1-2.9
					c133.1-2.6,264.7,5.9,397.5,5.6c116.4-0.3,231.5-2.7,347.7-2.7c69,0,136.3,1,205-5.5c42-3.9,76,1.8,96.2-39.8
					c20.8-42.7,19.5-96.1,24.2-142.5c6.8-66.9,3.3-133,2.1-199.6c-1.4-73.2-5.9-147.6-7.9-220.1c-2.3-86.2-19.6-176.1-15.5-262.2
					c-1.3-85.9-8.2-172.9-8-259.4c-3.6-280,2-571.2,23.3-853.5c3.9-52,10.4-102.8,11.6-154.6c0.6-26.3,15.9-90.2-12.2-112.1
					c-19.8-15.4-65-6.8-92.7-6.8c-48.6,0-96.9,1-145-2.5c-63.2-4.7-127.5-10.3-190.6-11.3c-60.9-1-122.5-1.6-183.3-4.8
					c-9.8-0.5-18.1,0.2-27.6-2.8c-141.3,1.5-287.8-12.6-428.9-5.2c-49.3,2.6-99.5,7.8-149.3,10.7c-21.8,1.2-47-0.9-66.9,9.6
					C-88-198.2-85-152.2-85.7-109.3c-1.4,93-17.9,193.4-32.1,284.5c-11.8,75.6-40.1,176.4-31.5,256.5c7.6-8.3,35.9-18.3,36.9-17.9"
					/>
			</g>
		</g>
	</g>
</g>
<g id="Livello_1-2_00000077287343475109561160000001190558425325928586_">
	<g>
		<path class="st3" d="M56.4,513.4c4,93-2.6,184.7-0.8,278c1.8,95.7,5.5,190.5,7.3,285.6c1,51.2-2.1,102.1-5.2,152.8
			c-2.9,48.1,1.2,96.5,0.7,144.1c-1.1,94.1-4.6,188.4-2.8,282.1c3.6,0.3,7.3,0.6,11,0.8c8.4,0.6,16.9,0.3,25.3,0.6
			c19.5,0.6,39,2,58.4,4.2c19.6,2.2,39,5.5,58.8,6.6c19,1.1,38.1,0.7,57.1-0.6c19.4-1.3,38.6-3.7,57.9-5.7c19.4-2,38.8-3,58.2-3.5
			c39.3-1.1,78.6,0.2,117.9,1.6c39.4,1.3,78.8,2.8,118.2,2c39-0.7,77.6-4.8,116.3-8.8c59.4-6.2,120-12.6,179.6-6
			c-0.7-3.1-1.1-6.2-1-9.1c0.7-22.7,6-14.1,22.2-22.8c11.8-6.3,11.5,0,15.2-17.2c2.7-12.6-1.5-30.4-3-42.7
			c-8.2-71.7-15-142.9-17.9-215.2c-1.8-45,0.1-89.6,1.1-134.5c0.9-41.4-7-80.4-9.8-121.2c-2.9-41.3,1.1-82.5-0.2-123.7
			c-1.6-54.4-7.6-106.8-3.5-161.3c6.7-89.1,2.2-179.9-6.7-269c-4-39.9-4.1-80.6-8.6-120c-2.2-19.3,5.2-63.6-10.8-77.7
			c-13.9-12.3-39.8-2.3-55.7-2.8c-25.7-0.7-53-7.5-78.3-11c-31.4-4.2-60.7-17.1-92-18.9c-31.5-1.9-67.2,3.7-97.5,10.2
			c-96.7,21-188.8,12.3-286.9,11.2c-44.9-0.5-93,3.4-137.4,8.2c-14.3,1.5-67.6,13.8-64.8-12.6l18-0.3c-11.9-3.6-36.2-4.7-41.8,4.9
			c-1.1,1.9,0.2,23.5-0.5,27.8c-1.7,11-2.9,18.6-2.5,29C53.4,423.4,54.5,468.7,56.4,513.4L56.4,513.4z"/>
		<g>
			<path class="st1" d="M96.5,1157.9c0.2,0.1,0.3,0.2,0.5,0.3c0.4,0.1,0.8,0.1,1.2-0.2c0.3-0.2,0.6-0.5,0.7-0.9
				c0-0.1,0.1-0.2,0.1-0.3c0-0.1,0.1-0.1,0.1-0.2c0,0,0,0,0.1-0.1c0,0,0.1,0,0.1-0.1c0.1,0,0.2-0.1,0.3-0.1c0.2,0,0.4-0.1,0.5-0.3
				c0.2-0.1,0.3-0.2,0.4-0.4c0.1-0.2,0.2-0.4,0.2-0.6c0-0.2,0-0.4,0-0.6c-0.1-0.4-0.3-0.7-0.7-0.9c-0.1,0-0.2-0.1-0.4-0.2
				c-0.3-0.1-0.5-0.1-0.8,0c-0.3,0.1-0.7,0.2-1,0.3c-0.1,0.1-0.2,0.1-0.3,0.2c-0.2,0.1-0.4,0.3-0.5,0.4c-0.5,0.5-0.8,1.2-1,1.9
				c-0.1,0.4,0,0.8,0.2,1.2C96.2,1157.6,96.3,1157.8,96.5,1157.9L96.5,1157.9z"/>
			<path class="st4" d="M1005.5,1613.5c-7.8-2.1-16-2.1-24.1-1.3c-0.1-1.5-0.1-3.1-0.2-4.6c0.5-10.4,0.7-20.8,0.4-31.2
				c-0.2-7.5-1-15-1.7-22.5c0.1-11.4,0.8-22.9,0.8-34.3c0.1-10.4,2.4-21.5-1-31.6c-0.5-1.6-2.9-1.3-3,0.4c-0.3,10.7-0.3,21.3-0.4,32
				c0,0-0.1,0-0.2,0c0-3.9,0-7.8,0.1-11.7c0.1-20-0.2-40-1-60c0.2-2.2,0.3-4.5,0.5-6.7c0.3,4.3,0.7,8.7,1.1,13
				c0.4,4.1,1.2,8.3,1.8,12.5c0.3,5.1,0.6,10.2,1,15.3c0.2,1.9,2.8,1.9,3,0c0.4-4.5-0.2-9-1-13.5c-1.2-21.9-0.8-44-1-65.9
				c-0.1-13.4-0.7-26.7-1.3-40.1c0-0.4,0-0.8-0.1-1.2c0-0.7,0-1.4,0-2.1c0.1-15.8-0.3-31.5-1.3-47.3c0.2-7.9,0.1-15.9-1.9-23.6
				c-0.1-0.6-0.6-0.9-1-1c0.2-9.9,0.2-19.8,0.2-29.7c0.4,3.7,0.8,7.4,1.3,11.1c1,7,2.1,14.1,3,21.1c0,10.8-0.1,21.5-0.3,32.2
				c0,1.7,2.5,2,3,0.4c2.1-6.8,1.9-14.1,1.5-21c-0.2-3.9-0.7-7.8-1.1-11.7c0-20.3-0.2-40.6-0.2-60.9c-0.1-28.4-0.1-56.8,0-85.1
				c0.7-5.2,1.5-10.4,2.3-15.6c1.3-8.3,2.5-16.6,2.6-25c0.1-5.5,0.3-13.6-4.2-17.7c-0.7-0.7-2-0.5-2.4,0.4c0-7.2,0.1-14.4,0.2-21.6
				c0.5-0.3,0.9-0.9,0.7-1.6c-0.2-0.9-0.5-1.8-0.6-2.8c0.1-10.2,0.1-20.5,0-30.7c0-0.6,0-1.2,0-1.9c0.8-11.3,0.8-22.5,0.9-33.8
				c0.2-25.9,0.8-51.8,0.2-77.7c-0.4-16-1.1-32-1.9-48.1c0.5-31.1,0.7-62.2-0.3-93.3c-0.1-3.7-0.3-7.4-0.4-11
				c1.1,6.7,2.4,13.4,3.9,20c0.4,1.6,3.1,1.3,3-0.4c-3.2-39.1-3.6-78.4-3.6-117.7c0-24.4-0.5-48.7-0.9-73c0-2.3,0-4.7-0.1-7
				c0-2.4-0.1-4.8-0.1-7.1c0.3-5.5,0.7-11,1-16.5c1.3-24.8,1.9-49.6,0.1-74.3c-0.1-0.8-0.7-1.4-1.4-1.5c0.1-12.8,0.2-25.7,0.3-38.5
				c0.1-11.4,0.2-22.8,0.3-34.1c0.2-7.5,0.2-15,0.1-22.4c0-1.4,0-2.7,0-4.1c0-0.2,0-0.4-0.1-0.5c-0.2-11.6-0.8-23.3-1.2-35
				c0.5-9,1.2-17.9,1.4-26.9c0.2-9.4,0.1-19.3-2-28.6c0.2,0.1,0.4,0.2,0.6,0.3c0,1.9,3,1.8,3-0.1c0.1-2.2-2-3.3-4.6-3.8
				c-0.3-0.9-0.5-1.8-0.8-2.6c-0.1-0.4-0.4-0.7-0.7-0.8c-0.2-1.1-0.5-2.3-0.8-3.4c-0.5-1.7-2.8-1.2-3,0.4c-0.1,0.7-0.1,1.5-0.2,2.2
				c-0.2-0.1-0.4-0.1-0.6-0.2c-1.7-0.1-3.4-0.2-5.1-0.3c1.2-0.4,2.3-0.8,3.4-1.4c1.4-0.7,0.7-2.8-0.8-2.8c-7.7-0.1-15.2,1-22.7,2.6
				c-0.9,0-1.7-0.1-2.6-0.1c-10.4-0.4-20.9-0.9-31.3-0.4c-7.8,0.3-15.6,1.4-23.3,2.7c-5.7-0.6-11.3-1.1-17-1.2
				c-4.4-0.1-8.8-0.1-13.2,0.3c-0.2,0-0.4,0-0.6,0c-7.5,0.1-15,0.9-22,3.7c-5.4,0.2-10.7,0.3-16.1,0.3c0.2-0.7,0-1.6-1-1.8
				c-4.7-1-9.5-1.5-14.3-1.7c-15.1-1.4-30.3-1.7-45.4-0.4c-6.4-0.1-12.9-0.1-19.3-0.2c-8.2-2-16.3-4.3-24.6-5.8
				c-12.3-2.2-25-2.7-37.5-2.9c-2.3,0-4.6-0.1-6.8-0.1c-13.1-5.1-27.7-3.2-41.7-1.3c-3-0.3-6-0.6-9-1.1c-6.5-1-13-0.6-19.6-0.5
				c-8.4,0.1-16.8,0.2-25.2,0.2c-11.3-1-22.7-2-34.1-3c-0.4,0-0.7-0.1-1.1-0.1c0.4-1.8,0.7-3.7,1-5.5c0.2-1.5-1.4-2.5-2.5-1.5
				c-2.1,2-4.1,4.1-5.9,6.4c-4-0.3-8.1-0.6-12.1-0.9c-0.1-0.1-0.3-0.1-0.4-0.1c-0.1,0-0.3,0-0.4-0.1l0,0c0,0,0,0,0,0
				c-3.3-0.5-6.6-0.8-9.9-1c-3-1.4-7.1-1.1-10.2-0.7c-1.1,0.1-2.3,0.3-3.4,0.6c-1.5,0-3,0.1-4.4,0.2c-0.6,0-1.1,0-1.7,0
				c-3.7,0-7.5-0.1-11.2,0.4c-3.3,0.4-6.5,1-9.8,1.5c-1.1,0.2-2.3,0.3-3.6,0.5c-2.4,0-4.8-0.1-7.2-0.1c-0.9,0-1.8-0.1-2.6-0.1
				c-1.8-0.5-3.4-1.2-4.8-2.5c-1.4-1.3-3.5,0.8-2.1,2.1c0,0,0,0,0,0c-2.5-0.1-5-0.2-7.5-0.4c-13.4-0.6-26.5,0-39.9,0.9
				c-5.3,0.4-10.6,0.8-16,1.2c-9.9,0.3-19.8,0.6-29.8,0.9c-2.6,0-5.2,0-7.8,0.2c-16,0.5-31.9,0.8-47.8,0.6
				c-14.7-0.2-29.6-0.9-44.1,1.8c-1.5,0.3-1.3,2.3-0.1,2.8c-8.8,1.1-17.5,2.5-26.3,3.8c-4.9,0.7-9.8,1.2-14.7,1.6
				c-4.9,0-9.8,0.1-14.7,0.3c-4.4,0.2-8.8,0.6-13.2,1c-13.1,0.3-26.2,0.6-39.2,2c-1.6,0.2-1.9,2.1-0.8,2.8
				c-3.6,0.1-7.1,0.2-10.7,0.3h-27.3c-0.1-0.4-0.2-0.8-0.4-1.2c-0.5-1.5-3.1-1.4-2.9,0.4c0,0.3,0.1,0.5,0.1,0.8h-0.1
				c-0.3-4.2-0.6-8.5-0.9-12.7c-0.1-1.6-2.4-2.1-2.9-0.4c-1.4,4.6-2.3,9.4-2.8,14.2c-11.9,0.5-23.8,1.1-35.7,2
				c-1.6,0.1-2.2,2.6-0.4,2.9c11.8,2.2,23.8,2.1,35.7,1.5c-0.6,17.2,2.9,34.9,4.1,51.7c0.4,5.3,0.6,10.7,0.6,16c0,0.4,0,0.8-0.1,1.2
				c-1.4,21.5-5.2,44.1-2.1,65.7c0,2-0.1,4-0.1,6c-0.3,30.6-3.1,61.1-5.3,91.6c-1.9,26.7-2,53.4-3.4,80.1c-1,20-3.4,44.3,5.8,63.1
				c-0.1,6.1-0.2,12.2-0.3,18.4c-0.7,27.1-2.2,54.6-1.2,81.9c-0.3,31.8-3.2,63.6-1.4,95.5c0.6,10,1.4,20,2.4,29.9
				c0.8-2.5,1.5-5.1,2.3-7.6c-0.7-7.4-1.3-14.9-1.7-22.3c-1.3-22.1-0.3-44.3,0.6-66.4c0.4,3.6,0.9,7.3,1.5,10.9
				c0.1,0.7,0.2,1.3,0.3,2c0.2,4.7,0.3,9.3,0.4,14c0,3.3,0.1,6.6,0.7,9.9c-0.5,3.4-0.9,6.7-1.2,10.1c-1.2,13.3-0.7,26.6,0,40
				c0.9-2.9,1.7-5.8,2.6-8.7c-0.3-8.2-0.4-16.4,0-24.7c0.1,4.6,0.3,9.3,0.4,13.9c0.1,2.9,0.2,5.8,0.2,8.7c0.1-0.4,0.2-0.7,0.3-1.1
				c0,0.1,0,0.2-0.1,0.2c-2.1,8.3-4,16.7-5.9,25.2c-0.3,1.4,1.4,2.6,2.5,1.5c3.8-4.2,6.8-9,9.5-13.9c-2.2,6.6-4.6,13.1-7.4,19.5
				c-0.5,1,0.4,2.3,1.3,2.3c-1.2,3.8-2.3,7.7-3.4,11.5c0.2,1.7,0.5,3.5,0.8,5.2c-0.2,4.1-0.5,8.2-0.6,12.3
				c-1.3,31.8-1,63.4,1.2,95.2v7.3c0,9.3-0.7,18.3-1.3,27.6c-0.5,7.7-1.1,16.6,2.9,23.5c0,3.4,0,6.9,0,10.3
				c-0.2,10-0.9,19.9-1.8,29.8c-0.3,0.2-0.6,0.6-0.6,1.2c-0.1,1.4,0,2.8,0.1,4.2c0,0.5-0.1,1-0.2,1.5c-1.2,11.5-2.1,23.1-0.5,34.7
				c0.1,0.6,0.6,0.9,1.2,1c-0.4,4.2-0.4,8.6-0.7,12.6c-0.9,13.6-1,27.2-0.9,40.9c0,1.2,0,2.5,0,3.7c-1.6,17.5-2.9,34.9-3.6,52.4
				c-0.7,16-1,32.1-0.6,48.1c-0.5,9.7-0.9,19.3-1.2,29c-1,30.8-0.6,61.4,0.7,92.1c-0.3,5.2-0.5,10.4-0.5,15.7
				c-0.1,16.8,0.9,33.6,1.9,50.4c1,16.7,1.6,33.6,3.4,50.2c0.8,7.9,2.2,15.8,3,23.8c0.1,4.4,0.2,8.7,0.1,13.1
				c-2.9-0.8-5.9-1.6-8.9-2.3c-1.6-0.3-2.8,2-1.2,2.7c0.1,0.1,0.2,0.1,0.4,0.1l0,0c0,0,0,0,0.1,0c3.1,1.3,6.3,2.1,9.6,2.7
				c0,0.6,0,1.2,0,1.8c-0.3,0-0.7,0.1-1,0.1c-3.8-0.3-7.6-0.8-11.4-0.7c-0.1,0-0.2,0-0.3,0c-0.1,0-0.2,0-0.3,0
				c-1.4,0.1-1.9,1.9-1,2.7c-1.4,0.3-2.8,0.7-4.2,1.1c-1.4,0.4-1.5,2.5,0,2.9c5.9,1.4,12,1.7,18.1,1.5c0,0.6,0,1.3-0.1,1.9
				c-0.1,1.7,2.6,2.1,2.9,0.4c0.2-0.8,0.3-1.6,0.4-2.5c1.5-0.1,3-0.2,4.6-0.3c0.2,4.6,0.7,9.3,1.8,13.8c0.3,1.3,2.7,1.5,2.9,0
				c0.8-4.7,1.1-9.5,1.3-14.3c3.1-0.2,6.2-0.5,9.3-0.6h3.8c11.1,2.8,22.3,4.1,33.7,5c7,0.6,13.9,0.9,20.8,1.1
				c-0.1,0.8,0.4,1.7,1.4,1.7c5.8,0,11.5-0.2,17.2-0.4c0.1,0.1,0.3,0.2,0.5,0.3c28.3,7.2,57.9,2.4,86.6,1.1c0.6,0,1.2-0.1,1.8-0.1
				c11.3,0.3,22.5,0,33.8-0.7c30.2-0.8,60.4-2.1,90.5-2.7c42-0.8,84.2,1.3,126.1-3.1c6-0.6,12.1-1.4,18.1-2.3h30.4
				c3.9,1.9,8.5,2.7,12.6,3.2c7.7,1,15.5,0.9,23.2,1.1c12.8,0.2,25.6,0.3,38.4,0.7c2.4,0.1,4.8,0.2,7.2,0.3c0.3,0.3,0.7,0.6,1.2,0.6
				c2.9,0.1,5.8,0.1,8.7-0.1c6.5,0.4,13,0.8,19.5,1.4c-6.8,1.2-13.4,2.8-19.8,5.3c-1.4,0.6-1.4,2.3,0,2.9c7,2.7,14.4,0.3,21.4-1.1
				c8.4-1.6,17.1-1.6,25.6-2c17.7-0.8,35.3-1.7,52.9-2.6c12.5-0.6,25.1-1.6,37.6-2.6c12.5-0.4,25-0.9,37.4-1.1
				c29.1-0.5,58.1,1.4,87.1,1.6c1.5,0,2-2.1,0.9-2.8c2.2-0.6,4.3-1.2,6.4-1.8c1.9-0.6,3.9-1.2,5.9-1.8c4.3,0,8.5-0.3,12.6-1.4
				c0,0,0,0,0,0h0.8c0,2.8,0,5.5,0,8.3c0,1.9,3,1.9,3,0c0-3,0-6,0.1-9c0.6-0.1,1.1-0.1,1.7-0.1c0,0.2,0.1,0.3,0.2,0.5
				c-0.1,2.6-0.3,5.2-0.4,7.7c-0.1,1.7,2.5,2,3,0.4c0.7-2.9,1.1-5.8,1.3-8.7c0.7,0,1.4,0,2.1,0c1.3,0,1.8-1.6,1.2-2.4
				c7-0.8,14-1.8,20.9-3.1C1007.1,1616.1,1006.9,1613.9,1005.5,1613.5L1005.5,1613.5z M977.7,1410.8c0.1,6.6,0.1,13.2,0.2,19.8
				c0,0,0-0.1,0-0.1c-0.2-3.2-0.5-6.4-0.8-9.6C977.3,1417.5,977.5,1414.1,977.7,1410.8L977.7,1410.8z M982.2,1095.6
				c0.2-1.6,0.4-3.2,0.7-4.7c2.1,4.2,1.6,10.3,1.5,14.3c-0.2,6.9-1.1,13.9-2.1,20.7c-0.3-6.5-0.7-13-0.7-19.5
				C982.9,1102.9,982.8,1099.2,982.2,1095.6L982.2,1095.6z M100.5,296.9c-5.6,0.3-11.2,0.5-16.7,0.3c5.6-0.3,11.2-0.6,16.8-0.8
				C100.6,296.6,100.5,296.7,100.5,296.9L100.5,296.9z M105.1,1078.6c0.1,2.6,0.1,5.1,0.2,7.7C105,1083.8,105,1081.2,105.1,1078.6z
				 M99.2,1433.8c-0.2-9.2-0.4-18.4-0.4-27.7c0.1,9,0.3,17.9,0.4,26.9L99.2,1433.8z M104.9,1621.3c-3.3,0.1-6.7,0.1-10-0.2
				c3-0.6,6-0.9,9.1-1.2c0.3,0,0.7,0.1,1,0.1C104.9,1620.5,104.9,1620.9,104.9,1621.3L104.9,1621.3z M106.9,753.9
				c-0.1,8.1-0.2,16.1-0.1,24.2c-0.1-0.4-0.1-0.9-0.2-1.3c-0.1-19-0.2-38-0.4-57c0.2,3,0.5,6,0.7,9v23.9
				C106.9,753.1,106.9,753.5,106.9,753.9z M106.9,810.1c0,0.4,0,0.8-0.1,1.1c-0.1-4-0.1-8.1-0.1-12.1c0,0.3,0.1,0.7,0.2,1
				c0,2.4,0,4.8,0,7.2C106.9,808.3,106.9,809.2,106.9,810.1z M106.8,622.7c0-0.3,0-0.6,0.1-0.9v1.8
				C106.9,623.3,106.9,623,106.8,622.7L106.8,622.7z M239.3,292.3c3.1-0.4,6.2-0.9,9.4-1.4c0.2,0.7,0.8,1.4,1.8,1.2
				c2.4-0.4,4.8-0.9,7.2-1.2c1.9,0.1,3.8,0.3,5.7,0.5c0.2,0.2,0.5,0.4,0.7,0.5c0.5,0.2,1,0.3,1.5,0.5H239.3L239.3,292.3z
				 M413.2,290.3c1.5,0,3,0,4.4,0c-0.9,0-1.8,0.1-2.7,0.1C414.4,290.4,413.8,290.4,413.2,290.3L413.2,290.3z M431.5,287.4
				c1.3-0.1,2.6-0.3,3.9-0.4c1.3,0,2.7,0.1,4,0.1c1,0.1,2,0.2,3,0.4C438.8,287.4,435.1,287.4,431.5,287.4L431.5,287.4z M535.8,275.7
				c0.8,0.1,1.6,0.1,2.4,0.2c-0.1,0.3-0.1,0.6-0.2,0.9c-1,0-2.1,0-3.1,0.1C535.2,276.5,535.5,276.1,535.8,275.7L535.8,275.7z
				 M900.4,1493.4c2.5-3.7,5.2-7.2,7.9-10.8c-0.5,1.7-1,3.5-1.5,5.2c-3.6,5.9-7.1,11.9-10.6,17.9c1.3-3.3,2.5-6.7,3.5-10
				C899.9,1494.9,900.2,1494.2,900.4,1493.4C900.4,1493.4,900.4,1493.4,900.4,1493.4z M866,1552.9C866,1552.9,866,1552.9,866,1552.9
				c-1.1,1.3-2.2,2.6-3.3,3.9c2.5-6.7,5-13.4,7.8-20.1c0.1-0.3,0.3-0.6,0.4-0.9c1.9-2.9,3.8-5.8,5.6-8.7c-2.8,5.6-5.4,11.2-7.5,17
				C867.8,1547.1,866.8,1550,866,1552.9L866,1552.9z M868.4,1555.4c0.1-0.2,0.1-0.5,0.2-0.7c0.2-0.3,0.4-0.5,0.7-0.8
				C868.9,1554.4,868.6,1554.9,868.4,1555.4L868.4,1555.4z M863.9,1563.7c-0.8,1.5-1.7,3.1-2.5,4.6c-0.9,1.7-2.3,2.4-3.8,2.5
				c0.8-2.3,1.6-4.6,2.4-6.9c1.5-1.4,3-3,4.4-4.5c-0.2,1.3-0.5,2.6-0.6,3.9C863.9,1563.5,863.9,1563.6,863.9,1563.7L863.9,1563.7z
				 M862.4,1549c-1,2.6-2,5.3-3,7.9c-0.6,1.7-1.3,3.5-1.9,5.2c-1.1,1-2.2,2-3.3,2.9C856.4,1559.5,859.3,1554.2,862.4,1549
				L862.4,1549z M878.2,1518.5c1.2-2.6,2.3-5.1,3.5-7.7c2.3-4.1,4.7-8.1,7-12.1c-2.5,4.8-4.9,9.6-7.4,14.3
				C880.3,1514.9,879.2,1516.7,878.2,1518.5z M857.1,1398.8c-6.5,0-6.4-10,0-10S863.6,1398.8,857.1,1398.8z M853.8,1569.3
				c0.6-0.4,1.1-0.9,1.7-1.3c-0.2,0.7-0.5,1.4-0.7,2.1C854.4,1569.8,854.1,1569.6,853.8,1569.3L853.8,1569.3z M889.7,1513.4
				c-5.1,11.4-11.2,22.4-18.4,32.6c2.2-5.9,4.9-11.6,7.7-17.1c4.5-9,9.6-17.7,15.1-26.1C892.8,1506.3,891.3,1509.9,889.7,1513.4z
				 M888,1506.8c-0.1,0.1-0.1,0.2-0.2,0.3c3.9-7.5,7.6-15,11.8-22.4c-0.6,2.5-1.2,4.9-1.9,7.4C894.3,1496.9,891.1,1501.8,888,1506.8
				L888,1506.8z M156.8,1303c6.1-12.2,12.1-24.4,18.1-36.7c0.6,0.2,1.3,0,1.7-0.6c6.2-10.4,11.5-21.2,16.3-32.2
				c0.3-0.5,0.6-1.1,1-1.6c-2,4.4-4,8.8-6,13.2c-5.7,12.7-11,25.6-17.3,38c-4,7.8-8.4,15.9-13.8,23
				C156.8,1305,156.8,1304,156.8,1303L156.8,1303z M194.3,331.2C194.3,331.2,194.3,331.1,194.3,331.2c0.5,0,0.9,0.1,1.4,0.3
				c0.4,0.2,0.7,0.4,1,0.6c-3.6,5.1-7.2,10.2-10.6,15.4c0.9-2.4,1.8-4.9,2.4-7.4c0.1-0.2,0.1-0.5,0.2-0.8
				C190.2,336.5,192.1,333.7,194.3,331.2L194.3,331.2z M201.5,452.4c-19.9,45.6-45.1,89.7-55.5,138.8c-0.5,2.3-2.1,3.4-3.9,3.6
				c2.2-6.1,3.9-12.3,5.6-18.3c2.6-9.3,5.4-18.5,8.3-27.6c1.1-3.1,2.1-6.3,3.2-9.5c0.1-0.3,0.2-0.6,0.3-0.9
				c5.9-13,11.1-26.3,16.1-39.7c5.2-13.9,10.3-27.8,15.5-41.6c0.6-1.3,1.2-2.6,1.8-3.9c0.4-0.8,0.7-1.6,1.1-2.5
				c0.6,0.9,2.3,1,2.8-0.4c0.6-1.7,1.2-3.4,1.8-5.1C200.9,446.1,202.9,449.1,201.5,452.4L201.5,452.4z M757.3,339.9
				c0.1,0.5,0.2,0.9,0.2,1.4c-4.2,5.8-7.7,12.1-10.8,18.5c-1,2.1-2,4.1-3,6.2c0.9-4.3,1.7-8.7,2.2-13.1c0.5-1.7,1-3.5,1.4-5.2
				C750.3,344.7,753.5,341.9,757.3,339.9L757.3,339.9z M893.5,506.4c-1.1,1.5-2.2,3-3.3,4.5c1.1-3.3,2.2-6.5,3.3-9.8
				C894.6,502.5,894.9,504.4,893.5,506.4L893.5,506.4z M130.3,813.7c0.6-1.5,1.2-2.9,1.8-4.3c-0.6,2.9-1.1,5.8-1.6,8.8
				c-0.4,0.5-0.8,1-1.1,1.4C129.6,817.6,129.9,815.7,130.3,813.7L130.3,813.7z M487.5,405.6c-0.4,0.8-0.8,1.5-1.2,2.2
				c-3.7,6.6-8,12.8-13.3,18.2c-1.1-0.7-2-1.8-2.4-3c0.3-1.1,0.6-2.2,0.9-3.4c2.8-5.3,5.7-10.4,8.7-15.6c4.8-8.4,9.8-16.7,13.5-25.7
				c4.4-10.6,8.3-21.3,12.2-32c1.5-2.1,3.1-4.2,4.6-6.3c-0.7,2.7-1.4,5.3-2.2,8c-2.9,10.6-6,21.2-9.6,31.6
				C495,388.4,491.2,397,487.5,405.6L487.5,405.6z M493.7,370.4c-0.3,0.8-0.6,1.6-1,2.5c-1.9,4.7-3.9,9.4-6.2,13.9
				c-2.1,4-4.4,8-6.7,12c1-2,1.9-4,2.9-6C486.5,385.3,490.2,377.9,493.7,370.4z M512.2,329.9c1.3-3.3,2.6-6.6,3.9-9.9
				c-0.7,2.3-1.3,4.5-1.9,6.8C513.5,327.9,512.8,328.9,512.2,329.9L512.2,329.9z M863.4,319c0.4-0.4,0.8-0.8,1.2-1.2
				c0.1-0.1,0.2-0.2,0.3-0.3c0.1,0,0.2-0.1,0.3-0.1c0.1,2.6,0.2,5.1,0.2,7.7c-1.6,2.8-3.1,5.5-4.6,8.3c-0.1-1.3-0.2-2.7-0.3-4
				c0-0.5-0.4-1-0.8-1.2c0.7-2,1.3-3.9,2-5.9C862.2,321.2,862.8,320.1,863.4,319L863.4,319z M881.2,506.3c-0.8,1.9-1.6,3.8-2.4,5.7
				c0.2-1.1,0.4-2.2,0.6-3.4C880,507.8,880.6,507,881.2,506.3z M890.5,499.4c-2,6.6-4.2,13.2-6.5,19.7c0,0.2-0.1,0.3-0.2,0.4
				c-1,1.4-2,2.9-3.1,4.3c2.9-8.1,5.5-16.3,7.5-24.6C889,499.1,889.8,499.2,890.5,499.4L890.5,499.4z M855.4,633
				c2.9-5,5.7-10,8.4-15.1c-1.8,4-3.7,7.9-5.6,11.8c-9.5,19.2-19.4,38.2-29.3,57.2c-3.3,6.3-6.5,12.6-9.8,18.9
				c0.9-2.6,1.8-5.2,2.8-7.7c8.6-16.2,16.7-32.7,24.5-49.3c0-0.1,0.1-0.2,0.1-0.2C849.5,643.3,852.4,638.2,855.4,633z M923.4,1008.4
				c-3,6.8-6.1,13.5-9.2,20.3c3.2-8.5,6-17.3,8.1-26.2C923.8,1003.9,924.5,1006.1,923.4,1008.4L923.4,1008.4z M542.5,1545.7
				c-0.9,1.6-1.9,3.1-3,4.5c2.2-9.3,4.3-18.7,6.3-28.1c1.3-2.5,2.5-5.1,3.7-7.6c0,0.2,0,0.4,0,0.7c-0.1,6.5-0.8,13-2.4,19.2
				C545.6,1538.2,544,1541.9,542.5,1545.7L542.5,1545.7z M368.8,1461.3c8.5-16.8,16.9-33.6,25.3-50.4c-1,2.9-2.1,5.9-3.2,8.8
				c-4.8,10.7-9.7,21.2-15.1,31.7c-2.4,4.8-4.8,9.5-7.2,14.3C368.1,1464.4,368,1462.9,368.8,1461.3z M208.3,607.6
				c5.8-13.4,11.2-26.9,16.5-40.5c3.9-9.5,7.9-19,11.9-28.4c-2.7,7.5-5.3,15-8,22.6c-13.6,32-26.6,64.3-38.9,96.9
				c3.7-11,7.6-21.9,11.4-32.9C203.5,619.4,205.9,613.5,208.3,607.6L208.3,607.6z M238.5,533.6c-0.1-0.3-0.2-0.5-0.4-0.7
				c0.8-1.9,1.7-3.8,2.5-5.8c0.4-0.9,0.8-1.8,1.2-2.7C240.7,527.4,239.6,530.5,238.5,533.6L238.5,533.6z M608,366
				c-3.9,7.9-7.7,15.8-11.6,23.7c1.5-4.8,3.1-9.6,4.6-14.4c3-4.9,6.1-9.8,9.2-14.7C609.5,362.4,608.7,364.2,608,366z M862.4,336.6
				c-0.5,1.7-1.1,3.4-1.6,5.1c0,0,0,0.1,0,0.1c0-0.7,0-1.5,0.1-2.2C861.4,338.7,861.9,337.6,862.4,336.6L862.4,336.6z M803.7,724.5
				c-1.7,3.5-3.2,7.2-4,11c-1.5-1-2.4-2.8-1.5-5.1c0.1-0.1,0.1-0.3,0.2-0.4C800.3,728.3,802,726.5,803.7,724.5L803.7,724.5z
				 M372.7,1468.8c-0.6-0.1-1.3-0.4-1.9-0.7c1.6-3.3,3.2-6.6,4.9-9.8c1.2-2.4,2.5-4.8,3.7-7.2c-1.1,2.9-2.1,5.8-3.2,8.7
				C375,1462.8,373.9,1465.8,372.7,1468.8L372.7,1468.8z M392.6,1423.9c5.5-12.6,10.5-25.5,15.7-38.2c2.7-6.6,5.3-13.2,8-19.8
				c7-14.3,14-28.7,20.9-43.1c-4.6,13.5-9.4,27-14.4,40.4c-1.4,3.8-2.8,7.5-4.2,11.2c-2.5,5.2-5.1,10.5-7.6,15.7
				c-3,6.2-6.1,12.3-9.1,18.5c-0.5,0.4-0.7,1-0.6,1.6c0.3,1.1,1.4,2.5,2.5,3.4c-0.1,0.3-0.2,0.5-0.3,0.8
				c-8.6,17.3-17.3,34.6-26,51.9c-0.3,0.7-0.8,1.2-1.2,1.6C381.9,1453.3,387.3,1438.6,392.6,1423.9L392.6,1423.9z M354.1,583.2
				c0,0.1-0.1,0.1-0.1,0.2c0.2-1.7,0.3-3.5,0.4-5.2c7.7-18.2,15.6-36.3,23.7-54.3c-4.6,11.4-9.1,22.8-13.5,34.2
				C361,566.5,357.5,574.8,354.1,583.2L354.1,583.2z M324.3,660.7c-7.5,16.9-14.8,33.8-22.2,50.7c-0.7,1.1-1.4,2.3-2,3.4
				c2.4-6.2,4.8-12.5,7.2-18.8c6.6-15.1,13.2-30.2,19.9-45.3c0.9-1.8,1.9-3.7,2.8-5.5c-0.5,1.5-1.1,2.9-1.6,4.4
				C327,653.4,325.7,657.1,324.3,660.7L324.3,660.7z M729.7,393.7c-3.7,9.4-7.7,18.6-11.7,27.8c-2.2,4.5-4.5,9-6.7,13.5
				c0.9-4.1,1.8-8.1,2.5-12.2c2.4-6.5,4.9-12.9,7.5-19.4c4.2-10.3,8.4-20.6,12.5-31C732.3,379.5,731,386.6,729.7,393.7z M774,525.2
				c0.1-0.7,0.1-0.6,0.2-1.3c0.2-1.4,0.5-2.8,0.7-4.1c1.4-2.4,2.8-4.8,4.2-7.2c0.8-1.1,1.6-2.3,2.3-3.4c0,0.9,0,1.7,0.1,2.5
				c-2.2,5.2-4.4,10.3-6.5,15.5c-0.4,0.6-0.8,1.2-1.3,1.8c0-0.8,0.1-1.5,0.1-2.3C773.9,526.2,774,525.7,774,525.2L774,525.2z
				 M861.4,349.7c1.1-3.5,2.2-7,3.4-10.5c-0.1,1.2-0.2,2.5-0.3,3.7c-0.1,1-0.2,1.9-0.3,2.9c-1.8,5.2-3.7,10.4-5.6,15.6
				c0.3-1.9,0.7-3.9,0.9-5.8C860.1,353.6,860.7,351.7,861.4,349.7z M916.6,541c-0.5,0.9-1.1,1.8-1.6,2.7c1.4-6,3.3-11.9,5.4-17.6
				c1-2.7,2-5.3,3-8c-1.2,4.5-2.4,8.9-3.7,13.3C918.7,534.6,917.7,537.8,916.6,541L916.6,541z M754.1,1364.8c2-4.6,4-9.3,6-13.9
				c7.7-14.2,15.3-28.4,22.9-42.7c-3.8,9.5-7.7,18.9-11.8,28.3c-4.6,9.6-9.2,19.3-13.9,28.9c-0.4,0.6-0.7,1.2-1,1.8
				c0.1-0.3,0.2-0.6,0.3-0.9C757.1,1364.7,755.1,1363.9,754.1,1364.8z M552.9,1528.1c2.9-7.1,5.9-14.1,8.9-21.1
				c-0.3,1.8-0.7,3.6-1.1,5.4C558.1,1517.7,555.5,1522.9,552.9,1528.1z M580.2,1193c0.9-1.3,1.8-2.5,2.7-3.8c0.7,0.1,1.4-0.2,1.7-1
				c0.4-1,0.8-1.9,1.2-2.9c6.7-9.3,12.9-19,19.2-28.7c-6.7,13-13.6,25.9-20.8,38.7c-1.4,2.4-2.7,4.8-4.1,7.2
				c-3.1,4.9-6.3,9.8-9.4,14.6c2.3-5.8,4.6-11.5,7-17.3C578.4,1197.6,579.3,1195.3,580.2,1193L580.2,1193z M339.1,925.1
				c-1.2,2-2.3,3.9-3.5,5.9c6.2-12.9,11.9-25.9,16.8-39.4c0.4-1-0.6-1.9-1.6-1.9c2.3-5.8,4.6-11.7,7-17.5c1.6-4,3.3-7.9,4.9-11.8
				c0,0.5,0.3,1,0.7,1.4c-1.2,2.1-2.5,4.3-3.8,6.4c-0.9,1.4,1.2,3.1,2.4,1.8c1.2-1.4,2.4-2.8,3.5-4.3c-8.4,19.3-16.8,38.5-25.4,57.7
				C339.8,924,339.4,924.6,339.1,925.1L339.1,925.1z M270.5,759.8c5.6-13.1,11.2-26.2,16.9-39.3c-4.1,9.9-8.1,19.8-12.1,29.8
				c-1.4,3-2.9,6-4.3,8.9C270.8,759.4,270.7,759.6,270.5,759.8L270.5,759.8z M300.5,696.6c2.6-5.9,5.1-11.7,7.5-17.6
				c-2.3,6.1-4.7,12.1-7,18.2c-2.3,4.7-4.5,9.3-6.8,14C296.3,706.3,298.4,701.4,300.5,696.6L300.5,696.6z M330.7,636
				c6.4-16.2,13-32.3,19.7-48.3c-0.5,2.6-1,5.2-1.7,7.8C342.6,608.9,336.6,622.4,330.7,636L330.7,636z M349.6,581
				c-1.5,3.6-3,7.2-4.5,10.8c1.4-3.5,2.8-7,4.3-10.6C349.5,581.2,349.5,581.1,349.6,581L349.6,581z M545.8,478.5
				c-5,9.3-10,18.5-15,27.8c0.5-2.4,0.9-4.9,1.3-7.3c2.6-5.4,5.2-10.8,7.9-16.2c1.9-3.7,3.9-7.3,5.8-11
				C545.9,474.1,545.8,476.3,545.8,478.5L545.8,478.5z M785.1,501.8c0.9-1.6,1.8-3.3,2.7-4.9c-1,2.3-2,4.7-3,7
				C784.9,503.2,785,502.5,785.1,501.8L785.1,501.8z M910.6,550.8c-0.7,1.1-1.3,2.2-2,3.3c-1.2,1.5-2.5,2.9-3.8,4.3
				c-0.4,0.4-0.8,0.8-1.2,1.2c1.7-3.8,3.3-7.6,4.9-11.4c0.7-1.6-1.7-2.4-2.7-1.1c1.7-4.9,3.3-9.9,4.9-14.9c0.3-0.8,0.7-1.7,1-2.5
				c3.6-5.9,7.1-11.7,10.8-17.5c-4,9.5-7.6,19.1-10.1,29.1C911.7,544.4,911,547.6,910.6,550.8L910.6,550.8z M792.9,1283.2
				c-6.5,12.2-13,24.4-19.5,36.6c0.3-0.8,0.7-1.5,1-2.3c10.7-22.6,21.3-45.2,31.4-68C801.5,1260.7,797.3,1272,792.9,1283.2
				L792.9,1283.2z M834,904.3c-1.8,2.4-3.8,4.8-5.8,7.1c2.4-3.5,4.9-7,7.4-10.5c0.9-1.2-0.8-2.9-2-2c-1.5,1-2.9,2.1-4.3,3.2
				c4.5-8.8,8.7-17.8,12.1-27.1c1.7-1.5,3.3-3,4.8-4.6c2.4-2.5,4.6-5.1,6.8-7.8c-2.3,6.1-4.5,12.2-6.6,18.4
				C842.2,888.7,838.1,896.5,834,904.3L834,904.3z M891.5,577.9c-0.3,0.6-0.6,1.2-0.9,1.8c0.2-0.5,0.3-1,0.5-1.5
				c0.7-1.9,1.4-3.8,2.1-5.7c0.2-0.1,0.4-0.3,0.6-0.4C893,574.1,892.2,576,891.5,577.9L891.5,577.9z M825.4,909.3
				c0.5-0.5,1-0.9,1.4-1.4c-1,1.4-2,2.9-3,4.3C824.4,911.3,824.9,910.3,825.4,909.3L825.4,909.3z M821.1,909.5
				c0.2-1.2,0.4-2.3,0.6-3.5c4.8-9.1,9.6-18.2,14.3-27.2c0.2-0.1,0.3-0.2,0.5-0.3c0.1,0,0.1-0.1,0.2-0.1c-4,10-8.8,19.7-13.8,29.2
				C822.3,908.2,821.7,908.9,821.1,909.5L821.1,909.5z M850.2,857.8c-1.7,1.5-3.3,2.8-5.1,4.1c2.6-4.9,5.2-9.8,7.8-14.6
				c1.5-2.9,4.5-3,6.7-1.7c-0.7,1.8-1.4,3.5-2.1,5.3C855,853.3,852.6,855.6,850.2,857.8L850.2,857.8z M733,1091.7
				c2.9-6.4,5.7-12.9,8.6-19.3c-1.9,4.7-3.9,9.5-5.8,14.2c-2.1,5-4.1,10-6.2,15C730.8,1098.3,731.9,1095,733,1091.7L733,1091.7z
				 M755.3,1033.4c1-1.8,2-3.5,2.9-5.2c-1.2,2.6-2.4,5.2-3.6,7.8c-3.3,7.1-6.5,14.2-9.7,21.3c1.6-4.6,3.2-9.2,4.8-13.8
				C751.5,1040.1,753.4,1036.8,755.3,1033.4L755.3,1033.4z M740.5,1060.6c-3,8.7-5.9,17.3-8.8,26c-10.4,23.3-20.6,46.6-31,69.9
				c-1.9,3.5-3.8,6.9-5.6,10.4c2.8-7.1,5.6-14.3,8.3-21.4c6.9-17.9,13.8-35.9,20.7-53.8C729.6,1081.3,735,1071,740.5,1060.6
				L740.5,1060.6z M687.7,1159.5c3.7-6.9,7.5-13.8,11.2-20.7c4.4-8.2,8.8-16.3,13.1-24.5c-9.6,24.7-19.1,49.5-28.8,74.2
				c-6.6,12-13.2,23.9-19.8,35.9c-0.6,1-1.3,1.7-2.1,2c0-0.9-0.1-1.8-0.5-2.3c-0.6-0.9-2.2-1.4-3.3-1.8
				C667.2,1201.1,677.2,1180.2,687.7,1159.5L687.7,1159.5z M844.3,866.1c1.5-1,2.9-2,4.3-3.1c-0.5,0.6-1,1.3-1.6,1.9
				c-1.2,1.3-2.3,2.6-3.5,3.8C843.7,867.9,844,867,844.3,866.1z M873.1,760.8c6.5,0,6.4,10,0,10S866.7,760.8,873.1,760.8z
				 M656.3,1225.1c0.6,0.2,1.2,0.4,1.8,0.8c0,0.3,0.1,0.6,0.1,0.8c-0.8-0.2-1.5-0.6-2.2-1.1C656.2,1225.4,656.2,1225.2,656.3,1225.1
				L656.3,1225.1z M606.4,1393.8c4.8-10.8,9.5-21.7,14-32.6c4.6-9.8,9.2-19.7,13.8-29.5c-5.9,14.2-11.4,28.6-17.8,42.6
				c-3.4,7.4-7,14.9-11,22.1C605.7,1395.5,606,1394.7,606.4,1393.8L606.4,1393.8z M781.3,987c5.7-10,11.5-20,17.4-29.8
				c-2.9,6.5-5.8,13.1-8.7,19.7c-10.2,22.8-20.4,45.6-30.5,68.5C766.6,1025.9,773.9,1006.4,781.3,987L781.3,987z M796.5,955.2
				C796.5,955.2,796.5,955.2,796.5,955.2c2.5-4.9,4.8-9.9,7.2-14.8c2.2-4.3,4.5-8.6,6.8-12.9c2.1-3.1,4.4-6.2,6.8-9.1
				c0,0,0,0.1,0,0.1c-0.3,0.6-0.6,1.1-0.9,1.7c-2.5,4.9-5,9.8-7.4,14.8C804.7,941.7,800.6,948.4,796.5,955.2L796.5,955.2z
				 M897.2,573.3c1-2.1,2-4.2,3-6.3c0.5-0.4,1-0.9,1.5-1.3C900.2,568.2,898.7,570.7,897.2,573.3L897.2,573.3z M895,567.4
				c0-0.2,0.1-0.3,0.1-0.5c0.2-0.5,0.4-1,0.6-1.6c0.5-1,1.1-2,1.6-3.1c-0.6,1.5-1.1,3.1-1.7,4.6C895.4,567.1,895.2,567.3,895,567.4
				L895,567.4z M602.4,1406.9c-4.6,10.2-9.2,20.5-13.7,30.8c3.4-8.6,6.9-17.2,10.3-25.8C600.2,1410.2,601.3,1408.5,602.4,1406.9
				L602.4,1406.9z M787.3,990.3c8-17.8,15.5-35.9,24-53.4c3.1-4.9,6.3-9.8,9.5-14.7c2.4-1.8,4.7-3.8,6.8-5.9
				c-3.1,5.9-6.2,11.8-9.3,17.6c-13.2,25.2-26.4,50.4-39.6,75.6C781.6,1003.1,784.5,996.7,787.3,990.3L787.3,990.3z M859.3,853.9
				c0.7-1,1.4-2,2-2.9c0,0.6-0.1,1.2-0.1,1.7c-1.7,3.2-3.4,6.4-5.1,9.7C857.2,859.6,858.2,856.8,859.3,853.9L859.3,853.9z
				 M884.8,586.9c-1.6,4.4-3.2,8.9-4.9,13.3c-0.1,0.2-0.2,0.4-0.3,0.7c-0.6,0.4-1.1,0.8-1.7,1.2C880,596.9,882.3,591.9,884.8,586.9z
				 M518,546.5c-3,6.7-6,13.5-9.1,20.2c-4.6,10.2-9.3,20.3-14.1,30.3c6.8-18.2,13.5-36.4,20.3-54.6c2.1-4,4.2-7.9,6.3-11.9
				c0.6-1.1,1.2-2.2,1.8-3.3c-0.8,3.2-1.6,6.5-2.5,9.7C519.8,540.1,518.9,543.3,518,546.5L518,546.5z M329.6,936.4
				c-3.3,6.6-6.7,13.2-10.1,19.7c2.7-6.8,5.5-13.7,8.2-20.5c3.6-8.7,7.5-17.5,12.1-25.7C336.5,918.7,333.1,927.6,329.6,936.4
				L329.6,936.4z M384.5,829.1c3.8-7.5,7.4-15.1,10.9-22.8c0.9-1.4,1.9-2.8,2.8-4.3c-4.4,9.3-8.8,18.7-13.3,28
				c-0.8,1.2-1.6,2.4-2.4,3.6C383.2,832.2,383.8,830.6,384.5,829.1L384.5,829.1z M429.7,713.5c-0.1,0.2-0.3,0.4-0.4,0.6
				c0.4-0.9,0.8-1.7,1.1-2.6C430.2,712.2,429.9,712.9,429.7,713.5z M421.5,731.9c-0.2,0.4-0.4,0.8-0.6,1.1c0.1-0.3,0.2-0.5,0.4-0.8
				C421.4,732.1,421.4,732,421.5,731.9z M422.3,743.1c0.6-1.5,1.1-3.1,1.6-4.6c5-10.5,10.1-21.1,15-31.6c2-3.7,4-7.4,6.1-11
				c0.6-0.8,1.2-1.5,1.8-2.3c-0.8,2-1.5,4.1-2.3,6.1c-2.2,6-4.4,12-6.6,18c-4.9,8.8-9.9,17.5-15.7,25.6
				C422.3,743.2,422.3,743.2,422.3,743.1L422.3,743.1z M454,683.1c1.4-2.3,2.7-4.6,4-6.9c-2.2,4.6-4.4,9.3-6.7,13.9
				C452.2,687.8,453.1,685.5,454,683.1z M418.5,752.9c0.3-0.4,0.7-0.8,1-1.2c-0.6,1-1.1,1.9-1.7,2.9
				C418.1,754,418.3,753.4,418.5,752.9L418.5,752.9z M440.1,696.9c7.6-18.1,15.3-36.1,23-54.2c1.8-3.4,3.5-6.9,5.2-10.3
				c2.2-4.3,4.4-8.6,6.6-12.9c-11.4,25.8-22.9,51.5-34.7,77.1C440.2,696.8,440.1,696.8,440.1,696.9L440.1,696.9z M404.3,769.2
				c1.2-1.8,2.4-3.6,3.5-5.5c0.2-0.1,0.4-0.2,0.6-0.3c0.2-0.2,0.4-0.4,0.6-0.5c-2.9,6-5.8,12-8.7,18c-0.9,1.1-1.9,2.1-2.9,3
				C399.6,779.1,402,774.1,404.3,769.2L404.3,769.2z M396.6,788.3c-0.2,0.5-0.5,1-0.7,1.4c-1.3,1.8-2.5,3.5-3.9,5.2
				c0.9-1.8,1.7-3.6,2.6-5.4C395.3,789.2,396,788.7,396.6,788.3L396.6,788.3z M382,818.9c-1.3,2.2-2.6,4.4-3.9,6.6
				c3-6.6,6-13.3,8.9-19.9c0.9-1,1.9-2,2.8-3C387.2,808,384.6,813.4,382,818.9L382,818.9z M409.2,778.7c-1.4,1.8-2.7,3.7-4.1,5.5
				c1-2.4,2-4.7,3-7.1c3.3-5.5,6.5-11,9.6-16.3C414.8,766.8,412,772.8,409.2,778.7L409.2,778.7z M482.9,619.9
				c-3.1,5.9-6.3,11.8-9.5,17.7c-2.4,4.4-4.8,8.7-7.2,13.1c5-12.9,10-25.8,15.2-38.6c4.8-11,9.6-22,14.4-33
				c2.8-5.4,5.7-10.9,8.5-16.3c-4.1,11.2-8.3,22.4-12.5,33.5C488.9,604.2,485.9,612.1,482.9,619.9L482.9,619.9z M512.3,541.3
				c0.1-0.2,0.2-0.4,0.3-0.6c0,0.1-0.1,0.2-0.1,0.4C512.4,541.1,512.3,541.2,512.3,541.3L512.3,541.3z M315.1,955
				c2.5-5.3,5-10.6,7.5-15.9c-3.3,7.7-6.6,15.5-9.9,23.2c0.3-0.8,0.6-1.7,0.9-2.5C314,958.2,314.5,956.6,315.1,955L315.1,955z
				 M302.5,981.9c2-2.5,3.7-5.2,5.2-8c-1.3,3.1-2.6,6.2-4,9.3c-0.1,0.1-0.2,0.1-0.3,0.2c-1,0.9-2,1.9-3,2.9
				C301.1,984.8,301.8,983.4,302.5,981.9L302.5,981.9z M382.6,825.9c-0.2,0.5-0.4,1-0.6,1.4c-2.6,5.3-5.3,10.5-8.1,15.7
				c2.1-4.5,4.2-8.9,6.3-13.4C381,828.5,381.8,827.2,382.6,825.9L382.6,825.9z M523.2,520.7c1.2-3.2,2.4-6.4,3.6-9.7
				c-0.3,1.6-0.7,3.2-1,4.8C524.9,517.4,524.1,519,523.2,520.7L523.2,520.7z M294.5,999.1c1.8-2.7,3.7-5.4,5.8-7.9
				c-0.2,0.4-0.3,0.8-0.5,1.2c-5.5,9.9-10.9,19.9-16.1,30C287.3,1014.6,290.9,1006.8,294.5,999.1L294.5,999.1z M345.2,896.2
				c-0.4,0.5-0.7,1-1,1.5c1-2.1,1.9-4.2,2.9-6.3C346.4,893,345.8,894.6,345.2,896.2L345.2,896.2z M365.6,853.8
				c-0.3,0.6-0.6,1.2-0.9,1.8c0.2-0.4,0.3-0.8,0.5-1.2C365.4,854.3,365.5,854.1,365.6,853.8z M485.4,1237.9
				c5-9.1,10.1-18.2,15.1-27.3c1.2-2.1,2.5-4.2,3.6-6.3c-6.8,14.7-13.7,29.4-20.5,44c-1.5,1-3,2-4.3,3.2
				C481.3,1246.9,483.3,1242.4,485.4,1237.9L485.4,1237.9z M664.1,516.4c-0.3,0.2-0.7,0.5-1,0.7c0.7-1.8,1.3-3.5,2-5.3
				c0.1,0,0.3-0.1,0.4-0.1c0.6-0.3,1.1-0.6,1.7-1c-0.4,0.8-0.8,1.6-1.2,2.3C665.3,514.2,664.7,515.3,664.1,516.4L664.1,516.4z
				 M500.1,1205.1c9.8-22,19.5-44,29.3-66c0.4,0,0.9-0.2,1.2-0.7c1-1.5,2.1-3,3.1-4.5c0.4-0.4,0.9-0.7,1.3-1.1
				c-8.7,20.8-18,41.3-28.7,61.1C504.2,1197.7,502.1,1201.4,500.1,1205.1L500.1,1205.1z M721,718c-0.3,0.6-0.7,1.2-1,1.8
				c1.7-3.9,3.5-7.8,5.1-11.7c1.1-2.6,2.2-5.3,3.4-8c2.1-4.4,4.1-8.8,6.1-13.3c1.8-2.6,3.6-5.2,5.4-7.9c-2.9,6.4-5.7,12.8-8.6,19.1
				C728.1,704.8,724.6,711.4,721,718L721,718z M426.3,1043.4c0.9-1.1,1.9-2.1,2.8-3.2c-4.7,10.5-9.3,20.9-14,31.3
				C418.7,1062.1,422.5,1052.8,426.3,1043.4z M431.2,1011.4c5.9-13,11.7-26.1,17.6-39.1c-3.8,10.4-7.5,20.8-10.9,31.4
				c-0.1,0.3,0,0.7,0.1,1c-4.8,12.5-9.7,25-14.6,37.5c-1.4,1.6-2.8,3.2-4.2,4.8C423.2,1035.2,427.2,1023.3,431.2,1011.4
				L431.2,1011.4z M413.8,1053.4c-1.1,1.4-2.2,2.8-3.3,4.2c2.5-5.7,5.1-11.4,7.6-17.1c0.1-0.3,0.3-0.6,0.4-0.9
				C417,1044.2,415.4,1048.8,413.8,1053.4z M632.4,589.5c0.6-1.3,1.2-2.7,1.8-4c0.5-1.1,1-2.2,1.5-3.3c-0.6,2.3-1.3,4.6-1.9,6.9
				C633.3,589.3,632.9,589.4,632.4,589.5C632.4,589.6,632.4,589.6,632.4,589.5z M632.3,592.8c0.2-0.1,0.3-0.1,0.5-0.2
				c-0.1,0.4-0.2,0.8-0.3,1.2c0,0.1-0.1,0.3-0.1,0.4C632.3,593.8,632.3,593.3,632.3,592.8L632.3,592.8z M554.9,764.7
				c3.6-9.5,7.4-19,11.2-28.5c-1.3,3.6-2.5,7.3-3.8,10.9c-1.6,3.9-3.2,7.8-4.8,11.7C556.7,760.8,555.8,762.7,554.9,764.7
				L554.9,764.7z M597.9,669.7c0.6-0.6,1.2-1.3,1.8-2c-3.4,7.3-6.8,14.6-10.1,21.9C592.3,682.9,595.1,676.3,597.9,669.7L597.9,669.7
				z M551.6,764.9c-4.4,11.6-8.7,23.3-12.9,35c-5.2,11.3-10.4,22.6-15.6,33.8c-5.8,12.5-11.5,25-17.3,37.5c-0.4,0.6-0.8,1.2-1.2,1.7
				c23-57.1,46.4-113.9,69.2-171.1c1.7-4.3,3.5-8.7,5.2-13.1c1.3-2.7,2.5-5.5,3.8-8.2c0.4-0.7,0.8-1.3,1.2-2c1-0.3,2.1-0.7,3-1.2
				C575.3,706.6,562.8,735.5,551.6,764.9L551.6,764.9z M477.2,915.1c0.5-0.4,1-0.8,1.5-1.2c-0.3,0.7-0.5,1.3-0.8,2
				c-6.9,17.2-14.3,34.2-21.7,51.1C463.1,949.7,470.1,932.4,477.2,915.1L477.2,915.1z M480,908.2c1.8-4.4,3.6-8.7,5.4-13.1
				c3.9-9.5,7.8-19.1,11.7-28.6c1-2.2,2-4.3,3-6.5c-6.1,15.5-12.2,31-18.4,46.4C481.1,907.1,480.5,907.7,480,908.2L480,908.2z
				 M536,782.1c5.4-11.7,10.8-23.4,16.2-35.1c-16.8,41.7-33.5,83.4-50.2,125.2c5.9-15.6,11.7-31.2,17.6-46.9
				C525.1,810.9,530.6,796.5,536,782.1L536,782.1z M505.2,855.2c-5,13.2-9.9,26.4-14.8,39.6c-0.7,1-1.4,2-2.1,3
				C494,883.6,499.6,869.4,505.2,855.2z M586.7,674.4c1.8-2.9,3.5-5.8,5.2-8.7c-1,2.5-2,5-3,7.6C588.1,673.6,587.4,674,586.7,674.4
				L586.7,674.4z M419.9,1050.9c-5.6,14.1-11.2,28.1-16.9,42.2c4.5-12.6,9-25.1,13.3-37.8C417.5,1053.8,418.7,1052.3,419.9,1050.9
				L419.9,1050.9z M475.6,929.2c2.8-6.9,5.6-13.7,8.4-20.6c0.8-0.9,1.5-1.7,2.3-2.6c-4.8,13.1-9.6,26.3-14.4,39.4
				c-7.7,16.8-15.3,33.7-22.9,50.5c-1.2,1.1-2.4,2.2-3.7,3.1C455.6,975.8,466,952.6,475.6,929.2L475.6,929.2z M741.6,671.5
				c0,0-0.1,0.1-0.1,0.1c2.7-5.2,5.6-10.3,8.7-15.2c-1.2,2.7-2.4,5.4-3.6,8C744.9,666.8,743.2,669.2,741.6,671.5L741.6,671.5z
				 M738.8,670.5c-2.7,5.3-5.1,10.7-7.5,16c-3,4.4-6,8.8-9,13.1c0.8-2.6,1.6-5.2,2.2-7.9c0-0.2,0-0.3,0-0.5c0.5-0.8,0.9-1.5,1.4-2.3
				c5.5-9.2,10.9-18.5,16.8-27.4C741.4,664.5,740.1,667.5,738.8,670.5L738.8,670.5z M766,621c-2.2,3.5-4.7,6.8-7.4,9.9
				c2.5-6.2,5-12.4,7.5-18.6c0.9,0.9,1.6,2,1.7,3.3C767.3,617.4,766.7,619.2,766,621L766,621z M758.8,613.3c1-2.2,2.9-2.9,4.7-2.5
				c-2.8,7.1-5.7,14.2-8.5,21.3c-0.5,1.2-1,2.3-1.4,3.5c-1.1,0.6-2.2,1-3.3,0.9c-0.6-0.1-1.1-0.3-1.6-0.6
				C752,628.4,755.4,620.8,758.8,613.3L758.8,613.3z M612.1,941.6c5.7-12.9,11.5-25.7,17.2-38.6c-0.7,2-1.4,3.9-2.2,5.9
				c-0.8,1.9-1.7,3.7-2.5,5.6c-3.9,8.6-7.8,17.3-11.6,26C612.8,940.9,612.5,941.2,612.1,941.6L612.1,941.6z M747.7,649.1
				c-5.7,7.8-11,15.9-16,24.2c5.2-11.6,10.4-23.2,15.7-34.7c1.3,0.8,2.9,1.1,4.6,0.7c-1.3,3.1-2.5,6.1-3.8,9.2
				C748.1,648.6,747.9,648.9,747.7,649.1L747.7,649.1z M755.9,637.5c0.2-0.1,0.4-0.2,0.5-0.3c-0.3,0.4-0.6,0.8-0.9,1.3
				C755.7,638.1,755.8,637.8,755.9,637.5L755.9,637.5z M608.8,949.3c0.2-0.2,0.4-0.4,0.7-0.6c-0.8,1.8-1.6,3.6-2.4,5.4
				c-0.4,0.9-0.8,1.7-1.2,2.6C606.9,954.2,607.8,951.8,608.8,949.3L608.8,949.3z M572.4,1046.6c3.5-5.7,7-11.4,10.7-17
				c-4.9,11.6-9.9,23.1-15,34.7c-2.6,5.8-5.2,11.5-7.8,17.3c-2.2,4.3-4.4,8.6-6.6,12.9c5.6-14.7,11-29.4,16.5-44.1
				C570.9,1049.1,571.6,1047.8,572.4,1046.6L572.4,1046.6z M575.8,1035.2c0.4-0.8,0.8-1.6,1.2-2.3c10.6-21.8,20.4-44,29.9-66.4
				c-5.8,16.3-11.6,32.6-17.9,48.8C584.5,1021.8,580.1,1028.5,575.8,1035.2L575.8,1035.2z M702.3,745.7
				c5.7-11.7,11.5-23.5,16.2-35.6c0.5-0.8,1.1-1.5,1.6-2.2c1.6-2.3,3.2-4.5,4.8-6.8c-9.2,19.6-18.8,39-29,58.2
				C698,754.7,700.2,750.2,702.3,745.7L702.3,745.7z M750.9,649.8c2-2.7,4-5.5,6-8.2c-0.2,0.4-0.3,0.7-0.5,1.1
				c-2,2.3-3.8,4.8-5.6,7.2C750.8,649.9,750.9,649.9,750.9,649.8L750.9,649.8z M597.7,978c-0.1,0.2-0.2,0.5-0.3,0.7
				c0.1-0.2,0.2-0.4,0.2-0.6C597.6,978.1,597.6,978.1,597.7,978L597.7,978z M547.6,1090.5c-0.3,0.6-0.5,1.2-0.8,1.9
				c-0.1,0-0.1,0-0.2,0.1C546.9,1091.8,547.2,1091.1,547.6,1090.5z M548.6,1095.4c3-6.9,6.1-13.7,9.1-20.6
				c-4.6,12.3-9.3,24.6-14.2,36.8c-1.6,1.9-3.2,3.9-4.7,5.9C542.1,1110.2,545.4,1102.8,548.6,1095.4z M797.5,493.6
				c-0.3,1-0.6,2-0.9,3c-1.9,4-3.8,8.1-5.6,12.2c1.8-4.8,3.6-9.5,5.5-14.3C796.8,494.2,797.2,493.9,797.5,493.6L797.5,493.6z
				 M586.4,999.3c-1.9,4.8-3.8,9.7-5.7,14.5c-1.8,4.5-3.5,9-5.2,13.6c-1.6,3.6-3.2,7.2-4.8,10.7c-3.9,7.5-7.9,14.8-11.8,22.2
				C568.1,1040,577.3,1019.7,586.4,999.3L586.4,999.3z M542.2,1102.5c-2.4,5.5-4.9,11.1-7.3,16.6c1.2-3.9,2.5-7.8,4-11.6
				C540,1105.8,541.1,1104.2,542.2,1102.5L542.2,1102.5z M676.6,803.8c1.8-4.3,3.5-8.5,5.4-12.8c2-3.5,4-7,5.9-10.5
				c-4.4,9.2-8.7,18.4-13,27.7C675.4,806.7,676,805.3,676.6,803.8z M809.5,466.1c-0.2-0.5-0.3-0.9-0.4-1.4c1.1-2.3,2.1-4.6,3.2-6.9
				C811.4,460.5,810.5,463.3,809.5,466.1L809.5,466.1z M643.8,564.3c0.2-0.5,0.4-1,0.7-1.4c-0.6,2-1.3,4-1.9,6
				C643,567.3,643.4,565.8,643.8,564.3L643.8,564.3z M658.6,520.1c0.1-0.2,0.1-0.4,0.2-0.6c0.2-0.4,0.4-0.7,0.5-1.1
				c-0.2,0.6-0.4,1.1-0.6,1.6C658.7,520,658.6,520.1,658.6,520.1L658.6,520.1z M642.1,554.2c-0.2,0.9-0.4,1.8-0.6,2.7
				c-0.2,0.9,0.3,1.6,1,1.8c-0.3,1.2-0.7,2.3-1,3.5c-1,2.1-1.9,4.2-2.9,6.3c-1.7,3.7-3.3,7.3-5,11c1.1-5.8,2.8-11.6,4.5-17.1
				C639.5,559.7,640.8,556.9,642.1,554.2z M629.5,596.2c0.1,2.1,0.4,4.1,0.8,6.2c0,0,0,0,0,0.1c-8.4,17.8-16.7,35.6-25,53.4
				c-1.2,1.9-2.5,3.8-3.9,5.6C610.5,639.6,619.9,617.9,629.5,596.2L629.5,596.2z M391,1101.9c4.6-10.4,9.2-20.9,13.8-31.3
				c1.9-2.7,3.9-5.4,5.9-8c-8,23-16.2,45.9-25,68.6c-6.2,16-12.7,31.9-19.6,47.6c2.7-11,5.4-22,8.1-32.9
				C379.7,1131.1,385.3,1116.5,391,1101.9L391,1101.9z M432.9,1031.9c-1.1,1.1-2.1,2.2-3.1,3.3c4.4-10.5,8.9-20.9,13.5-31.3
				c1.1-0.6,2.1-1.3,3.2-2C441.9,1011.8,437.4,1021.9,432.9,1031.9L432.9,1031.9z M530.3,1124.6c-0.7,2.7-1.3,5.5-1.8,8.2
				c-0.6,1-1.2,2-1.8,3c-1,0.9-2.1,1.8-3.1,2.7C525.9,1133.9,528.1,1129.2,530.3,1124.6L530.3,1124.6z M644.5,884.3
				c2.9-4,5.7-8.1,8.3-12.3c0,0,0,0.1-0.1,0.1c-5.3,10.9-10.6,21.9-16.3,32.6C639.1,897.9,641.8,891.1,644.5,884.3z M669.9,836.2
				c-6.7,11.8-13.1,24-20.5,35.6c1.3-3.3,2.6-6.6,3.9-9.9c12.9-28.4,26-56.7,39.5-84.9c4-8.4,8.1-16.8,12.2-25.2
				c3.5-5.7,6.8-11.4,10.2-17.2c-10.4,23.3-20.8,46.6-31.2,69.9C679.3,815.1,674.6,825.6,669.9,836.2L669.9,836.2z M818,459.2
				c-0.8,1.5-1.6,3-2.4,4.5c-0.1,0.2-0.2,0.4-0.4,0.6c0,0,0,0,0,0c0.2-0.7,0.5-1.4,0.7-2.1c0.9-1.5,1.8-3,2.7-4.5
				C818.5,458.3,818.3,458.7,818,459.2z M819.5,436.9c-1.6,2.9-3.1,5.9-4.6,8.8c0.2-0.6,0.4-1.3,0.6-2c1.3-2.6,2.8-5.1,4.2-7.6
				C819.6,436.4,819.6,436.7,819.5,436.9L819.5,436.9z M666.5,526.5c-3.9,6-8.1,11.8-12.7,17.3c0.2-0.7,0.5-1.4,0.7-2.1
				c3.5-7.2,7.1-14.3,11-21.4c0.4-0.7,0.8-1.4,1.2-2.1c2.4-1.9,4.7-4,6.9-6.2C671.1,516.8,668.8,521.6,666.5,526.5L666.5,526.5z
				 M630.1,582.1c-0.1-0.8-0.1-1.6-0.1-2.4c0.3-0.6,0.6-1.2,0.9-1.8C630.6,579.2,630.3,580.6,630.1,582.1L630.1,582.1z M599.9,657.1
				c1.5-3.6,2.9-7.3,4.3-10.9c8-20.2,15.4-40.6,23.2-61c0.3,1.8,0.7,3.7,1.2,5.5C618.8,612.8,609.3,634.9,599.9,657.1L599.9,657.1z
				 M360.2,1190c-0.3,1.3-0.7,2.7-1,4c-4,8.9-8.2,17.7-12.5,26.5c0.3-0.8,0.6-1.7,0.9-2.5c5.8-16,11.6-31.9,17.5-47.8
				C363.5,1176.8,361.9,1183.4,360.2,1190L360.2,1190z M338.8,1242.3c0.1-0.1,0.2-0.2,0.3-0.3c0-0.1,0.1-0.1,0.1-0.2
				c-0.5,1.2-1.1,2.4-1.6,3.6C338,1244.4,338.4,1243.4,338.8,1242.3L338.8,1242.3z M521,1145c0.4-0.3,0.7-0.7,1.1-1
				c-0.7,1.3-1.5,2.7-2.2,4C520.2,1147,520.6,1146,521,1145L521,1145z M516.3,1161.3c-1.5,3.4-3,6.8-4.5,10.2c0.5-1.3,0.9-2.7,1.4-4
				C514.1,1165.4,515.2,1163.3,516.3,1161.3z M609.3,1129.8c-0.5-0.1-1.2,0-1.6,0.6c0,0.1-0.1,0.2-0.2,0.2c-0.2-0.1-0.5-0.2-0.8-0.2
				c6.3-13.2,12.2-26.5,17.6-40c2.4-5.9,12-3.3,9.6,2.7c-2.1,5.2-4.2,10.3-6.4,15.4C621.3,1115.5,615.2,1122.6,609.3,1129.8
				L609.3,1129.8z M609.8,971.3c6.2-15.7,12.5-31.4,18.8-47.1c3.3-5.2,6.3-10.5,9.3-15.9C628.5,929.3,619.1,950.3,609.8,971.3
				L609.8,971.3z M840.2,402.9c-2.8,8.1-5.5,16.2-8.5,24.3c-2,5.4-4.1,10.7-6.3,16c-0.3,0.7-0.7,1.5-1,2.2c-1.1,1.2-2.1,2.4-3.1,3.7
				c3.4-8.3,6.4-16.8,9-25.4c0.4-1.3-0.9-2.1-1.9-1.8c0.4-1.1,0.9-2.2,1.3-3.3c3.4-8.1,7.1-16.7,12.1-24.1
				C841.2,397.2,840.7,400,840.2,402.9L840.2,402.9z M824.7,422.9c-0.1,0.2-0.2,0.5-0.3,0.7c-1,1.3-1.9,2.7-2.9,4.1
				c1.9-4.3,3.7-8.6,5.5-12.9C826.3,417.4,825.5,420.2,824.7,422.9z M787.6,505.6c0,0.1-0.1,0.2-0.1,0.2c-0.1,0.2-0.2,0.5-0.4,0.7
				c0.3-0.7,0.6-1.3,0.8-2C787.8,504.9,787.7,505.2,787.6,505.6L787.6,505.6z M647.2,566.6c0.2-1.5,0.4-3,0.6-4.5
				c1.2-3.7,2.4-7.5,3.6-11.2c0.6-0.6,1.2-1.3,1.8-1.9c1.3-0.9,2.5-1.9,3.8-2.8C653.7,552.9,650.5,559.7,647.2,566.6L647.2,566.6z
				 M677.6,503.4c-2.3,2.6-4.7,5.2-7.3,7.7c0.7-1.3,1.4-2.6,2.1-3.9c2-1.5,3.9-3.2,5.7-4.9C678,502.6,677.8,503,677.6,503.4z
				 M670.2,505c-1,0.7-1.9,1.4-3,2.1c0.4-1.4,0.8-2.7,1.2-4.1c0.7-1.9,1.4-3.8,2.2-5.6c5.6-10,11-20,16.1-30.2
				C682.7,480.4,676.6,492.9,670.2,505L670.2,505z M320.9,1281.6c2.3-6.6,4.4-13.2,6.5-19.8c6.3-17.1,12.3-34.2,18.1-51.4
				c2.1-6.2,4.2-12.5,6.3-18.7c4.1-9.4,8.2-18.8,12.2-28.2c1.2-2.8,2.4-5.5,3.6-8.3c-15.4,41.3-30.3,82.9-45.3,124.3
				C321.9,1280.3,321.4,1280.9,320.9,1281.6L320.9,1281.6z M497.3,1196.8c1.6-2.9,3.3-5.8,4.9-8.7c0.7-1.2,1.4-2.5,2.1-3.7
				c-3.1,9.2-6.5,18.3-10.3,27.2c-0.8,1.7-1.5,3.4-2.3,5.1c-2.2,4.7-4.5,9.3-7.1,13.8c-0.4,0.7-0.2,1.3,0.1,1.7
				c-0.1,0.1-0.1,0.3-0.2,0.4c-0.5,1.2-1.1,2.5-1.7,3.7c-5.4,10-10.7,20-15.8,30c6.9-16.2,13.9-32.3,21-48.4
				C491.1,1210.8,494.2,1203.8,497.3,1196.8L497.3,1196.8z M422.8,1375.3c1.3-3.6,2.6-7.3,4-10.9c1-2.1,2-4.2,3-6.3
				c-1.8,4.6-3.5,9.1-5.3,13.7C423.9,1373,423.3,1374.1,422.8,1375.3L422.8,1375.3z M442.3,1333.8c2.1-5.5,4.4-10.9,6.7-16.4
				c8.9-19,17.6-38.1,26.3-57.3c1.7-2.2,3.5-4.3,5.5-6.1c-13.5,28.8-27.2,57.5-41,86.1C440.7,1338,441.5,1335.9,442.3,1333.8
				L442.3,1333.8z M597.1,1150.6c-0.8,1.5-1.6,3.1-2.5,4.6c0.5-1,0.9-2,1.4-3C596.4,1151.7,596.8,1151.1,597.1,1150.6z M602,1147.7
				c2.1-4,4.2-8,6.3-12c5-6.2,10.1-12.2,15.3-18.2c-3.2,7.2-6.5,14.4-10,21.5c-8,10.9-15.1,22.3-22.7,33.5
				C594.6,1164.2,598.4,1156,602,1147.7L602,1147.7z M851.2,380.5c0,0-0.1,0-0.1,0c0.2-0.6,0.4-1.2,0.6-1.8
				C851.6,379.3,851.4,379.9,851.2,380.5z M842.9,387.7c-3.7,4.5-6.6,9.8-9.2,14.9c1-3.7,2.1-7.3,3.1-11c2.3-3.8,4.7-7.6,7.3-11.3
				C843.8,382.8,843.3,385.2,842.9,387.7L842.9,387.7z M779.1,526.4c-0.6,1.5-1.2,2.9-1.9,4.4c-0.1,0-0.3,0-0.4,0
				c0.3-0.8,0.7-1.6,1-2.4C778.3,527.7,778.7,527,779.1,526.4L779.1,526.4z M703.6,450.4c1.1-3,2.2-6,3.2-8.9
				c-0.4,1.7-0.9,3.4-1.3,5.1C704.9,447.8,704.3,449.1,703.6,450.4L703.6,450.4z M697.3,459c-2,5.6-4.1,11.3-6.3,17
				c-2.4,5-4.8,9.9-7.3,14.9c-2.2,3-4.7,5.9-7.3,8.6c6.5-12.9,12.3-26.2,15.5-40.4c0.2-0.8-0.1-1.3-0.6-1.6c1.6-3.5,3.2-7,4.8-10.6
				c1.4-3.2,2.8-6.5,4.1-9.8c3.2-5.7,6.4-11.4,9.6-17.1c0.6-1.1,1.3-2.2,1.9-3.4c-0.2,1.5-0.5,3.1-0.7,4.6
				C706.3,433.8,701.8,446.4,697.3,459L697.3,459z M545.4,488.4c-6.9,13.6-13.4,27.4-19.8,41.2c1.1-4.3,2.1-8.6,3-12.9
				c5.6-10.5,11.2-21,16.9-31.5C545.5,486.3,545.5,487.3,545.4,488.4L545.4,488.4z M258.4,1076.7c1-2.1,2-4.2,2.9-6.3
				c-4.5,11.4-8.5,23.1-12.8,34.6c-0.4-0.2-0.8-0.3-1.2-0.6C250.9,1095.2,254.6,1086,258.4,1076.7L258.4,1076.7z M283.8,1028.5
				c-6.9,15.4-13.9,30.8-21,46.1C268.9,1058.9,276.1,1043.6,283.8,1028.5z M317.2,1292.7c0.2-0.4,0.5-0.8,0.7-1.1
				c-0.5,1.1-0.9,2.2-1.4,3.4C316.7,1294.2,316.9,1293.5,317.2,1292.7L317.2,1292.7z M458.5,1278.2c0.9-2,1.9-4,2.8-5.9
				c-4.5,10.5-9,21.1-13.4,31.6c-2.1,5-4.2,10.1-6.3,15.1c1.9-5.8,3.8-11.5,5.7-17.3C451,1293.9,454.7,1286,458.5,1278.2
				L458.5,1278.2z M406,1407.7c-0.3,0.8-0.8,1.7-1.2,2.7c-0.1-0.1-0.2-0.2-0.3-0.3c0.8-1.7,1.7-3.4,2.5-5.1
				C406.6,1405.9,406.3,1406.8,406,1407.7L406,1407.7z M561.6,1214.3c7.3-12.3,14.4-24.7,21.3-37.3c-0.2,0.4-0.3,0.8-0.5,1.2
				c-5,9.3-10,18.5-15,27.8C565.4,1208.7,563.5,1211.5,561.6,1214.3L561.6,1214.3z M553.1,1232.1c-3.1,5.6-6.2,11.2-9.3,16.8
				c0.4-1.6,0.9-3.2,1.3-4.8C547.7,1240.1,550.4,1236.1,553.1,1232.1L553.1,1232.1z M581,1448.4c-0.8,2-1.5,4-2.3,5.9
				c-4.3,11.2-9.2,22.3-14,33.5c-0.3-0.8-1.4-1.4-2.2-0.8c-0.2,0.2-0.5,0.4-0.7,0.6C568.3,1474.5,574.7,1461.4,581,1448.4
				L581,1448.4z M565.4,1502.9c0.2-1.8,0.4-3.7,0.5-5.5c10.7-24.9,21.6-49.6,32.7-74.3c6.2-13.9,12.5-27.8,18.8-41.8
				c0.4,0,0.8-0.2,1.1-0.8c8-16.6,15.9-33.2,23.8-49.8c-6.2,17.6-13.1,34.9-20.2,52.1C604.6,1423.5,585.1,1463.2,565.4,1502.9
				L565.4,1502.9z M870.6,1106.3c-0.6,1.3-1.2,2.7-1.8,4c-1.9,4.3-4,8.5-6.1,12.7C865.4,1117.4,868,1111.8,870.6,1106.3
				L870.6,1106.3z M900.2,1035.6l0.5-1.1c0,0.1,0,0.1,0,0.2C900.5,1035,900.4,1035.3,900.2,1035.6L900.2,1035.6z M893.4,1051.1
				c-0.2,0.2-0.3,0.5-0.5,0.7c1-2.2,2-4.4,3-6.5C895,1047.2,894.2,1049.1,893.4,1051.1z M875.9,606.7c0.2-0.1,0.4-0.2,0.7-0.4
				c-0.6,1.1-1.2,2.2-1.8,3.3C875.1,608.6,875.5,607.7,875.9,606.7L875.9,606.7z M847,383.3c-0.1,0.1-0.2,0.2-0.4,0.4
				c0.5-2.9,0.9-5.7,1.4-8.6c1-1.3,2.1-2.7,3.1-4C849.8,375.2,848.4,379.2,847,383.3L847,383.3z M841.9,378.4
				c1.3-2.8,2.6-5.5,3.9-8.3c-0.2,1.2-0.4,2.5-0.6,3.7C844.1,375.3,843,376.9,841.9,378.4L841.9,378.4z M572,438.8
				c-0.9,1.7-1.9,3.5-2.8,5.2c1.2-2.8,2.4-5.5,3.6-8.2C572.5,436.7,572.3,437.8,572,438.8z M580,419.5c4-9,8.2-18,12.3-26.9
				c-1.7,5.3-3.4,10.6-5.1,15.9c-3.1,6.4-6.2,12.7-9.3,19.1C578.7,424.8,579.3,422.2,580,419.5z M552,475.7
				c-1.1,2.1-2.3,4.3-3.4,6.5c0-0.9,0.1-1.8,0.1-2.7c1.2-2.3,2.5-4.6,3.7-6.9c0.9-1.7-1.7-3.2-2.6-1.5c-0.3,0.6-0.7,1.3-1,1.9
				c0-2.2,0-4.3-0.1-6.5c1-2,2.1-3.9,3.1-5.9c3.7-6.8,7.4-13.5,11.1-20.3c-0.7,6.4-2.8,12.7-4.8,18.5
				C556.2,464.6,554.1,470.1,552,475.7z M352.1,575.1c-0.1,0.1-0.2,0.1-0.3,0.2c0.5-1.1,0.9-2.3,1.4-3.4c1.3-2.8,2.5-5.6,3.8-8.3
				C355.4,567.4,353.8,571.3,352.1,575.1L352.1,575.1z M245,820c5.2-11,10.5-22,15.7-33c-0.5,1.2-1,2.4-1.4,3.6
				c-8.6,22.2-17.3,44.3-26.5,66.2c1.5-6.4,3.1-12.7,4.7-19.1C240,831.9,242.5,825.9,245,820z M288.3,730.3
				c-1.1,2.8-2.1,5.5-3.2,8.2c-1,1.5-2,3.1-3.1,4.6C284.1,738.8,286.2,734.6,288.3,730.3z M246.1,1107.5c0.4,0.2,0.8,0.4,1.2,0.5
				c-2.6,5.7-5.3,11.3-8,16.9c0-0.1,0-0.1,0.1-0.2C241.7,1119,243.9,1113.2,246.1,1107.5z M252.2,1105.9c-0.3,0-0.6,0-0.8-0.1
				c2.4-5.1,4.8-10.2,7.1-15.3c2.5-5.3,4.9-10.5,7.3-15.8C261.4,1085.1,256.8,1095.5,252.2,1105.9L252.2,1105.9z M250.9,1109
				c-1.6,3.6-3.2,7.2-4.8,10.8c1.4-3.6,2.8-7.2,4.1-10.9C250.4,1108.9,250.7,1108.9,250.9,1109z M328.8,948.2
				c-0.8,1.7-1.5,3.4-2.3,5.1c-0.2,0.4-0.2,0.8-0.1,1.1c-3.5,7.4-6.9,14.7-10.3,22.1c3.6-7.8,7-15.8,10.3-23.8
				C327.2,951.3,328,949.7,328.8,948.2z M316.1,1277.6c1.5-3.9,3.1-7.9,4.6-11.8c-3.4,10.9-6.9,21.8-10.4,32.7
				c-2.7,4.7-5.2,9.6-7.6,14.4C307.2,1301.1,311.6,1289.3,316.1,1277.6L316.1,1277.6z M249.3,1449.5c0.2-0.5,0.3-1,0.5-1.5
				c4.1-10.3,8.3-20.5,12.6-30.7c4.1-9.7,8.3-19.2,12.2-28.9c7.7-18.9,14.7-38,22.9-56.7c1-2.3,2-4.6,3.1-6.9
				c-6,16-12,32.1-18.1,48.1c-1.7,4.4-3.4,8.9-5.1,13.3c-9.8,23.6-19.8,47.1-29.7,70.6c-0.8,1.5-1.6,3-2.5,4.5
				C246.6,1457.4,248,1453.5,249.3,1449.5L249.3,1449.5z M318,1299.4c1.9-4.6,3.8-9.1,5.7-13.7c-3.1,8-6.1,16-9.1,24
				c-8.2,21.9-16.2,44.2-24.6,66.2c0.2-0.4,0.3-0.9,0.5-1.3C299.6,1349.5,308.8,1324.5,318,1299.4z M432.8,1426.6
				c-1,3.9-2.1,7.8-3.2,11.7c0.2-3,0.8-6.1,1.6-9C431.7,1428.5,432.2,1427.5,432.8,1426.6L432.8,1426.6z M438.3,1417.4
				c3.3-5.6,6.6-11.1,9.9-16.7c-4,9.7-8.4,19.3-13,28.8C436.2,1425.4,437.3,1421.4,438.3,1417.4L438.3,1417.4z M518.5,1285.1
				c-0.9,1.8-1.8,3.6-2.7,5.4c-5.4,10.5-10.8,20.9-16.4,31.3c5.1-10.4,10.2-20.8,15.5-31.1C516.2,1288.8,517.3,1287,518.5,1285.1
				L518.5,1285.1z M533.2,1262.3c2.2-3.3,4.4-6.7,6.5-10c-0.7,2.7-1.5,5.4-2.3,8.1c-5.5,9.9-11.1,19.9-16.6,29.8
				c-6.9,12.4-13.9,24.7-20.8,37.1C511.3,1305.8,522.6,1284.2,533.2,1262.3L533.2,1262.3z M561.9,1222.3c2.8-5.1,5.5-10.1,8.3-15.2
				c0.9-1.3,1.9-2.6,2.8-4c-3.2,7.8-6.5,15.7-9.5,23.6c-0.5,1.2-0.9,2.3-1.3,3.5c-8.1,12.7-16.2,25.5-24.1,38.4
				c0.7-2.3,1.4-4.7,2.1-7.1C547.5,1248.5,554.7,1235.4,561.9,1222.3L561.9,1222.3z M557.4,1497.5c1.5-2.4,3.1-4.7,5-6.5
				c0.1,0.5,0.2,1,0.2,1.6c-3.7,8.7-7.2,17.4-10.3,26.3c0.2-3.5,0.2-7,0.1-10.5C554.2,1504.7,555.8,1501.1,557.4,1497.5
				L557.4,1497.5z M727.6,1425.5c0.5-1,1-1.9,1.4-2.9c0.4-0.4,0.8-0.8,1.2-1.2c-2.5,5.2-5.1,10.4-7.6,15.7
				C724.3,1433.2,726,1429.4,727.6,1425.5z M733.5,1413.1c1.2-2.8,2.4-5.5,3.6-8.3c2.4-5.6,4.6-11.2,6.8-16.9
				c3.2-7.1,6.4-14.2,9.6-21.4c-1.4,4.6-2.8,9.3-4.2,13.9c-3,6.2-5.8,12.5-8.5,18.8c-0.7,1.6-1.3,3.1-1.9,4.7
				c-0.8,1.6-1.5,3.2-2.3,4.8C735.5,1410.2,734.5,1411.7,733.5,1413.1L733.5,1413.1z M833.9,1196.1c-8,18.2-15.7,36.5-23.5,54.8
				c-1.1,2-2.2,4-3.2,5.9c10.3-26.5,20.6-53,30.9-79.5c4-9.1,8-18.2,12.2-27.3c3.5-5.2,6.8-10.5,9.9-15.9
				c-6.5,15.6-13.1,31.2-19.5,46.8C838.4,1186,836.1,1191,833.9,1196.1L833.9,1196.1z M872.9,1111.4c4.9-11.8,9.7-23.7,14.5-35.6
				c1.6-1.8,3.2-3.6,4.6-5.5c-6.8,15.2-13.9,30.2-21,45.3C871.7,1114.3,872.3,1112.9,872.9,1111.4L872.9,1111.4z M895.2,1060.8
				c-1.3,2-2.6,3.9-4,5.8c0.6-1.4,1.1-2.8,1.7-4.2c1.9-4.6,3.8-9.2,5.6-13.8c2.3-3.4,4.7-6.8,7.2-10.1c0.2-0.3,0.5-0.6,0.7-0.9
				c-2.2,5.3-4.5,10.5-6.8,15.7C898.2,1055.9,896.7,1058.4,895.2,1060.8L895.2,1060.8z M911.5,1027.6c-0.4,0-0.7,0.1-1,0.4
				c-2.5,2.8-4.9,5.7-7.1,8.6c0.3-0.6,0.5-1.1,0.8-1.7c0.2-0.2,0.3-0.4,0.4-0.7c0.1-0.3,0.2-0.7,0.4-1.1c1-2.1,2-4.2,2.9-6.4
				c0.8-1.7-1.7-3.3-2.6-1.5c-0.8,1.7-1.7,3.3-2.5,5c-0.1,0.1-0.2,0.2-0.3,0.3c4.1-9.1,8.2-18.1,12.3-27.2c1-2.3,3-2.9,4.8-2.5
				c-0.7,2.9-1.5,5.9-2.3,8.8C915.7,1015.7,913.7,1021.7,911.5,1027.6L911.5,1027.6z M923.9,529.1c-0.2,0.4-0.5,0.8-0.7,1.2
				c2-6.7,3.7-13.4,5.2-20.2c0.1,0.3,0.2,0.6,0.3,0.9c-0.4,2.8-0.9,5.5-1.6,8.2C926.1,522.5,925,525.8,923.9,529.1L923.9,529.1z
				 M872.8,606.4c-1.2,3-2.3,5.9-3.3,9c-0.9,2.7-1.7,5.4-2.4,8.1c-3,5.6-6,11.1-9,16.7c-0.9,1.8-1.9,3.6-2.8,5.3
				c-4.9,8.5-9.7,17.1-14.5,25.7c-1.1,1.8-2.2,3.6-3.2,5.5c6.6-12.7,13.2-25.3,19.6-38.1c5.7-11.5,11.1-23,16.2-34.8
				c-0.2,0.6-0.4,1.1-0.5,1.7C872.7,605.8,872.7,606.1,872.8,606.4L872.8,606.4z M805.4,733.3c-0.3,0.3-0.5,0.6-0.8,0.8
				c-0.6,0.6-1.2,1.2-1.9,1.8c1.2-5.8,4.2-11.3,7-16.4c1.4-2.5,2.9-5,4.3-7.5c-0.7,2.4-1.2,4.7-1.8,7.1
				C810,723.9,807.7,728.5,805.4,733.3L805.4,733.3z M871.9,320c0.4,0.9,0.5,2,0,3.2c-1.3,3.8-2.6,7.6-3.9,11.4
				c0.1-2.2,0.2-4.4,0.3-6.5c0.5-1.5,1-3.1,1.5-4.6C870.5,322.3,871.2,321.1,871.9,320L871.9,320z M856.6,354.8
				c-1.1,3.3-2.2,6.6-3.2,9.8c-0.4,0-0.7,0.1-1,0.4c-1.1,1.3-2.2,2.6-3.3,3.9c0.4-2.8,0.9-5.5,1.3-8.3c0.5-0.9,0.9-1.9,1.3-2.8
				c1.9-4,3.9-7.9,5.9-11.8C857.4,349,857,351.9,856.6,354.8L856.6,354.8z M852,350.5C852,350.5,852,350.5,852,350.5
				c2-5.5,3.9-11.1,5.8-16.6c0.1,1.7,0.1,3.3,0.1,5C855.9,342.8,853.9,346.6,852,350.5L852,350.5z M739.2,359.6
				c1.1-1.9,2.2-3.8,3.4-5.6c-2.1,7.5-4.4,15-6.8,22.5C736.9,370.9,738,365.3,739.2,359.6z M583.8,403.9
				C583.8,403.9,583.8,403.9,583.8,403.9C583.8,403.8,583.9,403.8,583.8,403.9C583.9,403.8,583.9,403.8,583.8,403.9L583.8,403.9z
				 M577.2,418.5c-4,9-8,18.1-12,27.1c0.7-3.7,1.1-7.4,1-11c4.1-7.3,8.2-14.6,12.4-21.8C578.1,414.8,577.7,416.7,577.2,418.5
				L577.2,418.5z M567.8,425.6c5-10.4,10.1-20.7,15.1-31.1c-0.6,2.7-1.3,5.4-1.9,8.1C576.6,410.3,572.2,417.9,567.8,425.6
				L567.8,425.6z M230.4,854.9c-1.3,5.4-2.5,10.9-3.7,16.3c-1.4,3.2-2.8,6.4-4.3,9.7c2.4-8,4.8-16,7.2-24
				C229.9,856.2,230.1,855.5,230.4,854.9L230.4,854.9z M275,758.7c1.7-2.4,3.4-4.9,5.1-7.3c-1.1,2.8-2.2,5.6-3.3,8.4
				c-5.6,12.9-11.1,25.9-16.6,38.8c-3.5,8.3-7.1,16.6-10.6,24.9C258.2,802,266.5,780.3,275,758.7L275,758.7z M215.1,1174.9
				c2.6-7.3,5.3-14.6,8.1-21.8c4.3-9.4,8.7-18.8,13-28.2c-4.7,12.1-9.4,24.2-14,36.3c-3,6.3-6,12.6-9,18.8
				C213.9,1178.3,214.5,1176.6,215.1,1174.9L215.1,1174.9z M228.7,1154.4c-0.1,0.2-0.1,0.3-0.2,0.4c-1.7,4-3.4,8-5.2,12
				c0.7-1.8,1.4-3.6,2.1-5.5C226.5,1159.1,227.6,1156.7,228.7,1154.4L228.7,1154.4z M254.1,1109.2c0.1,0,0.2,0,0.3,0
				c-3.4,7.3-6.7,14.6-10.1,21.9C247.6,1123.7,250.8,1116.5,254.1,1109.2L254.1,1109.2z M255.5,1105.9c4.8-10.8,9.5-21.6,14.1-32.5
				c-1.9,5.1-3.9,10.1-5.8,15.2c-2.6,5.7-5.3,11.5-8,17.2C255.8,1105.8,255.7,1105.9,255.5,1105.9L255.5,1105.9z M300.4,1003.9
				c0.7,0.6,1.8,0.6,2.3-0.3c3-5.6,5.9-11.3,8.7-17.1c-9.5,20.3-18.9,40.6-28.4,60.9C288.8,1032.9,294.6,1018.4,300.4,1003.9
				L300.4,1003.9z M267.8,1429.5c-0.1,0.3-0.2,0.5-0.4,0.8c2.8-7.2,5.5-14.4,8.2-21.6C273.2,1415.6,270.6,1422.6,267.8,1429.5
				L267.8,1429.5z M445.5,1414.3c4.3-9.7,8.3-19.6,12.1-29.5c4.1-7,8.2-13.9,12.3-20.9c9.5-16,19.2-31.9,29-47.6
				c-0.3,0.7-0.7,1.4-1,2.1c-9.4,19.4-18.4,39-27.6,58.5c-3.1,5.9-6.1,11.8-9.1,17.7c-1.5,2.9-2.9,5.8-4.4,8.7
				c-5.5,9.5-10.8,19.1-16,28.8c-2.2,2-4.4,4-6.5,6C438.3,1430.1,442,1422.2,445.5,1414.3L445.5,1414.3z M533.5,1273.5
				c-0.6,1.8-1.1,3.7-1.7,5.5c-1,1.7-2.1,3.4-3.1,5.2c-5.6,9.4-11,18.8-16.4,28.3c-1.8,2.8-3.5,5.6-5.3,8.3
				C515.9,1305.1,524.7,1289.3,533.5,1273.5L533.5,1273.5z M758.1,1341.3c-0.5,1.1-1,2.2-1.5,3.4c-3.4,7.7-7.3,15.2-11.2,22.7
				c2.8-5.7,5.5-11.4,8.3-17.2C755.2,1347.2,756.7,1344.2,758.1,1341.3L758.1,1341.3z M728.9,1410.3c3.4-7.2,6.8-14.4,10.5-21.4
				c-2.8,6.8-5.7,13.5-8.6,20.2c-1.6,3.3-3.2,6.6-4.7,9.9c0.5-2.1,1.1-4.3,1.8-6.4C728.1,1411.8,728.5,1411,728.9,1410.3
				L728.9,1410.3z M839.1,1192.7c1.5-3.7,3-7.3,4.5-11c8.8-19.4,17.9-38.7,27-58c10.8-22.9,21.5-45.8,31.7-68.9
				c0.5-0.8,0.9-1.6,1.3-2.4c-9.4,20.7-18.8,41.3-28.2,62C863.3,1140.5,851.2,1166.7,839.1,1192.7L839.1,1192.7z M821,691.6
				c-5.2,10.5-11.2,21.2-18.8,30.2c5.8-12.4,12.8-24.3,19.3-36.2c3.4-6.2,6.8-12.3,10.2-18.4C828.4,675.5,824.9,683.7,821,691.6
				L821,691.6z M874,533.5c-0.4,0.6-0.8,1.1-1.2,1.7c0.1-0.2,0.1-0.4,0.2-0.6c1.8-4.6,3.6-9.2,5.5-13.8c0.5-1.2,1-2.3,1.4-3.5
				c-0.4,1.1-0.8,2.3-1.2,3.4C877.3,525,875.7,529.2,874,533.5L874,533.5z M873.8,520.5c-1.1,4.4-2.3,8.8-3.7,13.2
				c-1.5,3.9-3,7.7-4.5,11.5c-2.7,3.7-5.4,7.4-8.1,11.1c-3.2,4.3-10,1.4-9.6-2.7c0.3-0.8,0.7-1.6,1-2.5c9-12,17.5-24.4,26.2-36.6
				C874.8,516.6,874.3,518.6,873.8,520.5L873.8,520.5z M868.3,318.6c0-0.4,0-0.9,0-1.3c0,0,0-0.1,0-0.1c0.2,0,0.3,0.1,0.5,0.1
				C868.6,317.7,868.4,318.2,868.3,318.6L868.3,318.6z M742.6,348.8c0.3-0.8,0.6-1.6,0.9-2.5c0,0.5,0,1-0.1,1.5
				C743.1,348.1,742.9,348.4,742.6,348.8z M615.5,346.9c-5.1,7.9-10.2,15.9-15.2,23.9c-0.5,0-0.9,0.2-1.2,0.7
				c-0.9,1.9-1.8,3.7-2.7,5.6c-3.5,5.6-6.9,11.3-10.2,17c0.7-3.1,1.4-6.2,2.2-9.3c8.6-14.1,18-27.9,28.2-40.8
				C616.2,344.9,615.9,345.9,615.5,346.9z M422,429.8c1.6-3.5,3.2-7,4.9-10.6c0.5-1,0.9-1.9,1.3-2.9c-3.6,11.2-8.9,21.9-14.2,32.5
				C416.9,442.6,419.7,436.3,422,429.8z M326,345.2c-17.9,43.2-38,85.4-57.8,127.7c-7.7,16.4-15.2,32.9-22.5,49.5
				c0.5-1.5,1-2.9,1.6-4.4c3.5-9.7,6.9-19.4,10.5-29.1c9.3-20.2,18.9-40.3,28.7-60.2c0.9-1.7-1.7-3.2-2.6-1.5
				c-4.3,8.7-8.6,17.5-12.8,26.3c6.9-17.8,14.4-35.2,21.8-52.8c4.2-10.1,8.3-20.4,12.4-30.7c2.7-5,5.5-9.9,8.4-14.7
				c3.2-5.2,6.5-10.4,9.7-15.7C325.6,340.4,327.2,342.4,326,345.2L326,345.2z M275.2,434.9c-0.6,1.6-1.3,3.1-1.9,4.7
				c-6.4,16-12.5,32.2-18.4,48.3c-1.6,3.5-3.2,7.1-4.8,10.6c5.5-15.3,11.1-30.6,16.8-45.8C269.7,446.8,272.4,440.9,275.2,434.9
				L275.2,434.9z M234.5,866.8c1-2.4,2-4.7,3-7.1c-4,10.2-8,20.3-11.9,30.5c0.4-2.2,0.9-4.4,1.4-6.7
				C229.5,878,232,872.4,234.5,866.8L234.5,866.8z M207.6,1187c-2.4,6.8-4.9,13.6-7.4,20.3c-10.4,21.8-21,43.5-31.6,65.1
				C181.6,1243.9,194.6,1215.5,207.6,1187L207.6,1187z M202.9,1208.8c2.3-4.9,4.6-9.7,7-14.6c-1.5,4-2.9,8-4.4,11.9
				c-1.6,2.9-3.2,5.8-4.9,8.6C201.4,1212.7,202.1,1210.7,202.9,1208.8L202.9,1208.8z M242,1459.4c-2.8,7-5.6,13.9-8.4,20.9
				c1.4-4.5,2.9-9,4.4-13.5C239.4,1464.4,240.7,1461.9,242,1459.4L242,1459.4z M240.7,1475.2c0.6,0.8,2.1,1,2.6-0.1
				c3.8-8.1,7.5-16.3,11.1-24.5c3.3-6.3,6.4-12.8,9.5-19.2c-1.9,4.9-3.8,9.8-5.7,14.8c-2.4,6-4.7,12-7.2,18
				c-5.3,10-10.9,19.9-17,29.5c1.8-5.5,3.6-11,5.6-16.4C239.9,1476.5,240.3,1475.9,240.7,1475.2L240.7,1475.2z M426.6,1440.5
				c0,1.6,0.2,3.2,0.6,4.7c-1.6,3.1-3.3,6.1-5.1,9.1C423.6,1449.8,425.1,1445.2,426.6,1440.5L426.6,1440.5z M436.7,1439.9
				c-2.8,5.3-5.5,10.7-8.2,16.1c-0.9,1.7-1.8,3.3-2.7,5c1.9-5.2,3.5-10.5,5.1-15.8C432.8,1443.4,434.7,1441.7,436.7,1439.9
				L436.7,1439.9z M538.1,1556.4L538.1,1556.4c0.1-0.1,0.2-0.3,0.4-0.4c-0.2,0.6-0.5,1.2-0.7,1.8
				C537.8,1557.4,537.9,1556.9,538.1,1556.4z M727.5,1404.4c-0.9,2.4-1.8,4.8-2.6,7.3c-5.3,11.4-10.7,22.7-17,33.6
				c-0.8,1.3-1.5,2.6-2.3,3.9C712.9,1434.3,720.2,1419.4,727.5,1404.4L727.5,1404.4z M721.8,1425.3c0,0.5,0.2,1.1,0.5,1.4
				c-2.2,4.6-4.4,9.2-6.5,13.8c-2,3.1-4.2,6-6.6,8.7C713.8,1441.4,717.9,1433.4,721.8,1425.3z M869.7,600.7
				c-2.8,5.4-5.6,10.7-8.5,16c1-2.1,1.9-4.3,2.9-6.4C866,607.1,867.8,603.9,869.7,600.7L869.7,600.7z M843.3,648.2
				c-1.3,2.4-2.7,4.7-4,7.1c0.5-1.3,0.9-2.6,1.4-3.9c0.1-0.3,0.2-0.5,0.3-0.8c2.2-4,4.5-7.9,6.7-11.8
				C846.2,642,844.8,645.1,843.3,648.2L843.3,648.2z M746.3,340.6c0-0.1,0-0.2,0-0.3c0-0.1,0.1-0.2,0.2-0.2
				C746.4,340.3,746.3,340.4,746.3,340.6L746.3,340.6z M619.3,335.8c-7.8,9.4-15.1,19.2-22,29.4c2.2-4.4,4.3-8.8,6.5-13.3
				c5.4-8.4,11.3-16.4,17.9-23.8C621,330.7,620.2,333.2,619.3,335.8L619.3,335.8z M435.5,420.4c-23.6,48.6-46.6,97.5-69.1,146.6
				c-4.5,9.8-8.9,19.6-13.4,29.4c3.1-8.3,6.3-16.5,9.5-24.8c13.6-30.4,27.2-60.8,41.7-90.8c10.1-21,20.6-41.8,31.8-62.2
				C435.9,419.3,435.8,419.8,435.5,420.4L435.5,420.4z M425.8,431.3c2.6-5.9,4.9-12,6.6-18.2c0.9,0.3,1.7,0.9,2.4,1.6
				C431.7,420.2,428.7,425.8,425.8,431.3L425.8,431.3z M156.3,410.7c3.3-5.9,6.4-12,9.4-18c-3.4,8.6-7.2,17-11,25.4
				c-0.3-0.4-0.4-0.9-0.6-1.4C154.9,414.7,155.6,412.7,156.3,410.7L156.3,410.7z M171,404.4c-0.7,0-1.4,0.5-1.4,1.4
				c0,0.4,0,0.8,0,1.2c-2,3.8-4.1,7.6-6.2,11.3c-0.6,1.1-1.5,1.8-2.4,2.1c1.5-5,3-9.9,4.6-14.9c3.6-11.2,7.5-22.3,13-32.8
				c5.4-10.2,11.8-19.9,18.2-29.5c0.6-0.9,1.2-1.8,1.8-2.6c-0.4,2.1-1.1,4.2-1.6,5.7c-2.7,8.4-6.3,16.4-9.9,24.4
				C182,382.2,176.7,393.4,171,404.4L171,404.4z M157.9,420.6c-0.3-0.1-0.5-0.2-0.8-0.3c1-2.2,1.9-4.4,2.9-6.6
				C159.3,416,158.6,418.3,157.9,420.6L157.9,420.6z M166.3,506.7c-2.6,8.1-5.2,16.2-7.8,24.3c-1.4,3.7-2.7,7.4-4.1,11.1
				c-4.7,10-9.5,20-14,30.1c6.9-24.6,17-48.1,27.7-71.3C167.5,502.8,166.9,504.8,166.3,506.7L166.3,506.7z M211.2,576.3
				c-2.5,6.3-5.1,12.7-7.6,19c-3.1,7.6-6.1,15.1-9.2,22.7C199.9,604,205.5,590.1,211.2,576.3L211.2,576.3z M250.7,488
				c-6.2,17.2-12.4,34.4-18.7,51.5c-1.4,3.4-2.9,6.8-4.3,10.1c4.9-13.9,10-27.9,15.2-41.7C245.5,501.3,248.1,494.6,250.7,488
				L250.7,488z M141.8,792.3c-0.9,2.9-1.8,5.8-2.8,8.7c-0.2,0.3-0.3,0.7-0.5,1c0.1-1.4,0.2-2.8,0.2-4.1c0-0.5-0.2-0.8-0.4-1.1
				c1.2-2.2,2.6-4.3,4.1-6.4C142.1,791,141.9,791.7,141.8,792.3L141.8,792.3z M124,853.1c-0.2,0.3-0.4,0.6-0.6,1
				c0.7-6.3,2.2-12.5,4.2-18.6C126.5,841.3,125.4,847.3,124,853.1z M179.2,979c-0.3,0.8-0.6,1.6-0.9,2.4c-1.2,3.1-2.5,6.3-3.9,9.4
				C176,986.9,177.6,983,179.2,979L179.2,979z M187.3,981.7c9.9-24,18.5-48.3,26.4-72.8c2.9-5,5.7-10,8.3-15.2
				c-0.7,3.5-1.4,7.1-2.1,10.7c-0.1,0.3-0.1,0.5-0.1,0.8c-2.2,5.6-4.4,11.3-6.6,16.9c-0.6,1.5-1.1,3-1.7,4.5
				c-10,24.3-19.9,48.6-29.9,72.9C183.5,993.5,185.4,987.6,187.3,981.7L187.3,981.7z M209.3,1205.3c2.9-5.4,5.7-10.9,8.4-16.4
				c-4.5,9.7-8.9,19.5-13.4,29.2c1.1-3.1,2.2-6.1,3.3-9.2C208.2,1207.8,208.7,1206.6,209.3,1205.3L209.3,1205.3z M214.4,1513.8
				c-2.1-1.3-3.4-3.8-1.5-6.4c2.1-3,4.2-6,6.2-9C217.5,1503.5,216,1508.7,214.4,1513.8L214.4,1513.8z M217.3,1514.6
				c2.6-8.3,5-16.7,7.5-25.1c1-1.6,1.9-3.1,2.9-4.7c1-1.7,2.1-3.4,3.1-5.2c-1.3,4-2.6,8-3.8,12.1c-0.3,1.1,0.5,1.8,1.4,1.8
				c-1.6,4.1-3.3,8.1-5,12.1c-1.1,2.8-2.3,5.5-3.4,8.2C219.1,1514.4,218.2,1514.6,217.3,1514.6L217.3,1514.6z M228.8,1500.2
				c-0.2,0.8-0.5,1.5-0.7,2.3c0,0.1-0.1,0.2-0.1,0.3c-0.3,0.4-0.6,0.8-0.9,1.3C227.7,1502.8,228.3,1501.5,228.8,1500.2z
				 M415.5,1469.2c0.6,0.1,1.2-0.1,1.5-0.7c2.2-3.4,4.3-6.9,6.3-10.5c-3.9,11.3-8.6,22.4-14.7,32.8
				C411,1483.7,413.3,1476.5,415.5,1469.2L415.5,1469.2z M534.1,1543.9c1.2-2,2.3-4,3.4-6c-0.4,1.7-0.8,3.3-1.1,5
				c-0.8,3.8-1.5,7.9-1,11.8c-1.5,6.3-3.1,12.6-4.6,18.9c-1.1,2.3-2.2,4.5-3.2,6.8c-0.7,1.4-1.7,2.1-2.7,2.4
				c-0.1-8.2,0.9-16.6,2.4-24.7C529.5,1553.4,531.8,1548.6,534.1,1543.9L534.1,1543.9z M688.9,1483.4c4.1-8.3,8.2-16.7,12.3-25
				c0.5,0.5,1.2,0.7,1.8,0.3c2.6-1.7,4.9-3.8,7.1-6c-5.8,12.4-11.3,24.9-16.4,37.6c-0.1,0.2-0.3,0.4-0.4,0.7
				C690.1,1490.7,687,1487.2,688.9,1483.4L688.9,1483.4z M949.7,489.7c0,0,0,0.1-0.2,0.3c0,0.1-0.1,0.2-0.2,0.3
				c-0.4,0.5-0.8,0.9-1.2,1.4c0,0,0,0,0,0c-0.1,0.1-0.1,0.2-0.3,0.4c-0.3,0.4-0.7,0.9-1,1.3c-0.8,1.1-1.5,2.1-2.3,3.2
				c-4.1,5.9-7.9,12-11.8,18.1c-0.1-0.5-0.2-0.9-0.3-1.4c0.3-1.2,0.6-2.4,0.9-3.6c2.8-8.7,5.7-17.4,8.5-26.1
				c2.3-2.5,5.2-4.1,8.7-1.3C953.7,484.7,952.3,488.2,949.7,489.7L949.7,489.7z M760.7,337.4c-0.2,0.2-0.4,0.5-0.6,0.8
				c0-0.3-0.1-0.6-0.2-0.9c-0.2-1-1.4-1.2-2.2-0.9c-3.2,1.4-6.1,3.3-8.7,5.6c0.8-2.9,1.5-5.8,2.2-8.7c0.6-0.7,1.2-1.5,1.8-2.2
				c3.3,1,6.8,2.3,8.8,4C761.7,335.9,761.3,336.6,760.7,337.4L760.7,337.4z M612,335c0.9-1.9,1.9-3.8,2.8-5.7c0.9-1.9,2.5-2.6,4-2.5
				C616.5,329.5,614.2,332.2,612,335z M514,346.1c1.7-5.4,3.4-10.7,4.8-16.2c0.3-1.1,0.6-2.1,0.9-3.2c2.5-3.7,4.9-7.5,7.3-11.2
				c-1.6,4.8-3.3,9.5-5,14.3C519.3,335.1,516.6,340.6,514,346.1L514,346.1z M522.5,314.4c0.5-2.7,0.9-5.5,1.2-8.2
				c0.4-1,0.7-2.1,1.1-3.1c3.8-6.8,7.7-13.5,11.8-20.2c-1.6,6.4-3.3,12.8-5.2,19.1C528.3,306,525.4,310.2,522.5,314.4L522.5,314.4z
				 M380.1,287.8c-4.8-0.1-9.6-0.5-14.4-0.9c-0.4-0.1-0.8-0.3-1.3-0.4c8.4,0.1,16.8,0.1,25.2,0.2C386.5,287,383.3,287.4,380.1,287.8
				L380.1,287.8z M373,291.4c-2.6,0-5.2-0.1-7.8-0.2c-0.1,0-0.2,0-0.2,0c1.3,0,2.7,0,4,0c0.1,0,0.2,0,0.4-0.1
				C370.5,291.2,371.8,291.3,373,291.4L373,291.4z M293.9,291.2c-0.1,0-0.2,0-0.4,0c-7.2-0.8-14.5-1.6-21.8-2.2
				c6.1-0.7,12.2-1.2,18.4-1.6c2,0.5,3.9,1.4,5.3,2.9C294.9,290.6,294.4,290.9,293.9,291.2L293.9,291.2z M159,714.1
				c13.5-34.3,27.3-68.5,41.2-102.6c7.3-18,14.5-36.1,21.7-54.2c-5,14.3-10,28.5-15,42.8c-0.6,1.8-1.3,3.6-1.9,5.4
				c-3.3,8.4-6.5,16.8-9.6,25.2c-2.7,6.4-5.3,12.8-7.8,19.3c-2.8,7.1-5.5,14.2-8.2,21.3c-8.9,21.6-18,43.1-27.7,64.4
				C154.1,728.4,156.5,721.3,159,714.1L159,714.1z M151,764.1c-0.2,0.5-0.4,1.1-0.6,1.6c-1.9,5.7-3.8,11.3-5.7,17
				c-2,2.1-3.9,4.4-5.5,6.8c-0.6-0.4-1.3-0.4-1.8,0c2.3-6.2,4.9-12.3,7.4-18.4c6.7-16.4,12.9-33,19-49.6
				C159.3,735.7,155.1,749.9,151,764.1L151,764.1z M120.3,846c1.8-7.1,3.7-14.1,5.9-21.1c0.5,0.4,1.3,0.5,1.9,0.2
				c-2.9,7.5-5.4,15.1-6.9,22.9c-0.7,3.6-1.2,7.2-1.3,10.8c0,1,1.2,1.8,2.1,1.4c-1,3.3-2,6.5-3.3,9.7c-1.7,4.2-3.7,8.4-6.2,12.2
				C114.9,870.1,117.3,858,120.3,846L120.3,846z M146,1062.8c-0.3,1.5-0.7,3-0.9,4.4c-0.9,1.8-1.7,3.5-2.6,5.3
				C143.6,1069.3,144.8,1066,146,1062.8L146,1062.8z M156.4,1040c6-15.6,13.5-30.5,19.9-45.9c11.9-28.3,22-57.4,32.1-86.4
				c0.1-0.1,0.1-0.2,0.1-0.3c-1.8,5.3-3.5,10.6-5.3,15.9c-6.2,18.3-12.1,36.7-18,55.1c-9.9,24.2-20.6,48-31.9,71.7
				c-0.6,1.2-1.1,2.4-1.7,3.6C153,1049,154.6,1044.5,156.4,1040L156.4,1040z M174.8,1010.7c-3,9.3-6.1,18.5-9.3,27.7
				c-0.5,1.5-1,3-1.5,4.4c-4.9,12-9.7,24-14.6,36c-0.9,1.8-1.9,3.5-3,5.2c0-5.4,0.6-10.7,1.6-16
				C157.2,1049.1,166.2,1030,174.8,1010.7L174.8,1010.7z M154.1,1308.4c0.1,0.2,0.3,0.3,0.5,0.4c-0.5,0.6-1.1,1.3-1.6,1.9
				C153.3,1310,153.7,1309.2,154.1,1308.4L154.1,1308.4z M169.9,1290.8c6.3-11.6,11.6-23.7,16.9-35.8c1.9-4.3,3.8-8.6,5.7-12.9
				c-1.1,3-2.1,5.9-3.2,8.9c-8.4,18.3-16.7,36.7-25,55c-1.4,0.3-2.8,0.5-4.2,0.5C163.7,1301.6,166.9,1296.2,169.9,1290.8
				L169.9,1290.8z M382.7,1552.1c-1.9-0.9-3.3-2.9-2.4-5.6c9.5-29.7,21.4-58.5,35-86.6c-0.1,0.2-0.1,0.5-0.2,0.7
				c-4.2,13.3-8.4,26.5-12.6,39.8c-0.3,1,0.3,1.6,1.1,1.8c-6.4,12.1-12.8,24.3-19.1,36.5c-0.9,1.7,1.6,3.2,2.6,1.5
				c3.5-5.7,7-11.4,10.3-17.2c-2.9,6.3-5.6,12.6-8.5,18.9C386.8,1545.4,384.8,1548.7,382.7,1552.1L382.7,1552.1z M518.8,1575.3
				c1.3-2.8,2.7-5.6,4-8.3c-0.7,5.2-1.1,10.3-1.1,15.6C519.2,1581.5,517.3,1578.5,518.8,1575.3L518.8,1575.3z M912.4,1478.6
				c0.1-0.6,0.2-1.2,0.4-1.8c0.2-1.3-1.5-2.7-2.5-1.5c-2.7,3.2-5.2,6.6-7.7,9.9c0.6-2.6,1.1-5.3,1.4-8c1.1-1.8,2.2-3.5,3.3-5.2
				c2.1-3.1,4.3-6.2,6.7-9.1c1.8,0.4,3.4,1.6,4,3.2c-1.5,3.7-3.1,7.3-4.8,11C912.9,1477.7,912.7,1478.2,912.4,1478.6L912.4,1478.6z
				 M777.7,292c9.3-0.2,18.8-1,28.1-0.7c1.3,0.1,2.7,0.3,4,0.4c-6.3-0.1-12.6-0.2-18.9,0c-3.8,0.1-7.7,0.3-11.5,0.6h-13.1
				C770.1,292.2,773.9,292.1,777.7,292L777.7,292z M761.4,331.8c-2-1-4.1-2-6.2-2.8C757.6,327.9,760.3,329.5,761.4,331.8z
				 M676.1,283.5c0.6-0.2,1-0.9,1.1-1.5c11.1,0.1,22.3,0.5,33.3,2c6.3,0.8,12.4,2.2,18.5,3.8c-7.8,0-15.5,0.1-23.3,0.2
				c0.7-0.9,0.2-2.5-1.2-2.5c-8.9,0.1-17.8,0.7-26.7,1.7c-3.3-0.3-6.5-0.7-9.8-1.1C670.8,285.4,673.5,284.5,676.1,283.5L676.1,283.5
				z M656.4,281.8c3.8,0,7.6,0.1,11.4,0.1c1.3,0,2.5,0,3.8,0c-4.5,1.5-9.2,2.4-13.9,2.9c-3.1-0.1-6.2-0.1-9.3-0.1
				c-1.4-0.2-2.8-0.4-4.1-0.7C648.4,283.7,652.4,283,656.4,281.8L656.4,281.8z M639.6,281.3c0.8,0,1.6,0.1,2.5,0.1
				c-1.8,0.2-3.7,0.3-5.5,0.4C637.6,281.7,638.6,281.5,639.6,281.3L639.6,281.3z M633.1,290.4c1.6,0.1,3.3,0.4,4.9,0.6
				c-8.2-0.6-16.5-1.1-24.8-1.5c0.7,0,1.3-0.1,2-0.1C621.2,289.6,627.2,289.9,633.1,290.4z M611.1,279c2.3,0,4.5,0.1,6.7,0.3
				c-2.1,0.2-4.2,0.4-6.4,0.5c-2.2-0.2-4.5-0.5-6.7-0.7C606.9,279,609,279,611.1,279L611.1,279z M560.5,279.5
				c5.9-0.1,11.9-0.1,17.8-0.2c5.8,0.5,11.5,1.1,17.3,1.7c-0.2,0-0.5,0-0.7,0.1c-11.8-0.5-23.5-0.7-35.3-0.8
				C559.9,280,560.2,279.7,560.5,279.5L560.5,279.5z M553.6,280c-0.2,0.1-0.4,0.1-0.7,0.2c-0.9,0-1.8,0-2.7,0
				C551.3,280.1,552.5,280,553.6,280L553.6,280z M553.2,283.3c6.5,0,13,0.1,19.5,0.3c-0.5,0.2-1,0.4-1.5,0.6
				c-1.7,0.1-3.4,0.3-5.1,0.4c-5.9-0.1-11.9-0.2-17.8-0.3C549.9,284.1,551.6,283.8,553.2,283.3L553.2,283.3z M547.4,284.4l-6,12
				c-0.7,1.3-1.6,2.1-2.7,2.4c-2.5,4.4-5,8.8-7.4,13.2c0.7-2.1,1.4-4.2,2-6.3c2.3-3.5,4.5-7,6.9-10.4c0.9-1.4-1.3-3.2-2.4-1.8
				c-0.1,0.1-0.2,0.2-0.2,0.3l0,0l0,0c-0.4,0.5-0.8,1-1.1,1.5c1.7-5.9,3.2-11.9,4.5-17.9C544.7,275.5,549.8,279.6,547.4,284.4
				L547.4,284.4z M547.6,276.7c-2.2,0-4.4,0.1-6.6,0.1c0-0.2,0.1-0.4,0.1-0.6C543.4,276.3,545.5,276.5,547.6,276.7z M539,271.8
				c-0.1,0.4-0.1,0.8-0.2,1.2c-0.2,0-0.5,0-0.8-0.1C538.4,272.6,538.7,272.2,539,271.8L539,271.8z M506.7,277.2c0.4,0,0.8,0,1.2,0
				c1.4,0,1.8-1.5,1.1-2.4c1,0,2-0.1,3-0.1c0.1,0.2,0.2,0.3,0.3,0.5c0.6,1.7,3.3,1.1,2.9-0.6c1.3,0,2.6,0,4,0
				c4.3,0.2,8.7,0.5,13,0.9c-0.4,0.5-0.8,1-1.1,1.5c-4,0.1-7.9,0.2-11.9,0.3c-4.1,0.1-8.4,0-12.5,0.3
				C506.7,277.5,506.7,277.3,506.7,277.2L506.7,277.2z M480.4,291.8c1.4,0.1,2.8,0.3,4.1,0.4c-3.2,0-6.3,0-9.5,0
				C476.8,292.1,478.6,292,480.4,291.8L480.4,291.8z M470.3,279.2c-0.3,0.1-0.7,0.1-1,0.2c-1.7,0.1-3.3,0.2-5,0.4
				C466.3,279.5,468.3,279.3,470.3,279.2L470.3,279.2z M452.1,291.1c1.8-0.1,3.5-0.2,5.3-0.2c-3,0.3-6.1,0.6-9.1,0.8
				c-0.4,0-0.9,0-1.3,0C448.6,291.5,450.4,291.3,452.1,291.1L452.1,291.1z M443.8,278.5c-0.4,0-0.7,0.1-1.1,0.1
				c-4.9,0.6-9.8,1.2-14.8,1.8c-0.7-0.1-1.3-0.2-2-0.3c2.4-0.2,4.8-0.5,7.2-0.7C436.7,279.1,440.3,278.8,443.8,278.5L443.8,278.5z
				 M431.9,276.1c2,0,4-0.1,6-0.1c-0.7,0.1-1.5,0.1-2.2,0.2c-7.7,0.7-15.5,1.6-23.2,1.8c-3.4-0.5-6.7-0.9-10.1-1.2
				C412.2,276.5,422.1,276.2,431.9,276.1L431.9,276.1z M398.5,281c3.3-0.2,6.5-0.1,9.8-0.1c1.3,0,2.6,0,3.9,0
				c1.7,0.2,3.4,0.5,5.1,0.8c-0.5,0-1,0-1.6,0c-5.9-0.1-11.8-0.3-17.7-0.4c-0.3,0-0.7-0.1-1-0.1C397.5,281,398,281,398.5,281z
				 M392,279c-0.9,0.3-1.8,0.7-2.5,1.3c-0.1,0.1-0.2,0.2-0.3,0.3c-3.4-0.3-6.7-0.3-10.1-0.1c-0.6-0.2-1.2-0.4-1.8-0.6
				C382.1,279.2,387,278.9,392,279z M368.6,278.1c1.1,0,2.2,0,3.3-0.1c-0.5,0.6-0.6,1.6,0,2.1c-8.3-0.5-16.6-0.5-24.9-0.2
				c-1.5-0.2-3-0.4-4.6-0.6C350.9,277.2,360.1,278.3,368.6,278.1L368.6,278.1z M341.7,292.3h-16.3c4.2-0.2,8.3-0.4,12.5-0.5
				C339.1,292,340.4,292.1,341.7,292.3L341.7,292.3z M298.8,278.9c12.3,0.2,24.7-0.1,37-0.4c-0.1,0-0.1,0.1-0.2,0.1
				c-0.7,0.3-0.8,1.1-0.6,1.7c-11.2,0.4-22.5,0.7-33.6,1.4c0.2-0.8-0.2-1.6-1-1.9c-1-0.4-2-0.6-3.1-0.9
				C297.7,278.8,298.3,278.9,298.8,278.9L298.8,278.9z M310.5,286.4c1.4,0.1,2.9,0.3,4.3,0.4c-0.1,0.8,0.5,1.8,1.5,1.8
				c2.3,0.1,4.7,0.2,7,0.3c0.7,0.2,1.4,0.3,2.1,0.5c-5.1,0.2-10.2,0.5-15.3,0.7c-3.6,0.1-7.4,0.5-11.2,0.8c0-0.3,0-0.7-0.2-1
				c-0.6-1.1-1.5-2-2.4-2.8C301,286.8,305.8,286.6,310.5,286.4L310.5,286.4z M295.6,281.6c-0.5,0.2-0.9,0.4-1.4,0.5
				c-0.7,0-1.5,0.1-2.2,0.2c-5-0.1-10-0.4-14.9-0.9C283.3,280.7,289.6,280.3,295.6,281.6L295.6,281.6z M265.5,282.6
				c3,0.6,6,1.1,9,1.4c-0.4,0-0.8,0.1-1.1,0.2c-2,0.2-4,0.5-5.9,0.8c-0.7,0-1.4,0-2,0c-9.2,0.1-18.2,0.8-27.3,1.6
				c-0.3,0-0.6,0-0.9,0C246.6,285.1,256,283.6,265.5,282.6L265.5,282.6z M219,291.4c-0.6,0.2-1.3,0.5-1.9,0.8
				c-0.6,0.1-1.1,0.1-1.7,0.2h-6.9C212,292,215.5,291.7,219,291.4L219,291.4z M186.3,290.4c2.3,0,4.6-0.1,6.9-0.2
				c-3.5,0.2-7,0.4-10.4,0.5C184,290.7,185.1,290.6,186.3,290.4L186.3,290.4z M105.6,557.9c0.3-8.5,0.7-17,1.3-25.5v16.8
				C106.5,552.2,106,555,105.6,557.9z M104.3,290c0.1,1.1,0.1,2.2,0.2,3.2c-0.2,0-0.4,0-0.6,0C104,292.2,104.2,291.1,104.3,290z
				 M103.7,296.3c0.3,0,0.7,0,1,0c0,0.1,0,0.2,0,0.3c-0.4,0-0.7,0-1.1,0.1C103.7,296.6,103.7,296.4,103.7,296.3z M104.5,321.7
				c-0.7-7.2-1.2-14.6-1-22c0.5,0,0.9,0,1.4-0.1c0.7,12.4,1.1,24.9,1.1,37.4C105.5,331.9,104.9,326.8,104.5,321.7L104.5,321.7z
				 M102.4,782.2c0.2,0.9,0.4,1.7,0.6,2.6c0.1,0.4,0.4,0.7,0.7,0.9c0,0.8,0,1.6,0,2.3c0,2.5,0,4.9,0,7.4
				C103.2,790.9,102.7,786.5,102.4,782.2L102.4,782.2z M102.6,559.3c-0.9-0.5-2.3-0.1-2.4,1.2c-0.5,35.6,0.1,71.2-0.2,106.8
				c-5.2-15.8-3.9-34.3-3.2-50.2c1.2-25.5,1.3-50.9,3-76.3c2-29.6,4.9-59.2,5.7-88.9c0.1-1.7,0.1-3.5,0.1-5.2
				c0.3,0.3,0.7,0.4,1.1,0.4v48.9c-0.5,6.8-1.1,13.6-1.7,20.5C104,530.7,103.1,545,102.6,559.3L102.6,559.3z M129.2,804.3
				c4.6-14.6,9.3-29.1,14.1-43.6c4.9-10.3,9.7-20.6,14.4-31.1c-3.7,9.8-7.3,19.6-11.1,29.4c-6.6,16.9-14.6,33.5-18.6,51.3
				c-1.1,2.7-2.1,5.3-3.2,8C126.2,813.7,127.7,809,129.2,804.3z M113.1,864.2c-0.1,0.3-0.1,0.5-0.2,0.8c-1.6,7.5-3,14.9-4.5,22.4
				c-0.2,1.2,0.9,2.2,1.9,1.8c-1.8,3.5-3.8,6.8-6,10C107,887.5,109.9,875.8,113.1,864.2L113.1,864.2z M104.7,1154.4
				c0.9,4.2,0.9,8.7,0.8,12.9c0,1.2,0,2.4,0,3.6c-0.3,0.7-0.5,1.4-0.7,2.2C104.2,1166.9,104.3,1160.6,104.7,1154.4z M105.7,1195.2
				c0.1,1.8,0.3,3.7,0.4,5.5c-0.3,2.6-0.7,5.2-1,7.9c0-2,0.1-4.1,0.2-6.1C105.4,1200.1,105.5,1197.7,105.7,1195.2z M106.9,1573.9
				c-0.2-2.8-0.3-5.6-0.5-8.4c0.1-0.2,0.1-0.4,0.2-0.6c0.2-1.8,0.2-3.5,0.3-5.3V1573.9z M106.9,1551.2c-0.2-5.8-0.7-11.6-1.4-17.4
				c-0.3-2.5-0.5-5.1-0.8-7.6c0-1-0.1-1.9-0.1-2.9c0.5-7.9,1.1-15.8,1.2-23.8c0.2,2.1,0.4,4.2,0.6,6.3c0.1,2.2,0.3,4.4,0.4,6.6
				C106.9,1512.5,106.9,1551.2,106.9,1551.2z M106.9,1305.9c0,3.5,0,6.9,0,10.4c-0.9,8.6-1.6,17.3-2.1,25.9c0-8.4,0.2-16.9,0.7-25.3
				c0.3-5.4,0.8-10.9,1.4-16.3L106.9,1305.9L106.9,1305.9z M106.9,1278.4c-0.8,4.6-1.5,9.2-2.1,13.9c0-2.6,0-5.2,0.1-7.7
				c0.6-6.2,1.3-12.4,2-18.6V1278.4z M106.9,1241.4c-0.7,1.8-1.3,3.5-1.9,5.3c0-3.3,0-6.5,0-9.8c0.1-0.7,0.1-1.3,0.2-2
				c0.5-5.7,1.1-11.4,1.7-17.1V1241.4L106.9,1241.4z M106.9,1149.3c-0.6-3.1-1-6.2-1-9.4c0.3-3.3,0.7-6.5,1-9.8V1149.3z
				 M115.6,1624.8c0-0.3,0-0.7,0-1c0,0,0.1,0,0.1,0C115.6,1624.2,115.6,1624.5,115.6,1624.8z M132.8,1098.7
				c3.7-7.3,7.3-14.6,10.9-21.9c-0.4,3.9-0.5,7.8-0.3,11.8c0,0.7,0.7,1.4,1.4,1.5c-0.9,2.4-1.9,4.7-2.9,7.1
				C140.3,1101.4,134.9,1101.3,132.8,1098.7L132.8,1098.7z M142.8,1329.3c1.5-3.3,3-6.6,4.4-9.8c0.4,0.1,0.9,0,1.4-0.3
				c3.4-2.9,6.5-6.1,9.2-9.6c1.6,0.2,3.2,0.2,4.8,0c-3.8,8.3-7.5,16.6-11.3,24.9C148.8,1340.2,140.2,1335.1,142.8,1329.3z
				 M146.2,1622.9h1.4c7.3,0.4,14.5,1.1,21.8,2c0.2,0.1,0.4,0.3,0.6,0.3c0.2,0.1,0.4,0.1,0.6,0.1
				C162.5,1624.9,154.3,1624.2,146.2,1622.9L146.2,1622.9z M180.8,1624.1c-0.2-0.3-0.4-0.5-0.9-0.7c-0.5-0.2-1-0.3-1.5-0.5h12.2
				c5.7,0.2,11.4,0.2,17.2,0.2c1.1,0,2.1,0,3.2,0c0,0.7,0.5,1.4,1.4,1.5c1.9,0,3.8,0,5.8,0c2.4,0,4.7,0,7.1,0.1
				c-1.6,0.2-3.1,0.3-4.7,0.5c-0.6,0.1-1.2,0.1-1.8,0.2c-0.6,0-1.2,0.1-1.7,0.1C204.9,1625.9,192.8,1625.8,180.8,1624.1
				L180.8,1624.1z M296.9,1628.5c-1.9,0-3.9,0-5.8,0c-0.3,0-0.6,0.1-0.8,0.2c-12,0.6-23.9,1.7-35.9,2.2c-12.7,0.6-25.6,0.7-38.2-1.3
				c15.2-0.9,30.4-2.3,45.7-3.6c15,0.1,30,0.5,45,0.8c7.1,0.1,14.2,0.2,21.3,0.1C317.9,1627.8,307.4,1628.2,296.9,1628.5
				L296.9,1628.5z M387.5,1552.1c1.4-2.9,2.7-5.8,4.1-8.8c0.2-0.4,0.5-0.7,0.7-1.1c-0.8,2.3-1.5,4.6-2.3,6.9
				C389.5,1550.6,388.6,1551.6,387.5,1552.1L387.5,1552.1z M398.3,1624.8c1.1-0.1,2.2-0.2,3.3-0.3c1.5-0.1,3-0.2,4.5-0.3
				c2.5-0.2,4.9-0.3,7.4-0.4c0.9,0,1.7,0,2.6,0C410.1,1624.1,404.2,1624.5,398.3,1624.8L398.3,1624.8z M489.8,1625
				c-17.9,0.2-35.8,0-53.7,0.1c3.3-0.3,6.6-0.7,9.9-1.1c24,0.2,48,0.4,72-0.2c4.2-0.1,8.4-0.2,12.6-0.4
				C517,1624.4,503.4,1624.8,489.8,1625L489.8,1625z M675,1625.2c-10.8-0.4-21.6-0.6-32.4-0.8c-10.1-0.2-20.4,0-30.5-0.6
				c-2.7-0.2-5.5-0.4-8.2-0.9H677C676.3,1623.6,675.6,1624.4,675,1625.2L675,1625.2z M680.5,1625.5c-0.6,0-1.2-0.1-1.8-0.1
				c1-0.9,2-1.8,3.2-2.5h22.9c-1.4,0.2-2.8,0.5-4.3,0.7c-5.3,0.9-10.6,1.7-15.9,2.1C683.3,1625.6,681.9,1625.5,680.5,1625.5
				L680.5,1625.5z M739.3,1631.8c-9.7,0.5-19.5,0.6-29.2,1.7c-4.2,0.5-8.2,1.4-12.3,2.2c-2.7,0.5-5.4,0.9-8.1,0.8
				c9.2-3,18.9-4.5,28.6-5.4c7.1,0.4,14.2,0.6,21.3,0.8C739.5,1631.8,739.4,1631.8,739.3,1631.8L739.3,1631.8z M793.4,1628.2
				c-14.3,0.5-28.5,0.8-42.8,0.8c8.6-0.5,17.1-1,25.7-1.3c11.4-0.4,22.9-0.4,34.3-0.4c2.9,0,5.8,0,8.7,0
				C810.7,1627.5,802,1627.9,793.4,1628.2L793.4,1628.2z M886.6,1623.3c-2.7,0.1-5.4,0.2-8.1,0.3c-1,0-1.9,0.1-2.9,0.1
				c-19.2,0.6-38.5,0.6-57.7,0.5c-11.2,0-22.3-0.2-33.5,0.1c-11.4,0.3-22.9,0.9-34.3,1.6c-10.5,0.7-21.1,1.1-31.5,2.2
				c-0.1,0-0.2,0-0.3,0c-6.2-0.3-12.3-0.8-18.4-1.3c7-1.2,14.1-2.2,21-3.6c0.4-0.1,0.9-0.2,1.3-0.3h172.2
				C891.8,1623.1,889.2,1623.2,886.6,1623.3L886.6,1623.3z M898,1626.4c4.7,0.1,9.4,0.2,14.1,0.5
				C907.4,1626.7,902.7,1626.5,898,1626.4z M921.1,1546.8c6.5,0,6.4,10,0,10S914.7,1546.8,921.1,1546.8z M924.8,1624.8
				c-2.1-0.2-4.3-0.4-6.4-0.5c3.2-0.3,6.4-0.6,9.6-1C926.9,1623.7,925.8,1624.2,924.8,1624.8L924.8,1624.8z M938.4,1626.5
				c-2.5-0.4-5-0.7-7.6-1c3.7-1.1,7.6-1.4,11.5-1.4c1.8,0.3,3.6,0.5,5.4,0.6C944.7,1625.5,941.6,1626.2,938.4,1626.5L938.4,1626.5z
				 M973.2,292.3h-29.8c5.2-0.5,10.4-0.9,15.7-1.1c4.6,0.1,9.2,0.1,13.7,0.3c0.2,0,0.3,0,0.5,0C973.2,291.7,973.2,292,973.2,292.3z
				 M978.1,700c0.1-20.4-0.1-40.9-0.4-61.3c0.1-3.3,0.3-6.5,0.4-9.8c0.3-6,0.7-12,1-18c0.6,35,0,70.1,0.6,105.2
				c0.3,14,0.7,27.9,1.5,41.9c-1.7-11.9-2.9-23.8-3.7-35.7C977.9,714.8,978.1,707.4,978.1,700L978.1,700z M979.1,930.2
				c-0.1,0-0.2,0-0.3,0V930c0.1-2.1,0.1-4.3,0.2-6.4C979.1,925.8,979.1,928,979.1,930.2L979.1,930.2z M978.4,956.8c0-0.7,0-1.3,0-2
				c0.1-4.3,0.2-8.6,0.3-12.8C978.9,946.9,978.7,951.8,978.4,956.8L978.4,956.8z M979.6,1212.2c0,18.7,0.1,37.5,0.2,56.2
				c-2-16.4-3.1-32.9-4.3-49.4c-0.2-2.4-0.3-4.8-0.5-7.2c0.5-5.8,1-11.5,1.6-17.3c0.1,0.2,0.1,0.5,0.2,0.7
				c0.1,5.4,0.2,10.7,0.2,16.1C976.9,1212.8,978.8,1213.1,979.6,1212.2L979.6,1212.2z M976.3,765.6c0.1,1.8,0.2,3.6,0.2,5.5
				c0.2,6.2,0.4,12.3,0.5,18.5c-0.4-5.6-0.7-11.2-0.8-16.7C976.2,770.5,976.3,768,976.3,765.6L976.3,765.6z M975.9,482.3
				c0.1,3,0.1,6.1,0,9.1C975.9,488.3,975.9,485.3,975.9,482.3z M974.7,417.4c0,6.3,0.1,12.6,0.2,19c0,1.2-0.1,2.5-0.2,3.7V417.4
				L974.7,417.4z M974.7,509.8c0.5,0.2,1.1,0.1,1.5-0.4c-0.1,2.8-0.1,5.7-0.2,8.5c-0.4,0.1-0.8,0.5-1,1c-0.1,0.2-0.2,0.5-0.3,0.8
				V509.8L974.7,509.8z M974.7,530.5c0.3-1.7,0.7-3.3,1.2-5c-0.2,9.4-0.2,18.8,0.1,28.1c-0.1,7.8-0.2,15.6-0.4,23.4
				c0-0.5-0.1-0.9-0.1-1.4c-0.2-2.8-0.5-5.6-0.8-8.5L974.7,530.5L974.7,530.5z M974.7,825c0.1,1.2,0.1,2.4,0.2,3.6
				c0.7,13.3,1.4,26.6,2.1,40c-0.1,5.6-0.2,11.2-0.2,16.8c-0.4,0.2-0.7,0.6-0.7,1.2c0.1,7.8,0.1,15.6,0,23.4
				c-0.1,9.7-0.3,19.4-0.6,29.1c-0.3,1.3-0.5,2.7-0.8,4L974.7,825L974.7,825z M974.7,1172.1c0.1-0.4,0.1-0.9,0.2-1.4
				c-0.2,4.1-0.2,8.3,0.1,12.4c-0.1,0.7-0.2,1.4-0.2,2.2V1172.1z M974.7,1358.9v-50c0-0.8,0.1-1.7,0.1-2.5c0.2,2.1,0.3,4.2,0.4,6.3
				c-0.1,3.4-0.2,6.9-0.3,10.3c-0.3,12.2,0.8,24.5,1.4,36.7c0,0.7,0.1,1.5,0.1,2.2c-0.1,9.4-0.3,18.8-0.6,28.2
				c-0.2-2.2-0.4-4.4-0.4-6.6C975.1,1375.2,975,1367.1,974.7,1358.9L974.7,1358.9z M976.9,1590.2c0.3,7.5,0.5,14.9,0.7,22.4
				c-0.6,0.1-1.2,0.1-1.7,0.2C976.1,1605.3,976.5,1597.7,976.9,1590.2z M975.7,1617.4c0-0.5,0-1.1,0-1.6c0.6-0.1,1.2-0.2,1.9-0.2
				c0,0.6,0,1.1,0,1.7C977,1617.3,976.4,1617.3,975.7,1617.4L975.7,1617.4z M981.5,1616.8c0-0.6,0-1.1,0-1.7
				c4.9-0.5,9.9-0.7,14.8-0.2C991.4,1615.7,986.5,1616.3,981.5,1616.8L981.5,1616.8z"/>
			<path class="st1" d="M1040.8,1676.2c-0.4-0.2-0.7-0.3-1.1,0c0.3,0.6,0.4,1.4,0.9,1.8c0.1-0.1,0.1-0.6,0.5-0.3
				C1041.6,1676.8,1040.7,1676.9,1040.8,1676.2L1040.8,1676.2z"/>
			<path class="st1" d="M1042,1670.4c0.4-0.9-0.5-0.8-0.3-1.5c-0.4-0.2-0.7-0.3-1.1,0c0.3,0.6,0.4,1.4,0.9,1.8
				C1041.5,1670.6,1041.5,1670.1,1042,1670.4L1042,1670.4z"/>
			<path class="st1" d="M1044.2,1671.4c-0.3,0.1-0.8-0.4-0.9,0c0.3,0,0,0.6,0.3,0.7C1044.1,1672.2,1044.4,1672,1044.2,1671.4
				L1044.2,1671.4z"/>
			<path class="st1" d="M1041.1,1673.4c-0.3-0.3-0.5-0.6-0.9-0.5C1040.5,1673.1,1040.7,1673.6,1041.1,1673.4z"/>
			<path class="st1" d="M1040.5,1672.4c0-0.1-0.1-0.1,0-0.2c0.1,0.2,0.3,0.4,0.5,0.2c0-0.2-0.4-0.6-0.7-0.5
				C1040.3,1672,1040.1,1672.5,1040.5,1672.4L1040.5,1672.4z"/>
			<path class="st1" d="M1041.3,1672.6c0.1-0.1,0.7,0,0.5-0.7c-0.3,0-0.3-0.2-0.5-0.1C1041.1,1671.9,1040.9,1672.5,1041.3,1672.6
				L1041.3,1672.6z"/>
			<path class="st1" d="M1043.2,1669c-0.2-0.3-0.1-0.9-0.4-0.9C1042.8,1668.5,1042.9,1668.9,1043.2,1669z"/>
			<path class="st1" d="M1042.5,1669.9c0.1-0.1,0.5-0.4,0.1-0.6c0,0.1,0,0.2-0.1,0.1c0-0.2,0-0.5-0.3-0.4
				C1042.1,1669.3,1042.2,1669.8,1042.5,1669.9L1042.5,1669.9z"/>
			<path class="st1" d="M1043.1,1671c-0.2-0.2-0.5-0.3-1-0.2c0,0.3,0,0.6,0,0.8C1042.7,1671.5,1043.3,1671.6,1043.1,1671z"/>
			<path class="st1" d="M1043,1672.5c-0.8-0.2-0.9,0.5-0.7,1c0.4-0.1,0.4-0.1,0.8,0c-0.1-0.4,0.2-0.4,0.1-0.7
				C1043.1,1672.7,1043,1672.7,1043,1672.5L1043,1672.5z"/>
			<path class="st1" d="M1043.2,1673.8c-0.6,0.2-1,0.4-1.2,0.8c-0.5-0.4-1.2-0.9-1.9-0.6c0.7,0,1.3,0.4,1.8,0.7
				c-0.3,0.4-0.5,1-0.5,1.7c1,0.3-0.1,1.1,0.6,1.9c0.9,0.1,1.4-0.8,0.8-1.4C1044.1,1676.8,1043,1674.1,1043.2,1673.8L1043.2,1673.8z
				"/>
		</g>
	</g>
</g>
</svg>
