<?xml version="1.0" encoding="UTF-8"?>
<svg id="Livello_2" data-name="Livello 2" xmlns="http://www.w3.org/2000/svg" viewBox="0 0 481.39 329.16">
  <defs>
    <style>
      .cls-1 {
        fill: #f4e9e9;
      }

      .cls-1, .cls-2, .cls-3, .cls-4, .cls-5 {
        stroke-width: 0px;
      }

      .cls-2 {
        fill: #fff;
      }

      .cls-3 {
        fill: #9e8d8d;
      }

      .cls-4 {
        fill: #ffd6a5;
      }

      .cls-5 {
        fill: #e5bd93;
      }
    </style>
  </defs>
  <g id="Livello_3" data-name="Livello 3">
    <g>
      <g>
        <path class="cls-5" d="m448.33,310.04c.02,2.95-1.83,3.29-.09,4.76,9.1-.58,9.77,3.69,11.44-18.08,1.67-21.73-.52-46.65-.94-68.2-.6-30.75.38-61.85-.1-92.53-27.38-3.67-54.14-6.51-81.48-9.53-25.4-2.81-50.72,1.09-76.22-4.77-14.94-3.43-29.54.1-44.37,4.59-17.54,5.3-34.58,4.54-52.16,2.27-34.11-4.41-68.6.11-102.75.12-32.66.01-66.7.84-97.87,19.02C-.63,182.05,1.31,224.97.6,260.69c-.38,19.17-2.54,33.02,4.58,45.68,5.98,10.65,15.79,8.4,22.68,10.81,16.29,5.71,29.15,3.1,45.56.97,17.06-2.22,34.65,4.76,51.7,5.83,20.68,1.3,41.31,1.2,62.28-2.82,17.69-3.39,34.17,7.89,51.86,7.99,34.71.2,69.97-3.19,104.84-7.49,37.6-4.63,75.99-16.48,113.37-11.23-1.3,2.59-.66,3.06-.62,4.25l-8.52-4.65Z"/>
        <path class="cls-4" d="m479.54,263.32c-.96.11-1.94.12-2.93,0-.06-1.15-.11-2.25-.15-3.19,2.27-10.05,1.24-24.96.29-36.78.27-7.77.58-15.55.61-23.31.01-2.86-.84-4.36-1.74-4.52-.09-2.98-.2-5.97-.34-8.97.1-19.59,1.19-39.26,1.08-58.87,0-1.85-.46-3.29-1.05-4.06.18-2.45.39-4.88.66-7.28.31-.56.55-1.39.64-2.55.14-1.8.29-3.47.51-5.19.34-.34.66-.88.92-1.7.12-.22.23-.44.35-.67,1.84-3.26-.2-8.69-2.12-7.88-6.95,2.91-14.34,1.51-21.39,1.9-7.81.42-15.61,1.14-23.41,1.96-4.61.49-9.22,1.01-13.83,1.53-3.72-.7-7.45-1.27-11.19-1.48-12.24-.69-24.45,1.53-36.55,5.87-25.7,1.74-51.4,3.07-77.08,5.81-15.32,1.64-30.65,2.11-45.98.47-8.22-.88-16.41-1.34-24.6-1.51-9.36-3.02-18.84-3.29-28.27-1.96-3.96.56-7.9,1.55-11.83,2.69-9.13.34-18.26.78-27.4,1.47-15.15,1.15-30.32,2.25-45.48,1.31-17.25-1.07-34.28-5.18-51.57-3.7-8.48.72-16.92,2.9-25.4,3.17-4.2.13-8.39-.06-12.59-.31.33-2.35.65-4.71.92-7.11.65-5.9-3.56-8.42-4.21-2.51-.18,1.64-.37,3.27-.57,4.88l-.18-1.3c-.19-4.79-2.42-6.24-3.58-2.38-.69,2.3-1.11,5.01-1.38,7.92-1.52-.06-3.04-.11-4.56-.12-2.81-.02-2.81,9.41,0,9.43,1.38,0,2.76.05,4.14.11-.04,4.68.07,9.37.03,13.41-.12,13.14.08,26.26.11,39.4-.23,5.32-.44,10.65-.64,15.97-1.13,30.87-3.05,61.88-2.94,92.88,0,.02,0,.03,0,.04-.83-.2-1.71.75-2.03,3.26-.09.79-.2,1.56-.34,2.31-.39,2.41.43,5.13,1.34,5.8,5.96,4.42,11.83,3.21,17.94,2.15,2.95-.51,5.92-.25,8.88-.94,2.73-.63,5.46-1.47,8.21-1.66.8,0,1.6,0,2.4-.04.08,0,.15-.01.23-.01,6.05.11,11.98,1.17,18.08-.07,2.58-.52,5.15-1.2,7.72-1.89,7.32.15,14.63,1.1,21.96,1.05,8.16-.06,16.33-.61,24.48-1.39,1.48.41,2.96.84,4.44,1.28,6.51,1.94,13.03,3.81,19.58,4.33,6.28.5,12.55-.48,18.82-1.05,25.11-2.28,50.17-6.66,75.19-12.36,7.41-.19,14.81-.41,22.22-.76,9.45,1.93,15.27,4.09,15.81,6.45h9.69c0-3.11,3.87-6.23,10.17-8.72,24.35-1.73,48.69-3.55,73.05-4.28,1.63-.05,3.25-.06,4.88-.09,1.65,1.27,3.3,2.56,5,3.44,5.83,3.02,11.87,1.84,17.79,2.43,5.4.54,10.76.35,16.03-2.7,6.59.82,13.18,1.43,19.77,2.39,3.15.46,6.32.77,9.46-.23,3.42-1.1,6.61-4.5,10.09-4.69.09,0,.18-.05.26-.07,2.11.72,4.12.66,6.59-.07,1.69-.5,3.35-.36,5-.11-.04,1.98-.09,3.96-.03,5.96.17,5.44,3.41,6.23,4.29,1.25.34-1.94.64-3.89.91-5.87.64-.39,1.28-.79,1.91-1.27,2.34-1.79,1.81-8.09-.19-9.05-.05-.77-.2-1.44-.44-1.97.05-.65.09-1.31.14-1.97.07-.05.14-.11.2-.17,2.16,2.73,4.6,4.38,7.08,5.24.61,3.66,1.57,6.6,3.04,8.06,1.88,1.86,2.88-3.92,1.94-7.31.38-.01.76-.04,1.14-.08,2.46-.28,2.47-9.71,0-9.43Zm-14.03-52.68c.39-3.39.78-6.88,1.18-10.43-.58,10.29-1.45,20.47-2.29,30.67-.35.17-.67.49-.93.99.66-6.62,1.35-13.76,2.04-21.23Zm-2.69,29.91c-.11,5.61-.53,11.22-1.09,16.75-.3-.04-.63.16-.96.62.55-5.07,1.19-11.18,1.9-18.08.04.24.09.48.15.71Zm-303.83,38.37c9.57.41,19.14.91,28.42,1.49-.06,0-.12,0-.18,0-9.41.39-18.82,1.22-28.23,2.2.21-1.17.2-2.52,0-3.7Zm293.48-62.39c.15-.29.28-.46.37-.57.3-.05.59-.14.87-.28-.61,5.64-1.11,8.9-1.11,8.9,0,4.68-2.9,6.21-5.79,6.72.4-1.24.81-2.48,1.22-3.69.96-2.83,1.95-5.6,3.07-8.16.41-.94,1.08-2.37,1.38-2.92Zm-6.4,54.4c-.07.01-.15.02-.22.04-.32-.23-.64-.45-.97-.64-.38-.22-.76-.36-1.14-.47.12-.29.23-.61.33-.98.51-1.9.36-3.71-.13-5.02,2.58.82,4.92,3.22,6.75,6.06-1.53.55-3.08.74-4.62,1.01Zm-34.45-19.59c-.71,1.54-1.49,2.13-2.25,2.06,5.34-18.9,13.42-33.94,20.58-47.97-5.76,16.12-11.78,31.64-18.33,45.92Zm-22.38,20.27c-1.09-.02-2.18-.03-3.27-.04,1.08-.31,2.17-.62,3.26-.93-.01.32,0,.65,0,.97Zm-189.2-62.42c.93-1.9,1.88-3.77,2.82-5.64-.82,2.16-1.64,4.32-2.45,6.49-1.15,1.81-2.31,3.62-3.46,5.42,1.03-2.09,2.06-4.17,3.09-6.27Zm-5.34-55.83c1.04-3.59,4.13-12.45,9.28-12.45,3.83-2.07,5.37-.44,4.91,3.93-.7,1.24-1.39,2.5-2.07,3.76-1.1-4.05-3.4-6.52-5.8-3.37-2.1,2.75-4.21,5.45-6.32,8.13Zm14.18,63.86c.29-.45.58-.91.88-1.37-1.72,4.5-3.35,9.23-4.83,14.34-.37,1.3-.39,2.66-.19,3.84-1.82,2.9-3.56,5.67-5.18,8.22,3.1-8.35,6.18-16.76,9.32-25.03Zm180.63-59.2c2.58-1.17,3.44-5.81,3.05-10.13h1.93c0,4.6-7.01,21.31-18.27,44.15-.39.64-.79,1.27-1.18,1.92-1.65,2.74-3.38,5.36-5.15,7.94.31-.7.63-1.39.95-2.09,4.35-9.75,8.77-19.34,13.15-29.02,1.13-2.5,2.23-5.06,3.37-7.56.58-1.27,1.16-2.53,1.75-3.76.61-1.27,1.66-2,.4-1.43Zm6.35,70.3c.19.68.44,1.23.72,1.58-1.24,2.8-2.38,5.81-3.35,9.17l-3.77,1.63c2.2-3.95,4.32-8.11,6.4-12.38Zm5.74-76.17c.87-5.5,2.5-8.09,4.29-6.51-1.43,2.16-2.86,4.33-4.29,6.51Zm.72,77.1c1.05-2.09,2.13-4.1,3.2-6.11-.79,1.6-1.58,3.2-2.36,4.82-.28.43-.56.87-.84,1.29Zm-63.15,23.51c-9.26,6.46-9.07-.61,3.65-21.21,3.19-6.02,6.18-11.72,8.97-17.1-.22.47-.44.96-.67,1.43-4.09,8.62-9.5,17.41-11.9,28.88-.6,2.88-.53,5.65-.05,7.99Zm-28.84-13.89c4.04-7.37,8.14-14.64,12.31-21.72-.92,2.37-1.82,4.77-2.69,7.23-3.46,9.71-6.85,20.27-11.31,28.03-.44.03-.88.06-1.33.06-1.56,0-2.86,0-3.93-.03,2.29-4.6,4.57-9.22,6.95-13.57Zm-32.08-7.32c.93-2.01,2-4.18,3.17-6.44,3.85-5.81,7.84-11.17,11.66-17.01-2.84,5.5-5.66,11.05-8.42,16.75-.39-.19-.82-.09-1.26.48-2.35,3.02-4.56,6.66-6.85,9.91l1.71-3.69Zm49.84,1.05c-.07.75-.09,1.5-.07,2.26-.73,1.34-1.44,2.56-2.15,3.73.73-2.02,1.47-4.02,2.22-5.99Zm-59.53,19.87c1.61.19,3.24-.69,4.86-2.2-.61,1.55-1.22,3.13-1.82,4.72-1.39-.05-2.79-.09-4.18-.07l1.14-2.45Zm113.47-8.57l-3.68,1.59,2.26-4.87c.35,1.26.84,2.39,1.43,3.28Zm24.63,2.57c-.16-.33-.36-.58-.58-.75-.04-1.88.26-3.83,1.03-5.51,3.45-7.52,6.75-15.39,9.95-23.5.21-.3.41-.61.62-.91.53-.76.81-1.84.9-2.99,1.24-3.2,2.46-6.44,3.67-9.7.82-1.41,1.64-2.84,2.47-4.23,5.56-9.26,10.71-19.76,15.71-30.75.72-1.58,1.44-3.16,2.17-4.75-.9,2.98-1.84,5.89-2.87,8.61-3.98,10.51-8.66,19.23-13.2,28.19-6.93,13.66-14.55,28.21-19.85,46.29Zm36.18-96.44c-2.93,7.08-6.03,14.01-9.23,20.61,1.83-5.43,3.64-10.9,5.44-16.37.13-1.19.4-2.36.84-3.45.51-1.26,1.02-2.52,1.54-3.78,1.07-2.64,2.29-2.92,3.29-1.86-.66,1.72-1.28,3.4-1.88,4.85Zm-9.23,9.35c.51-3.28.94-5.98,1.36-8.2,1.81-3.31,3.62-6.61,5.43-9.93.33-.08.69-.15,1.08-.19-1.13,2.7-2.24,5.45-3.37,8.04-1.5,3.42-2.99,6.85-4.49,10.28Zm-211.67-16.21c.03-.75,0-1.5-.05-2.23.4-.04.88-.04,1.47-.04.04,0,.08.01.12.01-.52.72-1.04,1.47-1.54,2.26Zm-5.43,114.11c1.15,1.66,2.66,1.91,4.18-.51,4.9-7.78,9.59-16.11,14.26-24.52-4.06,8.11-8.01,16.46-11.66,25.47-3.18,3.75-5.81,4.89-8.96,3.83.72-1.44,1.45-2.86,2.18-4.27Zm216.72-46.31c2.16-5.64,4.36-11.2,6.61-16.67-2.17,5.64-4.39,11.19-6.61,16.75v-.08Zm-56.69-92.21c9.94-.7,19.87-1.68,29.81-2.73-4.69.92-9.67,1.83-14.83,2.7-.77-.29-1.56-.2-2.32.38-9.32,1.53-19.15,2.94-28.88,4.13,3.21-1.47,6.43-2.81,9.66-3.99,2.19-.16,4.37-.33,6.56-.49Zm-245.88,125.72c-.16.53-.29,1.06-.38,1.61-.22-.12-.42-.3-.56-.6,0,0,.12-.4.36-1.12.19.06.38.1.57.11ZM14.31,204.93c-.06-2.46-.1-4.89-.11-7.27,0-1.11,0-2.22,0-3.33.5-13.6,1.08-27.19,1.84-40.74.21-3.79.42-7.6.68-11.38v5.68c0,16.41-1,37.1-2.4,57.04Zm122.14-39.54c2.83-5.85,5.77-11.46,8.85-16.73.35-.09.71-.3,1.05-.63,1.17-.04,2.41-.06,3.69-.08-2.99,5.65-5.86,11.55-8.78,17.37-.71-.57-1.67-.79-2.81-.6-.5-.7-1.13-.78-1.76.3-.07.12-.13.24-.2.36-.01,0-.03.01-.04.02Zm-80.59,82.13c.56-.86,1-1.91,1.3-3.1.8-1.54,1.73-2.99,2.66-4.39-1.09,2.67-2.25,5.35-3.47,7.7-.15-.12-.32-.19-.49-.21Zm6.4-14.3c-.03.19-.05.39-.06.59-.69-.92-1.26-2.43-1.57-4.19.99-2.72,2.01-5.38,3.05-7.98.51-1.07,1.03-2.14,1.54-3.2-1.15,4.68-2.14,9.6-2.95,14.77Zm30.01-32.13c6.66-14,13.12-29.48,20.63-41.61-.08,6.25-6.85,20.39-25.16,51.15-.09.2-.18.38-.27.58-.1.11-.2.22-.3.32,1.71-3.45,3.42-6.92,5.1-10.45Zm25.25-19.61c-.4-.07-.81-.09-1.21-.08,1.47-4.2,2.74-8.4,3.71-12.6,1.74-11.28,4.43-16.47,11.6-18.87-4.88,10.12-9.48,20.86-14.1,31.55Zm-85.18-.82c.07.37.11.79.12,1.23-.18.44-.37.89-.54,1.34.11-.99.22-2.01.32-3.02.03.14.07.27.1.45Zm16.65,16.03c2.64-5.71,5.02-10.84,7.19-15.46.22-.27.44-.51.66-.75-2.44,5.46-4.76,10.97-6.9,17.22-1.49,4.34-2.93,8.71-4.48,12.86-1.83,3.77-3.65,7.56-5.49,11.3-3.42,6.93-7.12,13.17-10.12,20.88,3.01-10.25,9.5-25.24,19.14-46.06Zm-4.39,46.93c.09-.15.18-.31.28-.46-.38,1.82.02,2.33.88,2.33.62,1.33,1.23,2.14,2.05,2.16-.97,3.02-1.91,6.12-2.79,9.33-.25.91-.34,1.85-.3,2.72-3.84.98-7.01,1.47-9.51,1.37,3.58-3.89,6.38-12.46,9.38-17.46Zm22.55-14.59c3.36-16.77,8.99-30.48,15.33-41.9-.51,1.36-1.02,2.7-1.52,4.09-.32.89-.64,1.79-.96,2.69-.33.64-.66,1.28-.99,1.94-.4.79-.59,1.7-.63,2.62-3.68,10.33-7.34,20.69-11.22,30.56Zm9.82,2.8c.07-.07.14-.13.21-.2-.33.59-.66,1.17-.99,1.73.26-.51.51-1.02.77-1.53Zm31.66,5.18c.39,4.37,2.25,7.43,4.23,7.56-2.4,1.98-4.37,2.42-5.75.93-1.51,0-.9-3.07,1.52-8.48Zm47.13,5.48c-.28.14-.79.15-1.23.25.38-1.38.7-3.46,1.06-4.71,1.03-3.6,2.25-6.91,3.49-10.08,1.47-3.74,3.02-7.24,4.66-10.45.48-.71.96-1.42,1.44-2.14,1.51-2.28,3.04-4.5,4.57-6.71-.49,1.69-1.03,3.33-1.59,4.92-.85,2.05-1.67,4.2-2.49,6.39-3.24,7.67-6.94,14.62-9.86,22.51-.02,0-.03,0-.05.01ZM10.84,290.55c.21.5.48.93.77,1.31.05.25.11.48.18.71-.59-.17-1.19-.38-1.77-.63.32-.3.61-.76.82-1.39Zm54.67-3.21c-8.58.23-17.14,2.1-25.72,2.05-2.98-.02-5.97-.08-8.95-.14,5.2-2.3,11.12-5.14,16.59-8.04,7.68,2.85,15.54,3.02,23.32,2.86,4.5-.09,9.01-.19,13.51-.32-4.82.9-9.63,2.3-14.44,3.6-1.44-.03-2.87-.05-4.31,0Zm33.47-4.17c.39-.02.78-.03,1.17-.05,10.39-.56,20.8-.96,31.14,1.81.65.17,1.3.35,1.95.54-5.67.62-11.34,1.19-17.01,1.67-5.74-1.7-11.48-3.28-17.25-3.96Zm42.75-4.89c2.82.09,5.65.18,8.49.29-2.81.48-5.65.26-8.49-.29Zm7.35-18.84c-3.81,0-4.24-4.87,1.36-17.46-.12,1.38-.14,2.76-.03,4.14.43,5.07,2.18,6.29,3.98,6.19.02.1.05.19.07.29-1.22,3.94-3.29,6.85-5.38,6.85Zm279.1,11.52c.85.16,1.7.34,2.55.47-.07,0-.14,0-.21.01-.78-.13-1.56-.29-2.34-.48Zm29.93-120.83s.06-.07.09-.1l-.22,2.32c-.34-.05-.7,0-1.06.14.38-.84.77-1.64,1.19-2.37Zm-3.01,48.68c-.39-.57-.82-.96-1.3-1.1-1.65-.48-3.15.03-4.53,1.25,1.49-4.02,2.96-8.05,4.43-12.12.69-1.92,1.38-3.83,2.08-5.74-.09,6.42-.35,12.38-.67,17.71Zm-305.83,93.87c5.64-.62,11.28-1.2,16.93-1.63.4-.03.81-.05,1.21-.08-6.02.76-12.08,1.49-18.14,1.71Zm310.74-21.25c-.04.26-.05.51-.06.77-.01.03-.03.07-.04.1-.24-.05-.49-.11-.73-.16.03-.25.06-.55.1-.88.31-.44.62-.89.93-1.36-.07.51-.13,1.02-.2,1.53Z"/>
      </g>
      <path class="cls-4" d="m136.29,132.88c-.95-12.88,5.24-27.07,9.38-39.16,4.46-13.04,10.4-30.79,21.3-39.88,12.11-10.11,26.93-.8,41.2-2.24,14.99-1.51,10.89-25.65,25.91-28.95,6.6-1.45,15.06-4.17,21.7-3.45,10.95,1.18,5.27,9.24,5,17.1-.49,14.42,18.73,24.89,28.96,32.93,5.31,4.17,11.8,5.77,13.11,13.62.77,4.62-1.1,6.22,2.08,10.24,2.23,2.82,6.6,6.09,9.83,7.75,4.81,2.46,14.76,5.41,16.46,11.29,2.61,9.07-18.94,14.19-24.36,16.21-27.14,10.07-58.84,12.71-87.63,16.45-15.88,2.06-33.48,2.69-49.08-1.63-10.23-2.83-17.19-8.38-24.76-15.4-3.26-3.02-5.59-5.06-10.24-4.55"/>
      <g>
        <g>
          <path class="cls-1" d="m338.66,122.01c-.31.57-.5,1.21-.81,1.95-.72-.39-1.44-.77-2.15-1.15-1.73,4.05-3.16,8.14-6.23,11.41-2.77,2.94-5.86,5.57-9.1,7.98.25.24.5.48.74.73.24.25.45.51.72.82-.64.53-1.17,1.11-1.83,1.47-.33.18-.97.11-1.31-.1-1.83-1.15-3.61-2.37-5.41-3.57-6.06-4.04-12.07-8.17-18.21-12.09-4.72-3.02-9.45-6.1-14.46-8.58-9.56-4.74-19.65-5.72-30.04-2.95-1.38.37-2.8.64-4.21.76-.87.08-1.81-.11-2.65-.39-1.19-.41-1.47-1.32-1.13-3.17-.32,0-.61,0-.91,0-1.53-.04-3.09.07-4.59-.16-2.6-.41-5.12.02-7.67.36-4.73.64-9.49,1.1-14.22,1.77-4.83.69-9.63,1.58-14.45,2.34-2.8.44-5.61.6-8.44.11-2.28-.39-3.79-1.56-4.52-3.81-.62-1.95-1-3.9-.94-5.96.03-1.16-.14-2.32-.32-3.47-3.05,8.1-3.95,16.65-5.53,25.04-1.58,8.39-3.3,16.76-3.89,25.35h-3.87c.11-1.21.15-2.4.35-3.58-3.71.54-7.44.52-11.17-.1-2.12-.35-4.2-.92-6.21-1.68-1.11-.42-2.23-.86-3.23-1.49-.15,1.26-.3,2.51-.45,3.76-.02.13-.08.25-.16.51-.92-.44-1.83-.8-2.64-1.3-.24-.15-.34-.73-.31-1.09.27-4,.56-8.01.86-12.01.32-4.21.5-8.44,1.03-12.62.78-6.08,1.68-12.16,2.77-18.2,1.23-6.79,2.67-13.54,4.11-20.29,2.05-9.63,4.75-19.06,8.57-28.16,1.81-4.31,3.49-8.66,5.82-12.73,2.2-3.85,4.88-7.37,8.28-10.17,4.08-3.36,8.79-5.36,14.22-4.47,3.4.55,6.3,2.18,8.3,5.15.17.25.67.45.99.41,7.15-.74,14.28-1.66,21.43-2.26,8.1-.68,16.22-1.09,24.32-1.63,2.08-.14,4.16-.33,6.25-.5v-1.99c-1.62.16-3.16.39-4.71.46-2.37.11-4.74.17-7.11.15-1.44-.01-2.22-.86-2.11-2.39.27-3.96.57-7.93,1-11.87.29-2.63.83-5.24,1.22-7.86.33-2.23,1.51-3.78,3.72-4.28,4-.91,8-1.96,12.06-2.46,4.46-.55,8.98-.55,13.47-.76,1.01-.05,2.02.02,3.03.04,1.5.03,2.56.75,3.29,2.04,1.68,2.94,2.7,6.13,3.38,9.41.75,3.65,1.36,7.33,1.98,11,.15.88.15,1.8.13,2.71-.02.87-.38,1.62-1.35,1.71-2.21.22-4.42.39-6.64.54-2.01.14-4.02.22-6.12.33.16.79.3,1.5.48,2.4,1.81-.16,3.6-.33,5.39-.47,4-.33,8.01-.48,11.98.3,4.89.95,8.2,3.87,9.99,8.45,2.59,6.63,4.63,13.42,5.74,20.48.51,3.27,1.36,6.49,1.74,9.77.55,4.88.91,9.79,1.15,14.71.2,3.92-1.02,7.51-3.42,10.63-.64.83-1.57,1.42-2.36,2.12,2.65,1.34,5.38,2.66,8.04,4.1,4.6,2.47,9.12,5.12,13.77,7.51,4.99,2.57,9.61,5.66,14.01,9.11.74.58.96,1.07.51,1.9Z"/>
          <path class="cls-2" d="m216.65,17.3c.02-.48.55-1.17,1.02-1.36.88-.36,1.88-.57,2.84-.59,5.09-.13,10.18-.14,15.15,1.22,1,.27,1.96.71,2.93,1.07-.02.13-.03.26-.05.39-.36.15-.71.33-1.08.45-4.28,1.41-8.69,1.55-13.13,1.28-1.74-.1-3.46-.33-5.19-.55-.55-.07-1.17-.15-1.58-.46-.44-.34-.94-.97-.92-1.45Z"/>
          <path class="cls-2" d="m219.41,5.25c-.33-.47-.6-1.26-.42-1.72.14-.35,1.02-.59,1.57-.57.74.02,1.54.21,2.22.54,4.28,2.02,8.54,4.07,12.76,6.18.95.48,1.76,1.23,2.61,1.9.26.21.4.56.6.85-.05.08-.1.15-.15.23-1.43-.25-2.87-.41-4.27-.75-4.7-1.17-9.34-2.53-13.35-5.42-.53-.39-1.18-.7-1.55-1.21Z"/>
          <path class="cls-2" d="m238.88,24.13c.05.1.1.19.15.29-.59.46-1.15.96-1.77,1.39-4.12,2.81-8.73,4.6-13.42,6.18-.68.23-1.45.31-2.16.26-.48-.04-1.2-.35-1.33-.71-.15-.44.04-1.21.38-1.57.57-.63,1.33-1.13,2.08-1.56,3.6-2.03,7.55-3,11.57-3.7,1.3-.22,2.61-.42,3.92-.62.19-.03.38.03.58.04Z"/>
          <path class="cls-2" d="m287.12,8.97c-.47-.68-.18-1.52.46-2.06.52-.45,1.1-.9,1.73-1.14,3.99-1.53,7.97-3.15,12.04-4.46,2.26-.72,4.69-.91,7.05-1.29.44-.07.92.1,1.39.16.03.12.05.24.08.37-1.39.82-2.77,1.69-4.19,2.46-4.89,2.67-9.87,5.18-15.2,6.87-.52.17-1.15.33-1.63.19-.64-.19-1.36-.57-1.72-1.1Z"/>
          <path class="cls-2" d="m294.91,21.79c3.57,1.65,7.04,3.51,10.53,5.31.38.2.69.51,1.03.78-.02.11-.03.22-.05.33-.52.08-1.03.18-1.55.22-4.58.39-8.62-1.27-12.55-3.34-.86-.45-1.73-.91-2.56-1.41-.68-.41-1.07-1.03-.83-1.85.23-.79.93-1.14,1.64-1.03,1.47.22,3.02.38,4.34.98Z"/>
          <path class="cls-2" d="m310.6,14.21c.2.04.4.11.6.18.12.04.23.13.34.19.03.12.06.25.09.37-.72.25-1.42.56-2.16.74-5.7,1.38-11.48,1.71-17.31,1.31-.17-.01-.35-.02-.52-.07-.78-.22-1.63-.42-1.66-1.45-.04-.98.67-1.51,1.48-1.63,2.33-.35,4.68-.7,7.03-.82,4.09-.2,8.13.29,12.12,1.17Z"/>
        </g>
        <g>
          <path class="cls-3" d="m246.76,115.56c1.21-.18,2.45-.25,3.62-.57,6.64-1.78,13.37-2.16,20.11-.87,2.78.53,5.44,1.71,8.17,2.54,3.88,1.18,7.3,3.29,10.74,5.33,7.28,4.33,14.53,8.71,21.7,13.22,3.56,2.24,7.06,4.64,10,7.72.24.25.45.51.72.83-.64.53-1.18,1.11-1.83,1.47-.33.18-.97.12-1.31-.1-1.83-1.15-3.61-2.37-5.4-3.57-6.07-4.04-12.07-8.17-18.21-12.09-4.72-3.02-9.45-6.1-14.46-8.58-9.57-4.74-19.65-5.73-30.04-2.95-1.38.37-2.8.64-4.21.76-.87.07-1.81-.11-2.65-.39-1.19-.41-1.47-1.32-1.13-3.17-.32,0-.61,0-.91,0-1.53-.04-3.09.07-4.6-.16-2.6-.41-5.12.02-7.67.36-4.73.64-9.49,1.09-14.22,1.77-4.83.69-9.63,1.59-14.45,2.34-2.8.44-5.61.6-8.44.11-2.28-.39-3.79-1.56-4.52-3.81-.63-1.95-1-3.9-.94-5.96.03-1.16-.14-2.32-.31-3.47-3.06,8.1-3.95,16.65-5.53,25.04-1.58,8.39-3.3,16.75-3.89,25.34h-3.87c.11-1.21.15-2.42.35-3.6,1.72-10.28,3.63-20.54,5.17-30.84,1.17-7.8,3.46-15.29,5.43-22.88.88-3.39,3.31-5.63,6.13-7.54,3.35-2.26,6.29-5.02,9.29-7.71-.05-.12-.1-.24-.14-.36-1.42.3-2.86.58-4.27.93-.67.17-1.31.48-1.95.74-1.07.42-1.95.25-2.45-.49-.54-.79-.39-1.74.52-2.5,1.82-1.52,3.69-2.98,5.54-4.46,1.51-1.21,3.02-2.41,4.52-3.62-.06-.11-.13-.22-.19-.34-.91.17-1.84.26-2.73.51-3.13.88-6.15,2.04-8.93,3.76-.74.46-1.48.47-2.09-.19-.58-.62-.54-1.38-.08-2.02.52-.73,1.07-1.51,1.77-2.04,2.65-1.98,5.2-4.09,8.25-5.5,1.54-.71,2.95-1.72,4.36-2.67,1.39-.93,2.74-1.92,4.06-2.95.72-.56,1.33-1.27,1.99-1.91l-.11-.47c-1.27-.23-2.54-.65-3.81-.64-3.24.04-6.33.83-9.31,2.12-4.61,2-8.27,5.39-12.27,8.27-.65.47-1.26,1-1.96,1.39-1.37.76-2.69.09-2.6-1.46.12-1.97.39-3.96.88-5.87,1.06-4.11,2.24-8.2,3.48-12.26.56-1.83,1.24-3.64,2.1-5.34,1.34-2.65,3.82-3.85,6.6-4.27,3.03-.46,6.1-.63,9.15-.93.37-.04.74-.07,1.19-.12-.27-1.37-.94-2.34-1.9-3.15-3.2-2.69-6.73-2.85-10.51-1.42-2.86,1.08-5.25,2.75-7.35,5.01-4.82,5.19-7.78,11.41-10.49,17.83-2.7,6.41-4.82,13.01-6.66,19.69-1.3,4.74-2.45,9.53-3.42,14.34-1.56,7.76-3.16,15.52-4.31,23.34-1.05,7.21-1.49,14.5-2.26,21.75-.52,4.93-1.13,9.84-1.71,14.76-.02.13-.08.25-.17.51-.92-.44-1.83-.8-2.64-1.3-.24-.15-.34-.73-.31-1.09.27-4,.56-8,.87-12.01.32-4.21.49-8.44,1.03-12.62.77-6.08,1.68-12.16,2.77-18.19,1.23-6.79,2.67-13.54,4.11-20.3,2.05-9.63,4.74-19.06,8.57-28.16,1.81-4.31,3.49-8.66,5.82-12.73,2.2-3.85,4.88-7.37,8.29-10.17,4.08-3.36,8.79-5.36,14.22-4.47,3.41.55,6.3,2.18,8.3,5.15.17.25.67.45.99.41,7.15-.74,14.28-1.66,21.43-2.26,8.1-.68,16.22-1.09,24.32-1.63,2.08-.14,4.16-.33,6.26-.5v-1.99c-1.62.16-3.16.39-4.71.46-2.37.11-4.74.17-7.11.15-1.44-.01-2.22-.87-2.11-2.39.27-3.96.57-7.93,1-11.87.29-2.63.83-5.23,1.22-7.86.33-2.24,1.51-3.78,3.72-4.28,4-.91,8-1.96,12.06-2.46,4.46-.55,8.98-.55,13.47-.76,1.01-.05,2.02.02,3.03.04,1.5.03,2.56.76,3.29,2.04,1.68,2.94,2.7,6.13,3.38,9.41.75,3.65,1.36,7.33,1.98,11,.15.89.15,1.81.13,2.71-.02.87-.38,1.62-1.35,1.71-2.21.22-4.42.39-6.64.54-2.01.14-4.03.22-6.12.33.16.79.3,1.5.48,2.41,1.81-.16,3.6-.33,5.39-.47,4.01-.33,8.01-.47,11.98.3,4.89.95,8.2,3.87,9.99,8.45,2.59,6.63,4.63,13.42,5.74,20.48.51,3.27,1.37,6.49,1.74,9.77.55,4.88.91,9.79,1.16,14.7.2,3.92-1.02,7.51-3.42,10.63-.64.83-1.57,1.42-2.36,2.11,2.65,1.34,5.38,2.66,8.04,4.1,4.61,2.48,9.12,5.12,13.77,7.51,4.99,2.57,9.6,5.66,14.01,9.11.74.58.96,1.07.52,1.9-.31.57-.5,1.2-.81,1.95-2.57-1.4-5.09-2.66-7.5-4.1-6.64-3.98-13.19-8.11-19.87-12.02-3.97-2.32-8.2-4.19-12.15-6.54-3.52-2.1-6.89-4.48-10.19-6.92-1.72-1.27-2.48-3.35-3.13-5.34-1.7-5.2-3.24-10.45-4.97-15.65-1.58-4.74-4.26-8.82-7.75-12.39-.1-.1-.2-.19-.31-.27-.04-.03-.13,0-.31.01.5,1,1.1,1.92,1.45,2.93,1.47,4.17,2.87,8.36,4.27,12.56.41,1.22.83,2.45,1.1,3.71.2.94.32,1.95.2,2.89-.07.54-.68,1-1.05,1.5-.45-.42-.99-.78-1.33-1.28-.28-.41-.38-.98-.43-1.5-.41-4.2-1.99-8.05-3.71-11.82-1.47-3.22-3.21-6.33-4.9-9.45-.91-1.68-2.45-2.77-4-3.81-.07.06-.14.12-.21.18.34.38.65.79,1.03,1.12,2.27,2,3.78,4.54,5.01,7.25,1.49,3.27,2.98,6.55,3.52,10.14.88,5.86,1.27,11.76-.1,17.59-1.82,7.69-6.01,13.77-12.98,17.68-3.35,1.88-7.03,3.03-10.76,4-.71.19-1.33.76-1.99,1.15-.05.03-.1.06-.16.09.04.01.09.03.13.04,0-.05,0-.1,0-.15Zm-65.33-49.21c.09,0,.21.03.27-.01,2.04-1.47,4.04-2.98,6.11-4.4,4.36-3,9.16-4.79,14.46-5.3,2.55-.25,4.93.14,7.16,1.4,1.59.89,2.09,2.47,1.29,4.11-.81,1.66-1.96,3.02-3.48,4.09-2.1,1.48-4.14,3.05-6.23,4.6.59.04,1.14.04,1.68.14,2.21.41,3.2,2.55,1.99,4.45-.54.85-1.22,1.62-1.91,2.35-.85.9-1.78,1.72-2.75,2.65.36.03.6.04.84.06,1.37.1,2.4.73,2.95,2,.54,1.24.12,2.34-.7,3.29-3.13,3.63-6.72,6.77-10.63,9.54-1.1.78-2.12,1.69-3.12,2.6-.21.18-.34.62-.29.89.52,2.56,1.18,5.09,1.62,7.65.43,2.5.59,5.05.98,7.56.32,2.02.56,2.34,2.62,2.36,2.39.02,4.81-.18,7.18-.53,5.55-.82,11.08-1.79,16.62-2.7,1.93-.32,3.86-.63,5.65-.93-2.41-1.49-4.79-3.05-7.25-4.46-2.77-1.58-4.71-3.94-6.27-6.6-2.22-3.77-3.41-7.96-4.05-12.24-.4-2.7-.59-5.53-.22-8.22,1.15-8.38,5.23-15.34,11.06-21.36,3.8-3.92,8.23-6.86,13.4-8.65.81-.28,1.64-.47,2.47-.7-3.2.19-6.35.64-9.51.83-10.34.61-20.67,1.37-30.92,2.97-2.06.32-4.12.64-6.16,1.07-1.2.25-2.01.97-2.29,2.27-.23,1.05-.71,2.04-.98,3.08-.55,2.04-1.03,4.1-1.54,6.15-.04.03-.09.06-.13.08.03.02.06.03.09.05l.02-.15Zm58.85,43.72c4.77.11,9.63-.88,14.23-2.98,1.51-.69,3.03-1.44,4.4-2.38,3.75-2.59,6.32-6.16,7.98-10.38,2.21-5.65,2.58-11.53,1.97-17.5-.34-3.32-1.73-6.29-3.02-9.3-2.89-6.76-7.99-11.07-14.97-12.87-9.11-2.35-17.99-1.96-26.06,3.66-5.57,3.88-9.81,8.78-12.34,15.17-3.33,8.41-2.48,16.57,1.24,24.53,1.75,3.73,5.28,5.8,8.7,7.74,5.42,3.07,11.34,4.41,17.87,4.32Zm59.02-11.9c.54-.67.85-1.14,1.23-1.53,2.74-2.77,3.79-6.1,3.72-9.97-.1-5.15-.88-10.21-1.68-15.27-.47-2.96-1.17-5.87-1.69-8.82-.41-2.3-.59-4.64-1.07-6.92-1.1-5.23-3.32-10.03-6.06-14.59-.4-.67-.93-1.4-1.59-1.74-3.19-1.65-6.5-2.8-10.21-2.37-3.04.35-6.1.49-9.1.72.38,1.96.74,3.82,1.12,5.74,1.31,0,2.64.02,3.96,0,2.76-.04,5.44.4,7.96,1.48,1.01.44,2.11,1.13,2.69,2.02,1.11,1.71,2.04,3.58,2.76,5.49.9,2.37,1.69,4.81,2.25,7.28,1.08,4.76,2.14,9.53,2.86,14.34.57,3.78.68,7.64.87,11.47.08,1.55-.09,3.14-.32,4.68-.18,1.2-.83,2.22-2.08,2.95-.18-.49-.35-.8-.39-1.13-.23-1.76-.48-3.51-.62-5.28-.36-4.45-.43-8.94-1.07-13.34-.72-4.92-1.89-9.78-2.97-14.65-.74-3.31-1.84-6.51-3.55-9.46-.31-.53-.83-1.09-1.38-1.31-2.02-.8-4.14-1.19-6.34-1.12-2.93.09-5.87.02-8.79.18-8.15.44-16.3.96-24.45,1.46-1.21.07-2.42.23-3.62.35l-.02.28c5.72.52,11.53.65,16.51,3.96,1.63-1.65,3.33-1.92,5.17-.71,1.63,1.06,3.15,2.28,4.73,3.42.23.16.57.39.78.33,2.13-.64,3.83.35,5.22,1.65,3.33,3.13,5.99,6.82,7.86,11,2.79,6.23,4.19,12.92,6.14,19.42.4,1.35,1.1,2.88,2.15,3.71,2.86,2.26,5.98,4.19,9.02,6.28Zm-42.82-60.27c-.36,0-.7-.02-1.04,0-5.28.39-10.57.69-15.84,1.19-5.9.56-11.77,1.4-17.67,1.95-5.59.52-11.2.82-16.79,1.25-.31.02-.68.23-.89.46-.48.53-.9,1.12-1.32,1.7-.12.17-.23.41-.22.61.12,1.94-.62,3.27-2.54,3.59-2.18.36-4.43.38-6.65.41-1.76.03-3.26-.52-3.53-2.6-2.42.71-2.92,1.62-3.94,4.93,4.69-1.21,9.42-1.69,14.2-1.9,2.88-.12,5.73-.7,8.6-.95,6.63-.6,13.27-1.08,19.9-1.69,7.64-.71,15.26-1.53,22.89-2.28,1.79-.18,3.58-.3,5.34-.45-.17-2.09-.33-4.07-.51-6.22Zm-1.31-8.86c1.57-.18,3.03-.3,4.47-.54.43-.07.94-.4,1.19-.77,2.24-3.15,4.34-6.41,6.66-9.5,2.11-2.81,4.42-5.47,6.69-8.16.23-.27.76-.29,1.15-.42.03.39.21.85.08,1.17-.37.86-.79,1.72-1.33,2.48-3.11,4.33-6.27,8.63-9.41,12.94-.48.65-.96,1.3-1.6,2.15,1.27-.11,2.23-.23,3.2-.26.85-.03,1.31-.42,1.75-1.17,2.71-4.63,6.13-8.71,9.68-12.7.15-.17.5-.27.72-.22.16.03.38.36.37.54-.04.58-.08,1.2-.31,1.71-.34.76-.78,1.49-1.29,2.14-2.25,2.93-4.54,5.83-6.81,8.74-.13.17-.21.37-.35.62,1.31-.08,2.5-.09,3.67-.26.43-.06.92-.42,1.2-.78,1.72-2.23,3.37-4.52,5.1-6.74.38-.49.55-.89.4-1.49-.43-1.69-.72-3.42-1.22-5.08-.58-1.93-1.29-3.83-2.03-5.7-.14-.35-.69-.74-1.06-.76-1.94-.08-3.89-.04-5.52-.04-.59,1.08-.96,1.94-1.48,2.69-1.88,2.73-3.78,5.44-5.72,8.12-2.68,3.72-5.4,7.42-8.21,11.27Zm5.59,2.8c.38,4.02.75,7.95,1.12,11.94,2.27-.11,4.64-.22,6.91-.32-.33-4.15-.64-8.16-.96-12.11-2.36.16-4.82.34-7.08.49Zm8.56-24.76c-1.69.1-3.11.15-4.53.29-.32.03-.71.29-.9.56-3.99,5.62-7.96,11.26-11.92,16.9-1.07,1.52-2.11,3.06-3.28,4.77,1.02-.09,1.81-.21,2.6-.22.8,0,1.22-.42,1.62-1.06,1.16-1.82,2.36-3.62,3.62-5.37,3.91-5.46,7.84-10.9,12.78-15.88Zm-7.72.41c-1.61.21-2.96.33-4.28.6-.44.09-.92.45-1.19.82-2.83,3.83-5.64,7.69-8.42,11.56-.31.43-.58.97-.63,1.49-.23,2.32-.37,4.65-.54,6.98-.01.2.05.4.08.65,4.19-7.87,9.3-14.98,14.98-22.09Zm-8.26,1.42c-.03-.1-.06-.19-.09-.29-1.36.39-2.73.75-4.07,1.18-.27.09-.61.44-.65.71-.28,1.87-.48,3.74-.71,5.62.06.02.12.03.18.05,1.78-2.42,3.56-4.85,5.33-7.27Zm27.74,13.35c-1.37,1.65-2.68,3.23-4.15,5.01,1.7-.16,3.14-.29,4.67-.43-.1-1.16-.18-2.23-.28-3.3-.04-.4-.14-.8-.23-1.28Zm-87.73,23.67c1.61.64,5.18.3,5.92-.47-2.06.16-3.99.32-5.92.47Z"/>
          <path class="cls-3" d="m309.87.54c-1.39.82-2.77,1.69-4.19,2.46-4.89,2.67-9.87,5.18-15.2,6.87-.52.17-1.15.33-1.63.19-.64-.19-1.36-.58-1.72-1.1-.47-.68-.18-1.52.46-2.06.52-.45,1.1-.89,1.73-1.14,4-1.54,7.97-3.15,12.04-4.46,2.26-.72,4.69-.91,7.05-1.29.44-.07.92.1,1.38.16.03.12.05.24.08.37Z"/>
          <path class="cls-3" d="m238.55,18.03c-.36.15-.71.33-1.08.45-4.28,1.41-8.69,1.55-13.13,1.28-1.74-.1-3.47-.33-5.19-.55-.55-.07-1.17-.15-1.58-.46-.44-.34-.94-.97-.92-1.45.02-.48.55-1.17,1.02-1.36.88-.36,1.88-.57,2.84-.59,5.09-.13,10.18-.14,15.15,1.22,1,.27,1.96.71,2.94,1.07-.02.13-.03.26-.05.4Z"/>
          <path class="cls-3" d="m311.63,14.95c-.72.25-1.42.56-2.16.74-5.7,1.38-11.48,1.71-17.32,1.3-.17-.01-.35-.02-.52-.07-.78-.22-1.63-.42-1.66-1.45-.04-.98.67-1.5,1.48-1.63,2.33-.35,4.67-.7,7.02-.82,4.09-.2,8.13.29,12.13,1.18.2.04.4.11.6.18.12.05.23.13.34.19.03.12.06.25.09.37Z"/>
          <path class="cls-3" d="m238.58,12.64c-1.43-.25-2.87-.41-4.27-.76-4.71-1.17-9.34-2.53-13.35-5.42-.54-.39-1.19-.7-1.55-1.21-.33-.47-.6-1.26-.42-1.72.13-.35,1.02-.59,1.57-.57.75.02,1.54.21,2.22.54,4.27,2.02,8.53,4.07,12.76,6.18.95.47,1.76,1.23,2.61,1.9.26.21.4.56.6.85-.05.08-.1.15-.15.23Z"/>
          <path class="cls-3" d="m239.04,24.42c-.59.46-1.15.96-1.77,1.38-4.12,2.81-8.73,4.61-13.42,6.18-.68.23-1.45.31-2.16.25-.48-.04-1.2-.35-1.33-.71-.15-.44.04-1.21.38-1.57.57-.63,1.32-1.13,2.07-1.56,3.6-2.03,7.55-3,11.58-3.7,1.3-.23,2.61-.42,3.92-.62.19-.03.39.03.58.04.05.1.1.19.15.29Z"/>
          <path class="cls-3" d="m306.42,28.21c-.52.08-1.03.18-1.55.22-4.58.39-8.62-1.27-12.55-3.33-.86-.45-1.73-.91-2.56-1.41-.68-.41-1.07-1.03-.83-1.85.24-.79.94-1.13,1.64-1.03,1.47.22,3.02.37,4.34.98,3.57,1.65,7.04,3.51,10.53,5.31.38.19.69.51,1.03.77-.02.11-.03.22-.05.33Z"/>
          <path class="cls-3" d="m262.21,87.62c-.16.97-.23,1.97-.48,2.92-1.86,7.02-6.6,11.24-13.24,13.65-4.27,1.55-8.65,2.1-13.06,1.07-2.9-.68-5.74-1.73-8.49-2.91-1.43-.61-2.64-1.79-3.86-2.83-4.61-3.95-6.87-8.99-6.97-15.07-.07-4.56.5-9,2.3-13.19,2.55-5.93,6.59-10.48,12.72-12.9.92-.36,1.96-.41,2.96-.56.2-.03.54.1.61.24.07.15-.06.48-.21.62-.38.35-.79.68-1.24.95-6.41,3.89-10.79,9.46-13.11,16.51-1.58,4.8-1.46,9.79-.02,14.64.93,3.15,3.21,5.47,5.81,7.34,4.22,3.02,9.04,4.46,14.19,4.58,3.48.08,6.66-1.21,9.73-2.82,3.7-1.94,6.26-4.89,8.25-8.49.69-1.25,1.8-2.27,2.75-3.36.23-.26.63-.38.95-.57.13.06.26.11.39.17Z"/>
          <path class="cls-3" d="m262.11,85.66c-.15-2.2-.22-4.17-.43-6.12-.48-4.53-1.52-8.92-3.52-13.04-.8-1.66-1.89-3.07-3.4-4.16-.9-.65-1.78-1.35-2.59-2.1-.25-.23-.46-.79-.35-1.06.11-.26.67-.48,1.01-.45.57.05,1.18.22,1.68.5,2.86,1.64,5.16,3.79,6.75,6.77,2,3.76,3.02,7.77,3.48,11.95.29,2.58-.54,4.87-1.9,7.01-.13.21-.37.35-.73.69Z"/>
          <path class="cls-3" d="m247.98,58.69c-2.68.1-5.35.26-8.03.27-.51,0-1.28-.39-1.47-.81-.34-.73.33-1.19.96-1.48,2.6-1.17,5.14-1.08,7.55.5.46.3.79.8,1.18,1.2-.06.1-.13.21-.19.31Z"/>
        </g>
      </g>
      <g>
        <path class="cls-3" d="m118.02,182.49l-.77.77c-.2.2-.21.57-.17.83.01.09.15.66.35.46.26-.26.51-.51.77-.77.2-.2.22-.57.17-.83-.01-.09-.16-.66-.35-.46h0Z"/>
        <path class="cls-3" d="m148.1,163.17c.29-.01.57.02.84.09.79.17,1.48-1.6,1.59-1.99,1.94-7.44,1.06-16.68-5.32-21.77-4.89-3.9-12.16-5.48-17.88-2.54-14.82,7.62-17.47,31.19-6.66,43.08,9.25,10.17,25.34,9.94,36.63,16.98,2.18,1.36,5.44,3.46,6.34,6.03.6,1.72-.12,3.21-.91,4.96-3.52,7.86-10.58,14.02-17.89,18.29-8.28,4.84-17.97,6.99-27.07,2.98-3.82-1.68-7.35-4.27-9.47-7.93-1.66-2.87.5-7.75,1.45-11.76.18-.74.3-3.43-.91-3.53-2.72-.23-5.12,2.54-6.12,4.86-1.93,4.45-2.01,10.09-1.29,14.8,1.32,8.54,5.92,16.08,13.68,20.18,16.19,8.57,34.43-2.18,45.13-14.54,10.41-12.03,15.79-34.19,3.16-46.73-10.15-10.07-25.74-9.36-37.17-17.02-1.79-1.2-3.46-2.62-4.67-4.42.07.11-1.14-1.95-1.09-1.94.49.04-.88,1.91.08,1.15,1.23-.97,2.13-3.85,3.4-5.16,1.52-1.56,3.42-3.25,5.4-4.16,3.7-1.71,8.94-1.07,12.55.56,1.54.69,2.69,2.1,4.12,2.79,1.21.59,1.19,3.58.84-.93-.41-5.31-.38.76-.51,1.94-.11,1.01-.12,5.64,1.74,5.72h0Z"/>
        <path class="cls-3" d="m211.63,185.09c-4.62-10.82-14.59-13.76-24.57-7.64-9.4,5.77-15.36,17.12-16.11,27.94s3.65,25.05,13.26,31.52c4.64,3.12,10.31,3.3,15.17.52,7.04-4.02,7.67-11.25,11.01-17.81.2-.4.14-3.25-.52-2.61-2.4,2.34-6.24,3.42-9.02,5.66-3.77,3.03-8.27,4.91-13.02,2.92-5.84-2.44-12.34-11.18-11.4-17.78.99-6.97,7.67-13.39,13.49-16.67,6.87-3.87,13.8-2.55,19.07,3.21,3.45,3.77,3.33-7.68,2.65-9.26h0Z"/>
        <path class="cls-3" d="m223.17,185.95c1.26.17,2.8-1.54,3.73-2.26,2.02-1.57,4.13-3.02,6.65-3.66,3.98-1,8.56.27,9.86,4.53,1.03,3.35.22,7.52.08,10.96-.17,4.12-.35,8.23-.54,12.34-.38,8.36-1.62,20.89,4.89,27.44,2.87,2.89,6.4,2.33,9.26-.26,4.06-3.67,5.41-9.1,5.14-14.38-.02-.48-.09-1.78-.69-2.01-3.59-1.4-5.35,4.39-8.49,5.36-5.24,1.62-4.97-5.96-4.97-9.05.01-8.68,1-17.35.95-26.03-.04-7.55-1.2-18.99-9.82-21.64s-17.92,6.58-17.59,15.12c.04.97.19,3.37,1.5,3.54h0Z"/>
        <path class="cls-3" d="m245.45,191.81c-2.5-9.66-14.29-3.25-19.46.64-9.55,7.2-15.07,19.38-10.87,31.13,2.93,8.19,10.6,11.06,18.72,8.96s13.94-9.23,15.13-17.61c.03-.24-.15-2.34-.8-1.79-3.2,2.67-7.65,3.41-11.55,4.82-4.65,1.67-11.06,2.96-15.28-.47-.87-.71-1.22-1.69-1.94-2.44.03.04-.8,1.46.14.71.52-.41,1.01-2.02,1.41-2.64,2.15-3.3,5.23-6.02,8.44-8.26,2.53-1.76,10.97-7.4,13.8-4.88,2.5,2.22,2.47-7.35,2.26-8.16h0Z"/>
        <path class="cls-3" d="m266.34,140.23c-.69-5.43-1.18-6.59-1.47-3.5-.05.83-.06,1.65-.05,2.48,0,2.11.14,4.21.3,6.31.28,3.64.75,7.25,1.23,10.87,1.05,7.83,1.43,15.58,1.8,23.46.61,13.18,1.52,26.49,4.07,39.46,1.23,6.27,4.25,20.14,13.35,18.14s15.27-12.55,16.31-20.99c.05-.4-.31-2.58-1.01-1.64-1.55,2.06-5.2,2.49-7.35,3.71-2.72,1.54-6.05,4.89-9.36,4.99-6.17.19-6.65-10.95-7.26-15.2-3.5-24.34-3.45-49.02-7.37-73.31-.96-5.95-4.66-3.32-4.43,1.53.06,1.23.2,2.3.51,3.49.12.47.48.75.73.2h0Z"/>
        <path class="cls-3" d="m299.47,139.16c1.8,23.42,2.68,46.98,3.86,70.44.41,8.13,1.92,22.03,12.17,23.59,9.32,1.41,18.92-10.11,15.34-19.04-.07-.18-.29-.48-.53-.47-2.39.15-4.88,2.52-6.83,3.7-3.57,2.16-8.34,3.51-11.59.04-2.09-2.23-2.24-5.66-2.38-8.54-.22-4.52-.26-9.04-.52-13.57-.71-12.26-1.71-24.5-2.51-36.75-.46-7.06-.67-14.16-1.62-21.18-.21-1.56-1.02-4.79-3.14-4.36s-2.36,4.71-2.25,6.14h0Z"/>
        <path class="cls-3" d="m250.65,152.96c-.81-1.27-1.06-1.52-2.4-2.22-4.49-2.35-3.05,10.61-1.89,12.34,4.86,7.21,13.06,6.86,20.72,5.12,4.28-.98,8.19-2.57,12-4.52,3.13-1.6,7.04-1.92,9.62-4.45,1.32-1.29,1.24-4.44.18-5.89.62,2.05.81,2.56.59,1.53-.05-.36-.15-.7-.3-1.03-.53-.7-.84-1.36-1.54-1.95-1.17-.99-2.56-1.38-4.07-1.59-3.98-.56-8.42,0-12.27.83-7.15,1.56-16.86,5.48-23.05-.39.33,4.09.65,8.18.98,12.27,2.23-2.39,3.3-7.1,1.42-10.05h0Z"/>
        <path class="cls-3" d="m288.77,170.69c6.47,3.22,13.88,1.87,20.7-.19,3.92-1.18,7.31-3.13,10.9-5.09,3.05-1.67,6.99-4.83,8.81-7.79.41-.67.5-2.24-.22-2.77-1.78-1.3-6.17-1.55-8.35-1.39-4.06.3-8.28,1.24-12.16,2.35s-7.51,2.11-11.4,2.66c-2.23.31-6.83-.65-8.56.77-2.35,1.93-2.83,9.89.28,11.44h0Z"/>
        <path class="cls-3" d="m344.63,167.52c2.42-4.89,13.22-5.81,17.76-4.7,7,1.71,9.64,8.78,10.04,15.29,1.01,16.67-5.1,32.82,1.17,49.15.37.95,1.9,2.85,3.12,1.75,6.98-6.29,12.13-12.93,14.81-22.08.14-.47.08-2.9-.89-2.39-2.58,1.35-5.2,2.86-7.51,4.64-2.84,2.17-5.05,4.78-8.43,6.15l3.65,3.18c-2.77-9.21-.55-18.89.23-28.25s.52-19.92-3.25-29.15c-2.94-7.19-8.58-12.97-16.83-12.6-6.94.31-15.45,3.33-17.91,10.4-.92,2.63-1.14,6.15.21,8.7,1.17,2.21,2.73,2.11,3.83-.09h0Z"/>
        <path class="cls-3" d="m372.39,180.9c-6.51-6.09-19.01-4.66-25.47,1.15-4.11,3.69-5.37,9.47-5.82,14.75-.46,5.4-.83,11.33.05,16.7,1.21,7.42,5.08,12.76,12.92,9.97,3.35-1.19,6.65-2.97,9.62-4.92,3.89-2.56,6.05-5.45,8.81-9.02.82-1.06,1.14-4.95-.47-5.61-2.37-.97-3.36-1.86-6.1-1.17-2.46.62-4.74,1.93-6.95,3.12-1.85,1-9.35,5.75-11.42,3.12-.64-.81.03-4.11.08-5.16.14-3.45.03-6.16,3.14-8.27,5.01-3.4,14.19-5.34,19.54-1.83,3.85,2.53,4.41-10.67,2.09-12.84h0Z"/>
        <path class="cls-3" d="m400.83,163.04c3.55-3.1,7.32-6.17,10.64-9.51,3.87-3.89,8.24-8.18,11.19-12.76.31-.48.57-2.81-.39-2.82-2.14-.01-4.03,1.24-6.06,1.86-2.22.68-4.26,1.7-6.24,2.9-4.24,2.57-8.13,6.59-11.17,10.51-1.43,1.85-.46,11.99,2.04,9.81h0Z"/>
        <path class="cls-3" d="m411.92,196.72c4.4-3.51,10.95-4.73,16.02-6.81s11.75-2.18,16.09-6.4c.74-.72,1-3.58-.32-3.88-5.88-1.33-12.12.13-18.05-.27-5.03-.34-11.57.57-15.76,3.68-3.74,2.78-1.17,16.23,2.03,13.68h0Z"/>
        <path class="cls-3" d="m409.23,226.24c5.7,7.04,18.65,8.28,26.36,4.7,1.09-.51.6-3.05-.09-3.65-3.41-2.99-7.95-5.65-12.07-7.36-3.37-1.39-8.92-2.4-11.52-5.11-2-2.1-3.46.57-3.96,2.46-.7,2.65-.55,6.72,1.27,8.97h0Z"/>
        <path class="cls-3" d="m95.98,151.9c-1.95-2.74-4.21-4.21-7.01-6.11-3.03-2.06-5.72-4.58-8.71-6.67-2.67-1.87-5.48-3.89-8.3-5.69-2.63-1.68-5.48-2.53-8.06-4.34-1.12-.78-1.18,3.08-.61,3.71,6.01,6.54,9.65,14.97,16.35,21.04,2.7,2.44,5.58,5.08,8.93,6.6s5.22,1.36,7.59-1.26c1.53-1.69,1.03-5.57-.18-7.27h0Z"/>
        <path class="cls-3" d="m87.51,178.87c1.96,7.08,2.7,8.62,2.2,4.62-.14-1.02-.42-2-.84-2.93-.59-1.05-1.57-2.22-2.66-2.76-2.52-1.24-6.65-.79-9.33-.59-7.47.56-14.31,4.45-21.64,5.01-1.09.08-.86,2.91-.12,3.31,5.26,2.87,10.37,6.14,16.42,7.21,4.53.8,12.4,1.92,16.29-.98,3.33-2.48,2.65-10.45-.32-12.89h0Z"/>
        <path class="cls-3" d="m84.8,209.44c-4.46-6.36-16.33,3.42-20.16,6.35-2.04,1.57-3.81,3.43-5.7,5.17-2.13,1.97-4.52,3.5-6.93,5.14-2.67,1.82-5.18,3.8-7.73,5.78-.65.51-.92,3.93.32,3.72,2.39-.42,4.66-1.47,6.85-2.47,1.88-.86,3.71-1.93,5.63-2.69,2.37-.94,4.75-1.19,7.24-1.82,4.03-1.02,8.47-2.44,12.2-3.85,2.05-.77,5.54-2.23,6.99-2.02,4.73.68,2.55-11.5,1.28-13.31h0Z"/>
        <path class="cls-3" d="m124.38,269.22c-1.84-1.31-.26.67.5,1.38s2.04,1.12,3.06,1.4c2.95.82,6.17.68,9.2.48,6.04-.4,11.99-1.63,18-2.29,19.15-2.1,38.41-3.26,57.64-4.18,37.85-1.81,75.76.49,113.6-1.51,10.68-.56,21.28-1.67,31.94-2.48s21.78-2.17,32.6-4.12c.75-.14.69-2.45-.06-2.4-17.99,1.16-36.04,1.76-53.99.76s-37.03-2.05-55.56-2.74c-36.71-1.37-73.32-.51-109.92,2.71-8.24.73-16.44,1.64-24.6,3-6.4,1.07-14.15,2.85-20.54.84-.86-.27-1.32-.11-1.91.61-1.55,1.89-2.33,6.84.05,8.54h0Z"/>
      </g>
    </g>
  </g>
</svg>