<?xml version="1.0" encoding="utf-8"?>
<!-- Generator: Adobe Illustrator 28.1.0, SVG Export Plug-In . SVG Version: 6.00 Build 0)  -->
<svg version="1.1" id="Livello_2_00000133497465366552685500000003027643301272403604_"
	 xmlns="http://www.w3.org/2000/svg" xmlns:xlink="http://www.w3.org/1999/xlink" x="0px" y="0px" viewBox="0 0 1117.9 1944.2"
	 style="enable-background:new 0 0 1117.9 1944.2;" xml:space="preserve">
<style type="text/css">
	.st0{clip-path:url(#SVGID_00000013910476609413111160000006817225954835672204_);}
	.st1{fill:#FFD6A5;}
	.st2{fill:#E5BD93;}
</style>
<g id="Livello_1-2">
	<g>
		<defs>
			<rect id="SVGID_1_" y="0" width="1117.9" height="1944.2"/>
		</defs>
		<clipPath id="SVGID_00000108282942067866513990000002087910610577104319_">
			<use xlink:href="#SVGID_1_"  style="overflow:visible;"/>
		</clipPath>
		<g style="clip-path:url(#SVGID_00000108282942067866513990000002087910610577104319_);">
			<g>
				<rect x="-22.8" y="-17" class="st1" width="1152" height="2008"/>
				<path class="st2" d="M1186,1871.9c-5.7-55.9-0.2-112,3.4-167.5c4.3-65.2,5-130.3,8.6-195.5c7-128.3-3.1-257.6,1.1-386.1
					c4.3-133.8,8.2-268.9-1.7-402.6c-5.5-74,281.5-600.9-60.3-766.1C866.1-177-50.6,49.3-50.6-9.8l10,421.8
					c20.7,16,53-85,57.5-101.9c12-45.6,21.5-103.6,52.5-140.1C144.8,81,242,20.5,350.3-15.6C447.9-48.1,557.8-34,659.3-34
					c52.4,0,100.1,12.4,150.2,26.6C862,7.4,907.7,24.3,947.5,64c38.3,38.2,69,79.2,77.8,132.5c8.5,51.2,25.4,98.9,36.3,149.6
					c9.9,46.1,18.1,91.8,31.8,137.4c17.3,57.4,26,106,26,166.7c0,56.7,9.8,110.4,12.1,165.5c2.4,58.8,12.3,110.8,21.9,167.7
					c9.3,55-6,118.3-16.6,172.9c-11.7,60.5-26.8,120.4-37.1,181.1c-9.5,56.1-15,108.6-34.3,161.9c-20,55.2-29.5,112.8-50,167
					c-25.5,67.3-77.3,113.4-135.9,151.7c-54.8,35.8-110.6,45.9-171.8,64.5c-29.5,8.9-56.7,2.8-86.7,1.5c-33.5-1.6-66.1,4.1-99,8.1
					c-59.9,7.2-122.9,3.3-182.8-4.6c-54.7-7.2-109.9-9.3-163.3-24.2c-68.1-19.1-115.7-81.6-151.1-139.3
					c-46.7-76.2-56.7-164.2-63.2-252.4c-7.3-100-2.9-200.4-2.1-301c1.8-203.2,1.1-412.2-19.9-614c-1.8-16.9-4.9-33.6-5.7-50.4
					c-0.4-9.1,3.9-32.2-0.3-40.3c-3-5.7-17.5-15.9-24.1-14.1c-15.9,4.2-11.3,29.4-12.1,42.4c-8.8,146.1,2.4,287.9,14.2,432.9
					c14.9,183.6,16.7,367.9,24.3,552.1c2.7,64.7,8.8,130.7,7.6,195.9c-1.7,99.2-13.8,199.6-23.9,298.1c-3,28.7-22.3,96.6,11.9,109
					c10.7,3.9,27.7-3,40-4.6c23.9-3.2,49.5-5.7,73.9-7.9c44.4-4.1,91.7-5.3,135.5-10.8c89.9-11.2,179.3-26.5,269.1-36.9
					c120.1-13.9,245.7-11.6,366.9-11.9c104.3-0.3,208.4-12.7,311.8-14c16.7-0.2,79.5,11.1,86.5-9.3c2.5-7.4-13.9-34.6-16.5-46
					C1193.4,1918.1,1188.3,1894.8,1186,1871.9L1186,1871.9z"/>
			</g>
		</g>
	</g>
</g>
<g id="Livello_1-2_00000013184838568991810610000016310447053889153981_">
	<path class="st2" d="M133.1,233c-2.2,0.4-3.8,0.3-5.5,1.6c-8.9-9.5-23.8-12.6-36.5-12.5c-13.9,40.9-4,90.5-6.4,133.6
		c-2.7,49-1.3,98-4,146.7c-5.5,95.9-4,191.2-4,287.7c0,48.4,6.1,96.4,4,145.3c-2.1,48.8-8.5,98.1-6.1,148
		c2.2,45.3-2.3,91.6,2.5,136.7c1.5,14.5-4.8,45.5,12.8,50.6c6.8,2,23.1-2.3,31.2-1.8c11,0.6,21.4,4.4,32.1,5.1
		c25.8,1.5,52.4-5.1,79-5.2c35.4-0.1,70.6,1.9,106.1,1.9c28.8,0,57.4,0.5,85.7,1.8c31.9,1.5,63.4-5.2,95.6-3.7
		c13,0.6,27.2,0.8,39.8,3.6c14.2,3.2,25.7,13.1,40.5,12.7c28.3-0.6,56.9-4.8,86.4-3.5c65.2,2.9,130.5-7.7,195.4-9.1
		c26.3-0.6,52.1-0.7,78-0.2c18.5,0.4,61.2-9.1,76.2-20.2c18-13.4,1.3-47.4-2.5-66.7c-5.7-29.4-9.5-61-10.1-91
		c-1.7-83.1-8.7-165.1-12.2-248.1c-3.9-92.3,2.8-183.4,2.1-275.8c-0.3-46.4-2.8-92.4-0.5-138.9c1.9-39,1.8-75.4-10.3-112.6
		c-4.1-12.6-4.5-30.4-17.5-38.2c-11.3-6.8-35.3-4.7-48.4-7.5c-40.8-8.6-82.1-15.7-123.8-20.1c-124.1-12.9-249.2-9.7-373.7-15.1
		c-93.9-4.1-186.7-12.7-280-8.5c-10.8,0.5-25.4,2.1-36,1.5c-8.2-0.4-18.9-7-28.1-2"/>
</g>
</svg>
