<?xml version="1.0" encoding="UTF-8"?>
<svg id="Livello_2" data-name="Livello 2" xmlns="http://www.w3.org/2000/svg" xmlns:xlink="http://www.w3.org/1999/xlink" viewBox="0 0 1117.93 1944.18">
  <defs>
    <style>
      .cls-1 {
        fill: none;
      }

      .cls-1, .cls-2, .cls-3 {
        stroke-width: 0px;
      }

      .cls-2 {
        fill: #ffd6a5;
      }

      .cls-4 {
        clip-path: url(#clippath);
      }

      .cls-3 {
        fill: #e5bd93;
      }
    </style>
    <clipPath id="clippath">
      <rect class="cls-1" width="1117.93" height="1944.18"/>
    </clipPath>
  </defs>
  <g id="Livello_1-2" data-name="Livello 1">
    <g class="cls-4">
      <g>
        <rect class="cls-2" x="-22.82" y="-16.98" width="1152" height="2008"/>
        <path class="cls-3" d="m1185.97,1871.89c-5.69-55.93-.21-112.01,3.45-167.5,4.3-65.22,4.98-130.29,8.55-195.54,7.02-128.28-3.07-257.57,1.05-386.13,4.29-133.82,8.25-268.87-1.65-402.61-5.48-73.98,281.48-600.89-60.28-766.11C866.13-177-50.58,49.34-50.58-9.77l10,421.76c20.74,15.96,53-85,57.45-101.9,12.03-45.64,21.52-103.65,52.45-140.11C144.8,81.02,241.97,20.51,350.31-15.56c97.59-32.5,207.53-18.46,309.03-18.44,52.4,0,100.12,12.36,150.2,26.56,52.44,14.86,98.12,31.74,137.93,71.39,38.34,38.19,69.04,79.18,77.85,132.5,8.46,51.22,25.4,98.88,36.26,149.61,9.88,46.13,18.07,91.76,31.84,137.38,17.34,57.44,26,106.04,26,166.67,0,56.7,9.84,110.42,12.1,165.46,2.42,58.82,12.3,110.78,21.9,167.74,9.27,55.04-6.02,118.26-16.56,172.9-11.68,60.54-26.8,120.4-37.05,181.11-9.47,56.1-15.04,108.57-34.35,161.92-19.98,55.2-29.51,112.79-50.05,167.02-25.48,67.28-77.3,113.41-135.94,151.73-54.77,35.79-110.64,45.93-171.83,64.5-29.48,8.95-56.67,2.85-86.73,1.46-33.47-1.55-66.12,4.09-99.05,8.05-59.86,7.2-122.85,3.32-182.8-4.55-54.71-7.18-109.91-9.31-163.26-24.23-68.13-19.06-115.72-81.58-151.12-139.3-46.72-76.18-56.74-164.21-63.2-252.42-7.33-99.98-2.92-200.43-2.06-300.95,1.75-203.2,1.07-412.18-19.9-613.99-1.75-16.86-4.92-33.58-5.65-50.43-.4-9.15,3.89-32.2-.3-40.28-2.97-5.71-17.46-15.87-24.14-14.1-15.89,4.23-11.26,29.42-12.05,42.37-8.85,146.15,2.36,287.86,14.15,432.88,14.92,183.59,16.7,367.9,24.34,552.06,2.68,64.66,8.75,130.67,7.64,195.95-1.68,99.2-13.75,199.62-23.93,298.13-2.96,28.68-22.33,96.57,11.93,109,10.69,3.88,27.74-2.99,39.99-4.62,23.86-3.17,49.49-5.67,73.86-7.95,44.4-4.15,91.66-5.31,135.49-10.78,89.94-11.21,179.26-26.5,269.11-36.88,120.15-13.88,245.69-11.57,366.87-11.91,104.27-.29,208.4-12.68,311.84-13.99,16.68-.21,79.49,11.09,86.47-9.34,2.52-7.38-13.9-34.61-16.51-45.97-5.21-22.63-10.33-45.9-12.66-68.79Z"/>
      </g>
    </g>
  </g>
</svg>