<?xml version="1.0" encoding="UTF-8"?>
<svg id="Livello_2" data-name="Livello 2" xmlns="http://www.w3.org/2000/svg" viewBox="0 0 208.51 187.08">
  <defs>
    <style>
      .cls-1 {
        fill: #f4e9e9;
      }

      .cls-1, .cls-2, .cls-3, .cls-4 {
        stroke-width: 0px;
      }

      .cls-2 {
        fill: #fff;
      }

      .cls-3 {
        fill: #9e8d8d;
      }

      .cls-4 {
        fill: #ffd6a5;
      }
    </style>
  </defs>
  <g id="Livello_3" data-name="Livello 3">
    <g>
      <path class="cls-4" d="m208.47,17.06c-.03-1.62-.35-6.31-2.41-7.07-9.61-3.58-20.13-3.57-30.4-2.96-.46-1.91-1.75-5.91-3.44-4.2-1.54,1.55-3.03,3.14-4.49,4.75-.43.03-.87.06-1.3.09-16.2,1.14-32.12.5-48.27-1-6.54-.61-13.08-1.27-19.62-1.93-.73-1.17-1.76-1.86-2.92-.3C68.38,1.68,41.07-.98,13.69.36c-1.06.05-1.75.86-2.2,1.94-.57-.34-1.4-.26-1.87.22-1.06,1.09-1.9,2.3-2.58,3.59-.63-.7-1.96-.68-2.41.24C1.69,12.27-1.11,18.75.45,25.46c.83,3.58,2.4,6.94,3.78,10.33.23.57.44,1.14.64,1.71.01,2.39.02,4.77.06,7.15.11,6.48.26,12.97.28,19.45.04,13.02-1.03,25.97-1.35,38.98-.32,12.82-.03,25.64,1.21,38.41.63,6.57,1.36,13.13,1.97,19.7.36,3.92-.02,7.86.25,11.79.2,2.84.63,6.33,2.72,8.44.16.33.44.6.88.74.21.14.43.28.67.4,1.5.75,3.16,1.07,4.87,1.13.44.19.91.18,1.37,0,1.19-.04,2.39-.17,3.56-.33,1.67.05,3.34.11,4.99.28,5.91.6,11.83.69,17.76.77,5.99.07,11.96.21,17.95,0,5.85-.2,11.69-.52,17.54-.58,5.88-.06,11.73.34,17.6.67,5.88.33,11.77.6,17.66.77,11.87.35,23.71.11,35.57-.46,6.53-.31,13.05-.65,19.59-.81,3.38-.08,6.98,0,10.39-.61,5.16.74,10.3,1.86,15.4,3.54,1.57.52,2.43-.5,3.02-1.92,5.18-12.54,4.75-25.87,4.85-39.17.11-14.35,1.68-28.56,1.26-42.96-.42-14.52-.61-28.54.89-43.02,1.49-14.26,2.95-28.45,2.66-42.81Zm-26.26,152.48c.74-.41,1.44-.89,2.12-1.43-.07.58-.12,1.17-.16,1.77-.65-.12-1.31-.23-1.96-.34ZM6.72,112.6c0-3.3.08-6.6.19-9.89.12.8.24,1.6.38,2.39.69,3.93,1.52,7.78,2.33,11.59-.93,2.59-1.79,5.22-2.57,7.88-.02.07-.04.14-.06.21-.17-4.05-.28-8.11-.27-12.18ZM184.61,35.87c-.11.12-.22.23-.33.35.18-.26.36-.53.54-.79-.07.15-.14.29-.21.44Zm-7.24,11.81c.25.24.57.41.91.44-.83.96-1.65,1.92-2.47,2.9.52-1.11,1.04-2.23,1.56-3.34Zm-47.53,120.6c1.85-2.25,3.48-4.56,4.84-6.34,6.12-7.99,11.56-16.49,16.96-24.97,5.15-8.07,10.6-15.84,16.16-23.64,3.45-4.85,6.94-9.69,10.57-14.4-2.71,4.1-5.49,8.16-8.26,12.22-5.2,7.61-10.11,15.4-15.44,22.92-6.8,9.6-13.76,19.09-19.37,29.46-.32.58-.7,2.47-.91,4.65-.33,0-.67.02-1,.03-1.19.03-2.37.05-3.55.06Zm-35.73-14.09c-.09.34-.06.71.15,1.08.36.64,1.41,1.03,2.05.54.19-.14.35-.31.53-.46-1.02,2.47-1.76,5.04-1.89,7.72-.03.61.06,1.24.21,1.82-1.98-.39-3.97-.79-5.95-1.17,1.61-2.94,3.04-5.96,4.43-9,.16-.17.31-.35.47-.52Zm-4.19-7.14l.02-.04c2.83-3.27,5.63-6.57,8.4-9.9-1.37,2.68-2.86,5.29-4.73,7.66-1.67,2.12-3.64,3.91-5.72,5.58.7-1.08,1.39-2.17,2.03-3.3Zm-2.29-13.87c9.85-14.56,23.03-27.37,33.08-41.52,3.62-5.09,7.08-10.31,10.49-15.58,2.72-2.87,5.49-5.69,8.26-8.52-1.36,2.58-2.71,5.17-4.06,7.76-1.64,1.83-3.26,3.67-4.84,5.54-14.59,17.25-28.2,35.23-42.93,52.31Zm17.86-40.06c-1.96,2.73-3.91,5.46-5.89,8.18-3.89,4.59-7.75,9.19-11.4,13.97-1.25,1.63-2.44,3.29-3.59,4.96-.33.37-.67.74-1,1.1,5.73-7.87,11.65-15.6,17.75-23.15,1.37-1.7,2.75-3.38,4.14-5.06Zm-26.19,67.81c2.52-2.4,5.37-4.44,8.16-6.54-.82,1.27-1.61,2.57-2.29,3.93-.64,1.29.7,2.87,2.05,2.05.2-.12.38-.26.57-.39-.54,1.05-1.11,2.1-1.7,3.13-2.56-.48-5.13-.9-7.7-1.28.31-.3.61-.61.91-.91Zm28.01-26.31c-.14.04-.27.09-.41.18-3.71,2.33-6.01,6.31-8.56,9.84.2-.41.4-.82.61-1.23.36-.71.75-1.4,1.13-2.1.08-.13.17-.26.25-.39,2.71-4.18,6.03-8.62,7.66-13.49.87-1.66,1.68-3.35,2.42-5.08,1.75-2.17,3.5-4.35,5.25-6.52-2.1,4.7-4.18,9.42-6.26,14.15-.68,1.55-1.38,3.1-2.09,4.63Zm26.57-40.78c.15-.28.3-.56.45-.85,6.1-7.17,12.6-14.01,19.11-20.84-2.83,4.51-5.67,9-8.48,13.52-8.37,13.48-16.8,26.9-25.5,40.17-1.39,2.13-2.79,4.25-4.19,6.38,6.04-12.9,11.98-25.76,18.61-38.38Zm32.89-57.58c1.55-.04,3.09-.11,4.63-.25.11,0,.22-.03.33-.04-5.48,6.6-11.35,12.89-17.29,19.11,1.48-2.81,2.94-5.62,4.41-8.44.63-.76,1.25-1.51,1.87-2.28,2.05-2.57,4.13-5.28,6.06-8.11Zm-57.83,36.28c.77-1.35,1.54-2.69,2.31-4.03,4.45-6.45,8.65-12.98,12.41-19.88.51-.94,1.02-1.89,1.54-2.83,1.16-1.46,2.3-2.93,3.42-4.42,3.45-.91,6.91-1.77,10.4-2.52-10.19,11.08-20.29,22.25-30.07,33.69Zm-13.39-24.05c.5-.71,1.01-1.41,1.51-2.11.06.04.13.08.2.12-.57.66-1.14,1.33-1.71,1.99Zm-27.09,16.33c6.98-11.69,13.84-23.44,21.27-34.85.39-.12.79-.23,1.2-.33.6,1.92.91,3.93,1.24,5.94-8.01,9.66-16.2,19.18-23.7,29.24Zm1.15,96.06c-.17-.01-.34-.03-.51-.04-3.66-.22-7.25-.08-10.8.25,3.19-5.17,5.9-10.71,9-15.91,1.64.34,3.31.14,4.97-.45-1.04,3.17-1.92,6.42-2.59,9.77-.41,2.02-.46,4.29-.06,6.38Zm-28.14,2.85c-1.92.36-3.84.71-5.77,1.04-.48.08-1.15.22-1.91.38,2.72-3.74,5.37-7.52,7.99-11.33-.56,3.31-.7,6.66-.31,9.92Zm-22.91-37.87c-.01-.08-.03-.16-.04-.24.35-.59.7-1.18,1.03-1.77-.34.67-.67,1.34-.99,2.02Zm26.23-24.27c-8.46,14.08-16.79,28.24-25.49,42.17,0-.04,0-.07,0-.11,5.81-15.15,15.93-28.66,25.48-42.06Zm-28.65-.56c-.02-.7-.04-1.41-.06-2.11-.04-1.47-.08-2.94-.12-4.4,6.25-9.33,12.65-18.56,19.29-27.6-6.89,11.09-13.56,22.34-19.11,34.12Zm2.2,61.86c-.09.39-.17.79-.25,1.19,0-.27,0-.53,0-.8.08-.13.17-.26.25-.39Zm9.05-6.31c4.05-10.84,10.06-21.14,16.51-31.07.44,1.62,1.14,3.11,2.18,4.28-6.06,9.05-12.2,18.04-18.69,26.79Zm17.16-71.67c-7.54,10.73-15.26,21.38-21.61,32.6,1.43-2.77,2.86-5.55,4.41-8.25,5.66-9.81,12.7-18.82,19.59-27.83-.79,1.16-1.59,2.33-2.4,3.48Zm14.47-40.48c.3.45.62.89.96,1.32.1.13.24.22.38.29-3.87,5.62-7.69,11.28-11.78,16.75-.5.67-1,1.33-1.5,2,4-6.77,7.93-13.6,11.95-20.36Zm7.39,50.05c1.79-2.32,3.7-4.54,5.66-6.69-1.92,3.32-3.84,6.65-5.79,9.96-5.65,7.02-10.99,14.28-15.41,22.24-.3-.11-.6-.23-.86-.32.25-.69.48-1.32.67-1.66.89-1.62,1.84-3.22,2.81-4.79,3.98-6.42,8.32-12.74,12.92-18.73Zm-5.71-52.86c1.65-2.75,3.33-5.47,5.04-8.18-.97,3.19-2.39,6.36-4.56,8.92-.17-.24-.32-.49-.48-.73Zm-11.35,111.47c2.3-5.35,5.57-10.32,8.91-15.07,3.18-4.53,6.61-8.85,10.11-13.12-.43.93-.84,1.86-1.25,2.8-6.25,9.96-10.94,22.19-19.54,30.21.44-1.65,1.1-3.27,1.77-4.81Zm21.29-121.35c-.71.92-1.4,1.85-2.09,2.78.13-.42.26-.84.38-1.26.29-1.04.54-2.11.74-3.18,1.73-1.15,3.45-2.3,5.16-3.48-1.43,1.68-2.84,3.39-4.19,5.14Zm-19.52-.89c.17-.42.34-.84.5-1.26.07.14.14.27.21.41-.24.28-.48.56-.71.85Zm-7.72-1.31c-4.76,7.85-11.09,15.07-16.29,21.82-4.33,5.62-8.42,11.35-11.81,17.4-.01-.54-.02-1.09-.03-1.63.13-.17.26-.34.39-.52.16-.07.31-.17.43-.31,2.85-3.25,4.86-7.08,6.32-11.15.03-.07.06-.14.09-.22,2.57-3.82,5.31-7.49,8.18-11.04.24-.06.48-.18.68-.34,3.07-2.54,5.44-5.75,7.55-9.11.06-.09.11-.19.17-.29,1.42-1.55,2.85-3.1,4.31-4.62Zm-26.54,18.53c.37-.42.75-.84,1.14-1.24-.08.26-.17.51-.24.77-.4,1.36-.64,2.87-.63,4.36-.71,1.65-1.39,3.32-2.04,4.99v-.15c.05-.57.11-1.13.18-1.67.33-2.39.9-4.75,1.59-7.07Zm4.41-12.01c.64-1.66,1.31-3.31,2.04-4.93h0c-.61,1.38-1.11,2.82-1.42,4.34-.04.19-.03.38,0,.56-.69,1.72-1.36,3.44-2,5.18-.32.22-.64.46-.95.7.75-1.95,1.55-3.89,2.31-5.84Zm-5,4.47c.02-.11.04-.22.05-.33.07-.1.13-.21.2-.31-.08.21-.17.43-.25.64Zm-6.17,95.87c.49-.45.96-.91,1.42-1.39.02,3.26-.01,6.54-.04,9.83-.86,3.3-1.53,6.67-2,10.14-.17-1.55-.35-3.09-.51-4.63-.52-5.07-.98-10.14-1.35-15.21.6,1.16,1.49,2.17,2.48,1.25Zm.04,33.5c.53,1.37,1.21,2.27,2.06,1.9.37,2.46.92,4.88,1.69,7.27-.59.03-1.18.08-1.76.11-.45-.45-.82-1.01-1.06-1.73-.8-2.39-.94-4.97-.93-7.54Zm33.1,6.96c-.52.04-1.04.08-1.56.12,3.05-.63,6.05-1.26,8.95-1.7,9.64-1.46,18.98-.74,28.23.69-1.07.02-2.14.04-3.21.06-10.81-.15-21.63.06-32.42.82Zm129.5-8.49c.67-.63,1.32-1.29,1.95-1.97.08.79.22,1.54.41,2.2-.79-.08-1.57-.16-2.36-.23Zm-13.38-5.86c-.31.63-.56,2.84-.54,5.23-2.91-.03-5.83-.02-8.75.03.55-.65,1.09-1.31,1.62-1.96,5.27-6.52,9.59-13.77,14.01-20.88,4.08-6.55,8.48-13.76,13.52-20.41-6.82,12.56-13.54,25.17-19.87,37.99Zm-42.46-.1c-.42.76-.91,3-1.11,5.46-1.97-.14-3.94-.31-5.91-.54,6.98-7.24,12.53-15.88,17.6-24.52,6.99-11.93,13.74-23.92,21.2-35.57,11.46-17.88,23.49-37.43,38.77-53.01-21.19,37.39-49.76,70.51-70.56,108.19ZM196.67,22.22c-1.35.53-2.65,1.18-3.93,1.88-.47-.24-1.06-.29-1.53-.08-.8.35-1.55.81-2.26,1.33-.02-1.24-.17-2.45-.37-3.49-.02-.1-.05-.22-.08-.36,2.75.08,5.48.3,8.16.73Zm-22.69-.21c2.44-.19,4.9-.36,7.37-.46-2.23,2.78-4.02,6.06-5.62,9.46-.41.53-.84,1.05-1.26,1.58-1.89.33-3.8.5-5.72.6,2.19-3.56,4.04-7.29,5.22-11.18Zm-35.81,5.23c.53-.66,1.05-1.33,1.59-1.99.27-.33.51-1.11.68-2.12,4.33.14,8.65.19,12.99.11-3.66,3.95-7.32,7.91-10.98,11.87-3.71.68-7.38,1.52-11.04,2.44,2.27-3.17,4.45-6.42,6.48-9.77.1-.17.18-.36.27-.54Zm-21.58-5.7c2.11.2,4.22.38,6.32.56-2,1.89-3.87,3.94-5.64,6.06-.39-.35-.83-.42-1.32-.07-6.3,4.5-11.58,10.21-16.69,16.1-.15-.07-.31-.14-.46-.24.19-.27.38-.53.57-.8,5.7-7.01,11.22-14.16,16.23-21.7.33.03.66.06.99.09Zm-20.34-1.27c.18-.23.35-.46.53-.7,2.38.24,4.76.48,7.14.72-2.16,2.92-4.3,5.84-6.42,8.79-.92,1.14-1.85,2.27-2.78,3.41-.32-1.69-.71-3.37-1.36-4.97-.26-.65-.71-1-1.33-1.05,1.38-2.08,2.78-4.15,4.22-6.19Zm-20.02-2.7c2.18.2,4.36.4,6.54.61-1.2,1.13-2.36,2.3-3.51,3.49-.41-.65-1.21-1.05-1.95-.5-2.17,1.59-4.38,3.12-6.61,4.62,1.62-2.42,3.26-4.82,4.97-7.18.22-.31.4-.66.56-1.04Zm-12.74-1.07c-3.25,3.61-6.42,7.28-9.55,10.99-.31-.57-.64-1.13-.98-1.69,1.01-3.17,1.77-6.45,2.21-9.88,2.77.17,5.54.36,8.31.57Zm-20.26-1.17c-3.93,4.17-7.75,8.41-11.41,12.79,0-.54-.02-1.08-.05-1.62,1.72-2.87,3.25-5.96,3.91-9.24.27-1.36-1.44-2.67-2.51-1.46-.35.39-.69.78-1.03,1.18-.15,0-.31.02-.48.08-2.68.88-4.81,2.65-6.56,4.84,0,0-.01.01-.02.02.46-2.22.64-4.5.44-6.83,5.91-.06,11.81.03,17.71.25Zm-26.32-.03c1.51-.06,3.02-.12,4.53-.15-.12.41-.12.98.11,1.37-1.27,4.05-3.45,7.63-5.74,11.2.47-4.13.87-8.27,1.11-12.42Zm-6.65-8.74c.14.43.27.86.39,1.3,0,.03,0,.07,0,.1.05,10.21-1.12,20.45-2.22,30.69-.18-.59-.38-1.17-.59-1.75,0-.08,0-.17-.01-.25,0-.03,0-.06,0-.09-.03-3.09-.1-6.17-.18-9.25-.03-3.33-.03-6.68.18-9.99.12-1.88.45-3.86.49-5.79.16-.7.34-1.39.57-2.07.35-1.02.81-1.99,1.38-2.9Zm-7.19,12.84c.32-2.2,1-4.34,1.83-6.42-.71,4.62-.39,9.58-.21,13.97,0,.69,0,1.37.01,2.06-1.17-3.08-2.1-6.31-1.62-9.6Zm98.05,162.32c-5.79-.29-11.57-.79-17.37-.87-11.58-.16-23.12.92-34.7.65-4.58-.11-9.17-.09-13.74-.25,1.19-.17,2.37-.35,3.56-.5,6.53-.85,13.03-1.13,19.61-1.31,5.43-.14,10.86-.27,16.29-.38,7.14.09,14.29.3,21.42.65,1.39.07,2.77.14,4.15.22,5.79,1.05,11.61,1.94,17.54,2.33.73.05,1.47.09,2.2.12-.51,0-1.02-.01-1.52-.02-5.81-.13-11.62-.36-17.43-.66Zm93.94-9.24c-.71-.21-1.42-.43-2.13-.63,1.57-3.85,2.14-8.01,1.82-12.25,1.04-2.58,1.97-5.19,2.71-7.87.02,7.05-.24,14.09-2.41,20.74Zm2.53-35.23c-.09,1.63-.14,3.28-.15,4.93-.47-1.95-1.21-3.44-2.31-3.3.83-1.28,1.69-2.55,2.58-3.8-.04.72-.08,1.44-.12,2.16Zm.72-15.19c-.63-1.22-1.51-2.13-2.58-1.2-6.74,5.86-11.12,13.74-15.85,21.18-.07.1-.13.21-.2.31,6.25-11.56,12.62-23.06,18.88-34.61,0,4.78-.08,9.55-.25,14.32Zm-.11-30.6c-.26.04-.53.13-.83.3-1.78.98-3.5,2.09-5.17,3.31,2.31-4.21,4.35-8.53,5.95-12.96-.03,3.11-.01,6.22.05,9.35Zm1.36-34.41c-.18,1.76-.35,3.52-.49,5.28-.5-.66-1.12-.82-1.91-.14-3.29,2.87-6.38,5.92-9.36,9.08,4.59-7.78,8.91-15.73,12.82-23.92-.36,3.24-.73,6.47-1.07,9.7Zm2.81-30.89c-.24.03-.49.13-.77.32-3.99,2.82-7.77,5.94-11.38,9.27.22-.54.41-1.09.57-1.66.37-.67.77-1.32,1.21-1.94,3.05-2.83,6.88-4.89,8.99-8.6.08-.13.12-.27.15-.41.43.11.86.23,1.29.35-.01.89-.04,1.77-.07,2.66Z"/>
      <g>
        <g>
          <path class="cls-1" d="m206.68,136.07c-.31.57-.5,1.21-.81,1.95-.72-.39-1.44-.77-2.15-1.15-1.73,4.05-3.16,8.14-6.23,11.41-2.77,2.94-5.86,5.57-9.1,7.98.25.24.5.48.74.73.24.25.45.51.72.82-.64.53-1.17,1.11-1.83,1.47-.33.18-.97.11-1.31-.1-1.83-1.15-3.61-2.37-5.41-3.57-6.06-4.04-12.07-8.17-18.21-12.09-4.72-3.02-9.45-6.1-14.46-8.58-9.56-4.74-19.65-5.72-30.04-2.95-1.38.37-2.8.64-4.21.76-.87.08-1.81-.11-2.65-.39-1.19-.41-1.47-1.32-1.13-3.17-.32,0-.61,0-.91,0-1.53-.04-3.09.07-4.59-.16-2.6-.41-5.12.02-7.67.36-4.73.64-9.49,1.1-14.22,1.77-4.83.69-9.63,1.58-14.45,2.34-2.8.44-5.61.6-8.44.11-2.28-.39-3.79-1.56-4.52-3.81-.62-1.95-1-3.9-.94-5.96.03-1.16-.14-2.32-.32-3.47-3.05,8.1-3.95,16.65-5.53,25.04-1.58,8.39-3.3,16.76-3.89,25.35h-3.87c.11-1.21.15-2.4.35-3.58-3.71.54-7.44.52-11.17-.1-2.12-.35-4.2-.92-6.21-1.68-1.11-.42-2.23-.86-3.23-1.49-.15,1.26-.3,2.51-.45,3.76-.02.13-.08.25-.16.51-.92-.44-1.83-.8-2.64-1.3-.24-.15-.34-.73-.31-1.09.27-4,.56-8.01.86-12.01.32-4.21.5-8.44,1.03-12.62.78-6.08,1.68-12.16,2.77-18.2,1.23-6.79,2.67-13.54,4.11-20.29,2.05-9.63,4.75-19.06,8.57-28.16,1.81-4.31,3.49-8.66,5.82-12.73,2.2-3.85,4.88-7.37,8.28-10.17,4.08-3.36,8.79-5.36,14.22-4.47,3.4.55,6.3,2.18,8.3,5.15.17.25.67.45.99.41,7.15-.74,14.28-1.66,21.43-2.26,8.1-.68,16.22-1.09,24.32-1.63,2.08-.14,4.16-.33,6.25-.5v-1.99c-1.62.16-3.16.39-4.71.46-2.37.11-4.74.17-7.11.15-1.44-.01-2.22-.86-2.11-2.39.27-3.96.57-7.93,1-11.87.29-2.63.83-5.24,1.22-7.86.33-2.23,1.51-3.78,3.72-4.28,4-.91,8-1.96,12.06-2.46,4.46-.55,8.98-.55,13.47-.76,1.01-.05,2.02.02,3.03.04,1.5.03,2.56.75,3.29,2.04,1.68,2.94,2.7,6.13,3.38,9.41.75,3.65,1.36,7.33,1.98,11,.15.88.15,1.8.13,2.71-.02.87-.38,1.62-1.35,1.71-2.21.22-4.42.39-6.64.54-2.01.14-4.02.22-6.12.33.16.79.3,1.5.48,2.4,1.81-.16,3.6-.33,5.39-.47,4-.33,8.01-.48,11.98.3,4.89.95,8.2,3.87,9.99,8.45,2.59,6.63,4.63,13.42,5.74,20.48.51,3.27,1.36,6.49,1.74,9.77.55,4.88.91,9.79,1.15,14.71.2,3.92-1.02,7.51-3.42,10.63-.64.83-1.57,1.42-2.36,2.12,2.65,1.34,5.38,2.66,8.04,4.1,4.6,2.47,9.12,5.12,13.77,7.51,4.99,2.57,9.61,5.66,14.01,9.11.74.58.96,1.07.51,1.9Z"/>
          <path class="cls-2" d="m84.66,31.36c.02-.48.55-1.17,1.02-1.36.88-.36,1.88-.57,2.84-.59,5.09-.13,10.18-.14,15.15,1.22,1,.27,1.96.71,2.93,1.07-.02.13-.03.26-.05.39-.36.15-.71.33-1.08.45-4.28,1.41-8.69,1.55-13.13,1.28-1.74-.1-3.46-.33-5.19-.55-.55-.07-1.17-.15-1.58-.46-.44-.34-.94-.97-.92-1.45Z"/>
          <path class="cls-2" d="m87.43,19.31c-.33-.47-.6-1.26-.42-1.72.14-.35,1.02-.59,1.57-.57.74.02,1.54.21,2.22.54,4.28,2.02,8.54,4.07,12.76,6.18.95.48,1.76,1.23,2.61,1.9.26.21.4.56.6.85-.05.08-.1.15-.15.23-1.43-.25-2.87-.41-4.27-.75-4.7-1.17-9.34-2.53-13.35-5.42-.53-.39-1.18-.7-1.55-1.21Z"/>
          <path class="cls-2" d="m106.9,38.19c.05.1.1.19.15.29-.59.46-1.15.96-1.77,1.39-4.12,2.81-8.73,4.6-13.42,6.18-.68.23-1.45.31-2.16.26-.48-.04-1.2-.35-1.33-.71-.15-.44.04-1.21.38-1.57.57-.63,1.33-1.13,2.08-1.56,3.6-2.03,7.55-3,11.57-3.7,1.3-.22,2.61-.42,3.92-.62.19-.03.38.03.58.04Z"/>
          <path class="cls-2" d="m155.14,23.03c-.47-.68-.18-1.52.46-2.06.52-.45,1.1-.9,1.73-1.14,3.99-1.53,7.97-3.15,12.04-4.46,2.26-.72,4.69-.91,7.05-1.29.44-.07.92.1,1.39.16.03.12.05.24.08.37-1.39.82-2.77,1.69-4.19,2.46-4.89,2.67-9.87,5.18-15.2,6.87-.52.17-1.15.33-1.63.19-.64-.19-1.36-.57-1.72-1.1Z"/>
          <path class="cls-2" d="m162.92,35.86c3.57,1.65,7.04,3.51,10.53,5.31.38.2.69.51,1.03.78-.02.11-.03.22-.05.33-.52.08-1.03.18-1.55.22-4.58.39-8.62-1.27-12.55-3.34-.86-.45-1.73-.91-2.56-1.41-.68-.41-1.07-1.03-.83-1.85.23-.79.93-1.14,1.64-1.03,1.47.22,3.02.38,4.34.98Z"/>
          <path class="cls-2" d="m178.62,28.27c.2.04.4.11.6.18.12.04.23.13.34.19.03.12.06.25.09.37-.72.25-1.42.56-2.16.74-5.7,1.38-11.48,1.71-17.31,1.31-.17-.01-.35-.02-.52-.07-.78-.22-1.63-.42-1.66-1.45-.04-.98.67-1.51,1.48-1.63,2.33-.35,4.68-.7,7.03-.82,4.09-.2,8.13.29,12.12,1.17Z"/>
        </g>
        <g>
          <path class="cls-3" d="m114.78,129.62c1.21-.18,2.45-.25,3.62-.57,6.64-1.78,13.37-2.16,20.11-.87,2.78.53,5.44,1.71,8.17,2.54,3.88,1.18,7.3,3.29,10.74,5.33,7.28,4.33,14.53,8.71,21.7,13.22,3.56,2.24,7.06,4.64,10,7.72.24.25.45.51.72.83-.64.53-1.18,1.11-1.83,1.47-.33.18-.97.12-1.31-.1-1.83-1.15-3.61-2.37-5.4-3.57-6.07-4.04-12.07-8.17-18.21-12.09-4.72-3.02-9.45-6.1-14.46-8.58-9.57-4.74-19.65-5.73-30.04-2.95-1.38.37-2.8.64-4.21.76-.87.07-1.81-.11-2.65-.39-1.19-.41-1.47-1.32-1.13-3.17-.32,0-.61,0-.91,0-1.53-.04-3.09.07-4.6-.16-2.6-.41-5.12.02-7.67.36-4.73.64-9.49,1.09-14.22,1.77-4.83.69-9.63,1.59-14.45,2.34-2.8.44-5.61.6-8.44.11-2.28-.39-3.79-1.56-4.52-3.81-.63-1.95-1-3.9-.94-5.96.03-1.16-.14-2.32-.31-3.47-3.06,8.1-3.95,16.65-5.53,25.04-1.58,8.39-3.3,16.75-3.89,25.34h-3.87c.11-1.21.15-2.42.35-3.6,1.72-10.28,3.63-20.54,5.17-30.84,1.17-7.8,3.46-15.29,5.43-22.88.88-3.39,3.31-5.63,6.13-7.54,3.35-2.26,6.29-5.02,9.29-7.71-.05-.12-.1-.24-.14-.36-1.42.3-2.86.58-4.27.93-.67.17-1.31.48-1.95.74-1.07.42-1.95.25-2.45-.49-.54-.79-.39-1.74.52-2.5,1.82-1.52,3.69-2.98,5.54-4.46,1.51-1.21,3.02-2.41,4.52-3.62-.06-.11-.13-.22-.19-.34-.91.17-1.84.26-2.73.51-3.13.88-6.15,2.04-8.93,3.76-.74.46-1.48.47-2.09-.19-.58-.62-.54-1.38-.08-2.02.52-.73,1.07-1.51,1.77-2.04,2.65-1.98,5.2-4.09,8.25-5.5,1.54-.71,2.95-1.72,4.36-2.67,1.39-.93,2.74-1.92,4.06-2.95.72-.56,1.33-1.27,1.99-1.91l-.11-.47c-1.27-.23-2.54-.65-3.81-.64-3.24.04-6.33.83-9.31,2.12-4.61,2-8.27,5.39-12.27,8.27-.65.47-1.26,1-1.96,1.39-1.37.76-2.69.09-2.6-1.46.12-1.97.39-3.96.88-5.87,1.06-4.11,2.24-8.2,3.48-12.26.56-1.83,1.24-3.64,2.1-5.34,1.34-2.65,3.82-3.85,6.6-4.27,3.03-.46,6.1-.63,9.15-.93.37-.04.74-.07,1.19-.12-.27-1.37-.94-2.34-1.9-3.15-3.2-2.69-6.73-2.85-10.51-1.42-2.86,1.08-5.25,2.75-7.35,5.01-4.82,5.19-7.78,11.41-10.49,17.83-2.7,6.41-4.82,13.01-6.66,19.69-1.3,4.74-2.45,9.53-3.42,14.34-1.56,7.76-3.16,15.52-4.31,23.34-1.05,7.21-1.49,14.5-2.26,21.75-.52,4.93-1.13,9.84-1.71,14.76-.02.13-.08.25-.17.51-.92-.44-1.83-.8-2.64-1.3-.24-.15-.34-.73-.31-1.09.27-4,.56-8,.87-12.01.32-4.21.49-8.44,1.03-12.62.77-6.08,1.68-12.16,2.77-18.19,1.23-6.79,2.67-13.54,4.11-20.3,2.05-9.63,4.74-19.06,8.57-28.16,1.81-4.31,3.49-8.66,5.82-12.73,2.2-3.85,4.88-7.37,8.29-10.17,4.08-3.36,8.79-5.36,14.22-4.47,3.41.55,6.3,2.18,8.3,5.15.17.25.67.45.99.41,7.15-.74,14.28-1.66,21.43-2.26,8.1-.68,16.22-1.09,24.32-1.63,2.08-.14,4.16-.33,6.26-.5v-1.99c-1.62.16-3.16.39-4.71.46-2.37.11-4.74.17-7.11.15-1.44-.01-2.22-.87-2.11-2.39.27-3.96.57-7.93,1-11.87.29-2.63.83-5.23,1.22-7.86.33-2.24,1.51-3.78,3.72-4.28,4-.91,8-1.96,12.06-2.46,4.46-.55,8.98-.55,13.47-.76,1.01-.05,2.02.02,3.03.04,1.5.03,2.56.76,3.29,2.04,1.68,2.94,2.7,6.13,3.38,9.41.75,3.65,1.36,7.33,1.98,11,.15.89.15,1.81.13,2.71-.02.87-.38,1.62-1.35,1.71-2.21.22-4.42.39-6.64.54-2.01.14-4.03.22-6.12.33.16.79.3,1.5.48,2.41,1.81-.16,3.6-.33,5.39-.47,4.01-.33,8.01-.47,11.98.3,4.89.95,8.2,3.87,9.99,8.45,2.59,6.63,4.63,13.42,5.74,20.48.51,3.27,1.37,6.49,1.74,9.77.55,4.88.91,9.79,1.16,14.7.2,3.92-1.02,7.51-3.42,10.63-.64.83-1.57,1.42-2.36,2.11,2.65,1.34,5.38,2.66,8.04,4.1,4.61,2.48,9.12,5.12,13.77,7.51,4.99,2.57,9.6,5.66,14.01,9.11.74.58.96,1.07.52,1.9-.31.57-.5,1.2-.81,1.95-2.57-1.4-5.09-2.66-7.5-4.1-6.64-3.98-13.19-8.11-19.87-12.02-3.97-2.32-8.2-4.19-12.15-6.54-3.52-2.1-6.89-4.48-10.19-6.92-1.72-1.27-2.48-3.35-3.13-5.34-1.7-5.2-3.24-10.45-4.97-15.65-1.58-4.74-4.26-8.82-7.75-12.39-.1-.1-.2-.19-.31-.27-.04-.03-.13,0-.31.01.5,1,1.1,1.92,1.45,2.93,1.47,4.17,2.87,8.36,4.27,12.56.41,1.22.83,2.45,1.1,3.71.2.94.32,1.95.2,2.89-.07.54-.68,1-1.05,1.5-.45-.42-.99-.78-1.33-1.28-.28-.41-.38-.98-.43-1.5-.41-4.2-1.99-8.05-3.71-11.82-1.47-3.22-3.21-6.33-4.9-9.45-.91-1.68-2.45-2.77-4-3.81-.07.06-.14.12-.21.18.34.38.65.79,1.03,1.12,2.27,2,3.78,4.54,5.01,7.25,1.49,3.27,2.98,6.55,3.52,10.14.88,5.86,1.27,11.76-.1,17.59-1.82,7.69-6.01,13.77-12.98,17.68-3.35,1.88-7.03,3.03-10.76,4-.71.19-1.33.76-1.99,1.15-.05.03-.1.06-.16.09.04.01.09.03.13.04,0-.05,0-.1,0-.15Zm-65.33-49.21c.09,0,.21.03.27-.01,2.04-1.47,4.04-2.98,6.11-4.4,4.36-3,9.16-4.79,14.46-5.3,2.55-.25,4.93.14,7.16,1.4,1.59.89,2.09,2.47,1.29,4.11-.81,1.66-1.96,3.02-3.48,4.09-2.1,1.48-4.14,3.05-6.23,4.6.59.04,1.14.04,1.68.14,2.21.41,3.2,2.55,1.99,4.45-.54.85-1.22,1.62-1.91,2.35-.85.9-1.78,1.72-2.75,2.65.36.03.6.04.84.06,1.37.1,2.4.73,2.95,2,.54,1.24.12,2.34-.7,3.29-3.13,3.63-6.72,6.77-10.63,9.54-1.1.78-2.12,1.69-3.12,2.6-.21.18-.34.62-.29.89.52,2.56,1.18,5.09,1.62,7.65.43,2.5.59,5.05.98,7.56.32,2.02.56,2.34,2.62,2.36,2.39.02,4.81-.18,7.18-.53,5.55-.82,11.08-1.79,16.62-2.7,1.93-.32,3.86-.63,5.65-.93-2.41-1.49-4.79-3.05-7.25-4.46-2.77-1.58-4.71-3.94-6.27-6.6-2.22-3.77-3.41-7.96-4.05-12.24-.4-2.7-.59-5.53-.22-8.22,1.15-8.38,5.23-15.34,11.06-21.36,3.8-3.92,8.23-6.86,13.4-8.65.81-.28,1.64-.47,2.47-.7-3.2.19-6.35.64-9.51.83-10.34.61-20.67,1.37-30.92,2.97-2.06.32-4.12.64-6.16,1.07-1.2.25-2.01.97-2.29,2.27-.23,1.05-.71,2.04-.98,3.08-.55,2.04-1.03,4.1-1.54,6.15-.04.03-.09.06-.13.08.03.02.06.03.09.05l.02-.15Zm58.85,43.72c4.77.11,9.63-.88,14.23-2.98,1.51-.69,3.03-1.44,4.4-2.38,3.75-2.59,6.32-6.16,7.98-10.38,2.21-5.65,2.58-11.53,1.97-17.5-.34-3.32-1.73-6.29-3.02-9.3-2.89-6.76-7.99-11.07-14.97-12.87-9.11-2.35-17.99-1.96-26.06,3.66-5.57,3.88-9.81,8.78-12.34,15.17-3.33,8.41-2.48,16.57,1.24,24.53,1.75,3.73,5.28,5.8,8.7,7.74,5.42,3.07,11.34,4.41,17.87,4.32Zm59.02-11.9c.54-.67.85-1.14,1.23-1.53,2.74-2.77,3.79-6.1,3.72-9.97-.1-5.15-.88-10.21-1.68-15.27-.47-2.96-1.17-5.87-1.69-8.82-.41-2.3-.59-4.64-1.07-6.92-1.1-5.23-3.32-10.03-6.06-14.59-.4-.67-.93-1.4-1.59-1.74-3.19-1.65-6.5-2.8-10.21-2.37-3.04.35-6.1.49-9.1.72.38,1.96.74,3.82,1.12,5.74,1.31,0,2.64.02,3.96,0,2.76-.04,5.44.4,7.96,1.48,1.01.44,2.11,1.13,2.69,2.02,1.11,1.71,2.04,3.58,2.76,5.49.9,2.37,1.69,4.81,2.25,7.28,1.08,4.76,2.14,9.53,2.86,14.34.57,3.78.68,7.64.87,11.47.08,1.55-.09,3.14-.32,4.68-.18,1.2-.83,2.22-2.08,2.95-.18-.49-.35-.8-.39-1.13-.23-1.76-.48-3.51-.62-5.28-.36-4.45-.43-8.94-1.07-13.34-.72-4.92-1.89-9.78-2.97-14.65-.74-3.31-1.84-6.51-3.55-9.46-.31-.53-.83-1.09-1.38-1.31-2.02-.8-4.14-1.19-6.34-1.12-2.93.09-5.87.02-8.79.18-8.15.44-16.3.96-24.45,1.46-1.21.07-2.42.23-3.62.35l-.02.28c5.72.52,11.53.65,16.51,3.96,1.63-1.65,3.33-1.92,5.17-.71,1.63,1.06,3.15,2.28,4.73,3.42.23.16.57.39.78.33,2.13-.64,3.83.35,5.22,1.65,3.33,3.13,5.99,6.82,7.86,11,2.79,6.23,4.19,12.92,6.14,19.42.4,1.35,1.1,2.88,2.15,3.71,2.86,2.26,5.98,4.19,9.02,6.28Zm-42.82-60.27c-.36,0-.7-.02-1.04,0-5.28.39-10.57.69-15.84,1.19-5.9.56-11.77,1.4-17.67,1.95-5.59.52-11.2.82-16.79,1.25-.31.02-.68.23-.89.46-.48.53-.9,1.12-1.32,1.7-.12.17-.23.41-.22.61.12,1.94-.62,3.27-2.54,3.59-2.18.36-4.43.38-6.65.41-1.76.03-3.26-.52-3.53-2.6-2.42.71-2.92,1.62-3.94,4.93,4.69-1.21,9.42-1.69,14.2-1.9,2.88-.12,5.73-.7,8.6-.95,6.63-.6,13.27-1.08,19.9-1.69,7.64-.71,15.26-1.53,22.89-2.28,1.79-.18,3.58-.3,5.34-.45-.17-2.09-.33-4.07-.51-6.22Zm-1.31-8.86c1.57-.18,3.03-.3,4.47-.54.43-.07.94-.4,1.19-.77,2.24-3.15,4.34-6.41,6.66-9.5,2.11-2.81,4.42-5.47,6.69-8.16.23-.27.76-.29,1.15-.42.03.39.21.85.08,1.17-.37.86-.79,1.72-1.33,2.48-3.11,4.33-6.27,8.63-9.41,12.94-.48.65-.96,1.3-1.6,2.15,1.27-.11,2.23-.23,3.2-.26.85-.03,1.31-.42,1.75-1.17,2.71-4.63,6.13-8.71,9.68-12.7.15-.17.5-.27.72-.22.16.03.38.36.37.54-.04.58-.08,1.2-.31,1.71-.34.76-.78,1.49-1.29,2.14-2.25,2.93-4.54,5.83-6.81,8.74-.13.17-.21.37-.35.62,1.31-.08,2.5-.09,3.67-.26.43-.06.92-.42,1.2-.78,1.72-2.23,3.37-4.52,5.1-6.74.38-.49.55-.89.4-1.49-.43-1.69-.72-3.42-1.22-5.08-.58-1.93-1.29-3.83-2.03-5.7-.14-.35-.69-.74-1.06-.76-1.94-.08-3.89-.04-5.52-.04-.59,1.08-.96,1.94-1.48,2.69-1.88,2.73-3.78,5.44-5.72,8.12-2.68,3.72-5.4,7.42-8.21,11.27Zm5.59,2.8c.38,4.02.75,7.95,1.12,11.94,2.27-.11,4.64-.22,6.91-.32-.33-4.15-.64-8.16-.96-12.11-2.36.16-4.82.34-7.08.49Zm8.56-24.76c-1.69.1-3.11.15-4.53.29-.32.03-.71.29-.9.56-3.99,5.62-7.96,11.26-11.92,16.9-1.07,1.52-2.11,3.06-3.28,4.77,1.02-.09,1.81-.21,2.6-.22.8,0,1.22-.42,1.62-1.06,1.16-1.82,2.36-3.62,3.62-5.37,3.91-5.46,7.84-10.9,12.78-15.88Zm-7.72.41c-1.61.21-2.96.33-4.28.6-.44.09-.92.45-1.19.82-2.83,3.83-5.64,7.69-8.42,11.56-.31.43-.58.97-.63,1.49-.23,2.32-.37,4.65-.54,6.98-.01.2.05.4.08.65,4.19-7.87,9.3-14.98,14.98-22.09Zm-8.26,1.42c-.03-.1-.06-.19-.09-.29-1.36.39-2.73.75-4.07,1.18-.27.09-.61.44-.65.71-.28,1.87-.48,3.74-.71,5.62.06.02.12.03.18.05,1.78-2.42,3.56-4.85,5.33-7.27Zm27.74,13.35c-1.37,1.65-2.68,3.23-4.15,5.01,1.7-.16,3.14-.29,4.67-.43-.1-1.16-.18-2.23-.28-3.3-.04-.4-.14-.8-.23-1.28Zm-87.73,23.67c1.61.64,5.18.3,5.92-.47-2.06.16-3.99.32-5.92.47Z"/>
          <path class="cls-3" d="m177.88,14.61c-1.39.82-2.77,1.69-4.19,2.46-4.89,2.67-9.87,5.18-15.2,6.87-.52.17-1.15.33-1.63.19-.64-.19-1.36-.58-1.72-1.1-.47-.68-.18-1.52.46-2.06.52-.45,1.1-.89,1.73-1.14,4-1.54,7.97-3.15,12.04-4.46,2.26-.72,4.69-.91,7.05-1.29.44-.07.92.1,1.38.16.03.12.05.24.08.37Z"/>
          <path class="cls-3" d="m106.56,32.09c-.36.15-.71.33-1.08.45-4.28,1.41-8.69,1.55-13.13,1.28-1.74-.1-3.47-.33-5.19-.55-.55-.07-1.17-.15-1.58-.46-.44-.34-.94-.97-.92-1.45.02-.48.55-1.17,1.02-1.36.88-.36,1.88-.57,2.84-.59,5.09-.13,10.18-.14,15.15,1.22,1,.27,1.96.71,2.94,1.07-.02.13-.03.26-.05.4Z"/>
          <path class="cls-3" d="m179.64,29.01c-.72.25-1.42.56-2.16.74-5.7,1.38-11.48,1.71-17.32,1.3-.17-.01-.35-.02-.52-.07-.78-.22-1.63-.42-1.66-1.45-.04-.98.67-1.5,1.48-1.63,2.33-.35,4.67-.7,7.02-.82,4.09-.2,8.13.29,12.13,1.18.2.04.4.11.6.18.12.05.23.13.34.19.03.12.06.25.09.37Z"/>
          <path class="cls-3" d="m106.6,26.71c-1.43-.25-2.87-.41-4.27-.76-4.71-1.17-9.34-2.53-13.35-5.42-.54-.39-1.19-.7-1.55-1.21-.33-.47-.6-1.26-.42-1.72.13-.35,1.02-.59,1.57-.57.75.02,1.54.21,2.22.54,4.27,2.02,8.53,4.07,12.76,6.18.95.47,1.76,1.23,2.61,1.9.26.21.4.56.6.85-.05.08-.1.15-.15.23Z"/>
          <path class="cls-3" d="m107.05,38.48c-.59.46-1.15.96-1.77,1.38-4.12,2.81-8.73,4.61-13.42,6.18-.68.23-1.45.31-2.16.25-.48-.04-1.2-.35-1.33-.71-.15-.44.04-1.21.38-1.57.57-.63,1.32-1.13,2.07-1.56,3.6-2.03,7.55-3,11.58-3.7,1.3-.23,2.61-.42,3.92-.62.19-.03.39.03.58.04.05.1.1.19.15.29Z"/>
          <path class="cls-3" d="m174.44,42.27c-.52.08-1.03.18-1.55.22-4.58.39-8.62-1.27-12.55-3.33-.86-.45-1.73-.91-2.56-1.41-.68-.41-1.07-1.03-.83-1.85.24-.79.94-1.13,1.64-1.03,1.47.22,3.02.37,4.34.98,3.57,1.65,7.04,3.51,10.53,5.31.38.19.69.51,1.03.77-.02.11-.03.22-.05.33Z"/>
          <path class="cls-3" d="m130.22,101.68c-.16.97-.23,1.97-.48,2.92-1.86,7.02-6.6,11.24-13.24,13.65-4.27,1.55-8.65,2.1-13.06,1.07-2.9-.68-5.74-1.73-8.49-2.91-1.43-.61-2.64-1.79-3.86-2.83-4.61-3.95-6.87-8.99-6.97-15.07-.07-4.56.5-9,2.3-13.19,2.55-5.93,6.59-10.48,12.72-12.9.92-.36,1.96-.41,2.96-.56.2-.03.54.1.61.24.07.15-.06.48-.21.62-.38.35-.79.68-1.24.95-6.41,3.89-10.79,9.46-13.11,16.51-1.58,4.8-1.46,9.79-.02,14.64.93,3.15,3.21,5.47,5.81,7.34,4.22,3.02,9.04,4.46,14.19,4.58,3.48.08,6.66-1.21,9.73-2.82,3.7-1.94,6.26-4.89,8.25-8.49.69-1.25,1.8-2.27,2.75-3.36.23-.26.63-.38.95-.57.13.06.26.11.39.17Z"/>
          <path class="cls-3" d="m130.12,99.72c-.15-2.2-.22-4.17-.43-6.12-.48-4.53-1.52-8.92-3.52-13.04-.8-1.66-1.89-3.07-3.4-4.16-.9-.65-1.78-1.35-2.59-2.1-.25-.23-.46-.79-.35-1.06.11-.26.67-.48,1.01-.45.57.05,1.18.22,1.68.5,2.86,1.64,5.16,3.79,6.75,6.77,2,3.76,3.02,7.77,3.48,11.95.29,2.58-.54,4.87-1.9,7.01-.13.21-.37.35-.73.69Z"/>
          <path class="cls-3" d="m115.99,72.75c-2.68.1-5.35.26-8.03.27-.51,0-1.28-.39-1.47-.81-.34-.73.33-1.19.96-1.48,2.6-1.17,5.14-1.08,7.55.5.46.3.79.8,1.18,1.2-.06.1-.13.21-.19.31Z"/>
        </g>
      </g>
    </g>
  </g>
</svg>