<?xml version="1.0" encoding="UTF-8"?>
<svg id="Livello_2" data-name="Livello 2" xmlns="http://www.w3.org/2000/svg" viewBox="0 0 202.83 187.08">
  <defs>
    <style>
      .cls-1 {
        fill: #f4e9e9;
      }

      .cls-1, .cls-2, .cls-3 {
        stroke-width: 0px;
      }

      .cls-2 {
        fill: #9e8d8d;
      }

      .cls-3 {
        fill: #ffd6a5;
      }
    </style>
  </defs>
  <g id="Livello_3" data-name="Livello 3">
    <g>
      <path class="cls-3" d="m202.79,17.06c-.03-1.62-.35-6.31-2.41-7.07-9.61-3.58-20.13-3.57-30.4-2.96-.46-1.91-1.75-5.91-3.44-4.2-1.54,1.55-3.03,3.14-4.49,4.75-.43.03-.87.06-1.3.09-16.2,1.14-32.12.5-48.27-1-6.54-.61-13.08-1.27-19.62-1.93-.73-1.17-1.76-1.86-2.92-.3C62.69,1.68,35.38-.98,8.01.36c-2.88.14-3.06,5.86-3.05,7.61.09,16.4-2.99,32.87-3.86,49.27-.83,15.75-2.21,32.25.51,47.87.69,3.93,1.52,7.78,2.33,11.59-.93,2.59-1.79,5.22-2.57,7.88-.81,2.74-1.01,5.86-.23,8.64.27.97,1.62,4.71,3.26,3.2.49-.45.96-.91,1.42-1.39.02,3.26-.01,6.54-.04,9.83-1.48,5.69-2.43,11.61-2.69,17.82-.06,1.34,1.05,10.18,3.41,9.13.52,3.44,1.37,6.82,2.73,10.11,1.08,2.61,3.11,2.37,4.37.48.56.21,1.21-.02,1.98-.95.65-.8,1.29-1.61,1.94-2.41,9,.66,18.69-2.42,27.42-3.74,23.11-3.5,44.45,5.5,67.25,6.98,26.11,1.7,52.46-3.71,77.93,4.67,1.57.52,2.43-.5,3.02-1.92,5.18-12.54,4.75-25.87,4.85-39.17.11-14.35,1.68-28.56,1.26-42.96-.42-14.52-.61-28.54.89-43.02,1.49-14.26,2.95-28.45,2.66-42.81Zm-10.19,104.99c-.63-1.22-1.51-2.13-2.58-1.2-6.74,5.86-11.12,13.74-15.85,21.18-.07.1-.13.21-.2.31,6.25-11.56,12.62-23.06,18.88-34.61,0,4.78-.08,9.55-.25,14.32Zm-23.61,44.35c.08.79.22,1.54.41,2.2-.79-.08-1.57-.16-2.36-.23.67-.63,1.32-1.29,1.95-1.97Zm9.66,1.71c-.07.58-.12,1.17-.16,1.77-.65-.12-1.31-.23-1.96-.34.74-.41,1.44-.89,2.12-1.43Zm10.41-8.52c1.04-2.58,1.97-5.19,2.71-7.87.02,7.05-.24,14.09-2.41,20.74-.71-.21-1.42-.43-2.13-.63,1.57-3.85,2.14-8.01,1.82-12.25Zm2.68-17.42c-.47-1.95-1.21-3.44-2.31-3.3.83-1.28,1.69-2.55,2.58-3.8-.04.72-.08,1.44-.12,2.16-.09,1.63-.14,3.28-.15,4.93ZM15.85,16.52c-1.27,4.05-3.45,7.63-5.74,11.2.47-4.13.87-8.27,1.11-12.42,1.51-.06,3.02-.12,4.53-.15-.12.41-.12.98.11,1.37Zm33.63-.58c2.77.17,5.54.36,8.31.57-4.23,4.69-8.35,9.47-12.37,14.34,1.95-4.7,3.37-9.64,4.05-14.91Zm42.33,13.15c-9.65,11.93-19.86,23.43-29.03,35.72,8.97-15.03,17.75-30.18,27.78-44.54.18-.23.35-.46.53-.7,2.38.24,4.76.48,7.14.72-2.16,2.92-4.3,5.84-6.42,8.79Zm-31.21,68.65c-5.65,7.02-10.99,14.28-15.41,22.24-.3-.11-.6-.23-.86-.32.25-.69.48-1.32.67-1.66.89-1.62,1.84-3.22,2.81-4.79,3.98-6.42,8.32-12.74,12.92-18.73,1.79-2.32,3.7-4.54,5.66-6.69-1.92,3.32-3.84,6.65-5.79,9.96ZM12.4,164.07c0-.27,0-.53,0-.8.08-.13.17-.26.25-.39-.09.39-.17.79-.25,1.19Zm-2.01-65.15c-.04-1.47-.08-2.94-.12-4.4,6.25-9.33,12.65-18.56,19.29-27.6-6.89,11.09-13.56,22.34-19.11,34.12-.02-.7-.04-1.41-.06-2.11Zm30.87-17.49c-.79,1.16-1.59,2.33-2.4,3.48-7.54,10.73-15.26,21.38-21.61,32.6,1.43-2.77,2.86-5.55,4.41-8.25,5.66-9.81,12.7-18.82,19.59-27.83Zm-27.4,42.42c-.34.67-.67,1.34-.99,2.02-.01-.08-.03-.16-.04-.24.35-.59.7-1.18,1.03-1.77Zm25.24-22.26c-8.46,14.08-16.79,28.24-25.49,42.17,0-.04,0-.07,0-.11,5.81-15.15,15.93-28.66,25.48-42.06Zm25.84-69.85c-7.75,10.05-14.45,20.88-22.05,31.05-.5.67-1,1.33-1.5,2,9.22-15.59,17.97-31.47,28.58-46.17.22-.31.4-.66.56-1.04,2.18.2,4.36.4,6.54.61-4.42,4.17-8.42,8.75-12.12,13.55Zm-26.73,93.77c.44,1.62,1.14,3.11,2.18,4.28-6.06,9.05-12.2,18.04-18.69,26.79,15.77,3.98,18.92-9.94,16.51-31.07Zm3.68,32.39c.44-1.65,1.1-3.27,1.77-4.81,2.3-5.35,5.57-10.32,8.91-15.07,3.18-4.53,6.61-8.85,10.11-13.12-.43.93-.84,1.86-1.25,2.8-6.25,9.96-10.94,22.19-19.54,30.21Zm53.78-59.73c1.37-1.7,2.75-3.38,4.14-5.06-1.96,2.73-3.91,5.46-5.89,8.18-3.89,4.59-7.75,9.19-11.4,13.97-1.25,1.63-2.44,3.29-3.59,4.96-.33.37-.67.74-1,1.1,5.73-7.87,11.65-15.6,17.75-23.15ZM196.66,26.15c-.24.03-.49.13-.77.32-9.63,6.8-18.08,15.28-25.77,24.54,1.09-2.33,2.17-4.67,3.29-6.99.32-.65.63-1.32.96-2,2.68-3.53,5.25-7.16,7.63-10.94,1.58-2.51,1.43-6.47.9-9.24-.02-.1-.05-.22-.08-.36,4.76.14,9.46.69,13.9,2.01-.01.89-.04,1.77-.07,2.66Zm-68.47,67.68c.15-.28.3-.56.45-.85,6.1-7.17,12.6-14.01,19.11-20.84-2.83,4.51-5.67,9-8.48,13.52-8.37,13.48-16.8,26.9-25.5,40.17-1.39,2.13-2.79,4.25-4.19,6.38,6.04-12.9,11.98-25.76,18.61-38.38Zm41.85-62.82c-6.57,8.44-13.87,16.3-21.28,24.06,1.48-2.81,2.94-5.62,4.41-8.44.63-.76,1.25-1.51,1.87-2.28,5.29-6.64,10.78-14.15,13.26-22.35,2.44-.19,4.9-.36,7.37-.46-2.23,2.78-4.02,6.06-5.62,9.46Zm-55.02,60.65c3.62-5.09,7.08-10.31,10.49-15.58,2.72-2.87,5.49-5.69,8.26-8.52-1.36,2.58-2.71,5.17-4.06,7.76-1.64,1.83-3.26,3.67-4.84,5.54-14.59,17.25-28.2,35.23-42.93,52.31,9.85-14.56,23.03-27.37,33.08-41.52Zm-5.05,24.17c-2.1,4.7-4.18,9.42-6.26,14.15-2.8,6.36-5.8,12.53-9.18,18.61-2.48,4.47-5.02,9.26-5.28,14.48-.03.61.06,1.24.21,1.82-6.11-1.21-12.21-2.47-18.38-3.29,13.8-14.57,26.33-30.16,38.88-45.76Zm11.81,26.98c6.99-11.93,13.74-23.92,21.2-35.57,11.46-17.88,23.49-37.43,38.77-53.01-21.19,37.39-49.76,70.51-70.56,108.19-.42.76-.91,3-1.11,5.46-1.97-.14-3.94-.31-5.91-.54,6.98-7.24,12.53-15.88,17.6-24.52Zm70.65-60.71c-.03,3.11-.01,6.22.05,9.35-.26.04-.53.13-.83.3-1.78.98-3.5,2.09-5.17,3.31,2.31-4.21,4.35-8.53,5.95-12.96Zm1.41-25.06c-.18,1.76-.35,3.52-.49,5.28-.5-.66-1.12-.82-1.91-.14-3.29,2.87-6.38,5.92-9.36,9.08,4.59-7.78,8.91-15.73,12.82-23.92-.36,3.24-.73,6.47-1.07,9.7Zm-46.11-33.8c-15.04,16.24-30.11,32.47-44.49,49.29.77-1.35,1.54-2.69,2.31-4.03,4.45-6.45,8.65-12.98,12.41-19.88.51-.94,1.02-1.89,1.54-2.83,4.56-5.75,8.86-11.7,12.69-18,.1-.17.18-.36.27-.54.53-.66,1.05-1.33,1.59-1.99.27-.33.51-1.11.68-2.12,4.33.14,8.65.19,12.99.11Zm-30.53-1.15c-2,1.89-3.87,3.94-5.64,6.06-.39-.35-.83-.42-1.32-.07-7.83,5.59-14.09,13.04-20.39,20.4,1.26-1.78,2.53-3.56,3.81-5.33,5.7-7.01,11.22-14.16,16.23-21.7.33.03.66.06.99.09,2.11.2,4.22.38,6.32.56Zm-79.68-6.75c-4.6,4.88-9.07,9.85-13.29,15.04-.04-1.45-.31-2.89-.89-4-1.03-1.98-2.42-2.24-3.31.08-2.72,7.03-5.85,13.89-7.98,21.13-.75,2.55-.95,5.64.01,8.18.5,1.33,1.8,3.64,3.16,1.53,6.5-10.12,14.24-19.13,22.47-27.77-4.76,7.85-11.09,15.07-16.29,21.82-4.33,5.62-8.42,11.35-11.81,17.4-.07-3.34-.14-6.68-.2-10.01-.08-4.62-.13-9.24-.16-13.86.01-.02.02-.03.04-.06.79-1.58,1.15-3.07,1.34-4.62,4.91-7.6,9.99-15.92,9.21-25.11,5.91-.06,11.81.03,17.71.25Zm-9.44,149.8c2.72-3.74,5.37-7.52,7.99-11.33-.56,3.31-.7,6.66-.31,9.92-1.92.36-3.84.71-5.77,1.04-.48.08-1.15.22-1.91.38Zm24.51-4.06c3.19-5.17,5.9-10.71,9-15.91,1.64.34,3.31.14,4.97-.45-1.04,3.17-1.92,6.42-2.59,9.77-.41,2.02-.46,4.29-.06,6.38-.17-.01-.34-.03-.51-.04-3.66-.22-7.25-.08-10.8.25Zm71.55,7.19c1.85-2.25,3.48-4.56,4.84-6.34,6.12-7.99,11.56-16.49,16.96-24.97,5.15-8.07,10.6-15.84,16.16-23.64,3.45-4.85,6.94-9.69,10.57-14.4-2.71,4.1-5.49,8.16-8.26,12.22-5.2,7.61-10.11,15.4-15.44,22.92-6.8,9.6-13.76,19.09-19.37,29.46-.32.58-.7,2.47-.91,4.65-.33,0-.67.02-1,.03-1.19.03-2.37.05-3.55.06Zm20.22-.5c.55-.65,1.09-1.31,1.62-1.96,5.27-6.52,9.59-13.77,14.01-20.88,4.08-6.55,8.48-13.76,13.52-20.41-6.82,12.56-13.54,25.17-19.87,37.99-.31.63-.56,2.84-.54,5.23-2.91-.03-5.83-.02-8.75.03Z"/>
      <g>
        <path class="cls-1" d="m5.36,155.06c-1.4-3.7-1.82-7.9-2.56-11.99-2.47,4.29-.48,8.81,2.56,11.99Z"/>
        <path class="cls-1" d="m186.24,123.06c-1.39-10.69,1.37-22.16-2.46-32.44-1.57-4.23-4.53-7.61-6.49-11.57-2.03-4.12-1.85-7.37-6.02-10.21-3.45-2.35-7.92-2.52-11.92-3.33-4.47-.91-5.73-2.53-9.07-6-2.87-2.99-5.95-6.94-9.78-8.2-2.06-.68-4.28.08-6.24-.56-2.24-.73-3.58-2.66-5.79-3.57-1.34-.55-5.21-1.87-6.3.1-.48.88.77,2.78,1.48,4.11-10.43,2.21-21.3,4.38-31.74,7.57-3.95,1.21-31.43,13.07-29.29,2.64-4,.62-5.46-1.54-9.71.04-4.22,1.57-6.98,4.35-9.68,7.88-2.98,3.9-6.23,7.57-10.02,10.53l.59-1.2c-11.03.98-15.97,11.74-19.1,20.86-1.43,4.16-2.14,8.45-2.75,12.77-3.91,10.03-8.25,20.19-9.7,30.37l5.7-11.56c-3.24,8.93-7.59,17.85.73,25.92.57.56,1.19,1.12,1.85,1.67,2.08,1.19,4.25,2.35,5.92,3.97,3.27,1.65,6.75,2.49,9.77,1.5,2.26-2.23,4.66-4.6,6.53-6.97,1.54-3.32,2.54-7.38,2.85-11.35-.99-4.95-2.85-8.65-2.59-11.26-.45.19-.89.39-1.31.86.36-.76.86-1.25,1.42-1.53.33-1.21,1.26-2.15,3.17-2.84,5.58-2,11.27-4.45,16.84-6.69,6.07-2.44,13.02-6.75,19.35-7.94,8.62-1.62,7.37-4.6.48-8.36,6.38-.77,13.44-1.22,19.63-2.73,3.42-.84,6.72-3.1,10.19-3.46,3.52-.36,2.3.16,5.26,1.2,10.08,3.53,22.64.89,31.17,8.49,8.41,7.5,15.22,16.19,19.91,26.24,2.56,5.49,3.19,7.68,9.26,8.7,2.47.42,4.3.26,6.77.56,2.05.25,3.96,2.14,6.06,2.14,12.05.01,5.98-19.29,5.06-26.34Zm-122.07-16.61l-.6.8c-1.59,2.11-4.36,3.34-6.84,1.79-9.41-5.85-13.39-19.38-7.98-29.19,3.11-5.64,11.74-.59,8.63,5.05-2.45,4.44-.78,10.98,2.97,14.42,3.4.37,6.38,3.72,3.81,7.14Zm81.25-6.97c-.84.92-2.31,1.46-3.54,1.46-1.13,0-2.8-.53-3.54-1.46-1.04-1.32-1.7-2.43-2.31-3.99-.01-.04-.02-.08-.04-.11-.57-.83-.92-1.82-.92-2.83v-1c0-2.51,1.9-4.58,4.34-4.91,2.39-.32,4.88,1.16,5.49,3.58.17.7.35,1.4.58,2.08,0,.01,0,.02,0,.03.21.35.73,1.09.08.28,0,.01,0,.02,0,.03.76,1.01,1.24,1.99,1.3,3.3.06,1.33-.59,2.58-1.46,3.54Z"/>
        <path class="cls-1" d="m33.79,134.37c1.62,2.96,2.13,7.24,1.79,11.65.23,1.13.41,2.32.51,3.57h0c.52-1.67,1-3.34,1.24-5.13.21-1.5,1.29-6.5.42-8.29-.92-1.88-3.04-2.87-4.64-2.08-.06.21-.1.44-.12.67.26-.11.53-.22.8-.38Z"/>
        <path class="cls-1" d="m36.09,149.59c-.55,1.76-1.16,3.51-1.66,5.38,1.13-1.85,1.79-3.66,1.66-5.38Z"/>
        <path class="cls-1" d="m20.48,170.5c.54-.75,1.22-1.54,1.99-2.38-1.3-.25-2.6-.67-3.88-1.18.38,1.24.78,2.46,1.89,3.56Z"/>
        <path class="cls-1" d="m16.44,162.83c-2.12-1.07-4.16-2.49-5.92-3.97-.76-.43-1.51-.87-2.22-1.34-1.02-.67-2.02-1.51-2.94-2.47.96,2.56,2.39,4.89,4.72,6.78,2.15,1.74,5.23,3.76,8.52,5.1-.42-1.37-.8-2.76-2.08-4.03-.03-.03-.06-.05-.09-.08Z"/>
        <path class="cls-1" d="m29.84,161.94c-1.09,1.2-2.31,1.97-3.63,2.4-1.34,1.32-2.63,2.59-3.73,3.79,3.76.74,7.42.13,9.95-3.21,1.76-2.32,1.17-6.6,1.85-9.35.05-.2.11-.4.16-.6-.49.8-1.06,1.6-1.7,2.4-.82,1.78-1.79,3.35-2.9,4.57Z"/>
        <g>
          <path class="cls-2" d="m192.16,133.6c-.77-5.97-1.03-12.02-2.06-17.94-2.02-11.6-3.97-23.24-8.79-34.13-1.98-4.48-4.46-8.65-7.62-12.38-1.72-2.04-3.36-2.35-5.91-1.31-1.32-1.26-2.72-2.56-4.08-3.89-1.52-1.49-3.29-2.11-5.33-1.36-.82.3-1.26.1-1.85-.44-1.47-1.37-2.94-3.15-5.03-3.12-2.32.04-3.27-1.25-4.6-2.75-4.55-5.13-10.04-9.1-16.47-11.52-3.84-1.45-7.88-2.39-12.07-1.61-.8.15-1.64.33-2.36.7-2.46,1.26-2.64,3.64-.44,5.35.5.39,1.07.69,1.69,1.08-.4.08-.68.15-.96.19-4,.52-8.01,1.04-12.01,1.55-7.77.99-15.44,2.44-23.05,4.29-3.21.78-6.49,1.33-9.74,1.95-.24.05-.62-.11-.79-.3-.94-1.12-2.17-1.73-3.57-1.82-5.04-.31-10.05-.07-14.7,2.14-4.09,1.95-8.08,4.02-11.24,7.5-2.59,2.85-4.78,5.91-6.7,9.21-.17.29-.52.53-.85.64-2.34.84-4.49,1.94-6.1,3.92-.27.33-.72.58-1.13.72-2.56.84-4.74,2.16-6.43,4.34-3.19,4.1-5.31,8.69-6.71,13.67-1.37,4.88-2.89,9.72-4.3,14.6-1.91,6.6-3.72,13.23-5.67,19.82-.93,3.13-1.49,6.31-1.6,9.56-.02.49.45,1,.69,1.5.42-.33,1-.57,1.22-1,.39-.75.59-1.62.83-2.44,2.29-8.03,4.57-16.06,6.87-24.08,1.42-4.95,2.83-9.89,4.31-14.82.95-3.17,1.75-6.4,3.07-9.41,1.02-2.33,2.73-4.38,4.17-6.52.27-.41.78-.66,1.42-1.18-.17.55-.25.78-.31,1.02-.44,1.78-.94,3.55-1.26,5.35-.09.48.36,1.05.56,1.58.46-.32,1.1-.55,1.34-.99.65-1.2,1.21-2.46,1.65-3.75.9-2.64,2.71-4.65,4.48-6.69.51-.59,1.28-.97,2.16-1.61-.26,1.03-.5,1.75-.62,2.48-.44,2.7-.88,5.39-1.23,8.1-.06.43.32.93.5,1.39.41-.33.95-.58,1.2-1.01.42-.7.7-1.5.95-2.29.8-2.54,1.64-5.07,2.33-7.64,1.07-4,3.27-7.41,5.83-10.49,2.45-2.95,5.49-5.26,8.9-7.24,4.77-2.75,9.8-3.64,15.12-3.72.82-.01,1.69.3,2.47.63.54.23.59.76-.06,1.02-1,.4-2.02.75-3.04,1.09-2.22.73-4.47,1.37-6.65,2.19-1.79.68-3.27,1.84-4.24,3.54-1.3,2.29-2.75,4.51-3.77,6.92-1.56,3.67-2.93,7.43-4.13,11.23-.67,2.14-1.01,4.43-1.17,6.67-.25,3.6-.3,7.24,1.52,10.56,2.03,3.69,4.6,6.86,8.89,7.99,2.01.53,4.08.91,6.15,1.13,6.18.63,12.2-.74,18.25-1.6,1.16-.17,2.32-.32,3.47-.47.1.14.19.28.29.42-.29.41-.5.95-.89,1.2-3.81,2.37-7.48,5.09-11.54,6.94-5.42,2.47-10.86,4.96-16.65,6.56-3.87,1.06-7.66,2.48-11.44,3.84-4.06,1.47-6.4,4.44-7.31,8.66-1.16,5.35-2.5,10.65-3.66,16-.68,3.13-1.19,6.29-1.71,9.45-.16,1-.22,2.06.75,3.24.54-.94,1.15-1.67,1.39-2.5,1.01-3.6,1.93-7.23,2.83-10.86,1.24-5.03,2.42-10.08,3.66-15.11.7-2.85,2.41-4.86,5.13-5.99,1.06-.44,2.1-.96,3.19-1.31,2.53-.81,5.07-1.62,7.64-2.3,4.94-1.3,9.51-3.49,14.18-5.48,6.05-2.58,11.54-6,16.59-10.18,1.06-.88,1.94-1.85,1.63-3.26,3.42-.9,6.75-1.79,10.1-2.64,3.28-.83,6.59-1.55,9.86-2.42.66-.17,1.09-.14,1.68.18,1.68.89,3.34,2.03,5.14,2.41,4.68,1,9.41,1.89,14.16,2.36,5.99.59,10.66,3.47,14.18,7.98,4.39,5.61,8.36,11.56,12.36,17.47,2.73,4.02,5.18,8.24,7.81,12.33.62.96,1.4,1.83,2.19,2.65.32.33.87.45,1.32.66.1-.08.2-.16.3-.24-.2-.93-.26-1.93-.63-2.79-1.11-2.58-2.1-5.25-3.58-7.61-3.24-5.15-6.69-10.17-10.19-15.16-3.52-5.01-7.11-9.98-11.92-13.91-1.47-1.2-3.02-2.17-4.79-2.86-2.89-1.14-5.91-1.5-8.95-1.94-3.92-.57-7.82-1.28-11.71-2.01-.46-.09-1.1-.65-1.16-1.06-.06-.4.45-1.02.87-1.29.45-.29,1.09-.38,1.65-.39,7.86-.14,15.72-.27,23.58-.35,1.47-.01,2.95.22,4.42.31,1.99.12,2.82-.79,2.53-2.74-.04-.25-.11-.49-.15-.74-.72-4.15-2.46-7.96-3.84-11.9-1.84-5.26-3.74-10.51-5.21-15.88-1.69-6.17-4.09-11.9-8.33-16.76-.44-.5-.99-.98-1.59-1.24-1.94-.85-3.95-1.55-5.89-2.4-1.6-.7-3.13-1.53-4.97-2.45.67-.28.99-.52,1.31-.53,1.83-.08,3.7-.38,5.48-.1,4.53.7,8.73,2.34,12.45,5.12,1.18.88,2.55,1.51,3.69,2.44,4.63,3.78,7.73,8.66,9.89,14.18.81,2.08,1.68,4.13,2.6,6.16.33.74.97,1.4,1.88,1.08.91-.33.86-1.23.81-2.04,0-.11-.03-.21-.07-.32-.6-1.84-1.09-3.73-1.85-5.51-.73-1.74-1.73-3.36-2.73-5.25.58.27,1.03.4,1.38.66,1.79,1.36,3.36,2.91,4.59,4.83,1.21,1.87,2.57,3.65,3.99,5.37.35.43,1.25.8,1.73.66.8-.25.77-1.19.5-1.87-.54-1.33-1.16-2.62-1.82-3.89-.38-.72-.9-1.36-1.36-2.04.08-.08.16-.17.24-.25.42.24.98.38,1.23.73,1.65,2.42,4.48,3.77,5.82,6.47.14.28.4.51.65.72,1.21.98,2.67.41,2.88-1.13.06-.39.06-.8.08-1.2.09-.03.17-.07.26-.1.15.21.29.41.44.61,2.61,3.42,4.94,7.01,6.63,10.98,2.53,5.92,4.22,12.09,5.53,18.38,1.86,8.9,3.62,17.79,4.29,26.89.47,6.5,1.49,12.97,2.29,19.44.08.66.3,1.35.62,1.93.22.38.76.82,1.13.8.36-.02.86-.53,1-.94.26-.73.35-1.54.42-2.32.42-4.35-.18-8.63-.74-12.93Zm-139.98-28.3c-.96-1.29-2.07-2.55-2.69-4.01-2.11-4.99-1.45-10.09-.11-15.13.55-2.08,1.38-4.08,2.17-6.34,1.61,9.92,4.42,19.3,6.69,28.8-2.23-.42-4.5-1.21-6.06-3.31Zm91.26-8.03c-1.2-.07-2.3-.14-3.46-.21-.23-3.81-.47-7.6-.7-11.4,1.72,3.73,3.43,7.45,4.16,11.61Zm-57.33-11.43c-.21,0-.38,0-.55-.03.25-.12.47-.29.61-.55.91-1.67,1.75-3.37,2.58-5.08-.42,1.3-.85,2.61-1.24,3.91-.18.61.1,1.28.61,1.63-.25.29-.5.59-.73.9-.26-.45-.72-.8-1.27-.78Zm9.52.01c-.43.67-.83,1.35-1.22,2.05.12-.44.25-.88.35-1.33.22-.95-.31-1.59-1-1.77.36-.54.71-1.1,1.04-1.66.57.36,1.34.38,1.83-.08-.18.82-.4,1.62-.69,2.39,0,.02,0,.05,0,.07-.12.09-.22.2-.3.33Zm-10.55,4.46s-.02-.07-.03-.11c.06-.05.11-.1.17-.15-.04.09-.09.17-.14.26Zm5.67-3.29c.05-.11.07-.23.09-.33.07.04.14.08.21.12-.25.39-.49.79-.72,1.2.14-.33.28-.65.42-.98Zm1.69,10.61c-.37.99-.7,1.99-.93,3.02-.01.06-.02.12-.02.18-.48.08-.96.17-1.44.25.89-1.1,1.67-2.26,2.4-3.45Zm3.52,1.27c-.02.24-.04.47-.05.71,0,.16.02.3.06.44-.22.04-.45.08-.68.12.23-.42.46-.84.67-1.27Zm4.91-.95c0,.28,0,.57.03.85.01.13.04.26.08.38-.41.07-.83.14-1.24.22.4-.46.78-.94,1.14-1.45Zm5.15-.08c.05.14.1.27.14.41-.17.03-.34.06-.51.09.13-.16.26-.33.37-.5Zm-1-3.65c-.25.09-.5.16-.75.23.13-.85.24-1.7.25-2.56.57.73.99,1.5,1.3,2.31-.25-.08-.53-.09-.81.02Zm-3.28-3.47c-.64,1.01-1.22,2.08-1.83,3.13.26-1.08.51-2.17.66-3.26.15-1.14-1.2-1.71-2.12-1.34.05-.42.07-.85.07-1.28,1.41.61,2.83,1.24,4.07,2.1-.33.1-.64.3-.85.64Zm-7.08-18.78c-.26.37-.51.74-.76,1.12.25-1.05.48-2.1.67-3.16.49.35.88.83,1.2,1.38-.42.06-.83.27-1.11.66Zm-5.24,0c-.07-.41-.32-.76-.66-.99.56-.56,1.19-1.03,1.88-1.34-.42.77-.82,1.55-1.22,2.33Zm-4.53,5.36c-.41,1.52-.78,3.05-1.09,4.6.01-.14.02-.28.03-.41.16-1.41.54-2.82,1.06-4.19Zm1.9,24.32c.27-.4.54-.81.78-1.22.13.39.41.74.75.96-.51.09-1.03.18-1.54.27Zm41.49-29.02c.49-.96,1.39-1.44,2.51-1.35,1.09.09,1.61.85,1.94,1.78.72,1.99.06,3.68-1.56,4.49-1.82.91-3.88-.54-3.74-2.41.27-.84.45-1.73.85-2.51Zm-2.97,22.31c-5.19.9-10.41,1.81-15.61,2.72-.1-.8-.2-1.6-.38-2.39-.42-1.94-1.28-3.77-2.52-5.32-1.97-2.46-4.8-3.62-7.58-4.88.89-3.05,1.07-6.46.74-9.56-.37-3.45-1.56-7.51-5.16-8.83-3.66-1.35-7.12.72-9.33,3.53-2.42,3.09-4.1,6.98-4.59,10.87-.34,2.64.22,5.52,2.17,6.92-4.63,4.13-9.4,9.64-8.38,15.77-2.63.46-5.25.92-7.88,1.37-2.55-11.43-5.05-22.63-7.56-33.89,3.11-.88,6.19-1.83,9.31-2.63,8.05-2.06,16.1-4.17,24.19-6.04,5.82-1.35,11.71-2.42,17.59-3.45,3-.52,6.06-.67,9.21-1.01,1.94,12.38,3.86,24.6,5.77,36.83Z"/>
          <path class="cls-2" d="m69.45,44.51c1.06,1.43,2.35,2.7,3.64,3.94.31.29,1.04.14,1.58.19-.09-.47-.05-1.01-.28-1.38-.93-1.54-1.96-3.02-2.93-4.53-.98-1.53-1.93-3.07-2.89-4.6.43,0,.73.1,1,.26,1.79,1.08,3.53,2.23,5.36,3.23,1.54.84,3.14,1.61,4.78,2.23,1.52.58,2.87.19,3.31-.9.29-.73.34-1.6.29-2.4-.09-1.46-.36-2.92-.52-4.38-.22-2.1-.44-4.21-.6-6.32-.14-1.84-.19-3.68-.28-5.53.55,1.08.83,2.22,1.17,3.33,1.22,3.99,2.43,7.98,3.71,11.95.51,1.57,1.08,3.13,1.81,4.61.25.5,1.08,1.02,1.61.98.51-.04,1.08-.71,1.43-1.23.33-.49.34-1.17.58-1.72,1.69-3.81,3.29-7.66,5.16-11.38,1.18-2.34,2.77-4.48,4.18-6.7.12.05.23.1.35.15-.71,4.49-1.46,8.97-2.13,13.46-.2,1.35-.31,2.72-.3,4.08.02,1.99,1.4,2.7,3.04,1.6.68-.46,1.33-.98,1.93-1.55,1.72-1.63,3.4-3.31,5.11-4.95.32-.31.76-.5,1.14-.75.03-.1.05-.19.08-.29.03.02.06.04.09.06-.05.08-.11.16-.16.24-.74,1.43-1.52,2.85-2.22,4.31-.57,1.2-1.33,2.39-.85,4.13.75-.67,1.43-1.16,1.98-1.77,2.86-3.2,4.78-7,6.57-10.85.45-.96.31-2.19.44-3.29-.14-.1-.28-.2-.42-.31-1.24.59-2.69.95-3.68,1.83-3.18,2.8-6.19,5.79-9.26,8.72-.36.34-.67.73-1.18,1.28.09-1.27.1-2.24.22-3.19.61-4.55,1.25-9.09,1.86-13.64.19-1.42-.26-2.77-1.02-2.96-1.27-.33-1.99.56-2.71,1.38-.05.05-.09.11-.14.17-3.36,4.22-6.09,8.81-8.07,13.83-.56,1.42-1.16,2.82-1.85,4.49-.18-.44-.26-.59-.31-.75-1.43-4.6-2.79-9.21-4.3-13.78-.98-2.96-2.17-5.86-3.29-8.78-.28-.73-.81-1.25-1.65-1.12-.89.13-1.25.85-1.28,1.65-.11,2.59-.24,5.18-.2,7.77.03,2.44.24,4.88.4,7.32.1,1.58.26,3.15.39,4.72.08,1.09.15,2.18.23,3.41-.41-.17-.68-.25-.92-.38-3.19-1.75-6.37-3.51-9.56-5.26-1.48-.81-2.95-1.64-4.46-2.38-.83-.41-1.76-.36-2.37.4-.66.83-.32,1.7.22,2.48,2.04,2.96,4.02,5.97,6.15,8.86Z"/>
          <path class="cls-2" d="m118.54,128.42c-1.59-5.3-3.86-10.29-6.78-14.99-.74-1.19-1.6-2.3-2.41-3.45-.11.06-.23.13-.34.19.43,5.14,3.21,9.56,4.59,14.45-.99-.87-1.88-1.8-2.69-2.78-1.12-1.36-2.14-2.79-3.26-4.15-1.01-1.22-2.51-1.2-3.11.03-.26.54-.45,1.16-.5,1.75-.19,2.36-.29,4.73-.45,7.1-.21,3.21-.44,6.41-.67,9.62-.27-.31-.41-.63-.49-.96-.78-3.32-1.56-6.63-2.32-9.95-.33-1.43-.53-2.9-.96-4.3-.41-1.35-1.86-1.63-2.69-.6-1.73,2.16-3.44,4.34-5.13,6.52-1.01,1.3-1.98,2.64-2.97,3.96.38-2.84.95-5.58,1.46-8.32.31-1.65.57-3.33.7-5,.04-.44-.48-.93-.74-1.4-.38.32-.79.61-1.11.98-.18.2-.24.52-.31.8-.79,3.02-1.62,6.04-2.33,9.08-.65,2.82-1.2,5.68-1.72,8.53-.17.91.1,1.76,1.1,2.1,1,.33,1.55-.4,2.04-1.06,2.1-2.83,4.16-5.69,6.25-8.51.95-1.28,1.96-2.51,3.01-3.84.18.31.28.42.31.55,1.18,5.14,2.34,10.29,3.53,15.42.19.83.5,1.65.83,2.44.29.69.87,1.19,1.62.93.54-.19,1.06-.66,1.39-1.14.3-.45.41-1.08.46-1.65.39-5.33.75-10.67,1.12-16.01.08-1.17.17-2.34.28-3.76.36.51.58.79.77,1.1,2.17,3.5,5.17,6.24,8.15,9.01.81.75,1.71,1.12,2.74.58.81-.42,1.06-1.66.73-2.95-.03-.1-.07-.2-.11-.31Z"/>
          <path class="cls-2" d="m42.21,111.82c-1.07-1.15-2.01-2.26-3.07-3.25-.52-.48-1.24-.11-1.35.59-.19,1.14.21,2.09,1.16,2.7.93.6,1.97.88,3.27-.04Z"/>
        </g>
      </g>
    </g>
  </g>
</svg>