<?xml version="1.0" encoding="UTF-8"?>
<svg id="Livello_2" data-name="Livello 2" xmlns="http://www.w3.org/2000/svg" viewBox="0 0 969.91 1063.08">
  <defs>
    <style>
      .cls-1 {
        fill: #e5bd93;
        stroke-width: 0px;
      }
    </style>
  </defs>
  <g id="Livello_1-2" data-name="Livello 1">
    <path class="cls-1" d="m59.07,10.88c-2.23.35-3.85.32-5.55,1.59C44.63,2.96,29.74-.12,17.04,0c-13.86,40.92-4,90.55-6.41,133.57-2.74,48.97-1.26,98.05-4.04,146.73-5.47,95.88-4.04,191.16-4.04,287.67,0,48.37,6.12,96.37,4.04,145.35-2.08,48.82-8.49,98.06-6.05,148.04,2.21,45.33-2.31,91.64,2.46,136.68,1.53,14.47-4.83,45.46,12.76,50.61,6.81,1.99,23.13-2.26,31.21-1.84,10.96.57,21.44,4.45,32.13,5.06,25.83,1.46,52.42-5.11,79.01-5.15,35.35-.06,70.61,1.86,106.13,1.86,28.75,0,57.42.53,85.66,1.85,31.91,1.5,63.41-5.22,95.59-3.71,12.95.6,27.16.82,39.76,3.62,14.21,3.16,25.74,13.05,40.53,12.74,28.32-.61,56.86-4.81,86.42-3.5,65.21,2.89,130.51-7.71,195.35-9.14,26.29-.58,52.08-.66,77.99-.16,18.52.36,61.22-9.13,76.16-20.21,18.01-13.36,1.28-47.39-2.5-66.7-5.74-29.38-9.48-61.04-10.09-91.02-1.71-83.14-8.72-165.07-12.21-248.14-3.88-92.33,2.79-183.42,2.12-275.82-.34-46.39-2.75-92.4-.45-138.87,1.93-39.01,1.82-75.38-10.31-112.61-4.1-12.59-4.48-30.41-17.45-38.17-11.3-6.76-35.33-4.74-48.44-7.5-40.85-8.6-82.14-15.74-123.78-20.06-124.09-12.86-249.17-9.74-373.68-15.14C271.03,11.97,178.19,3.37,84.87,7.57c-10.84.49-25.39,2.05-36.05,1.54-8.18-.39-18.94-6.95-28.09-1.95"/>
  </g>
</svg>