<?xml version="1.0" encoding="UTF-8"?>
<svg id="Livello_2" data-name="Livello 2" xmlns="http://www.w3.org/2000/svg" viewBox="0 0 389.54 146.9">
  <defs>
    <style>
      .cls-1 {
        fill: #f4e9e9;
      }

      .cls-1, .cls-2 {
        stroke-width: 0px;
      }

      .cls-2 {
        fill: #9e8d8d;
      }
    </style>
  </defs>
  <g id="Livello_3" data-name="Livello 3">
    <g>
      <path class="cls-2" d="m362.79,134.73c.02,1.88-1.48,2.09-.07,3.03,7.36-.37,7.91,2.35,9.26-11.5,1.35-13.83-.42-29.68-.76-43.39-.48-19.57.31-39.35-.08-58.87-22.16-2.33-43.81-4.14-65.93-6.06-20.55-1.78-41.04.7-61.68-3.04-12.09-2.19-23.91.07-35.9,2.92-14.2,3.38-27.99,2.89-42.21,1.44-27.6-2.8-55.51.07-83.15.08-26.43,0-53.98.53-79.19,12.1C-.51,53.3,1.06,80.61.49,103.33c-.31,12.2-2.05,21.01,3.7,29.07,4.84,6.78,12.78,5.35,18.35,6.88,13.18,3.63,23.59,1.97,36.87.62,13.8-1.41,28.04,3.03,41.84,3.71,16.74.82,33.43.77,50.4-1.79,14.31-2.16,27.65,5.02,41.96,5.08,28.09.12,56.62-2.03,84.83-4.76,30.42-2.95,61.49-10.49,91.74-7.15-1.05,1.65-.53,1.95-.5,2.71l-6.89-2.96Z"/>
      <path class="cls-1" d="m388.04,105.01c-.77.07-1.57.07-2.37,0-.05-.73-.09-1.43-.12-2.03,1.83-6.39,1.01-15.88.24-23.4.22-4.94.47-9.89.5-14.83.01-1.82-.68-2.77-1.41-2.88-.07-1.9-.16-3.8-.28-5.71.08-12.46.96-24.98.88-37.46,0-1.18-.37-2.09-.85-2.58.15-1.56.32-3.1.53-4.63.25-.35.44-.88.52-1.62.11-1.15.23-2.21.41-3.3.28-.22.54-.56.74-1.08.09-.14.19-.28.28-.42,1.49-2.07-.16-5.53-1.72-5.01-5.62,1.85-11.6.96-17.31,1.21-6.32.27-12.63.73-18.94,1.25-3.73.31-7.46.64-11.19.97-3.01-.45-6.03-.81-9.06-.94-9.91-.44-19.79.97-29.58,3.74-20.79,1.11-41.59,1.95-62.38,3.7-12.4,1.04-24.8,1.34-37.21.3-6.65-.56-13.28-.85-19.9-.96-7.58-1.92-15.25-2.09-22.87-1.25-3.21.35-6.39.98-9.57,1.71-7.39.22-14.78.49-22.17.94-12.26.73-24.53,1.43-36.8.83-13.96-.68-27.74-3.29-41.73-2.35-6.86.46-13.69,1.84-20.55,2.02-3.4.09-6.79-.04-10.19-.2.27-1.5.53-3,.74-4.53.53-3.75-2.88-5.35-3.41-1.59-.15,1.04-.3,2.08-.46,3.11l-.15-.83c-.15-3.05-1.96-3.97-2.89-1.51-.56,1.47-.9,3.19-1.12,5.04-1.23-.04-2.46-.07-3.69-.07-2.27-.01-2.28,5.99,0,6,1.12,0,2.24.03,3.35.07-.03,2.98.06,5.96.03,8.53-.1,8.36.06,16.71.09,25.07-.18,3.39-.36,6.77-.51,10.16-.92,19.64-2.47,39.37-2.38,59.1,0,0,0,.02,0,.03-.67-.13-1.38.48-1.64,2.07-.07.5-.16.99-.27,1.47-.31,1.54.35,3.26,1.08,3.69,4.82,2.81,9.57,2.04,14.51,1.37,2.39-.33,4.79-.16,7.19-.6,2.21-.4,4.42-.94,6.64-1.05.65,0,1.3,0,1.95-.03.06,0,.12,0,.19,0,4.89.07,9.7.74,14.63-.04,2.08-.33,4.16-.76,6.24-1.2,5.92.1,11.84.7,17.77.67,6.61-.04,13.21-.39,19.81-.88,1.2.26,2.4.53,3.6.81,5.26,1.23,10.54,2.42,15.84,2.75,5.08.32,10.15-.31,15.23-.67,20.32-1.45,40.59-4.24,60.84-7.86,5.99-.12,11.99-.26,17.98-.49,7.64,1.23,12.35,2.6,12.8,4.1h7.84c0-1.98,3.13-3.96,8.23-5.55,19.7-1.1,39.4-2.26,59.12-2.72,1.32-.03,2.63-.04,3.95-.06,1.34.81,2.67,1.63,4.05,2.19,4.72,1.92,9.61,1.17,14.4,1.54,4.37.34,8.71.22,12.97-1.72,5.33.52,10.67.91,15.99,1.52,2.55.29,5.11.49,7.65-.15,2.77-.7,5.35-2.87,8.17-2.99.08,0,.14-.03.21-.05,1.71.46,3.33.42,5.33-.05,1.37-.32,2.71-.23,4.04-.07-.03,1.26-.07,2.52-.02,3.79.14,3.46,2.76,3.96,3.47.8.28-1.23.52-2.48.73-3.73.52-.25,1.03-.5,1.54-.81,1.89-1.14,1.47-5.15-.15-5.76-.04-.49-.16-.92-.35-1.25.04-.42.08-.84.11-1.25.05-.03.11-.07.16-.11,1.75,1.73,3.72,2.79,5.73,3.33.5,2.33,1.27,4.2,2.46,5.13,1.52,1.18,2.33-2.5,1.57-4.65.31,0,.62-.02.92-.05,1.99-.18,2-6.18,0-6Zm-11.36-33.52c.32-2.16.64-4.38.95-6.63-.47,6.55-1.17,13.02-1.85,19.51-.28.11-.54.31-.76.63.53-4.21,1.09-8.76,1.65-13.51Zm-2.18,19.03c-.09,3.57-.43,7.14-.89,10.66-.24-.03-.51.1-.77.39.44-3.23.97-7.12,1.54-11.5.03.16.07.31.12.45Zm-245.86,24.41c7.75.26,15.48.58,23,.95-.05,0-.1,0-.15,0-7.62.25-15.23.77-22.84,1.4.17-.75.16-1.6,0-2.35Zm237.48-39.69c.12-.18.23-.3.3-.36.24-.03.48-.09.71-.18-.49,3.59-.9,5.67-.9,5.67,0,2.98-2.35,3.95-4.69,4.27.33-.79.65-1.58.99-2.35.78-1.8,1.58-3.56,2.48-5.19.33-.6.87-1.51,1.11-1.86Zm-5.18,34.61c-.06,0-.12.02-.18.02-.26-.14-.52-.28-.79-.41-.31-.14-.61-.23-.92-.3.09-.19.18-.39.26-.62.41-1.21.29-2.36-.1-3.19,2.09.52,3.98,2.05,5.47,3.86-1.23.35-2.49.47-3.74.64Zm-27.87-12.46c-.57.98-1.21,1.36-1.82,1.31,4.32-12.02,10.86-21.6,16.65-30.52-4.66,10.26-9.53,20.13-14.84,29.21Zm-18.11,12.9c-.88,0-1.76-.02-2.65-.02.88-.2,1.76-.39,2.64-.59,0,.21,0,.41,0,.62Zm-153.1-39.71c.75-1.21,1.52-2.4,2.28-3.59-.66,1.37-1.32,2.75-1.98,4.13-.93,1.15-1.87,2.3-2.8,3.45.83-1.33,1.67-2.66,2.5-3.99Zm-4.32-35.52c.84-2.28,3.34-7.92,7.51-7.92,3.1-1.31,4.34-.28,3.98,2.5-.56.79-1.12,1.59-1.68,2.39-.89-2.58-2.75-4.15-4.69-2.15-1.7,1.75-3.41,3.46-5.12,5.17Zm11.47,40.63c.23-.29.47-.58.71-.87-1.39,2.86-2.71,5.87-3.91,9.12-.3.83-.32,1.69-.16,2.45-1.47,1.85-2.88,3.61-4.19,5.23,2.51-5.31,5-10.66,7.54-15.92Zm146.16-37.67c2.09-.74,2.78-3.69,2.47-6.45h1.56c0,2.92-5.68,13.56-14.78,28.09-.32.41-.64.81-.95,1.22-1.34,1.74-2.74,3.41-4.16,5.05.25-.45.51-.88.77-1.33,3.52-6.2,7.1-12.31,10.64-18.47.92-1.59,1.81-3.22,2.72-4.81.47-.81.93-1.61,1.41-2.39.49-.81,1.34-1.27.32-.91Zm5.14,44.73c.16.43.36.78.59,1.01-1,1.78-1.93,3.7-2.71,5.83l-3.05,1.04c1.78-2.51,3.5-5.16,5.18-7.88Zm4.65-48.46c.7-3.5,2.02-5.15,3.47-4.14-1.16,1.38-2.32,2.76-3.47,4.14Zm.59,49.06c.85-1.33,1.72-2.61,2.59-3.89-.64,1.02-1.28,2.03-1.91,3.07-.23.28-.45.55-.68.82Zm-51.1,14.96c-7.49,4.11-7.34-.39,2.95-13.49,2.58-3.83,5-7.46,7.26-10.88-.18.3-.36.61-.54.91-3.31,5.48-7.69,11.07-9.63,18.37-.49,1.83-.43,3.6-.04,5.09Zm-23.34-8.84c3.27-4.69,6.59-9.32,9.96-13.82-.74,1.51-1.47,3.04-2.18,4.6-2.8,6.18-5.54,12.9-9.15,17.83-.35.02-.71.04-1.07.04-1.26,0-2.31,0-3.18-.02,1.85-2.92,3.7-5.86,5.63-8.63Zm-25.96-4.66c.75-1.28,1.62-2.66,2.56-4.1,3.11-3.69,6.34-7.11,9.44-10.82-2.29,3.5-4.58,7.03-6.82,10.66-.32-.12-.66-.06-1.02.31-1.9,1.92-3.69,4.24-5.54,6.3l1.38-2.35Zm40.33.67c-.05.47-.07.96-.06,1.44-.59.85-1.17,1.63-1.74,2.37.59-1.28,1.19-2.56,1.8-3.81Zm-48.17,12.64c1.3.12,2.62-.44,3.93-1.4-.5.99-.99,1.99-1.47,3.01-1.13-.03-2.26-.05-3.38-.04l.92-1.56Zm91.82-5.45l-2.98,1.01,1.83-3.1c.28.8.68,1.52,1.15,2.09Zm19.93,1.64c-.13-.21-.29-.37-.47-.47-.03-1.2.21-2.44.83-3.51,2.79-4.78,5.46-9.79,8.05-14.95.17-.19.33-.39.5-.58.43-.48.66-1.17.73-1.9,1-2.04,1.99-4.09,2.97-6.17.66-.9,1.33-1.81,2-2.69,4.5-5.89,8.66-12.57,12.71-19.56.58-1.01,1.17-2.01,1.75-3.02-.73,1.9-1.49,3.74-2.32,5.48-3.22,6.69-7,12.24-10.68,17.93-5.61,8.69-11.77,17.95-16.07,29.45Zm29.27-61.36c-2.37,4.5-4.88,8.92-7.47,13.11,1.48-3.46,2.94-6.93,4.4-10.42.11-.76.32-1.5.68-2.19.41-.8.83-1.6,1.24-2.4.87-1.68,1.85-1.86,2.66-1.18-.53,1.1-1.04,2.16-1.52,3.08Zm-7.47,5.95c.41-2.09.76-3.8,1.1-5.22,1.47-2.1,2.93-4.21,4.39-6.32.27-.05.56-.09.87-.12-.92,1.72-1.81,3.47-2.73,5.11-1.21,2.18-2.42,4.36-3.63,6.54Zm-171.29-10.31c.03-.48,0-.95-.04-1.42.32-.03.71-.03,1.19-.03.03,0,.06,0,.09,0-.42.46-.84.94-1.25,1.44Zm-4.39,72.6c.93,1.06,2.15,1.21,3.38-.33,3.96-4.95,7.76-10.25,11.54-15.6-3.28,5.16-6.48,10.47-9.44,16.21-2.58,2.39-4.7,3.11-7.25,2.44.58-.92,1.18-1.82,1.77-2.72Zm175.37-29.46c1.75-3.59,3.53-7.13,5.35-10.61-1.76,3.59-3.55,7.12-5.35,10.66v-.05Zm-45.87-58.67c8.04-.45,16.08-1.07,24.12-1.74-3.8.59-7.82,1.16-12,1.72-.62-.18-1.27-.13-1.87.24-7.54.97-15.5,1.87-23.37,2.63,2.6-.94,5.21-1.79,7.82-2.54,1.77-.1,3.54-.21,5.31-.31ZM105.72,93.03c-.13.34-.24.68-.31,1.02-.18-.08-.34-.19-.45-.38,0,0,.1-.25.29-.71.15.04.31.06.46.07ZM11.58,67.86c-.05-1.56-.08-3.11-.09-4.62,0-.71,0-1.41,0-2.12.41-8.65.87-17.3,1.49-25.92.17-2.41.34-4.84.55-7.24v3.61c0,10.44-.81,23.6-1.94,36.29Zm98.83-25.16c2.29-3.72,4.67-7.29,7.16-10.64.29-.06.57-.19.85-.4.95-.02,1.95-.04,2.99-.05-2.42,3.59-4.74,7.35-7.1,11.05-.57-.36-1.35-.5-2.28-.38-.41-.45-.91-.5-1.42.19-.06.07-.11.15-.16.23-.01,0-.02,0-.03.01Zm-65.22,52.26c.45-.55.81-1.22,1.05-1.97.65-.98,1.4-1.9,2.16-2.79-.89,1.7-1.82,3.41-2.81,4.9-.13-.08-.26-.12-.39-.14Zm5.18-9.1c-.02.12-.04.25-.05.38-.56-.59-1.02-1.54-1.27-2.66.8-1.73,1.62-3.42,2.46-5.08.41-.68.83-1.36,1.25-2.04-.93,2.98-1.73,6.1-2.39,9.4Zm24.29-20.44c5.39-8.91,10.62-18.75,16.7-26.47-.06,3.98-5.54,12.97-20.36,32.55-.07.13-.15.24-.22.37-.08.07-.16.14-.24.21,1.39-2.2,2.77-4.4,4.13-6.65Zm20.44-12.48c-.33-.04-.65-.06-.98-.05,1.19-2.67,2.22-5.34,3-8.02,1.41-7.18,3.59-10.48,9.39-12-3.95,6.44-7.67,13.27-11.41,20.07Zm-68.92-.52c.06.24.09.51.1.79-.15.28-.3.56-.44.85.09-.63.18-1.28.26-1.92.03.09.06.17.08.29Zm13.47,10.2c2.14-3.63,4.06-6.9,5.82-9.83.18-.17.36-.32.54-.48-1.97,3.47-3.85,6.98-5.58,10.96-1.2,2.76-2.37,5.54-3.62,8.19-1.48,2.4-2.95,4.81-4.45,7.19-2.77,4.41-5.76,8.38-8.19,13.28,2.43-6.52,7.69-16.06,15.49-29.31Zm-3.55,29.86c.07-.1.15-.19.22-.29-.31,1.16.01,1.48.72,1.48.5.85,1,1.36,1.66,1.38-.79,1.92-1.54,3.89-2.25,5.93-.2.58-.27,1.18-.24,1.73-3.11.62-5.67.93-7.69.87,2.89-2.48,5.16-7.93,7.59-11.11Zm18.24-9.28c2.72-10.67,7.28-19.39,12.4-26.66-.41.87-.83,1.72-1.23,2.6-.26.57-.52,1.14-.78,1.71-.27.41-.54.82-.8,1.24-.32.5-.47,1.08-.51,1.66-2.97,6.57-5.94,13.16-9.08,19.45Zm7.94,1.78c.06-.04.12-.08.17-.13-.27.37-.54.75-.8,1.1.21-.33.42-.65.62-.97Zm25.62,3.3c.32,2.78,1.82,4.73,3.42,4.81-1.94,1.26-3.53,1.54-4.65.59-1.23,0-.73-1.95,1.23-5.4Zm38.14,3.49c-.23.09-.64.09-.99.16.31-.88.56-2.2.85-3,.83-2.29,1.82-4.4,2.82-6.41,1.19-2.38,2.44-4.61,3.77-6.65.39-.45.78-.9,1.17-1.36,1.22-1.45,2.46-2.87,3.69-4.27-.4,1.08-.83,2.12-1.29,3.13-.68,1.31-1.35,2.67-2.01,4.07-2.62,4.88-5.62,9.3-7.98,14.32-.01,0-.03,0-.04,0ZM8.77,122.33c.17.32.39.59.63.83.04.16.09.31.14.45-.48-.11-.96-.24-1.44-.4.26-.19.49-.48.67-.88Zm44.24-2.04c-6.94.15-13.87,1.34-20.81,1.3-2.41-.01-4.83-.05-7.24-.09,4.21-1.46,8.99-3.27,13.42-5.12,6.22,1.81,12.58,1.92,18.87,1.82,3.64-.06,7.29-.12,10.93-.2-3.9.57-7.79,1.47-11.68,2.29-1.16-.02-2.32-.03-3.48,0Zm27.09-2.65c.31-.01.63-.02.94-.03,8.41-.36,16.83-.61,25.2,1.15.52.11,1.05.22,1.58.34-4.59.39-9.17.76-13.76,1.06-4.64-1.08-9.29-2.09-13.96-2.52Zm34.6-3.11c2.28.06,4.57.12,6.87.18-2.27.31-4.57.17-6.87-.18Zm5.95-11.99c-3.09,0-3.43-3.1,1.1-11.11-.1.88-.12,1.76-.02,2.64.35,3.23,1.76,4,3.22,3.94.02.06.04.12.06.18-.98,2.5-2.67,4.36-4.35,4.36Zm225.84,7.33c.69.1,1.38.22,2.07.3-.06,0-.11,0-.17,0-.63-.08-1.26-.18-1.89-.31Zm24.22-76.88s.05-.04.07-.06l-.17,1.48c-.28-.03-.56,0-.86.09.31-.54.62-1.04.96-1.51Zm-2.43,30.97c-.31-.36-.66-.61-1.05-.7-1.34-.31-2.55.02-3.67.79,1.2-2.56,2.4-5.12,3.58-7.71.56-1.22,1.12-2.43,1.68-3.66-.08,4.08-.28,7.88-.54,11.27Zm-247.47,59.73c4.57-.4,9.13-.76,13.7-1.04.33-.02.65-.03.98-.05-4.87.48-9.78.95-14.68,1.09Zm251.45-13.52c-.03.17-.04.33-.05.49-.01.02-.02.04-.03.07-.2-.03-.39-.07-.59-.1.02-.16.05-.35.08-.56.25-.28.5-.57.76-.86-.05.32-.11.65-.16.97Z"/>
      <path class="cls-2" d="m73.05,51.43c2.33-9.48-.42-23.28-10.58-27.17s-18.32,4.95-21.44,14.12c-2.65,7.81-5.24,23.01,3.06,28.45,4.67,3.06,11.13,2.17,16.16,4.78,4.17,2.16,10.29,6.32,10.89,11.59.71,6.28-8.6,7.56-12.98,6.89-3.56-.54-7.67-1.94-10.07-4.79-1.67-1.98-1.94-5.35-4.4-6.56-1.74-.86-1.95,2.91-1.97,3.68.07-2.27.02-1.86,0,0-.01,1.35-.02,2.69.16,4.03.4,2.9,1.38,6.05,3.01,8.51,3.09,4.68,8.81,7.1,14.27,7.48,11.66.8,17.78-8.83,17.07-19.5-.74-11.04-7.65-20.14-18.03-23.96-3.61-1.33-12.39-.8-14.37-4.68-1.69-3.31,1.26-9.67,2.98-12.51,3.05-5.04,8.13-7.91,14.04-6.35,7.03,1.85,9.19,7.5,9,14.16-.07,2.33,2.25,5.68,3.19,1.83h0Z"/>
      <path class="cls-2" d="m89.65,97.75c2.35-7.5.92-16.68-.2-24.29-1.27-8.62-3.29-17.11-6.04-25.37-.7,3.07-1.4,6.13-2.1,9.2,3.87-1.08,7.7,1.28,11.55,1.54s9.97-.42,12.7-3.51l-2.57-5.32-.85,2.3c-.34.55-.57,2.48.39,2.61l1.23.45c2.73,2.51,2.61-5.33,1.63-6.83-3.11-4.76-8.12-1.86-12.84-2.07-3.83-.17-7.71-2.42-11.54-1.31-3.17.91-2.92,6.79-2.1,9.2,2.46,7.29,4.34,14.76,5.57,22.36,1.13,6.98,1.17,14.25,2.8,21.12.47,2,1.86,1.59,2.37-.06h0Z"/>
      <path class="cls-2" d="m83.48,83.92c5.87,2.2,14.06.61,18.17-4.12,1.19-1.37,1.22-5.71-.56-6.72-2.99-1.68-5.83-1.24-9.09-.78-2.93.42-5.95.6-8.76,1.55-2.59.88-2.17,9.16.25,10.07h0Z"/>
      <path class="cls-2" d="m114.65,51.15c-4.99-2.75-6.53,10.25-6.83,12.89-.95,8.42-.56,17.55,2.16,25.63,2.04,6.08,6.37,12.7,13.63,9.73,12.19-4.97,12.71-21.03,11.17-32.06-.97-6.92-2.54-15.19-8.06-20-1.99-1.73-5.26-3.68-8.01-2.65-3.35,1.25-5.39,6.66-6.48,9.69-.1.26-.16,2.41.55,1.92,4.09-2.84,12.43,1.01,14.62,5.11,2.43,4.52,3.32,11.4,2.72,16.44-.63,5.34-8.27,14.88-14,9.2-3.88-3.86-4.09-11.48-4.15-16.54-.04-3.27-.36-10.47,2.84-12.42,1.71-1.04,1.57-5.97-.17-6.93h0Z"/>
      <path class="cls-2" d="m163.42,45.9c-5.23-6.96-19.38-4.8-24.16,1.93-5.72,8.04-4.08,20.91-1.77,29.86,2.17,8.41,8.6,19.74,19.01,15.48,9.62-3.93,6.75-17.52,5.88-25.44l-3.59,6.87c4.69,6.36,7.88,14.69,14.4,19.48,3.34,2.45,5.48-13.91-.29-11.73-.69.26-1.37.53-2.05.81-.67.27-.63,1.86-.54,2.36.37,1.94.76,3.87,1.2,5.8l3.48-8.41c-4.89-6.08-9.07-12.6-13.87-18.74-2.99-3.81-3.72,5.66-3.59,6.87.56,5.41,1.91,11.02-5.82,10.87-6.35-.13-9.1-6.9-10.04-12.2s-1.62-11.68,4.32-14.34c2.6-1.16,5.68-1.45,8.47-1.77s5.7-1,8.32-1.04c2.42-.04,1.47-5.57.65-6.66h0Z"/>
      <path class="cls-2" d="m148.17,73.31c3.28.08,6.53-.1,9.8-.27,3.53-.18,6.65-.09,9.2-2.79l-2.61-.72c-.72-1.7-.04-.42-.09.04.04.13.1.25.18.37,1.26,1.26,1.44-.29.54-4.65.35-4.26,1.46-5.19-2.24-5.35-1.01-.04-2.13.22-3.14.32-4.4.43-8.98.94-12.41,3.98-1.57,1.39-2.43,8.99.76,9.07h0Z"/>
      <path class="cls-2" d="m177.46,48.29c.76,5.53,1.16,11.02,1.56,16.59.55,7.79-.32,16.06,1.24,23.73.77,3.8,2.4,7.77,6.88,6.82,2.92-.62,5.56-2.22,8.47-2.91,4.17-.98,8.48-.68,12.6-1.93,3.9-1.18,3.19-13.09-.3-12.3-1.95.44-2.84,1.64-3.93,3.3-.36.56-.38,1.53-.07,2.11.7,1.31,1.35,2.48,1.82,3.9l2.18-9.31c-6.94,1.19-13.12,1.84-19.55,4.77-.94.43-1.86,1-2.93,1.01-.84,0-.11,1.81-.42-.61-.48-3.67-.3-7.53-.46-11.24-.26-5.97-.74-11.96-1.35-17.91-.24-2.34-.71-10.62-4.28-10.57-1.7.02-1.57,3.64-1.45,4.55h0Z"/>
      <path class="cls-2" d="m212.27,45.8c-1.08,7.13,1.76,14.24,2.87,21.19,1.54,9.68.94,20.62,4.5,29.79l1.54-9.44c-1.92.59-1.51.55-2.09,2.78-.48,1.83-.66,6.65,1.39,7.78,2.24,1.23,3.18-1.78,3.28-3.65.91-16.45-4.55-32.56-7.36-48.55-.74-4.21-3.5-3.99-4.12.1h0Z"/>
      <path class="cls-2" d="m230.05,99.1c4.62-1.61,3-16.03,3.04-19.63.12-10.89,1.89-22,6.35-31.98l-1.83,1.76c6.79,1.22,4.17,12.95,4.49,17.83.35,5.25,1.75,10.32,3.06,15.39.67,2.58,1.37,5.17,1.74,7.82s.12,5.29,1.02,7.8l1.7-7.22-1.47.25c-.48.08-.51.85-.52,1.2-.12,1.26-.06,1.58.17.96-.33,1.08.33,9,2.62,6.95,4.57-4.1,1.76-14.37.59-19.41-1.41-6.03-3.43-11.8-3.47-18.03-.05-8.25.59-23.46-10.22-25.21-.84-.14-1.6,1.22-1.83,1.76-7.63,17.58-8.27,38.03-7.22,56.95.05.89.34,3.32,1.77,2.82h0Z"/>
      <path class="cls-2" d="m235.26,70.31c.29,0,.27-1-.02-1s-.27,1,.02,1h0Z"/>
      <path class="cls-2" d="m232.44,76.58c2.47,1.99,7.73.87,10.6.8,1.87-.04,3.8.16,5.65-.05.82-.09,1.74-.11,2.34-.76.14-.15.38-.22.41-.36l-1.45-2.87c-.12.39-.22.79-.3,1.19-.11.48-.22,2.83.78,2.71,2.45-.31,2.49-3.83,2.27-5.6-.38-3.02-1.69-5.71-4.82-6.44-2.78-.65-5.82-.23-8.63.12-2.23.27-5.07.45-7.1,1.5-2.81,1.46-1.78,8.13.24,9.76h0Z"/>
      <path class="cls-2" d="m266.05,66.7c1.88,3.75,6.01,5.55,9.87,6.7,5.87,1.74,12.16-.92,17.67-2.88,7.82-2.79,15.92-5.51,24.27-6.04s16.3,3.55,24.83,3.8c4.87.15,2.85-11.74.49-13.58-1.7-1.32-3.13-.59-4.75.62-.88.66-.75,2.32-.51,3.23.68,2.67,1.06,5.39,2.52,7.76.64-3.95,1.27-7.89,1.91-11.84-8.53-.18-16.13-4.22-24.82-3.58-7.52.56-15.07,2.81-22.09,5.48-5.66,2.14-12.48,5.68-18.72,4.75-3.37-.5-6.67-3.17-10.01-1.65-2.03.92-1.39,5.75-.65,7.23h0Z"/>
      <path class="cls-2" d="m323.81,38.82c-.83-1.99-.6-2.6-.25.08.11.84.27,1.66.44,2.48.4,1.89.97,3.71,1.63,5.53,1.36,3.71,3.16,7.35,5.57,10.5,4.57,5.97,11.18,9.77,18.82,9.1l-.34-13.69c-9.03,1.14-18.92,6.81-24.3,14.31-2.65,3.7-3.79,8.06-3.2,12.61.44,3.38,2.99,9.45,7.13,6.03,2.53-2.09,2.04-7.35.34-9.8-.46-.67-1.3-2.19-2.16-2.57-.76,7.02-.47,9.28.89,6.76l.55-.78c1.44-1.39,2.55-2.99,4.12-4.3,4.79-3.97,10.77-7.59,16.95-8.57,4.3-.68,3.72-14.09-.34-13.69-12.51,1.23-18.47-9.93-22.04-20.06-.32-.9-.82-2.71-2.1-2.69h-.4c-3.08.07-1.99,7.18-1.33,8.75h0Z"/>
    </g>
  </g>
</svg>