<?xml version="1.0" encoding="UTF-8"?>
<svg id="Livello_2" data-name="Livello 2" xmlns="http://www.w3.org/2000/svg" viewBox="0 0 441.93 170.99">
  <defs>
    <style>
      .cls-1 {
        fill: #e2d48d;
      }

      .cls-1, .cls-2, .cls-3 {
        stroke-width: 0px;
      }

      .cls-2 {
        fill: #9e8d8d;
      }

      .cls-3 {
        fill: #fdffb6;
      }
    </style>
  </defs>
  <g id="Livello_3" data-name="Livello 3">
    <g>
      <path class="cls-1" d="m10.99,50.28c-.02-1.88,1.68-2.09.08-3.03-8.35.37-8.97-2.35-10.51,11.5-1.53,13.83.48,29.68.87,43.39.55,19.57-.35,39.35.09,58.87,25.14,2.33,49.7,4.14,74.8,6.06,23.32,1.78,46.56-.7,69.97,3.04,13.72,2.19,27.12-.07,40.73-2.92,16.11-3.38,31.75-2.89,47.89-1.44,31.31,2.8,62.98-.07,94.33-.08,29.99,0,61.24-.53,89.85-12.1,4.06-21.86,2.28-49.17,2.93-71.89.35-12.2,2.33-21.01-4.2-29.07-5.49-6.78-14.5-5.35-20.82-6.88-14.95-3.63-26.76-1.97-41.83-.62-15.66,1.41-31.81-3.03-47.47-3.71-18.99-.82-36.31-9.96-55.56-7.4-16.24,2.16-32.98,4.18-49.23,4.11-31.87-.12-64.24,2.03-96.24,4.76-34.52,2.95-69.76,10.49-104.08,7.15,1.19-1.65.6-1.95.57-2.71"/>
      <path class="cls-3" d="m440.24,127.4c-.88.07-1.78.07-2.69,0-.06-.73-.1-1.43-.14-2.03,2.08-6.39,1.14-15.88.27-23.4.25-4.94.53-9.89.56-14.83.01-1.82-.77-2.77-1.59-2.88-.08-1.9-.18-3.8-.32-5.71.09-12.46,1.09-24.98.99-37.46,0-1.18-.43-2.09-.97-2.58.17-1.56.36-3.1.61-4.63.29-.35.5-.88.59-1.62.13-1.15.26-2.21.47-3.3.31-.22.61-.56.84-1.08.11-.14.21-.28.32-.42,1.69-2.07-.19-5.53-1.95-5.01-6.38,1.85-13.16.96-19.63,1.21-7.17.27-14.33.73-21.49,1.25-4.23.31-8.46.64-12.69.97-3.42-.45-6.84-.81-10.27-.94-11.24-.44-22.45.97-33.56,3.74-23.59,1.11-47.19,1.95-70.77,3.7-14.06,1.04-28.14,1.34-42.21.3-7.55-.56-15.06-.85-22.58-.96-8.6-1.92-17.3-2.09-25.95-1.25-3.64.35-7.25.98-10.86,1.71-8.38.22-16.77.49-25.15.94-13.91.73-27.83,1.43-41.75.83-15.83-.68-31.47-3.29-47.34-2.35-7.78.46-15.53,1.84-23.32,2.02-3.85.09-7.7-.04-11.56-.2.31-1.5.6-3,.84-4.53.6-3.75-3.27-5.35-3.87-1.59-.17,1.04-.34,2.08-.52,3.11l-.17-.83c-.17-3.05-2.23-3.97-3.28-1.51-.63,1.47-1.02,3.19-1.27,5.04-1.39-.04-2.79-.07-4.18-.07-2.58-.01-2.58,5.99,0,6,1.27,0,2.54.03,3.8.07-.04,2.98.06,5.96.03,8.53-.11,8.36.07,16.71.1,25.07-.21,3.39-.4,6.77-.58,10.16-1.04,19.64-2.8,39.37-2.7,59.1,0,0,0,.02,0,.03-.76-.13-1.57.48-1.86,2.07-.08.5-.19.99-.31,1.47-.35,1.54.4,3.26,1.23,3.69,5.47,2.81,10.86,2.04,16.47,1.37,2.71-.33,5.43-.16,8.15-.6,2.51-.4,5.02-.94,7.54-1.05.74,0,1.47,0,2.21-.03.07,0,.14,0,.21,0,5.55.07,11,.74,16.6-.04,2.36-.33,4.72-.76,7.08-1.2,6.72.1,13.43.7,20.16.67,7.5-.04,14.99-.39,22.48-.88,1.36.26,2.72.53,4.08.81,5.97,1.23,11.96,2.42,17.97,2.75,5.76.32,11.52-.31,17.27-.67,23.05-1.45,46.05-4.24,69.03-7.86,6.8-.12,13.6-.26,20.4-.49,8.67,1.23,14.02,2.6,14.52,4.1h8.89c0-1.98,3.56-3.96,9.33-5.55,22.35-1.1,44.7-2.26,67.07-2.72,1.49-.03,2.98-.04,4.48-.06,1.52.81,3.03,1.63,4.59,2.19,5.36,1.92,10.9,1.17,16.33,1.54,4.96.34,9.88.22,14.72-1.72,6.05.52,12.1.91,18.15,1.52,2.89.29,5.8.49,8.68-.15,3.14-.7,6.07-2.87,9.27-2.99.09,0,.16-.03.24-.05,1.94.46,3.78.42,6.05-.05,1.55-.32,3.07-.23,4.59-.07-.04,1.26-.08,2.52-.03,3.79.16,3.46,3.13,3.96,3.94.8.31-1.23.59-2.48.83-3.73.59-.25,1.17-.5,1.75-.81,2.15-1.14,1.66-5.15-.17-5.76-.04-.49-.18-.92-.4-1.25.05-.42.09-.84.13-1.25.06-.03.12-.07.18-.11,1.98,1.73,4.22,2.79,6.5,3.33.56,2.33,1.44,4.2,2.79,5.13,1.72,1.18,2.64-2.5,1.78-4.65.35,0,.7-.02,1.04-.05,2.26-.18,2.27-6.18,0-6Zm-12.88-33.52c.36-2.16.72-4.38,1.08-6.63-.53,6.55-1.33,13.02-2.1,19.51-.32.11-.62.31-.86.63.61-4.21,1.24-8.76,1.88-13.51Zm-2.47,19.03c-.1,3.57-.49,7.14-1,10.66-.28-.03-.57.1-.88.39.5-3.23,1.1-7.12,1.74-11.5.04.16.08.31.14.45Zm-278.93,24.41c8.79.26,17.57.58,26.09.95-.06,0-.11,0-.17,0-8.64.25-17.28.77-25.91,1.4.2-.75.18-1.6,0-2.35Zm269.42-39.69c.14-.18.26-.3.34-.36.27-.03.54-.09.8-.18-.56,3.59-1.02,5.67-1.02,5.67,0,2.98-2.67,3.95-5.32,4.27.37-.79.74-1.58,1.12-2.35.88-1.8,1.79-3.56,2.82-5.19.37-.6.99-1.51,1.26-1.86Zm-5.88,34.61c-.07,0-.14.02-.21.02-.29-.14-.59-.28-.89-.41-.35-.14-.7-.23-1.04-.3.11-.19.21-.39.3-.62.47-1.21.33-2.36-.12-3.19,2.37.52,4.52,2.05,6.2,3.86-1.4.35-2.83.47-4.24.64Zm-31.62-12.46c-.65.98-1.37,1.36-2.06,1.31,4.9-12.02,12.32-21.6,18.89-30.52-5.29,10.26-10.82,20.13-16.83,29.21Zm-20.55,12.9c-1,0-2-.02-3-.02.99-.2,1.99-.39,3-.59-.01.21,0,.41,0,.62Zm-173.7-39.71c.86-1.21,1.72-2.4,2.59-3.59-.75,1.37-1.5,2.75-2.25,4.13-1.06,1.15-2.12,2.3-3.18,3.45.95-1.33,1.89-2.66,2.84-3.99Zm-4.9-35.52c.96-2.28,3.79-7.92,8.52-7.92,3.51-1.31,4.93-.28,4.51,2.5-.64.79-1.27,1.59-1.9,2.39-1.01-2.58-3.12-4.15-5.32-2.15-1.93,1.75-3.86,3.46-5.81,5.17Zm13.02,40.63c.27-.29.53-.58.81-.87-1.58,2.86-3.08,5.87-4.43,9.12-.34.83-.36,1.69-.18,2.45-1.67,1.85-3.27,3.61-4.76,5.23,2.85-5.31,5.67-10.66,8.56-15.92Zm165.82-37.67c2.37-.74,3.16-3.69,2.8-6.45h1.77c0,2.92-6.44,13.56-16.77,28.09-.36.41-.72.81-1.08,1.22-1.52,1.74-3.1,3.41-4.72,5.05.29-.45.58-.88.87-1.33,3.99-6.2,8.05-12.31,12.08-18.47,1.04-1.59,2.05-3.22,3.09-4.81.53-.81,1.06-1.61,1.6-2.39.56-.81,1.52-1.27.37-.91Zm5.83,44.73c.18.43.4.78.66,1.01-1.14,1.78-2.19,3.7-3.08,5.83l-3.47,1.04c2.02-2.51,3.97-5.16,5.88-7.88Zm5.27-48.46c.8-3.5,2.29-5.15,3.94-4.14-1.32,1.38-2.63,2.76-3.94,4.14Zm.67,49.06c.96-1.33,1.95-2.61,2.94-3.89-.72,1.02-1.45,2.03-2.17,3.07-.26.28-.51.55-.77.82Zm-57.98,14.96c-8.5,4.11-8.33-.39,3.35-13.49,2.93-3.83,5.67-7.46,8.24-10.88-.21.3-.41.61-.61.91-3.75,5.48-8.72,11.07-10.93,18.37-.55,1.83-.48,3.6-.04,5.09Zm-26.48-8.84c3.71-4.69,7.48-9.32,11.3-13.82-.84,1.51-1.67,3.04-2.47,4.6-3.18,6.18-6.29,12.9-10.39,17.83-.4.02-.8.04-1.22.04-1.43,0-2.62,0-3.61-.02,2.1-2.92,4.19-5.86,6.38-8.63Zm-29.45-4.66c.86-1.28,1.84-2.66,2.91-4.1,3.53-3.69,7.19-7.11,10.71-10.82-2.6,3.5-5.19,7.03-7.73,10.66-.36-.12-.75-.06-1.16.31-2.15,1.92-4.18,4.24-6.29,6.3l1.57-2.35Zm45.75.67c-.06.47-.08.96-.06,1.44-.67.85-1.33,1.63-1.97,2.37.67-1.28,1.35-2.56,2.04-3.81Zm-54.65,12.64c1.48.12,2.97-.44,4.46-1.4-.56.99-1.12,1.99-1.67,3.01-1.28-.03-2.56-.05-3.84-.04l1.04-1.56Zm104.17-5.45l-3.38,1.01,2.07-3.1c.32.8.77,1.52,1.31,2.09Zm22.62,1.64c-.15-.21-.33-.37-.53-.47-.04-1.2.24-2.44.94-3.51,3.17-4.78,6.2-9.79,9.13-14.95.19-.19.38-.39.57-.58.49-.48.75-1.17.83-1.9,1.13-2.04,2.26-4.09,3.37-6.17.75-.9,1.5-1.81,2.27-2.69,5.11-5.89,9.83-12.57,14.42-19.56.66-1.01,1.33-2.01,1.99-3.02-.83,1.9-1.69,3.74-2.63,5.48-3.65,6.69-7.95,12.24-12.12,17.93-6.37,8.69-13.35,17.95-18.23,29.45Zm33.21-61.36c-2.69,4.5-5.53,8.92-8.47,13.11,1.68-3.46,3.34-6.93,5-10.42.12-.76.37-1.5.77-2.19.47-.8.94-1.6,1.41-2.4.99-1.68,2.1-1.86,3.02-1.18-.6,1.1-1.18,2.16-1.73,3.08Zm-8.47,5.95c.47-2.09.86-3.8,1.25-5.22,1.66-2.1,3.32-4.21,4.98-6.32.31-.05.64-.09.99-.12-1.04,1.72-2.06,3.47-3.1,5.11-1.37,2.18-2.75,4.36-4.12,6.54Zm-194.32-10.31c.03-.48,0-.95-.05-1.42.36-.03.81-.03,1.35-.03.04,0,.07,0,.11,0-.48.46-.95.94-1.41,1.44Zm-4.98,72.6c1.06,1.06,2.44,1.21,3.84-.33,4.5-4.95,8.81-10.25,13.09-15.6-3.73,5.16-7.35,10.47-10.7,16.21-2.92,2.39-5.33,3.11-8.23,2.44.66-.92,1.33-1.82,2-2.72Zm198.96-29.46c1.98-3.59,4-7.13,6.07-10.61-1.99,3.59-4.03,7.12-6.07,10.66v-.05Zm-52.04-58.67c9.13-.45,18.25-1.07,27.36-1.74-4.31.59-8.87,1.16-13.62,1.72-.7-.18-1.44-.13-2.13.24-8.55.97-17.58,1.87-26.52,2.63,2.95-.94,5.91-1.79,8.87-2.54,2.01-.1,4.02-.21,6.02-.31ZM119.94,115.42c-.15.34-.27.68-.35,1.02-.2-.08-.38-.19-.51-.38,0,0,.11-.25.33-.71.17.04.35.06.53.07ZM13.13,90.25c-.05-1.56-.09-3.11-.1-4.62,0-.71,0-1.41,0-2.12.46-8.65.99-17.3,1.69-25.92.2-2.41.38-4.84.62-7.24v3.61c0,10.44-.91,23.6-2.2,36.29Zm112.13-25.16c2.6-3.72,5.29-7.29,8.12-10.64.32-.06.65-.19.97-.4,1.07-.02,2.21-.04,3.39-.05-2.74,3.59-5.38,7.35-8.06,11.05-.65-.36-1.53-.5-2.58-.38-.46-.45-1.04-.5-1.61.19-.06.07-.12.15-.19.23-.01,0-.02,0-.04.01Zm-73.99,52.26c.51-.55.92-1.22,1.19-1.97.73-.98,1.59-1.9,2.45-2.79-1.01,1.7-2.06,3.41-3.19,4.9-.14-.08-.29-.12-.45-.14Zm5.88-9.1c-.03.12-.04.25-.06.38-.63-.59-1.15-1.54-1.45-2.66.91-1.73,1.84-3.42,2.8-5.08.47-.68.94-1.36,1.42-2.04-1.05,2.98-1.97,6.1-2.71,9.4Zm27.55-20.44c6.12-8.91,12.05-18.75,18.94-26.47-.07,3.98-6.29,12.97-23.1,32.55-.08.13-.17.24-.25.37-.09.07-.18.14-.28.21,1.57-2.2,3.14-4.4,4.68-6.65Zm23.18-12.48c-.37-.04-.74-.06-1.11-.05,1.35-2.67,2.52-5.34,3.41-8.02,1.6-7.18,4.07-10.48,10.65-12-4.48,6.44-8.7,13.27-12.95,20.07Zm-78.2-.52c.06.24.1.51.11.79-.17.28-.34.56-.5.85.1-.63.2-1.28.29-1.92.03.09.06.17.1.29Zm15.28,10.2c2.43-3.63,4.61-6.9,6.6-9.83.2-.17.4-.32.61-.48-2.24,3.47-4.37,6.98-6.33,10.96-1.36,2.76-2.69,5.54-4.11,8.19-1.68,2.4-3.35,4.81-5.04,7.19-3.14,4.41-6.54,8.38-9.29,13.28,2.76-6.52,8.72-16.06,17.57-29.31Zm-4.03,29.86c.08-.1.17-.19.25-.29-.35,1.16.02,1.48.81,1.48.56.85,1.13,1.36,1.88,1.38-.89,1.92-1.75,3.89-2.56,5.93-.23.58-.31,1.18-.27,1.73-3.53.62-6.43.93-8.73.87,3.28-2.48,5.86-7.93,8.62-11.11Zm20.7-9.28c3.09-10.67,8.26-19.39,14.07-26.66-.46.87-.94,1.72-1.39,2.6-.3.57-.59,1.14-.88,1.71-.31.41-.61.82-.91,1.24-.36.5-.54,1.08-.58,1.66-3.38,6.57-6.74,13.16-10.3,19.45Zm9.01,1.78c.07-.04.13-.08.2-.13-.3.37-.61.75-.9,1.1.24-.33.47-.65.71-.97Zm29.07,3.3c.36,2.78,2.07,4.73,3.88,4.81-2.2,1.26-4.01,1.54-5.28.59-1.39,0-.82-1.95,1.39-5.4Zm43.27,3.49c-.26.09-.73.09-1.13.16.35-.88.64-2.2.97-3,.94-2.29,2.06-4.4,3.2-6.41,1.35-2.38,2.77-4.61,4.28-6.65.44-.45.88-.9,1.32-1.36,1.39-1.45,2.79-2.87,4.19-4.27-.45,1.08-.94,2.12-1.46,3.13-.78,1.31-1.54,2.67-2.29,4.07-2.97,4.88-6.37,9.3-9.05,14.32-.02,0-.03,0-.04,0ZM9.95,144.72c.2.32.44.59.71.83.05.16.1.31.16.45-.55-.11-1.09-.24-1.63-.4.3-.19.56-.48.76-.88Zm50.19-2.04c-7.88.15-15.73,1.34-23.61,1.3-2.74-.01-5.48-.05-8.22-.09,4.78-1.46,10.2-3.27,15.23-5.12,7.05,1.81,14.27,1.92,21.41,1.82,4.13-.06,8.27-.12,12.4-.2-4.42.57-8.84,1.47-13.25,2.29-1.32-.02-2.64-.03-3.95,0Zm30.73-2.65c.36-.01.71-.02,1.07-.03,9.54-.36,19.1-.61,28.59,1.15.59.11,1.19.22,1.79.34-5.2.39-10.41.76-15.61,1.06-5.27-1.08-10.54-2.09-15.83-2.52Zm39.25-3.11c2.59.06,5.19.12,7.79.18-2.58.31-5.19.17-7.79-.18Zm6.75-11.99c-3.5,0-3.89-3.1,1.25-11.11-.11.88-.13,1.76-.03,2.64.39,3.23,2,4,3.65,3.94.02.06.04.12.07.18-1.12,2.5-3.02,4.36-4.94,4.36Zm256.22,7.33c.78.1,1.56.22,2.34.3-.07,0-.13,0-.2,0-.72-.08-1.43-.18-2.15-.31Zm27.48-76.88s.05-.04.08-.06l-.2,1.48c-.32-.03-.64,0-.97.09.35-.54.71-1.04,1.09-1.51Zm-2.76,30.97c-.35-.36-.75-.61-1.19-.7-1.52-.31-2.89.02-4.16.79,1.37-2.56,2.72-5.12,4.06-7.71.63-1.22,1.27-2.43,1.91-3.66-.09,4.08-.32,7.88-.62,11.27Zm-280.76,59.73c5.18-.4,10.36-.76,15.54-1.04.37-.02.74-.03,1.11-.05-5.53.48-11.09.95-16.65,1.09Zm285.27-13.52c-.03.17-.05.33-.06.49-.01.02-.03.04-.04.07-.22-.03-.45-.07-.67-.1.03-.16.06-.35.09-.56.28-.28.57-.57.86-.86-.06.32-.12.65-.18.97Z"/>
      <g>
        <path class="cls-2" d="m36.48,56.6c13.49,5.52,28.93,4.5,43.24,5.21,11.47.57,24.61-2.13,31.29-12.41.35-.54.51-4.08-.69-3.41-4.9,2.73-9.72,2.21-15.08,1.92-5.76-.31-11.41-.92-17.14-1.28-13.87-.88-27.61-.34-41.19-3.87-3.28-.85-3.75,12.48-.43,13.84h0Z"/>
        <path class="cls-2" d="m64.04,53.94c-2.85,14.05-1.97,28.53-2.22,42.78-.13,7.47-.32,14.94-.23,22.41.05,4.32-1.43,15.5,2.73,18.33.26.15.52.14.77-.02,3.85-1.96,2.36-13.07,2.34-16.55-.03-7.27-.08-14.54.06-21.81.27-13.67-.47-27.24,1.25-40.85.22-1.75.12-5.61-1.62-6.72s-2.75.76-3.09,2.42h0Z"/>
        <path class="cls-2" d="m77.01,76.11c-6.34,3.7-5.68,15.61-4.99,21.72.69,6.13,2.9,17.34,10.08,19.21,8.69,2.26,11.74-10.08,12.12-16.15.62-9.76-1.34-20.78-5.96-29.47-.8-1.5-1.92-4.1-3.75-4.52-2.41-.55-4.91,2.47-6.14,4.11-3.34,4.44-5.28,10.65-5.23,16.19,0,.42.4,1.53.79.71,1.46-3.1,4.29-6.52,7.47-7.91,1.82-.8,2.12-1.06,3.04-.11s1.46,2.98,1.91,4.18c1.86,4.95,4.96,14.36,1.33,19.2-3.89,5.18-8.32.6-9.74-3.71-1.39-4.22-2.13-10.25,1.15-13.78,1.56-1.69,1.17-11.55-2.07-9.66h0Z"/>
        <path class="cls-2" d="m99.71,74.1c-2.12,7.06-1.16,15.23-1.16,22.5.01,9.11-2.65,21.99,1.31,31.12.68,1.57,1.67,1.36,2.58.28,1.13-1.34.71-4.16.37-5.66-.28-1.23-.84-2.11-1.59-3.1-.38-.51-.57.58-.57.77l-.15,1.67,1.04-1.4-.47-.06c.62,2.18,1.23,4.36,1.85,6.54,1.23-4.93.43-10.36.4-15.4-.03-4.52.25-9.02.26-13.53,0-6.15-1.09-12.83,0-18.92.3-1.66.71-5.44-.94-6.61-1.69-1.19-2.4.08-2.92,1.81h0Z"/>
        <path class="cls-2" d="m102,94.69c2.64-2.57,10.24-11.14,14.6-7.4l-1.06-1.31c1.32,2.61-.16-1.05-.24-.37-.05.39,0,1.84.68,1.84,1.02,0,1.2.58,2.14-.24,1.38-1.2,1.36-4.06,1.24-5.7-.22-3.08-1.32-6.34-4.82-6.47-6.99-.27-13.11,7.45-14.87,13.37-.28.94.39,8.16,2.33,6.28h0Z"/>
        <path class="cls-2" d="m122.53,71.64c-3.17,6.29-1.52,13.76-1.02,20.44.68,9.15-2.02,18.28-.78,27.44.22,1.61,1.03,4.51,3.14,3.79,1.97-.67,1.77-5.46,1.56-6.85-.23-1.48-.53-2.8-1.34-4.06-.23-.36-.62-.27-.85.02l-.3.03c.85,2.32,1.71,4.63,2.56,6.95.71-8.01,1.53-16.4,1.47-24.44-.03-4.67-2.4-11.14-.76-15.6.82-2.23,1.14-5.68-.19-7.8-1.17-1.86-2.44-2-3.49.09h0Z"/>
        <path class="cls-2" d="m125.01,91.18c1.86.03,4.18-2.84,5.72-3.87,2.62-1.74,5.51-3.42,8.52-4.37-.86-1.05-1.72-2.09-2.57-3.14,2.38,6.45,1.16,13.6.36,20.25-.63,5.23-2.92,14.69.75,19.29.36.45.91.7,1.45.39,2.26-1.34,2.47-6.33,2.79-8.64.65-4.58,1.21-9.2,1.62-13.8.77-8.61.7-17.33-2.62-25.43-.53-1.29-1.5-2.12-2.85-1.59-5.84,2.26-13.88,7.42-15.1,14.05-.27,1.47-.64,6.83,1.94,6.87h0Z"/>
        <path class="cls-2" d="m147.71,78.11c2.1.59,3.92-.2,6.11-.2.8,0,6.84,1.4,6.95,1.33-1.56,1.19.1-4.95-.47-1.25-.15.96-.12,1.97-.17,2.93-.12,2.51-.22,5.03-.28,7.54-.25,10.32-.02,21.38,4.09,31.01.39.92,1.87,2.83,3.09,1.72,4.29-3.88,7.52-9.32,9.1-14.87.48-1.68.48-4.74-.7-6.16-.99-1.2-2.13-1.3-2.8.44-1.08,2.8-3.02,7.7,1.71,8.14-.08-3.19-.16-6.39-.24-9.58-3.9-.08-6.49,6.24-9.07,8.58,1.03.57,2.06,1.15,3.09,1.72-4.3-10.03-1.33-22.26-1.78-32.8-.19-4.48-1.38-9.41-6.07-10.95-5.08-1.67-11.44-.82-13.7,4.37-.67,1.54-1.25,7.35,1.15,8.02h0Z"/>
        <path class="cls-2" d="m160.18,83.08c-3.47-4.84-9.02-1.12-10.97,3.18-2.38,5.23-3.6,12.01-3.44,17.75.16,5.78,2.35,12.7,8.09,15.22,6.08,2.67,11.75-.15,13.57-6.33.41-1.41.59-6.54-1.5-7.22-2.87-.93-5.21,1.6-8.23,1.39-1.47-.1-2.93-.63-4.12-1.51-.47-.35-2.06-2.2-1.85-1.69.25.61-.08.45.06-.27s.19-1.47.32-2.2c.26-1.44.56-2.93,1.03-4.32.5-1.49,3.32-4.92,5.32-3.57,1.79,1.21,2.74-2.4,2.91-3.36.4-2.3.19-5.11-1.21-7.06h0Z"/>
        <path class="cls-2" d="m196.1,79.76c1.88-2.96,8.63-5.4,11.33-2.25,2.3,2.68.96,8.78.7,11.91-.87,10.33-1.8,21.47,4.27,30.5.44.66,1.62,1.24,2.36.63.99-.82,1.93-1.61,2.57-2.73,1.5-2.61,1.72-6.07.83-8.94-.56-1.79-2.19-4.54-4.04-2.24-.38.36-.81.63-1.3.82.79.21,1.57.42,2.36.63-3.09-4.6-1.41-11.52-1.01-16.66.49-6.22.75-12.6-.9-18.68-1.21-4.46-3.87-9.19-9.1-9.16-4.57.03-9.61,3.6-11.18,7.85-.78,2.12-.94,4.92-.01,7.02.51,1.15,1.91,3.2,3.12,1.3h0Z"/>
        <path class="cls-2" d="m208.63,83.14c-3.18-4.66-8.38-1.83-11.5,1.28-4.08,4.05-6.95,9.58-7.51,15.33-.71,7.16,2.61,14.62,9.55,17.41,2.74,1.1,5.78,1.53,8.47.1,3.66-1.93,4.64-6,7.52-8.65.46-.42.56-1.71.07-2.17-1.31-1.25-2.53-2.87-4.43-3.2-1.62-.28-2.72.49-4.2,1.07-2.22.88-3.89,1.02-6.19.1-1.11-.45-2.34-1.14-3.26-1.91-.56-.45-1.04-.97-1.45-1.55-.89-1.39-1.02-.47-.37,2.77.6-.52,1.06-2.7,1.55-3.49.86-1.41,1.91-2.82,3.12-3.94,2.43-2.26,4.42-2.8,7.54-2.02,3.81.95,2-9.74,1.07-11.11h0Z"/>
        <path class="cls-2" d="m225.67,51.1c.07-.91.45-1.89.87-2.68-.45.43-.89.87-1.34,1.3h.06c-.59-2.83-1.19-5.64-1.78-8.46-1.7,4.18-1.13,9.07-1.39,13.53-.3,5.21-.82,10.39-1.23,15.59-.55,6.95-1.1,13.98-1.17,20.96-.06,6.51.28,13.76,3.15,19.73.95,1.99,2.62,5.13,4.97,5.74,3.9,1.01,5.76-6.67,6.93-9.22.23-.5.43-3.42-.69-3.18-2.72.57-4.31,1.08-6.1-1.22-1.21-1.55-1.65-3.26-1.96-5.18-.7-4.41-.3-9,0-13.44.45-6.66.96-13.32,1.44-19.98.52-7.13,2.4-16.75-.8-23.41-1.09-2.28-2.57-1.26-3.3.58-.78,1.97-.63,5.6.8,7.29-.83-.97-.35-.73-.08.38.17.68.47,1.3.64,1.98.24,1,.93.42.99-.32h0Z"/>
        <path class="cls-2" d="m277.23,66.63c-5.47-7.81-13.46-.09-16.67,5.52-4.03,7.05-6.87,15.92-6.09,24.11.74,7.74,5.1,15.07,13.2,16.63,8.05,1.54,13.78-4.2,15.5-11.64.56-2.41.83-7.11-1.3-8.93s-3.47.3-4.07,2.45c-1.23,4.45-6.33,5.87-10.45,4.88-2.14-.51-4.33-1.73-5.75-3.42-.5-.59-1.02-1.25-1.26-1.99-.36-1.13-.03,1.19.06-.69.21-4.15,2.8-9.24,5.09-12.61,1.18-1.73,2.57-3.48,4.52-4.39,2.18-1.02,4.06-.25,6.31-.47,3.42-.33,2.09-7.77.91-9.46h0Z"/>
        <path class="cls-2" d="m277.54,61.48c-9.6.66.46,39.45,1.57,44.72.56,2.71,1.15,5.41,1.6,8.14s.92,5.45,1.41,8.18c.47,2.59-1.18,3.87-4.02,5.87-6.04,4.25-9.4,2.04-14.2-2.58-1.03-.99-2.06-1.97-3.02-3.02-.72-.78-1.75-2.77-2.54-3.27-2.14,6.16-2.27,8.29-.39,6.37.35-.3.65-.64.9-1.04,1.58-1.34,2.47-2.63,3.59-4.41.38-.61.32-1.51-.05-2.1-2.32-3.68-6.74-6.86-9.04-1.3-1.97,4.75-.53,10.38,2.31,14.43,2.85,4.05,6.93,8.16,11.02,10.93,4.53,3.07,9.2,1.81,13.48-1.12,11.07-7.58,8.06-19.14,6.25-30.47-1.1-6.9-2.83-13.71-4.21-20.55-.99-4.91-1.93-9.84-2.61-14.8-.24-1.7-.4-3.24-.49-4.87-.03-.53.15-1.93-.12-2.41-.44-.79-.28,1.13-.27,1.13,1.06-1.26,1.53-8.02-1.14-7.84h0Z"/>
        <path class="cls-2" d="m286.85,73.4c-.1,5.83.66,11.65,1.27,17.44.56,5.28.54,10.97,2.2,16.05,1.93,5.89,5.18.59,4.99-3.1-.54-10.19-2.79-20.28-3.07-30.52-.04-1.58-.49-6.03-2.85-5.97-2.37.06-2.52,4.66-2.55,6.1h0Z"/>
        <path class="cls-2" d="m289.63,58.04h0c.18-.06.37-.12.55-.18.32-.22.55-.51.69-.86.42-.77.56-1.58.69-2.45v-.02c-.16.69-.32,1.38-.48,2.07v-.02c-.13.25-.26.49-.39.74,0-.02.02-.03.03-.04l-.48.48c.06-.05.13-.08.21-.11l-.52.17c.06-.02.12-.04.18-.05.62-.18.61-.22,1.15-.72l-.32.1c.15,0,.3-.05.43-.12.48-.26.62-1,.69-1.48.13-.77.06-1.49-.11-2.24.49,2.21.22,1.87.19,1.32-.02-.46-.06-.91-.2-1.36-.06-.2-.14-.4-.21-.6l.22,1.49c.01-1.33-.25-2.66-.82-3.86-.32-.67-.86-1.62-1.73-1.62-.93,0-1.37,1.18-1.6,1.88-.43,1.34-.44,2.7-.27,4.09v.02c.1.83.37,1.69.81,2.4.29.48.67.93,1.29.97h0Z"/>
        <path class="cls-2" d="m306.6,66.08c-6.39-5.69-7.93,14.53-7.8,16.98.46,8.87,2.61,19.32,8.27,26.45,4.48,5.64,11.42,5.26,14.78-1.31,3.93-7.68,2.9-17.88.55-25.87-1.98-6.71-7.66-19.23-16.66-17.83-3.86.6-3.81,11.63-.46,12.84.9.13,1.59.57,2.08,1.33.35.38.89.73,1.4.37,2.58-1.82,3.55-4.06,5.56-6.42.28-.33.4-2.06-.3-2.03-2.15.09-3.8.18-5.93.56l1.3,1.15c-.73-2.21-.94-2.07-.63.4-.9,1.62-1.8,3.24-2.69,4.86,6.57.96,10.09,6.11,11.68,12.32.9,3.5,1.97,9.88-2.82,11.05-5.93,1.45-8.78-8.62-9.77-12.64-.77-3.09-1.34-6.48-.86-9.67.4-2.64,2.01-4.61,3.1-7,.74-1.61.58-4.3-.79-5.52h0Z"/>
        <path class="cls-2" d="m341.99,68.2c-3.46-6.62-10.43-10.76-15.42-3.16-4.67,7.12-5.19,17.95-3,25.96,2.01,7.35,9.21,18.39,17.83,18.5,8.74.12,10.82-13.31,8.58-19.72-.28-.81-.89-1.32-1.4-.35-1.82,3.48-4.15,7.49-8.81,6.46-4.55-1-9.82-6.95-11.02-11.39-.72-2.67.05-6.26,1.66-8.47,2.98-4.06,6.4-.51,9.33,1.73,3.18,2.43,2.92-8.26,2.24-9.56h0Z"/>
        <path class="cls-2" d="m356.36,71.46l-.1-.47c-.2-.93-1.02-2.48-2.18-1.89-3.76,1.93-4.04,9.54-4.09,13.06-.1,6.24,1.13,13.17,4.12,18.69,4.81,8.88,15.43,11.13,22.69,3.67,8.21-8.43,5.91-21.06,1.26-30.7-2.36-4.88-5.37-9.63-8.74-13.88-2.11-2.67-5.23-6.14-9.02-5.17-8.02,2.05-8.41,17.36-10.05,23.68-.14.53.17,4.01,1.27,2.66,3.24-3.96,4.25-10.66,8.5-13.77,5.44-3.99,13.48,12.64,15.06,16.12,2.19,4.84,2.5,8.18-1.97,11.78-3.31,2.67-7.83,3.35-11.61,1.28-4.75-2.61-6.46-8.54-6.48-13.63-.02-3.85,2.18-7.64,1.34-11.41h0Z"/>
        <path class="cls-2" d="m394.09,75.3c-.36-.37-.73-.8-1.23-.98-.74-.27-1.07-.04-1.59.51l-.35.37c-1.97,2.07-1.63,8.43.84,10.07,9.9,6.62,26.28-8.51,32.63-14.98,10.16-10.34,13.85-23.98,10.21-38.08-3.04-11.78-11.24-21.73-23.72-23.64-10.69-1.64-27.48,2.33-33.97,11.65-1.39,1.99-2.55,13.27,1.8,12.87,3.21-.29,5.15-2.48,6.79-5.12.54-.86.65-2.86-.29-3.54-2.12-1.54-4.05-3.3-6.06-4.98.11,4.45.22,8.91.33,13.36,7.91-5.81,16.04-9.62,26.06-10.05,9.53-.41,18.8,4.08,22.74,13.1,4.35,9.94-2.46,18.51-9.77,24.92-3.76,3.3-7.83,6.46-12.07,9.13-4.75,2.99-8.83,4.11-14.31,4.48.73.89,1.46,1.79,2.19,2.68-1.11,4.18-1.14,5.52-.11,4.03.99-1.32,1.08-4.59-.14-5.83h0Z"/>
        <path class="cls-2" d="m379.3,7.36c1.28,3.23-.26-1.21.39-1.25-.03,0-.92,3.07-.97,3.2-.75,2.08-1.6,4.19-2.69,6.11-2.8,4.92-9.47,12.12-15.86,10.19-.15,4.62-.29,9.25-.44,13.87,5.91-1.6,12.08-2.63,18.2-2.88,3.15-.13,6.54-.14,9.61.7,2.55.69,4.07,2.27,6.18,3.66,2.84,1.86,2.88-6.15,2.77-7.12-1.67,6.61-1.83,8.48-.48,5.59.3-.82.49-1.67.55-2.54.13-1.26.04-2.58-.16-3.82-.39-2.46-1.22-4.91-3.03-6.68-2.53-2.48-6.39-3.26-9.79-3.62-7.98-.84-16.49.58-24.2,2.62-3.68.97-4.09,12.75-.44,13.87,11.91,3.65,20.36-11,23.5-20.44,1.5-4.5,4.12-13.36.64-17.65-3.33-4.11-4.74,3.79-3.78,6.2h0Z"/>
      </g>
    </g>
  </g>
</svg>