<?xml version="1.0" encoding="UTF-8"?>
<svg id="Livello_2" data-name="Livello 2" xmlns="http://www.w3.org/2000/svg" viewBox="0 0 526.1 294.48">
  <defs>
    <style>
      .cls-1 {
        fill: #fff;
        stroke-width: 0px;
      }
    </style>
  </defs>
  <g id="Livello_3" data-name="Livello 3">
    <g>
      <path class="cls-1" d="m73.04,36.8c1.17.57,1.81-1.09,2.01-1.92.75-3.12.23-5.85,1.48-8.94,1.45-3.58,3.81-6.91,6.67-9.5,1.43-1.3,3.01-2.38,4.67-3.16.1,3.75,1.03,7.43,1.23,11.18.23,4.27.13,8.57-.02,12.84-.19,5.17-.59,10.34-.84,15.51-1.45,1.4-2.89,2.82-4.12,4.4-1.23,1.59-1.88,8.97,1.04,9.52.11.03.23.05.36.05.86,0,1.71-.19,2.53-.5.08,5.07.24,10.13.32,15.2.11,6.98,1.26,14.73-.66,21.56-.12.43.22,2.16.73,1.19,6.73-12.73,6-26.82,5.9-40.96,0-.63,0-1.26,0-1.9,1.31-1.49,2.47-3.03,3.42-4.29,0,0,0,0,0,0,.35,1.58,1.02,2.94,2.27,2.13.07-.05.14-.09.21-.14.1-.07.18-.16.27-.25.13.73,2.7,6.76,2.9,7.69.77,3.65,1.12,7.38,1.72,11.05.89,5.4,2.19,15.26,8.29,17.38,2.48.86,3.1-2.23,2.92-5.25.19.53.22.25.11-.86-.03-.69-.15-1.37-.35-2.04-.15-.47-.35-.87-.58-1.26-.12-.29-.25-.53-.38-.69.01.05.02.09.03.13-.11-.17-.23-.35-.35-.53-.95-1.46-2.03-2.73-2.72-4.35-1.41-3.31-1.71-7.14-2.25-10.66-.99-6.46-1.89-15.36-6.94-20.24,1.53-2.76,2.85-5.63,3.93-8.55,3.97-10.79,5.72-26.06-2.51-35.47C96.43-3.8,85.56,0,78.76,8.11c-3.37,4.02-5.96,9.02-7.17,14.13-.75,3.17-2.39,12.69,1.44,14.56Zm29.22-20.6c4.95,6.16.87,15.08-2.27,21.19-1.43,2.78-3.13,5.45-5.01,7.96.13-2.42.25-4.85.32-7.27.15-4.85.24-9.72-.07-14.56-.26-3.95-1.13-7.74-1.66-11.62,3.14-.04,6.21,1.22,8.69,4.31Z"/>
      <path class="cls-1" d="m120.59,66.55c-.19,1.42-.2,3.25.28,4.22.41,6.4.75,12.79.95,19.21.04,1.19.93,7.91,3.76,6.11,11.83-7.54,23.16-15.04,35.79-20.89.2,1.28.41,2.57.65,3.91,1.04,5.72,3.69,21.79,12.6,19.91,5.2-1.1,7.28-7.87,8.46-12.28.03-.1.04-.2.07-.3.18.93.35,1.86.54,2.78.76,3.55,2.2,13.29,6.92,14,1.42.21,1.66-3.15,1.62-3.82-.32-5.78-2.32-11.3-3.51-16.94-.91-4.31-1.55-8.68-2.06-13.06,3.65-1.03,7.37-2.26,10.56-4.28.43,6.17,1.75,12.74,4.76,18.2,2.66,4.83,7.25,8.94,13.06,6.95,5.29-1.82,8.59-7.32,10.04-12.44,3.05-10.75-.43-23.52-4.33-33.62-2.22-5.74-9.35-20.41-17.42-13.23-5.97,5.31-7.22,16.63-7.07,25.52-8.44-2.05-19.41,3.9-26.87,6.4-1.57.53-2.04,3.6-1.76,6.44-.48-.19-.96-.37-1.44-.52-.26-2.11-.47-4.23-.64-6.34-.28-3.4-.62-6.8-.84-10.2-.31-4.65-1.18-10.72.5-15.2,3.12-8.34,16.31,11.7,22.26,9.99,3.41-.98,2.44-7.7.95-9.83-1.34-1.91-3.53-2.71-5.38-4.03-2.34-1.68-4.28-3.93-6.42-5.86-3.18-2.87-8.17-7.33-12.5-4.04-3.57,2.72-4.41,8.65-4.89,12.75-.65,5.56-.47,11.25-.05,16.83.38,5.1.69,9.81,1.2,14.71-12.25-1.13-22.83,6.95-33.2,13.88-.16-3.7-.35-7.4-.57-11.09,8.27-1.78,16.82-3.3,23.59-8.67.51-.41.63-2.33-.21-2.45-7.76-1.13-17.19-3.1-24.06.87-.19-2.64-.39-5.27-.6-7.9,4.6-.43,9.35-1.31,13.27-3.67,2.89-1.74,6.52-7.36,3.69-10.7-2.27-2.69-5.77-.47-8.72.15-3.9.82-7.81,1.36-11.79,1.53-2.45.11-2.84,4.99-2.73,6.54.52,6.82,1.06,13.64,1.52,20.46Zm84.19-23.04c6.47-6.78,11.94,8.77,13.2,12.9,2.28,7.47,5.57,17.9-3.83,21.44-5.5,2.07-8.96-3.3-10.37-7.82-1.6-5.15-1.57-9.32-.28-14.44.31-1.23.28-7.08-1.85-7.1.79-1.87,1.8-3.58,3.12-4.97Zm-36.87,28.86c.11-.04.2-.15.27-.28.5,1.54,1.26,2.56,2.19,2.28,3.15-.96,6.29-1.97,9.44-2.94-.91,7.44-2.68,16.81-7.69,15.1-3.32-1.13-4.19-7.48-4.75-10.3-.23-1.12-.43-2.25-.61-3.38.38-.16.77-.32,1.15-.48Z"/>
      <path class="cls-1" d="m226.67,92.55c-.34,1.66.44,12.47,4.1,8.23,3.3-3.83,7.21-6.98,11.74-9.27,2.68-1.35,5.99-1.63,8.78-2.64-.11,1.61-.28,3.21-.53,4.81-.54,3.51-2.24,7.21-.92,10.74,1.63,4.33,3.45,1.82,4.09-1.27l.02.91c3.07-9.18,3.29-19.18,2.95-29.01,2.64-.48,5.22-1.52,7.7-2.44.35-.13.72-.27,1.07-.4,1.87,6.88,4.21,13.61,6.13,20.48-.21.82-.23,1.93-.11,2.25,1.21,3.32,1.35,5.93,3.38,8.94,2.38,3.52,4.11-3.81,4.02-5.13-.7-10.02-4.62-19.36-7.69-28.86,1.52-.65,3.43-1.3,4.69-2.24.66-.49.61-1.98.24-2.62-1.82-3.19-4.5-4.26-7.48-4.18-2.59-10.79-4.02-21.83-7.64-32.36-.35-1.01-1.44-3.68-3.01-2.59-9.25,6.45-7.83,23.22-7.42,32.95.25,5.97.46,11.95.61,17.93-3.46-.58-7.68,1.44-10.72,2.98-2.71,1.37-5.22,3.09-7.53,5.05.49-8.1.44-16.21-.13-24.37-.62-9.04-.14-19.31-3.85-27.79-1.5-3.43-3.03,1.56-3.03,2.95,0,8.27,1.22,16.7,1.68,24.97.59,10.56,1.02,21.56-1.13,31.98Zm29.32-43.65c.12-3.23.23-7.39,2.21-10.18,2.23,7.64,3.52,15.51,5.11,23.32-2.38.84-4.74,2.02-6.85,3.11-.03-.64-.06-1.28-.09-1.92-.21-4.77-.56-9.56-.38-14.34Z"/>
      <path class="cls-1" d="m281.07,66.9c1.5,9.4,5.46,19.46,4.27,29.04-.21,1.72-.02,6.7,2.41,7.12,2.01.35,2.61-2.28,2.8-4.22l.04.03c1.07-11.2-2.31-21.86-4.23-32.76-.66-3.75-1.21-7.51-1.76-11.28,1.35,2.5,2.96,4.86,4.35,7.32.79,1.39,1.65,2.81,2.21,4.31.66,1.8.77,3.47,2.38,4.78,1.06.86,2.04-.78,2.41-1.45.12-.22.23-.45.33-.67.59,1.41,1.48,2.21,2.93,1.12,1.59-1.2,1.04-5.14.65-6.69-1.02-4.05.91-9.73,1.88-13.63.59-2.36,1.38-4.78,1.97-7.23,1.1,8.47,2.16,16.95,3.47,25.39,1.13,7.26,5.4,16.45,3.8,23.92-2.26,2.55.74,10.14,2.71,7.53,6.23-8.27,1.08-21.36-.83-30.26-2.65-12.33-3.63-24.95-6.46-37.25-.32-1.39-1.23-2.65-2.59-1.8-.43.27-.7.78-.88,1.38-.33-.24-.73-.28-1.21.05-2.08,1.41-2.54,4.58-3.19,6.84-1.01,3.49-1.86,7.02-2.53,10.59-.5,2.67-.94,5.42-1.12,8.17-2.34-4.78-5.92-9.42-7.59-13.08-1.03-2.26-2.93-1.92-3.93.1-.11.22-.19.45-.27.69-.4-2.38-.83-4.76-1.32-7.13-.31-1.51-.91-4.31-2.98-3.6-1.88.64-1.67,5.18-1.48,6.51,1.23,8.73,2.37,17.47,3.76,26.17Z"/>
      <path class="cls-1" d="m323.93,90.57c0,2.84,2.4,9.16,5.03,4.34,1.93-3.53,4.97-6.7,8.05-9.23,2.81-2.31,6.16-3.54,9.08-5.51,1.28.85,1.96-.24,2.28-1.9.84,4.35,1.86,8.63,3.29,12.61,1.95,5.4,4.73.61,4.59-2.89-.05-1.31-.21-2.54-.42-3.72-1.13-8.01-3.5-16.06-5.02-23.96-.98-5.08-1.95-10.17-2.69-15.29.24.33.51.64.83.91,7.32,5.99,13.31,13.36,20.5,19.43.31.26.62.35.9.31.39,2.07.81,4.13,1.3,6.18.99,4.13,2.02,8.25,3.02,12.38.76,3.12,1.01,7.46,3.62,9.63,1.24,1.03,2.37-1.58,2.5-2.31,1.59-8.54-2.99-18.7-4.85-27.02-1.57-7.02-2.18-14.2-3.28-21.3-.56-3.62-1.19-7.3-2.17-10.85-.63-2.29-1.4-6.29-3.68-7.51-3.49-1.85-3.12,8.37-1.62,9.95,1.45,1.53,1.61,7.08,1.95,9.1.34,2.03.62,4.07.88,6.11-5.49-5.83-11.72-11.27-17.89-16.18-1.41-1.12-2.39.84-2.9,2.55-.1-.62-.21-1.25-.36-1.91-.27-1.17-1.69-3.33-2.87-1.59-2.19,3.21-1.27,8.46-.9,12.08.56,5.47,1.47,10.9,2.42,16.31.48,2.77.93,5.63,1.39,8.53-4.12-3.79-12.8,4.35-18.12,10.69-.72-4.23-1.81-8.39-3.03-12.53,5.97-.77,11.37-4.95,14.65-9.83.49-.73.55-2.34-.25-2.91-2.68-1.91-5.61-2.05-8.62-.89-3.03,1.17-5.9,2.29-9.04,2.93-1.24-4.34-2.18-8.72-2.18-13.21,4.82-.65,9.68.93,14.43-.68,2.49-.85,2-8.71-.24-9.64-5.11-2.13-11.44-3.49-16.86-1.95-1.43.41-2.16,1.8-2.4,3.23-1.57,9.49-.39,18.64,2.18,27.86,2.53,9.1,6.48,18.13,6.5,27.71Z"/>
      <path class="cls-1" d="m381.11,44.22c3.99,1,7.98,1.59,12.09,1.57.8,7.95,1.87,15.78,2.11,23.82.24,7.73.24,15.63,2,23.19.11.48.65.92.88.23,2.76-8.27,2.61-17.44,2.36-26.06-.2-6.79-.34-14.51-1.99-21.5,4.99-.54,10.37-1.78,14.39-3.85,2.03-1.05,1.75-6.61.27-8.01-.85-1.19-2.14-1.81-3.5-2.16-3.41-.85-6.55-.31-9.92.37-3.57.72-7.1.98-10.74.88-3.77-.1-8.58-1.82-12.2-1.2-2.78.47-2.47,6.07-1.82,7.91,1.19,3.4,2.71,3.95,6.07,4.79Z"/>
      <path class="cls-1" d="m424.68,79.55c5.5,8.14,17.19,6.73,21.05-2.07,4.02-9.16,1.71-20.61-1.77-29.54-2.21-5.67-9.61-21.96-18-19.14-1.2.4-1.65,3.07-1.69,4.05-.06,1.26-.1,2.47-.07,3.66-.96-.87-2.14-.99-3.46.67-2.64,3.29-2.13,9.66-2.06,13.58.17,9.3.67,20.9,6.01,28.8Zm-.58-34.92c-.08.43.58-.56.32-.41.44-.35.93-.57,1.45-.78.72-.3.69-1.79.55-2.61.79-1.91,6.2,2.87,7.06,3.86,2.65,3.06,4.65,6.69,6.15,10.44,1.85,4.6,4.92,12.78-.17,16.4-3.4,2.42-8.68,1.94-11.38-1.22-2.74-3.21-3.21-8.21-3.71-12.23-.4-3.21-.67-6.4-.59-9.71.03-1.18.02-2.69.32-3.73Z"/>
      <path class="cls-1" d="m485.09,123.86c-14.22-.94-28.37-2.69-42.59-3.71-14.19-1.02-28.38-2.11-42.57-3.1-27.78-1.93-55.23-4.44-83.15-3.74-55.99,1.4-112.04,4.74-167.76,10.37-15.83,1.6-31.65,3.25-47.45,5.1-6.96.82-13.89,1.59-20.79,2.87-5.44,1-11.18,2.47-16.72,2.58-1.3.02-1.13,4.95-.11,5.41,4.57,2.05,9.09,1.85,14,1.33,5.99-.64,11.94-1.32,17.94-1.87,13.84-1.25,27.68-2.49,41.52-3.76,27.92-2.57,55.86-4.88,83.85-6.61,13.51-.83,27.02-1.54,40.54-2.19-.1.24-.18.49-.21.76-.59,5.1-.71,10.3-.37,15.45.1,1.54,1.39,2.73,2.92,2.73.06,0,.13,0,.2,0,1.61-.1,2.83-1.5,2.72-3.11-.32-4.8-.2-9.64.35-14.39.07-.6-.05-1.17-.3-1.67,12.69-.58,25.38-1.11,38.07-1.61,28.36-1.11,56.71-.12,85.06-.76,15.76-.35,31.73,1.17,47.48,1.85,15.86.68,31.6.48,47.45.47.48,0,.48-2.34-.06-2.37Z"/>
      <path class="cls-1" d="m523.87,50.94c-6.79.22-13.58,1.55-20.42,1.77-5.95.19-11.9.21-17.85.26-4.94.04-10.32.04-14.84,2.31-3.03,1.52-5.39,7.17-3.02,10.31.24.31.47.62.71.94.18.41.49.65.92.72,7.58-3.3,16.09-1.76,24.11-1.78,9.67-.02,21.49,1.03,30.7-2.3,0-.03-.01-.07-.02-.1,2-.52,3.25-12.24-.28-12.13Z"/>
      <path class="cls-1" d="m67.02,73.47c.89-1.71.83-4.41.12-6.14-3.77-9.25-19.41-4.9-27.05-4.02-12.51,1.45-25.07,2.85-37.64,1.56,0,.06.02.13.02.19-2.12,1.09-4.43,13.51.33,14.37,13.39,2.41,28.2-.39,41.52-2.34,5.89-.86,11.61-1.61,17.57-1.68,2.23-.03,3.97.28,5.13-1.94Z"/>
      <path class="cls-1" d="m385.23,222.58c.12-.73.17-1.37.14-1.71-.43-4.84-1.73-9.58-3.17-14.28-.18-1.33-.39-2.67-.66-4.01-1.16-5.75-2.6-11.4-3.42-17.21-1.51-10.57-5.12-21.04-4.98-31.78.02-1.58-.74-6.65-3.43-5.53-6.74,2.81-13.72,4.84-20.72,6.87-5.3,1.54-12.32,2.74-16.92,6.14-.26-.3-.6-.51-1.03-.55-2.89-.28-5.89-.41-7.97,1.97-.87,1-1.56,2.46-2.07,3.77-10.18-4.13-20.02-12.19-30.77-8.56-1.88.63-3.64,1.58-5.4,2.54-4.81,1.03-9.82,3.36-15.45,7.17-1.5,1.02-2.94,2.08-4.34,3.18-.44.34-.88.69-1.31,1.05-.69.56-1.37,1.13-2.04,1.71-2.01-1.57-4.07-3.29-6.25-5.14-6.35-5.36-12.91-10.91-18.91-12.7-10.71-3.19-21.47,1.19-26.93,4.08-2.33,1.24-4.57,2.6-6.74,3.91-4.07,2.47-7.94,4.79-12.36,6.38-.29-1.4-.83-2.61-1.52-3.04-3.86-2.47-10.59-2.04-15.04-2.69-2.93-.42-5.74-1.32-8.64-1.89-4.27-.85-7.37-.54-11.48.73-.98.3-1.51,1.39-1.68,2.66-.78-.4-1.58.17-1.73,2.43-.86,13.46-2.15,27.01-4.89,40.24-1.32,6.4-3.26,12.59-4.2,19.08-.56,3.86-2.48,8.42-2.16,12.34.07.89.45,2.01.95,2.85-.05.7.1,1.45.33,1.95,2.58,5.57,10.38,5.21,15.73,5.01,3.28-.12,6.57-.33,9.86-.27,3.43.07,6.85,1.28,10.2,1.12.37-.02.69-.14.97-.31.4,5.8,5.31,10.96,11.34,11.61.45.05.9.07,1.35.07,1.59,0,3.15-.32,4.64-.87-.03.27-.08.54-.09.81-.33,6.32,4.87,12.24,11.36,12.94.45.05.89.07,1.34.07-.84,1.57-1.48,3.42-1.59,5.51-.33,6.31,4.87,12.24,11.36,12.94.45.05.9.07,1.35.07,2.65,0,5.25-.84,7.5-2.29,3.13,2.16,7.31,3.5,11.41,3.5,3.72,0,7.38-1.09,10.09-3.66.7-.66,1.24-1.46,1.71-2.32,1.59,1.56,3.31,2.95,5.37,3.91,1.08.5,2.35.71,3.71.71,4.1,0,8.92-1.96,11.03-3.95,1.5-1.42,2.46-3.36,2.83-5.51,1.05.83,2.15,1.6,3.41,2.18,1.08.5,2.35.71,3.71.71,4.1,0,8.92-1.96,11.03-3.95,1.45-1.37,2.38-3.2,2.79-5.25.23.19.44.39.68.58.49.39.59-.63.48-.91-.08-.2-.18-.38-.26-.57.15.09.3.17.46.25,1.07.5,2.35.71,3.71.71,4.09,0,8.9-1.95,11.02-3.95,0,0,0,0,.01,0,1.97-1.86,3.02-4.59,3.02-7.55,5.53-3.51,12.27-6.74,15.82-12.23,2.56.53,6.11-1.45,7.99-2.37,4.34-2.14,8.77-3.7,13.43-5.01,4.2-1.18,8.24-2.43,12.34-3.92,4.42-1.61,8.87-3.01,13.47-4.05,2.02-.46,4.07-.8,6.07-1.22,1.22-.25,3.44-1.57,4.36-.76.65.57.63-2.05.57-2.26-.21-.82-.46-1.62-.77-2.38.48-.25.89-.62,1.16-1.09.4-.67.51-1.46.31-2.22l-1.49-5.81Zm-33.33-45.58c1.16-.63,2.64-.1,3.67.74,1.14.93,1.99,2.25,2.2,3.7.21,1.45-.28,3.03-1.4,3.99-1.04.89-2.48,1.18-3.85,1.09-1.79-.12-3.59-.89-4.65-2.33-1.07-1.44-1.23-3.58-.15-5.01.97-1.28,2.65-1.75,4.22-2.11l-.04-.07Zm22.71,36.08c.95-.2,1.87.44,2.05,1.39.18.95-.44,1.87-1.39,2.05-8.05,1.54-16.13,3.4-24.02,5.51-.15.04-.3.06-.45.06-.78,0-1.49-.52-1.7-1.3-.25-.93.31-1.9,1.24-2.15,7.97-2.13,16.14-4.01,24.27-5.56Zm-19.99,16.69c-.15.04-.3.06-.45.06-.78,0-1.49-.52-1.7-1.3-.25-.93.31-1.9,1.24-2.15,7.97-2.13,16.14-4.01,24.27-5.56.26-.06.52-.03.77.03,0,0,0,0,0,0,.16.04.32.11.46.2.07.04.13.1.2.16.1.08.18.17.26.26.04.05.09.11.12.17.1.17.19.36.23.57.06.29.02.57-.06.83,0,.03-.03.06-.04.09-.1.25-.24.47-.43.66-.24.23-.51.41-.86.48-8.05,1.54-16.13,3.4-24.03,5.51Zm-13.26-9.22c-2.61-5.12-4.01-10.58-5.02-16.24-.29-1.62-.56-3.24-.83-4.86,1.72,7.05,3.66,14.09,5.85,21.1Zm-164.27,20.32c-.14-.17-.29-.31-.45-.41-4.45-2.9-11.29-1.99-16.76-1.4l-11.76-1.92.8-4.88,29.34,4.01c-.38,1.53-.77,3.07-1.17,4.6Zm-13.17-50.71c-2.61-.59-5.26-1-7.92-1.26l.66-4.05c2.73.36,5.44.93,8.1,1.68-.5,1.01-.81,2.09-.87,3.16,0,.16.03.31.03.47Zm-9.65,9.35l30.33,5.01c-.22,1.48-.43,2.95-.67,4.43l-30.42-4.8.76-4.65Zm.57-3.46l.6-3.64c3.27.3,6.53.84,9.71,1.66.42.62.91,1.19,1.52,1.63,1.19.85,2.69,1.29,4.34,1.29.5,0,1.01-.04,1.52-.12.79-.12,1.54-.35,2.24-.64l10.76,1.71c-.13,1.04-.25,2.07-.4,3.11l-30.28-5Zm12.56-6.16c.06-1.17.66-2.39,1.64-3.35.53-.52,1.29-.96,1.88-.96.02,0,.03,0,.05,0,.22.15.47.24.74.28,1.58.21,3.19.51,4.05,1.45.81.89.88,2.52.14,3.72-.74,1.21-2.2,2.1-3.92,2.36-1.31.2-2.5,0-3.28-.56-.86-.61-1.37-1.77-1.3-2.96Zm11.17,3.4c.1-.14.24-.27.33-.42.62-1.02.94-2.16,1-3.29l6.47,1.14c-.13,1.25-.27,2.49-.42,3.74l-7.39-1.17Zm.45-7.43c-.19-.32-.41-.62-.66-.9-1.5-1.65-3.61-2.18-5.58-2.48-.03-.02-.06-.03-.09-.04-2-.87-4.08-.07-5.55,1.11-3.23-1-6.56-1.69-9.91-2.13l.62-3.82,29.26,5.25c-.12,1.46-.26,2.92-.39,4.38l-7.7-1.36Zm-20.59-11.74l.33-2.03c1.73.09,3.51.03,5.19.37,3.17.63,6.25,1.67,9.45,2.14,2.51.37,5.05.49,7.57.72,2.08.19,4.47.85,6.63.88-.06,1.04-.15,2.08-.22,3.12l-28.94-5.19Zm20.69,58.73l-29.62-4.05.91-5.59c9.78,2.24,19.73,4.08,29.66,5.49-.31,1.38-.62,2.77-.95,4.15Zm1.73-7.58c-10-1.41-20.02-3.26-29.87-5.52l.75-4.6,30.28,4.42c-.38,1.9-.75,3.81-1.16,5.71Zm-28.56-13.59l.66-4.05,30.37,4.79c-.22,1.23-.42,2.46-.65,3.69l-30.38-4.43Zm45.38,38.87c-1.38,3.38-5.1,5.75-8.49,5.37-3.39-.36-6.32-3.61-6.15-6.82.09-1.78,1.02-3.7,2.6-5.42,0,0,0,0,0,0,1.66-1.8,3.59-3.64,5.33-3.64h.08c2.73.09,4.74,1.04,5.97,2.81,1.45,2.09,1.7,5.11.65,7.69Zm8.77,18.33c-3.39-.36-6.32-3.61-6.15-6.82.09-1.78,1.02-3.7,2.6-5.42,0,0,0,0,0,0,1.66-1.8,3.58-3.64,5.33-3.64h.08c2.73.1,4.74,1.04,5.97,2.81,1.45,2.09,1.71,5.11.65,7.69-1.38,3.38-5.11,5.73-8.49,5.37Zm19.6,13.15c-1.38,3.37-5.11,5.75-8.49,5.37-3.38-.37-6.32-3.61-6.15-6.82.09-1.77,1.02-3.7,2.6-5.42,1.69-1.83,3.6-3.69,5.42-3.63,2.73.09,4.74,1.04,5.97,2.81,1.45,2.09,1.7,5.11.65,7.69Zm47.99-67.2c3.03,4.28,8.63,12.9,14.04,21.23,5.44,8.38,11.08,17.04,14.17,21.42,1.49,2.11,3.04,4.3,3.64,6.59.45,1.69.33,3.94-.95,5.14,0,0,0,0,0,0-1.65,1.54-6.73,2.9-8.26,2.18-2.28-1.06-4.17-3.07-6.22-5.4-6.55-7.43-15.42-19.31-20.18-25.7-.17-.23-.39-.42-.61-.59-.64-.93-1.32-1.82-2.08-2.64-1.94-2.08-2.49,2.21-2.39,3.96-.33.9-.22,1.94.39,2.76.33.44.68.92,1.05,1.41,2.81,6.12,7.92,11.93,12.23,16.63,2.53,2.76,4.76,5.66,7.1,8.46.04.27.11.53.23.78.37.75.64,1.45.82,2.15.45,1.69.33,3.93-.95,5.14-1.64,1.54-6.74,2.9-8.27,2.19-2.27-1.05-4.16-3.07-6.22-5.4-6.57-7.46-15.43-19.32-20.18-25.7-.96-1.29-2.8-1.56-4.09-.6-1.3.97-1.56,2.8-.6,4.09,6.26,8.39,12.73,16.94,18.22,23.44,0,.42.08.84.28,1.25.37.76.64,1.46.82,2.15.45,1.69.33,3.94-.95,5.14-1.64,1.54-6.73,2.91-8.27,2.19-2.28-1.05-4.17-3.07-6.22-5.4-6.57-7.46-15.43-19.32-20.18-25.7-.96-1.3-2.8-1.56-4.09-.6-1.29.97-1.56,2.8-.6,4.09,6.45,8.64,13.11,17.43,18.7,24-.05,1.29-.44,2.38-1.17,3.07-3.07,2.9-9.13,2.45-13.2.18.53-.79,1.02-1.63,1.38-2.53,1.81-4.44,1.33-9.51-1.26-13.24-2.19-3.15-5.59-4.95-9.86-5.26,0,0,0-.01,0-.02,1.81-4.43,1.33-9.5-1.26-13.24-2.31-3.32-5.96-5.16-10.57-5.32-1.63-.07-3.09.36-4.4,1,.19-3.08-.57-6.15-2.29-8.63-2.31-3.32-5.96-5.16-10.57-5.32-2.86-.09-5.28,1.3-7.12,2.81,5.13-20.7,8.27-41.51,9.38-62.02,4.53-1.77,8.53-4.13,12.38-6.47,2.1-1.27,4.26-2.59,6.45-3.74,4.67-2.47,13.8-6.25,22.53-3.64,4.83,1.44,10.92,6.58,16.8,11.56,1.87,1.58,3.78,3.17,5.65,4.66-4.05,3.92-7.57,7.89-10.5,11.36-1.75,2.07-3.93,3.44-6.23,4.89-1.87,1.17-3.81,2.39-5.67,4.05-2.71,2.42-4.54,5.44-5.16,8.51,0,0,0,0,0,.01-.13.63-.21,1.28-.23,1.93-.19,5.15,3.11,10.26,8.23,12.7,2.71,1.3,5.51,1.75,8.09,1.75,2.34,0,4.5-.37,6.25-.82,6.82-1.74,15.23-5.93,22.5-11.21,2.21-1.61,3.71-3.4,5.15-5.14.35-.42.7-.83,1.05-1.24,1.94,3.29,4.41,6.26,7.29,8.76,5.41,6.63,13.35,10.88,20.61,8.37.72.04,1.43.07,2.15.07,1.12,0,2.23-.05,3.34-.16,1.61-.16,2.78-1.59,2.63-3.2-.1-1.05-.77-1.91-1.65-2.34-.07-.23-.17-.43-.3-.55-2.75-2.52-6.02-4.69-9.62-5.62-3.55-.92-7.05-1.57-10.16-3.64-2.32-1.54-4.24-3.7-5.97-5.85-1.03-1.27-2.14-2.64-2.78-4.16-.06.32-.1.53-.13.63.23-2.1.16-4.95-1.2-6.18-1.72-1.56-2.62.34-3.02,2.06-.29,1.21-.42,2.46-.43,3.73-.46.07-.92.24-1.32.55-2.12,1.61-3.56,3.34-4.96,5.02-1.27,1.53-2.47,2.97-4.09,4.15-6.7,4.87-14.36,8.71-20.5,10.27-3.89.99-7.57.8-10.37-.54-2.87-1.37-4.82-4.15-4.89-6.86.12.03.24.07.37.07h.04c6.23-.15,11.31-4.88,14.68-8.01,1.27-1.18,3-2.79,3.42-5.12.28-1.52-.26-3.23-1.37-4.35-.04-.04-.08-.06-.12-.1,1.72-2.01,3.64-4.15,5.71-6.33,1.22-.31,2.28-1.2,3.55-2.2,2.83-2.23,5.43-4.49,8.65-6.18,3.77-1.98,7.84-3.33,11.8-4.89,3.53-1.4,7.12-3.16,10.95-3.52,7.82-.73,14.93,4.58,21.57,7.82,2.63,1.29,6.19,2.82,9.18,1.95,2.03-.6,3.57-2.05,4.83-3.73-.98,9.62,1.23,26.25,1.53,28.47.87,6.3,1.8,12.68,3.73,18.76,1.62,5.11,3.85,10.01,6.93,14.4.27.38.55.75.83,1.12-4.28,1.28-8.4,3.07-12.27,5.32-.06-.15-.11-.3-.18-.44-.57-1.18-1.94-2.66-2.95-.89-3.81,6.67-12.2,9.5-16.36,15.75-.31.13-.61.28-.92.41-.64-1.02-1.31-2-1.96-2.92-3.03-4.28-8.63-12.9-14.05-21.23-5.44-8.38-11.08-17.04-14.17-21.42-.94-1.32-2.76-1.63-4.08-.7-1.32.93-1.63,2.76-.7,4.08Zm-23.58-19.82c-.2,1.09-1.19,2.08-2.36,3.18-3.77,3.5-7.52,6.63-11.79,7,.59-1.11,1.42-2.19,2.5-3.16,1.5-1.34,3.15-2.37,4.89-3.46,2.15-1.34,4.34-2.77,6.37-4.78.29.31.47.84.4,1.23Z"/>
      <path class="cls-1" d="m277.8,146.18c.85,0,1.69-.37,2.27-1.08,2.32-2.85,4.12-6.05,5.34-9.53.53-1.52-.27-3.19-1.79-3.73-1.53-.53-3.19.27-3.73,1.79-.99,2.83-2.46,5.45-4.35,7.77-1.02,1.25-.83,3.09.42,4.11.54.44,1.2.66,1.85.66Z"/>
      <path class="cls-1" d="m247.52,147.84c.57.81,1.48,1.25,2.4,1.25.58,0,1.17-.17,1.68-.53,1.32-.93,1.64-2.75.71-4.07-2.51-3.58-5.54-6.72-9.01-9.35-1.29-.98-3.12-.72-4.1.57-.97,1.29-.72,3.12.57,4.1,2.99,2.26,5.6,4.97,7.75,8.04Z"/>
    </g>
  </g>
</svg>