<?xml version="1.0" encoding="UTF-8"?>
<svg id="Livello_2" data-name="Livello 2" xmlns="http://www.w3.org/2000/svg" viewBox="0 0 1399.6 2159.87">
  <defs>
    <style>
      .cls-1 {
        fill: #94ddc8;
      }

      .cls-1, .cls-2 {
        stroke-width: 0px;
      }

      .cls-2 {
        fill: #b9eddf;
      }
    </style>
  </defs>
  <g id="Livello_3" data-name="Livello 3">
    <g>
      <rect class="cls-1" x="122.19" y="88.7" width="1152" height="2008"/>
      <path class="cls-2" d="m32.72,117.07c-9.93,15.09-2.32,63.57-.4,83.82,3.29,34.65,7.42,69.48,9.32,104.83,1.12,20.83.06,51.55,22.37,55.76,4.01.76,23.11,1.15,26.69.06,12.3-3.72,10.95-17.63,20.09-23.31,9.1-5.65,16.91,4.88,26.34.2,8.25-4.1,13.75-28.09,16.55-35.63,10.34-27.84,21.05-49.52,43.61-69.78,57.68-51.83,125.41-81.14,195.52-113.39,60.66-27.9,119.16-31.08,183.88-40.12,70.68-9.88,143.14,18.15,212.41,28.64,26.65,4.04,54.68,10.49,81.39,10.55,24.74.05,50.62-5.38,75.36-7.87,62.02-6.24,120.37,2.81,167.83,47.13,24.27,22.67,43.11,51.09,59.77,79.19,18.57,31.34,20.54,65.83,33.64,99.06,29.63,75.17,29.91,155.51,44.15,234.45,7.57,41.93,20.25,83.76,25.3,126.09,5.32,44.51,5.39,90.71,10.58,135.19,13.33,114.14,22.89,229.19,22.89,344.23,0,46.55,5.79,90.74,13.45,136.08,8.1,47.92,10.21,90.4,6.14,139.08-7.5,89.68-23.99,179.4-78.96,253.38-28.03,37.73-62.13,67.4-94.5,101.06-32.15,33.43-64.32,65.98-99.62,96.21-59.66,51.1-138.74,60.87-211.98,81.62-78.61,22.26-159.8-11.61-238.59-15.73-77.28-4.04-153.91,2.84-222.32-37.82-22.07-13.12-40.51-30.6-63.76-42.04-17.64-8.69-37.53-13.23-55.1-21.5-41.77-19.65-78.76-46.97-99.2-89.18-56.15-115.94-78.64-240.66-93.68-367.83-6.1-51.58-5.6-104.91-5.21-157.1-5.34-162.41-19.48-326.73-5.35-489.79,5.64-65.03,16.56-130.4,23.14-195.64,2.72-26.93,11.55-65.02,1.69-91.42-7.39-19.8-36.21-41.6-59.14-35.22-16.32,4.54-19.67,9.26-24.59,21.27-6.91,16.89,3.07,56,4.27,74.68,1.48,23.04,3.86,46.28,4.72,69.34.44,11.91-.56,41.68,1.92,45.58-3.68,105.16-5.9,210.18-5.56,315.38-.23-.44-.34-.92-.33-1.44,5.61,135.68,12.92,271.26,12.79,407.03.06,2.77.09,2.24.09-1.61-2.59,191.51-17.57,396.53,17.77,586.62,8.84,47.57,8.31,107.62,33.31,151.14,14.78,25.73,26.38,32.24,56.36,41.97,10.66,3.46,26.11,11.03,37.7,9.34,49.78.66,106.77-1.35,159.05-3.63,7.24-.32,19.36.37,22.82-1.06,68.36-4.46,137.04-10.11,205.4-13.14,6.72-.3,20.51-.87,22.46-1.47,76.92-4.81,154.17-7.49,230.8-14.59,9.72-.9,20.28-2.98,30.03-1.58,16.65,4.99,60.03-5.47,80.15-6.9,36.52-2.6,73.1-4.52,109.61-7.24,11.66-.87,23.56-1.09,35.16-2.1,9.92-.87,19.68-2.7,29.6-3.76,60.63-19.95,136.07-20.75,201.69-30.32,35.37-5.16,70.97-18.68,106.91-22.45,2.3-16.26-4.78-32.58-7.18-48.33-6.43-42.28-4.77-92.27-5.32-137.02-.2-16.44-1.16-38.51-1.46-51.4-2.86-68.63-6.32-138.51-12.85-206.62-.99-10.38-.3-22.34-3.34-32.29,4.57,7,3.88-.13-2.07-21.38-3.84-29.07-7.7-58.15-11.57-87.22-4.12-30.95-8.9-61.81-13-92.75-1.23-9.28-2.28-18.67-3.42-27.84-1.42-11.47-2.72-24.06-3.42-35.13-4.75-75.32-13.73-151.04-20.07-226.11-.88-10.39-.44-24.32-3.68-33.99-8.72-37.65-4.3-97.97-5.08-139.51-.41-21.71-.97-43.38-1.63-65.06-.29-9.3-.42-18.55-.4-27.87.02-9.76.19-28.04-.22-32.75,3.35-87.63,9.79-175.36,9.1-263.07,1.09-69.12,3.54-140.38,3.62-210.56-1.3-74.85,3.62-153.19,3.56-229.29-.02-26.19,13.11-71.3-13.77-81.81-13.14-5.14-46.32,5.61-59.34,7.01-10.7,1.15-21.44,2.41-32.08,3.42-13.61,1.29-26.79,1.65-40.59,1.7-60.78.2-134.27-.16-191.92,2.01-81.06-1.78-162.03-4.56-243.07-5.56-64.37,12.55-143.94,4.08-213.18,10.36-10.93.99-21.72,1.27-32.59,2.18-9.08.75-27.05,1.84-31.7,3.1-66.12,5.15-132.02,12.95-198.08,18.28-8.57.69-16.84.31-24.71,3.61"/>
    </g>
  </g>
</svg>