<?xml version="1.0" encoding="UTF-8"?>
<svg id="Livello_2" data-name="Livello 2" xmlns="http://www.w3.org/2000/svg" viewBox="0 0 441.29 663.9">
  <defs>
    <style>
      .cls-1 {
        fill: #fff;
      }

      .cls-1, .cls-2 {
        stroke-width: 0px;
      }

      .cls-2 {
        fill: #9e8d8d;
      }
    </style>
  </defs>
  <g id="Livello_3" data-name="Livello 3">
    <g>
      <path class="cls-2" d="m441.28,103.57c-.13-1.89-.25-3.78-.38-5.66-.03-.22-.05-.45-.08-.67-.08-.48-.16-.96-.25-1.44-.04-.22-.07-.45-.12-.67-.07-.36-.14-.73-.22-1.09-.04-.22-.1-.45-.14-.67-.05-.25-.12-.5-.18-.76-.22-.67-.44-1.36-.66-2.04-2.3-5.83-4.6-11.65-6.93-17.47-.22-.55-.69-1.01-1.05-1.5-.19-.38-.37-.76-.56-1.13-1.15-1.63-2.24-3.31-3.48-4.86-.92-1.14-2.01-2.16-3.08-3.18-1.38-1.31-2.79-2.61-4.23-3.86-2.49-2.14-5.02-4.24-7.53-6.37-.24-.2-.49-.4-.74-.6-3.33-1.99-6.64-3.97-9.97-5.95-1.01-.6-2.04-1.16-3.06-1.74-.36-.23-.71-.47-1.06-.71-3.23-2.27-6.46-4.54-9.68-6.83-4.23-3.01-6.91-7.43-10.26-11.24-3.94-4.49-8.88-7.65-14.47-9.75-.22-.04-.45-.09-.67-.14-.36-.06-.73-.13-1.09-.21-1.46-.22-2.9-.45-4.35-.67-.55-.29-1.1-.57-1.64-.85-.36-.22-.72-.44-1.07-.66-.36-.1-.72-.2-1.07-.3-.24-.1-.49-.2-.73-.3-1.39-.28-2.78-.56-4.17-.84-.35,0-.7,0-1.05,0-2.3.31-4.18-.43-6.27-1.56-4.06-2.18-8.47-3.73-12.73-5.54-.59-.22-1.18-.46-1.76-.69-.47-.14-.94-.29-1.42-.44-.22-.09-.43-.19-.65-.28-.24-.08-.49-.16-.74-.24-.22-.04-.44-.09-.67-.14-.24-.07-.49-.13-.74-.21-1.17-.27-2.33-.54-3.49-.81-.25-.04-.49-.09-.75-.13-.45-.07-.91-.15-1.36-.23-.25-.04-.5-.08-.76-.13-.45-.07-.91-.14-1.36-.22-.48-.08-.96-.16-1.45-.24-.22-.03-.44-.05-.67-.08-1.2-.1-2.4-.21-3.61-.31l-.62-.03c-.25-.03-.49-.04-.75-.06-3.05-.02-6.1-.04-9.14-.05-2.13.26-4.26.52-6.39.77-.33.08-.67.16-1,.24-.25.05-.5.11-.75.15-.58.16-1.15.32-1.74.49-.24.07-.49.14-.73.22-.58.18-1.14.37-1.72.56-1.29.4-2.58.79-3.87,1.18-.31.16-.62.31-.93.47-4.44,1.99-8.99,3.78-13.28,6.05-2.43,1.29-4.55,3.25-6.62,5.12-4.05,3.7-7.96,7.53-11.93,11.31-.32.34-.65.69-.98,1.04-1.75,2.11-3.51,4.23-5.27,6.34-.11.12-.22.23-.33.36-1.78,2.63-3.56,5.27-5.34,7.9-.03.09-.08.14-.18.17-1.44,2.36-2.98,4.65-4.31,7.07-2.2,4.05-4.25,8.2-6.37,12.3-.07.13-.22.23-.32.36l-.35.7c-2.73,6.1-5.24,12.34-8.27,18.3-3.14,6.18-5.57,12.59-7.62,19.18-1.06,3.43-2.26,6.81-3.37,10.22-.13.38-.09.8-.13,1.2-.74,2.44-1.47,4.87-2.22,7.31-.55,1.55-1.09,3.09-1.64,4.64-.04.22-.07.43-.11.64-.05.25-.11.49-.16.75-.06.33-.14.67-.2,1.01-.05.25-.11.5-.16.75-.06.34-.13.67-.2,1.02-.05.24-.11.49-.17.75-.19.92-.37,1.84-.56,2.77-.05.24-.09.49-.13.74-2.84.84-5.73,1.52-8.5,2.53-4.48,1.65-8.92,3.4-13.29,5.29-4.51,1.96-9.06,3.88-13.34,6.28-8.08,4.52-15.99,9.39-23.96,14.11-1.76,1.03-3.51,2.08-5.3,3.07-.96.53-1.29,1.08-.89,2.24.22.68.79,2.73,1.47,5.23-.62-.84-1.23-1.67-1.82-2.54-.98-1.44-1.88-2.94-2.81-4.42-1.58-3.05-3.16-6.1-4.74-9.14-.12-.29-.23-.58-.36-.86-.82-1.83-1.64-3.65-2.45-5.47-.24-.52-.49-1.03-.74-1.56-.38-.88-.76-1.77-1.14-2.65-.29-.67-.58-1.34-.86-2-.97-2.38-1.93-4.77-2.9-7.16-.11-.29-.22-.58-.33-.87-1.53-3.93-3.07-7.86-4.6-11.79-.2-.56-.4-1.11-.59-1.66-.14-.39-.3-.77-.44-1.16-.12-.29-.22-.58-.34-.87-1.53-4.4-3.07-8.79-4.6-13.19-.27-.85-.54-1.68-.81-2.52-.7-2.7-1.54-5.37-2.06-8.1-.8-4.18-1.38-8.41-2.05-12.6-.04-.25-.08-.5-.12-.76-1.16-3.85-2.32-7.7-3.48-11.54-.17-.32-.34-.65-.51-.98-.76-1.31-1.52-2.63-2.28-3.95-.1-.18-.2-.35-.3-.52-.74-1.11-1.47-2.23-2.21-3.35-.26-.34-.53-.68-.8-1.03-.2-.24-.4-.49-.6-.74l-.04-.05c-.45-.57-.9-1.13-1.35-1.71-.73-.72-1.45-1.44-2.18-2.16-1.88-1.01-3.72-2.08-5.65-3-2.23-1.06-4.58-1.21-6.96-.49-.15.12-.3.24-.45.37-.2.83-.36,1.66-.63,2.47-.12.37-.45.66-.68.99-.06.11-.15.16-.28.16-1.32.76-2.63,1.51-3.95,2.27-.32.19-.64.38-.96.57-.73.42-1.46.85-2.18,1.27-.04.11-.13.16-.24.16-.28.16-.56.33-.83.49-.18.1-.35.2-.52.3-2.18,1.08-4.34,2.16-6.52,3.24-.04.11-.13.17-.25.17-.62.41-1.23.83-1.85,1.24-.04.12-.13.17-.25.17l-5.37,3.02c-.05.11-.13.16-.26.15-3.43,1.91-6.88,3.84-10.32,5.75-.31.2-.61.39-.93.58-1.68.99-8.29,5.02-8.92,5.4-.09.06-.19.13-.29.18-1.19.78-4.44,2.92-4.87,3.21-.62.4-3.6,2.22-4.32,2.63-.05.12-.14.17-.27.16-.97.63-3.74,2.55-4.15,2.87-2.51,1.82-9.96,7.37-11.06,8.25-.91.86-1.82,1.73-2.73,2.59-.82.83-1.64,1.65-2.45,2.46-.18.2-.35.4-.52.6-.35.68-.69,1.37-1.04,2.06,0,.96-.02,1.93-.04,2.9,1.4,3.37,2.8,6.75,4.19,10.13.31.67.61,1.36.92,2.03,1.59,2.95,3.19,5.91,4.78,8.86.11.05.16.14.15.27,1,1.67,2,3.34,2.99,5.02.11.06.16.16.15.29.42.61.85,1.21,1.27,1.82.12.04.18.11.19.22,1.23,1.34,2.46,2.67,3.69,4.01.29.32.57.66.85.98,1.95,2.31,4.05,4.44,6.8,5.82.29.13.57.25.85.38,2.53,1.18,4.96.79,7.35-.4.32-.18.65-.36.97-.54,1.08-.66,2.16-1.3,3.25-1.96.43-.29.86-.58,1.29-.88.4-.29.79-.58,1.19-.87,0,0,.06-.05.06-.05l1.32-1.02c.04-.11.11-.17.23-.17,1.21-.87,2.43-1.74,3.64-2.61.04-.12.13-.18.25-.18.39-.3.77-.59,1.15-.89.04-.12.13-.17.25-.18,1.44-1,2.89-1.99,4.32-2.98.04-.12.12-.18.24-.18.39-.3.78-.59,1.17-.89.22-.16.43-.31.65-.48.25-.2.5-.4.76-.59l.05-.04c1.15-.93,2.3-1.84,3.46-2.77.04-.11.12-.17.23-.17.63-.41,1.26-.83,1.88-1.24l.05-.05c.46-.32.91-.65,1.36-.97.04-.13.13-.19.25-.19.39-.29.77-.58,1.16-.86.03-.13.11-.19.23-.2.63-.53,1.25-1.06,1.88-1.59.31-.29.63-.58.94-.86.5-.42,1.01-.85,1.51-1.27.21-.16.41-.32.62-.49,1.21-.89,2.4-1.78,3.6-2.68.21-.16.41-.32.61-.49.35.05.7.08,1.05.13,1.83,2.32,3.27,5.03,6.15,6.34.32.22.64.46.96.68.51.46,1.03.91,1.55,1.37.17.6.35,1.2.53,1.8.04.37.06.74.09,1.11.07.33.14.67.22,1.01.17,1.53,1.26,6.71,1.33,7.05.06.24,1.04,3.76,1.47,5.27.26.95.53,1.91.8,2.86.57,1.63,1.14,3.25,1.71,4.86.38,1.3.71,2.62,1.15,3.9,1.02,2.95,2.09,5.89,3.13,8.83.58,1.74,1.16,3.47,1.74,5.21.98,2.45,1.96,4.92,2.94,7.37.05.13.11.24.15.37.24.52.49,1.05.73,1.57,1.64,4.41,3.27,8.81,4.91,13.22.13.29.24.58.36.86.29.63.65,1.23.85,1.89,1.77,5.67,4.42,10.91,7.63,15.89.1.17.2.34.3.51.14.3.3.59.44.88.17.32.35.64.52.95,1.74,1.54,3.49,3.07,5.23,4.6.13,0,.22.06.29.17.24.2.49.39.73.58,2.22.99,4.43,1.98,6.65,2.97,1.27.35,2.54.69,3.8,1.04.25.04.49.09.75.13.46.08.91.15,1.37.22.48.04.96.09,1.45.14l.67.11c5.69.68,11.35.78,17.02-.3,2.64-.5,5.34-.73,7.98-1.19.04.07.08.14.12.18,1.39,1.89,2.76,2.06,4.58.58.81-.66,1.58-1.37,2.46-1.89,3.4-2.01,6.87-3.92,10.27-5.94,3.3-1.96,6.53-4.04,9.82-6.01,1.91-1.14,3.88-2.18,5.82-3.27l.39.39c-.18,1.12-.4,2.25-.53,3.38-.54,4.43-1.09,8.87-1.56,13.32-.16,1.51-.13,3.04-.18,4.56-.08.22-.15.46-.23.68-.03,1.9-.31,37.9-.31,53.84.04.09.09.17.12.26,0,.04-.07.07-.12.11.1,1.88.2,3.76.3,5.64.02.47.03.93.04,1.38.14,1.98.23,3.96.4,5.93.18,2.14.51,3.99,1.09,5.59-1.13,4-2.94,7.72-4.15,11.63-3.01,5.96-4.95,12.33-6.71,18.75-1.08,3.94-1.73,8-2.48,12.02-.67,3.55-1.31,7.11-1.8,10.69-.46,3.33-.7,6.68-1.01,10.02-.4,4.41-.84,8.8-1.12,13.21-.15,2.38-.03,4.79-.03,7.18,0,.32-.02.65-.04.97v27.18c.02.32.03.65.04.97.16,3.47.33,6.94.47,10.42.12,2.94.04,5.89.31,8.81.47,4.81,1.22,9.58,1.74,14.38.45,4.26.74,8.55,1.1,12.82.06.49.13.97.19,1.45,0,.47.03.94.04,1.41.26,1.13.6,2.25.77,3.39.73,4.74,1.4,9.48,2.09,14.21.02.11-.05.22-.09.33.02.23.03.48.04.71.31,1.46.65,2.92.94,4.39.51,2.63,1.01,5.28,1.5,7.92.17.81.35,1.61.52,2.41,1,4.48,2,8.95,3,13.42.04.22.1.44.15.67,1.5,6.32,3,12.65,4.5,18.98.09.37.2.75.3,1.11.05.33.1.67.15,1,1.6,6.4,2.95,12.88,4.86,19.19,3.79,12.49,7.77,24.92,11.96,37.29,1.57,4.65,3.96,9.02,5.94,13.53,1.94,4.45,5.49,6.96,9.93,8.45.26.09.53.17.79.28.21.08.4.2.67.34-.08.51-.15,1.02-.23,1.53v5.98c-.1.47-.21.93-.31,1.41l-.03.35c-.26,4.22-2.19,7.71-5.23,10.42-3.35,2.98-7.05,5.59-10.63,8.32-3.08,2.36-6.04,4.92-9.34,6.93-4.65,2.84-9.57,5.26-14.37,7.87-.33.18-.63.43-.96.62-2.97,1.66-3.33,4.79-.4,6.4,2.43,1.33,5.26,2.13,8.02,2.63,3.46.63,7.02.82,10.55,1.02,1.9.1,3.81-.21,5.73-.26,1.33-.04,2.67.04,4.01.07.23,0,.47-.02.7-.02,3.64-.47,7.27-.93,10.91-1.38.47-.14.94-.29,1.39-.44,1.18-.34,2.35-.76,3.54-1.01,5.87-1.22,11.1-3.83,15.93-7.31.11-.02.22-.03.32-.04,1.91-1.44,3.94-2.74,5.69-4.35,2.45-2.25,4.73-4.68,7.01-7.11,1.84-1.96,1.26-4.32.79-6.58-.94-4.51-2-9-2.98-13.49-.09-.39,0-.81,0-1.22-.12-.47-.22-.94-.33-1.4-.54-2.95-.9-5.94-1.66-8.83-.49-1.83.65-2.81,1.65-3.39,1.56-.9,2.12-2.09,2.18-3.66.05-1.4-.07-2.81-.12-4.22-.03-.22-.05-.45-.08-.67-.08-.59-.16-1.2-.25-1.79-.03-.22-.06-.45-.09-.67-.21-2-.41-4.01-.62-6.01-.03-.34-.06-.67-.09-1.02-.52-4.07-1.05-8.15-1.58-12.22-.04-.38-.08-.76-.13-1.14-.34-4.12-.67-8.24-1.02-12.35,0-.22-.03-.42-.04-.64-.1-1.55-.21-3.09-.31-4.64-.03-.33-.05-.67-.06-.99-.1-1.65-.19-3.3-.29-4.95-.02-.7-.03-1.41-.05-2.11-.05-8.05-.13-16.1-.15-24.16,0-3.32.11-6.64.17-9.97,0-.36-.02-.72-.03-1.09,0-.91.03-1.83.04-2.74.04-2.12.07-4.24.11-6.37.08-3.16.17-6.34.25-9.5,0-.35.02-.7.03-1.05.34-5.51.68-11.02,1.02-16.53,0-.48.02-.94.03-1.41.11-1.88.22-3.75.32-5.63.02-.82.03-1.65.04-2.46.11-1.53.21-3.05.31-4.58.02-.7.03-1.4.04-2.1.11-1.18.21-2.35.31-3.52,0-.58.03-1.17.04-1.75.1-.94.2-1.88.3-2.81.02-.71.04-1.41.05-2.11.22-2.6.42-5.19.64-7.79v-1.29c.09-.02.17-.03.26-.04.11.46.22.91.34,1.36,1.56,5.99,3.1,11.98,4.66,17.96.13.47.24.94.37,1.4.76,2.63,1.44,5.3,2.29,7.89,1.48,4.5,3.09,8.95,4.61,13.43.6,1.76,1.09,3.57,1.63,5.36.05.17.12.33.18.5.74,1.84,1.47,3.69,2.2,5.53.15.34.31.67.46,1.02,1.62,3.73,3.24,7.45,4.85,11.19.26.61.49,1.24.73,1.86.07.12.15.23.23.35.73,1.52,1.47,3.05,2.19,4.58.22.47.44.94.66,1.42,2.98,5.76,5.83,11.61,8.97,17.28,3.28,5.92,6.86,11.68,10.3,17.51.12.19.14.44.21.66,2.58,3.19,5.22,6.36,7.76,9.59,4.22,5.39,8.37,10.82,12.55,16.23.35.43.7.86,1.05,1.29,5.87,7.72,12.69,14.54,20.15,20.71v-.02c.87.5,1.75,1.01,2.62,1.49-.75,2.26-.03,3.89,2.16,4.53,2.57.75,5.14.99,7.66-.46,2.09-1.2,4.31-2.17,6.46-3.24.94-.47,1.71-.5,2.58.33,1.12,1.07,2.45,1.93,3.64,2.86-1.83,6.55-5.79,11.81-10.38,16.61-3.87,4.05-7.85,7.98-11.93,11.8-3.31,3.09-6.75,6.05-10.29,8.88-3,2.4-2.88,5.42.73,7.53.69.14,1.39.3,2.09.44,1.52.13,3.05.25,4.57.37,1.29-.04,2.56-.08,3.84-.13.72-.07,1.43-.14,2.15-.22.33-.05.67-.12,1-.18,1.36-1.28,3.02-.94,4.63-.86.58-.02,1.17-.04,1.75-.05.16-.16.31-.44.49-.47,2.54-.43,5.07-.84,7.61-1.24.34-.05.68-.11,1.02-.16.37-.07.73-.13,1.1-.2.12,0,.23-.02.36-.03.26-.22.49-.55.79-.64,2.18-.66,4.38-1.27,6.57-1.89.24-.11.49-.22.72-.33,2.46-1.23,5-2.35,7.36-3.75,1.6-.95,3.14-2.16,4.41-3.52,2.85-3.06,5.71-6.13,8.17-9.48,1.75-2.38,2.9-5.23,4.29-7.88.45-.87.76-1.83,1.27-2.65,1.9-3.03,2.77-6.27,2.39-9.85-.13-1.33-.06-2.68-.09-4.03-.02-.22-.05-.45-.07-.67-.22-1.05-.43-2.1-.65-3.16-.22-.59-.44-1.18-.66-1.76-1.44-2.89-2.88-5.79-4.32-8.68-.11-.14-.21-.27-.31-.41-1.14-1.34-2.53-2.55-3.38-4.07-1.33-2.35-3.32-3.93-5.32-5.57-.4-.33-.81-1.28-.62-1.62,1.62-3,.68-5.95-.4-8.69-1.41-3.6-3.32-7-4.99-10.5-1.36-2.83-2.35-5.91-4.11-8.46-2.63-3.82-4.14-8.06-5.74-12.3-2.54-6.73-5.4-13.36-7.56-20.2-2.07-6.58-3.43-13.4-5.09-20.1-.13-.71-.27-1.41-.4-2.11-.35-1.89-.7-3.78-1.06-5.66-.07-.22-.14-.44-.22-.66-.26-1.88-.53-3.76-.8-5.65v-.7c-.48-2.7-.95-5.39-1.43-8.09,0-.23.02-.47.02-.7-.19-1.01-.45-2-.57-3.01-.31-2.63-.56-5.26-.83-7.89-.02-.58-.03-1.18-.05-1.76-.07-2.11-.14-4.23-.21-6.33-.04-1.3-.09-2.61-.13-3.91,0-.56,0-1.12,0-1.68.04-.94.07-1.9.11-2.85.06-1.18.13-2.35.2-3.52.02-.47.04-.93.05-1.4.49-4.88.94-9.75,1.48-14.63.22-2.06.61-4.09.93-6.14.04-.35.07-.69.11-1.04.06-.6.13-1.2.19-1.81.04-.32.07-.65.11-.98.1-.84.19-1.67.29-2.52.03-.22.04-.43.07-.65.09-.83.18-1.65.27-2.48.03-.22.05-.45.06-.67.09-.84.18-1.66.26-2.49.04-.34.06-.68.1-1.02.1-.96.19-1.92.29-2.88.03-.37.06-.73.1-1.09-.04-.09-.02-.16.05-.22.06-.61.13-1.22.19-1.83,0-.24,0-.49,0-.73l.05-.65c.03-.24.06-.49.09-.74.07-.7.13-1.4.21-2.11.04-.7.1-1.4.15-2.1.06-1.07.13-2.13.21-3.19.02-.33.04-.67.06-1,.09-1.66.18-3.33.28-4.98.02-.45.05-.9.06-1.35.02-.25.05-.49.06-.75,0-6.91,0-13.84,0-20.75-.03-.6-.04-1.2-.07-1.81,0-.56-.03-1.12-.04-1.68,0-.36.02-.73.02-1.09-.1-2.11-.21-4.23-.31-6.33-.02-.48-.03-.94-.05-1.41-.1-1.17-.2-2.35-.3-3.52-.02-.35-.03-.71-.04-1.06-.34-2.94-.68-5.89-1.03-8.84-.03-.22-.05-.44-.09-.67-.07-.58-.14-1.17-.22-1.75-.04-.23-.06-.47-.09-.7-.87-4.54-1.74-9.09-2.63-13.63,0-2.88-.58-5.77-1.52-8.47-1.64-4.71-4.19-9.04-5.9-13.67.22-.61.33-1.32.31-2.18-.06-2.98.72-5.99,1.18-8.97.23-1.49.56-2.96.84-4.44,0-.23.02-.47.02-.7.47-2.81.94-5.63,1.41-8.44v-.71c.58-3.55,1.16-7.1,1.74-10.66.63-3.9,1.25-7.8,1.86-11.71.33-2.18.63-4.37.96-6.55.07-.45.25-.88.39-1.32.08-.83.17-1.65.25-2.48.13-.94.24-1.88.37-2.81.13-.94.26-1.86.4-2.8.12-.94.23-1.88.35-2.81,0-.35.02-.7.03-1.05.58-4.21,1.17-8.41,1.77-12.6.5-3.49,2.18-6.5,5.03-8.38,6.46-4.24,11.77-9.7,17.12-15.15,3.38-3.44,6.7-6.96,10.09-10.39,3.63-3.69,7.41-7.24,10.93-11.02,1.78-1.9,3.21-4.14,4.67-6.31,1.02-1.51.71-3.11-.18-4.63-.35-.6-.62-1.24-.93-1.86.58-.61,1.16-1.22,1.74-1.83.47-.45.93-.9,1.4-1.34,1.32-1.4,2.64-2.81,3.97-4.21.1-.13.2-.28.31-.41.21-.23.41-.47.63-.7,1.79-2.1,3.58-4.21,5.37-6.32.2-.24.4-.49.59-.75.16-.22.32-.44.49-.67.19-.24.38-.49.57-.73,2.1-2.72,4.35-5.34,6.27-8.19,2.75-4.09,5.3-8.32,7.84-12.54,1.01-1.67,1.75-3.5,2.63-5.26.56-1.62,1.12-3.25,1.67-4.87.24-1.65.48-3.31.72-4.96,0-1.29,0-2.58,0-3.87Zm-37.33-10.76c-.73,8.38-6.11,14.85-11.6,20.8-5.44,5.89-11.73,11.51-19.45,14.09-1.67.56-3.43-.92-3.41-2.6.1-11.43.26-22.8.19-34.24-.04-5.83.76-11.53.94-17.34.12-3.96-1.61-7.76-1.37-11.67-1.75-1.73-.31-5.45,2.54-4.54,8.87,2.83,16.62,8.3,23.31,14.69,5.64,5.39,9.57,12.82,8.87,20.79Z"/>
      <g>
        <path class="cls-1" d="m37.05,131.85c-2.82-1.1-5.1-5.4-3.87-8.14,1.08-2.39,2.65-4.63,4.32-6.67,1.13-1.38,1.59-2.5.64-4.05-2.42-3.95-2.88-8.31-2.61-12.82.32-5.22,7.34-10.62,12.3-9.14,2.96.88,4.9,3.23,6.05,6.14.65,1.66,1.3,3.32,2.02,5.15,1.32-.68,2.45-1.4,3.68-1.87,1.78-.69,3.6-1.43,5.47-1.74,3.84-.64,8.41,3.65,8.5,7.75-1.09.94-2.11,1.98-3.28,2.8-8.66,6.15-17.33,12.3-26.06,18.36-2.27,1.58-4.77,2.83-7.17,4.22Z"/>
        <path class="cls-1" d="m148.8,173.43c1.49,1.18,2.18,2.74,2.17,4.62-.98,1.45-2.37,2.26-4.08,2.42-1.8.17-3.65.48-5.41.23-4.87-.68-9.66-1.68-12.07-6.82-3.19-6.78-6.75-13.41-9.56-20.34-4.04-9.98-7.53-20.18-11.31-30.27-3.49-9.34-6.32-18.86-8.06-28.7-1.1-6.22-2.16-12.47-3.76-18.56-1.75-6.62-5.58-12.21-10.3-17.14-.79-.82-1.91-1.33-2.88-1.98-.12.15-.25.3-.37.45.69.98,1.35,1.99,2.09,2.93,3.66,4.67,6.33,9.86,8.06,15.51,2.07,6.73,3.11,13.6,1.65,20.63-.64,3.08-2.91,3.89-5.24,1.81-1.34-1.21-2.56-2.57-3.78-3.91-2.99-3.29-5.92-6.63-8.93-9.9-.56-.61-1.36-.99-2.04-1.48-.03-.08-.06-.16-.09-.24-.03.06-.07.13-.1.19.08,0,.15,0,.23,0,.03.36-.05.78.11,1.08,1.25,2.31,2.4,4.7,3.88,6.87,2.6,3.82,5.42,7.49,8.1,11.26.58.82,1.33,1.76.35,2.84-2.7,2.99-5.4,5.97-8.1,8.95-.38.42-.78.82-1.35,1.42,1.18.93,2.19,1.8,3.27,2.57,3.75,2.67,7.05,5.81,8.37,10.32,1.63,5.56,2.81,11.25,4.31,16.85,1.95,7.29,3.68,14.67,6.11,21.81,4.46,13.08,9.41,25.97,15.66,38.35,4.09,8.09,10.94,11.23,19.22,11.67,10.66.57,21.31-.16,31.87-1.85,2.45.66,2.8,1.39,2.09,4.34-2.59.83-5.15,1.86-7.8,2.44-3.18.7-6.46.9-9.66,1.51-5.67,1.08-11.33.98-17.02.3-.23-.04-.45-.08-.68-.12-.48-.05-.97-.09-1.45-.14-.45-.07-.91-.15-1.36-.22-.25-.04-.5-.09-.75-.13-1.27-.35-2.53-.7-3.8-1.04-2.22-.99-4.43-1.98-6.65-2.96-.24-.19-.49-.38-.73-.57-.06-.11-.15-.17-.28-.17-1.74-1.53-3.49-3.07-5.23-4.6-.18-.32-.35-.64-.53-.95-.14-.29-.29-.59-.43-.88-.1-.17-.2-.35-.3-.52-3.21-4.97-5.86-10.21-7.63-15.88-.21-.66-.57-1.27-.85-1.9-.12-.29-.24-.57-.35-.86-1.64-4.4-3.28-8.81-4.91-13.22-.24-.52-.48-1.05-.72-1.57-.05-.12-.1-.24-.16-.36-.98-2.46-1.96-4.92-2.94-7.38-.58-1.73-1.16-3.47-1.75-5.2-1.05-2.94-2.11-5.88-3.13-8.83-.44-1.28-.77-2.6-1.15-3.9-.57-1.62-1.14-3.24-1.71-4.86-.27-.96-.54-1.91-.8-2.87-.43-1.51-1.41-5.02-1.48-5.26-.07-.34-1.15-5.52-1.33-7.05-.07-.34-.15-.67-.22-1.01-.03-.37-.06-.74-.09-1.12-.18-.6-.36-1.2-.54-1.79-.51-.45-1.03-.91-1.54-1.36-.32-.23-.64-.46-.96-.69-2.87-1.31-4.32-4.02-6.15-6.34-.35-.04-.7-.08-1.05-.12-.2.17-.41.33-.61.49-1.2.89-2.4,1.79-3.6,2.68-.21.16-.42.32-.62.49-.5.42-1,.84-1.5,1.26-.32.29-.63.58-.95.86-.63.53-1.25,1.06-1.88,1.59-.13.01-.21.08-.24.2-.38.29-.77.58-1.15.87-.13,0-.21.06-.26.18-.45.33-.9.65-1.35.98l-.06.04c-.63.42-1.25.83-1.88,1.25-.12,0-.2.06-.24.17-1.15.92-2.31,1.84-3.46,2.76l-.05.04c-.25.2-.5.39-.76.59-.22.16-.43.32-.65.48-.39.3-.78.59-1.17.89-.12,0-.2.06-.24.18-1.44,1-2.88,1.99-4.32,2.99-.12,0-.21.06-.25.18-.38.29-.77.59-1.15.88-.13,0-.21.07-.25.18-1.21.87-2.43,1.74-3.64,2.61-.12,0-.2.06-.23.17-.44.34-.88.68-1.32,1.02l-.06.05c-.39.29-.79.58-1.18.87-.43.29-.87.59-1.3.88-1.08.65-2.17,1.3-3.25,1.95-.32.18-.65.36-.97.54-2.39,1.19-4.83,1.58-7.35.4-.28-.13-.57-.25-.85-.38-2.75-1.37-4.85-3.51-6.8-5.82-.28-.33-.56-.66-.84-.98-1.23-1.33-2.46-2.67-3.69-4-.01-.12-.07-.19-.19-.23-.42-.61-.84-1.21-1.27-1.82,0-.13-.04-.23-.16-.29-1-1.67-1.99-3.34-2.99-5.01,0-.12-.04-.21-.15-.27-1.6-2.95-3.19-5.9-4.79-8.85-.3-.68-.61-1.36-.91-2.03-1.4-3.38-2.79-6.76-4.19-10.13.01-.97.02-1.94.03-2.9.35-.68.69-1.37,1.04-2.06.17-.2.35-.4.52-.6.82-.82,1.64-1.64,2.46-2.46.91-.86,1.82-1.73,2.74-2.59,1.1-.88,8.55-6.44,11.06-8.25.41-.32,3.18-2.24,4.15-2.87.13,0,.22-.04.27-.16.73-.41,3.7-2.24,4.33-2.64.43-.28,3.68-2.42,4.88-3.2.1-.06.19-.12.28-.18.63-.39,7.24-4.42,8.92-5.41.31-.19.62-.39.93-.58,3.44-1.92,6.88-3.84,10.32-5.75.12,0,.2-.05.25-.15,1.79-1.01,3.58-2.01,5.37-3.02.12,0,.21-.06.25-.17.62-.41,1.24-.83,1.85-1.24.12,0,.21-.06.25-.17,2.17-1.08,4.34-2.16,6.51-3.24.17-.1.35-.2.52-.3.28-.16.55-.33.83-.49.12,0,.2-.06.24-.16.73-.42,1.46-.85,2.19-1.27.32-.19.64-.37.96-.56,1.32-.76,2.63-1.51,3.95-2.27.13,0,.22-.05.28-.16.24-.33.57-.62.69-.98.27-.81.43-1.65.63-2.47.15-.12.3-.25.45-.37,2.38-.72,4.73-.57,6.96.5,1.92.92,3.77,2,5.65,3,.72.72,1.45,1.44,2.17,2.16.45.57.9,1.14,1.35,1.71l.04.05c.2.24.4.49.6.73.27.34.53.69.8,1.03.73,1.12,1.47,2.24,2.2,3.35.1.17.2.34.3.51.76,1.32,1.52,2.64,2.28,3.95.17.33.34.65.51.98,1.16,3.85,2.32,7.7,3.48,11.54.04.25.08.5.12.75.67,4.2,1.25,8.43,2.05,12.6.52,2.73,1.36,5.4,2.06,8.1.27.84.54,1.68.81,2.51,1.54,4.4,3.07,8.79,4.61,13.19.11.29.22.58.33.87.15.38.3.77.45,1.16.2.55.39,1.11.59,1.66,1.54,3.93,3.07,7.86,4.61,11.79.11.29.22.58.33.87.97,2.39,1.93,4.77,2.9,7.16.29.67.57,1.34.86,2.01.38.88.76,1.77,1.14,2.65.24.52.49,1.04.73,1.55.82,1.82,1.64,3.65,2.46,5.47.12.29.24.58.36.86,1.58,3.05,3.15,6.1,4.73,9.15.94,1.48,1.84,2.98,2.82,4.42,1.01,1.49,2.11,2.93,3.17,4.38.47.26.95.52,1.42.79,2.92,1.44,5.83.47,8.75,0Zm-75.9-66.87c3.05-1.81,6.06-3.68,8.52-6.16-2.34-3.11-4.74-5.94-6.72-9.02-1.63-2.54-2.95-5.33-4.09-8.14-1.19-2.94.43-4.98,3.61-4.93.6,0,1.21.06,2.14.1-2.18-3.6-4.18-6.92-6.28-10.39-20.98,12.26-40.21,26.76-60.27,39.95,3.13,9.11,14.37,26.61,18.98,29.49,2.5-1.81,5.06-3.66,7.61-5.51,2.4-1.4,4.9-2.65,7.17-4.22,8.73-6.06,17.4-12.21,26.06-18.36,1.17-.83,2.19-1.86,3.28-2.8Zm11.78-35.48c-2.12.02-3.49,1.26-3.45,3.14.04,1.95,1.82,3.83,3.63,3.83,1.79,0,3.3-1.56,3.31-3.41.02-2.1-1.43-3.57-3.49-3.55Z"/>
        <path class="cls-1" d="m217.15,311.19c-5.39-.99-10.87-1.56-16.15-2.94-7.37-1.92-9.62-5.9-10.21-12.99-.16-1.98-.26-3.96-.39-5.94-.01-.46-.03-.92-.04-1.38-.1-1.88-.2-3.76-.3-5.64.04-.04.13-.08.12-.11-.03-.09-.08-.18-.12-.26,0-15.94.29-51.94.32-53.83.08-.23.15-.45.23-.68.05-1.52.02-3.05.18-4.56.48-4.44,1.02-8.88,1.56-13.32.14-1.13.35-2.25.53-3.37-.13-.13-.26-.26-.38-.39-1.94,1.09-3.91,2.13-5.81,3.27-3.29,1.97-6.52,4.05-9.82,6.01-3.4,2.02-6.86,3.92-10.27,5.94-.88.52-1.65,1.24-2.46,1.89-1.82,1.47-3.19,1.3-4.58-.58-.75-1.01-4.8-9.42-5.24-10.34-1.6-3.35-3.36-6.63-4.94-9.99-2.86-6.09-5.69-12.2-8.4-18.36-.78-1.78-4.48-16.03-5.16-18.06-.39-1.16-.07-1.71.9-2.25,1.78-.98,3.54-2.03,5.29-3.07,7.98-4.72,15.88-9.58,23.97-14.1,4.28-2.39,8.83-4.32,13.34-6.27,4.37-1.89,8.81-3.65,13.29-5.29,2.77-1.01,5.66-1.7,8.49-2.53-.21,1.74-.43,3.47-.62,5.21-.55,4.88-1.28,9.75-1.58,14.64-.29,4.8,1.85,7.43,6.5,8.61,1.41.36,2.87.6,4.32.67,4.15.2,8.3.35,12.45.41,7.01.11,14.02.15,21.03.22,1.51,3.89,4.05,7.06,7.19,9.7,3.53,2.96,8.02,3.29,12.32,3.75,7.7.83,15.08-.66,22.13-3.87.99-.45,2.08-.69,3.12-1.03.85.77,1.7,1.56,2.56,2.32,1.4,1.24,2.7,2.63,4.23,3.67,6.65,4.5,13.81,7.8,21.7,9.59,11.23,2.55,22.48,3.1,33.82,1.07,4.85-.87,8.46-3.31,11-7.81,5.82-10.31,8.65-21.49,10.24-33.02.98-7.12,1.29-14.34,1.9-21.52,1.83-1.09,3.62-2.26,5.51-3.25,1.31-.69,2.75-1.14,4.14-1.7.93.92,5.88,9,7.12,11.32,2.74,5.12,5.64,10.15,8.56,15.17,1.66,2.85,3.49,5.6,5.24,8.4,1.03,1.87,2.07,3.74,3.1,5.61.31.62.58,1.26.93,1.86.89,1.52,1.19,3.12.18,4.63-1.46,2.17-2.89,4.41-4.66,6.31-3.53,3.78-7.3,7.33-10.94,11.02-3.39,3.44-6.71,6.95-10.09,10.4-5.35,5.45-10.67,10.9-17.12,15.15-2.86,1.88-4.53,4.89-5.03,8.38-.61,4.2-1.19,8.4-1.78,12.6,0,.35-.02.7-.03,1.05-.12.94-.23,1.88-.35,2.82-.13.93-.27,1.86-.4,2.79-.12.94-.24,1.88-.36,2.81-.08.83-.17,1.66-.25,2.49-.13.44-.31.87-.38,1.32-.34,2.18-.63,4.37-.97,6.55-.61,3.91-1.23,7.81-1.86,11.72-.57,3.55-1.16,7.11-1.73,10.66,0,.24,0,.47,0,.71-.47,2.81-.94,5.63-1.41,8.44,0,.23-.01.47-.02.7-.28,1.48-.61,2.95-.84,4.44-.46,2.99-1.25,5.99-1.18,8.97.07,2.81-1.22,4.17-3.41,5.19-7.24,3.37-14.98,5.19-22.69,7.01-8.51,2-17.07,3.77-25.84,4.35-7.91.52-15.81,1.26-23.73,1.63-4.43.21-8.88-.1-13.32-.27-4.78-.18-9.57-.4-14.34-.7-6.75-.42-13.5-.95-20.25-1.38-.83-.05-7.12-.52-8.08-.7Z"/>
        <path class="cls-1" d="m222.71,312.22c-.03,1.5.13,3.03-.14,4.49-.65,3.51-1.68,6.95-2.23,10.47-2.95,19.01-4.7,38.16-5.62,57.37-.59,12.35-1.5,24.73-1.23,37.08.33,15.52,1.54,31.03,2.7,46.51.99,13.26,2.1,26.51,4.35,39.66,3.95,23.11,7.47,46.29,11.36,69.4,1.65,9.8,3.8,19.52,5.76,29.46,2.06-.42,3.75-.77,5.21-1.06-1-7.34-1.97-14.47-2.94-21.61-2.76-20.45-4.99-40.95-8.52-61.31-3.72-21.48-4.26-43.3-4.34-65.05-.08-20.39.67-40.79,1.19-61.19.42-16.54,1.81-33,5.02-49.27,1.88-9.54,3.63-19.1,7.04-28.25.47-1.26.89-2.55,1.51-3.73.69-1.32,1.5-1.32,2.68-.45,1.52,1.12,1.56,2.64,1.41,4.24-.38,4.08-.92,8.15-1.15,12.24-.27,4.74-.3,9.49-.38,14.23-.01.6.12,1.52.5,1.74,1.27.73,2.69,1.21,4.14,1.82.19-.96.3-1.65.46-2.33,1.75-7.58,3.48-15.17,5.3-22.73.41-1.69,1.07-3.35,1.81-4.94.61-1.3,1.72-2.16,3.28-1.69,1.63.5,2.06,1.85,1.87,3.36-.14,1.09-.54,2.15-.82,3.23-1.38,5.44-2.83,10.87-4.1,16.34-.91,3.93-1.58,7.92-2.33,11.88-.16.84-.31,1.71-.27,2.56.1,2.11.35,4.2.48,6.31.85,12.98,1.55,25.98,2.59,38.94.43,5.38,1.59,10.7,2.39,16.05.91,6.07,1.33,12.26,2.8,18.19,2.84,11.48,6.1,22.86,9.47,34.19,7.74,26.04,19.27,50.4,33.3,73.6,2.27,3.75,4.85,7.34,7.54,10.81,9.79,12.66,19.73,25.2,29.5,37.87,2.21,2.86,3.95,6.08,5.9,9.14.21.33.41.66.82,1.35,3.94-1.66,7.82-3.29,11.58-4.87-3.85-5.16-7.26-10.13-11.07-14.78-7.72-9.43-14.4-19.53-20.24-30.19-8.72-15.94-17.59-31.8-26-47.91-6.7-12.83-13.16-25.88-17.22-39.81-6.67-22.87-13.74-45.62-17.37-69.3-2.28-14.88-3.4-29.69-1.67-44.64.91-7.9,2.21-15.76,3.39-23.63.22-1.49.61-2.99,1.18-4.38.21-.52,1.22-1.08,1.77-.99.54.09,1.08.9,1.38,1.52.23.49.13,1.15.1,1.74-.41,7.02-.97,14.03-1.23,21.05-.34,9.13-1.19,18.33-.49,27.4.87,11.42,2.59,22.84,4.85,34.07,2.37,11.75,5.8,23.28,8.79,34.91,2.75,10.72,5.49,21.46,9.81,31.69,7.42,17.57,16.02,34.57,25.35,51.19,6.97,12.42,13.87,24.9,21.38,36.99,5.55,8.95,12.01,17.33,18.13,25.92,1.38,1.93,3.03,3.67,4.58,5.53.99-.74,1.81-1.36,2.55-1.92-2.13-2.7-4.41-5.17-6.22-7.94-4.02-6.19-7.98-12.44-11.63-18.85-7.37-12.93-15-25.74-21.64-39.05-7.37-14.78-13.78-30.05-20.54-45.13-4.91-10.97-9.59-22.01-12.68-33.68-5.6-21.2-8.28-42.79-8.36-64.68-.06-16.58.22-33.19,2.88-49.62.71-4.36,2.03-8.63,3.29-12.88.22-.75,1.48-1.19,2.26-1.78.27.81.82,1.65.75,2.43-.65,7.23-1.74,14.44-2.09,21.68-.86,17.92-1.21,35.83-.14,53.78.99,16.69,3.73,33.04,7.85,49.2,3.26,12.79,8.63,24.78,14.06,36.73,8.51,18.73,16.78,37.59,25.98,55.98,6.88,13.76,15,26.91,22.7,40.25,2.12,3.68,4.72,7.08,7.26,10.85,1.42-1.5,2.6-2.75,3.77-3.98-2.21-3.41-4.44-6.65-6.45-10.02-10.5-17.61-19.57-35.96-26.87-55.1-6.53-17.12-11.72-34.71-16.93-52.3-9.09-30.69-13.79-61.93-13.68-93.92.05-14.03,1.42-27.97,2.9-41.9.5-4.65,1.48-9.24,2.34-13.85.31-1.64.83-3.27,2.79-4.24.16.67.39,1.19.4,1.71.05,2.87.18,5.75.03,8.61-.64,12.06-1.61,24.1-2.03,36.16-.96,27.6,1.41,54.97,7.58,81.89,5.52,24.1,12.47,47.83,21.06,71.03,6.83,18.44,15.08,36.25,24.71,53.41,2.48,4.42,4.94,8.85,7.64,13.68,1.14-2.03,2.15-3.6,2.9-5.28.27-.6.14-1.59-.18-2.22-.79-1.56-1.86-2.98-2.69-4.53-2.43-4.54-4.83-9.1-7.18-13.68-1.57-3.06-3.06-6.17-4.57-9.27-.82-1.68-1.6-3.38-2.38-5.07-2.5-5.41-5.19-10.76-7.45-16.27-2.22-5.41-3.91-11.04-6.03-16.5-7.44-19.14-12.47-38.91-15.34-59.22-.99-7.01-1.4-14.11-1.85-21.18-.61-9.53-1.06-19.07-1.45-28.61-.17-4.15,0-8.32,0-12.48,0-5.57-.02-11.14.02-16.71.13-16.06.27-32.12.45-48.18.03-2.33.21-4.68.54-6.99.1-.7.96-1.29,1.47-1.93.41.62,1.08,1.21,1.18,1.88.68,4.4,1.54,8.8,1.76,13.23.55,11.3,1.06,22.61,1.1,33.91.08,21.74-.45,43.49,1.46,65.2.63,7.18.93,14.39,1.82,21.54.82,6.62,2.12,13.18,3.39,19.73.92,4.77,2.14,9.48,3.23,14.22.3-.47.39-.88.36-1.28-.03-.58-.14-1.16-.22-1.74-2.25-15.68-2.81-31.37-1.06-47.17,1.64-14.8,3.31-29.61,4.19-44.47,1.35-22.77.15-45.47-3.46-68.03-.66-4.1-1.15-8.24-1.62-12.37-.07-.62.44-1.31.68-1.96.76.34,1.72.5,2.23,1.06.66.72,1.06,1.74,1.4,2.69.97,2.7,1.85,5.43,2.77,8.15.01.12.02.24.03.35,1.15,5.98,2.3,11.96,3.45,17.94.03.23.06.47.09.7.07.58.15,1.17.22,1.75.03.22.06.45.09.67.34,2.95.69,5.89,1.03,8.84l.04,1.06c.1,1.17.2,2.35.3,3.52.01.47.03.94.04,1.41.1,2.11.21,4.22.31,6.33,0,.36-.01.73-.02,1.09.01.56.03,1.12.04,1.69.02.6.05,1.2.07,1.8,0,6.92,0,13.84,0,20.76-.02.25-.04.49-.06.74-.02.45-.04.9-.07,1.35-.09,1.66-.18,3.32-.28,4.98-.02.33-.04.67-.07,1-.07,1.06-.14,2.13-.2,3.19-.05.7-.1,1.41-.15,2.11-.07.7-.14,1.41-.2,2.11-.03.25-.06.49-.09.74-.02.21-.03.43-.05.64,0,.24,0,.49,0,.73-.06.61-.13,1.22-.19,1.83-.07.06-.09.14-.06.23-.03.36-.06.72-.1,1.09-.1.96-.19,1.92-.29,2.88-.03.34-.06.68-.09,1.03-.09.83-.17,1.66-.26,2.49-.02.23-.04.45-.06.68-.09.83-.18,1.65-.28,2.48-.02.22-.04.43-.07.65-.1.84-.2,1.68-.29,2.52-.03.32-.07.65-.1.97-.06.6-.13,1.21-.19,1.81-.04.35-.07.7-.11,1.05-.31,2.05-.7,4.08-.92,6.14-.53,4.87-.99,9.75-1.48,14.63-.02.47-.04.94-.05,1.41-.07,1.17-.13,2.35-.2,3.52-.04.95-.07,1.9-.11,2.85,0,.56,0,1.12,0,1.68.04,1.3.08,2.61.13,3.91.07,2.11.14,4.22.21,6.33.02.59.03,1.17.05,1.76.27,2.63.52,5.27.82,7.89.12,1.01.38,2.01.57,3.01,0,.23-.01.47-.02.7.48,2.7.95,5.39,1.43,8.09,0,.23,0,.47,0,.7.27,1.88.53,3.76.8,5.64.08.22.15.44.23.65.35,1.89.7,3.78,1.06,5.67.13.7.27,1.41.4,2.11,1.67,6.71,3.02,13.52,5.09,20.1,2.16,6.85,5.03,13.47,7.56,20.2,1.6,4.25,3.11,8.48,5.74,12.3,1.76,2.55,2.75,5.63,4.1,8.46,1.68,3.5,3.58,6.9,5,10.5,1.08,2.74,2.02,5.69.4,8.69-.19.34.21,1.29.62,1.62,2.01,1.64,4,3.22,5.32,5.57.85,1.51,2.24,2.73,3.38,4.07.1.14.21.27.31.41,1.44,2.89,2.87,5.79,4.31,8.68.22.59.44,1.17.66,1.76.21,1.05.43,2.1.64,3.16.03.23.05.45.08.68.02,1.34-.05,2.7.09,4.03.37,3.58-.5,6.83-2.39,9.85-.52.82-.82,1.78-1.27,2.65-1.39,2.65-2.53,5.5-4.29,7.89-2.47,3.35-5.33,6.43-8.17,9.48-1.27,1.37-2.81,2.57-4.41,3.53-2.36,1.4-4.9,2.51-7.36,3.75l-.72.33c-2.19.62-4.39,1.23-6.58,1.89-.3.09-.53.42-.79.64-.12,0-.24.01-.36.02-.36.07-.73.13-1.09.2-.34.05-.68.11-1.01.16-2.54.41-5.07.81-7.61,1.24-.18.03-.32.3-.49.47-.59.02-1.17.03-1.76.05-1.61-.07-3.27-.42-4.63.86-.33.06-.67.12-1,.19-.71.07-1.43.15-2.14.22-1.28.04-2.56.09-3.84.13-1.52-.12-3.05-.25-4.57-.37-.69-.15-1.39-.3-2.08-.45-3.61-2.11-3.73-5.13-.73-7.53,3.53-2.83,6.98-5.78,10.28-8.88,4.08-3.82,8.07-7.76,11.94-11.8,4.59-4.8,8.55-10.05,10.38-16.61-1.2-.92-2.52-1.78-3.65-2.86-.87-.83-1.64-.8-2.58-.33-2.16,1.07-4.37,2.05-6.46,3.24-2.52,1.44-5.09,1.2-7.66.45-2.19-.64-2.91-2.27-2.15-4.52-.86-.49-1.75-.99-2.63-1.5v.02c-7.45-6.17-14.26-12.99-20.14-20.71-.35-.43-.7-.86-1.05-1.29-4.18-5.41-8.34-10.84-12.55-16.23-2.54-3.25-5.18-6.41-7.78-9.62l.02.02c-.07-.22-.09-.46-.21-.66-3.44-5.83-7.02-11.59-10.3-17.51-3.15-5.67-5.99-11.52-8.97-17.28-.22-.47-.44-.95-.66-1.42-.73-1.53-1.47-3.05-2.2-4.58l-.23-.35c-.24-.62-.46-1.25-.73-1.87-1.61-3.73-3.22-7.46-4.84-11.19-.15-.34-.31-.67-.46-1.01-.74-1.84-1.47-3.69-2.21-5.53-.06-.17-.12-.33-.18-.5-.54-1.79-1.02-3.6-1.62-5.36-1.52-4.48-3.13-8.94-4.61-13.43-.86-2.6-1.54-5.26-2.29-7.89-.12-.47-.24-.94-.36-1.41-1.55-5.99-3.11-11.97-4.66-17.96-.11-.45-.23-.91-.34-1.36-.08.01-.17.03-.25.04v1.29l-.64,7.78c-.02.7-.03,1.41-.05,2.11-.1.94-.2,1.88-.3,2.81-.01.59-.03,1.17-.04,1.76-.1,1.17-.21,2.35-.31,3.52-.02.7-.03,1.41-.05,2.11-.1,1.52-.21,3.05-.31,4.57-.01.82-.03,1.64-.04,2.46-.11,1.88-.21,3.75-.32,5.63,0,.47-.02.94-.03,1.41-.34,5.51-.69,11.02-1.03,16.53,0,.35-.01.7-.02,1.06-.09,3.17-.17,6.33-.26,9.5-.04,2.12-.07,4.25-.11,6.37-.01.91-.02,1.83-.03,2.74,0,.36.02.72.03,1.09-.06,3.32-.18,6.65-.18,9.97.02,8.05.1,16.1.16,24.15.01.7.03,1.41.04,2.11.1,1.65.19,3.3.29,4.95.02.33.04.66.06.99.1,1.55.21,3.1.31,4.65.01.21.03.42.04.63.34,4.12.67,8.24,1.01,12.36l.13,1.13c.53,4.07,1.05,8.15,1.58,12.22.03.34.06.68.09,1.02.21,2,.41,4.01.62,6.01.03.22.06.45.1.67.08.6.17,1.2.25,1.79.03.23.05.45.08.68.05,1.4.17,2.81.12,4.21-.06,1.57-.62,2.76-2.18,3.66-1,.58-2.14,1.56-1.65,3.39.76,2.89,1.13,5.88,1.66,8.83.11.47.22.94.33,1.41,0,.41-.08.83,0,1.22.98,4.5,2.03,8.99,2.97,13.49.47,2.26,1.06,4.62-.79,6.58-2.28,2.42-4.56,4.86-7.01,7.11-1.75,1.61-3.79,2.92-5.7,4.36-.11.01-.21.03-.32.04-4.83,3.48-10.06,6.09-15.93,7.31-1.2.25-2.36.67-3.54,1.02-.46.15-.93.29-1.39.44-3.64.46-7.27.92-10.91,1.38-.23,0-.47.01-.7.02-1.34-.03-2.68-.11-4.01-.08-1.91.05-3.82.37-5.72.26-3.53-.2-7.09-.38-10.55-1.01-2.75-.5-5.59-1.3-8.02-2.64-2.93-1.61-2.57-4.74.4-6.4.33-.19.63-.44.96-.62,4.8-2.61,9.71-5.03,14.37-7.87,3.29-2.01,6.26-4.57,9.34-6.92,3.57-2.73,7.27-5.33,10.62-8.32,3.04-2.71,4.98-6.2,5.24-10.42,0-.12.01-.24.02-.35.1-.47.21-.94.31-1.41,0-1.99,0-3.99,0-5.98.08-.51.15-1.02.23-1.53-.27-.14-.47-.26-.68-.34-.26-.11-.53-.19-.79-.28-4.43-1.49-7.99-4-9.93-8.45-1.97-4.52-4.36-8.89-5.94-13.54-4.19-12.36-8.16-24.8-11.96-37.29-1.92-6.31-3.26-12.79-4.87-19.19-.05-.33-.1-.67-.15-1-.1-.37-.21-.74-.3-1.11-1.5-6.33-3-12.66-4.51-18.98-.05-.22-.1-.44-.15-.66-1-4.47-2-8.95-3-13.42-.17-.8-.35-1.61-.52-2.41-.5-2.64-.98-5.29-1.5-7.92-.29-1.47-.62-2.93-.93-4.39l-.04-.7c.03-.11.1-.23.09-.34-.69-4.74-1.36-9.48-2.09-14.21-.18-1.14-.51-2.26-.78-3.4-.02-.47-.03-.94-.05-1.41-.06-.48-.13-.97-.19-1.45-.36-4.28-.64-8.56-1.1-12.82-.51-4.8-1.27-9.58-1.73-14.38-.28-2.92-.2-5.88-.31-8.82-.14-3.47-.31-6.94-.47-10.42-.01-.32-.03-.65-.04-.97,0-9.06,0-18.12,0-27.18.01-.32.02-.65.04-.97,0-2.39-.13-4.8.02-7.18.29-4.41.73-8.81,1.13-13.21.31-3.35.55-6.7,1-10.03.49-3.58,1.13-7.14,1.8-10.69.76-4.02,1.41-8.08,2.48-12.02,2.03-7.46,4.32-14.84,8.25-21.6.6-1.03,1.42-1.16,2.14-.84.41.18.75,1.3.6,1.87-1.4,5.56-3.27,11.02-4.31,16.64-1.82,9.84-3.33,19.75-4.64,29.67-2.57,19.54-2.32,39.21-1.57,58.83,1.2,30.98,4.81,61.69,12.27,91.86,4.13,16.71,8.1,33.46,12.55,50.09,3.95,14.77,9.55,29.01,14.89,43.33.86,2.3.85,2.3,4.2,2.6-.36-.99-.63-1.91-1.01-2.79-4.51-10.22-7.67-20.87-10.23-31.71-3.61-15.28-7.39-30.53-10.86-45.84-2.05-9.09-3.51-18.3-5.45-27.42-3.65-17.14-5.06-34.54-6.54-51.96-1.62-18.97-1.94-37.93-1.3-56.93.52-15.63,2.86-31.03,5.87-46.34,1.38-7,2.79-14,4.41-20.95.63-2.71,1.81-5.31,2.85-7.92.22-.55.89-.93,1.35-1.39.43.56,1.21,1.12,1.21,1.68-.01,2.09-.17,4.2-.48,6.27-1.62,10.77-3.19,21.55-4.98,32.29-4.18,25.06-4.65,50.32-3.48,75.58.94,20.42,2.11,40.87,5.85,61.05,3.8,20.53,8.69,40.8,14.29,60.91,1.27,4.57,2.22,9.24,3.03,13.91,1.74,10.07,4.29,19.93,7.43,29.65.21.65.43,1.3.64,1.95.72,1.94,1.45,3.88,2.17,5.82.12-.04.25-.09.37-.13-.62-1.92-1.23-3.84-1.85-5.76-1-5.56-2.08-11.1-2.98-16.68-3.34-20.53-6.23-41.15-10.02-61.6-5.7-30.77-8.25-61.84-8.96-93.01-.54-23.59.96-47.22,3.99-70.69,1.25-9.64,2.2-19.34,5.06-28.68,1.14-3.71,6.07-11.55,6.95-10.78Zm8.78,291.01v-.81l-.24.03c.09.25.17.5.26.75.21.72.43,1.44.64,2.15.12-.05.24-.1.36-.15-.34-.66-.69-1.31-1.03-1.97Zm20.86.55c-2.1-5.77-2.26-11.76-2.78-17.69-1-11.38-2.62-22.74-2.96-34.14-.72-24.68-.38-49.37,1.89-73.98,1.35-14.59,3-29.15,4.52-43.72.28-2.66.99-5.33.88-7.97-.16-3.61-.98-7.19-1.42-10.8-2.1-16.89-3.63-33.81-2.9-50.86.13-3.03.02-6.07.02-8.82-3.28-1.56-6.62-3.15-10.19-4.84-.84,7.43-2.01,14.97-2.48,22.56-.8,13.1-1.19,26.23-1.7,39.35-.75,19.45-1.1,38.9-.61,58.38.45,17.66,1.26,35.3,3.95,52.75,2.79,18.09,4.58,36.28,6.38,54.48.86,8.68,2.03,17.32,3.07,26.03,1.53-.25,2.84-.47,4.31-.72Zm-3.53,7.54c-5.29.55-10.42,2.86-15.84.9.33,3.08.62,5.91.92,8.73,3.95.91,10.61-.08,15.7-2.3-.26-2.4-.51-4.78-.78-7.32Zm126.4-9.17c1.32-1.18,2.88-2.34,4.16-3.76,2.03-2.24,3.91-4.62,5.77-6.99.28-.36.38-1.15.18-1.54-.69-1.37-1.54-2.67-2.44-4.17-3.18,5.64-8.33,9.05-13.07,12.87,1.82,1.21,3.54,2.36,5.41,3.59Zm10.87,6.69c0-.24.02-.47.03-.71-.89-.49-1.74-1.27-2.69-1.42-3.63-.59-7.28-1.06-10.94-1.42-1.25-.12-2.56.27-2.73,1.86-.18,1.71,1.11,2.33,2.43,2.39,3.79.19,7.59.25,11.39.22.84,0,1.68-.6,2.52-.92Zm-157.43,32.61c-.65-2.94-6.08-8.13-8.87-8.4-.73-.07-1.97.31-2.19.82-.28.67-.09,2.1.43,2.46,2.6,1.84,5.32,3.5,8.1,5.06.64.36,1.66.05,2.54.05Zm151.95-23.94c.11-.21.23-.41.34-.62-.67-.54-1.27-1.33-2.03-1.57-3.1-.96-6.26-1.77-9.41-2.58-.48-.12-1.12-.07-1.54.17-.6.33-1.43.88-1.48,1.4-.05.54.59,1.5,1.13,1.69,4.21,1.48,8.52,2.29,12.99,1.52Zm-143.56,16.58c-.53-.86-.72-1.34-1.06-1.68-2.62-2.63-5.93-4.11-9.34-5.37-.26-.1-.58-.1-.87-.08-1.33.07-2.01,1.21-1.3,2.34.39.61.99,1.25,1.64,1.52,2.59,1.07,5.21,2.05,7.86,2.95.81.28,1.74.2,3.07.33Zm135.33-6.8c-1.4-3.09-3.62-4.73-6.2-5.88-.64-.28-1.58.12-2.38.21.18.84.07,2.1.58,2.44,1.81,1.2,3.81,2.14,5.79,3.06.53.25,1.25.11,2.21.17Zm-153.63,17.44c-.95-2.42-1.87-4.34-3.95-5.27-.57-.25-1.68-.03-2.13.4-.35.34-.36,1.56-.02,2,1.4,1.86,3.49,2.43,6.1,2.86Zm11.97-44.63s-.06,0-.1,0v.45s.06,0,.1,0v-.45Zm.26,1.5s.05,0,.08,0v-.45s-.05,0-.08,0v.45Z"/>
        <path class="cls-1" d="m387.08,123.78c-.41-.43-.81-.87-1.22-1.29-.92-.92-1.86-1.84-2.79-2.75,5.2-4.39,10.17-9.01,14.42-14.37,3.44-4.34,4.99-9.25,4.38-14.77-.73-6.64-4.76-11.53-9.12-16.05-5.54-5.73-12.26-9.95-19.24-13.74-.63-.34-1.29-.63-2.09-1.02.58,6.21,1.27,12.09,1.64,17.98.32,5.08.26,10.19.41,15.28.13,4.27.47,8.55.45,12.82-.04,6.27-.32,12.53-.5,18.8-.61,7.18-.91,14.39-1.9,21.52-1.59,11.53-4.42,22.72-10.24,33.02-2.54,4.5-6.15,6.95-11,7.81-11.34,2.03-22.59,1.47-33.82-1.07-7.89-1.79-15.06-5.09-21.7-9.59-1.53-1.04-2.83-2.43-4.23-3.67-.86-.76-1.71-1.55-2.56-2.32-.44-.54-.86-1.1-1.32-1.62-3.49-4.02-3.47-5.61-.08-9.71,3.88-4.69,8.03-9.2,11.46-14.21,5.15-7.53,9.9-15.34,14.54-23.19,2.28-3.85,3.94-8.05,5.88-12.1.07-.05.14-.1.21-.15-.05-.02-.1-.04-.14-.05l-.03.23c-3.25,1.77-6.54,3.49-9.75,5.32-6.69,3.82-13.03,8.15-20.52,10.59-7.96,2.59-15.74,3.93-24.01,1.03-.21,1.59-.4,3.08-.61,4.56-.88,6.23-2.35,12.29-5.35,17.88-1.24,2.32-2.35,4.72-3.79,6.92-1.23,1.88-2.68,3.67-4.32,5.2-1.36,1.27-3.16,1.68-5.07.81-.53-.24-1.24-.06-1.87-.07-7.01-.07-14.02-.1-21.03-.22-4.15-.07-8.31-.21-12.45-.41-1.45-.07-2.91-.32-4.32-.67-4.65-1.18-6.8-3.81-6.5-8.61.3-4.89,1.03-9.76,1.58-14.64.2-1.74.41-3.47.62-5.21.04-.25.09-.49.13-.74.19-.92.38-1.85.56-2.77.05-.25.11-.5.16-.74.07-.34.13-.67.2-1.01.05-.25.11-.5.16-.75.07-.34.13-.67.2-1.01l.16-.74c.03-.21.07-.43.1-.64.55-1.55,1.1-3.09,1.64-4.64.74-2.44,1.48-4.87,2.22-7.31.04-.4,0-.83.12-1.2,1.11-3.41,2.31-6.8,3.37-10.22,2.05-6.59,4.48-13,7.62-19.18,3.03-5.96,5.53-12.19,8.27-18.3.12-.23.24-.47.36-.7.11-.12.25-.22.32-.36,2.12-4.1,4.17-8.24,6.38-12.3,1.31-2.42,2.86-4.71,4.31-7.06.09-.03.15-.09.18-.18,1.78-2.63,3.56-5.27,5.34-7.9.11-.12.22-.24.33-.36,1.76-2.11,3.51-4.23,5.27-6.34.33-.35.65-.69.98-1.04,3.97-3.78,7.88-7.62,11.93-11.3,2.06-1.88,4.18-3.84,6.61-5.13,4.29-2.27,8.84-4.06,13.28-6.05.31-.15.61-.31.92-.46,1.29-.39,2.58-.79,3.87-1.18.57-.19,1.14-.37,1.71-.56.24-.07.49-.14.73-.22.58-.16,1.15-.32,1.73-.48.25-.05.5-.1.74-.15.33-.08.67-.16,1.01-.24,2.13-.26,4.26-.52,6.39-.77,3.05.02,6.1.03,9.14.05.25.02.5.04.75.06.21.01.41.02.62.03,1.2.11,2.4.21,3.6.32.22.03.45.05.67.08.48.08.96.16,1.44.24.45.07.91.15,1.36.22.25.04.5.08.75.13.45.08.91.16,1.36.24.25.05.5.09.74.14,1.16.27,2.32.53,3.49.8.25.07.5.14.74.21.22.05.44.1.67.14.25.08.49.16.74.24.22.1.43.19.65.29.47.15.95.29,1.42.44.59.23,1.17.46,1.76.69,4.26,1.81,8.67,3.35,12.73,5.54,2.09,1.12,3.96,1.87,6.26,1.56.35,0,.7,0,1.06,0,1.39.28,2.78.56,4.17.84.24.1.48.2.72.3.36.1.71.2,1.07.3.36.22.71.44,1.07.66.54.28,1.09.56,1.63.84,1.45.23,2.9.45,4.35.68.36.07.73.14,1.09.21.22.05.45.09.67.14,5.6,2.11,10.54,5.27,14.48,9.75,3.35,3.82,6.03,8.23,10.26,11.24,3.22,2.29,6.45,4.56,9.68,6.84.35.24.71.47,1.06.71,1.02.58,2.06,1.13,3.06,1.73,3.33,1.98,6.64,3.97,9.97,5.96.25.2.49.4.74.6,2.51,2.12,5.04,4.22,7.52,6.37,1.44,1.25,2.85,2.54,4.23,3.86,1.07,1.02,2.16,2.03,3.08,3.18,1.24,1.55,2.33,3.24,3.48,4.86l.56,1.13c.35.5.82.95,1.05,1.5,2.33,5.81,4.63,11.65,6.93,17.47.22.68.44,1.36.66,2.04.06.25.12.5.18.75.05.22.1.44.14.67.07.36.15.73.22,1.09.04.22.08.45.12.67.08.48.17.96.25,1.44.03.22.05.45.08.67.12,1.89.25,3.78.37,5.67,0,1.29,0,2.58.01,3.87-.24,1.66-.48,3.31-.72,4.97-.56,1.62-1.12,3.25-1.68,4.87-.87,1.76-1.62,3.59-2.62,5.26-2.54,4.22-5.09,8.45-7.83,12.54-1.92,2.85-4.17,5.47-6.27,8.2-.19.24-.38.49-.57.73-.17.22-.33.44-.5.66-.2.25-.39.5-.59.75-1.79,2.11-3.58,4.21-5.37,6.32-.21.23-.42.47-.63.7-.1.14-.2.27-.31.41-1.32,1.4-2.64,2.81-3.96,4.21-.47.45-.93.89-1.4,1.34-.58.61-1.17,1.22-1.75,1.84-1.03-1.87-2.07-3.74-3.1-5.61,1.46-1.43,2.98-2.81,4.38-4.3,7.53-8.01,13.97-16.87,20.35-25.79,6.57-9.19,9.55-19.12,6.52-30.35-2.95-10.9-7.76-20.78-15.47-29.21-3.12-3.41-6.48-6.37-10.43-8.77-6.15-3.74-12.21-7.63-18.32-11.44-4.68-2.92-8.43-6.83-12.02-10.97-3.03-3.49-6.24-6.82-9.47-10.11-.81-.83-2.03-1.26-3.07-1.88,1.47,3.09,4.35,5.1,5.09,8.55-1.09-.36-2.08-.82-2.94-1.44-3.41-2.48-6.79-5-10.17-7.52-2.77-2.06-5.68-3.83-9.19-4.91,4.86,9.87,13.14,17.43,16.8,28.2-.99-.32-1.58-.53-2.18-.69-4.18-1.13-8.33-2.35-12.55-3.3-1.35-.3-2.97-.18-4.27.3-1.92.7-2,2.69-.31,3.82.72.48,1.53.87,2.35,1.17,7.24,2.69,14.55,5.2,21.73,8.05,12.75,5.07,23.91,12.39,31.92,23.82,5.55,7.91,6.72,16.44,2.55,25.27-4.05,8.59-11.09,14.69-18.22,20.66Zm-137.09-44.61c-.2,1.38-.5,2.75-.58,4.13-.53,9.7.18,19.15,4.82,28.02,2.28,4.36,4.92,7.96,10.02,9.02.39.08.76.3,1.14.46,4.04,1.75,8.31,2.2,12.57,1.5,9.87-1.62,18.66-5.94,27.04-11.24,5.29-3.35,10.65-6.59,16.06-9.75,1.15-.67,1.85-1.43,2.35-2.62,2.76-6.59,3.98-13.58,5.58-20.48,1.55-6.66,2.68-13.43,1.39-20.2-.9-4.74-2.48-9.4-4.28-13.89-1.33-3.32-3.5-6.3-5.31-9.43-.32-.55-.7-1.05-1.05-1.57-.24,2.75-.22,5.12-.25,7.5-.03,2.82-.92,4.39-2.67,4.82-1.76.43-3.24-.5-4.66-2.95-.51-.87-.97-1.77-1.53-2.82-1,2.69-2.27,3.83-3.95,3.15-1.25-.5-2.3-1.65-3.29-2.65-.55-.56-.79-1.43-1.28-2.39-.14.6-.21.88-.28,1.16-.36,1.44-.95,2.73-2.61,2.95-1.72.22-2.79-.85-3.41-2.25-.68-1.54-1.34-3.15-1.63-4.79-.47-2.62-.62-5.29-.92-8.06-1.75.55-3.4,1.11-5.08,1.58-6.94,1.97-12.81,5.94-18.62,10-.56.39-.99.98-1.48,1.48-.62.09-1.24.22-1.87.25-10.32.59-18.72,4.45-23.75,13.99-2.82,5.35-3.33,15.54,2.61,21.15,1.52,1.43,3.27,2.63,4.91,3.93Z"/>
        <path class="cls-1" d="m386.09,608.84c-.84.32-1.67.91-2.52.92-3.79.03-7.59-.03-11.39-.22-1.33-.06-2.61-.68-2.43-2.39.17-1.59,1.48-1.99,2.73-1.86,3.66.36,7.31.83,10.94,1.42.95.16,1.8.93,2.69,1.42,0,.24-.02.47-.03.71Z"/>
        <path class="cls-1" d="m228.66,641.45c-.88,0-1.9.31-2.54-.05-2.78-1.56-5.5-3.22-8.1-5.06-.51-.36-.71-1.79-.43-2.46.22-.51,1.46-.9,2.19-.82,2.79.27,8.22,5.47,8.87,8.4Z"/>
        <path class="cls-1" d="m380.61,617.51c-4.46.78-8.78-.03-12.99-1.52-.54-.19-1.18-1.15-1.13-1.69.05-.52.88-1.06,1.48-1.4.42-.23,1.06-.29,1.54-.17,3.15.81,6.3,1.62,9.41,2.58.77.24,1.36,1.03,2.03,1.57-.11.21-.23.41-.34.62Z"/>
        <path class="cls-1" d="m237.05,634.09c-1.33-.13-2.26-.05-3.07-.33-2.65-.9-5.28-1.88-7.86-2.95-.65-.27-1.25-.9-1.64-1.52-.71-1.13-.03-2.27,1.3-2.34.29-.02.61-.02.87.08,3.42,1.26,6.72,2.74,9.34,5.37.34.34.53.82,1.06,1.68Z"/>
        <path class="cls-1" d="m372.39,627.29c-.96-.06-1.68.08-2.21-.17-1.98-.93-3.98-1.86-5.79-3.06-.51-.34-.41-1.6-.58-2.44.8-.09,1.74-.49,2.38-.21,2.58,1.15,4.8,2.8,6.2,5.88Z"/>
        <path class="cls-1" d="m218.76,644.73c-2.61-.44-4.7-1.01-6.1-2.86-.34-.45-.33-1.67.02-2,.45-.43,1.56-.66,2.13-.4,2.09.93,3.01,2.85,3.95,5.27Z"/>
        <path class="cls-1" d="m268.08,39.83c1.19.43,2.36.95,3.58,1.29,5.29,1.45,7.39,5.48,8.44,10.36.35,1.64.62,3.31.95,5.12,4.1-2.08,8.17-2.67,11.74,1.34.79-.94,1.36-1.85,2.14-2.51,1.63-1.38,3.35-2.65,5.07-3.91,1.31-.96,2.62-1.95,4.03-2.75,3.23-1.82,6.6-1.85,10.16-.89,4.53,1.22,8.45,3.41,11.69,6.71,3.22,3.28,4.25,7.28,3.66,11.91-.67,5.23-2.53,9.98-5.37,14.28-3.88,5.87-9.31,9.6-16.53,10.15-5.51.42-10.31-1.29-13.79-5.67-4.11-5.17-5.23-11.23-4.35-17.68.2-1.49.7-2.94,1.07-4.4.33-1.29-1.51-3.3-3.37-3.55-2.54-.34-4.88.71-6.67,2.16-1.12.91-1.29,3.03-1.79,4.64-2.96,9.49-13.13,16.04-22.92,14.56-1.99-.3-3.9-1.2-5.84-1.83-1.64-1.3-3.39-2.5-4.91-3.93-5.94-5.61-5.44-15.8-2.61-21.15,5.04-9.54,13.43-13.41,23.75-13.99.62-.04,1.24-.17,1.87-.25Zm26.98,31.43c.19,1.68.2,3.4.59,5.03,1.55,6.54,5.13,10.04,11.91,9.63,4-.24,7.34-2.36,10.16-5.06,3.82-3.65,5.68-8.37,6.32-13.53.45-3.69-.07-7.24-3.24-9.69-1.84-1.42-3.88-2.62-5.96-3.67-5.94-2.98-11.85-.35-14.75,3.18-3.31,4.04-5.08,8.77-5.03,14.12Zm-48.39-8.5c.01,7.29,5.85,13.21,12.7,12.61,5.41-.47,9.96-2.7,13.06-7.43,3.53-5.39,4.72-11.1,2.62-17.32-.75-2.23-1.84-3.96-4.39-4.75-4-1.23-7.75-.58-11.5.72-7.84,2.7-12.5,8.78-12.49,16.17Z"/>
        <path class="cls-1" d="m272,94.86c3.74,2.58,7.91,2.31,12.1,1.59.63,2.78-.58,5.27-3.13,6.64-2.48,1.33-5.44.97-7.13-.87-2.16-2.35-3.02-5.51-1.85-7.36Z"/>
        <path class="cls-1" d="m276.95,82.62c1.11.34,2.13.5,2.95.97.57.33,1.17,1.09,1.21,1.69.03.44-.78,1.28-1.3,1.35-1.65.25-3.39.51-5,.23-2.27-.39-3.42-2.59-2.22-4.56,1.6-2.61,3.7-4.92,5.68-7.28.26-.3,1.1-.33,1.56-.16.22.08.34.99.18,1.4-.55,1.41-1.24,2.77-1.9,4.14-.35.72-.74,1.42-1.16,2.21Z"/>
        <path class="cls-1" d="m301.51,70.82c.23-.9.31-1.89.74-2.67.31-.56,1.13-1.23,1.66-1.18.51.05,1.1.89,1.37,1.5.28.61.24,1.38.29,2.08.09,1.4.87,1.73,2.03,1.24,1.13-.47,2.2-1.07,3.29-1.63.62-.32,1.21-.85,1.86-.94.6-.08,1.51.1,1.84.51.33.42.36,1.37.11,1.91-1.2,2.66-7.25,5.05-9.99,4.05-1.99-.73-3.1-2.48-3.21-4.87Z"/>
        <path class="cls-1" d="m262.25,66.72c-2.91.01-4.44-.79-5.39-2.57-.99-1.87-.97-3.77.22-5.49.42-.62,1.39-.86,2.11-1.27.36.66.94,1.29,1.03,1.98.42,3.15.39,3.16,3.34,1.76.74-.35,1.5-.86,2.26-.89.83-.03,2.07.17,2.41.72.35.57.11,1.9-.37,2.5-1.65,2.03-3.84,3.21-5.61,3.25Z"/>
      </g>
    </g>
  </g>
</svg>