<?xml version="1.0" encoding="UTF-8"?>
<svg id="Livello_2" data-name="Livello 2" xmlns="http://www.w3.org/2000/svg" viewBox="0 0 985.21 1412.53">
  <defs>
    <style>
      .cls-1 {
        fill: #b9eddf;
      }

      .cls-1, .cls-2 {
        stroke-width: 0px;
      }

      .cls-2 {
        fill: #9e8d8d;
      }
    </style>
  </defs>
  <g id="Livello_3" data-name="Livello 3">
    <g>
      <path class="cls-1" d="m4.62,252.26c3.95,92.96-2.58,184.71-.85,278.02,1.77,95.67,5.53,190.45,7.29,285.62.95,51.23-2.15,102.08-5.17,152.83-2.86,48.11,1.23,96.52.67,144.05-1.11,94.13-4.58,188.42-2.81,282.12,3.65.29,7.31.61,10.96.85,8.43.55,16.9.3,25.34.55,19.53.58,39.03,2.04,58.44,4.19,19.6,2.17,39.05,5.51,58.76,6.61,19.01,1.06,38.08.68,57.08-.56,19.37-1.26,38.58-3.72,57.87-5.73,19.35-2.01,38.82-3.02,58.25-3.54,39.3-1.05,78.61.22,117.88,1.56,39.39,1.34,78.8,2.75,118.21,2,38.98-.74,77.6-4.76,116.34-8.8,59.41-6.19,120-12.6,179.62-6.02-.67-3.11-1.12-6.17-1.03-9.08.71-22.74,5.98-14.11,22.24-22.76,11.76-6.26,11.54,0,15.23-17.18,2.71-12.62-1.53-30.36-2.95-42.67-8.25-71.66-14.97-142.89-17.93-215.2-1.84-44.97.06-89.6,1.07-134.47.93-41.37-6.98-80.43-9.85-121.2-2.9-41.26,1.07-82.5-.17-123.68-1.64-54.38-7.58-106.8-3.46-161.34,6.73-89.1,2.21-179.92-6.68-268.95-3.98-39.88-4.1-80.61-8.62-119.97-2.22-19.32,5.15-63.57-10.85-77.72-13.92-12.3-39.82-2.34-55.74-2.79-25.74-.74-52.97-7.55-78.27-10.95-31.36-4.23-60.66-17.06-91.96-18.94-31.54-1.9-67.15,3.66-97.45,10.24-96.71,20.99-188.81,12.33-286.85,11.24-44.91-.5-92.96,3.42-137.44,8.21-14.33,1.54-67.57,13.82-64.81-12.65l18-.33c-11.91-3.65-36.23-4.72-41.84,4.88-1.09,1.87.15,23.53-.54,27.83C.85,99.55-.3,107.12.07,117.56c1.59,44.62,2.65,90.01,4.55,134.71Z"/>
      <g>
        <path class="cls-2" d="m37.43,892.04c.15.13.31.22.51.27.38.09.81.07,1.16-.15.32-.21.6-.51.69-.9.02-.1.06-.21.1-.31.03-.06.07-.13.11-.19.02-.02.04-.04.06-.06.03-.02.06-.03.09-.05.12-.04.23-.08.35-.1.2-.05.37-.14.51-.27.16-.11.29-.25.39-.42.11-.17.17-.36.18-.56.04-.2.04-.4-.03-.6-.12-.36-.34-.71-.69-.9-.12-.05-.24-.1-.36-.15-.27-.07-.53-.07-.8,0-.35.06-.68.19-1,.35-.09.05-.19.1-.27.16-.18.13-.37.27-.53.43-.5.5-.84,1.17-1,1.86-.09.39-.05.81.15,1.16.09.17.22.32.39.42Z"/>
        <path class="cls-2" d="m946.48,1347.67c-7.82-2.13-16.05-2.1-24.08-1.35-.06-1.52-.14-3.05-.22-4.57.45-10.39.71-20.78.44-31.18-.2-7.53-.96-15.03-1.74-22.52.13-11.44.76-22.87.84-34.31.08-10.37,2.4-21.51-.97-31.58-.53-1.59-2.9-1.34-2.95.4-.27,10.66-.33,21.33-.41,31.99-.05,0-.11.02-.16.03.02-3.91.05-7.82.07-11.74.08-20.02-.23-39.98-1.03-59.98.15-2.24.3-4.47.45-6.71.34,4.33.69,8.66,1.11,12.98.39,4.08,1.16,8.27,1.82,12.48.26,5.11.59,10.21,1.04,15.31.17,1.92,2.84,1.94,3,0,.37-4.47-.22-9-.95-13.5-1.18-21.95-.76-43.96-.98-65.94-.14-13.36-.65-26.72-1.32-40.06-.02-.41-.05-.83-.07-1.24,0-.7.02-1.4.02-2.1.08-15.76-.3-31.53-1.26-47.26.21-7.95.09-15.91-1.89-23.61-.14-.55-.56-.88-1.04-1,.18-9.91.24-19.81.2-29.72.4,3.72.84,7.43,1.35,11.13.99,7.05,2.12,14.08,3,21.14-.02,10.75-.1,21.5-.32,32.24-.04,1.72,2.46,2,2.95.4,2.06-6.75,1.94-14.06,1.5-21.03-.25-3.91-.65-7.81-1.13-11.7.03-20.3-.18-40.6-.25-60.9-.1-28.37-.08-56.75-.03-85.12.73-5.21,1.49-10.42,2.29-15.61,1.26-8.27,2.46-16.61,2.61-24.98.1-5.54.3-13.6-4.25-17.66-.72-.65-1.95-.52-2.39.36.02-7.2.09-14.4.15-21.6.52-.3.87-.87.67-1.63-.24-.92-.45-1.84-.64-2.77.08-10.23.12-20.46-.04-30.69,0-.62-.03-1.24-.05-1.86.82-11.26.78-22.5.88-33.79.23-25.9.76-51.81.15-77.71-.38-16.02-1.11-32.05-1.93-48.07.5-31.11.74-62.24-.29-93.34-.12-3.68-.26-7.36-.41-11.04,1.09,6.71,2.38,13.38,3.87,20.02.37,1.62,3.09,1.3,2.95-.4-3.22-39.14-3.63-78.43-3.6-117.68.02-24.36-.45-48.7-.92-73.03.04-2.32-.02-4.65-.13-6.98-.04-2.38-.09-4.77-.13-7.15.35-5.48.68-10.96.97-16.45,1.32-24.75,1.9-49.57.07-74.32-.06-.83-.69-1.35-1.37-1.45.09-12.84.18-25.69.29-38.53.13-11.38.23-22.77.3-34.15.19-7.48.2-14.96.08-22.44,0-1.36.01-2.71.01-4.07,0-.2-.04-.37-.09-.53-.25-11.65-.75-23.31-1.24-34.96.48-8.97,1.22-17.92,1.43-26.91.22-9.44.14-19.26-1.98-28.56.2.1.41.2.64.3.04,1.85,2.95,1.83,2.99-.08.06-2.18-2-3.26-4.57-3.8-.26-.88-.53-1.75-.83-2.62-.14-.4-.38-.67-.68-.83-.23-1.15-.49-2.29-.8-3.42-.46-1.71-2.81-1.23-2.95.4-.06.72-.11,1.45-.16,2.17-.18-.09-.39-.15-.62-.17-1.7-.14-3.4-.21-5.09-.27,1.15-.38,2.28-.83,3.38-1.38,1.38-.69.66-2.77-.76-2.8-7.7-.13-15.24,1.02-22.74,2.57-.86-.04-1.72-.09-2.56-.12-10.44-.39-20.89-.88-31.33-.44-7.84.33-15.56,1.39-23.27,2.71-5.66-.58-11.33-1.07-17.02-1.25-4.4-.13-8.85-.08-13.25.35-.21,0-.42,0-.63,0-7.46.07-15.05.89-21.99,3.67-5.36.19-10.71.33-16.08.33.25-.72.01-1.56-.99-1.78-4.74-1.01-9.53-1.49-14.35-1.68-15.1-1.42-30.3-1.69-45.44-.43-6.43-.07-12.86-.13-19.3-.17-8.17-2.03-16.28-4.31-24.56-5.81-12.35-2.24-25-2.71-37.53-2.92-2.28-.04-4.56-.06-6.83-.08-13.13-5.11-27.69-3.18-41.65-1.27-3.02-.28-6.04-.62-9.04-1.07-6.51-.96-12.99-.61-19.57-.54-8.41.09-16.81.16-25.22.23-11.35-1.03-22.71-2-34.06-2.98-.36-.03-.73-.06-1.09-.09.37-1.83.71-3.67,1.04-5.51.25-1.45-1.35-2.52-2.51-1.46-2.14,1.96-4.1,4.11-5.93,6.37-4.03-.32-8.07-.61-12.1-.87-.12-.06-.26-.11-.42-.14-.13-.02-.27-.03-.4-.05,0,0,0,0,0,0,0,0,0,0-.01,0-3.3-.47-6.61-.79-9.91-.98-3.05-1.36-7.15-1.08-10.23-.68-1.15.15-2.3.34-3.44.56-1.47.05-2.95.11-4.42.19-.56,0-1.13-.02-1.69-.02-3.74-.02-7.48-.1-11.2.36-3.28.4-6.52.99-9.79,1.47-1.12.16-2.33.34-3.59.49-2.41-.03-4.81-.07-7.22-.09-.88-.04-1.76-.08-2.63-.12-1.78-.46-3.41-1.23-4.75-2.5-1.4-1.33-3.53.79-2.12,2.12.01.01.03.02.04.04-2.5-.13-5.01-.25-7.51-.36-13.35-.57-26.54-.03-39.86.87-5.31.36-10.63.82-15.96,1.24-9.91.28-19.83.61-29.76.93-2.62,0-5.24.04-7.84.24-15.95.47-31.9.8-47.83.6-14.7-.18-29.59-.9-44.12,1.8-1.47.27-1.33,2.33-.12,2.83-8.77,1.15-17.49,2.53-26.25,3.83-4.9.73-9.8,1.25-14.72,1.65-4.9,0-9.79.08-14.68.28-4.39.17-8.79.55-13.19.99-13.08.34-26.16.59-39.2,1.97-1.62.17-1.88,2.06-.75,2.75-3.56.1-7.11.19-10.67.28h-27.26c-.12-.4-.24-.8-.37-1.19-.52-1.48-3.14-1.39-2.95.4.03.26.06.53.08.79h-.09c-.27-4.23-.57-8.45-.89-12.66-.13-1.65-2.43-2.08-2.95-.4-1.43,4.65-2.32,9.39-2.82,14.17-11.92.46-23.84,1.08-35.74,1.99-1.57.12-2.17,2.62-.4,2.95,11.83,2.16,23.76,2.09,35.69,1.47-.64,17.19,2.91,34.86,4.1,51.71.38,5.32.57,10.65.64,15.99-.03.39-.04.79-.07,1.18-1.44,21.54-5.21,44.06-2.06,65.67-.04,1.99-.08,3.98-.09,5.96-.26,30.6-3.11,61.08-5.31,91.58-1.92,26.69-1.99,53.37-3.37,80.07-1.03,20.02-3.36,44.29,5.83,63.12-.07,6.12-.17,12.25-.32,18.37-.65,27.09-2.23,54.63-1.25,81.93-.32,31.84-3.22,63.65-1.38,95.49.58,9.99,1.42,19.96,2.44,29.91.76-2.53,1.52-5.06,2.27-7.59-.69-7.43-1.28-14.87-1.71-22.33-1.28-22.14-.27-44.27.58-66.41.44,3.63.92,7.26,1.5,10.87.11.67.22,1.35.33,2.02.2,4.65.3,9.31.37,14.01.04,3.28.14,6.64.73,9.88-.47,3.37-.91,6.74-1.21,10.13-1.18,13.29-.72,26.63-.03,39.95.87-2.89,1.74-5.78,2.61-8.68-.32-8.22-.44-16.44-.04-24.67.14,4.64.27,9.27.41,13.91.09,2.9.16,5.8.24,8.71.11-.36.22-.71.32-1.07-.02.08-.04.16-.06.24-2.09,8.35-4.03,16.74-5.87,25.16-.3,1.37,1.44,2.64,2.51,1.46,3.77-4.17,6.82-8.96,9.52-13.89-2.22,6.6-4.63,13.14-7.43,19.52-.46,1.04.38,2.29,1.33,2.33-1.15,3.84-2.29,7.68-3.43,11.53.25,1.74.5,3.47.76,5.21-.24,4.09-.45,8.17-.61,12.26-1.3,31.79-.97,63.43,1.15,95.16v7.35c0,9.31-.68,18.35-1.33,27.62-.54,7.67-1.06,16.56,2.92,23.48.02,3.45,0,6.89-.04,10.34-.15,10-.87,19.9-1.79,29.82-.35.24-.62.62-.64,1.17-.05,1.42,0,2.83.12,4.25-.05.51-.1,1.02-.15,1.53-1.16,11.54-2.06,23.13-.46,34.67.08.59.59.95,1.15,1.05-.42,4.23-.41,8.56-.68,12.56-.92,13.61-.96,27.24-.9,40.88,0,1.24,0,2.47,0,3.71-1.58,17.45-2.87,34.93-3.63,52.44-.7,16.04-.96,32.09-.56,48.14-.53,9.67-.94,19.34-1.25,29.02-.97,30.75-.62,61.44.66,92.12-.3,5.21-.5,10.43-.52,15.66-.06,16.79.88,33.61,1.86,50.37.98,16.71,1.58,33.58,3.37,50.23.85,7.86,2.17,15.82,3.03,23.79.11,4.37.15,8.74.12,13.1-2.95-.84-5.92-1.63-8.92-2.31-1.56-.35-2.79,2.04-1.16,2.74.12.05.24.09.36.14,0,0,0,0,0,0,.02,0,.04,0,.06.01,3.1,1.28,6.33,2.12,9.62,2.68-.01.61-.03,1.21-.04,1.82-.35.03-.7.06-1.05.09-3.81-.34-7.6-.78-11.44-.71-.11,0-.21,0-.28,0-.1,0-.21,0-.31,0-1.36.05-1.94,1.91-1.04,2.66-1.42.33-2.83.7-4.23,1.13-1.36.42-1.49,2.54,0,2.89,5.93,1.4,11.99,1.67,18.07,1.49-.03.64-.05,1.29-.09,1.93-.1,1.67,2.64,2.07,2.95.4.15-.82.28-1.64.4-2.46,1.52-.08,3.04-.17,4.55-.28.18,4.64.67,9.26,1.85,13.78.35,1.35,2.65,1.51,2.89,0,.75-4.74,1.14-9.49,1.3-14.26,3.13-.25,6.25-.49,9.35-.63h3.8c11.06,2.82,22.3,4.05,33.7,4.97,6.96.56,13.9.9,20.83,1.05-.12.82.36,1.74,1.43,1.74,5.75,0,11.5-.15,17.24-.39.15.13.32.23.52.29,28.33,7.17,57.88,2.36,86.61,1.11.6-.03,1.19-.05,1.79-.07,11.28.27,22.55-.03,33.79-.67,30.18-.79,60.35-2.13,90.54-2.68,42.04-.76,84.23,1.29,126.13-3.08,6.05-.63,12.08-1.43,18.12-2.27h30.41c3.92,1.88,8.5,2.7,12.62,3.24,7.7,1.02,15.47.9,23.22,1.05,12.79.24,25.59.35,38.38.73,2.39.07,4.77.18,7.16.28.27.33.68.56,1.15.58,2.9.14,5.79.09,8.67-.08,6.5.39,12.99.85,19.49,1.36-6.76,1.18-13.44,2.83-19.83,5.35-1.41.56-1.42,2.34,0,2.89,6.98,2.73,14.4.26,21.4-1.08,8.39-1.61,17.12-1.59,25.63-1.98,17.65-.81,35.3-1.66,52.94-2.55,12.55-.63,25.08-1.58,37.61-2.55,12.48-.45,24.95-.87,37.42-1.09,29.08-.5,58.07,1.38,87.14,1.63,1.46.01,1.98-2.07.89-2.75,2.19-.55,4.34-1.17,6.44-1.8,1.94-.58,3.91-1.2,5.91-1.81,4.27-.01,8.53-.3,12.63-1.4.01,0,.02,0,.03-.01h.83c0,2.76-.02,5.52-.02,8.28,0,1.93,3,1.93,3,0,0-2.99.04-5.99.09-8.98.57-.05,1.14-.1,1.71-.14.05.15.11.3.18.46-.14,2.57-.27,5.15-.4,7.72-.09,1.69,2.54,2.03,2.95.4.72-2.87,1.13-5.79,1.33-8.73.7,0,1.41-.02,2.11,0,1.33.04,1.83-1.55,1.17-2.43,6.99-.79,13.96-1.81,20.88-3.12,1.5-.28,1.36-2.52,0-2.89Zm-27.81-202.74c.07,6.58.12,13.17.17,19.75,0-.04,0-.08,0-.12-.24-3.19-.49-6.38-.75-9.56.2-3.36.4-6.72.59-10.07Zm4.49-315.18c.18-1.58.4-3.16.69-4.73,2.07,4.15,1.61,10.29,1.48,14.33-.23,6.94-1.12,13.86-2.14,20.72-.29-6.48-.7-12.99-.65-19.46,1.33-3.56,1.18-7.21.63-10.87ZM41.47,31.03c-5.58.3-11.15.47-16.71.34,5.58-.3,11.16-.55,16.75-.77-.01.14-.02.28-.03.43Zm4.59,781.76c.05,2.57.1,5.13.15,7.7-.27-2.54-.26-5.14-.15-7.7Zm-5.89,355.23c-.24-9.22-.36-18.45-.37-27.68.12,8.97.26,17.95.44,26.92l-.07.76Zm5.65,187.48c-3.35.13-6.7.12-10.03-.15,3-.55,6.03-.93,9.08-1.2.33.03.66.05,1,.08-.01.42-.03.84-.04,1.26Zm2-867.46c-.13,8.06-.15,16.13-.13,24.2-.06-.44-.13-.87-.19-1.31-.12-18.99-.25-37.98-.37-56.97.23,3.02.47,6.03.71,9.05v23.88c0,.38-.01.77-.02,1.15Zm.01,56.25c-.02.38-.04.76-.06,1.14-.06-4.04-.1-8.09-.13-12.13.05.35.1.7.15,1.05.01,2.41.03,4.83.04,7.24,0,.9,0,1.8,0,2.7Zm-.05-187.41c.02-.28.04-.57.06-.85v1.75c-.02-.3-.04-.6-.06-.89ZM180.25,26.48c3.13-.44,6.25-.91,9.37-1.4.17.73.84,1.37,1.82,1.18,2.4-.45,4.81-.86,7.22-1.24,1.89.15,3.79.3,5.68.45.2.25.45.45.74.55.49.17.99.31,1.49.46h-26.31Zm173.93-1.99c1.48,0,2.95,0,4.43,0-.89.03-1.78.07-2.67.09-.56.01-1.15-.02-1.76-.08Zm18.27-2.94c1.29-.14,2.58-.27,3.87-.4,1.34.04,2.68.08,4.02.11,1,.12,2,.25,3,.37-3.63-.03-7.25-.05-10.88-.08Zm104.27-11.66c.81.06,1.62.13,2.43.19-.07.31-.13.62-.2.93-1.04.02-2.08.04-3.13.06.3-.4.59-.8.9-1.19Zm364.65,1217.64c2.55-3.65,5.19-7.25,7.9-10.78-.47,1.74-.97,3.46-1.51,5.18-3.58,5.94-7.12,11.9-10.61,17.9,1.27-3.31,2.45-6.66,3.51-10.03.23-.73.45-1.47.67-2.21.01-.02.03-.04.04-.06Zm-34.42,59.57s0,0-.01.01c-1.08,1.32-2.19,2.63-3.33,3.92,2.49-6.74,5.05-13.44,7.75-20.1.13-.31.26-.63.39-.94,1.89-2.88,3.79-5.75,5.64-8.65-2.8,5.55-5.37,11.21-7.55,17.02-1.08,2.87-2.06,5.79-2.88,8.74Zm2.36,2.5c.06-.24.12-.49.18-.73.22-.27.44-.54.66-.82-.28.52-.56,1.03-.84,1.55Zm-4.44,8.3c-.82,1.54-1.65,3.09-2.47,4.63-.91,1.72-2.33,2.45-3.79,2.49.8-2.31,1.62-4.61,2.44-6.91,1.52-1.45,2.99-2.96,4.41-4.52-.24,1.3-.45,2.6-.6,3.91-.02.14,0,.27.03.4Zm-1.54-14.68c-1,2.63-1.99,5.27-2.97,7.91-.64,1.74-1.26,3.48-1.89,5.22-1.07,1.01-2.16,1.99-3.29,2.93,2.2-5.59,5.04-10.91,8.14-16.06Zm15.78-30.52c1.15-2.58,2.32-5.14,3.51-7.7,2.31-4.05,4.65-8.08,7-12.1-2.46,4.79-4.89,9.59-7.43,14.33-.99,1.85-2.02,3.66-3.08,5.47Zm-21.03-119.69c-6.45,0-6.43-10,0-10s6.43,10,0,10Zm-3.34,170.45c.58-.43,1.14-.88,1.7-1.33-.24.69-.49,1.38-.73,2.08-.35-.21-.68-.46-.97-.75Zm35.95-55.92c-5.07,11.36-11.15,22.45-18.44,32.59,2.19-5.91,4.9-11.64,7.67-17.13,4.53-8.98,9.64-17.67,15.13-26.1-1.34,3.59-2.8,7.14-4.36,10.64Zm-1.75-6.6c-.07.11-.13.21-.19.32,3.88-7.48,7.64-15.02,11.76-22.36-.56,2.47-1.2,4.93-1.91,7.36-3.35,4.81-6.57,9.71-9.66,14.68Zm-731.2-203.8c6.09-12.2,12.14-24.41,18.14-36.65.62.16,1.32,0,1.7-.63,6.17-10.38,11.47-21.19,16.28-32.24.32-.54.64-1.09.96-1.63-2,4.41-4,8.82-5.98,13.24-5.7,12.71-10.99,25.6-17.32,38.02-4,7.84-8.37,15.86-13.79,22.97,0-1.03-.01-2.06,0-3.08ZM135.24,65.37s.04-.05.07-.07c.43.08.86.19,1.3.39.39.18.72.39,1.03.62-3.64,5.06-7.18,10.18-10.62,15.38.89-2.42,1.75-4.86,2.37-7.36.06-.25.11-.51.17-.76,1.62-2.92,3.46-5.73,5.69-8.2Zm7.16,121.16c-19.9,45.6-45.06,89.7-55.5,138.81-.5,2.33-2.13,3.43-3.92,3.58,2.16-6.08,3.9-12.31,5.58-18.32,2.59-9.26,5.39-18.45,8.27-27.62,1.06-3.15,2.11-6.31,3.15-9.47.1-.31.21-.63.31-.94,5.92-13.02,11.09-26.32,16.12-39.71,5.2-13.86,10.27-27.77,15.46-41.64.59-1.32,1.19-2.64,1.77-3.95.37-.83.74-1.65,1.1-2.48.59.86,2.3.95,2.78-.38.62-1.7,1.21-3.42,1.77-5.15,2.51,1.04,4.51,4.04,3.1,7.27Zm555.88-112.45c.08.46.17.93.25,1.39-4.25,5.77-7.69,12.11-10.82,18.55-1.01,2.07-1.99,4.15-2.97,6.23.94-4.29,1.74-8.68,2.2-13.06.48-1.72.95-3.45,1.42-5.18,2.85-3.16,6.11-5.91,9.91-7.94Zm136.12,166.45c-1.12,1.51-2.23,3.02-3.35,4.54,1.12-3.26,2.21-6.52,3.26-9.8,1.2,1.37,1.56,3.3.09,5.27ZM71.21,547.92c.57-1.46,1.16-2.91,1.78-4.35-.57,2.91-1.08,5.83-1.57,8.75-.37.49-.76.97-1.15,1.44.26-1.96.57-3.91.95-5.84ZM428.48,139.82c-.4.75-.8,1.5-1.22,2.24-3.7,6.57-8.05,12.82-13.28,18.24-1.08-.69-1.98-1.75-2.41-3.02.28-1.13.58-2.25.91-3.37,2.77-5.26,5.73-10.43,8.68-15.58,4.81-8.4,9.79-16.73,13.49-25.69,4.36-10.56,8.28-21.29,12.24-32.01,1.55-2.07,3.07-4.17,4.57-6.28-.72,2.66-1.44,5.32-2.17,7.96-2.93,10.56-5.95,21.23-9.61,31.64-3.77,8.61-7.49,17.24-11.2,25.87Zm6.19-35.21c-.32.82-.64,1.63-.96,2.45-1.89,4.74-3.86,9.4-6.24,13.91-2.13,4.04-4.39,8-6.67,11.96.96-2.02,1.94-4.03,2.93-6.02,3.68-7.43,7.46-14.79,10.94-22.3Zm18.46-40.54c1.27-3.29,2.57-6.58,3.9-9.85-.66,2.26-1.31,4.53-1.94,6.8-.66,1.01-1.31,2.03-1.97,3.04Zm351.18-10.89c.41-.41.83-.81,1.25-1.21.1-.09.21-.17.3-.26.09-.04.18-.08.27-.11.14,2.56.21,5.12.2,7.69-1.58,2.76-3.11,5.54-4.62,8.34-.06-1.33-.15-2.66-.29-3.98-.05-.5-.36-.95-.77-1.24.66-1.95,1.32-3.91,1.98-5.86.55-1.13,1.11-2.25,1.67-3.37Zm17.82,187.25c-.79,1.9-1.58,3.8-2.36,5.71.23-1.12.44-2.24.64-3.36.57-.79,1.14-1.57,1.72-2.35Zm9.31-6.87c-2.04,6.6-4.21,13.17-6.47,19.7-.05.15-.1.29-.16.44-1.03,1.44-2.05,2.87-3.07,4.31,2.88-8.06,5.47-16.26,7.5-24.59.74-.1,1.49-.04,2.2.14Zm-35.1,133.64c2.87-5,5.67-10.04,8.43-15.1-1.82,3.95-3.68,7.88-5.6,11.79-9.45,19.22-19.42,38.17-29.31,57.17-3.27,6.28-6.54,12.58-9.77,18.88.86-2.6,1.79-5.17,2.77-7.72,8.56-16.25,16.68-32.71,24.51-49.32.04-.08.07-.16.11-.24,2.93-5.17,5.9-10.31,8.86-15.46Zm68.06,375.35c-3.04,6.75-6.11,13.5-9.16,20.25,3.25-8.52,5.98-17.27,8.08-26.15,1.4,1.44,2.1,3.61,1.07,5.9Zm-380.95,537.35c-.9,1.56-1.91,3.07-3.03,4.53,2.2-9.35,4.32-18.72,6.31-28.11,1.27-2.52,2.51-5.05,3.74-7.6,0,.22,0,.44,0,.67-.1,6.52-.75,13.03-2.41,19.17-1.55,3.77-3.08,7.55-4.61,11.34Zm-173.68-84.39c8.5-16.77,16.93-33.58,25.29-50.42-1.05,2.94-2.11,5.88-3.17,8.82-4.76,10.68-9.74,21.25-15.07,31.67-2.43,4.75-4.84,9.51-7.18,14.31-.6-1.27-.68-2.8.13-4.38ZM149.24,341.75c5.77-13.38,11.21-26.88,16.46-40.46,3.92-9.5,7.9-18.98,11.94-28.43-2.66,7.52-5.32,15.05-7.99,22.57-13.64,32.02-26.65,64.29-38.92,96.88,3.74-10.97,7.55-21.91,11.38-32.85,2.37-5.9,4.75-11.81,7.12-17.71Zm30.21-74.02c-.08-.28-.23-.53-.43-.73.83-1.92,1.66-3.83,2.49-5.75.39-.9.79-1.8,1.19-2.7-1.09,3.06-2.17,6.12-3.26,9.18Zm369.48-167.56c-3.86,7.91-7.72,15.81-11.58,23.72,1.53-4.79,3.06-9.59,4.58-14.38,3.04-4.93,6.12-9.83,9.22-14.72-.73,1.8-1.47,3.59-2.22,5.38Zm254.47-29.36c-.54,1.68-1.08,3.37-1.62,5.05-.02.05-.03.1-.05.15.03-.72.05-1.45.07-2.17.53-1.01,1.06-2.03,1.6-3.04Zm-58.74,387.9c-1.73,3.55-3.18,7.23-3.95,11.05-1.52-1.01-2.37-2.79-1.45-5.07.06-.14.12-.28.18-.42,1.83-1.76,3.56-3.62,5.23-5.55Zm-431.01,744.27c-.64-.12-1.27-.37-1.85-.72,1.6-3.29,3.23-6.57,4.88-9.83,1.21-2.4,2.45-4.8,3.69-7.19-1.08,2.89-2.15,5.78-3.25,8.66-1.15,3.03-2.31,6.06-3.48,9.08Zm19.91-44.91c5.5-12.6,10.49-25.47,15.68-38.18,2.69-6.59,5.34-13.2,7.98-19.82,7-14.33,13.96-28.69,20.87-43.06-4.6,13.52-9.42,26.97-14.35,40.37-1.38,3.75-2.78,7.49-4.17,11.23-2.54,5.24-5.08,10.49-7.64,15.72-3.03,6.18-6.07,12.35-9.13,18.51-.46.36-.72.99-.58,1.6.26,1.1,1.37,2.5,2.51,3.42-.1.26-.2.52-.3.79-8.6,17.33-17.27,34.64-26.02,51.9-.34.67-.75,1.18-1.22,1.57,5.62-14.62,11.06-29.31,16.38-44.04Zm-38.53-840.66c-.03.06-.06.13-.09.19.19-1.73.29-3.48.35-5.22,7.7-18.19,15.6-36.3,23.71-54.32-4.57,11.38-9.06,22.8-13.51,34.23-3.54,8.35-7.03,16.73-10.47,25.12Zm-29.74,77.5c-7.45,16.87-14.83,33.77-22.18,50.69-.68,1.14-1.36,2.28-2.05,3.41,2.41-6.25,4.81-12.51,7.22-18.76,6.56-15.13,13.2-30.22,19.88-45.29.92-1.83,1.85-3.66,2.77-5.49-.54,1.47-1.09,2.93-1.62,4.4-1.33,3.69-2.68,7.37-4.03,11.05ZM670.61,127.89c-3.65,9.38-7.69,18.58-11.74,27.79-2.23,4.49-4.47,8.99-6.7,13.49.93-4.06,1.77-8.14,2.49-12.24,2.43-6.48,4.92-12.94,7.53-19.36,4.18-10.31,8.41-20.61,12.48-30.97-1.37,7.1-2.71,14.2-4.06,21.29Zm44.39,131.45c.09-.71.07-.57.18-1.32.2-1.38.45-2.76.71-4.14,1.41-2.39,2.81-4.78,4.19-7.18.79-1.14,1.57-2.28,2.34-3.42-.01.85.01,1.7.06,2.55-2.21,5.16-4.39,10.33-6.51,15.53-.42.61-.84,1.21-1.27,1.81.02-.76.07-1.53.14-2.29.05-.52.1-1.04.17-1.56Zm87.34-175.46c1.13-3.49,2.25-6.98,3.37-10.47-.1,1.24-.2,2.48-.32,3.72-.09.97-.19,1.93-.29,2.9-1.84,5.2-3.72,10.39-5.62,15.56.34-1.93.65-3.87.92-5.81.65-1.97,1.3-3.93,1.94-5.9Zm55.21,191.27c-.55.9-1.1,1.79-1.64,2.69,1.39-6.01,3.34-11.91,5.41-17.64.97-2.67,1.98-5.33,3.02-7.97-1.15,4.47-2.4,8.92-3.73,13.34-.97,3.2-1.99,6.4-3.06,9.59Zm-162.48,823.78c2.03-4.63,4.04-9.27,6.04-13.91,7.71-14.18,15.31-28.42,22.88-42.67-3.83,9.47-7.74,18.92-11.8,28.29-4.61,9.64-9.24,19.28-13.88,28.91-.36.58-.7,1.16-1.05,1.75.09-.3.18-.59.27-.89.48-1.55-1.49-2.35-2.46-1.48Zm-201.22,163.39c2.92-7.05,5.87-14.09,8.85-21.11-.31,1.8-.66,3.59-1.06,5.38-2.6,5.24-5.2,10.49-7.79,15.73Zm27.3-335.15c.9-1.26,1.8-2.51,2.71-3.76.66.07,1.38-.22,1.67-1,.37-.98.77-1.94,1.15-2.92,6.69-9.26,12.86-19.05,19.21-28.71-6.65,13.04-13.62,25.93-20.83,38.68-1.36,2.4-2.73,4.79-4.11,7.18-3.14,4.88-6.28,9.76-9.42,14.64,2.3-5.76,4.63-11.51,6.95-17.27.92-2.27,1.8-4.55,2.66-6.84Zm-241.13-267.85c-1.16,1.96-2.32,3.92-3.47,5.88,6.19-12.86,11.92-25.94,16.83-39.38.37-1.01-.62-1.91-1.56-1.9,2.28-5.85,4.59-11.7,6.96-17.51,1.61-3.96,3.26-7.9,4.93-11.84,0,.54.29,1.05.7,1.36-1.25,2.14-2.52,4.28-3.81,6.41-.86,1.42,1.23,3.14,2.36,1.82,1.2-1.4,2.37-2.83,3.53-4.26-8.35,19.29-16.82,38.54-25.44,57.71-.34.57-.68,1.15-1.01,1.72Zm-68.56-165.32c5.61-13.12,11.24-26.23,16.9-39.32-4.08,9.9-8.13,19.82-12.13,29.76-1.44,2.98-2.89,5.96-4.33,8.93-.15.21-.29.42-.44.63Zm29.97-63.23c2.56-5.85,5.05-11.74,7.52-17.63-2.33,6.07-4.67,12.14-7,18.22-2.26,4.67-4.52,9.34-6.78,14,2.06-4.88,4.15-9.74,6.27-14.59Zm30.2-60.64c6.41-16.18,12.97-32.29,19.68-48.33-.45,2.61-1.02,5.2-1.71,7.76-6.01,13.51-12,27.04-17.98,40.57Zm18.93-54.91c-1.5,3.58-2.99,7.16-4.47,10.75,1.42-3.53,2.84-7.05,4.27-10.58.06-.06.13-.11.19-.17Zm196.2-102.52c-5.01,9.27-10,18.55-14.97,27.84.47-2.44.91-4.88,1.33-7.32,2.62-5.42,5.25-10.84,7.87-16.25,1.92-3.66,3.86-7.31,5.8-10.95.02,2.23,0,4.46-.03,6.69Zm239.33,23.32c.9-1.63,1.8-3.27,2.7-4.91-1,2.33-2,4.66-3,6.99.09-.7.19-1.39.31-2.08Zm125.46,48.99c-.66,1.1-1.32,2.19-1.98,3.29-1.25,1.48-2.53,2.92-3.84,4.32-.37.39-.77.77-1.15,1.16,1.7-3.77,3.35-7.56,4.93-11.39.68-1.65-1.74-2.43-2.69-1.15,1.69-4.94,3.33-9.91,4.88-14.91.34-.84.69-1.68,1.03-2.52,3.56-5.85,7.14-11.67,10.78-17.47-3.95,9.5-7.62,19.11-10.1,29.14-.78,3.14-1.42,6.32-1.87,9.53Zm-117.69,732.37c-6.5,12.18-12.96,24.37-19.46,36.55.33-.77.66-1.54.99-2.31,10.66-22.57,21.29-45.17,31.4-68-4.29,11.26-8.57,22.52-12.93,33.75Zm41.05-378.93c-1.84,2.43-3.78,4.84-5.83,7.12,2.44-3.53,4.9-7.04,7.41-10.52.87-1.21-.85-2.88-2.05-2.05-1.49,1.02-2.93,2.11-4.33,3.23,4.47-8.85,8.67-17.83,12.11-27.11,1.69-1.46,3.3-3.03,4.83-4.64,2.38-2.5,4.64-5.12,6.81-7.82-2.27,6.11-4.47,12.24-6.6,18.4-4.12,7.79-8.24,15.58-12.35,23.38Zm57.57-326.34c-.31.61-.62,1.22-.93,1.83.16-.51.31-1.01.47-1.52.69-1.91,1.38-3.82,2.07-5.73.19-.13.37-.28.56-.41-.72,1.95-1.45,3.89-2.17,5.84Zm-66.11,331.4c.48-.46.95-.92,1.44-1.37-1,1.43-1.99,2.86-2.97,4.3.51-.98,1.02-1.95,1.53-2.93Zm-4.3.14c.19-1.16.4-2.31.62-3.45,4.78-9.08,9.56-18.16,14.35-27.23.15-.1.31-.19.46-.29.06-.04.11-.08.17-.11-4,10.01-8.83,19.68-13.82,29.25-.6.6-1.2,1.21-1.79,1.82Zm29.04-51.69c-1.65,1.45-3.35,2.85-5.12,4.14,2.59-4.88,5.16-9.76,7.76-14.64,1.53-2.88,4.49-3,6.65-1.7-.73,1.76-1.44,3.53-2.14,5.31-2.3,2.4-4.69,4.71-7.15,6.88Zm-117.11,233.9c2.87-6.44,5.74-12.87,8.62-19.3-1.94,4.72-3.88,9.45-5.81,14.17-2.06,5.01-4.12,10.02-6.18,15.03,1.13-3.3,2.25-6.6,3.38-9.89Zm22.21-58.25c.98-1.75,1.95-3.5,2.93-5.24-1.21,2.59-2.42,5.19-3.62,7.79-3.26,7.08-6.49,14.17-9.71,21.27,1.6-4.62,3.21-9.24,4.83-13.85,1.85-3.32,3.71-6.64,5.56-9.96Zm-14.74,27.21c-2.97,8.66-5.91,17.33-8.85,26-10.38,23.28-20.64,46.61-31.03,69.88-1.87,3.46-3.75,6.92-5.63,10.38,2.78-7.13,5.56-14.27,8.33-21.41,6.94-17.93,13.81-35.88,20.72-53.82,5.5-10.34,10.99-20.68,16.46-31.04Zm-52.83,98.82c3.74-6.89,7.47-13.79,11.19-20.69,4.4-8.16,8.77-16.34,13.14-24.52-9.57,24.74-19.12,49.49-28.76,74.2-6.57,11.98-13.17,23.95-19.83,35.89-.56,1-1.28,1.65-2.09,2.04-.04-.87-.14-1.75-.5-2.31-.62-.94-2.24-1.43-3.29-1.79,9.61-21.14,19.7-42.07,30.13-62.82Zm156.57-293.33c1.5-.95,2.93-2.01,4.31-3.11-.53.63-1.05,1.26-1.59,1.88-1.15,1.31-2.33,2.6-3.55,3.85.28-.87.56-1.75.83-2.62Zm28.86-105.31c6.45,0,6.43,10,0,10s-6.43-10,0-10Zm-216.8,464.23c.63.2,1.24.45,1.83.75.03.28.06.56.08.85-.78-.2-1.52-.57-2.15-1.07.08-.17.16-.35.23-.52Zm-49.93,168.78c4.82-10.82,9.5-21.69,14.03-32.63,4.64-9.82,9.23-19.66,13.77-29.53-5.86,14.24-11.44,28.59-17.82,42.61-3.38,7.42-6.96,14.89-11.02,22.07.35-.84.69-1.68,1.04-2.52Zm174.94-406.79c5.71-10.01,11.49-19.97,17.42-29.85-2.92,6.54-5.8,13.11-8.72,19.66-10.16,22.83-20.4,45.63-30.47,68.5,7.09-19.5,14.31-38.95,21.77-58.32Zm15.21-31.84s0-.01.01-.02c2.44-4.91,4.81-9.84,7.15-14.79,2.25-4.29,4.5-8.58,6.76-12.88,2.14-3.1,4.39-6.16,6.76-9.1,0,.05,0,.1,0,.14-.3.56-.59,1.13-.89,1.69-2.55,4.88-4.99,9.8-7.36,14.75-4.23,6.68-8.35,13.42-12.42,20.2Zm100.66-381.91c1.03-2.1,2.04-4.21,3.03-6.33.51-.44,1.01-.88,1.5-1.33-1.52,2.55-3.03,5.1-4.54,7.66Zm-2.2-5.87c.05-.15.09-.3.13-.45.19-.53.38-1.05.57-1.58.53-1.03,1.07-2.05,1.59-3.08-.56,1.53-1.12,3.07-1.68,4.6-.21.17-.4.34-.61.51Zm-292.58,839.44c-4.6,10.24-9.18,20.49-13.74,30.75,3.42-8.62,6.87-17.23,10.35-25.82,1.17-1.61,2.29-3.26,3.38-4.92Zm184.89-416.58c7.95-17.82,15.49-35.86,23.99-53.43,3.12-4.93,6.3-9.83,9.53-14.69,2.44-1.75,4.7-3.75,6.83-5.91-3.09,5.88-6.19,11.75-9.28,17.64-13.22,25.18-26.41,50.38-39.62,75.57,2.85-6.39,5.71-12.79,8.56-19.18Zm72.02-136.35c.69-.98,1.37-1.96,2.04-2.94-.04.58-.09,1.16-.13,1.73-1.71,3.22-3.41,6.44-5.12,9.67,1.05-2.82,2.12-5.64,3.21-8.45Zm25.44-267.06c-1.62,4.44-3.25,8.87-4.9,13.3-.12.22-.23.43-.35.65-.56.4-1.12.79-1.7,1.17,2.18-5.1,4.53-10.14,6.95-15.12Zm-366.74-40.41c-3.02,6.72-6.03,13.45-9.07,20.17-4.59,10.17-9.26,20.3-14.13,30.34,6.82-18.19,13.53-36.43,20.29-54.64,2.09-3.96,4.17-7.92,6.26-11.87.59-1.12,1.19-2.23,1.79-3.35-.8,3.25-1.63,6.5-2.49,9.73-.85,3.22-1.74,6.42-2.65,9.62Zm-188.38,389.98c-3.28,6.6-6.66,13.15-10.12,19.67,2.72-6.85,5.45-13.7,8.25-20.52,3.58-8.73,7.46-17.47,12.14-25.72-3.39,8.87-6.79,17.74-10.27,26.57Zm54.81-107.32c3.76-7.54,7.38-15.14,10.89-22.81.93-1.42,1.85-2.84,2.78-4.26-4.42,9.33-8.84,18.67-13.26,28.01-.77,1.21-1.56,2.41-2.35,3.61.65-1.52,1.3-3.04,1.94-4.56Zm45.21-115.58c-.14.21-.27.43-.41.64.38-.87.76-1.73,1.14-2.6-.24.65-.48,1.31-.73,1.96Zm-8.18,18.31c-.19.37-.37.75-.56,1.12.12-.27.24-.54.36-.81.07-.1.13-.21.2-.31Zm.81,11.27c.56-1.53,1.1-3.07,1.64-4.61,5.05-10.52,10.07-21.06,15.03-31.62,2.02-3.69,4.05-7.37,6.08-11.05.61-.76,1.23-1.52,1.82-2.31-.76,2.05-1.53,4.1-2.28,6.15-2.21,6-4.42,12-6.63,18.01-4.87,8.79-9.89,17.52-15.72,25.6.02-.06.04-.11.06-.17Zm31.68-60.01c1.4-2.26,2.73-4.56,4.03-6.88-2.22,4.64-4.44,9.29-6.66,13.93.88-2.35,1.75-4.7,2.63-7.05Zm-35.43,69.76c.34-.41.68-.82,1.02-1.23-.57.97-1.13,1.94-1.7,2.92.23-.56.46-1.12.68-1.69Zm21.52-55.96c7.61-18.08,15.27-36.14,23-54.16,1.77-3.41,3.48-6.85,5.23-10.27,2.2-4.31,4.41-8.6,6.62-12.9-11.36,25.79-22.86,51.52-34.67,77.11-.06.07-.12.15-.19.22Zm-35.8,72.3c1.2-1.8,2.35-3.63,3.47-5.46.19-.06.38-.17.56-.32.2-.18.39-.36.59-.54-2.9,6.01-5.8,12.02-8.7,18.03-.91,1.09-1.87,2.11-2.88,3.04,2.33-4.91,4.66-9.82,6.97-14.74Zm-7.64,19.06c-.23.48-.46.96-.69,1.44-1.26,1.76-2.55,3.51-3.89,5.23.86-1.79,1.73-3.58,2.58-5.37.69-.4,1.35-.83,2-1.3Zm-14.64,30.58c-1.33,2.18-2.64,4.37-3.93,6.56,2.97-6.64,5.96-13.27,8.93-19.9.94-.97,1.87-1.95,2.78-2.96-2.6,5.43-5.19,10.86-7.78,16.29Zm27.19-40.12c-1.38,1.82-2.74,3.65-4.09,5.48,1.01-2.37,2.01-4.73,3-7.11,3.32-5.45,6.48-10.95,9.59-16.28-2.83,5.97-5.67,11.93-8.5,17.9Zm73.74-158.8c-3.13,5.89-6.28,11.77-9.45,17.65-2.39,4.37-4.79,8.73-7.19,13.09,4.96-12.9,10.02-25.76,15.18-38.58,4.8-10.99,9.59-21.99,14.37-32.98,2.83-5.43,5.67-10.86,8.52-16.29-4.14,11.18-8.28,22.35-12.46,33.51-2.95,7.88-5.95,15.75-8.97,23.6Zm29.35-78.63c.09-.21.18-.42.27-.63-.05.13-.09.25-.14.38-.04.08-.09.17-.13.25Zm-197.21,413.72c2.49-5.31,4.98-10.62,7.47-15.94-3.31,7.73-6.6,15.46-9.87,23.19.29-.84.58-1.69.86-2.54.52-1.57,1.03-3.15,1.54-4.72Zm-12.55,26.87c2-2.48,3.7-5.16,5.19-7.97-1.32,3.1-2.64,6.2-3.98,9.29-.1.06-.2.13-.3.22-1.02.94-2.02,1.91-2.99,2.89.69-1.48,1.38-2.95,2.07-4.43Zm80.07-155.95c-.2.48-.41.96-.61,1.44-2.63,5.27-5.32,10.52-8.1,15.72,2.08-4.46,4.18-8.92,6.28-13.37.81-1.26,1.62-2.52,2.43-3.78Zm140.63-305.28c1.21-3.22,2.42-6.44,3.63-9.66-.33,1.59-.67,3.18-1.02,4.77-.87,1.63-1.74,3.26-2.61,4.89Zm-228.73,478.42c1.79-2.74,3.71-5.39,5.79-7.89-.17.38-.33.77-.5,1.15-5.46,9.94-10.88,19.9-16.11,29.95,3.6-7.74,7.2-15.47,10.81-23.21Zm50.68-102.89c-.35.48-.7.97-1.05,1.45.96-2.09,1.93-4.18,2.91-6.26-.62,1.6-1.25,3.21-1.86,4.81Zm20.43-42.35c-.28.61-.57,1.23-.85,1.84.17-.4.34-.8.51-1.19.11-.22.23-.43.34-.65Zm119.79,384.02c5-9.14,10.06-18.25,15.12-27.35,1.23-2.11,2.45-4.22,3.65-6.34-6.81,14.69-13.66,29.36-20.54,44.02-1.53.96-2.97,2.04-4.32,3.22,2.04-4.51,4.06-9.03,6.09-13.55Zm178.76-721.47c-.33.25-.66.49-1,.73.65-1.75,1.3-3.51,1.96-5.26.13-.03.26-.07.39-.14.56-.31,1.1-.64,1.65-.97-.42.78-.83,1.55-1.25,2.33-.59,1.1-1.17,2.21-1.75,3.31Zm-164.07,688.73c9.8-21.97,19.54-43.96,29.26-65.97.43-.01.87-.23,1.21-.72,1.04-1.49,2.06-3,3.08-4.5.44-.36.88-.73,1.32-1.09-8.69,20.76-18.05,41.28-28.67,61.11-2.06,3.72-4.13,7.44-6.2,11.16Zm220.98-487.15c-.33.6-.66,1.19-.99,1.79,1.74-3.87,3.46-7.75,5.12-11.66,1.12-2.64,2.24-5.3,3.37-7.96,2.07-4.42,4.12-8.85,6.14-13.29,1.79-2.62,3.59-5.24,5.39-7.86-2.87,6.37-5.73,12.75-8.59,19.12-3.4,6.67-6.87,13.3-10.44,19.86Zm-294.73,325.43c.94-1.06,1.88-2.12,2.84-3.16-4.67,10.45-9.32,20.9-13.96,31.35,3.55-9.45,7.27-18.84,11.12-28.19Zm4.84-31.97c5.86-13.05,11.74-26.08,17.63-39.11-3.81,10.4-7.48,20.85-10.9,31.4-.11.33-.05.68.09.99-4.82,12.51-9.71,24.99-14.63,37.45-1.42,1.6-2.82,3.21-4.2,4.84,4.04-11.84,8.04-23.7,12.02-35.57Zm-17.33,41.98c-1.1,1.37-2.19,2.76-3.27,4.15,2.54-5.71,5.07-11.41,7.61-17.12.13-.3.27-.6.4-.89-1.57,4.62-3.15,9.24-4.74,13.86Zm218.6-463.87c.59-1.33,1.18-2.66,1.77-3.99.5-1.12,1-2.23,1.5-3.35-.64,2.29-1.26,4.58-1.89,6.87-.46.19-.92.36-1.38.54,0-.02,0-.05,0-.07Zm-.08,3.3c.16-.06.32-.11.47-.17-.11.41-.23.82-.34,1.23-.04.14-.07.28-.11.42-.02-.49-.02-.98-.03-1.47Zm-77.43,171.83c3.63-9.52,7.39-19,11.22-28.45-1.27,3.63-2.52,7.28-3.75,10.93-1.6,3.91-3.21,7.82-4.81,11.74-.89,1.93-1.78,3.85-2.66,5.78Zm42.95-95.01c.62-.63,1.23-1.28,1.83-1.95-3.38,7.29-6.77,14.57-10.14,21.87,2.76-6.64,5.53-13.28,8.31-19.92Zm-46.23,95.19c-4.43,11.63-8.69,23.31-12.93,35.01-5.2,11.28-10.4,22.56-15.6,33.84-5.77,12.51-11.54,25.02-17.29,37.53-.41.58-.82,1.15-1.22,1.73,22.96-57.07,46.43-113.94,69.24-171.06,1.74-4.35,3.47-8.71,5.2-13.06,1.27-2.74,2.53-5.48,3.8-8.22.42-.67.83-1.34,1.25-2.01,1.04-.33,2.06-.71,3.05-1.16-11.88,29.12-24.32,58.03-35.5,87.39Zm-74.48,150.26c.49-.4.98-.8,1.46-1.22-.26.66-.52,1.31-.79,1.97-6.94,17.17-14.26,34.17-21.69,51.13,6.93-17.32,13.95-34.61,21.01-51.88Zm2.82-6.88c1.79-4.36,3.57-8.71,5.36-13.07,3.92-9.54,7.81-19.09,11.69-28.64.99-2.15,1.98-4.31,2.97-6.46-6.1,15.48-12.22,30.96-18.41,46.4-.53.6-1.07,1.19-1.62,1.77Zm56.03-126.14c5.41-11.7,10.81-23.39,16.21-35.1-16.77,41.71-33.52,83.43-50.2,125.18,5.85-15.63,11.74-31.25,17.65-46.86,5.45-14.41,10.91-28.81,16.35-43.23Zm-30.81,73.09c-4.96,13.18-9.89,26.37-14.79,39.57-.67,1-1.36,2-2.06,3,5.66-14.17,11.25-28.38,16.85-42.57Zm81.5-180.81c1.77-2.89,3.51-5.79,5.21-8.72-1.01,2.52-2.03,5.04-3.05,7.56-.71.42-1.43.81-2.16,1.16Zm-166.82,376.5c-5.59,14.07-11.23,28.12-16.88,42.17,4.53-12.55,8.95-25.14,13.29-37.77,1.18-1.48,2.38-2.94,3.59-4.4Zm55.75-121.69c2.83-6.86,5.61-13.73,8.39-20.61.77-.86,1.52-1.74,2.26-2.64-4.84,13.12-9.63,26.26-14.35,39.43-7.66,16.84-15.29,33.69-22.89,50.55-1.18,1.14-2.42,2.19-3.71,3.14,10.24-23.25,20.65-46.43,30.31-69.87Zm265.98-257.69s-.06.09-.09.13c2.68-5.22,5.56-10.33,8.72-15.24-1.21,2.68-2.42,5.35-3.63,8.03-1.69,2.38-3.36,4.74-5,7.08Zm-2.85-.99c-2.66,5.29-5.12,10.66-7.49,15.97-3,4.38-6,8.77-9.03,13.13.82-2.6,1.57-5.21,2.24-7.86.04-.17.05-.34.04-.5.45-.76.91-1.51,1.36-2.27,5.5-9.2,10.87-18.5,16.78-27.44-1.29,2.99-2.59,5.99-3.9,8.97Zm27.28-49.53c-2.23,3.5-4.67,6.85-7.4,9.9,2.51-6.21,5-12.42,7.5-18.63.92.85,1.58,2.01,1.74,3.31-.59,1.81-1.21,3.62-1.85,5.42Zm-7.24-7.67c1.01-2.23,2.89-2.87,4.68-2.49-2.85,7.11-5.68,14.22-8.54,21.28-.47,1.16-.95,2.32-1.42,3.49-1.07.63-2.2,1.01-3.34.88-.58-.06-1.11-.28-1.59-.58,3.4-7.53,6.8-15.06,10.21-22.58Zm-146.66,328.28c5.73-12.86,11.45-25.72,17.17-38.58-.72,1.97-1.43,3.94-2.15,5.92-.83,1.86-1.65,3.72-2.49,5.57-3.92,8.64-7.75,17.31-11.58,25.99-.32.37-.63.74-.95,1.1Zm135.59-292.51c-5.74,7.8-10.95,15.94-16,24.19,5.21-11.58,10.43-23.16,15.66-34.73,1.32.78,2.86,1.09,4.63.72-1.26,3.06-2.52,6.11-3.8,9.17-.16.22-.32.44-.48.65Zm8.22-11.55c.18-.11.37-.21.55-.33-.31.42-.62.84-.93,1.26.13-.31.25-.62.38-.93Zm-147.13,311.77c.22-.2.43-.41.65-.61-.79,1.79-1.58,3.59-2.38,5.38-.38.86-.77,1.72-1.16,2.59.96-2.45,1.92-4.9,2.89-7.35Zm-36.42,97.28c3.48-5.7,7.04-11.36,10.7-16.96-4.88,11.61-9.93,23.14-15.03,34.66-2.6,5.76-5.2,11.51-7.8,17.26-2.15,4.33-4.36,8.63-6.62,12.9,5.6-14.68,11.04-29.42,16.49-44.08.76-1.26,1.5-2.53,2.27-3.78Zm3.43-11.4c.39-.78.77-1.56,1.15-2.34,10.61-21.81,20.38-44.03,29.87-66.37-5.77,16.34-11.63,32.64-17.86,48.8-4.52,6.54-8.9,13.19-13.16,19.91Zm126.49-289.45c5.68-11.74,11.55-23.47,16.25-35.65.54-.75,1.07-1.5,1.6-2.25,1.61-2.26,3.19-4.54,4.78-6.81-9.18,19.63-18.84,39.04-28.98,58.18,2.08-4.51,4.19-9,6.36-13.47Zm48.58-95.91c2-2.73,4.01-5.45,6.02-8.17-.17.37-.33.74-.5,1.11-1.97,2.33-3.83,4.75-5.6,7.25.03-.06.05-.13.08-.19Zm-153.23,328.21c-.11.24-.22.48-.33.72.08-.2.15-.4.23-.6.03-.04.06-.08.09-.12Zm-50.11,112.45c-.27.62-.55,1.24-.82,1.86-.06.02-.12.04-.19.06.34-.64.67-1.28,1.01-1.92Zm1.07,4.95c3.03-6.87,6.08-13.72,9.12-20.58-4.63,12.31-9.34,24.58-14.19,36.8-1.61,1.92-3.17,3.88-4.68,5.88,3.25-7.37,6.5-14.73,9.75-22.1Zm248.9-601.83c-.3,1.01-.62,2.02-.93,3.03-1.89,4.05-3.76,8.11-5.59,12.19,1.79-4.77,3.62-9.54,5.49-14.28.35-.31.7-.62,1.04-.94Zm-211.15,505.69c-1.88,4.85-3.77,9.7-5.65,14.55-1.75,4.52-3.47,9.05-5.19,13.58-1.6,3.58-3.19,7.15-4.78,10.73-3.86,7.46-7.85,14.84-11.83,22.23,9.18-20.35,18.33-40.72,27.46-61.09Zm-44.15,103.26c-2.44,5.53-4.89,11.06-7.33,16.6,1.17-3.92,2.51-7.79,3.98-11.61,1.08-1.69,2.19-3.35,3.35-4.99Zm134.34-298.71c1.77-4.27,3.55-8.53,5.36-12.78,1.98-3.49,3.95-7,5.89-10.52-4.38,9.2-8.72,18.42-13.03,27.65.6-1.45,1.18-2.9,1.78-4.35Zm132.95-337.74c-.15-.47-.27-.94-.37-1.43,1.06-2.32,2.13-4.63,3.22-6.93-.93,2.79-1.88,5.58-2.85,8.36Zm-165.69,98.16c.22-.47.43-.95.65-1.42-.64,1.99-1.29,3.97-1.94,5.96.43-1.51.86-3.02,1.29-4.54Zm14.77-44.18c.07-.2.13-.41.2-.61.18-.37.36-.74.54-1.11-.2.55-.4,1.09-.59,1.64-.05.03-.1.06-.14.08Zm-16.5,34.13c-.2.89-.39,1.78-.57,2.68-.17.86.34,1.56,1.01,1.79-.35,1.17-.7,2.34-1.04,3.51-.96,2.09-1.92,4.18-2.87,6.28-1.66,3.67-3.31,7.34-4.96,11.02,1.09-5.84,2.75-11.61,4.54-17.1,1.3-2.73,2.59-5.46,3.89-8.18Zm-12.64,42.04c.14,2.07.4,4.13.79,6.16,0,.03-.01.05-.02.08-8.38,17.78-16.72,35.58-25.01,53.4-1.22,1.9-2.51,3.77-3.87,5.57,9.19-21.81,18.54-43.55,28.12-65.21Zm-238.5,505.62c4.59-10.44,9.2-20.87,13.82-31.3,1.93-2.72,3.91-5.4,5.91-8.05-7.98,23-16.22,45.9-25.01,68.56-6.2,15.99-12.7,31.88-19.56,47.6,2.68-10.99,5.36-21.97,8.08-32.94,5.5-14.65,11.08-29.27,16.76-43.86Zm41.94-69.99c-1.06,1.09-2.11,2.19-3.15,3.29,4.39-10.46,8.91-20.88,13.47-31.28,1.1-.62,2.15-1.31,3.17-2.05-4.51,10.01-9,20.02-13.48,30.04Zm97.43,92.71c-.7,2.73-1.31,5.47-1.81,8.25-.6.99-1.19,1.99-1.77,2.99-1.03.89-2.06,1.79-3.07,2.7,2.19-4.66,4.42-9.3,6.66-13.93Zm114.15-240.27c2.9-3.99,5.65-8.11,8.28-12.32-.02.04-.04.09-.06.13-5.27,10.93-10.57,21.87-16.32,32.56,2.72-6.78,5.42-13.57,8.1-20.37Zm25.42-48.14c-6.66,11.77-13.12,24.03-20.48,35.6,1.3-3.3,2.6-6.61,3.9-9.91,12.94-28.4,26.05-56.74,39.49-84.91,4.02-8.41,8.11-16.78,12.17-25.16,3.45-5.69,6.84-11.42,10.16-17.19-10.41,23.31-20.81,46.62-31.19,69.94-4.69,10.54-9.37,21.08-14.06,31.62Zm148.14-376.95c-.77,1.52-1.56,3.03-2.37,4.53-.12.22-.24.44-.36.65,0,0-.02.01-.03.02.24-.72.47-1.43.7-2.15.87-1.52,1.79-3.02,2.73-4.49-.22.48-.44.96-.67,1.44Zm1.43-22.31c-1.56,2.92-3.1,5.86-4.59,8.81.21-.65.42-1.3.64-1.96,1.34-2.57,2.75-5.1,4.22-7.59-.09.25-.18.49-.27.74Zm-153,89.55c-3.86,6.03-8.06,11.82-12.67,17.29.23-.71.47-1.42.7-2.13,3.52-7.19,7.14-14.34,10.95-21.41.38-.71.77-1.43,1.15-2.14,2.42-1.91,4.72-3.99,6.9-6.15-2.35,4.85-4.7,9.69-7.04,14.54Zm-36.34,55.61c-.07-.81-.11-1.62-.13-2.44.29-.61.58-1.22.87-1.84-.28,1.42-.53,2.85-.74,4.27Zm-30.26,75.06c1.46-3.65,2.91-7.29,4.35-10.94,7.99-20.21,15.44-40.65,23.21-60.96.27,1.85.67,3.69,1.2,5.5-9.79,22.05-19.35,44.2-28.76,66.41Zm-239.62,532.89c-.32,1.33-.66,2.66-.99,3.99-4.05,8.89-8.23,17.71-12.55,26.47.31-.85.62-1.7.92-2.54,5.77-15.96,11.58-31.91,17.46-47.83-1.62,6.64-3.23,13.28-4.85,19.91Zm-21.46,52.31c.11-.09.22-.19.32-.32.05-.07.1-.14.15-.21-.53,1.2-1.07,2.41-1.6,3.61.37-1.03.75-2.06,1.12-3.09Zm182.19-97.31c.36-.34.72-.67,1.08-1.01-.74,1.34-1.47,2.68-2.19,4.02.37-1,.73-2.01,1.11-3.01Zm-4.71,16.24c-1.51,3.42-3.03,6.83-4.54,10.25.45-1.34.9-2.68,1.35-4.02,1.06-2.07,2.12-4.15,3.19-6.23Zm93.01-31.42c-.55-.12-1.18.04-1.61.64-.05.07-.11.15-.16.22-.25-.12-.53-.19-.8-.17,6.26-13.15,12.15-26.48,17.59-40.03,2.37-5.91,12.04-3.31,9.64,2.66-2.07,5.16-4.21,10.29-6.41,15.4-6.22,6.97-12.3,14.07-18.25,21.28Zm.49-158.54c6.22-15.7,12.47-31.4,18.75-47.08,3.28-5.19,6.35-10.51,9.29-15.9-9.34,21-18.68,41.99-28.05,62.98Zm230.43-568.45c-2.78,8.11-5.53,16.23-8.5,24.27-1.99,5.38-4.07,10.74-6.3,16.04-.33.74-.67,1.48-1,2.21-1.08,1.18-2.12,2.4-3.12,3.66,3.36-8.34,6.44-16.79,9.02-25.41.38-1.26-.93-2.12-1.94-1.8.44-1.09.88-2.18,1.33-3.26,3.38-8.12,7.07-16.67,12.06-24.15-.5,2.81-1.02,5.62-1.55,8.43Zm-15.49,20.01c-.09.23-.19.47-.28.7-.98,1.34-1.94,2.7-2.86,4.08,1.87-4.29,3.72-8.6,5.53-12.92-.79,2.72-1.59,5.43-2.39,8.14Zm-37.12,82.7c-.03.08-.06.16-.1.25-.12.23-.24.46-.36.69.29-.66.57-1.32.85-1.98-.13.35-.26.7-.4,1.05Zm-140.35,60.99c.18-1.49.39-2.97.61-4.45,1.22-3.73,2.43-7.46,3.63-11.2.59-.64,1.17-1.28,1.75-1.93,1.28-.93,2.52-1.88,3.77-2.83-3.26,6.8-6.52,13.6-9.77,20.41Zm30.41-63.18c-2.28,2.64-4.7,5.24-7.26,7.67.69-1.29,1.38-2.59,2.07-3.89,2.01-1.52,3.92-3.18,5.74-4.93-.19.38-.37.76-.55,1.15Zm-7.48,1.67c-.96.73-1.94,1.43-2.95,2.1.39-1.36.79-2.73,1.21-4.08.72-1.88,1.43-3.76,2.15-5.64,5.6-9.99,11.02-20,16.09-30.21-4.01,13.16-10.09,25.64-16.5,37.83Zm-349.29,776.59c2.26-6.57,4.44-13.16,6.55-19.78,6.26-17.05,12.31-34.17,18.12-51.4,2.1-6.22,4.18-12.45,6.26-18.68,4.08-9.42,8.17-18.82,12.25-28.24,1.2-2.77,2.41-5.55,3.61-8.32-15.38,41.35-30.26,82.88-45.31,124.35-.5.69-.99,1.38-1.48,2.07Zm176.39-84.82c1.64-2.91,3.28-5.82,4.92-8.72.7-1.24,1.39-2.49,2.07-3.74-3.15,9.17-6.47,18.28-10.31,27.15-.76,1.71-1.53,3.42-2.29,5.13-2.17,4.69-4.5,9.3-7.07,13.8-.37.65-.23,1.26.15,1.68-.06.14-.12.28-.19.42-.55,1.23-1.11,2.46-1.67,3.69-5.41,9.96-10.7,19.97-15.84,30.04,6.93-16.17,13.93-32.31,21-48.42,3.07-7.01,6.15-14.02,9.23-21.02Zm-74.5,178.46c1.3-3.63,2.63-7.26,3.98-10.87,1-2.08,2-4.17,3-6.26-1.75,4.58-3.52,9.14-5.3,13.7-.56,1.14-1.12,2.28-1.68,3.43Zm19.55-41.49c2.15-5.5,4.41-10.95,6.68-16.4,8.88-19.04,17.65-38.13,26.34-57.27,1.67-2.2,3.5-4.28,5.55-6.14-13.53,28.78-27.19,57.49-41.02,86.13.82-2.11,1.63-4.22,2.45-6.33Zm154.81-183.18c-.81,1.54-1.64,3.08-2.46,4.62.45-1.02.9-2.04,1.37-3.05.36-.52.73-1.04,1.09-1.57Zm4.89-2.89c2.1-4,4.21-8,6.3-12.01,5.01-6.16,10.11-12.24,15.32-18.23-3.22,7.23-6.55,14.41-9.98,21.54-7.95,10.91-15.13,22.34-22.65,33.53,3.61-8.3,7.41-16.52,11.02-24.83ZM792.18,114.68s-.09-.03-.14-.04c.21-.61.42-1.23.63-1.84-.16.63-.33,1.26-.49,1.88Zm-8.3,7.17c-3.67,4.53-6.6,9.8-9.18,14.93,1.04-3.66,2.07-7.31,3.09-10.97,2.31-3.84,4.74-7.61,7.31-11.28-.4,2.44-.81,4.88-1.22,7.31Zm-63.8,138.7c-.62,1.46-1.24,2.92-1.87,4.38-.14,0-.28-.01-.42-.03.33-.8.67-1.6,1-2.4.44-.65.87-1.29,1.29-1.94Zm-75.51-75.99c1.07-2.98,2.15-5.96,3.22-8.94-.43,1.7-.88,3.41-1.33,5.11-.63,1.28-1.26,2.56-1.89,3.83Zm-6.29,8.61c-2.03,5.65-4.12,11.34-6.31,17.03-2.43,4.95-4.84,9.91-7.26,14.86-2.25,3.05-4.67,5.95-7.31,8.62,6.54-12.92,12.34-26.22,15.48-40.35.17-.75-.13-1.3-.6-1.6,1.63-3.49,3.24-7.01,4.78-10.57,1.4-3.25,2.78-6.51,4.14-9.77,3.21-5.7,6.43-11.4,9.62-17.11.63-1.13,1.26-2.25,1.89-3.38-.21,1.54-.45,3.08-.7,4.62-4.72,12.49-9.22,25.06-13.73,37.65Zm-151.9,29.4c-6.94,13.59-13.44,27.38-19.78,41.25,1.07-4.27,2.08-8.56,3.03-12.86,5.61-10.53,11.25-21.04,16.91-31.54-.05,1.05-.11,2.1-.17,3.14ZM199.35,810.91c.97-2.1,1.95-4.21,2.92-6.31-4.5,11.45-8.48,23.1-12.8,34.63-.42-.16-.84-.34-1.25-.55,3.64-9.28,7.34-18.55,11.12-27.77Zm25.42-48.23c-6.91,15.42-13.92,30.8-21,46.14,6.11-15.78,13.3-31.08,21-46.14Zm33.36,264.24c.23-.38.47-.76.7-1.14-.47,1.12-.94,2.24-1.4,3.36.23-.74.47-1.48.7-2.22Zm141.29-14.56c.94-1.98,1.87-3.97,2.81-5.95-4.49,10.53-8.97,21.07-13.39,31.63-2.11,5.04-4.19,10.09-6.29,15.14,1.94-5.76,3.84-11.53,5.69-17.32,3.74-7.83,7.46-15.66,11.18-23.49Zm-52.51,129.47c-.29.75-.78,1.69-1.19,2.66-.09-.1-.18-.21-.26-.3.84-1.68,1.66-3.37,2.49-5.06-.35.9-.7,1.8-1.05,2.71Zm155.62-193.39c7.3-12.32,14.43-24.74,21.31-37.29-.15.41-.3.81-.45,1.22-4.98,9.27-9.99,18.53-15.04,27.77-1.96,2.76-3.91,5.52-5.83,8.31Zm-8.52,17.86c-3.1,5.62-6.21,11.24-9.32,16.85.44-1.61.88-3.22,1.31-4.83,2.66-4.02,5.33-8.03,8.01-12.02Zm27.99,216.23c-.77,1.98-1.54,3.96-2.29,5.94-4.28,11.22-9.21,22.31-14.03,33.46-.32-.78-1.38-1.37-2.15-.79-.23.18-.45.37-.68.55,6.44-13.03,12.85-26.08,19.16-39.17Zm-15.63,54.56c.23-1.82.4-3.68.46-5.52,10.65-24.86,21.62-49.59,32.7-74.26,6.25-13.93,12.52-27.85,18.79-41.77.42-.02.83-.24,1.08-.76,7.96-16.6,15.94-33.2,23.85-49.84-6.21,17.59-13.12,34.94-20.18,52.09-17.53,40.66-37.04,80.39-56.69,120.06Zm305.21-396.65c-.6,1.35-1.2,2.7-1.81,4.04-1.94,4.26-3.96,8.49-6.07,12.68,2.61-5.58,5.24-11.15,7.87-16.72Zm29.61-70.65l.49-1.08c-.02.06-.03.11-.05.16-.14.31-.29.61-.44.92Zm-6.86,15.44c-.15.25-.3.5-.46.74.99-2.18,1.97-4.36,2.96-6.54-.85,1.93-1.68,3.86-2.5,5.8Zm-17.45-444.39c.22-.12.44-.25.66-.37-.6,1.11-1.21,2.22-1.82,3.33.37-.99.77-1.97,1.16-2.95Zm-28.9-223.36c-.12.12-.25.24-.37.35.48-2.87.94-5.73,1.41-8.6,1.02-1.34,2.06-2.67,3.13-3.98-1.37,4.08-2.76,8.16-4.16,12.23Zm-5.09-4.89c1.3-2.76,2.6-5.53,3.9-8.29-.2,1.24-.39,2.48-.59,3.71-1.13,1.5-2.23,3.03-3.31,4.57Zm-269.95,60.35c-.94,1.74-1.88,3.48-2.83,5.22,1.21-2.75,2.42-5.5,3.63-8.25-.27,1.01-.53,2.02-.8,3.03Zm8.03-19.27c4.05-9.01,8.15-17.99,12.34-26.93-1.69,5.3-3.39,10.6-5.09,15.9-3.09,6.35-6.18,12.7-9.27,19.05.68-2.67,1.35-5.34,2.02-8.02Zm-27.98,56.24c-1.14,2.15-2.27,4.31-3.4,6.46.03-.9.07-1.8.1-2.71,1.24-2.29,2.47-4.59,3.71-6.88.92-1.7-1.67-3.21-2.59-1.51-.35.65-.7,1.29-1.04,1.94,0-2.16-.04-4.32-.11-6.47,1.05-1.96,2.09-3.93,3.15-5.89,3.66-6.78,7.37-13.53,11.11-20.26-.68,6.35-2.75,12.7-4.77,18.51-1.96,5.63-4.06,11.22-6.16,16.81Zm-199.9,99.4c-.1.07-.19.15-.29.23.47-1.14.94-2.29,1.41-3.43,1.27-2.78,2.54-5.56,3.81-8.34-1.65,3.84-3.3,7.69-4.92,11.54Zm-107.13,244.89c5.21-11.02,10.46-22.01,15.74-32.99-.47,1.21-.95,2.42-1.42,3.63-8.61,22.15-17.3,44.29-26.52,66.2,1.51-6.37,3.08-12.73,4.73-19.06,2.48-5.93,4.98-11.86,7.47-17.78Zm43.25-89.73c-1.06,2.75-2.13,5.49-3.2,8.24-1.01,1.53-2.03,3.07-3.05,4.59,2.08-4.28,4.16-8.56,6.25-12.83Zm-42.11,377.17c.38.2.78.37,1.19.54-2.65,5.65-5.3,11.29-7.96,16.93.02-.06.04-.11.07-.17,2.22-5.77,4.45-11.54,6.7-17.3Zm6.08-1.54c-.28-.03-.56-.05-.84-.09,2.38-5.12,4.77-10.23,7.15-15.35,2.45-5.26,4.89-10.53,7.33-15.79-4.51,10.43-9.06,20.85-13.65,31.24Zm-1.34,3.04c-1.59,3.59-3.2,7.18-4.8,10.77,1.41-3.62,2.79-7.24,4.13-10.88.22.04.44.07.67.11Zm77.96-160.74c-.78,1.7-1.55,3.41-2.34,5.11-.18.4-.2.77-.12,1.09-3.45,7.36-6.9,14.73-10.34,22.1,3.58-7.85,6.99-15.77,10.27-23.75.84-1.52,1.68-3.04,2.53-4.55Zm-12.73,329.36c1.53-3.94,3.08-7.86,4.64-11.79-3.43,10.91-6.88,21.81-10.39,32.69-2.66,4.73-5.17,9.55-7.56,14.42,4.37-11.82,8.77-23.61,13.3-35.32Zm-66.84,171.95c.16-.5.32-.99.48-1.49,4.13-10.27,8.29-20.52,12.58-30.73,4.06-9.66,8.31-19.23,12.25-28.94,7.66-18.88,14.71-38.01,22.86-56.69,1-2.3,2.02-4.59,3.06-6.88-6.03,16.01-12.02,32.05-18.08,48.05-1.68,4.44-3.38,8.88-5.08,13.32-9.79,23.57-19.79,47.05-29.66,70.59-.81,1.51-1.64,3.01-2.47,4.51,1.39-3.91,2.76-7.82,4.07-11.75Zm68.75-150.14c1.89-4.57,3.8-9.13,5.71-13.69-3.09,7.97-6.14,15.96-9.13,23.98-8.17,21.93-16.17,44.15-24.65,66.2.16-.45.32-.89.49-1.34,9.2-25.05,18.4-50.09,27.58-75.15Zm114.76,127.23c-1.04,3.91-2.11,7.82-3.23,11.71.17-3.02.81-6.06,1.57-8.96.55-.92,1.1-1.84,1.65-2.75Zm5.52-9.23c3.3-5.55,6.59-11.12,9.87-16.69-4.05,9.73-8.39,19.33-13.01,28.77,1.07-4.04,2.11-8.07,3.14-12.08Zm80.22-132.3c-.9,1.8-1.79,3.59-2.7,5.38-5.36,10.5-10.83,20.94-16.35,31.35,5.06-10.42,10.23-20.8,15.49-31.13,1.19-1.87,2.38-3.73,3.57-5.6Zm14.63-22.75c2.17-3.35,4.35-6.69,6.53-10.03-.74,2.69-1.5,5.38-2.28,8.06-5.54,9.95-11.09,19.89-16.65,29.82-6.92,12.36-13.86,24.7-20.8,37.05,11.38-21.47,22.62-43.01,33.19-64.9Zm28.78-40.07c2.77-5.05,5.53-10.11,8.29-15.17.93-1.32,1.86-2.64,2.8-3.96-3.17,7.85-6.46,15.66-9.48,23.57-.45,1.17-.88,2.35-1.32,3.52-8.13,12.73-16.18,25.51-24.07,38.38.7-2.35,1.38-4.71,2.06-7.07,7.28-13.07,14.53-26.16,21.73-39.27Zm-4.51,275.25c1.45-2.36,3.08-4.66,5.02-6.52.1.51.18,1.03.24,1.55-3.69,8.67-7.25,17.4-10.29,26.26.17-3.48.18-6.98.11-10.49,1.67-3.58,3.31-7.19,4.92-10.81Zm170.19-71.98c.49-.97.96-1.94,1.43-2.92.42-.4.83-.81,1.23-1.22-2.54,5.22-5.07,10.44-7.62,15.66,1.66-3.84,3.32-7.68,4.96-11.52Zm5.85-12.45c1.22-2.75,2.4-5.51,3.56-8.27,2.36-5.6,4.61-11.25,6.81-16.92,3.23-7.12,6.42-14.25,9.56-21.41-1.41,4.62-2.81,9.26-4.21,13.92-3.03,6.18-5.8,12.5-8.45,18.81-.66,1.56-1.3,3.13-1.94,4.69-.77,1.59-1.55,3.17-2.32,4.76-.96,1.51-1.95,2.99-3,4.42Zm100.41-217.02c-8.04,18.16-15.68,36.5-23.45,54.78-1.08,1.98-2.16,3.96-3.24,5.94,10.28-26.52,20.62-53.01,30.94-79.51,3.97-9.12,8.02-18.21,12.15-27.26,3.52-5.19,6.82-10.49,9.91-15.93-6.54,15.6-13.08,31.19-19.51,46.83-2.29,5.04-4.56,10.09-6.81,15.15Zm39.02-84.65c4.92-11.83,9.74-23.7,14.55-35.57,1.62-1.75,3.17-3.57,4.63-5.46-6.84,15.17-13.88,30.25-20.97,45.31.59-1.42,1.19-2.85,1.79-4.27Zm22.26-50.59c-1.26,1.96-2.59,3.91-3.98,5.82.57-1.4,1.13-2.79,1.7-4.19,1.86-4.59,3.76-9.16,5.61-13.75,2.29-3.45,4.67-6.84,7.19-10.14.23-.3.47-.58.7-.88-2.22,5.26-4.48,10.51-6.77,15.74-1.42,2.5-2.89,4.97-4.45,7.39Zm16.37-33.21c-.37,0-.73.12-1,.42-2.49,2.79-4.86,5.66-7.13,8.61.26-.56.51-1.13.77-1.69.19-.17.34-.39.44-.69.1-.33.25-.72.39-1.13.97-2.12,1.95-4.25,2.91-6.38.78-1.73-1.7-3.26-2.59-1.51-.85,1.67-1.69,3.34-2.51,5.02-.09.08-.18.17-.27.27,4.1-9.07,8.21-18.13,12.29-27.2,1.04-2.3,2.99-2.91,4.82-2.46-.7,2.94-1.46,5.87-2.28,8.77-1.7,6.03-3.65,12.04-5.86,17.95Zm12.4-498.54c-.24.39-.48.78-.72,1.17,1.96-6.69,3.69-13.44,5.25-20.22.12.31.23.61.34.92-.37,2.77-.9,5.52-1.6,8.24-1.08,3.3-2.17,6.6-3.27,9.89Zm-51.09,77.32c-1.17,2.96-2.27,5.94-3.27,8.96-.89,2.66-1.72,5.38-2.37,8.14-3.04,5.56-6.05,11.13-9.01,16.74-.93,1.77-1.86,3.56-2.78,5.34-4.88,8.55-9.73,17.11-14.54,25.69-1.09,1.81-2.17,3.63-3.25,5.45,6.6-12.66,13.18-25.33,19.57-38.11,5.73-11.47,11.11-23.05,16.18-34.78-.18.56-.37,1.12-.54,1.68-.1.33-.09.63.01.9Zm-67.44,126.85c-.26.27-.52.56-.78.83-.61.62-1.24,1.23-1.86,1.84,1.22-5.8,4.2-11.3,7.05-16.36,1.42-2.52,2.87-5.03,4.31-7.53-.65,2.36-1.24,4.74-1.76,7.14-2.35,4.68-4.67,9.37-6.97,14.08Zm66.53-413.3c.39.91.46,2.01.05,3.25-1.27,3.81-2.56,7.62-3.87,11.42.12-2.18.22-4.36.26-6.54.49-1.55.99-3.09,1.48-4.64.69-1.17,1.38-2.34,2.08-3.5Zm-15.31,34.82c-1.08,3.28-2.16,6.56-3.25,9.84-.36-.02-.73.11-1.02.45-1.13,1.3-2.22,2.61-3.3,3.94.44-2.78.88-5.55,1.32-8.33.45-.93.89-1.87,1.35-2.81,1.92-3.96,3.88-7.9,5.88-11.82-.22,2.92-.56,5.83-.97,8.72Zm-4.61-4.29s0-.02,0-.03c1.97-5.51,3.9-11.04,5.8-16.56.08,1.67.11,3.34.09,5.02-2.01,3.84-3.97,7.7-5.9,11.58Zm-112.81,9.15c1.07-1.88,2.21-3.75,3.42-5.55-2.12,7.53-4.37,15.02-6.8,22.45,1.11-5.64,2.23-11.27,3.38-16.9Zm-155.35,44.24s0-.02,0-.03c0-.02.02-.03.03-.05-.01.03-.02.05-.04.08Zm-6.65,14.67c-4.05,9.03-8.04,18.08-12.02,27.15.74-3.66,1.14-7.35,1-11,4.09-7.31,8.23-14.59,12.43-21.84-.46,1.9-.94,3.8-1.41,5.7Zm-9.36,7.09c5.04-10.36,10.09-20.71,15.14-31.07-.63,2.71-1.27,5.42-1.92,8.13-4.47,7.61-8.87,15.25-13.22,22.93Zm-337.41,429.22c-1.28,5.44-2.53,10.88-3.73,16.34-1.4,3.23-2.82,6.44-4.26,9.66,2.43-8,4.81-16.01,7.17-24.04.27-.65.54-1.3.81-1.95Zm44.55-96.13c1.71-2.44,3.42-4.88,5.11-7.33-1.09,2.81-2.19,5.61-3.29,8.41-5.55,12.92-11.09,25.86-16.6,38.8-3.53,8.3-7.05,16.6-10.57,24.91,8.56-21.54,16.86-43.2,25.34-64.78Zm-59.88,416.19c2.62-7.3,5.33-14.56,8.08-21.81,4.33-9.41,8.67-18.81,13-28.21-4.69,12.09-9.35,24.2-13.96,36.32-2.99,6.29-5.97,12.57-8.96,18.85.61-1.72,1.23-3.43,1.84-5.15Zm13.58-20.52c-.06.15-.12.29-.19.44-1.72,4.02-3.45,8.04-5.21,12.04.69-1.82,1.38-3.64,2.08-5.46,1.1-2.34,2.21-4.68,3.31-7.02Zm25.4-45.24c.11,0,.23,0,.34-.01-3.37,7.29-6.74,14.57-10.1,21.86,3.28-7.27,6.53-14.55,9.76-21.85Zm1.45-3.28c4.76-10.8,9.47-21.63,14.14-32.48-1.94,5.06-3.86,10.13-5.76,15.21-2.65,5.73-5.3,11.47-7.95,17.21-.14.02-.29.04-.43.06Zm44.86-101.95c.67.56,1.83.61,2.33-.31,3.02-5.63,5.9-11.33,8.67-17.08-9.47,20.28-18.92,40.57-28.35,60.87,5.73-14.51,11.52-29.01,17.36-43.48Zm-32.57,425.55c-.12.26-.24.52-.36.79,2.76-7.2,5.5-14.41,8.22-21.62-2.5,7-5.09,13.96-7.86,20.84Zm177.72-15.22c4.3-9.73,8.32-19.58,12.06-29.53,4.09-6.97,8.19-13.94,12.3-20.89,9.47-16.01,19.17-31.87,29.01-47.64-.34.69-.68,1.38-1.02,2.07-9.44,19.38-18.43,38.97-27.56,58.49-3.06,5.87-6.1,11.76-9.09,17.67-1.46,2.88-2.91,5.77-4.36,8.66-5.47,9.53-10.81,19.14-16,28.83-2.18,2-4.35,4-6.53,6,3.95-7.79,7.67-15.68,11.2-23.66Zm88.01-140.74c-.56,1.84-1.14,3.68-1.71,5.51-1.04,1.73-2.1,3.45-3.13,5.18-5.6,9.36-11.05,18.8-16.4,28.3-1.76,2.78-3.52,5.56-5.28,8.34,8.86-15.77,17.71-31.54,26.52-47.33Zm224.6,67.77c-.5,1.13-1,2.25-1.5,3.38-3.44,7.71-7.31,15.2-11.23,22.67,2.76-5.72,5.51-11.45,8.26-17.17,1.5-2.96,2.99-5.92,4.48-8.88Zm-29.27,68.98c3.38-7.2,6.8-14.39,10.46-21.45-2.84,6.75-5.71,13.49-8.6,20.22-1.57,3.31-3.15,6.62-4.73,9.92.51-2.14,1.11-4.27,1.77-6.37.36-.77.72-1.54,1.09-2.32Zm110.23-217.52c1.48-3.65,2.97-7.31,4.47-10.95,8.82-19.41,17.93-38.7,27.02-57.99,10.78-22.88,21.51-45.78,31.65-68.95.45-.8.89-1.61,1.33-2.42-9.38,20.67-18.78,41.33-28.25,61.96-12,26.15-24.08,52.26-36.22,78.35Zm-18.13-501.1c-5.2,10.54-11.18,21.16-18.85,30.22,5.76-12.38,12.78-24.32,19.32-36.21,3.38-6.15,6.79-12.29,10.21-18.42-3.24,8.27-6.75,16.44-10.68,24.4Zm53.06-158.19c-.39.56-.79,1.11-1.18,1.67.06-.19.11-.38.17-.57,1.81-4.59,3.64-9.17,5.48-13.75.47-1.17.96-2.34,1.43-3.51-.38,1.14-.77,2.27-1.16,3.4-1.49,4.29-3.08,8.54-4.74,12.77Zm-.22-12.93c-1.1,4.44-2.35,8.84-3.67,13.22-1.52,3.85-3.03,7.7-4.53,11.55-2.68,3.72-5.37,7.43-8.12,11.1-3.23,4.32-9.95,1.4-9.58-2.73.35-.81.7-1.63,1.04-2.45,8.99-12.03,17.51-24.4,26.24-36.62-.43,1.98-.89,3.96-1.38,5.92Zm-5.54-201.94c-.02-.44-.03-.88-.05-1.31,0-.03,0-.06,0-.09.16.03.32.06.47.11-.14.43-.28.86-.41,1.29Zm-125.68,30.18c.29-.82.59-1.65.87-2.47-.01.49-.03.97-.06,1.46-.27.33-.55.67-.81,1.01Zm-127.1-1.82c-5.14,7.9-10.19,15.85-15.17,23.86-.48,0-.94.21-1.2.73-.9,1.85-1.79,3.71-2.69,5.56-3.45,5.63-6.87,11.28-10.25,16.95.72-3.1,1.44-6.19,2.15-9.29,8.64-14.15,17.97-27.86,28.24-40.83-.35,1.01-.72,2.01-1.08,3.02Zm-193.46,82.9c1.62-3.52,3.25-7.04,4.88-10.56.45-.97.9-1.94,1.34-2.91-3.56,11.24-8.86,21.92-14.25,32.47,2.92-6.24,5.65-12.56,8.03-19Zm-96.04-84.64c-17.9,43.17-38,85.37-57.76,127.71-7.67,16.43-15.18,32.91-22.54,49.45.52-1.47,1.04-2.93,1.57-4.4,3.46-9.71,6.95-19.42,10.5-29.1,9.29-20.21,18.87-40.29,28.71-60.24.85-1.73-1.74-3.25-2.59-1.51-4.31,8.74-8.56,17.5-12.77,26.28,6.93-17.75,14.37-35.25,21.77-52.81,4.25-10.09,8.27-20.4,12.44-30.66,2.72-4.95,5.51-9.86,8.42-14.68,3.17-5.25,6.47-10.44,9.73-15.66,2.17.79,3.68,2.83,2.53,5.61Zm-50.78,89.72c-.63,1.55-1.26,3.1-1.89,4.66-6.39,16.01-12.48,32.15-18.41,48.34-1.62,3.53-3.23,7.06-4.83,10.59,5.52-15.29,11.07-30.58,16.82-45.78,2.77-5.93,5.54-11.87,8.3-17.81Zm-40.74,431.89c1.02-2.36,2.03-4.72,3.04-7.08-3.99,10.16-7.97,20.32-11.94,30.49.44-2.22.9-4.44,1.36-6.65,2.61-5.55,5.11-11.14,7.55-16.76Zm-26.84,320.18c-2.42,6.78-4.85,13.56-7.38,20.31-10.43,21.77-20.96,43.49-31.62,65.14,12.95-28.51,25.95-56.99,39-85.45Zm-4.75,21.76c2.33-4.86,4.65-9.73,6.97-14.6-1.47,3.98-2.93,7.96-4.37,11.95-1.58,2.9-3.21,5.78-4.88,8.64.77-2,1.53-4,2.28-6Zm39.13,250.67c-2.78,6.96-5.57,13.93-8.36,20.88,1.44-4.5,2.9-8.99,4.38-13.48,1.35-2.46,2.68-4.92,3.99-7.4Zm-1.28,15.8c.62.75,2.05.97,2.55-.1,3.82-8.12,7.5-16.31,11.09-24.53,3.28-6.35,6.42-12.76,9.45-19.24-1.9,4.93-3.8,9.85-5.73,14.77-2.36,6.01-4.74,12-7.16,17.99-5.31,10.03-10.95,19.88-16.97,29.5,1.76-5.5,3.65-10.96,5.58-16.41.4-.66.79-1.32,1.18-1.98Zm185.84-34.68c.04,1.59.22,3.16.58,4.7-1.64,3.06-3.34,6.1-5.06,9.11,1.55-4.59,3.03-9.2,4.48-13.81Zm10.11-.69c-2.8,5.35-5.55,10.73-8.25,16.14-.91,1.67-1.82,3.34-2.72,5.02,1.85-5.2,3.54-10.47,5.11-15.77,1.95-1.8,3.91-3.59,5.86-5.39Zm101.37,116.58s0,0,0,0c.13-.13.25-.26.37-.38-.24.6-.48,1.19-.71,1.79.11-.47.23-.94.34-1.41Zm189.41-152c-.93,2.41-1.8,4.85-2.57,7.3-5.33,11.37-10.68,22.73-16.96,33.61-.75,1.31-1.54,2.59-2.32,3.88,7.31-14.92,14.59-29.85,21.85-44.79Zm-5.68,20.84c-.04.51.18,1.06.54,1.42-2.19,4.58-4.37,9.17-6.54,13.77-2.01,3.06-4.19,5.99-6.61,8.69,4.59-7.74,8.69-15.77,12.61-23.88Zm147.89-824.58c-2.76,5.35-5.57,10.68-8.46,15.97.97-2.14,1.94-4.27,2.9-6.4,1.85-3.19,3.7-6.38,5.55-9.57Zm-26.37,47.53c-1.34,2.36-2.66,4.73-3.98,7.1.46-1.29.93-2.57,1.38-3.86.09-.27.18-.53.28-.8,2.23-3.95,4.48-7.9,6.72-11.85-1.46,3.14-2.93,6.27-4.4,9.41Zm-97-307.61c0-.09-.02-.18-.02-.27.05-.08.1-.16.15-.24-.04.17-.09.34-.13.5Zm-126.96-4.84c-7.83,9.41-15.14,19.25-22,29.41,2.16-4.42,4.32-8.84,6.49-13.26,5.39-8.37,11.27-16.38,17.9-23.79-.76,2.56-1.56,5.1-2.39,7.63Zm-183.84,84.63c-23.63,48.59-46.62,97.5-69.07,146.65-4.47,9.8-8.92,19.61-13.35,29.42,3.14-8.26,6.3-16.52,9.48-24.77,13.59-30.39,27.23-60.77,41.68-90.76,10.1-20.98,20.61-41.78,31.77-62.22-.07.55-.23,1.11-.51,1.68Zm-9.7,10.93c2.59-5.94,4.88-11.98,6.57-18.22.89.33,1.72.89,2.36,1.63-3.03,5.5-6,11.04-8.94,16.59Zm-269.47-20.62c3.3-5.92,6.43-11.95,9.45-18.03-3.38,8.6-7.22,17-10.98,25.44-.26-.44-.44-.92-.55-1.43.66-2.01,1.35-4,2.07-5.98Zm14.71-6.28c-.71.04-1.39.52-1.37,1.44,0,.41,0,.81,0,1.22-2,3.8-4.05,7.58-6.17,11.3-.63,1.11-1.48,1.8-2.41,2.15,1.51-4.97,3-9.95,4.56-14.87,3.56-11.25,7.54-22.32,13.03-32.79,5.37-10.24,11.76-19.88,18.19-29.47.58-.87,1.17-1.75,1.75-2.62-.4,2.14-1.08,4.2-1.57,5.69-2.71,8.35-6.34,16.43-9.95,24.42-5.08,11.26-10.36,22.51-16.06,33.52Zm-13.13,16.14c-.27-.09-.54-.2-.8-.33.97-2.19,1.94-4.37,2.91-6.56-.7,2.3-1.41,4.59-2.11,6.88Zm8.37,86.13c-2.59,8.1-5.2,16.2-7.8,24.3-1.35,3.7-2.71,7.39-4.08,11.09-4.67,10.02-9.49,19.98-14.01,30.07,6.88-24.59,16.99-48.09,27.74-71.32-.62,1.95-1.23,3.91-1.85,5.86Zm44.93,69.61c-2.52,6.33-5.05,12.66-7.6,18.97-3.06,7.56-6.13,15.12-9.21,22.67,5.46-13.94,11.06-27.82,16.81-41.64Zm39.51-88.34c-6.22,17.17-12.37,34.37-18.69,51.5-1.45,3.37-2.89,6.75-4.32,10.13,4.95-13.94,9.99-27.85,15.24-41.68,2.53-6.67,5.13-13.32,7.77-19.95Zm-108.97,304.3c-.91,2.9-1.82,5.81-2.81,8.7-.17.35-.33.7-.5,1.05.1-1.38.18-2.76.23-4.14.02-.47-.15-.82-.41-1.06,1.25-2.2,2.6-4.35,4.08-6.4-.2.62-.4,1.23-.59,1.85Zm-17.78,60.84c-.21.32-.42.64-.63.95.68-6.3,2.21-12.53,4.22-18.63-1.05,5.91-2.18,11.84-3.59,17.68Zm55.24,125.93c-.32.81-.62,1.62-.95,2.43-1.25,3.14-2.54,6.26-3.86,9.36,1.6-3.93,3.2-7.86,4.81-11.8Zm8.08,2.65c9.87-23.96,18.48-48.29,26.41-72.85,2.94-4.95,5.69-10.01,8.3-15.15-.71,3.55-1.39,7.1-2.06,10.65-.05.26-.09.52-.14.77-2.19,5.64-4.4,11.28-6.59,16.93-.57,1.49-1.15,2.97-1.72,4.46-10,24.29-19.95,48.59-29.86,72.92,1.9-5.91,3.78-11.82,5.67-17.74Zm22.01,223.65c2.89-5.4,5.67-10.86,8.37-16.37-4.47,9.74-8.92,19.49-13.38,29.23,1.1-3.05,2.2-6.11,3.3-9.16.57-1.24,1.13-2.47,1.7-3.71Zm5.08,308.46c-2.15-1.26-3.37-3.82-1.52-6.44,2.1-2.98,4.16-6,6.18-9.03-1.52,5.17-3.06,10.33-4.66,15.48Zm2.88.81c2.58-8.33,5.04-16.71,7.47-25.08.98-1.56,1.95-3.12,2.91-4.69,1.04-1.72,2.07-3.44,3.08-5.17-1.28,4.01-2.57,8.02-3.82,12.05-.34,1.08.51,1.81,1.4,1.83-1.65,4.05-3.29,8.09-4.97,12.13-1.14,2.75-2.29,5.5-3.45,8.24-.82.49-1.73.7-2.63.69Zm11.55-14.41c-.23.77-.46,1.53-.68,2.3-.03.11-.06.22-.09.33-.28.42-.57.85-.85,1.27.54-1.3,1.09-2.6,1.62-3.9Zm186.73-30.96c.57.08,1.18-.1,1.53-.66,2.18-3.45,4.27-6.95,6.33-10.48-3.93,11.32-8.62,22.43-14.7,32.75,2.29-7.2,4.57-14.4,6.84-21.61Zm118.57,74.61c1.16-1.99,2.3-4,3.42-6.02-.42,1.67-.81,3.35-1.15,5.03-.77,3.82-1.5,7.92-1,11.84-1.51,6.32-3.06,12.63-4.64,18.94-1.08,2.26-2.17,4.52-3.25,6.78-.66,1.38-1.65,2.14-2.74,2.43-.09-8.25.91-16.55,2.41-24.73,2.31-4.76,4.63-9.52,6.95-14.27Zm154.75-60.48c4.11-8.33,8.19-16.68,12.28-25.02.46.5,1.21.73,1.85.31,2.59-1.71,4.94-3.75,7.09-6-5.75,12.43-11.29,24.94-16.4,37.64-.14.22-.27.43-.41.65-3.16-.28-6.28-3.78-4.41-7.57ZM890.63,223.92s-.04.1-.21.31c-.03.11-.1.2-.22.26-.4.48-.82.94-1.22,1.42-.03.03-.01,0,.01-.03-.06.08-.14.19-.27.36-.33.44-.66.89-.98,1.34-.77,1.07-1.52,2.15-2.27,3.23-4.07,5.93-7.93,12-11.75,18.09-.08-.47-.17-.93-.28-1.39.3-1.21.6-2.43.88-3.65,2.83-8.7,5.65-17.41,8.53-26.09,2.35-2.48,5.21-4.09,8.73-1.31,3.03,2.4,1.67,5.89-.98,7.44Zm-189.02-152.37c-.21.25-.41.51-.62.76-.05-.28-.11-.56-.15-.85-.18-1.05-1.41-1.25-2.2-.9-3.22,1.45-6.1,3.34-8.71,5.57.76-2.91,1.51-5.81,2.24-8.73.58-.74,1.18-1.48,1.78-2.2,3.28,1,6.81,2.32,8.82,4.04-.17.79-.53,1.57-1.16,2.3Zm-148.65-2.34c.93-1.91,1.86-3.81,2.8-5.72.93-1.9,2.48-2.62,4.05-2.54-2.37,2.68-4.66,5.43-6.85,8.26Zm-98,11.06c1.7-5.36,3.36-10.74,4.83-16.18.29-1.07.57-2.15.85-3.24,2.46-3.73,4.88-7.48,7.3-11.23-1.61,4.78-3.29,9.55-5,14.29-2.72,5.41-5.38,10.87-7.98,16.34Zm8.44-31.68c.5-2.73.92-5.48,1.22-8.23.36-1.05.72-2.1,1.1-3.14,3.78-6.81,7.72-13.53,11.83-20.17-1.56,6.41-3.33,12.76-5.25,19.07-3.04,4.1-6,8.26-8.9,12.46Zm-142.33-26.65c-4.78-.11-9.57-.45-14.35-.89-.42-.15-.84-.3-1.27-.44,8.4.08,16.8.14,25.2.2-3.2.38-6.39.76-9.58,1.13Zm-7.1,3.63c-2.61-.03-5.22-.08-7.84-.18-.08,0-.16,0-.24,0,1.33,0,2.67,0,4,.02.13,0,.25-.03.36-.07,1.24.07,2.47.15,3.71.23Zm-79.13-.21c-.13,0-.25.02-.38.03-7.24-.8-14.5-1.56-21.77-2.25,6.11-.67,12.23-1.17,18.37-1.56,2.05.5,3.95,1.37,5.26,2.88-.48.33-.97.63-1.48.9ZM99.95,448.28c13.5-34.3,27.31-68.45,41.19-102.6,7.32-18.02,14.53-36.07,21.66-54.17-5.01,14.26-9.96,28.54-15,42.78-.63,1.79-1.26,3.58-1.89,5.37-3.26,8.36-6.46,16.75-9.62,25.16-2.67,6.39-5.3,12.81-7.83,19.26-2.78,7.08-5.5,14.19-8.19,21.31-8.89,21.61-18.03,43.11-27.68,64.39,2.43-7.18,4.88-14.35,7.36-21.52Zm-7.98,50.01c-.19.55-.38,1.1-.56,1.64-1.93,5.66-3.83,11.32-5.69,17-2.03,2.1-3.86,4.39-5.53,6.79-.55-.36-1.31-.42-1.82.03,2.33-6.2,4.88-12.32,7.38-18.4,6.73-16.36,12.85-32.97,18.99-49.57-4.46,14.11-8.73,28.28-12.76,42.51Zm-30.68,81.92c1.77-7.06,3.69-14.14,5.95-21.11.49.42,1.27.5,1.86.17-2.94,7.46-5.41,15.08-6.93,22.91-.69,3.58-1.15,7.2-1.27,10.84-.04,1.05,1.19,1.77,2.1,1.39-.96,3.28-2.03,6.52-3.27,9.71-1.65,4.24-3.66,8.43-6.25,12.21,2.37-12.08,4.82-24.15,7.82-36.1Zm25.63,216.73c-.34,1.48-.66,2.95-.95,4.44-.87,1.78-1.73,3.55-2.61,5.33,1.2-3.25,2.39-6.5,3.55-9.77Zm10.4-22.74c6.01-15.57,13.5-30.5,19.93-45.88,11.85-28.34,22.03-57.36,32.12-86.39.05-.12.1-.23.14-.35-1.77,5.3-3.54,10.6-5.33,15.9-6.16,18.31-12.12,36.68-18.04,55.07-9.89,24.19-20.6,48.05-31.89,71.69-.57,1.2-1.15,2.4-1.73,3.59,1.43-4.61,3.06-9.17,4.79-13.64Zm18.42-29.34c-3.02,9.27-6.11,18.53-9.31,27.74-.51,1.48-1.03,2.96-1.54,4.44-4.87,12.01-9.73,24.02-14.58,36.03-.94,1.77-1.94,3.5-3.04,5.17.04-5.38.63-10.72,1.63-16.01,9.26-18.98,18.27-38.08,26.85-57.38Zm-20.71,297.74c.12.18.28.33.47.44-.53.64-1.08,1.27-1.63,1.89.39-.78.78-1.56,1.17-2.33Zm15.79-17.58c6.34-11.56,11.61-23.67,16.87-35.75,1.88-4.31,3.78-8.6,5.7-12.89-1.07,2.97-2.15,5.94-3.23,8.91-8.35,18.33-16.68,36.67-24.99,55.02-1.36.33-2.75.48-4.16.47,3.66-5.02,6.86-10.41,9.8-15.78Zm212.88,261.25c-1.94-.92-3.28-2.92-2.43-5.58,9.46-29.69,21.4-58.52,34.95-86.56-.08.25-.15.49-.23.73-4.17,13.27-8.36,26.53-12.59,39.78-.31.98.31,1.64,1.08,1.79-6.42,12.14-12.8,24.31-19.09,36.52-.88,1.71,1.57,3.17,2.59,1.51,3.51-5.7,6.95-11.45,10.32-17.23-2.86,6.3-5.63,12.63-8.48,18.93-2.03,3.38-4.07,6.75-6.13,10.11Zm136.08,23.22c1.33-2.79,2.67-5.57,4.01-8.35-.66,5.16-1.11,10.35-1.1,15.55-2.5-1.06-4.42-4.02-2.91-7.2Zm393.54-96.69c.13-.59.25-1.19.36-1.78.24-1.31-1.46-2.74-2.51-1.46-2.65,3.25-5.21,6.58-7.71,9.95.58-2.64,1.06-5.3,1.39-7.98,1.08-1.75,2.19-3.49,3.34-5.2,2.08-3.1,4.31-6.17,6.71-9.08,1.78.36,3.39,1.6,4.02,3.24-1.48,3.7-3.08,7.35-4.76,10.97-.28.45-.55.9-.83,1.35ZM718.63,26.18c9.3-.24,18.75-1.05,28.09-.69,1.34.12,2.67.26,4.01.4-6.29-.09-12.58-.18-18.86-.02-3.84.09-7.69.28-11.52.61h-13.1c3.79-.1,7.59-.2,11.38-.3Zm-16.27,39.82c-2.04-1.02-4.11-1.95-6.22-2.79,2.4-1.15,5.11.42,6.22,2.79Zm-85.34-48.36c.6-.25,1.02-.86,1.07-1.47,11.14.14,22.3.51,33.34,1.98,6.26.83,12.41,2.23,18.53,3.75-7.78,0-15.55.08-23.33.25.7-.86.21-2.49-1.15-2.48-8.93.06-17.81.73-26.65,1.72-3.27-.32-6.54-.68-9.8-1.12,2.72-.69,5.38-1.55,7.98-2.64Zm-19.67-1.65c3.81.05,7.62.07,11.43.1,1.26,0,2.52.02,3.78.03-4.5,1.5-9.17,2.4-13.9,2.94-3.09-.15-6.17-.1-9.33-.05-1.38-.23-2.76-.44-4.14-.66,4.11-.48,8.19-1.21,12.16-2.36Zm-16.76-.5c.82.04,1.63.08,2.45.12-1.84.18-3.68.32-5.53.43,1.03-.19,2.05-.37,3.08-.54Zm-6.54,9.07c1.63.14,3.26.35,4.89.59-8.25-.58-16.5-1.08-24.76-1.52.66-.03,1.31-.07,1.97-.1,5.98.2,11.96.51,17.9,1.03Zm-21.99-11.41c2.26-.03,4.49.1,6.7.29-2.12.2-4.25.36-6.38.52-2.23-.25-4.45-.5-6.68-.74,2.12-.02,4.23-.04,6.35-.06Zm-50.62.5c5.93-.07,11.87-.13,17.8-.19,5.77.53,11.53,1.09,17.29,1.69-.25.02-.5.04-.74.07-11.75-.47-23.51-.72-35.27-.83.32-.24.62-.49.92-.75Zm-6.93.5c-.22.07-.44.13-.67.2-.89,0-1.77,0-2.66-.01,1.11-.07,2.22-.13,3.33-.19Zm-.41,3.34c6.51.05,13.02.14,19.52.28-.5.19-1,.4-1.49.63-1.7.12-3.41.27-5.11.42-5.94-.1-11.88-.21-17.82-.33,1.67-.22,3.32-.53,4.9-.99Zm-5.71,1.05l-6,12c-.67,1.33-1.64,2.08-2.71,2.38-2.54,4.36-5,8.76-7.41,13.18.69-2.1,1.36-4.2,2.02-6.3,2.26-3.48,4.53-6.96,6.85-10.4.94-1.39-1.3-3.17-2.36-1.82-.08.1-.16.2-.23.3,0,0,0,0,0,0,0,0,0,0,0,0-.38.49-.76.99-1.14,1.49,1.67-5.91,3.19-11.86,4.49-17.86,3.79-1.8,8.86,2.28,6.49,7.02Zm.2-7.71c-2.19.04-4.38.09-6.57.13.05-.21.09-.42.14-.64,2.14.17,4.29.34,6.43.51Zm-8.6-4.83c-.08.39-.14.77-.22,1.16-.25-.02-.51-.04-.76-.06.32-.37.65-.73.99-1.1Zm-32.32,5.36c.4,0,.79,0,1.19,0,1.4,0,1.78-1.54,1.15-2.41,1-.04,2-.06,3-.09.1.16.2.33.27.52.64,1.73,3.33,1.07,2.94-.6,1.31-.02,2.63-.02,3.95-.03,4.34.25,8.68.55,13.02.88-.37.51-.75,1.02-1.11,1.54-3.97.1-7.94.2-11.91.32-4.07.13-8.37-.02-12.53.33.03-.16.04-.32.03-.47Zm-26.36,14.64c1.38.14,2.77.28,4.15.43-3.16.05-6.32.05-9.48.02,1.78-.15,3.55-.3,5.33-.45Zm-10.09-12.65c-.33.07-.66.14-.99.2-1.67.12-3.34.25-5.02.36,2-.23,4.01-.41,6.01-.56Zm-18.21,11.94c1.76-.09,3.52-.17,5.28-.25-3.05.28-6.1.56-9.14.83-.42-.01-.85-.02-1.27-.04,1.71-.18,3.42-.37,5.13-.55Zm-8.23-12.66c-.37.05-.74.1-1.11.14-4.92.63-9.84,1.22-14.77,1.77-.66-.11-1.32-.22-1.98-.33,2.41-.22,4.81-.45,7.22-.66,3.55-.32,7.1-.62,10.64-.93Zm-11.95-2.4c2.01-.04,4.03-.07,6.04-.09-.73.06-1.46.13-2.18.19-7.69.69-15.46,1.64-23.2,1.76-3.37-.48-6.74-.9-10.12-1.22,9.82-.24,19.64-.47,29.45-.64Zm-33.36,4.91c3.27-.21,6.55-.12,9.82-.06,1.29.02,2.59.01,3.88-.01,1.69.24,3.38.5,5.06.77-.52-.01-1.05-.02-1.57-.04-5.9-.15-11.8-.31-17.7-.41-.34-.04-.68-.09-1.03-.13.52-.05,1.04-.08,1.54-.12Zm-6.56-1.93c-.91.32-1.78.73-2.53,1.31-.1.08-.19.17-.27.28-3.37-.32-6.74-.31-10.12-.13-.6-.17-1.2-.37-1.79-.61,4.87-.71,9.78-.94,14.71-.85Zm-23.35-.89c1.1-.02,2.21-.05,3.31-.09-.52.57-.63,1.58,0,2.09-8.29-.49-16.62-.47-24.88-.25-1.53-.17-3.05-.37-4.57-.59,8.41-2.06,17.64-1.04,26.14-1.17Zm-26.94,14.16h-16.33c4.17-.2,8.34-.38,12.51-.55,1.27.2,2.55.38,3.83.55Zm-42.85-13.44c12.33.19,24.66-.1,36.98-.41-.07.03-.15.06-.22.09-.66.3-.83,1.08-.64,1.73-11.21.35-22.45.7-33.65,1.35.23-.75-.17-1.64-1-1.92-1.02-.35-2.05-.63-3.09-.87.54,0,1.09.02,1.63.03Zm11.66,7.54c1.44.13,2.88.26,4.32.39-.06.82.51,1.76,1.47,1.8,2.34.08,4.68.18,7.02.27.69.17,1.38.33,2.07.5-5.11.24-10.21.48-15.31.68-3.64.15-7.38.46-11.17.77.04-.34-.03-.7-.18-.97-.63-1.11-1.46-2.02-2.39-2.79,4.72-.25,9.45-.46,14.17-.64Zm-14.84-4.84c-.46.19-.93.36-1.4.53-.74.05-1.47.1-2.21.16-5-.14-9.98-.4-14.93-.93,6.21-.63,12.54-.98,18.54.25Zm-30.14.99c2.98.61,5.99,1.07,9.01,1.43-.38.05-.75.11-1.12.16-1.99.2-3.96.46-5.93.76-.69,0-1.36.01-2.03.02-9.17.13-18.25.79-27.33,1.61-.29-.01-.58-.02-.87-.04,9.41-1.43,18.8-2.94,28.28-3.95Zm-46.53,8.83c-.64.24-1.27.49-1.89.76-.57.06-1.14.11-1.71.17h-6.91c3.5-.28,7.01-.6,10.51-.93Zm-32.64-.95c2.29-.05,4.57-.11,6.86-.17-3.48.2-6.96.38-10.44.54,1.2-.13,2.39-.25,3.59-.38ZM46.59,292.09c.26-8.49.67-16.98,1.26-25.47v16.84c-.45,2.87-.87,5.75-1.26,8.63Zm-1.31-267.88c.07,1.08.14,2.17.21,3.25-.2,0-.4.01-.61.02.11-1.09.24-2.18.4-3.27Zm-.65,6.28c.35-.01.7-.02,1.04-.04,0,.11.01.23.02.34-.36.02-.72.04-1.08.07,0-.12.01-.24.02-.37Zm.79,25.34c-.66-7.24-1.19-14.65-.95-22,.46-.03.93-.05,1.39-.08.7,12.44,1.12,24.94,1.12,37.42-.54-5.11-1.1-10.21-1.56-15.33Zm-2.11,460.5c.2.86.4,1.72.63,2.58.11.42.36.71.66.88,0,.78,0,1.56,0,2.33,0,2.45,0,4.91.02,7.36-.47-4.38-.93-8.76-1.32-13.15Zm.27-222.87c-.88-.55-2.34-.15-2.36,1.21-.48,35.58.12,71.17-.17,106.75-5.21-15.77-3.9-34.34-3.15-50.21,1.2-25.45,1.3-50.91,3-76.34,1.98-29.62,4.88-59.19,5.71-88.87.05-1.74.09-3.49.13-5.23.3.29.7.42,1.1.38v48.91c-.53,6.83-1.11,13.65-1.7,20.48-1.23,14.33-2.1,28.62-2.57,42.93Zm26.52,245.04c4.62-14.57,9.32-29.11,14.11-43.63,4.93-10.29,9.69-20.65,14.35-31.06-3.65,9.81-7.34,19.6-11.13,29.35-6.57,16.94-14.62,33.51-18.57,51.34-1.08,2.65-2.14,5.32-3.16,7.99,1.46-4.66,2.93-9.33,4.4-13.99Zm-16.08,59.88c-.06.27-.12.54-.17.81-1.58,7.46-3.02,14.94-4.48,22.42-.23,1.16.91,2.2,1.93,1.83-1.8,3.45-3.77,6.85-6.03,10.03,2.65-11.76,5.54-23.46,8.74-35.08Zm-8.41,290.21c.89,4.2.86,8.66.84,12.87,0,1.19-.01,2.38-.01,3.57-.27.71-.52,1.43-.73,2.17-.52-6.17-.46-12.38-.1-18.61Zm1,40.82c.12,1.85.28,3.69.44,5.54-.32,2.62-.66,5.24-1,7.86.05-2.03.11-4.06.2-6.1.1-2.43.23-4.86.36-7.3Zm1.23,378.67c-.15-2.8-.31-5.6-.47-8.4.08-.17.14-.36.16-.57.16-1.75.25-3.51.31-5.26v14.23Zm0-22.73c-.19-5.8-.73-11.59-1.37-17.37-.28-2.53-.55-5.06-.82-7.58-.03-.96-.06-1.92-.08-2.87.53-7.92,1.08-15.82,1.23-23.77.19,2.11.38,4.22.6,6.33.14,2.2.29,4.39.44,6.59v38.67Zm0-245.31c-.02,3.46-.04,6.91-.03,10.37-.89,8.63-1.64,17.28-2.05,25.94-.02-8.44.19-16.88.71-25.33.34-5.45.79-10.89,1.36-16.32v5.33Zm0-27.43c-.8,4.6-1.5,9.22-2.1,13.85.03-2.58.05-5.15.07-7.73.62-6.2,1.3-12.4,2.03-18.59v12.47Zm0-37.02c-.69,1.76-1.31,3.54-1.87,5.34,0-3.26-.02-6.52-.04-9.78.06-.68.12-1.35.18-2.03.53-5.72,1.1-11.44,1.73-17.14v23.61Zm0-92.09c-.56-3.12-.99-6.25-1.02-9.38.33-3.27.69-6.54,1.02-9.81v19.19Zm8.66,475.51c-.02-.34-.03-.68-.04-1.02.03,0,.06,0,.09,0-.01.34-.03.68-.05,1.02Zm17.21-526.13c3.65-7.29,7.28-14.59,10.89-21.91-.36,3.91-.48,7.84-.27,11.79.04.74.72,1.41,1.43,1.51-.95,2.36-1.91,4.73-2.86,7.09-1.7,4.21-7.1,4.09-9.19,1.52Zm10.05,230.62c1.48-3.28,2.96-6.55,4.44-9.83.44.1.94.02,1.38-.35,3.41-2.87,6.47-6.14,9.25-9.64,1.63.16,3.25.17,4.83-.03-3.76,8.3-7.52,16.6-11.27,24.9-2.65,5.86-11.26.77-8.63-5.05Zm3.41,293.61h1.42c7.28.45,14.54,1.06,21.77,1.96.16.14.35.26.59.31.21.05.42.08.63.12-8.14-.47-16.34-1.13-24.41-2.4Zm34.55,1.14c-.17-.29-.45-.53-.87-.67-.51-.17-1.03-.32-1.54-.47h12.21c5.71.15,11.43.2,17.16.18,1.07,0,2.15-.02,3.22-.03.02.73.5,1.45,1.44,1.47,1.92.04,3.84.04,5.76.02,2.37.01,4.74.03,7.11.06-1.57.15-3.13.29-4.7.46-.6.07-1.2.13-1.8.2-.58.04-1.16.09-1.74.13-12.13.49-24.24.33-36.24-1.35Zm116.16,4.45c-1.93.02-3.87.04-5.8.04-.31,0-.56.08-.78.21-11.97.56-23.9,1.66-35.87,2.22-12.71.6-25.58.67-38.16-1.28,15.23-.92,30.44-2.33,45.66-3.58,15.01.07,30.02.51,45.03.81,7.1.14,14.19.18,21.28.14-10.44.67-20.89,1.11-31.35,1.43Zm90.55-76.39c1.38-2.92,2.74-5.85,4.07-8.8.22-.37.45-.74.67-1.11-.77,2.31-1.53,4.63-2.27,6.95-.47,1.47-1.38,2.43-2.47,2.96Zm10.82,72.63c1.09-.09,2.18-.19,3.27-.28,1.51-.13,3.02-.23,4.53-.34,2.46-.15,4.92-.29,7.38-.44.86,0,1.72.01,2.58.02-5.92.41-11.84.77-17.76,1.05Zm91.5.24c-17.89.24-35.77-.01-53.66.07,3.29-.33,6.57-.7,9.85-1.11,23.98.23,47.97.43,71.95-.18,4.21-.11,8.43-.24,12.64-.4-13.57.99-27.18,1.43-40.78,1.62Zm185.16.22c-10.8-.43-21.62-.62-32.43-.79-10.14-.16-20.37,0-30.5-.64-2.73-.17-5.46-.43-8.16-.87h73.13c-.74.7-1.42,1.47-2.04,2.3Zm5.58.23c-.58-.03-1.17-.05-1.75-.07.95-.95,2.02-1.77,3.17-2.46h22.89c-1.42.23-2.85.46-4.27.71-5.3.9-10.6,1.69-15.94,2.05-1.37-.08-2.74-.16-4.1-.23Zm58.73,6.37c-9.71.52-19.5.64-29.17,1.7-4.18.46-8.22,1.39-12.34,2.21-2.7.54-5.43.92-8.12.77,9.23-2.99,18.87-4.51,28.59-5.45,7.11.38,14.22.62,21.34.75-.1,0-.19,0-.29.01Zm54.11-3.67c-14.27.46-28.55.79-42.83.76,8.57-.53,17.14-1.02,25.72-1.35,11.44-.43,22.87-.39,34.32-.36,2.9,0,5.81.02,8.71.02-8.64.31-17.28.64-25.92.92Zm93.24-4.86c-2.7.12-5.41.22-8.11.31-.96.03-1.93.05-2.89.09-19.22.58-38.45.59-57.68.54-11.16-.03-22.33-.18-33.49.08-11.44.27-22.87.92-34.29,1.62-10.52.65-21.06,1.12-31.55,2.16-.11,0-.21,0-.32-.01-6.15-.33-12.28-.81-18.42-1.3,7.01-1.18,14.07-2.17,21.03-3.58.44-.09.89-.18,1.33-.27h172.17c-2.6.13-5.2.25-7.79.37Zm11.4,3.09c4.7.06,9.41.21,14.11.46-4.7-.16-9.4-.32-14.11-.46Zm23.12-79.54c6.45,0,6.43,10,0,10s-6.43-10,0-10Zm3.66,77.98c-2.13-.21-4.26-.39-6.39-.54,3.2-.3,6.39-.62,9.58-.98-1.1.42-2.16.93-3.19,1.53Zm13.63,1.66c-2.52-.38-5.05-.71-7.58-1.01,3.67-1.11,7.64-1.4,11.54-1.43,1.76.32,3.56.49,5.37.57-3.07.84-6.2,1.55-9.33,1.88ZM914.16,26.48h-29.8c5.21-.52,10.44-.95,15.66-1.13,4.58.05,9.16.13,13.74.26.16,0,.31-.02.45-.05-.02.31-.03.61-.05.92Zm4.94,407.71c.14-20.43-.09-40.88-.38-61.31.13-3.27.27-6.53.43-9.8.3-6,.65-12.01,1.03-18.01.56,35.05-.05,70.11.63,105.17.27,13.96.74,27.91,1.49,41.85-1.74-11.85-2.91-23.76-3.65-35.7.23-7.4.4-14.8.45-22.19Zm.97,230.22c-.09,0-.17.03-.26.05v-.3c.06-2.13.12-4.26.17-6.39.04,2.21.06,4.42.08,6.63Zm-.76,26.54c.02-.66.03-1.33.05-1.99.1-4.28.18-8.57.26-12.85.2,4.94.01,9.89-.31,14.84Zm1.21,255.4c.05,18.73.11,37.46.2,56.2-2.03-16.41-3.12-32.92-4.31-49.42-.17-2.41-.34-4.83-.51-7.24.47-5.77.99-11.54,1.56-17.3.06.24.12.49.18.73.12,5.36.2,10.73.21,16.09,0,1.53,1.89,1.85,2.67.94Zm-3.25-446.54c.07,1.82.15,3.64.22,5.46.22,6.17.38,12.34.51,18.51-.37-5.58-.69-11.15-.84-16.74.03-2.41.07-4.82.12-7.23Zm-.38-283.37c.07,3.04.08,6.07-.04,9.09-.03-3.03-.01-6.06.04-9.09Zm-1.25-64.84c.05,6.32.1,12.64.16,18.96-.05,1.24-.11,2.47-.16,3.71v-22.66Zm0,92.39c.53.17,1.12.07,1.5-.37-.06,2.83-.12,5.66-.18,8.49-.43.14-.82.48-1.03.99-.1.25-.19.5-.29.75v-9.86Zm0,20.67c.32-1.68.71-3.35,1.17-4.99-.16,9.38-.21,18.77.12,28.11-.07,7.81-.22,15.61-.4,23.41-.04-.47-.07-.94-.11-1.41-.24-2.77-.52-5.59-.79-8.46v-36.67Zm0,294.54c.06,1.2.13,2.4.2,3.6.71,13.31,1.43,26.63,2.08,39.95-.08,5.6-.16,11.2-.23,16.8-.41.22-.71.64-.7,1.25.08,7.8.07,15.6.02,23.4-.11,9.71-.35,19.41-.63,29.12-.29,1.33-.53,2.67-.75,4.02v-118.13Zm0,347.07c.06-.45.12-.91.18-1.36-.15,4.13-.19,8.29.06,12.41-.08.73-.16,1.45-.24,2.18v-13.23Zm0,186.8v-50.04c.03-.83.06-1.65.08-2.48.15,2.1.29,4.2.42,6.29-.1,3.44-.25,6.88-.33,10.27-.3,12.22.81,24.47,1.44,36.67.04.73.07,1.47.1,2.2-.07,9.4-.28,18.8-.62,28.2-.21-2.22-.38-4.42-.44-6.58-.21-8.18-.38-16.36-.66-24.54Zm2.22,231.3c.26,7.46.5,14.92.68,22.38-.58.07-1.15.13-1.73.21.26-7.53.63-15.06,1.05-22.59Zm-1.18,27.18c.01-.53.03-1.05.04-1.58.62-.08,1.25-.16,1.88-.24.01.55.02,1.1.04,1.65-.65.06-1.31.12-1.96.17Zm5.81-.55c0-.57,0-1.14-.01-1.71,4.93-.47,9.92-.65,14.83-.19-4.93.76-9.86,1.39-14.81,1.9Z"/>
        <path class="cls-2" d="m981.79,1410.37c-.43-.22-.73-.28-1.09.03.28.63.38,1.42.86,1.75.07-.1.08-.64.54-.29.43-.87-.47-.82-.31-1.49Z"/>
        <path class="cls-2" d="m982.92,1404.59c.43-.87-.47-.82-.31-1.49-.43-.22-.73-.28-1.09.03.28.63.38,1.42.86,1.75.07-.1.08-.64.54-.29Z"/>
        <path class="cls-2" d="m985.18,1405.61c-.35.12-.76-.39-.95.02.28.03.05.6.29.67.55.08.78-.15.66-.7Z"/>
        <path class="cls-2" d="m982.04,1407.61c-.28-.3-.55-.62-.89-.53.3.15.54.7.89.53Z"/>
        <path class="cls-2" d="m981.43,1406.54c-.04-.07-.08-.14.03-.19.14.17.26.39.46.17.04-.25-.4-.6-.7-.5-.01.11-.21.66.21.52Z"/>
        <path class="cls-2" d="m982.21,1406.75c.1-.12.65-.04.53-.69-.26.04-.3-.15-.55-.12-.1.1-.29.77.02.82Z"/>
        <path class="cls-2" d="m984.14,1403.22c-.16-.29-.05-.88-.43-.94.06.41.1.83.43.94Z"/>
        <path class="cls-2" d="m983.48,1404.06c.07-.09.54-.43.12-.55,0,.08-.02.16-.13.14-.02-.21,0-.47-.28-.4-.18.18-.01.72.29.81Z"/>
        <path class="cls-2" d="m984.05,1405.13c-.2-.21-.54-.27-.96-.25,0,.27.01.55.02.82.51,0,1.11.08.94-.57Z"/>
        <path class="cls-2" d="m983.96,1406.64c-.82-.17-.92.49-.66.97.4-.13.42-.13.82-.02-.12-.38.18-.36.12-.68-.17-.01-.32-.03-.28-.27Z"/>
        <path class="cls-2" d="m984.12,1408c-.57.17-.97.43-1.25.77-.54-.4-1.16-.89-1.87-.58.66.03,1.27.45,1.77.71-.31.44-.45,1.02-.49,1.74.99.32-.12,1.1.59,1.89.92.08,1.36-.8.78-1.38,1.35-.21.25-2.87.47-3.15Z"/>
      </g>
    </g>
  </g>
</svg>