<?xml version="1.0" encoding="UTF-8"?>
<svg id="Livello_2" data-name="Livello 2" xmlns="http://www.w3.org/2000/svg" viewBox="0 0 442.7 149.34">
  <defs>
    <style>
      .cls-1 {
        fill: #f4e9e9;
      }

      .cls-1, .cls-2 {
        stroke-width: 0px;
      }

      .cls-2 {
        fill: #9e8d8d;
      }
    </style>
  </defs>
  <g id="Livello_1-2" data-name="Livello 1">
    <g>
      <g>
        <path class="cls-2" d="m11.76,27.89c-.02-1.88,1.68-2.09.08-3.03-8.35.37-8.97-2.35-10.51,11.5-1.53,13.83.48,29.68.87,43.39.55,19.57-.35,39.35.09,58.87,25.14,2.33,49.7,4.14,74.8,6.06,23.32,1.78,46.56-.7,69.97,3.04,13.72,2.19,27.12-.07,40.73-2.92,16.11-3.38,31.75-2.89,47.89-1.44,31.31,2.8,62.98-.07,94.33-.08,29.99,0,61.24-.53,89.85-12.1,4.06-21.86,2.28-49.17,2.93-71.89.35-12.2,2.33-21.01-4.2-29.07-5.49-6.78-14.5-5.35-20.82-6.88-14.95-3.63-26.76-1.97-41.83-.62s-31.81-3.03-47.47-3.71c-18.99-.82-36.31-9.96-55.56-7.4-16.24,2.16-32.98,4.18-49.23,4.11-31.87-.12-64.24,2.03-96.24,4.76-34.52,2.95-69.76,10.49-104.08,7.15,1.19-1.65.6-1.95.57-2.71"/>
        <path class="cls-2" d="m12.51,27.89c.08-1.03,1.12-1.88.58-2.91-.59-1.15-2.03-.83-3.06-.83-1.73,0-3.73-.32-5.4.25-1.42.49-2.14,1.71-2.6,3.07-1.02,3.03-1.21,6.47-1.53,9.62-1.05,10.46-.24,21.01.4,31.47.64,10.64.78,21.27.71,31.92-.08,12.71-.35,25.43-.07,38.14,0,.43.34.71.75.75,16.46,1.53,32.94,2.85,49.43,4.13s32.75,2.63,49.22,2.69c8.09.03,16.18-.02,24.27.29s16.2,1.36,24.32,2.34c7.93.96,15.93.5,23.82-.62,8.26-1.17,16.34-3.32,24.63-4.29,16.23-1.9,32.22.12,48.43.96s32.86.41,49.27-.09c16.01-.49,32-.6,48.02-.81,14.88-.2,29.8-.91,44.5-3.34,7.58-1.25,15.08-2.97,22.4-5.3,1.72-.55,3.42-1.13,5.12-1.74.85-.31,1.7-.63,2.54-.95.55-.21,1.72-.41,2.14-.91.64-.74.62-2.75.77-3.68.24-1.55.46-3.11.65-4.67,1.78-14.55,1.62-29.28,1.58-43.91-.02-7.2-.07-14.41.2-21.6.23-5.93,1.03-11.99.08-17.89-.82-5.09-3.4-10.28-7.79-13.19s-10.23-2.95-15.49-3.7c-3.29-.47-6.49-1.4-9.79-1.87-3.47-.49-6.96-.75-10.47-.8-7.29-.1-14.55.68-21.8,1.35-15.93,1.48-31.3-2.24-47.11-3.33-7.72-.53-15.12-1.6-22.67-3.34-6.88-1.59-13.74-3.33-20.77-4.17-7.78-.93-15.17.03-22.88,1-7.94,1-15.9,1.88-23.89,2.45-16.21,1.14-32.52.58-48.77,1.18-16.37.6-32.71,1.65-49.04,2.92-16.2,1.26-32.31,2.95-48.43,4.95s-32.02,3.91-48.14,4.27c-7.77.17-15.53-.05-23.27-.78l.65,1.13c.77-1.16.84-1.78.67-3.08-.12-.95-1.62-.96-1.5,0s.15,1.39-.47,2.33c-.34.52.12,1.08.65,1.13,31.62,3,63.09-2.9,94.43-6.22,31.96-3.38,64.27-5.35,96.4-5.67,8-.08,15.98.02,23.98-.47,7.85-.48,15.68-1.29,23.49-2.24s14.89-2.26,22.45-1.74,14.66,2.27,21.87,3.96c6.8,1.59,13.64,3.14,20.62,3.63,7.66.55,15.21,1.36,22.82,2.38s15.55,1.98,23.38,1.64c7.33-.31,14.6-1.43,21.94-1.71,7.41-.28,14.79.24,22.03,1.9,5.25,1.21,10.94.82,15.96,2.92,12.86,5.38,9.59,22.29,9.3,33.18-.38,14.23.1,28.47-.3,42.7-.2,7.14-.59,14.29-1.5,21.37-.23,1.76-.48,3.51-.78,5.26-.18,1.06-.22,1.24-1.22,1.72-.92.44-1.94.74-2.9,1.09-3.5,1.27-7.06,2.4-10.65,3.38-29.49,8.1-60.1,6.53-90.35,7.23-16.16.37-32.31,1.12-48.47,1.1-8.14-.01-16.27-.22-24.39-.77s-15.75-1.36-23.67-1.52-15.28.18-22.85,1.25c-8.26,1.17-16.34,3.3-24.63,4.3-8.15.98-16.17.93-24.29-.29s-15.77-1.7-23.7-1.93c-15.93-.45-31.84.08-47.74-1.14s-32.37-2.45-48.55-3.79c-7.92-.66-15.83-1.35-23.75-2.08l.75.75c-.43-20.1.58-40.22-.14-60.32-.33-9.33-1.23-18.64-1.37-27.98-.07-4.54.03-9.08.51-13.6.31-2.96.43-6.32,1.53-9.13.66-1.68,1.75-1.96,3.45-1.98,1.07-.01,2.13.04,3.2.03.28,0,.72-.1.99-.02.69.21.3-.18.3.42,0,.51-.45,1.26-.5,1.84-.08.96,1.42.96,1.5,0h0Z"/>
      </g>
      <path class="cls-1" d="m441,105.01c-.88.07-1.78.07-2.69,0-.06-.73-.1-1.43-.14-2.03,2.08-6.39,1.14-15.88.27-23.4.25-4.94.53-9.89.56-14.83.01-1.82-.77-2.77-1.59-2.88-.08-1.9-.18-3.8-.32-5.71.09-12.46,1.09-24.98.99-37.46,0-1.18-.43-2.09-.97-2.58.17-1.56.36-3.1.61-4.63.29-.35.5-.88.59-1.62.13-1.15.26-2.21.47-3.3.31-.22.61-.56.84-1.08.11-.14.21-.28.32-.42,1.69-2.07-.19-5.53-1.95-5.01-6.38,1.85-13.16.96-19.63,1.21-7.17.27-14.33.73-21.49,1.25-4.23.31-8.46.64-12.69.97-3.42-.45-6.84-.81-10.27-.94-11.24-.44-22.45.97-33.56,3.74-23.59,1.11-47.19,1.95-70.77,3.7-14.06,1.04-28.14,1.34-42.21.3-7.55-.56-15.06-.85-22.58-.96-8.6-1.92-17.3-2.09-25.95-1.25-3.64.35-7.25.98-10.86,1.71-8.38.22-16.77.49-25.15.94-13.91.73-27.83,1.43-41.75.83-15.83-.68-31.47-3.29-47.34-2.35-7.78.46-15.53,1.84-23.32,2.02-3.85.09-7.7-.04-11.56-.2.31-1.5.6-3,.84-4.53.6-3.75-3.27-5.35-3.87-1.59-.17,1.04-.34,2.08-.52,3.11l-.17-.83c-.17-3.05-2.23-3.97-3.28-1.51-.63,1.47-1.02,3.19-1.27,5.04-1.39-.04-2.79-.07-4.18-.07-2.58-.01-2.58,5.99,0,6,1.27,0,2.54.03,3.8.07-.04,2.98.06,5.96.03,8.53-.11,8.36.07,16.71.1,25.07-.21,3.39-.4,6.77-.58,10.16-1.04,19.64-2.8,39.37-2.7,59.1,0,0,0,.02,0,.03-.76-.13-1.57.48-1.86,2.07-.08.5-.19.99-.31,1.47-.35,1.54.4,3.26,1.23,3.69,5.47,2.81,10.86,2.04,16.47,1.37,2.71-.33,5.43-.16,8.15-.6,2.51-.4,5.02-.94,7.54-1.05.74,0,1.47,0,2.21-.03.07,0,.14,0,.21,0,5.55.07,11,.74,16.6-.04,2.36-.33,4.72-.76,7.08-1.2,6.72.1,13.43.7,20.16.67,7.5-.04,14.99-.39,22.48-.88,1.36.26,2.72.53,4.08.81,5.97,1.23,11.96,2.42,17.97,2.75,5.76.32,11.52-.31,17.27-.67,23.05-1.45,46.05-4.24,69.03-7.86,6.8-.12,13.6-.26,20.4-.49,8.67,1.23,14.02,2.6,14.52,4.1h8.89c0-1.98,3.56-3.96,9.33-5.55,22.35-1.1,44.7-2.26,67.07-2.72,1.49-.03,2.98-.04,4.48-.06,1.52.81,3.03,1.63,4.59,2.19,5.36,1.92,10.9,1.17,16.33,1.54,4.96.34,9.88.22,14.72-1.72,6.05.52,12.1.91,18.15,1.52,2.89.29,5.8.49,8.68-.15,3.14-.7,6.07-2.87,9.27-2.99.09,0,.16-.03.24-.05,1.94.46,3.78.42,6.05-.05,1.55-.32,3.07-.23,4.59-.07-.04,1.26-.08,2.52-.03,3.79.16,3.46,3.13,3.96,3.94.8.31-1.23.59-2.48.83-3.73.59-.25,1.17-.5,1.75-.81,2.15-1.14,1.66-5.15-.17-5.76-.04-.49-.18-.92-.4-1.25.05-.42.09-.84.13-1.25.06-.03.12-.07.18-.11,1.98,1.73,4.22,2.79,6.5,3.33.56,2.33,1.44,4.2,2.79,5.13,1.72,1.18,2.64-2.5,1.78-4.65.35,0,.7-.02,1.04-.05,2.26-.18,2.27-6.18,0-6Zm-12.88-33.52c.36-2.16.72-4.38,1.08-6.63-.53,6.55-1.33,13.02-2.1,19.51-.32.11-.62.31-.86.63.61-4.21,1.24-8.76,1.88-13.51Zm-2.47,19.03c-.1,3.57-.49,7.14-1,10.66-.28-.03-.57.1-.88.39.5-3.23,1.1-7.12,1.74-11.5.04.16.08.31.14.45Zm-278.93,24.41c8.79.26,17.57.58,26.09.95-.06,0-.11,0-.17,0-8.64.25-17.28.77-25.91,1.4.2-.75.18-1.6,0-2.35Zm269.42-39.69c.14-.18.26-.3.34-.36.27-.03.54-.09.8-.18-.56,3.59-1.02,5.67-1.02,5.67,0,2.98-2.67,3.95-5.32,4.27.37-.79.74-1.58,1.12-2.35.88-1.8,1.79-3.56,2.82-5.19.37-.6.99-1.51,1.26-1.86Zm-5.88,34.61c-.07,0-.14.02-.21.02-.29-.14-.59-.28-.89-.41-.35-.14-.7-.23-1.04-.3.11-.19.21-.39.3-.62.47-1.21.33-2.36-.12-3.19,2.37.52,4.52,2.05,6.2,3.86-1.4.35-2.83.47-4.24.64Zm-31.62-12.46c-.65.98-1.37,1.36-2.06,1.31,4.9-12.02,12.32-21.6,18.89-30.52-5.29,10.26-10.82,20.13-16.83,29.21Zm-20.55,12.9c-1,0-2-.02-3-.02.99-.2,1.99-.39,3-.59-.01.21,0,.41,0,.62Zm-173.7-39.71c.86-1.21,1.72-2.4,2.59-3.59-.75,1.37-1.5,2.75-2.25,4.13-1.06,1.15-2.12,2.3-3.18,3.45.95-1.33,1.89-2.66,2.84-3.99Zm-4.9-35.52c.96-2.28,3.79-7.92,8.52-7.92,3.51-1.31,4.93-.28,4.51,2.5-.64.79-1.27,1.59-1.9,2.39-1.01-2.58-3.12-4.15-5.32-2.15-1.93,1.75-3.86,3.46-5.81,5.17Zm13.02,40.63c.27-.29.53-.58.81-.87-1.58,2.86-3.08,5.87-4.43,9.12-.34.83-.36,1.69-.18,2.45-1.67,1.85-3.27,3.61-4.76,5.23,2.85-5.31,5.67-10.66,8.56-15.92Zm165.82-37.67c2.37-.74,3.16-3.69,2.8-6.45h1.77c0,2.92-6.44,13.56-16.77,28.09-.36.41-.72.81-1.08,1.22-1.52,1.74-3.1,3.41-4.72,5.05.29-.45.58-.88.87-1.33,3.99-6.2,8.05-12.31,12.08-18.47,1.04-1.59,2.05-3.22,3.09-4.81.53-.81,1.06-1.61,1.6-2.39.56-.81,1.52-1.27.37-.91Zm5.83,44.73c.18.43.4.78.66,1.01-1.14,1.78-2.19,3.7-3.08,5.83l-3.47,1.04c2.02-2.51,3.97-5.16,5.88-7.88Zm5.27-48.46c.8-3.5,2.29-5.15,3.94-4.14-1.32,1.38-2.63,2.76-3.94,4.14Zm.67,49.06c.96-1.33,1.95-2.61,2.94-3.89-.72,1.02-1.45,2.03-2.17,3.07-.26.28-.51.55-.77.82Zm-57.98,14.96c-8.5,4.11-8.33-.39,3.35-13.49,2.93-3.83,5.67-7.46,8.24-10.88-.21.3-.41.61-.61.91-3.75,5.48-8.72,11.07-10.93,18.37-.55,1.83-.48,3.6-.04,5.09Zm-26.48-8.84c3.71-4.69,7.48-9.32,11.3-13.82-.84,1.51-1.67,3.04-2.47,4.6-3.18,6.18-6.29,12.9-10.39,17.83-.4.02-.8.04-1.22.04-1.43,0-2.62,0-3.61-.02,2.1-2.92,4.19-5.86,6.38-8.63Zm-29.45-4.66c.86-1.28,1.84-2.66,2.91-4.1,3.53-3.69,7.19-7.11,10.71-10.82-2.6,3.5-5.19,7.03-7.73,10.66-.36-.12-.75-.06-1.16.31-2.15,1.92-4.18,4.24-6.29,6.3l1.57-2.35Zm45.75.67c-.06.47-.08.96-.06,1.44-.67.85-1.33,1.63-1.97,2.37.67-1.28,1.35-2.56,2.04-3.81Zm-54.65,12.64c1.48.12,2.97-.44,4.46-1.4-.56.99-1.12,1.99-1.67,3.01-1.28-.03-2.56-.05-3.84-.04l1.04-1.56Zm104.17-5.45l-3.38,1.01,2.07-3.1c.32.8.77,1.52,1.31,2.09Zm22.62,1.64c-.15-.21-.33-.37-.53-.47-.04-1.2.24-2.44.94-3.51,3.17-4.78,6.2-9.79,9.13-14.95.19-.19.38-.39.57-.58.49-.48.75-1.17.83-1.9,1.13-2.04,2.26-4.09,3.37-6.17.75-.9,1.5-1.81,2.27-2.69,5.11-5.89,9.83-12.57,14.42-19.56.66-1.01,1.33-2.01,1.99-3.02-.83,1.9-1.69,3.74-2.63,5.48-3.65,6.69-7.95,12.24-12.12,17.93-6.37,8.69-13.35,17.95-18.23,29.45Zm33.21-61.36c-2.69,4.5-5.53,8.92-8.47,13.11,1.68-3.46,3.34-6.93,5-10.42.12-.76.37-1.5.77-2.19.47-.8.94-1.6,1.41-2.4.99-1.68,2.1-1.86,3.02-1.18-.6,1.1-1.18,2.16-1.73,3.08Zm-8.47,5.95c.47-2.09.86-3.8,1.25-5.22,1.66-2.1,3.32-4.21,4.98-6.32.31-.05.64-.09.99-.12-1.04,1.72-2.06,3.47-3.1,5.11-1.37,2.18-2.75,4.36-4.12,6.54Zm-194.32-10.31c.03-.48,0-.95-.05-1.42.36-.03.81-.03,1.35-.03.04,0,.07,0,.11,0-.48.46-.95.94-1.41,1.44Zm-4.98,72.6c1.06,1.06,2.44,1.21,3.84-.33,4.5-4.95,8.81-10.25,13.09-15.6-3.73,5.16-7.35,10.47-10.7,16.21-2.92,2.39-5.33,3.11-8.23,2.44.66-.92,1.33-1.82,2-2.72Zm198.96-29.46c1.98-3.59,4-7.13,6.07-10.61-1.99,3.59-4.03,7.12-6.07,10.66v-.05Zm-52.04-58.67c9.13-.45,18.25-1.07,27.36-1.74-4.31.59-8.87,1.16-13.62,1.72-.7-.18-1.44-.13-2.13.24-8.55.97-17.58,1.87-26.52,2.63,2.95-.94,5.91-1.79,8.87-2.54,2.01-.1,4.02-.21,6.02-.31ZM120.71,93.03c-.15.34-.27.68-.35,1.02-.2-.08-.38-.19-.51-.38,0,0,.11-.25.33-.71.17.04.35.06.53.07ZM13.9,67.86c-.05-1.56-.09-3.11-.1-4.62,0-.71,0-1.41,0-2.12.46-8.65.99-17.3,1.69-25.92.2-2.41.38-4.84.62-7.24v3.61c0,10.44-.91,23.6-2.2,36.29Zm112.13-25.16c2.6-3.72,5.29-7.29,8.12-10.64.32-.06.65-.19.97-.4,1.07-.02,2.21-.04,3.39-.05-2.74,3.59-5.38,7.35-8.06,11.05-.65-.36-1.53-.5-2.58-.38-.46-.45-1.04-.5-1.61.19-.06.07-.12.15-.19.23-.01,0-.02,0-.04.01Zm-73.99,52.26c.51-.55.92-1.22,1.19-1.97.73-.98,1.59-1.9,2.45-2.79-1.01,1.7-2.06,3.41-3.19,4.9-.14-.08-.29-.12-.45-.14Zm5.88-9.1c-.03.12-.04.25-.06.38-.63-.59-1.15-1.54-1.45-2.66.91-1.73,1.84-3.42,2.8-5.08.47-.68.94-1.36,1.42-2.04-1.05,2.98-1.97,6.1-2.71,9.4Zm27.55-20.44c6.12-8.91,12.05-18.75,18.94-26.47-.07,3.98-6.29,12.97-23.1,32.55-.08.13-.17.24-.25.37-.09.07-.18.14-.28.21,1.57-2.2,3.14-4.4,4.68-6.65Zm23.18-12.48c-.37-.04-.74-.06-1.11-.05,1.35-2.67,2.52-5.34,3.41-8.02,1.6-7.18,4.07-10.48,10.65-12-4.48,6.44-8.7,13.27-12.95,20.07Zm-78.2-.52c.06.24.1.51.11.79-.17.28-.34.56-.5.85.1-.63.2-1.28.29-1.92.03.09.06.17.1.29Zm15.28,10.2c2.43-3.63,4.61-6.9,6.6-9.83.2-.17.4-.32.61-.48-2.24,3.47-4.37,6.98-6.33,10.96-1.36,2.76-2.69,5.54-4.11,8.19-1.68,2.4-3.35,4.81-5.04,7.19-3.14,4.41-6.54,8.38-9.29,13.28,2.76-6.52,8.72-16.06,17.57-29.31Zm-4.03,29.86c.08-.1.17-.19.25-.29-.35,1.16.02,1.48.81,1.48.56.85,1.13,1.36,1.88,1.38-.89,1.92-1.75,3.89-2.56,5.93-.23.58-.31,1.18-.27,1.73-3.53.62-6.43.93-8.73.87,3.28-2.48,5.86-7.93,8.62-11.11Zm20.7-9.28c3.09-10.67,8.26-19.39,14.07-26.66-.46.87-.94,1.72-1.39,2.6-.3.57-.59,1.14-.88,1.71-.31.41-.61.82-.91,1.24-.36.5-.54,1.08-.58,1.66-3.38,6.57-6.74,13.16-10.3,19.45Zm9.01,1.78c.07-.04.13-.08.2-.13-.3.37-.61.75-.9,1.1.24-.33.47-.65.71-.97Zm29.07,3.3c.36,2.78,2.07,4.73,3.88,4.81-2.2,1.26-4.01,1.54-5.28.59-1.39,0-.82-1.95,1.39-5.4Zm43.27,3.49c-.26.09-.73.09-1.13.16.35-.88.64-2.2.97-3,.94-2.29,2.06-4.4,3.2-6.41,1.35-2.38,2.77-4.61,4.28-6.65.44-.45.88-.9,1.32-1.36,1.39-1.45,2.79-2.87,4.19-4.27-.45,1.08-.94,2.12-1.46,3.13-.78,1.31-1.54,2.67-2.29,4.07-2.97,4.88-6.37,9.3-9.05,14.32-.02,0-.03,0-.04,0ZM10.72,122.33c.2.32.44.59.71.83.05.16.1.31.16.45-.55-.11-1.09-.24-1.63-.4.3-.19.56-.48.76-.88Zm50.19-2.04c-7.88.15-15.73,1.34-23.61,1.3-2.74-.01-5.48-.05-8.22-.09,4.78-1.46,10.2-3.27,15.23-5.12,7.05,1.81,14.27,1.92,21.41,1.82,4.13-.06,8.27-.12,12.4-.2-4.42.57-8.84,1.47-13.25,2.29-1.32-.02-2.64-.03-3.95,0Zm30.73-2.65c.36-.01.71-.02,1.07-.03,9.54-.36,19.1-.61,28.59,1.15.59.11,1.19.22,1.79.34-5.2.39-10.41.76-15.61,1.06-5.27-1.08-10.54-2.09-15.83-2.52Zm39.25-3.11c2.59.06,5.19.12,7.79.18-2.58.31-5.19.17-7.79-.18Zm6.75-11.99c-3.5,0-3.89-3.1,1.25-11.11-.11.88-.13,1.76-.03,2.64.39,3.23,2,4,3.65,3.94.02.06.04.12.07.18-1.12,2.5-3.02,4.36-4.94,4.36Zm256.22,7.33c.78.1,1.56.22,2.34.3-.07,0-.13,0-.2,0-.72-.08-1.43-.18-2.15-.31Zm27.48-76.88s.05-.04.08-.06l-.2,1.48c-.32-.03-.64,0-.97.09.35-.54.71-1.04,1.09-1.51Zm-2.76,30.97c-.35-.36-.75-.61-1.19-.7-1.52-.31-2.89.02-4.16.79,1.37-2.56,2.72-5.12,4.06-7.71.63-1.22,1.27-2.43,1.91-3.66-.09,4.08-.32,7.88-.62,11.27Zm-280.76,59.73c5.18-.4,10.36-.76,15.54-1.04.37-.02.74-.03,1.11-.05-5.53.48-11.09.95-16.65,1.09Zm285.27-13.52c-.03.17-.05.33-.06.49-.01.02-.03.04-.04.07-.22-.03-.45-.07-.67-.1.03-.16.06-.35.09-.56.28-.28.57-.57.86-.86-.06.32-.12.65-.18.97Z"/>
    </g>
  </g>
</svg>