<?xml version="1.0" encoding="UTF-8"?>
<svg id="Livello_2" data-name="Livello 2" xmlns="http://www.w3.org/2000/svg" viewBox="0 0 776.77 204.95">
  <defs>
    <style>
      .cls-1 {
        fill: #f4e9e9;
      }

      .cls-1, .cls-2 {
        stroke-width: 0px;
      }

      .cls-2 {
        fill: #9e8d8d;
      }
    </style>
  </defs>
  <g id="Livello_1-2" data-name="Livello 1">
    <g>
      <path class="cls-2" d="m32.76,57.22c34.19,1.09,71.92-2.73,107.31-4.44,50.75-2.45,101.95-6.53,152.77-4.44,49.03,2.02,98.89,10.24,148.17,8.87,53.24-1.48,107.41-5.01,160.67-7.39,24.89-1.11,50.31,1.77,75.36,2.97,20.55.99,44.29,4.32,64.13,3.09,1.3,24.27-.3,50.47-8.69,73.1-3.61,9.75-10.46,19.89-12.55,30.31-2.21,10.99.08,22.55-2.39,33.44-24.39,10.23-47.04,1.99-71.91,2.14-35.72.21-73.21,2.56-109.29,4.36-33.25,1.66-65.67-8.67-98.94-7.39-30.19,1.16-60.42,1.48-91.13,1.48-65.66,0-132.3-3.6-196.58.04-29.22,1.66-58.64,4.11-87.41,4.1-16.04,0-54.16,2.73-60.61-11.95-4.52-10.3,1.47-31.14,2.97-41.7,2.06-14.43,5.25-29.17,6.01-43.73.49-9.39-2.07-26.29,4.21-33.77.15-.18,18.67-9,19.37-9.21,6.83-2,12.75-4.54,14.8,4.55"/>
      <g>
        <path class="cls-1" d="m774.15,173.77c-1.93,0-1.93,3,0,3s1.93-3,0-3Z"/>
        <path class="cls-1" d="m775.34,42.99c-4.63-4.21-10.02-7.24-15.82-9.4.42-4.41.84-8.83,1.25-13.24.22-2.35-2.22-4.6-4.5-4.5-.68.03-1.29.18-1.84.43.17-.62.32-1.25.5-1.86.32-1.05.66-2.1,1.04-3.12.15-.41.32-.82.48-1.23,0-.01,0-.02.02-.03.11-.25.22-.49.34-.74.41-.88.87-1.73,1.36-2.56,1.2-2.03.53-5.03-1.61-6.16-2.17-1.14-4.88-.55-6.16,1.61-4.82,8.17-6.41,18.06-7.39,27.41-6.2-.85-12.47-1.15-18.44-1.19-8.97-.07-17.85.73-26.77,1.51-12.44,1.09-24.93.84-37.38-.06-25.39-1.83-50.51-4.91-76.01-5.06-25.82-.15-51.61,1.4-77.38,2.81-26.02,1.42-52,2.33-78.07,2.05-25.85-.28-51.71-1.06-77.56-.62-12.83.22-25.65.74-38.44,1.75-13.11,1.04-26.13,2.25-39.29,2.44-26.01.37-51.97-1.53-77.94-2.67-17.29-.76-34.63-.66-51.97-.47-.67-.05-1.35-.07-2.02-.11-.84-1.5-2.51-2.45-4.84-1.85-2.07.54-4.08,1.19-6.05,1.89-.51.03-1.01.05-1.52.08.07-.08.13-.16.2-.24,3.67-4.56-1.8-9.94-6.36-6.36-2.42,1.9-4.86,3.78-7.31,5.65-8.32-.78-16.64-1.42-25.02-1.4-2.7,0-5.39-.06-8.09-.16.51-3.78-4.16-7.35-7.52-3.92-.95.97-1.9,1.95-2.85,2.92-1-1.96-3.3-3.14-5.97-1.65-.95.53-1.87,1.1-2.79,1.68-1.81-.08-3.62-.15-5.43-.2,2.56-3.25,4.83-6.74,6.49-10.7,1.54-3.67-3.53-7.08-6.61-5.08-2.18,1.41-4.32,2.89-6.5,4.32.1-.92-.06-1.9-.5-2.85-.36-.79-.85-1.47-1.32-2.2-.03-.05-.07-.11-.1-.18.18-2.06-.6-3.95-2.65-4.82-1.85-.78-4.74-.22-5.62,1.84-.15.36-.29.72-.44,1.08,0,0,0,0-.01,0,0,.02,0,.03,0,.05-1.17,2.85-2.21,5.73-3.13,8.64-1.57.71-2.77,2.27-2.7,4.08.07,1.68.11,3.36.12,5.03-1.7.17-3.39,1.06-3.88,2.79-.32.08-.65.16-.97.25-.67-.47-1.28-1-1.83-1.59-3.95-4.26-10.3,2.12-6.36,6.36.38.41.78.8,1.2,1.16-.07,1.42.55,2.78,2.21,3.52,1.27.57,2.55,1.11,3.83,1.64-.47,2.79-.94,5.57-1.41,8.36,0,0,0,0,0,.01-.53.92-.67,1.98-.5,2.99-1.39,8.31-2.74,16.64-3.95,24.98-.29.66-.38,1.35-.3,2.02-.33,2.34-.65,4.69-.96,7.04-1.23,9.42-2.23,18.88-2.82,28.36-.35,5.61-.37,11.22-.48,16.83-.11.47-.11.95-.03,1.43-.06,2.48-.14,4.96-.28,7.43-.5,8.7-3.45,19.84,1.05,27.96.24.43.5.84.77,1.23.45,2.86,1.3,5.93,3.49,7.87-1.21,1.42-1.56,3.62-.52,5.23,1.34,2.08,3.96,2.85,6.16,1.61,1.83-1.03,3.14-2.67,4.1-4.52,1.35,1.57,2.99,2.86,5,3.58,3.85,1.37,7.77.23,11.23-1.65.71-.38.85-1.05.67-1.64,30.24.39,60.48-1.3,90.72-1.93,3,.02,6,.03,9-.02,2.84-.04,5.67-.11,8.5-.2,38.74-.09,77.36,3.07,115.88,7.05,39.51,4.08,78.96,8.91,118.6,11.53,40.2,2.67,80.21,2.42,120.32-1.44,20.19-1.94,40.42-4.78,60.69-5.65,19.91-.86,39.76,1.27,59.62,2.1,4.99.21,9.98.33,14.97.33.85,0,1.32-.58,1.43-1.23,25.5,1.22,51.03,1.66,76.61,0,4.73-.31,9.35-.71,12.82-2.77-.21,2.6-.44,5.21-.72,7.8-.22,2.01-.46,4.02-.73,6.02-.25,1.85,1.57,3.94,3.3,4.34,1.84.42,4.2-.24,5.08-2.07.82-1.7,1.49-3.42,2.04-5.17,2.25-.29,4.08-2.07,4.09-4.44,0-19.6,1.2-39.17,2.69-58.71,1.48-19.46,3.22-38.89,4.28-58.38.42-7.65.71-15.3.86-22.95.07-.31.11-.64.11-.98v-8.21c2.97,1.44,5.77,3.21,8.21,5.44,4.27,3.89,10.66-2.45,6.36-6.36Zm-40.25,122.16c-.19-.06-.37-.13-.56-.19.77-.82,1.52-1.67,2.21-2.56.65-.22,1.31-.42,1.96-.59,0,.01,0,.03,0,.04-.58,1.26-1.1,2.53-1.51,3.81-.71-.14-1.41-.3-2.1-.51Zm-49.21,16.52c-2.8-.01-5.61-.04-8.41-.08,1.81-.86,3.54-1.91,5.18-3.02.13-.09.25-.18.37-.26.33,1.55,1.37,2.9,2.86,3.36Zm-522.34-8.06c-1.7.06-3.4.11-5.1.15-5.14.02-10.27.09-15.41.19-12.05-.04-24.08-.49-36.13-1.29,17.96-1.39,35.88-3.32,53.86-4.3,19.75-1.08,39.41-.36,59.03,1.12-18.72,1.85-37.45,3.42-56.26,4.13Zm-126.74-28.79c4.9-3.07,9.73-6.24,14.5-9.49-1.14,1.29-2.22,2.63-3.21,4.03-2.73,2.13-5.47,4.25-8.24,6.32-1.5,1.12-.16,3.63,1.49,2.6-1.6,1.4-3.09,2.92-4.35,4.58-.02-2.68-.08-5.36-.19-8.04Zm56.09-101.62c1.69-.14,3.39-.3,5.08-.48-4.9,3.69-9.79,7.38-14.65,11.12,3.42-3.34,6.66-6.87,9.57-10.63Zm79.76-.06c.51.04,1.03.09,1.54.14.23.02.45.05.68.07.03,0,.03,0,.05,0,.88.16,1.76.29,2.63.51.45.12.88.26,1.32.4.01,0,.1.03.19.06.06.03.12.06.21.11.1.05.4.27.65.42-.16-.15-.24-.34.04-.06.06.06.12.12.18.17.03.01.08.04.09.03-.02,0-.04,0-.06,0,.12.12.25.23.36.36,1.19,1.28,3.22,1.62,4.85,1-12.25,8.63-24.1,17.84-35.89,27.09,2.62-2.35,5.18-4.77,7.61-7.33,1.39-1.46,2.75-2.97,4.04-4.54.13-.12.25-.25.38-.38,4.7-4.53,9.54-8.93,14.74-12.88,0,0,0,0,0,0,.1-.08.2-.15.3-.23,1.33-1.04-.46-3.39-1.82-2.36-.1.08-.2.16-.3.24,0,0,0,0,0,0-.91.71-1.82,1.42-2.73,2.12.3-.77.6-1.54.92-2.31.52-1.25-1.17-2.32-2.2-1.69-.89.54-1.76,1.12-2.63,1.71.92-.94,1.83-1.88,2.74-2.83.7.05,1.4.1,2.1.16Zm326.33,8c.12-.23.24-.47.35-.7.41.02.82.03,1.22.05-.53.21-1.05.43-1.58.65Zm-119.27,120.55c-.88.54-1.67,1.23-2.55,1.77-.24.15-.49.28-.73.41.84-.76,1.7-1.51,2.58-2.23.12-.1.41-.32.57-.44.33-.25.67-.49,1.01-.73.78-.56,1.57-1.1,2.38-1.63.05-.03.1-.06.14-.09-.45.41-.9.83-1.36,1.23-.47.41-.95.82-1.44,1.22-.14.12-.29.24-.44.36-.26.21-1.31.84-.16.14Zm-60.21-2.2c-.06-.07-.15-.22-.27-.46.02.03.05.05.07.08.08.11.16.22.24.33,0,.02.01.04.02.05-.02,0-.04,0-.07,0Zm-241.71-4c-3.66.26-7.33.53-11,.78,3.05-2.68,6.01-5.48,8.94-8.29,1.78-.36,3.55-.75,5.32-1.18-.92,1.06-1.83,2.13-2.71,3.23-1.24,1.56-1.33,3.79-.55,5.47Zm68.48-124.85c.71.02,1.41.06,2.11.07,2.99.06,5.97.15,8.95.26-4.17,3.21-8.31,6.45-12.43,9.73,1.05-1.34,2.07-2.71,3.02-4.15,1.66-2.53.41-4.83-1.66-5.9Zm280.96,5.94c3.07.18,6.14.36,9.22.54-3.91,1.45-7.73,3.25-11.42,5.22.56-.84,1.14-1.67,1.68-2.53.68-1.07.8-2.21.52-3.24Zm286.8,97.34c-1.13.86-2.27,1.72-3.41,2.58,1.12-1.03,2.24-2.06,3.36-3.1.01.17.03.35.05.52Zm-396.95,23.05c.06.05.12.1.18.14.24.22.23.37-.29-.21.04.02.07.05.11.07Zm-277.83-.11c1.63-.51,3.22-1.17,4.76-1.95-.42.75-.04,1.83.74,2.14-1.84-.03-3.68-.07-5.51-.17,0,0,0-.02.01-.03ZM215.05,62.71c2.16-.53,4.31-1.1,6.45-1.72-4.6,3.64-9.37,7.07-14.24,10.37,2.83-2.69,5.46-5.56,7.79-8.65Zm12.23,8.6c-.24.1-.49.2-.73.3.15-.13.3-.26.45-.4.09.03.18.07.28.1Zm440.81-1.15c6.73-4.25,13.99-8.48,21.67-11.2-2.9,3.14-5.89,6.18-8.97,9.13-7.15,1.49-13.84,4.04-20.31,7.19.11-.11.22-.21.33-.32,2.4-1.64,4.82-3.25,7.28-4.8Zm-315.77,93.36c-.23-.12-.47-.22-.72-.3.03-.03.06-.06.09-.09.39.02.79.04,1.18.07-.1.17-.18.34-.26.52-.1-.07-.19-.15-.3-.21Zm-211.15-17.08c.15.29.32.57.53.83-2.35,1.47-4.71,2.92-7.12,4.29,2.01-1.89,4.26-3.57,6.59-5.12Zm147.66-75.55c.68-.62,1.37-1.25,2.05-1.88.12.07.25.12.37.18-.6.71-1.19,1.45-1.75,2.2-.87,1.16-.73,2.9-.12,4.2-6.78,3.98-13.55,7.97-20.25,12.09-.72.44-1.44.9-2.16,1.35,7.48-5.81,14.84-11.77,21.85-18.14Zm188.6,94.08c-.47-.12-.93-.2-1.4-.27.08-.03.15-.07.23-.1.5,0,.99-.01,1.49-.02-.1.14-.2.26-.29.4,0,0-.01,0-.02,0Zm-13.51-36.28c-3.77,3.33-7.59,6.6-11.56,9.69-1.71,1.34-3.47,2.65-5.25,3.91,5.49-4.42,10.76-9.11,16.09-13.73.24.04.48.08.72.13Zm-30.68,32.35c-.56-.12-1.12-.23-1.68-.36,1.67-.57,3.31-1.21,4.92-1.92-.64.61-1.28,1.23-1.91,1.85-.44.14-.89.28-1.33.43Zm95.43-23.85c-2.16,1.59-4.31,3.18-6.43,4.81-.16-.31-.35-.6-.57-.87,2.46-1.76,4.91-3.55,7.35-5.36,3.73-2.77,7.5-5.48,11.26-8.21-3.93,3.15-7.8,6.35-11.62,9.63Zm-56.09-16.28c-.11-.01-.22-.02-.33-.04,1.48-1.23,2.96-2.46,4.45-3.68-.23.2-.46.4-.69.61-1.15,1.03-2.29,2.07-3.44,3.11Zm31.42-3.42c6.6-5.47,13.24-10.87,20.08-16.04,7.98-6.03,16.1-11.86,24.22-17.69-11.83,9.95-23.92,19.6-36.31,28.83-2.67,1.63-5.33,3.26-7.99,4.9Zm-359.23,35.31c1.8-.9,3.58-1.84,5.35-2.77.06.12.15.23.25.33-1.3.9-2.62,1.77-3.96,2.63-.57.02-1.12-.03-1.64-.18Zm70.8-41.25s.03.03.05.05c-4.3,3.7-8.64,7.36-13.07,10.92-3.27,2.63-6.56,5.25-9.84,7.87-2.14,1.48-4.3,3.01-6.43,4.58.99-1.29,1.92-2.64,2.69-4.07,2.96-2.45,5.93-4.89,8.94-7.27,3.08-2.18,6.14-4.39,9.19-6.62,2.82-1.82,5.64-3.64,8.46-5.46Zm15.01-8.97s-.01,0-.02,0c1.47-1.28,2.95-2.55,4.43-3.83.77-.51,1.54-1.02,2.31-1.52-1.05.84-2.11,1.67-3.16,2.51-1.18.95-2.38,1.88-3.56,2.83Zm-33.99,17.65c.51-.47,1-.94,1.5-1.41.7-.29,1.4-.6,2.1-.91-1.2.78-2.4,1.55-3.6,2.33Zm18.43,37.18c-.27-.03-.16-.02,0,0h0Zm191.1-28.76c3.46-2.52,6.97-4.98,10.49-7.42-.61.64-1.23,1.28-1.84,1.92-2.9,1.82-5.78,3.65-8.65,5.49Zm-40.52,10.07c.52-.36,1.04-.72,1.55-1.08-.09.08-.18.15-.27.23-.35.3-.7.6-1.05.9-.08-.02-.15-.04-.23-.05Zm-25.44-5.46c-4.06,3.08-8.06,6.24-11.95,9.52.35-.65.5-1.37.47-2.1,5.12-4.22,10.07-8.66,15.1-12.98,1.68-1.44,3.34-2.82,4.99-4.18,1.5-1.13,3-2.27,4.5-3.39,6.52-4.87,13-9.93,19.97-14.14,5.79-3.5,11.84-6.55,17.86-9.64,5.98-3.07,12.15-6.18,18.01-9.73-22.48,16.3-47.21,30.18-68.95,46.64Zm-13.64-41.75c.06.1.12.2.19.28.09.12.2.23.31.34-7.02,6.05-13.89,12.3-20.66,18.64-11.02,8.36-22.1,16.52-33.52,23.86-3.04,1.95-6.12,3.85-9.23,5.69,1.72-1.71,3.5-3.35,5.29-4.98,1.4-1.27,2.81-2.53,4.23-3.79,17.7-13.46,35.96-26.25,53.41-40.04Zm60.91,25.68c7.81-5.42,15.7-10.71,23.66-15.91-.18.15-.35.29-.53.44-9.47,7.96-19.08,15.75-28.63,23.61.25-1.3-.08-2.75-.8-3.74,2.1-1.47,4.2-2.94,6.31-4.41Zm-19.52,34.57c.6-.4,1.21-.8,1.81-1.2-.75.85-1.5,1.7-2.26,2.54.03-.07.07-.13.1-.21.19-.36.3-.74.35-1.14Zm-101.28-26.46c-3.07,2.33-6.12,4.67-9.15,7.05-5.01,3.93-9.95,7.96-14.79,12.09-.57-.76-1.37-1.36-2.36-1.65-.85-.25-1.71-.46-2.57-.64.98-.72,1.98-1.44,2.97-2.15,8.52-6.05,16.97-12.22,25.68-17.99,5.29-3.5,10.65-6.88,16.02-10.26-5.34,4.43-10.62,8.93-15.8,13.55Zm-42.38,16.2c-.74.05-1.47.1-2.21.16,2.94-1.85,5.89-3.7,8.83-5.55-2.27,1.72-4.49,3.5-6.62,5.39Zm32.19-59.88c3.25-2.36,6.46-4.78,9.6-7.27-2.09,1.77-4.2,3.51-6.27,5.28-1.11.65-2.22,1.32-3.32,1.99Zm-66.54,40.04c.32-.09.63-.19.94-.28-1.45,1.28-2.91,2.53-4.39,3.77-.02,0-.04,0-.06,0,.46-.64.91-1.29,1.34-1.96.72-.51,1.44-1.02,2.17-1.53Zm-47.74,33.1s-.08.02-.11.04c.03-.02.05-.04.08-.06.01,0,.02.02.04.03Zm21.86-.83c.16-.09.32-.18.48-.28.86-.07,1.71-.2,2.54-.4-.25.35-.5.7-.75,1.05h-2.7c.14-.12.29-.25.43-.37Zm195.91,6.14c1.78-1.52,3.56-3.05,5.34-4.58-1.54,1.66-3.13,3.27-4.77,4.84-.37.06-.74.12-1.11.19.19-.14.37-.28.54-.45Zm290.61.49c-.13-.21-.3-.4-.52-.53,3.73-4.25,7.75-8.24,11.91-12.1-.75,1.34-.85,2.93-.12,4.31-1.43,1.07-2.86,2.14-4.26,3.25-2.26,1.79-4.57,3.54-7.01,5.07Zm-25.82-1.94c1.48-1.21,2.93-2.42,4.37-3.61,2.04-1.68,4.07-3.4,6.11-5.09-1.45,1.38-2.88,2.77-4.29,4.2-.7.72-1.06,1.63-1.14,2.58-1.11.66-2.22,1.31-3.34,1.94-.57-.01-1.13,0-1.7-.02Zm88.69-49c.13-.24.23-.48.32-.73.48-.24.97-.48,1.45-.71-.16,1.25-.3,2.5-.45,3.74,0,0,0,0,0,0-1.62,1.39-3.24,2.77-4.87,4.15,1.19-2.15,2.37-4.3,3.55-6.45Zm-77.62,53.96c-.56.78-1.12,1.56-1.65,2.36-.55.81-.71,1.79-.59,2.74-1.61.02-3.21,0-4.82-.05-.58-.02-1.16-.06-1.74-.09,2.99-1.54,5.92-3.2,8.8-4.95Zm21.88-57.03c-.5.35-1.01.69-1.51,1.04-1.07-.26-2.2-.16-3.15.47-2.18,1.43-4.32,2.9-6.45,4.39-.04-1.24-.57-2.59-1.22-3.61-.2-.32-.46-.61-.74-.88.35-.24.7-.48,1.05-.72,5.11-1.75,10.35-3.27,15.63-4.26-1.21,1.19-2.41,2.39-3.62,3.58Zm-29.92-29c.69-.75,1.36-1.52,2.02-2.29,3.98-2.88,7.97-5.74,12.01-8.52-4.64,3.65-9.33,7.26-14.04,10.82Zm-56.71,18.62c-.21-.14-.42-.27-.65-.37.95-.67,1.89-1.35,2.85-2.01,7.58-5.23,15.21-10.39,22.58-15.92-.45,1.16-.38,2.5.14,3.64-8.23,5.01-16.56,9.86-24.92,14.66Zm-130.28,25.03c.17-.16.34-.32.51-.48.03.02.06.04.09.06-.2.14-.4.28-.59.42Zm-183.97-49.03c2.52-1.5,5.15-2.93,7.87-4.15-5.28,4.37-10.45,8.87-15.6,13.39-6.31,4.63-12.73,9.11-19.03,13.76-6.07,4.48-12.13,9.01-18.51,13.06-2.17,1.38-4.39,2.69-6.65,3.93,1.18-1.22,2.34-2.46,3.49-3.71,3.5-2.5,7.01-4.98,10.54-7.43,12.91-8.96,25.05-18.96,37.46-28.59.14-.09.28-.18.43-.27Zm162.46,94.9c.25.06.51.11.76.17-.37.03-.73.06-1.1.08.11-.09.22-.17.33-.26Zm303.33-94c-.04.24-.07.47-.11.71-7.27,4.54-14.76,8.76-22.28,12.9,2.17-1.77,4.32-3.57,6.44-5.42,7-6.13,13.74-12.8,19.41-20.25,0,.39-.03.78-.04,1.17-1.74,3.42-2.8,7.28-3.41,10.9Zm-7.65,15.55c.3-.17.61-.35.91-.53-3.13,2.43-6.18,4.95-9.19,7.52-4.75,3.68-9.6,7.24-14.5,10.74.63-1.53.18-3.28-.84-4.56,7.88-4.38,15.8-8.69,23.62-13.18Zm-25.3-4.77c-4.48,3.42-9.03,6.71-13.54,9.89-.72-.58-1.63-.94-2.68-.95-2.88-.02-5.76.18-8.64.53,1.25-.96,2.49-1.93,3.73-2.91,6.7-3.96,13.48-7.76,20.25-11.59-.05.26-.12.52-.17.78-.23,1.37.14,3.07,1.04,4.26Zm-236.3,28.39c-1.31.94-2.62,1.87-3.94,2.81-.3-.15-.6-.33-.9-.49.01,0,.01,0,.02-.02.86-.64,1.72-1.29,2.6-1.91,2.94-2.07,6.04-3.92,9.28-5.48-2.36,1.7-4.71,3.4-7.06,5.09Zm-177.93-42.84c.06-.07.11-.15.17-.22.15-.07.3-.13.45-.19-.21.14-.41.28-.62.41Zm-132.51,71.38c-1.12.61-1.78,1.46-2.07,2.38-1.28.84-2.54,1.7-3.77,2.61-3.52,2.61-6.87,5.56-9.27,9.25-1.36.59-2.76,1.13-4.19,1.57-1.49,0-2.98-.21-4.34-.75,17.86-11.91,35.3-24.44,52.75-36.94.43-.16.87-.31,1.3-.47-9.52,8.36-19.31,16.33-30.42,22.35Zm15.88-82.98c-3.51,2.6-7.02,5.19-10.5,7.82,2.08-1.65,4.14-3.33,6.17-5.06,1.44-.93,2.88-1.85,4.33-2.76Zm-82.68,85.75c-2.19,1.33-4.4,2.62-6.62,3.91-1.14.08-2.28.16-3.42.28.02-.02.04-.03.06-.05,1.46-.52,2.87-1.11,4.16-1.68,2.92-1.3,5.74-2.87,8.39-4.68,1.54-1.05,3.08-2.18,4.45-3.48-.13.3-.23.61-.3.93-2.41,1.29-4.61,2.96-6.72,4.77Zm14.17,3.45c.47-.85.83-1.73,1.08-2.64,2.18-1.6,4.38-3.18,6.58-4.76,0,0,0,0,0,0,.7-.29,1.4-.57,2.1-.86-3.24,2.6-6.38,5.31-9.41,8.14-.12.04-.24.08-.36.13Zm16.73-13.83c2.31-1.62,4.63-3.24,6.95-4.84-2.04,1.44-4.07,2.89-6.08,4.38-.16.11-.31.23-.46.35-.14.04-.27.07-.41.11Zm28.63-32.5c.34-.34.67-.69,1.01-1.03,7.5-7.57,15.72-14.43,24.19-20.88,1.35-1.03,2.72-2.03,4.08-3.04-3.35,3.67-6.94,7.12-10.69,10.4-6.1,4.98-12.31,9.8-18.6,14.54Zm-41.92,30.62c-1.83,1.34-3.66,2.69-5.49,4.03-.75-.2-1.53-.22-2.25.01-.4.13-.76.31-1.09.52.31-.79-.02-1.81-.75-2.1,3.92-2.87,7.86-5.72,11.77-8.57.85-.34,1.69-.69,2.55-1.01,3.16-1.19,6.36-2.28,9.59-3.25-4.78,3.45-9.57,6.91-14.33,10.38Zm39.8-47.99c-1.73,1.51-3.42,3.05-5.12,4.6-.37-.18-.83-.18-1.31.11-1.17.7-2.31,1.43-3.46,2.16,2.76-2.68,5.61-5.28,8.51-7.79,6.12-5.29,12.5-10.27,18.96-15.14-.53.52-1.06,1.04-1.59,1.56-2.81,2.76-5.72,5.43-8.57,8.15-2.48,2.11-4.97,4.2-7.42,6.35Zm-80.11,77.67c.51.01,1.02,0,1.52-.04-1.26.68-2.55,1.29-3.87,1.81.77-.6,1.56-1.19,2.35-1.77Zm71.75-52.88c-.23.29-.45.59-.67.89-3.21,2.36-6.44,4.7-9.67,7.04-3.54.83-7.04,1.8-10.49,2.93,12.85-9.56,25.57-19.29,38.26-29.06-6.29,5.59-12.28,11.56-17.43,18.2Zm-79.08,58.94c4.41-.52,8.54-2.46,12.35-4.66.96-.56,1.91-1.14,2.85-1.74.06.1.13.19.21.28-2.32,1.95-4.6,3.94-6.83,5.99-2.86.1-5.72.15-8.57.13Zm70.39-9.31s.04.02.05.03c-.03,0-.07,0-.1,0,.02-.01.03-.02.05-.03Zm34.55,1.14c.01.2.05.4.08.6-.37.2-.74.4-1.12.59.34-.41.68-.8,1.04-1.19Zm178.61-1.02c-.12.22-.24.44-.36.67-.19.38-.33.78-.42,1.18-.66.01-1.32.03-1.98.05.92-.63,1.84-1.26,2.76-1.9Zm337.82,11.4c3.47-3.36,7.06-6.58,10.74-9.7,5.08-3.13,10.1-6.38,15.07-9.69-1.03.9-2.06,1.8-3.1,2.69-4.23,3.58-8.83,6.71-13.19,10.38-2.52,2.13-5.07,4.48-7.17,7.14-.78-.31-1.56-.59-2.36-.83Zm74.61-64.44c-.41.29-.82.58-1.24.86.42-.5.85-1,1.26-1.51,0,.22-.02.43-.03.65Zm-.7-14.47c-1.56,1.12-3.09,2.28-4.62,3.44-2.04-.31-4.12-.35-6.2-.17.12-1.15.26-2.3.42-3.44,3.61-2.79,7.23-5.56,10.92-8.24.09-.06.16-.14.24-.21.06,2.71.1,5.42.13,8.14-.3.12-.6.28-.89.49Zm-40.73-17.26c.28-.51.57-1.03.87-1.53,1.59-.94,3.18-1.89,4.76-2.84-1.85,1.68-3.56,3.06-5.62,4.37Zm-122.45-23.08c-4.91,1.93-9.4,4.66-13.73,7.66-.67-.39-1.41-.59-2.18-.59,4.54-2.53,10.26-5.52,15.91-7.07Zm-55.75,17.92c-.06.03-.13.05-.2.08-20.73,9.95-39.64,23.2-58.27,36.63.49-.95.65-2.09.45-3.13,8.69-6.06,17.18-12.4,25.31-19.2,5.86-4.06,11.8-8,17.86-11.76,8.64-5.36,17.54-10.35,26.7-14.77-3.73,4.25-7.71,8.28-11.86,12.15Zm-37.19,6.7c-8.92,6.17-17.66,12.64-26.35,19.19-.21-.44-.49-.84-.85-1.17-.43-.4-.9-.69-1.39-.89,8.26-5.49,16.29-11.29,23.75-17.89,1.05.76,2.36,1.1,3.65.58.87-.35,1.74-.72,2.61-1.08-.47.42-.94.84-1.42,1.25Zm-5.24-16.68c-.06,1.04-.2,2.09-.37,3.14-6.72,4.03-13.23,8.43-19.56,12.83-.15-.59-.4-1.16-.78-1.65-.49-.64-1.09-1.07-1.74-1.35.08-.05.16-.1.24-.16,7.08-4.54,14.3-8.93,21.79-12.78.14-.01.28-.02.43-.03Zm-255-1.14c.96-.34,1.92-.69,2.87-1.06-.07.06-.13.12-.2.18-.89.3-1.78.6-2.67.88Zm-49.01,59.31s0-.01,0-.02c.04-.03.08-.06.12-.09-.04.04-.08.07-.12.1Zm-2.77-49.72c4.34-3.29,8.7-6.54,13.12-9.72-3.73,4-7.61,7.87-11.6,11.62.28-.91-.6-1.9-1.52-1.91Zm-6.65-15.99c.47-.36.94-.71,1.42-1.06-.25.54-.51,1.07-.81,1.59-.16-.23-.37-.41-.62-.53Zm-107.22,116.31c1.54-1.36,3.1-2.71,4.69-4.03.66.21,1.37.29,2.09.2-.51.46-1.01.93-1.53,1.39-.87.77-1.76,1.54-2.67,2.3-.86.05-1.71.1-2.57.14Zm34.03-3.62c-.17.48-.25.98-.26,1.47-1.09.07-2.19.12-3.28.18,1.19-.53,2.37-1.08,3.54-1.66Zm19.15-2.77c.06.02.11.05.17.06,3.93.72,7.8.28,11.55-.81,1.9-.04,3.83-.35,5.7-.81.72.19,1.44.33,2.18.42-.54.46-1.08.92-1.62,1.38-.37.32-.5.72-.46,1.11-7.49.64-14.98,1.3-22.48,1.89,1.66-1.07,3.31-2.15,4.96-3.23Zm30.7-1.88c1.56-.27,3.1-.76,4.57-1.37.48-.2.94-.41,1.41-.63-1.18,1.21-2.25,2.51-3.2,3.93-2.7.2-5.4.41-8.09.63,1.82-.76,3.58-1.63,5.31-2.56Zm184.55,4.25c-.31.83-.38,1.71-.18,2.56-.05-.09-.09-.18-.15-.26-.54-.8-1.14-1.54-1.77-2.24.7-.02,1.4-.04,2.1-.06Zm270.97,13.12c4.86,1.13,9.85,1.8,14.84,2.18,0,.19.02.37.05.56-6.19-.44-12.39-.89-18.58-1.34,1.24-.42,2.48-.88,3.69-1.4Zm117.86-9.73c.02.06.03.12.05.18-.23.17-.46.33-.69.5.22-.22.42-.46.64-.68Zm6.1-29.33c-.01-.49-.03-.99-.04-1.48,1.24-1.17,2.48-2.33,3.72-3.5-1.17,1.7-2.4,3.35-3.68,4.98Zm-79.13-86.78c2.33-1.88,4.64-3.79,6.91-5.74.48-.41.81-.94,1.02-1.52,2.84-.13,5.69-.23,8.55-.27-5.48,2.54-10.99,5.01-16.48,7.53Zm-45.39,3.38c-1.74.81-3.42,1.73-5.1,2.66,1.89-1.77,3.79-3.55,5.67-5.34.88-.84,1.28-1.85,1.3-2.87,4.24-.47,8.46-.97,12.68-1.46-4.89,2.22-9.68,4.74-14.56,7.02Zm-140.78,1.54c.76-.8,1.33-1.84,1.4-2.93.84-1.12,1.68-2.24,2.49-3.39,4.76.27,9.53.53,14.29.78-6.25.92-12.36,3.06-18.18,5.54Zm-44.9-9.12c-9.3,2.89-18.21,6.6-26.83,10.89-1.32.14-2.67.24-4.03.33,1.26-1.48,1.83-3.69.7-5.45-1.17-1.81-3.02-2.4-5.08-2.07-3.03.49-5.77,1.63-8.38,3.08.45-.5.89-1.01,1.34-1.52,1.4-.49,2.88-.93,4.51-1.35,7.18-1.88,13.56-2.53,20.9-3.13,3.95-.33,7.89-.67,11.83-1.03,1.68.08,3.36.16,5.05.25Zm-82.7-.67c-.06-.11-.1-.22-.17-.33-.09-.15-.2-.27-.31-.4.65-.02,1.31-.04,1.96-.07-.5.26-1,.52-1.49.8Zm-110.19,10.44c.13-.26.28-.51.4-.77.17-.34.27-.71.34-1.08,2.8-.68,5.62-1.22,8.47-1.53-3.01,1.28-6.1,2.36-9.21,3.38Zm-21.5,3.12c.14.4.42.77.8.97-3.09,2.23-6.19,4.44-9.31,6.63,1.99-2.05,3.92-4.14,5.83-6.26.89-.47,1.78-.91,2.68-1.34Zm-62.38-18.63c1.99.16,3.98.29,5.97.4-8.01,3.44-15.51,8.05-22.64,13.24,5.47-4.65,11.02-9.21,16.67-13.64Zm192.32,126.43c.1.18.21.37.34.54,1.35,1.74,3.86,2.32,5.8,1.16.92-.55,1.83-1.13,2.73-1.71,1.56-.07,3.13-.44,4.65-.97.15.22.32.42.52.6.94.87,2.03,1.27,3.12,1.27-.5,1.28-.87,2.6-1.13,3.95-5.69-.45-11.38-.88-17.08-1.28.86-.98,1.31-2.27,1.04-3.57Zm33.54,5c1.3.63,2.86.68,4.15-.15,1.09-.7,1.86-1.86,2.12-3.1.63-.11,1.27-.21,1.9-.32-1.15,1.1-2.25,2.25-3.28,3.48-.56.53-1.05,1.14-1.47,1.79-1.67-.16-3.33-.31-4.99-.47.53-.4,1.05-.81,1.56-1.23Zm65.87,4.41c5.27-.17,10.54-.02,15.78.66.08.01.17.02.25.03-6.89.18-13.78.26-20.67.2,1.55-.3,3.1-.59,4.64-.89Zm69.19-2.29c.09.28.21.55.35.8-1.12.04-2.24.09-3.35.13,1.03-.24,2.03-.55,3.01-.93Zm22.72-4.74c1.09,2.08,3.53,3.37,6.03,1.72,2.8-1.85,5.59-3.72,8.38-5.6.05,0,.1,0,.15,0-.37.44-.75.87-1.11,1.32-1.04,1.29-1.62,2.7-1.16,4.38.38,1.37,1.65,2.92,3.14,3.14,4.34.65,8.52-.5,12.44-2.49-.5.95-.94,1.94-1.3,2.96-7.48-.28-14.97-.44-22.46-.44-3.91,0-7.83.05-11.74.13,2.67-1.39,5.21-3.17,7.62-5.12Zm65.58,5.95c.05.38.14.76.31,1.14.1.22.21.42.33.61-.93-.07-1.85-.14-2.78-.2.71-.51,1.42-1.03,2.13-1.55Zm80.8,5.68c.1.3.23.59.38.87-2.22-.07-4.44-.14-6.67-.22,2.1-.14,4.2-.35,6.28-.65Zm46.76-.89c.26.61.64,1.14,1.14,1.57-1.65.07-3.3.14-4.95.19,1.3-.52,2.57-1.11,3.81-1.77Zm27.26-26.88c-.29.04-.57.1-.86.15.32-.44.65-.88.97-1.33-.04.39-.07.79-.11,1.18Zm.35-108.81c.63-.02,1.27-.03,1.9-.04-.22,5.49-.27,11-.24,16.5-.4.32-.81.61-1.21.93.26-.93.51-1.86.71-2.81.84-4.03-2.95-6.66-6.52-5.11-.05-.29-.1-.59-.16-.88-.2-1-.67-1.86-1.29-2.57,0-.02.02-.03.03-.05,1.27-2.34.5-4.44-1.06-5.61,2.61-.16,5.23-.29,7.85-.36Zm-34.15,1.65c6.67.06,13.31-.42,19.96-.88-4.45,3.5-9.05,6.76-13.77,9.86.18-.32.38-.63.56-.95,1.38-2.48.19-5.89-2.69-6.61-10.73-2.69-22.36,1.38-32.3,5.92,1.09-2.25,2-4.64,2.48-7.09.5-.74.7-1.59.66-2.43,8.36.88,16.69,2.09,25.1,2.16Zm-224.23-7.66c25.52-1.1,51.01-2.94,76.55-3.72,22.17-.68,44.24-.23,66.31,1.49-3.06.35-6.12.73-9.16,1.13-9.15,1.22-18.3,2.23-27.46,3.05-5.27-2.18-12.05-.74-17.68,1.3-.8.05-1.59.1-2.39.14-.35-.52-.77-.97-1.27-1.3-9.43-6.29-21.58-1.94-30.95,2.14-.04.02-.07.03-.11.05-12.56,0-25.11-.29-37.66-.77-.74-.25-1.53-.3-2.27-.09-10.29-.42-20.58-.95-30.87-1.53-6.75-.38-13.5-.78-20.25-1.19,12.4,0,24.81-.17,37.21-.7Zm-119.61,6.14c-5.86,2.19-11.55,4.77-17.12,7.6-.42-.19-.87-.32-1.32-.37,1.15-2.37-.01-5.3-2.19-6.28-.1-.28-.23-.56-.4-.82-.02-.03-.04-.05-.07-.08,7.03-.11,14.06-.13,21.09-.05Zm-44.12.83c-1.08.48-2.13,1.01-3.17,1.58-.76-.21-1.6-.23-2.45-.09-.6.1-1.19.23-1.79.34.3-.48.61-.96.9-1.45,2.17-.14,4.34-.27,6.51-.38Zm-17.99,1.26c-1.2,1.6-2.47,3.15-3.79,4.67-1.7.62-3.39,1.27-5.07,1.94.02-.15.04-.3.05-.46.32-.26.64-.52.95-.78,1.18-.98-.08-2.82-1.38-2.53,1.64-.87,3.29-1.7,4.97-2.47,1.42-.14,2.84-.25,4.26-.37Zm-32.19,4.3c.74-.81,1.11-1.69,1.2-2.56,1.92-.01,3.83-.04,5.75-.09-1.2.79-2.38,1.6-3.56,2.41-1.99.84-3.94,1.8-5.85,2.8.83-.84,1.65-1.69,2.45-2.56Zm-12.24-.41s-.05.05-.08.07c-.15-.72-.45-1.4-.85-1.93-.15-.19-.31-.36-.48-.53,1.23.04,2.46.1,3.69.13-.75.76-1.52,1.5-2.28,2.25Zm-33.81-4.49c8.34.76,16.68,1.38,25.02,1.8-2.89.78-5.79,1.75-8.53,3-.38-.19-.78-.33-1.19-.42-.21-.53-.69-.96-1.36-.99-4.81-.2-9.49.4-14.12,1.41-.14-.05-.29-.09-.45-.1-.48-.03-.96-.04-1.44-.05-1.15-2.08-3.5-3.35-5.86-1.57-1.12.85-2.25,1.69-3.38,2.53-3.49.75-6.9,1.89-10.2,3.28,2.75-3.28,5.42-6.64,7.95-10.1,4.51.39,9.02.79,13.55,1.2Zm-34.75-.27c.65-.76,1.03-1.64,1.14-2.54.76.06,1.51.1,2.27.16-1.14.78-2.27,1.59-3.41,2.38Zm-120.76.55c.5-.45.98-.91,1.47-1.36,1.2-.31,2.4-.67,3.6-1.09-3.87,3.27-7.65,6.63-11.46,9.87-1.74,1.48-3.51,2.98-5.31,4.48,3.91-3.95,7.81-7.92,11.69-11.89Zm6.85,59.87c3.2-2.76,6.34-5.57,9.47-8.41,8.81-6.52,18.14-12.22,27.36-18.11-17.81,14.58-35.71,29.04-54.47,42.4-2.19,1.56-4.39,3.08-6.6,4.6,7.9-7.08,16.33-13.65,24.25-20.49ZM49.62,10s0,.01,0,.02c0,.06-.02.12-.03.22.01-.08.01-.16.02-.24Zm-12.39,80.98c1.79-.92,3.59-1.83,5.38-2.75-1.87,1.81-3.72,3.66-5.54,5.53.05-.93.11-1.85.16-2.78Zm-1.02,15.21c.24-.04.48-.09.72-.18,4.76-1.61,9.28-3.66,13.62-6.02-5.06,3.9-10.06,7.86-14.83,12.06.13-1.96.3-3.91.48-5.86Zm3.14,73.04c-.42-.17-.81-.38-1.19-.62,2.18.07,4.36.13,6.54.18.17.22.4.39.67.48-1.95.62-4,.78-6.02-.05Zm14.57-3.29c.19-.11.37-.22.56-.33,10.3-.34,20.61-.85,30.91-1.48,1.84.12,3.67.25,5.5.38,3.24.23,6.47.46,9.7.68-15.56.49-31.11.88-46.68.76Zm475.32,13.39c-20.23,2.08-40.47,4.01-60.8,4.65-20.1.63-40.23.26-60.31-.77-39.7-2.04-79.2-6.64-118.71-10.86-30.87-3.3-61.8-6.36-92.82-7.78,13.09-1.06,26.16-2.37,39.23-3.75,10.45.97,20.9,2.07,31.35,3.15,1.16,2.15,4.04,3.53,6.35,2.02.6-.39,1.19-.79,1.78-1.19,18.71,1.88,37.44,2.92,56.18,4.34,13.88,1.05,27.72,2.48,41.57,3.75.55.25,1.17.42,1.84.49.76.08,1.51.03,2.26-.12,3.08.27,6.16.54,9.24.78,18.74,1.47,37.42,1.96,56.21,1.43,19.21-.54,38.4-1.65,57.6-2.25,26.64-.83,53.22.31,79.78,1.91-16.97.38-33.88,2.47-50.75,4.2Zm159.6-7.65c-.21,0-.43,0-.64,0,.07-.02.14-.02.21-.05,2.97-.93,5.74-2.2,8.4-3.68-.25,1.41.16,2.7.99,3.66-2.99.04-5.98.07-8.96.08Zm47.04-3.16c.08-.3-.58.77-.04.21-.22.23-.3.34-.33.39-.05.02-.14.06-.3.15-.05.03-.09.05-.11.07-.04.01-.07.03-.12.04-.44.16-.91.26-1.37.37-3.52.81-7.32,1-11.06,1.1,4.87-1.76,9.4-4.52,14.29-6.21-.12.61-.25,1.22-.38,1.82-.16.71-.38,1.38-.58,2.07Zm5.37-47.16c-.04.66-.07,1.32-.11,1.98-.53.21-1.05.52-1.55.97-3.31,2.93-6.78,5.65-10.33,8.25,4.77-5.97,8.95-12.37,12.12-19.45-.05,2.75-.09,5.5-.12,8.25Z"/>
        <path class="cls-1" d="m180.16,45s-.02-.02-.03-.03c-.06-.02-.12-.06-.21-.11.08.07.17.13.25.14Z"/>
      </g>
    </g>
  </g>
</svg>