<?xml version="1.0" encoding="UTF-8"?>
<svg id="Livello_2" data-name="Livello 2" xmlns="http://www.w3.org/2000/svg" viewBox="0 0 195.02 126.55">
  <defs>
    <style>
      .cls-1 {
        fill: #f4e9e9;
      }

      .cls-1, .cls-2 {
        stroke-width: 0px;
      }

      .cls-2 {
        fill: #9e8d8d;
      }
    </style>
  </defs>
  <g id="Livello_1-2" data-name="Livello 1">
    <g>
      <path class="cls-1" d="m187.17,39.13c-2.83-2.53-5.96,1.25-8.38-1.07-2.32-2.24-3.41-7.03-5.34-9.74-1.04-1.46-2.19-2.87-3.44-4.18.71-3.77-.52-9.15-2.42-10.56-1.82-1.35-3.82-2.34-5.82-3.35-.72-.5-1.53-.93-2.45-1.27-2.33-.86-3.55,2.2-3.74,5.71-3.05.21-6.11.35-9.11.48-3.74.17-7.82-.04-11.77.27-.71-2.91-1.91-5.45-3.83-6.89-4.53-3.41-14.57,3.3-17.33,6.98-2.08,2.77-2.35,6.68-1.87,10.03-1.18.62-3.34,1.58-3.44,1.6-6.01,1.2-10.81.15-15.99,4.34-5.57,4.5-7.02,12.65-4.37,19.2.52,1.27,1.28,2.97,2.59,3.66.2.1.35.18.48.25-.32,3.46-1.18,3.93-3.89,6.62-5.15,5.11-4.65,13.63-2.6,20.06.84,2.63,2.14,5.5,4.99,6.34,1.36.4,2.38.06,3.71,0,2.85-.13,3.96,1.26,5.52,3.53,1.3,1.9,2.36,4.54,3.77,6.64-.11.43-.21.86-.29,1.3-1.34,6.84,1.63,19.29,11.21,16.37,3.36-1.03,5.08-4.21,8.83-4.26,2.16-.03,4.37.56,6.46,1.04,1.41.32,4.96.47,6.08,1.32,2.11,1.61,1.78,4.94,5.32,4.88,2.86-.05,6.02-1.96,8.57-3.08,2.5-1.09,5.21-1.78,6.6-4.33,1.08-1.97,1.37-4.65,1.32-6.86,0-.27-.04-.56-.06-.84,1.59-.7,3.52-1.02,4.93-1.39,3.83-1.01,7.52-2.1,11.52-2.08,1.64,0,2.37-2.53,2.63-3.71.51-2.33.74-4.6.71-7,0-.41-.06-.84-.1-1.27,1.81,1.39,3.57,2.78,4.9,4.71.99,1.44,2.16.95,3.14-.08,3.08-3.24,3.28-8.65,2.08-12.79-.54-1.87-1.7-3.27-2.6-4.94-.12-.22-.21-.36-.28-.45,0-.08,0-.16-.02-.26-.1-1.33.17-2.8.3-4.14.23-2.52.6-5.02.81-7.54.08-.99.13-1.98.17-2.97.78-.8,2.53-3,2.7-3.25,1.04-1.47,1.79-3.18,2.15-4.95.74-3.61.64-9.4-2.35-12.08Zm-17.09,46.08c-.49.03-.99.07-1.5.12.12-1.02.12-2.03.07-3.03.62-.94,1.24-1.88,1.84-2.83-.16.65-.29,1.32-.39,2.01-.17,1.18-.09,2.46-.02,3.73Zm-14.42-16.87c-1.8,14.71-20.49,18.31-31.34,11.03-6.52-4.37-9.73-12.31-10.5-19.91-.7-6.83,3.86-9.73,9.21-12.99,1.55-.94,2.98-1.93,4.29-2.98.36.35.77.58,1.25.64,12.98,1.76,29.03,8.36,27.1,24.2Zm-38.87,21.22c-.11-.22-.23-.43-.35-.64-.04-.52-.1-1.03-.16-1.55.59.77,1.22,1.51,1.88,2.2-.46.01-.91,0-1.37-.02Zm43.95-10.39c-.04.83-.05,1.66-.02,2.5-.39.3-.77.63-1.14.97.45-1.12.84-2.28,1.16-3.47Zm17.52-19.69c-.19-2.44-.56-4.88-1.07-7.29.44.42.94.76,1.51,1.01-.29,2.06-.34,4.2-.44,6.28Zm-19.01-30.54s-.01.02-.02.04c-.03,0-.05-.02-.08-.03h.1Zm-22.91,3.89c-.55-.12-1.09-.22-1.64-.32.21-.81.38-1.65.51-2.54.01-.1.03-.21.04-.32.19-.01.37-.02.56-.03.1,1.13.28,2.24.54,3.21Zm-43.29,14.22s.1-.03.2-.1c-.05.07-.11.1-.2.1Zm-.36,25.62s0,.01,0,.02c0,0-.02,0-.02,0,0,0,.01-.01.02-.02Zm84.47.45c0,.13,0,.25,0,.38-.03-.03-.07-.05-.1-.08.04-.1.07-.2.1-.3ZM112.39,25.04s.01.05-.05.1c0-.07.02-.11.05-.1Zm-21.26,26.53c-.18.39-.12,1.94-.13,2.19,0,.09-.01.17-.02.26-.21-.55-.34-1.38.15-2.45Zm19.25,49.42c.39-1.7.48-3.55.29-5.35,1.09,1.36,2.1,2.75,2.62,4.29-.93.51-1.95.94-2.91,1.06Z"/>
      <path class="cls-2" d="m158.58,37.89c-8.99-4.96-19.37-6.12-29.24-3.27-20.36,5.89-32.13,27.24-26.25,47.6,4.86,16.81,20.26,27.77,36.94,27.77,3.52,0,7.11-.49,10.66-1.52,20.36-5.89,32.14-27.24,26.25-47.6-2.85-9.86-9.37-18.03-18.37-22.98Zm14.91,44.34l-8.1-2.88c.26-.83.47-1.67.64-2.52l8.47,1.46c-.26,1.34-.6,2.65-1.01,3.94Zm-2.19,5.28l-7.54-4.16c.35-.7.67-1.42.95-2.15l8.11,2.89c-.45,1.17-.96,2.31-1.53,3.42Zm-4.01,6.17l-6.51-5.62c.75-.94,1.43-1.94,2.04-2.97l7.53,4.15c-.9,1.55-1.93,3.04-3.06,4.44Zm-11.34,9.19l-3.68-7.76c.78-.41,1.54-.85,2.27-1.33l4.96,7.02c-1.13.75-2.31,1.44-3.54,2.06Zm-5.3,2.17l-2.39-8.27c.76-.25,1.5-.52,2.22-.83l3.69,7.77c-1.14.5-2.31.94-3.52,1.33Zm-4.28-7.72l2.39,8.26c-1.77.46-3.55.77-5.32.94l-.63-8.58c1.19-.13,2.38-.33,3.56-.63Zm.11-3.42c-12.32,3.57-25.26-3.57-28.82-15.89-1.73-5.97-1.02-12.26,1.98-17.7,3-5.44,7.95-9.39,13.92-11.12,2.15-.62,4.32-.92,6.45-.92,10.1,0,19.43,6.64,22.37,16.81h0c3.56,12.33-3.57,25.26-15.89,28.82Zm-22.81,8.73l4.14-7.51c.7.36,1.42.68,2.14.98l-2.88,8.09c-1.16-.46-2.3-.99-3.4-1.57Zm-6.12-4.07l5.62-6.51c.93.76,1.9,1.47,2.92,2.09l-4.15,7.52c-1.54-.92-3.01-1.96-4.4-3.1Zm14.25-1.77c.83.27,1.67.49,2.53.68l-1.46,8.48c-1.34-.28-2.66-.64-3.95-1.07l2.88-8.09Zm-23.27-9.62l7.76-3.69c.39.78.82,1.52,1.28,2.25l-7.04,4.97c-.73-1.13-1.4-2.31-2.01-3.53Zm-3.52-12.44l8.58-.63c.11,1.16.32,2.33.59,3.5l-8.28,2.39c-.43-1.75-.73-3.51-.89-5.26Zm.27-8.52l8.48,1.46c-.22,1.46-.31,2.95-.28,4.46l-8.6.63c-.08-2.21.06-4.4.4-6.55Zm1.42-5.81l8.09,2.88c-.27.8-.49,1.62-.68,2.45l-8.47-1.46c.28-1.31.64-2.61,1.06-3.87Zm2.22-5.19l7.53,4.15c-.35.68-.68,1.37-.97,2.07l-8.1-2.89c.46-1.14.97-2.25,1.54-3.34Zm4.01-6.05l6.51,5.62c-.74.91-1.4,1.87-2.01,2.87l-7.54-4.16c.91-1.51,1.92-2.96,3.05-4.33Zm-6.51,32.74l8.26-2.39c.23.75.5,1.47.79,2.18l-7.77,3.69c-.48-1.13-.91-2.29-1.28-3.49Zm17.73-41.71l3.69,7.76c-.75.39-1.48.81-2.18,1.26l-4.96-7.03c1.1-.73,2.26-1.39,3.46-1.99Zm5.22-2.12l2.39,8.27c-.73.24-1.44.49-2.13.79l-3.69-7.77c1.11-.48,2.25-.91,3.43-1.29Zm4.29,7.73l-2.39-8.27c1.73-.45,3.47-.75,5.2-.93l.63,8.58c-1.14.13-2.29.33-3.44.62Zm22.31-5.53l-4.16,7.54c-.68-.34-1.37-.65-2.08-.93l2.88-8.09c1.14.44,2.27.93,3.36,1.48Zm-8.09,5.94c-.8-.25-1.62-.46-2.45-.64l1.46-8.45c1.31.26,2.6.59,3.87,1l-2.88,8.09Zm23.32,9.19l-7.75,3.68c-.4-.76-.84-1.5-1.31-2.2l7-4.94c.75,1.11,1.43,2.27,2.05,3.47Zm3.75,12.38l-8.59.63c-.14-1.17-.35-2.33-.66-3.5l8.27-2.39c.47,1.75.79,3.51.98,5.26Zm-1.56-7.15l-8.26,2.39c-.25-.74-.52-1.46-.83-2.16l7.76-3.69c.5,1.12.94,2.27,1.33,3.46Zm-7.04,14.26c.19-1.48.23-2.99.17-4.52l8.59-.63c.11,2.23.02,4.44-.29,6.6l-8.47-1.46Zm1.64-24.56l-7.02,4.95c-.92-1.18-1.94-2.27-3.03-3.27l5.62-6.51c1.62,1.46,3.1,3.07,4.43,4.83Zm-5.94-6.1l-5.61,6.5c-.92-.73-1.89-1.39-2.9-1.99l4.15-7.52c1.53.89,2.98,1.89,4.36,3Zm-17.11-7.46l-1.46,8.46c-1.45-.19-2.93-.25-4.42-.2l-.63-8.58c.52-.02,1.04-.05,1.56-.05,1.67,0,3.32.14,4.95.37Zm-25.86,6.54l4.97,7.04c-1.19.9-2.29,1.88-3.3,2.95l-6.52-5.63c1.47-1.59,3.09-3.05,4.85-4.36Zm-7.43,49.02l7.03-4.96c.91,1.22,1.91,2.35,3,3.39l-5.63,6.52c-1.61-1.5-3.09-3.14-4.41-4.94Zm23.15,13.97l1.46-8.47c1.24.18,2.49.28,3.75.28.27,0,.54-.02.81-.03l.63,8.58c-2.24.09-4.47-.04-6.65-.36Zm26.29-6.64l-4.97-7.04c1.22-.93,2.33-1.96,3.36-3.08l6.52,5.63c-1.48,1.64-3.13,3.14-4.92,4.48Zm26.06-29.35c-.03-1.11.66-2.08,1.69-2.38l2.1-.61c2.98-.86,4.71-3.99,3.85-6.98h0s-2.48-8.56-2.48-8.56c-.42-1.45-1.37-2.64-2.69-3.37-1.32-.73-2.84-.9-4.28-.48l-2.1.61c-1.02.29-2.13-.16-2.7-1.11-2.22-3.73-4.94-7.14-8.1-10.13-.79-.74-.99-1.9-.48-2.82l1.07-1.95c.73-1.32.9-2.84.48-4.28-.42-1.44-1.37-2.64-2.69-3.37l-7.81-4.3c-2.72-1.5-6.15-.51-7.65,2.21l-1.07,1.95c-.5.91-1.59,1.36-2.64,1.1-4.21-1.08-8.55-1.57-12.89-1.44-1.11.05-2.08-.67-2.38-1.69l-.61-2.1c-.86-2.98-3.99-4.71-6.97-3.85l-8.56,2.47c-1.45.42-2.64,1.37-3.37,2.69-.73,1.32-.9,2.84-.48,4.28l.61,2.1c.3,1.02-.16,2.13-1.11,2.7-3.73,2.22-7.14,4.94-10.13,8.1-.74.79-1.9.99-2.82.48l-1.95-1.07c-2.72-1.5-6.15-.51-7.65,2.21l-4.3,7.81c-1.5,2.72-.51,6.15,2.21,7.65l1.94,1.07c.91.5,1.37,1.59,1.1,2.64-1.08,4.21-1.56,8.54-1.44,12.89.03,1.1-.66,2.08-1.69,2.38l-2.1.61c-1.45.42-2.64,1.37-3.37,2.69-.73,1.32-.9,2.84-.48,4.28l2.47,8.56c.42,1.45,1.37,2.64,2.69,3.37,1.32.73,2.84.9,4.28.48l2.1-.61c1.02-.3,2.13.16,2.7,1.11,2.22,3.73,4.94,7.14,8.1,10.13.79.74.99,1.9.48,2.82l-1.07,1.94c-1.5,2.72-.51,6.15,2.21,7.65l7.81,4.3c1.32.73,2.84.9,4.28.48,1.44-.42,2.64-1.37,3.37-2.69l1.07-1.94c.5-.91,1.59-1.36,2.64-1.1,4.21,1.08,8.54,1.56,12.89,1.44,1.1-.04,2.08.66,2.38,1.69l.61,2.1c.42,1.45,1.37,2.64,2.69,3.37.85.47,1.77.7,2.71.7.52,0,1.05-.07,1.57-.22l8.56-2.48c2.98-.86,4.71-3.99,3.85-6.97l-.61-2.1c-.3-1.02.16-2.13,1.11-2.7,3.74-2.22,7.14-4.94,10.13-8.1.74-.79,1.9-.98,2.82-.48l1.95,1.07c1.32.73,2.84.9,4.28.48,1.44-.42,2.64-1.37,3.37-2.69l4.3-7.81c.73-1.32.9-2.84.48-4.28-.42-1.44-1.37-2.64-2.69-3.37l-1.94-1.07c-.91-.5-1.37-1.59-1.1-2.64,1.08-4.21,1.56-8.54,1.44-12.89Zm-1.94,18.4l1.95,1.07c.55.3.95.8,1.12,1.4.17.6.1,1.23-.2,1.78l-4.3,7.81c-.3.55-.8.95-1.4,1.12-.6.17-1.24.1-1.78-.2l-1.95-1.07c-2.22-1.23-5.02-.77-6.79,1.1-2.78,2.93-5.94,5.47-9.42,7.53-2.24,1.33-3.3,3.98-2.59,6.44l.61,2.1c.36,1.24-.36,2.54-1.6,2.9l-8.56,2.48c-.6.17-1.23.1-1.78-.2-.55-.3-.95-.8-1.12-1.4l-.61-2.1c-.7-2.41-2.93-4.06-5.47-4.06-.05,0-.11,0-.16,0-4.04.11-8.07-.34-11.98-1.34-2.51-.64-5.11.47-6.33,2.69l-1.07,1.94c-.62,1.13-2.05,1.55-3.19.92l-7.81-4.3c-1.13-.62-1.54-2.05-.92-3.19l1.07-1.94c1.23-2.22.77-5.02-1.1-6.79-2.94-2.78-5.47-5.95-7.53-9.42-1.33-2.24-3.98-3.3-6.44-2.59l-2.1.61c-.6.17-1.23.1-1.78-.2-.55-.3-.95-.8-1.12-1.4l-2.48-8.56c-.17-.6-.1-1.23.2-1.78.3-.55.8-.95,1.4-1.12l2.1-.61c2.46-.71,4.13-3.03,4.06-5.63-.11-4.04.34-8.07,1.34-11.98.64-2.5-.47-5.1-2.69-6.33l-1.95-1.07c-1.13-.62-1.54-2.05-.92-3.19l4.3-7.81c.62-1.13,2.05-1.55,3.18-.92l1.94,1.07c2.22,1.23,5.02.78,6.79-1.1,2.78-2.93,5.95-5.47,9.42-7.53,2.24-1.33,3.3-3.98,2.59-6.44l-.61-2.1c-.17-.6-.1-1.24.2-1.78.3-.55.8-.95,1.4-1.12l8.56-2.47c1.25-.36,2.54.36,2.9,1.6l.61,2.1c.71,2.46,2.96,4.13,5.63,4.06,4.04-.12,8.07.34,11.98,1.34,2.5.64,5.1-.47,6.33-2.69l1.07-1.95c.62-1.13,2.05-1.55,3.18-.92l7.81,4.3c.55.3.95.8,1.12,1.4.17.6.1,1.23-.2,1.78l-1.07,1.95c-1.23,2.22-.77,5.02,1.1,6.79,2.93,2.78,5.47,5.94,7.53,9.42,1.33,2.24,3.98,3.3,6.44,2.59l2.1-.61c.6-.18,1.24-.1,1.78.2.55.3.95.8,1.12,1.4l2.48,8.56c.36,1.24-.36,2.54-1.6,2.9l-2.1.61c-2.46.71-4.13,3.03-4.06,5.63.11,4.04-.34,8.07-1.34,11.98-.64,2.5.47,5.1,2.69,6.33ZM36.68,14.89c-16.91,4.89-26.69,22.62-21.8,39.53,4.04,13.96,16.82,23.05,30.68,23.05,2.93,0,5.9-.41,8.85-1.26,16.91-4.89,26.68-22.62,21.8-39.52-4.89-16.91-22.62-26.68-39.52-21.8Zm36.09,39.5l-6.1-2.17c.2-.62.36-1.24.5-1.87l6.41,1.11c-.21.99-.48,1.97-.8,2.94Zm-1.85,4.35l-5.68-3.13c.26-.51.51-1.02.73-1.55l6.1,2.17c-.34.85-.73,1.68-1.16,2.51Zm-3.34,5.07l-4.91-4.24c.58-.71,1.11-1.47,1.6-2.25l5.68,3.13c-.72,1.18-1.5,2.31-2.37,3.36Zm-9.43,7.41l-2.78-5.85c.57-.28,1.12-.59,1.65-.91l3.75,5.31c-.85.53-1.72,1.01-2.63,1.45Zm-7.37-7.57c-4.84,1.4-9.93.83-14.34-1.6-4.41-2.43-7.61-6.44-9.01-11.27-2.89-9.99,2.89-20.47,12.88-23.35,1.74-.5,3.5-.74,5.23-.74,8.18,0,15.74,5.38,18.12,13.62,1.4,4.84.83,9.93-1.6,14.34-2.43,4.41-6.44,7.61-11.28,9.01Zm-.69,3.56l1.8,6.24c-1.33.3-2.66.51-3.99.62l-.47-6.47c.89-.08,1.77-.2,2.66-.39Zm-18.1,3.52l3.13-5.67c.47.25.94.48,1.42.69l-2.18,6.11c-.81-.34-1.6-.73-2.37-1.14Zm-4.88-3.31l4.23-4.9c.66.55,1.36,1.05,2.08,1.52l-3.14,5.69c-1.11-.7-2.17-1.47-3.17-2.31Zm11.26-.94c.57.2,1.15.38,1.73.53l-1.1,6.38c-.95-.22-1.88-.5-2.8-.82l2.17-6.09Zm-18.44-8.18l5.86-2.78c.26.52.55,1.02.85,1.51l-5.31,3.75c-.5-.8-.97-1.62-1.39-2.48Zm-2.86-9.91l6.48-.47c.09.82.23,1.65.42,2.47l-6.23,1.8c-.3-1.26-.53-2.53-.66-3.8Zm.13-6.8l6.39,1.1c-.14,1.07-.19,2.16-.17,3.25l-6.47.47c-.05-1.62.03-3.23.25-4.83Zm1.03-4.67l6.14,2.19c-.17.54-.32,1.09-.45,1.64l-6.41-1.11c.19-.92.43-1.83.72-2.73Zm1.73-4.17l5.69,3.14c-.22.45-.43.9-.62,1.37l-6.12-2.18c.31-.79.66-1.56,1.05-2.33Zm3.12-4.92l4.92,4.25c-.51.67-.98,1.36-1.41,2.07l-5.69-3.14c.66-1.12,1.39-2.18,2.18-3.19Zm-4.85,26.27l6.24-1.8c.15.48.31.97.49,1.43l-5.86,2.78c-.32-.78-.61-1.59-.87-2.41Zm13.72-33.75l2.79,5.88c-.51.29-1.01.58-1.5.9l-3.74-5.3c.79-.53,1.6-1.03,2.44-1.48Zm4.19-1.82l1.8,6.23c-.49.18-.97.37-1.44.58l-2.78-5.85c.79-.35,1.59-.67,2.41-.96Zm3.68,5.63l-1.8-6.23c1.28-.35,2.57-.61,3.86-.78l.48,6.5c-.85.12-1.69.29-2.54.51Zm18.15-4.4l-3.15,5.71c-.49-.23-1-.43-1.51-.63l2.18-6.13c.83.31,1.66.66,2.47,1.05Zm5.1,3.18l-4.25,4.92c-.72-.54-1.46-1.04-2.24-1.49l3.14-5.69c1.18.67,2.3,1.44,3.36,2.26Zm-11.63,1.28c-.58-.16-1.18-.31-1.77-.42l1.11-6.42c.96.18,1.91.42,2.85.7l-2.19,6.14Zm19.36,7.86l-5.87,2.79c-.31-.56-.63-1.11-.98-1.63l5.3-3.74c.56.83,1.09,1.69,1.56,2.58Zm3.16,10.28l-6.47.47c-.11-.91-.28-1.82-.51-2.72l6.23-1.8c.35,1.34.6,2.69.76,4.05Zm-1.32-5.93l-6.23,1.8c-.19-.54-.39-1.07-.62-1.58l5.85-2.78c.37.83.7,1.69.99,2.56Zm-5.15,11.95c.15-1.18.2-2.38.16-3.58l6.46-.47c.08,1.73,0,3.45-.24,5.15l-6.38-1.1Zm.6-20.48l-5.31,3.75c-.74-.92-1.57-1.76-2.44-2.54l4.25-4.92c1.28,1.14,2.45,2.37,3.5,3.71Zm-19.27-10.81l-1.11,6.43c-1.12-.11-2.26-.14-3.4-.07l-.47-6.49c.58-.04,1.16-.06,1.74-.06,1.09,0,2.17.07,3.25.2Zm-20.92,5.89l3.75,5.31c-.86.69-1.64,1.46-2.39,2.27l-4.92-4.25c1.09-1.21,2.27-2.33,3.55-3.33Zm-5.49,39.43l5.31-3.75c.66.89,1.37,1.74,2.16,2.52l-4.24,4.91c-1.17-1.13-2.26-2.36-3.23-3.69Zm18.51,11.37l1.1-6.38c1.13.18,2.28.28,3.43.29l.47,6.47c-1.69.02-3.36-.1-5.01-.37Zm12.87-.85l-1.8-6.23c.53-.16,1.06-.34,1.57-.54l2.79,5.87c-.83.34-1.69.63-2.56.9Zm8.6-4.29l-3.74-5.29c.95-.7,1.85-1.48,2.68-2.32l4.91,4.24c-1.18,1.24-2.47,2.37-3.85,3.38Zm25.74-7.78c-.37-1.26-1.2-2.31-2.35-2.94l-1.6-.88c-.64-.35-.95-1.11-.76-1.84.89-3.49,1.29-7.08,1.2-10.68-.02-.78.46-1.46,1.18-1.67l1.72-.5c2.61-.76,4.12-3.49,3.37-6.1h0s-2.04-7.05-2.04-7.05c-.75-2.61-3.49-4.11-6.1-3.36l-1.73.5c-.72.21-1.49-.12-1.89-.78-1.84-3.1-4.1-5.92-6.71-8.39-.55-.52-.69-1.33-.34-1.97l.88-1.6c.64-1.15.78-2.48.42-3.75-.37-1.26-1.2-2.31-2.35-2.95l-6.42-3.54c-2.37-1.31-5.38-.45-6.69,1.93l-.88,1.6c-.35.64-1.11.95-1.84.76-3.49-.89-7.07-1.29-10.68-1.2-.74.06-1.46-.46-1.67-1.18l-.5-1.73c-.37-1.27-1.2-2.31-2.35-2.95s-2.48-.78-3.75-.42l-7.04,2.04c-2.61.76-4.12,3.49-3.36,6.1l.5,1.72c.21.72-.11,1.49-.78,1.89-3.1,1.84-5.92,4.1-8.4,6.71-.52.55-1.33.69-1.96.34l-1.6-.88c-1.15-.63-2.48-.78-3.75-.42-1.26.37-2.31,1.2-2.95,2.35l-3.54,6.42c-1.31,2.38-.44,5.38,1.94,6.69l1.6.88c.64.35.95,1.11.76,1.84-.89,3.49-1.29,7.08-1.2,10.68.02.78-.46,1.46-1.18,1.67l-1.73.5c-2.61.76-4.12,3.49-3.36,6.1l2.04,7.04c.37,1.27,1.2,2.31,2.35,2.95s2.48.78,3.75.42l1.72-.5c.72-.21,1.49.12,1.89.78,1.84,3.1,4.1,5.92,6.71,8.4.55.52.69,1.33.34,1.96l-.88,1.6c-1.31,2.38-.44,5.38,1.94,6.69l6.42,3.54c1.15.63,2.48.79,3.75.42,1.26-.36,2.31-1.2,2.95-2.35l.88-1.6c.35-.64,1.11-.95,1.84-.76,3.49.89,7.07,1.29,10.68,1.2.02,0,.03,0,.05,0,.76,0,1.42.48,1.62,1.18l.5,1.73c.62,2.15,2.6,3.56,4.74,3.56.45,0,.91-.06,1.36-.19l7.04-2.04c2.61-.76,4.12-3.49,3.36-6.1l-.5-1.73c-.21-.72.11-1.49.78-1.89,3.09-1.84,5.92-4.09,8.4-6.71.52-.55,1.33-.69,1.96-.34l1.6.88c2.38,1.32,5.38.44,6.69-1.94l3.54-6.42c.64-1.15.78-2.48.42-3.75Zm-3.3,2.16l-3.54,6.42c-.44.79-1.43,1.08-2.22.64l-1.6-.88c-1.95-1.08-4.39-.68-5.94.96-2.27,2.4-4.85,4.46-7.69,6.14-1.96,1.16-2.89,3.48-2.26,5.63l.5,1.73c.25.87-.25,1.78-1.12,2.03l-7.04,2.04c-.86.25-1.78-.25-2.03-1.12l-.5-1.73c-.61-2.11-2.56-3.55-4.78-3.55-.05,0-.09,0-.14,0-3.29.09-6.59-.28-9.78-1.09-2.19-.56-4.46.41-5.54,2.36l-.88,1.6c-.21.38-.56.66-.98.78-.42.12-.86.07-1.24-.14l-6.42-3.54c-.79-.44-1.08-1.43-.64-2.22l.88-1.6c1.07-1.95.68-4.39-.96-5.94-2.39-2.26-4.46-4.85-6.14-7.68-1.16-1.96-3.48-2.88-5.63-2.27l-1.73.5c-.42.12-.86.07-1.24-.14-.38-.21-.66-.56-.78-.98l-2.04-7.05c-.12-.42-.07-.86.14-1.24.21-.38.56-.66.98-.78l1.72-.5c2.16-.62,3.62-2.64,3.56-4.92-.09-3.3.28-6.59,1.09-9.78.56-2.19-.41-4.46-2.36-5.54l-1.6-.88c-.79-.44-1.08-1.43-.64-2.22l3.54-6.42c.44-.79,1.44-1.08,2.22-.64l1.6.88c1.94,1.08,4.39.68,5.94-.96,2.26-2.39,4.85-4.46,7.69-6.14,1.95-1.16,2.89-3.47,2.26-5.63l-.5-1.72c-.25-.87.25-1.78,1.12-2.03l7.04-2.04c.42-.12.86-.07,1.24.14.38.21.66.56.78.98l.5,1.73c.62,2.15,2.67,3.62,4.92,3.55,3.29-.1,6.59.28,9.78,1.09,2.18.56,4.46-.41,5.54-2.36l.88-1.6c.44-.79,1.43-1.08,2.23-.64l6.42,3.54c.38.21.66.56.78.98.12.42.07.86-.14,1.25l-.88,1.6c-1.07,1.95-.68,4.39.96,5.94,2.39,2.26,4.46,4.85,6.14,7.68,1.16,1.96,3.48,2.89,5.63,2.26l1.73-.5c.42-.12.86-.07,1.24.14.38.21.66.56.78.98l2.04,7.04c.25.87-.25,1.78-1.12,2.03l-1.72.5c-2.15.62-3.62,2.64-3.55,4.92.09,3.29-.28,6.58-1.09,9.78-.56,2.19.41,4.46,2.36,5.54l1.6.88c.38.21.66.56.78.98.12.42.07.86-.14,1.25Z"/>
    </g>
  </g>
</svg>