<?xml version="1.0" encoding="UTF-8"?>
<svg id="Livello_2" data-name="Livello 2" xmlns="http://www.w3.org/2000/svg" viewBox="0 0 444.53 155.66">
  <defs>
    <style>
      .cls-1 {
        fill: #ffadad;
      }

      .cls-1, .cls-2, .cls-3 {
        stroke-width: 0px;
      }

      .cls-2 {
        fill: #f4e9e9;
      }

      .cls-3 {
        fill: #e0a0a0;
      }
    </style>
  </defs>
  <g id="Livello_3" data-name="Livello 3">
    <g>
      <g>
        <g>
          <path class="cls-3" d="m13.58,27.89c-.02-1.88,1.68-2.09.08-3.03-8.35.37-8.97-2.35-10.51,11.5-1.53,13.83.48,29.68.87,43.39.55,19.57-.35,39.35.09,58.87,25.14,2.33,49.7,4.14,74.8,6.06,23.32,1.78,46.56-.7,69.97,3.04,13.72,2.19,27.12-.07,40.73-2.92,16.11-3.38,31.75-2.89,47.89-1.44,31.31,2.8,62.98-.07,94.33-.08,29.99,0,61.24-.53,89.85-12.1,4.06-21.86,2.28-49.17,2.93-71.89.35-12.2,2.33-21.01-4.2-29.07-5.49-6.78-14.5-5.35-20.82-6.88-14.95-3.63-26.76-1.97-41.83-.62-15.66,1.41-31.81-3.03-47.47-3.71-18.99-.82-36.31-9.96-55.56-7.4-16.24,2.16-32.98,4.18-49.23,4.11-31.87-.12-64.24,2.03-96.24,4.76-34.52,2.95-69.76,10.49-104.08,7.15,1.19-1.65.6-1.95.57-2.71"/>
          <path class="cls-3" d="m15.52,30.29c.72-2.94,2.52-8.69-1.68-10.46-1.71-.72-6.28-.93-8.07-.14-2.68,1.19-3.49,4.79-4.03,7.37C.51,33.02.15,39.22.03,45.29c-.28,14.78,1.43,29.54,1.53,44.32.11,16.36-.48,32.72-.26,49.08.02,1.84.57,5.67,2.96,5.91,33.19,3.37,66.69,7.32,100.07,7.69,8.42.09,16.84.13,25.26.55,8.13.41,16.07,1.79,24.14,2.54,16.29,1.52,31.59-3.5,47.6-5.15,16.45-1.7,32.68.49,49.1,1.25,16.71.77,33.45.25,50.16-.26,31.54-.95,63.8,1.14,94.93-5,7.49-1.48,14.87-3.47,22.07-6.02,3.35-1.19,6.05-1.7,7.1-5.38.95-3.36,1.18-7.15,1.57-10.6,1.66-14.8,1.57-29.75,1.53-44.63-.02-7.26-.11-14.55.22-21.8.29-6.41.92-12.87-.02-19.25-.87-5.94-3.12-12.1-7.58-16.29-4.13-3.88-9.43-4.79-14.87-5.39-6.81-.75-13.39-2.58-20.26-2.95-7.11-.39-14.21.21-21.29.86-7.99.74-15.72,1.05-23.71.25-7.65-.76-15.24-2.07-22.9-2.84-7.74-.79-15.32-1.15-22.96-2.78-7.14-1.52-14.19-3.47-21.4-4.63-15.61-2.51-31.29,1.39-46.87,2.65-16.37,1.33-32.81.78-49.21,1.32-16.75.56-33.47,1.59-50.18,2.87-32.44,2.48-64.75,8.44-97.28,9.31-8.16.22-16.33-.01-24.47-.66.66,4.59,1.32,9.17,1.99,13.76,2.01-3.48,2.56-7.12,1.85-11.1-.33-1.85-1.35-6.32-4.12-5.05-2.54,1.17-2.41,7.06-2.04,9.13.06.34.12.68.17,1.02l.19-5.69.34-1.02c-1.65,2.74-2.98,13.25,1.99,13.76,35.12,3.63,70.19-4.17,105.06-7.16,18-1.55,36.03-2.88,54.08-3.73,18.12-.86,36.29-.33,54.39-1.34,8.58-.48,17.13-1.38,25.65-2.42s16.75-2.31,25.36-1.28c8.12.98,16.02,3.19,23.99,4.92,7.94,1.72,15.77,2.14,23.82,2.95,8.57.86,17.06,2.39,25.64,3.07,8.55.68,16.85-.21,25.35-.92,7.64-.64,15.3-.92,22.92.08,3.73.49,7.35,1.51,11.07,2.03,3.09.43,6.25.49,9.28,1.3,7.56,2.02,10.04,8,9.83,15.19-.25,8.65-.69,17.26-.69,25.93,0,17.92.78,36.19-2.44,53.9.64-1.14,1.28-2.28,1.92-3.42-24.83,9.84-51.68,11.55-78.12,11.81-27.2.27-54.44,1.74-81.63,1.32-13.65-.21-27.19-1.9-40.82-2.21-14.35-.33-27.65,2.36-41.7,4.71-6.1,1.02-12.27,1.74-18.47,1.73-7.04-.02-13.92-1.4-20.91-2.04-13.57-1.24-27.19-.81-40.8-.85-31.35-.08-62.97-3.37-94.2-5.97.99,1.97,1.97,3.94,2.96,5.91-.64-23.47.58-46.95-.87-70.39-.67-10.88-1.45-21.78-.12-32.64.19-1.56,0-3.95,1.35-4.84.99-.65,5.75-.97,6.54-.33-.58-2.06-1.16-4.11-1.74-6.17.36-2.35-.58,2.04-.65,2.48-.49,2.97,2.67,9.35,4.08,3.63h0Z"/>
        </g>
        <path class="cls-1" d="m442.83,105.01c-.88.07-1.78.07-2.69,0-.06-.73-.1-1.43-.14-2.03,2.08-6.39,1.14-15.88.27-23.4.25-4.94.53-9.89.56-14.83.01-1.82-.77-2.77-1.59-2.88-.08-1.9-.18-3.8-.32-5.71.09-12.46,1.09-24.98.99-37.46,0-1.18-.43-2.09-.97-2.58.17-1.56.36-3.1.61-4.63.29-.35.5-.88.59-1.62.13-1.15.26-2.21.47-3.3.31-.22.61-.56.84-1.08.11-.14.21-.28.32-.42,1.69-2.07-.19-5.53-1.95-5.01-6.38,1.85-13.16.96-19.63,1.21-7.17.27-14.33.73-21.49,1.25-4.23.31-8.46.64-12.69.97-3.42-.45-6.84-.81-10.27-.94-11.24-.44-22.45.97-33.56,3.74-23.59,1.11-47.19,1.95-70.77,3.7-14.06,1.04-28.14,1.34-42.21.3-7.55-.56-15.06-.85-22.58-.96-8.6-1.92-17.3-2.09-25.95-1.25-3.64.35-7.25.98-10.86,1.71-8.38.22-16.77.49-25.15.94-13.91.73-27.83,1.43-41.75.83-15.83-.68-31.47-3.29-47.34-2.35-7.78.46-15.53,1.84-23.32,2.02-3.85.09-7.7-.04-11.56-.2.31-1.5.6-3,.84-4.53.6-3.75-3.27-5.35-3.87-1.59-.17,1.04-.34,2.08-.52,3.11l-.17-.83c-.17-3.05-2.23-3.97-3.28-1.51-.63,1.47-1.02,3.19-1.27,5.04-1.39-.04-2.79-.07-4.18-.07-2.58-.01-2.58,5.99,0,6,1.27,0,2.54.03,3.8.07-.04,2.98.06,5.96.03,8.53-.11,8.36.07,16.71.1,25.07-.21,3.39-.4,6.77-.58,10.16-1.04,19.64-2.8,39.37-2.7,59.1,0,0,0,.02,0,.03-.76-.13-1.57.48-1.86,2.07-.08.5-.19.99-.31,1.47-.35,1.54.4,3.26,1.23,3.69,5.47,2.81,10.86,2.04,16.47,1.37,2.71-.33,5.43-.16,8.15-.6,2.51-.4,5.02-.94,7.54-1.05.74,0,1.47,0,2.21-.03.07,0,.14,0,.21,0,5.55.07,11,.74,16.6-.04,2.36-.33,4.72-.76,7.08-1.2,6.72.1,13.43.7,20.16.67,7.5-.04,14.99-.39,22.48-.88,1.36.26,2.72.53,4.08.81,5.97,1.23,11.96,2.42,17.97,2.75,5.76.32,11.52-.31,17.27-.67,23.05-1.45,46.05-4.24,69.03-7.86,6.8-.12,13.6-.26,20.4-.49,8.67,1.23,14.02,2.6,14.52,4.1h8.89c0-1.98,3.56-3.96,9.33-5.55,22.35-1.1,44.7-2.26,67.07-2.72,1.49-.03,2.98-.04,4.48-.06,1.52.81,3.03,1.63,4.59,2.19,5.36,1.92,10.9,1.17,16.33,1.54,4.96.34,9.88.22,14.72-1.72,6.05.52,12.1.91,18.15,1.52,2.89.29,5.8.49,8.68-.15,3.14-.7,6.07-2.87,9.27-2.99.09,0,.16-.03.24-.05,1.94.46,3.78.42,6.05-.05,1.55-.32,3.07-.23,4.59-.07-.04,1.26-.08,2.52-.03,3.79.16,3.46,3.13,3.96,3.94.8.31-1.23.59-2.48.83-3.73.59-.25,1.17-.5,1.75-.81,2.15-1.14,1.66-5.15-.17-5.76-.04-.49-.18-.92-.4-1.25.05-.42.09-.84.13-1.25.06-.03.12-.07.18-.11,1.98,1.73,4.22,2.79,6.5,3.33.56,2.33,1.44,4.2,2.79,5.13,1.72,1.18,2.64-2.5,1.78-4.65.35,0,.7-.02,1.04-.05,2.26-.18,2.27-6.18,0-6Zm-12.88-33.52c.36-2.16.72-4.38,1.08-6.63-.53,6.55-1.33,13.02-2.1,19.51-.32.11-.62.31-.86.63.61-4.21,1.24-8.76,1.88-13.51Zm-2.47,19.03c-.1,3.57-.49,7.14-1,10.66-.28-.03-.57.1-.88.39.5-3.23,1.1-7.12,1.74-11.5.04.16.08.31.14.45Zm-278.93,24.41c8.79.26,17.57.58,26.09.95-.06,0-.11,0-.17,0-8.64.25-17.28.77-25.91,1.4.2-.75.18-1.6,0-2.35Zm269.42-39.69c.14-.18.26-.3.34-.36.27-.03.54-.09.8-.18-.56,3.59-1.02,5.67-1.02,5.67,0,2.98-2.67,3.95-5.32,4.27.37-.79.74-1.58,1.12-2.35.88-1.8,1.79-3.56,2.82-5.19.37-.6.99-1.51,1.26-1.86Zm-5.88,34.61c-.07,0-.14.02-.21.02-.29-.14-.59-.28-.89-.41-.35-.14-.7-.23-1.04-.3.11-.19.21-.39.3-.62.47-1.21.33-2.36-.12-3.19,2.37.52,4.52,2.05,6.2,3.86-1.4.35-2.83.47-4.24.64Zm-31.62-12.46c-.65.98-1.37,1.36-2.06,1.31,4.9-12.02,12.32-21.6,18.89-30.52-5.29,10.26-10.82,20.13-16.83,29.21Zm-20.55,12.9c-1,0-2-.02-3-.02.99-.2,1.99-.39,3-.59-.01.21,0,.41,0,.62Zm-173.7-39.71c.86-1.21,1.72-2.4,2.59-3.59-.75,1.37-1.5,2.75-2.25,4.13-1.06,1.15-2.12,2.3-3.18,3.45.95-1.33,1.89-2.66,2.84-3.99Zm-4.9-35.52c.96-2.28,3.79-7.92,8.52-7.92,3.51-1.31,4.93-.28,4.51,2.5-.64.79-1.27,1.59-1.9,2.39-1.01-2.58-3.12-4.15-5.32-2.15-1.93,1.75-3.86,3.46-5.81,5.17Zm13.02,40.63c.27-.29.53-.58.81-.87-1.58,2.86-3.08,5.87-4.43,9.12-.34.83-.36,1.69-.18,2.45-1.67,1.85-3.27,3.61-4.76,5.23,2.85-5.31,5.67-10.66,8.56-15.92Zm165.82-37.67c2.37-.74,3.16-3.69,2.8-6.45h1.77c0,2.92-6.44,13.56-16.77,28.09-.36.41-.72.81-1.08,1.22-1.52,1.74-3.1,3.41-4.72,5.05.29-.45.58-.88.87-1.33,3.99-6.2,8.05-12.31,12.08-18.47,1.04-1.59,2.05-3.22,3.09-4.81.53-.81,1.06-1.61,1.6-2.39.56-.81,1.52-1.27.37-.91Zm5.83,44.73c.18.43.4.78.66,1.01-1.14,1.78-2.19,3.7-3.08,5.83l-3.47,1.04c2.02-2.51,3.97-5.16,5.88-7.88Zm5.27-48.46c.8-3.5,2.29-5.15,3.94-4.14-1.32,1.38-2.63,2.76-3.94,4.14Zm.67,49.06c.96-1.33,1.95-2.61,2.94-3.89-.72,1.02-1.45,2.03-2.17,3.07-.26.28-.51.55-.77.82Zm-57.98,14.96c-8.5,4.11-8.33-.39,3.35-13.49,2.93-3.83,5.67-7.46,8.24-10.88-.21.3-.41.61-.61.91-3.75,5.48-8.72,11.07-10.93,18.37-.55,1.83-.48,3.6-.04,5.09Zm-26.48-8.84c3.71-4.69,7.48-9.32,11.3-13.82-.84,1.51-1.67,3.04-2.47,4.6-3.18,6.18-6.29,12.9-10.39,17.83-.4.02-.8.04-1.22.04-1.43,0-2.62,0-3.61-.02,2.1-2.92,4.19-5.86,6.38-8.63Zm-29.45-4.66c.86-1.28,1.84-2.66,2.91-4.1,3.53-3.69,7.19-7.11,10.71-10.82-2.6,3.5-5.19,7.03-7.73,10.66-.36-.12-.75-.06-1.16.31-2.15,1.92-4.18,4.24-6.29,6.3l1.57-2.35Zm45.75.67c-.06.47-.08.96-.06,1.44-.67.85-1.33,1.63-1.97,2.37.67-1.28,1.35-2.56,2.04-3.81Zm-54.65,12.64c1.48.12,2.97-.44,4.46-1.4-.56.99-1.12,1.99-1.67,3.01-1.28-.03-2.56-.05-3.84-.04l1.04-1.56Zm104.17-5.45l-3.38,1.01,2.07-3.1c.32.8.77,1.52,1.31,2.09Zm22.62,1.64c-.15-.21-.33-.37-.53-.47-.04-1.2.24-2.44.94-3.51,3.17-4.78,6.2-9.79,9.13-14.95.19-.19.38-.39.57-.58.49-.48.75-1.17.83-1.9,1.13-2.04,2.26-4.09,3.37-6.17.75-.9,1.5-1.81,2.27-2.69,5.11-5.89,9.83-12.57,14.42-19.56.66-1.01,1.33-2.01,1.99-3.02-.83,1.9-1.69,3.74-2.63,5.48-3.65,6.69-7.95,12.24-12.12,17.93-6.37,8.69-13.35,17.95-18.23,29.45Zm33.21-61.36c-2.69,4.5-5.53,8.92-8.47,13.11,1.68-3.46,3.34-6.93,5-10.42.12-.76.37-1.5.77-2.19.47-.8.94-1.6,1.41-2.4.99-1.68,2.1-1.86,3.02-1.18-.6,1.1-1.18,2.16-1.73,3.08Zm-8.47,5.95c.47-2.09.86-3.8,1.25-5.22,1.66-2.1,3.32-4.21,4.98-6.32.31-.05.64-.09.99-.12-1.04,1.72-2.06,3.47-3.1,5.11-1.37,2.18-2.75,4.36-4.12,6.54Zm-194.32-10.31c.03-.48,0-.95-.05-1.42.36-.03.81-.03,1.35-.03.04,0,.07,0,.11,0-.48.46-.95.94-1.41,1.44Zm-4.98,72.6c1.06,1.06,2.44,1.21,3.84-.33,4.5-4.95,8.81-10.25,13.09-15.6-3.73,5.16-7.35,10.47-10.7,16.21-2.92,2.39-5.33,3.11-8.23,2.44.66-.92,1.33-1.82,2-2.72Zm198.96-29.46c1.98-3.59,4-7.13,6.07-10.61-1.99,3.59-4.03,7.12-6.07,10.66v-.05Zm-52.04-58.67c9.13-.45,18.25-1.07,27.36-1.74-4.31.59-8.87,1.16-13.62,1.72-.7-.18-1.44-.13-2.13.24-8.55.97-17.58,1.87-26.52,2.63,2.95-.94,5.91-1.79,8.87-2.54,2.01-.1,4.02-.21,6.02-.31ZM122.53,93.03c-.15.34-.27.68-.35,1.02-.2-.08-.38-.19-.51-.38,0,0,.11-.25.33-.71.17.04.35.06.53.07ZM15.72,67.86c-.05-1.56-.09-3.11-.1-4.62,0-.71,0-1.41,0-2.12.46-8.65.99-17.3,1.69-25.92.2-2.41.38-4.84.62-7.24v3.61c0,10.44-.91,23.6-2.2,36.29Zm112.13-25.16c2.6-3.72,5.29-7.29,8.12-10.64.32-.06.65-.19.97-.4,1.07-.02,2.21-.04,3.39-.05-2.74,3.59-5.38,7.35-8.06,11.05-.65-.36-1.53-.5-2.58-.38-.46-.45-1.04-.5-1.61.19-.06.07-.12.15-.19.23-.01,0-.02,0-.04.01Zm-73.99,52.26c.51-.55.92-1.22,1.19-1.97.73-.98,1.59-1.9,2.45-2.79-1.01,1.7-2.06,3.41-3.19,4.9-.14-.08-.29-.12-.45-.14Zm5.88-9.1c-.03.12-.04.25-.06.38-.63-.59-1.15-1.54-1.45-2.66.91-1.73,1.84-3.42,2.8-5.08.47-.68.94-1.36,1.42-2.04-1.05,2.98-1.97,6.1-2.71,9.4Zm27.55-20.44c6.12-8.91,12.05-18.75,18.94-26.47-.07,3.98-6.29,12.97-23.1,32.55-.08.13-.17.24-.25.37-.09.07-.18.14-.28.21,1.57-2.2,3.14-4.4,4.68-6.65Zm23.18-12.48c-.37-.04-.74-.06-1.11-.05,1.35-2.67,2.52-5.34,3.41-8.02,1.6-7.18,4.07-10.48,10.65-12-4.48,6.44-8.7,13.27-12.95,20.07Zm-78.2-.52c.06.24.1.51.11.79-.17.28-.34.56-.5.85.1-.63.2-1.28.29-1.92.03.09.06.17.1.29Zm15.28,10.2c2.43-3.63,4.61-6.9,6.6-9.83.2-.17.4-.32.61-.48-2.24,3.47-4.37,6.98-6.33,10.96-1.36,2.76-2.69,5.54-4.11,8.19-1.68,2.4-3.35,4.81-5.04,7.19-3.14,4.41-6.54,8.38-9.29,13.28,2.76-6.52,8.72-16.06,17.57-29.31Zm-4.03,29.86c.08-.1.17-.19.25-.29-.35,1.16.02,1.48.81,1.48.56.85,1.13,1.36,1.88,1.38-.89,1.92-1.75,3.89-2.56,5.93-.23.58-.31,1.18-.27,1.73-3.53.62-6.43.93-8.73.87,3.28-2.48,5.86-7.93,8.62-11.11Zm20.7-9.28c3.09-10.67,8.26-19.39,14.07-26.66-.46.87-.94,1.72-1.39,2.6-.3.57-.59,1.14-.88,1.71-.31.41-.61.82-.91,1.24-.36.5-.54,1.08-.58,1.66-3.38,6.57-6.74,13.16-10.3,19.45Zm9.01,1.78c.07-.04.13-.08.2-.13-.3.37-.61.75-.9,1.1.24-.33.47-.65.71-.97Zm29.07,3.3c.36,2.78,2.07,4.73,3.88,4.81-2.2,1.26-4.01,1.54-5.28.59-1.39,0-.82-1.95,1.39-5.4Zm43.27,3.49c-.26.09-.73.09-1.13.16.35-.88.64-2.2.97-3,.94-2.29,2.06-4.4,3.2-6.41,1.35-2.38,2.77-4.61,4.28-6.65.44-.45.88-.9,1.32-1.36,1.39-1.45,2.79-2.87,4.19-4.27-.45,1.08-.94,2.12-1.46,3.13-.78,1.31-1.54,2.67-2.29,4.07-2.97,4.88-6.37,9.3-9.05,14.32-.02,0-.03,0-.04,0ZM12.54,122.33c.2.32.44.59.71.83.05.16.1.31.16.45-.55-.11-1.09-.24-1.63-.4.3-.19.56-.48.76-.88Zm50.19-2.04c-7.88.15-15.73,1.34-23.61,1.3-2.74-.01-5.48-.05-8.22-.09,4.78-1.46,10.2-3.27,15.23-5.12,7.05,1.81,14.27,1.92,21.41,1.82,4.13-.06,8.27-.12,12.4-.2-4.42.57-8.84,1.47-13.25,2.29-1.32-.02-2.64-.03-3.95,0Zm30.73-2.65c.36-.01.71-.02,1.07-.03,9.54-.36,19.1-.61,28.59,1.15.59.11,1.19.22,1.79.34-5.2.39-10.41.76-15.61,1.06-5.27-1.08-10.54-2.09-15.83-2.52Zm39.25-3.11c2.59.06,5.19.12,7.79.18-2.58.31-5.19.17-7.79-.18Zm6.75-11.99c-3.5,0-3.89-3.1,1.25-11.11-.11.88-.13,1.76-.03,2.64.39,3.23,2,4,3.65,3.94.02.06.04.12.07.18-1.12,2.5-3.02,4.36-4.94,4.36Zm256.22,7.33c.78.1,1.56.22,2.34.3-.07,0-.13,0-.2,0-.72-.08-1.43-.18-2.15-.31Zm27.48-76.88s.05-.04.08-.06l-.2,1.48c-.32-.03-.64,0-.97.09.35-.54.71-1.04,1.09-1.51Zm-2.76,30.97c-.35-.36-.75-.61-1.19-.7-1.52-.31-2.89.02-4.16.79,1.37-2.56,2.72-5.12,4.06-7.71.63-1.22,1.27-2.43,1.91-3.66-.09,4.08-.32,7.88-.62,11.27Zm-280.76,59.73c5.18-.4,10.36-.76,15.54-1.04.37-.02.74-.03,1.11-.05-5.53.48-11.09.95-16.65,1.09Zm285.27-13.52c-.03.17-.05.33-.06.49-.01.02-.03.04-.04.07-.22-.03-.45-.07-.67-.1.03-.16.06-.35.09-.56.28-.28.57-.57.86-.86-.06.32-.12.65-.18.97Z"/>
      </g>
      <path class="cls-2" d="m87.49,33.56c-.24-3.91-1.04-8.8-5.89-8.59-4.08.17-8.34,2.83-11.74,4.86-6.41,3.84-11.57,9.71-16.34,15.37-5.73,6.81-13.65,17.34-8.72,26.78,2.21,4.23,7.99,2.94,11.98,2.71,6.7-.39,14.2-.28,20.7,1.48,1.98.53,3.44,1.6,5.26,2.36.16.07,1.07,1.05,1.13,1.03.34-2.35.27-2.88-.23-1.59-.16.41-.37.8-.62,1.16-2.62,3.57-5.37,6.48-9.14,8.88-4.03,2.57-8.51,4.41-13.12,5.64-3.9,1.04-8.62,1.08-12,3.38.81,2.43,1.62,4.87,2.43,7.3l.26-1.81c.19-1.33.42-4.09-.94-5.03l-.7-.49c-1.99-1.38-3.75,8.21-.82,9.69,5.54,2.8,13.88-.82,19.16-3.11,6.38-2.76,12.25-6.88,16.31-12.59,6.32-8.89,5.77-22.41-5.98-25.74-6.43-1.82-13.9-2.08-20.55-1.71-2.48.14-4.97.34-7.46.18-.83-.05-2.35-.63-3.04-.48.91-.2-1.27,5.67.53,3.34,2.91-3.76,5.07-7.82,8.42-11.37,2.95-3.12,6.08-6.1,9.26-8.98,2.19-1.98,4.56-3.47,7.16-4.88,2.22-1.2,4.56-2.44,6.96-3.23.9-.3,1.87-.36,2.76-.64,2.35-.73,1.13,2.21.66-2.22.12,1.14.73,4.71,2.52,4.19s1.84-4.64,1.77-5.88h0Z"/>
      <path class="cls-2" d="m100.65,54.08l.05-.99c-1.05.74-2.1,1.49-3.15,2.23,2.79,7.78,1.37,17.02.91,25.13-.22,3.82-1.53,21.54,4.78,21.74,2.61.08,1.87-6.31,1.59-7.57-.88-3.88-1.7-6.92-1.55-11s.38-7.82.38-11.74c0-7.48.86-17.96-3.97-24.28-1.54-2.01-2.46,1.29-2.66,2.4-.35,2.02-.19,5.05,1.4,6.56l.37.35c1.18,1.12,1.84-2.52,1.85-2.83h0Z"/>
      <path class="cls-2" d="m93.12,55.58c-2.24-3.61-5.25-.48-8.04,1.14l1.38,10.51c6.54-4.04,13.75-5.71,21.06-7.62,5.54-1.45,11.3-4.13,13.61-9.73.27-.65.51-3.96-.71-3.93-13.36.33-24.83,1.35-35.33,10.78-2.33,2.09-.65,12.24,1.38,10.51,2.32-1.98,5-4.68,6.77-7.12.8-1.1.57-3.43-.11-4.53h0Z"/>
      <path class="cls-2" d="m96.96,83.84c3.87,2.17,10.58-3.67,14.09-5.15,6.78-2.87,13.08-6.18,16.84-12.86.22-.38.53-3.25-.39-3.02-6.04,1.49-12.53,1.31-18.43,3.58-4.34,1.67-9.92,4.61-12.8,8.31-1.34,1.72-1.56,7.89.69,9.15h0Z"/>
      <path class="cls-2" d="m144.02,51.77c-5.55-8.73-10.17,4.47-11.03,9.16-1.72,9.39-1.87,20.79,1.75,29.79,4.72,11.74,17.72,7.38,23.95-.73,8.22-10.71,3.97-27.14-2.22-37.8-2.47-4.26-8.02-11.94-13.86-8.68-5.36,2.98-6.53,12.4-8.32,17.65-.1.31-.04,2.35.56,1.66,2.48-2.89,4.58-7.09,8.45-8.4,5.24-1.77,9.55,4.97,11.5,8.88,2.08,4.16,5,10.46,2.54,14.96-2.51,4.6-8.12,9.2-13.62,8.86-8.23-.52-7.92-11.91-7.78-17.89.08-3.29.32-7.19,1.91-10.15,1.32-2.45,3.63-3.1,6.07-4.05.88-.34.45-2.68.09-3.26h0Z"/>
      <path class="cls-2" d="m192.04,51.55c-6.46-4.93-24.94-17.33-29.4-4.03-3.01,8.97.37,20.06,3.31,28.68,2.74,8.06,9.73,22.56,20.33,21.13,11.79-1.59,9.58-21.38,8.08-29.13-.87,3.22-1.73,6.43-2.6,9.65,1.38,1.18,1.28,3.67,1.51,5.3.36,2.47.77,4.94,1.57,7.31.83,2.47,3.9,11.46,7.88,10.23,3.14-.97,2.66-7.56,1.47-9.83-1.06-2.01-2.68-3.36-3.84-5.3-1.5-2.5-2.01-4.72-2.52-7.52-.81-4.48-1.41-9.63-5.05-12.8-2.9-2.52-2.87,8.66-2.6,9.65,1.7,6.16-3.03,11.22-9.18,8.45-6.17-2.78-9.99-10.5-11.88-16.64-.8-2.61-1.57-5.3-2.08-7.98-.39-2.04-.75-2.45.23-3.24,2.85-2.28,8.94.38,11.65,1.4,4.28,1.6,8.22,3.74,12.89,3.39,2.64-.19,1.69-7.61.23-8.72h0Z"/>
      <path class="cls-2" d="m179.57,74.41c2.5,5.08,10.62,3.49,15.05,2.61,5.56-1.11,11.7-4.25,15.56-8.52.34-.38.4-1.98-.18-2.22-4.61-1.96-10.28-1.78-15.12-1.37-2.95.25-5.86,1.05-8.81,1.39-1.85.22-4.11,0-5.84.73-2.08.87-1.38,5.92-.66,7.38h0Z"/>
      <path class="cls-2" d="m213.34,41.47c-1.78,2.21-1.41,5.51-1.33,8.14.12,3.79.45,7.57.62,11.36.24,5.51-.03,10.63-.79,16.05-1.08,7.68-3.66,21.26,2.79,27.36.71.67,1.29,1.13,2.26.61,4.05-2.18,8.42-3.95,12.78-5.41,2.47-.83,5-1.52,7.59-1.88,1.57-.22,3.75-.15,5.15-1.03,1.96-1.22,1.67-5.43,1.13-7.2,1.67,5.41.07-.43-.56-1.61s-1.56-2.21-2.78-2.75c-2.62-1.17-6.05,0-8.65.71-5.6,1.56-11.4,3.62-16.51,6.43.75.2,1.51.41,2.26.61-1.59-1.48-.9-4.05-.72-6.05.32-3.55.9-7.06,1.33-10.59,1.23-10.2-.02-20.94-1.16-31.1-.32,2.15-.64,4.3-.97,6.46l.25-.45c1.26-2.26,1.42-5.25.68-7.73-.46-1.54-1.78-3.9-3.36-1.94h0Z"/>
      <path class="cls-2" d="m246.25,52.76c-.14,2.29.05-.86.06-1-1.39.03-2.78.07-4.17.1.53,3.98,1.78,7.74,2.13,11.78.36,4.12.37,8.25.72,12.37.76,9.02,1.03,19.27,4.61,27.69.7,1.64,1.87,1.98,3.09.82,1.47-1.41,1.17-4.7,1-6.47-.96-9.98-2.85-19.83-3.55-29.87-.44-6.3-.02-18.31-5.49-22.6-2.79-2.19-4.02,10.94-.33,9.96l.55-.15c1.02-.27,1.33-1.71,1.38-2.62h0Z"/>
      <path class="cls-2" d="m242.34,20.01c-1.11,1.89-2.56,3.51-3.52,5.51-1.61,3.35-2.09,7.43-.83,10.97.97,2.71,2.92,4.32,5.85,4.06,2.22-.2,4.41-1.28,6.16-2.64,1.88-1.47,1.85-5.08,1.69-7.15-.14-1.78-.51-5.13-2.69-5.55-1.66-.32-3.45-.54-5.01-1.19-.53-.22-1.46-.59-1.75-.69-.32-.1-1.93-.35-1.04,0-.59-.23-1-.08-1.36.48-2.1,3.33-1.06,9.91,1.93,12.4,1.9,1.58,5.16,1.84,7.54,1.95l-1-12.7c-1.11,1.11-2.4,2.02-3.75,2.82-.62.37-1.28.75-2,.88-.51.09-1.18-.13-1.49-.11-.12,0,1.27,4.55.53,4.84l-.08.29c.07-.21.15-.43.24-.64.35-.85.7-1.69,1.06-2.53.79-1.82,1.57-3.61,1.92-5.58.27-1.52.32-3.41-.38-4.85-.39-.8-1.35-1.73-2.02-.58h0Z"/>
      <path class="cls-2" d="m267.8,95.07c-.29-2.16,1.07-5.41,1.56-7.54.85-3.64,1.68-7.24,2.31-10.93.87-5.07,1.7-10.12,2.8-15.15.76-3.47.8-8.49,3.52-11.08-.89-.52-1.77-1.03-2.66-1.55,3.54,8.86,5.25,18.84,5.55,28.36.29,9.34-.36,19.05,2.52,28.08.91-3,1.83-5.99,2.74-8.99-1.37-.75-1.75-.37-3.26.21-.66.25-.6,1.85-.52,2.32.31,1.78.58,3.22.73,5.02.17,1.94,1.31,5.3,3.63,3.85,2.2-1.38,1.51-6.77,1.04-8.64-2.41-9.65-1.05-19.87-2.07-29.71s-3.07-20.09-6.79-29.46c-.31-.78-1.6-2.55-2.66-1.55-3.93,3.74-4.96,8.91-6.02,14.04-1.42,6.81-2.73,13.6-3.82,20.48-.78,4.91-2.02,9.73-2.71,14.66-.5,3.6-1.37,9.58,1.38,12.53,2.38,2.55,2.86-3.82,2.71-4.94h0Z"/>
      <path class="cls-2" d="m270.46,82.47c5.1.96,10.17-3.03,15.26-3.55,5.93-.6,11.99-.43,17.68.97.99.24.72-2.69.48-3.11-3.97-6.71-10.29-12.04-18.48-10.98-5.96.77-12.06,4.04-16.1,8.43-1.44,1.56-1.43,7.76,1.17,8.25h0Z"/>
      <path class="cls-2" d="m318.69,72.45l.24.38c-.41,2.11-.83,4.22-1.24,6.33,3.07-.05,6.57-2.36,9.74-3.29,4.13-1.22,8.36-2.03,12.56-2.95,5.86-1.28,11.72-2.61,17.65-3.48,3.37-.5,6.76-.35,10.13-.8,3.99-.53,7.91-1.22,11.92-1,.99.05.61-2.92.09-3.32-3.83-2.93-7.47-5.55-12-7.34-3.76-1.48-8.24-1.07-12.18-.78-6.24.45-12.36,2.27-18.43,3.74-4.85,1.18-9.75,2.49-14.34,4.47-4.93,2.13-6.93,5.15-6.87,10.6.02,1.33,1.75,6.45,2.83,2.89.45-1.47,1.55-4.04-.11-5.45h0Z"/>
      <path class="cls-2" d="m344.36,50.03c1.54.63,2.77,3.78,3.69,5.09,1.04,1.48,2.28,2.83,3.6,4.07,3.38,3.18,7.56,5.51,11.67,7.57,3.83,1.92,8.48,2.4,12.71,2.74,3.62.29,8.84-1.46,12.08.36,3.87,2.17,4.81-13.71,1.23-16.22-3.81-2.68-8.89-1.22-11.16,2.61-1.63,2.75-2.25,11.03.94,13.12,3.12,2.04,5.7-1.73,8.98.5.41-5.41.82-10.82,1.23-16.22-3.21-1.74-6.43-.98-9.9-.64-4.82.48-9.32-.03-14.09-.63-4.79-.6-8.33-1.99-12.1-5.1-2.79-2.3-4.66-6.29-7.94-7.84-2.73-1.29-2.66,5.67-2.47,6.86s.2,3.21,1.52,3.74h0Z"/>
      <path class="cls-2" d="m388.07,55.82c.8,2.33.93,2.61.4.85l-.4-.85c-.52-.85-1.18-1.53-2.12-1.89-1.73-.66-4.4-.07-6.12.32-4.56,1.02-9.25,3.02-12.99,5.83-8.94,6.71-12.51,19.72-14.58,30.2-.08.4.1,3.71.99,2.54,2.35-3.11,3.4-6.98,5.76-10.09,2.43-3.2,5.11-6.25,8.35-8.66,3.16-2.35,6.8-3.89,10.51-5.14,3.05-1.03,7.35-1.29,10-3.07,2.13-1.43,1.62-8.23.2-10.04h0Z"/>
    </g>
  </g>
</svg>