<?xml version="1.0" encoding="UTF-8"?>
<svg id="Livello_2" data-name="Livello 2" xmlns="http://www.w3.org/2000/svg" viewBox="0 0 765.87 176.56">
  <defs>
    <style>
      .cls-1 {
        fill: #d9edf8;
      }

      .cls-1, .cls-2 {
        stroke-width: 0px;
      }

      .cls-2 {
        fill: #a1c6d6;
      }
    </style>
  </defs>
  <g id="Livello_3" data-name="Livello 3">
    <g>
      <g>
        <path class="cls-2" d="m43.85,34.5c-5.57-5.89-15.98-7.3-25.6-5.2-13.95,3.04-13.81,6.82-14.39,15.52-.95,14.25,1.76,28.57,1.99,42.95.42,26.22-13.28,63.03-.14,87.94,81.11-5.96,162.16,3.42,244.14.13,96.92-3.89,193.16,2.53,289.45,0,29.91-.79,58.12-6.15,87.48-7.74,25.32-1.37,49.76,5.49,74.86,1.15-2.45-21.46,10.06-44.33,8.21-66.64-1.77-21.37,8.09-48.59-2.25-69.21-16.11-.15-33.79,8.49-51.43,9.8-19.55,1.44-39.5-.78-58.66-2.21-48.47-3.63-95.1-5.21-144.36-5.21-107.24,0-216.81,5.79-322.72,13.49-36.03,2.62-83.97-7.06-117.23,2.27,6.77.72,15.22-.14,22.64-1.63"/>
        <path class="cls-1" d="m763.1,154.5c-2.63-.03-5.18-.23-7.74-.43.09-.07.15-.15.17-.24,1.72-.67,2.7-1.85,2.97-3.13,3.55.19,5.05-1.63,1.44-1.86-.52-.03-1.04-.05-1.57-.07-.66-1.94-2.93-3.64-6.74-3.63-1.84.02-3.33-.04-4.88-.15,0,0-.01,0-.02-.01-1.69-.76-3.5-.99-5.1-.71-.16-1.13-.33-2.25-.5-3.38.01-3.71.02-7.43-.02-11.14-.1-9.94-3.07-19.85-3.78-29.79-.35-5-.12-10-.18-14.99-.05-5-.14-10.01-.18-15.01-.08-10,.04-20.01,1.04-30.01.44-4.43.83-8.86,1.33-13.29,1.38-2.83,2.71-5.66,3.76-8.5,1.08-1,1.29-2.23,1.08-3.36.44-1.63.76-3.26.89-4.9.09-1.09-4.81-1.31-5.65-.26-.11.14-.2.27-.3.41-.53-.06-1.11-.04-1.72.09,0-.01-.01-.02-.02-.03-.9-1.1-5.37-.79-5.65.26-.03.11-.05.23-.08.34-1.77-.27-3.73.15-4.16.68-.23-1.07-.47-2.15-.75-3.22-.28-1.06-4.64-1.34-5.65-.26-.72.78-1.35,1.56-1.93,2.34-.35-1.8-1-3.59-2.14-5.37-.58-.9-1.33-1.78-2.26-2.65-1.06-.98-5.69-.89-5.65.26.07,1.95.67,3.88,1.48,5.8.21.51,1.3.71,2.46.69.3,1.16.43,2.33.47,3.49-.22-.05-.45-.08-.7-.1-.73-.06-1.57-.05-2.21.1-.64.14-1.27.3-1.8.49-.5.18-.97.38-1.3.6-.69.46-1.04.97-.95,1.49.05.26.29.5.84.68.5.17,1.32.29,2.03.28.74-.01,1.51-.09,2.03-.28.5-.18.89-.43.84-.68-.02-.1,0-.19.03-.29.05-.08.11-.16.19-.24.09-.06.18-.11.29-.17.22-.08.44-.16.69-.23,0,0,0,0,0,0,0,.21,0,.41-.02.62-.06,1.23-.21,2.45-.39,3.68-7.46.05-14.92.18-22.38.36,3.33-1.45,4.44-3.71,3.48-5.32-.36-.61-1.3-2.19-4.15-1.75.7-.11-2.61-.59-3.81-.67-2.06-.14-4.46-.01-6.72.09-.86-1.01-2.46-1.76-5.17-1.88-3.84-.17-7.88.96-11.02,2.03-2.85-.02-5.69-.06-8.53-.11-7.48-.15-14.88-.59-22.36-.72-13.01-.23-25.99.23-38.91.7-2,.07-4,.14-6.01.2-1.01-.69-2.44-.97-4.42-.45-.83.22-1.61.44-2.42.67-48.3,1.46-96.82,1.27-145.27.91-2.23-.02-4.46-.03-6.69-.05-.89-.22-1.93-.25-3.11-.03h-.03c-48.94-.37-98-.8-146.86.41-6.69.17-13.35.36-20.01.57.24-2.55-1.26-5.43-6.43-4.6-9.72,1.56-18.74,3.46-27.23,5.6-7.91.2-15.83.35-23.79.41-13.48.1-26.97.1-40.45.1-.51-.12-1.1-.16-1.79-.08-.21.02-.41.06-.62.08-11.51,0-23.02.03-34.53.15-26.71.28-53.08,2.05-79.7,2.42.32-4.42.49-8.84.57-13.25.29-1.09.31-2.18.07-3.27-.27-1.22-5.75-1.26-5.75,0,0,1.05-.04,2.09-.06,3.14-.21.8-.56,1.59-1.15,2.37-.33.44.22.79,1.09,1-.11,3.36-.29,6.72-.53,10.07-.48,0-.97,0-1.45,0-.97-.32-2.04-.61-3.24-.86-.58-.12-1.1-.16-1.58-.14-.68-1.59-1.59-3.16-2.84-4.71-.69-.86-5.08-.98-5.54,0-.37.79-.31,1.56-.39,2.35-.06.54,1.02.85,2.25.92.47.83.85,1.67,1.16,2.52-.31,0-.61.01-.91.02-2.71.02-5.4.1-7.93.33-.95.09-1.85.2-2.65.36-5.56.71-9.89,2.08-11.58,4.74-.62.97,1.73,5.38,5.34,2.93,2.96-2.01,13.48-1.61,18.92-1.48.02,2.88-.41,5.77-.9,8.6-.59,3.45-1.4,6.89-1.88,10.34-.56,3.99-.73,7.99-.92,11.98-.4,8.32-.37,16.64-.91,24.96-.54,8.23-2.5,16.46-1.82,24.7.35,4.3,1.58,8.56,3.65,12.8.61,1.25,1.29,2.51,1.96,3.76,0,3.56.1,7.11.3,10.67-.09.42-.05.86.08,1.3.33,5.04.89,10.08,1.71,15.11-.39.15-.64.35-.62.62.02.32.35.57.84.77.12.71.26,1.41.4,2.12-3.82.03-7.64.06-11.46.1-3.69.04-3.71,1.96,0,1.93,3.94-.04,7.88-.07,11.83-.1.27,1.07,4.58,1.28,5.63.24.1-.1.17-.19.26-.29,41.96-.33,83.94-.38,125.91-.12,16.89.11,33.77.27,50.66.48,4.46.08,8.92.15,13.38.21,1.45.96,3.84,1.73,6.63.55.37-.15.76-.3,1.13-.46.87.01,1.73.02,2.6.03,8.6.13,17.19.28,25.78.43,2.01.11,4.03.21,6.05.3,11.67.49,23.45.59,35.2.59.16.46.41.91.77,1.34,1,1.19,3.7,3.08,7.35,1.55,2.06-.87,4.15-1.73,6.22-2.59,43.69.99,87.34,1.78,131.17,1.67,26.69-.06,53.25-.56,79.79-1.21,4,.07,8.01.14,12.02.2,12.9.18,25.7.15,38.57-.2,11.92-.33,23.86-.18,35.75.22,22.87.77,45.55,2.04,68.58,2.21,9.8.07,19.95.01,29.6-.68-.04.51-.08,1.03-.1,1.54-.02.05-.05.1-.05.15v1.18c0,1.24,5.74,1.24,5.75,0,0-1.13.08-2.26.18-3.39,1.87-.21,3.74-.45,5.62-.69-.09,4.11.08,8.21.18,12.32.03,1.34.05,2.69.05,4.03,0,1.24,5.75,1.24,5.75,0v-1.16s-.01-.04-.02-.05c0-.45-.01-.89-.02-1.34.78-.14,1.34-.41,1.34-.8,0-3.05-.05-6.11-.13-9.16,1.43,0,2.81-.31,2.75-.93-.14-1.37-.31-2.74-.46-4.11.48-.05.97-.11,1.45-.15,0,2.02,0,4.04-.07,6.06-.05,1.54-.12,3.09-.2,4.63-.05.94,4,1.33,5.36.49,3.14-1.95,3.55-4.14,3.27-6.31-.23-1.79-.5-3.59-.76-5.38,1.81-.05,3.63-.05,5.48.03,4.88.22,9.5.82,14.46.88,3.7.05,3.69-1.88,0-1.93ZM279.61,21.59c-1.95.76-3.91,1.51-5.84,2.28.65-.58,1.05-1.34,1.22-2.17,1.54-.04,3.08-.07,4.62-.11ZM35.76,142.56c-.83-1.85-1.82-3.78-2.19-5.7.22-.02.45-.06.68-.1.82-.17,1.53-.38,2.19-.62.41.54.86,1.07,1.43,1.6.56.53,2.01.71,3.32.64-.11.58-.21,1.17-.32,1.75-.17.85-.29,2.84,2.44,3.34,1.03.19,1.9.18,2.61.04.09.35.23.71.39,1.06-3.1.27-6.2.53-9.33.73-.37-.92-.8-1.84-1.2-2.73ZM242.14,22.6c1.17-.03,2.35-.06,3.52-.09-35.52,10.59-64.28,23.63-95.49,35.58-12.24,4.69-23.7,9.59-34.96,14.55.82-.55,1.51-.99,1.98-1.29.87-.54,1.76-1.08,2.67-1.61,6.91-2.89,13.85-5.77,20.73-8.66,20.06-8.42,40.14-16.84,60.79-25.1,12.18-4.87,27.49-8.83,40.76-13.37Zm438.78,3.33c-.25.64-.33,1.29-.25,1.94-.55.07-1.12.17-1.73.3-.92.21-1.19,1.21-.39,1.64-3.02.9-6.02,1.81-8.97,2.72-4.21,1.31-8.31,2.66-12.36,4.03,6.42-3.17,12.97-6.31,20.21-9.28,1.16-.45,2.33-.9,3.49-1.36Zm-184.14.61c-6.98,2.76-13.56,5.65-19.9,8.58-10.2,4.71-20.01,9.5-29.61,14.34-4.04.95-7.79,2.03-11.35,3.2,20.02-8.39,40.73-16.67,57.08-25.94,1.26-.06,2.52-.12,3.78-.18Zm37.93-1.87c-10.34,4.5-19.83,9.25-30.26,13.73-4.72,2.03-9.64,3.99-14.67,5.93,13.19-6.44,24.71-13.94,42.54-19.05.78-.21,1.59-.41,2.39-.61Zm-338.46,55.79s.07-.03.1-.05c5.23-2.55,10.53-5.07,15.95-7.57-.03.56.07,1.12.28,1.64-1.95.85-3.9,1.69-5.84,2.54-3.51,1.14-7.01,2.29-10.49,3.44Zm-98.81,28.86c-3.2,1.5-6.4,3-9.57,4.51-6.62,3.15-13.32,6.3-20.96,9.18,2.16-1.07,4.33-2.13,6.42-3.18,7.62-3.84,15.1-7.71,22.77-11.53.38.4.83.74,1.33,1.02Zm-12.63,15.93c11.66-5.44,23.2-10.83,35.15-16.18-6.29,3.55-12.66,7.09-20.03,10.39-6.79,3.04-13.84,6.02-19.44,9.29-6.11,2.18-12.29,4.33-18.74,6.4-.05-.14-.11-.29-.17-.44,9.62-2.66,17.74-6.9,23.24-9.46Zm123.88-30.55c-.42.43-.7.91-.87,1.4-3.71,1.68-7.42,3.36-11.14,5.04,3.74-2.01,7.47-4.01,11.2-6.02.26-.14.54-.28.8-.42Zm-88.47,32.96c14.24-6.67,27.42-13.55,42.01-20.15,4.7-2.12,9.41-4.24,14.12-6.35-5.26,2.84-10.6,5.67-16.17,8.44-14.06,7-26.07,14.56-41.35,21.29-1.16-.31-2.65-.24-4.5.45-3.49,1.3-7.98,3.21-13.04,4.71,7.38-2.71,13.66-5.91,18.94-8.38Zm239.09-34.66c2.58-1.01,5.14-2.03,7.69-3.05-4.67,2.29-9.35,4.57-14.03,6.86-16.33,7.61-33.23,15.09-50.96,22.37-10.3,4.23-21.45,8.2-32.68,12.14,1.64-.73,3.4-1.45,5.32-2.16,9.41-3.47,18.84-6.77,26.76-10.66,8.6-4.22,16.27-8.63,25.31-12.76,1.5-.68,2.98-1.38,4.46-2.07,9.54-3.52,18.93-7.08,28.14-10.68Zm82.12,14.56c.19.91.63,1.76,1.41,2.37-8.26,2.84-17.05,5.5-25.73,8.2.03-.01.06-.02.09-.04,8.22-3.39,16.19-6.85,23.86-10.39.12-.05.24-.1.37-.15Zm15.97,24.55c.48.85,1.19,1.6,2.12,2.1-1.93.81-3.8,1.63-5.64,2.46-2.95-.03-5.9-.07-8.84-.13,4.18-1.46,8.3-2.94,12.37-4.44Zm-37.9,13.17c3.01.07,6.01.14,9.02.22-.16.01-.33.03-.49.04-3.11,0-6.21,0-9.31,0,.26-.09.53-.18.79-.27Zm96.21-17.22c7.02-4.26,15.34-8.33,23.51-12.35-7.91,4.1-15.76,8.22-23.51,12.35Zm48.61,7.1c1.17-.51,2.35-1.02,3.53-1.51,4.65-1.94,9.25-3.9,13.86-5.86,1.72-.18,3.42-.38,5.09-.62-1.28.56-2.56,1.13-3.87,1.69-4.69,2.01-9.66,3.95-14.48,5.93-1.38.12-2.75.25-4.12.38Zm156.15-20.5c.17.58.29,1.15.44,1.73.12,1.27.19,2.54.21,3.82-.79-1.38-1.4-2.77-1.9-4.16-.06-1.98-.06-3.97-.05-5.95.42,1.52.85,3.04,1.31,4.57Zm-40.51-3.81c-4.17,1.57-8.5,3.1-12.85,4.63,4.57-2.19,9.06-4.4,13.45-6.63-.2.67-.4,1.33-.59,2Zm-22.1-7.16c-1.78,1.3-3.56,2.59-5.39,3.88-4.32,1.48-8.67,2.94-12.98,4.42.69-.37,1.39-.75,2.08-1.12,5.59-2.34,10.91-4.76,16.29-7.17Zm-95.1,20.08s.1-.03.15-.05c-.12.57-.15,1.16-.03,1.74-5.71,2.57-11.43,5.15-16.73,7.82-1.73.87-3.44,1.75-5.19,2.62-2.04-.13-4.07-.29-6.14-.47,9.52-3.83,18.8-7.72,27.95-11.66Zm160.04-84.87c0-.09,0-.19,0-.28.01,0,.02,0,.03-.01,0,.1-.02.2-.03.29Zm-31.89,15.95c.02.18.04.36.06.54,0,.07,0,.15,0,.22,0,1.02-.1,2.12-.1,3.23-1.7.62-3.4,1.24-5.09,1.87.5-1.4,1-2.8,1.49-4.19,1.24-.55,2.46-1.1,3.65-1.66Zm-.05,14.67c-.03.32-.07.65-.1.97-14.53,5.67-27.27,11.81-40.2,17.9,6.23-3.46,12.4-6.92,18.88-10.3.26-.14.5-.37.71-.66,6.77-2.68,13.66-5.32,20.71-7.91Zm-198.22,63.25c-.66.71-1.28,1.42-1.85,2.14-.17.21-.31.51-.43.87-2.08.14-4.13.27-6.14.38,2.79-1.13,5.6-2.26,8.43-3.39Zm171.03-66.9c3.89-1.5,7.82-2.98,11.69-4.48-.27.77-.53,1.54-.77,2.3-.1.3-.16.77-.1,1.31-30.21,11.74-57.55,24.28-85.23,36.72,7.51-3.74,15.05-7.47,22.64-11.19,15.55-7.63,31.26-15.22,47.02-22.8,1.59-.62,3.16-1.24,4.77-1.86Zm-430.34,60.97c-3.87,1.52-7.92,3.82-12.82,5.6,2.57-1.42,5.33-2.8,8.06-4.18,1.06-.54,2.08-1.08,3.12-1.63,5.77-2.32,11.48-4.65,17.17-6.99-.6.49-1.17.98-1.7,1.48-.19.18-.39.52-.57.98-4.59,1.53-9.07,3.09-13.26,4.74Zm84-31.31c3.62-1.87,7.23-3.74,10.86-5.61,13.42-6.91,26.5-14.05,40.89-20.83,7.07-3.07,14.13-6.14,21.18-9.21,3.39-1.35,6.87-2.66,10.46-3.95-4.5,2.1-8.97,4.21-13.34,6.33-18.63,9.05-36.05,18.34-55.89,27.11-4.66,2.06-9.38,4.12-14.16,6.16Zm-70.58,37.6c-2.06,1.64-4.51,3.24-7.03,4.82-.35-.29-.75-.56-1.26-.8-.72-.33-1.78-.67-2.9-.83,4.41-1.77,8.98-3.46,13.73-5.11-.87.63-1.72,1.27-2.54,1.92Zm-40.05-6.73c.05.13.1.26.16.38-.98.43-1.98.85-2.96,1.27-4.76,2.08-9.45,4.16-13.62,6.37-2.9,1.54-5.61,3.04-9.63,4.15-.49.06-.97.13-1.44.2-.02-.22-.04-.43-.08-.65,9.86-3.71,18.97-7.65,27.57-11.72Zm-11.13,18.69c.11.09.23.17.35.25-.42,0-.83,0-1.25,0,.31-.08.6-.16.9-.25Zm24.41-.58c.37.31.77.61,1.24.89-1.21,0-2.42,0-3.63-.01-.3,0-.61,0-.91,0,1.13-.28,2.23-.57,3.3-.88Zm96.99-9.93c-.8.47-1.6.95-2.36,1.43-.28-.01-.56-.02-.84-.03,1.07-.46,2.14-.93,3.2-1.39Zm345.26,10.98c.07.16.14.31.23.46-.51,0-1.02.01-1.53.02.44-.16.87-.32,1.3-.48Zm48.77-.52c.12.12.24.23.38.35-.47,0-.93.01-1.4.01.34-.12.68-.24,1.02-.37Zm11.37.17c1.12.11,2.1-.1,2.93-.48.01.18.02.36.03.55-1.06,0-2.11.01-3.17.02.07-.03.14-.06.2-.09Zm-41.56-99.69c-3.86,2-7.65,4.01-11.59,5.91-5.06,2.44-10.1,4.88-15.16,7.32-12.21,4.72-24.23,9.5-36.16,14.3-.05-.21-.12-.42-.2-.62,18.44-8.92,37.79-17.58,58.11-26.04,1.85-.77,3.65-1.55,5.43-2.34-.19.64-.34,1.15-.43,1.47ZM196.6,111.71c-17.84,8.15-36.4,16.24-51.28,25.06-1.67.45-3.38.93-5.13,1.37.16-.69.07-1.39-.24-2.05,8.7-3.34,16.16-7.19,23.37-10.42,19.4-8.7,39.06-17.32,58.26-26.07,8.56-3.9,17.29-7.75,26.13-11.56,5.06-2.11,10.08-4.23,14.99-6.37,4.68-1.96,9.4-3.91,14.15-5.84-26.93,11.92-53.87,23.83-80.25,35.89Zm162.34-77.36c-7.45,2.75-14.96,5.48-22.46,8.2.8-.83,1.03-1.77.95-2.66,8.76-2.43,17.66-4.79,26.22-7.29-1.57.58-3.14,1.16-4.71,1.74Zm-97.02,110.71c0,.15,0,.31.01.46-1.11,0-2.23,0-3.34-.01,1.08-.17,2.19-.32,3.33-.45Zm29.93-.52c1.73.04,3.43.07,5.07.09,3.78.05,7.54.15,11.29.28.17.26.38.52.64.75-6.73-.01-13.45-.03-20.18-.05,1.07-.35,2.13-.71,3.17-1.07Zm299.88-70.53c-2.86.89-5.63,1.81-8.35,2.76.17-.21.31-.43.42-.65,5.03-2.12,10.08-4.23,15.12-6.34,2.16-.9,4.33-1.81,6.51-2.71-4.62,2.3-9.18,4.62-13.71,6.94Zm-198.48-26.34c-1.2.29-2.39.59-3.57.89,1.91-.61,3.81-1.21,5.71-1.82-.71.31-1.43.62-2.14.94ZM62.35,106.2c-4.57,2.34-9.25,4.82-12.99,7.42-.09-1.25-.16-2.49-.22-3.74,10.42-3.88,20.3-7.91,29.91-12.02-5.64,2.76-11.23,5.53-16.7,8.34Zm-19.73-43.34c.34-.18.65-.36.91-.55-.03,1.14-.07,2.28-.12,3.42-.39.27-.76.55-1.14.83.1-1.23.22-2.47.35-3.7Zm9.64,15.45c.05-.45.09-.89.14-1.34,1.41-.19,2.79-.44,4.12-.75-1.43.69-2.85,1.39-4.26,2.09Zm-10.25-2.48c.05,0,.11,0,.16-.01.15.16.33.31.52.45-.15,1.55-.32,3.1-.53,4.64-.01.08-.02.16-.03.24-.06-1.77-.1-3.54-.12-5.32Zm78.16-33.06c-1.71.64-3.4,1.29-5.11,1.94,8.85-4.17,17.27-8.45,25.93-12.66,1.56-.76,3.25-1.49,4.98-2.22,5.43-1.28,10.96-2.52,16.57-3.71-14.97,5.33-28.27,11.34-42.38,16.65Zm-65.18,2.28c-.61.28-1.2.56-1.8.85,0-.16.01-.31.02-.47.22-.02.44-.06.69-.13.35-.11.68-.22,1.03-.33.02.03.04.06.07.08Zm-11.73-7.01c.59-.03,1.17-.06,1.75-.1-.41,3.94-1.13,7.89-1.24,11.83-.02-3.91-.57-7.83-.51-11.73Zm362.2-5.13c-.7.32-1.19.71-1.58,1.12-11.92,3.97-24.39,7.76-36.37,11.7-.72.24-1.44.48-2.16.72,2.09-1,4.2-1.99,6.27-2.99,9.24-4.48,17.65-9.19,27.73-13.37,2.77-.92,5.58-1.83,8.43-2.73,2.84.1,5.65.19,8.42.26-3.64,1.8-7.12,3.62-10.74,5.29ZM70.53,92.15c3.52-1.87,7.14-3.73,10.96-5.55,5.39-2.56,10.97-5.08,16.65-7.58-.44.57-.85,1.15-1.21,1.73-8.65,3.84-17.37,7.67-26.4,11.4Zm663.79,53.03c-.25-3.37-.56-6.75-.94-10.12.21-.99.36-1.98.47-2.97.08.4.18.8.25,1.2.31,1.58.58,3.16.84,4.75.17,2.38.32,4.75.42,7.13-.35,0-.69,0-1.04,0Zm-193.31-81.71c-3.73,1.96-7.42,3.93-11.12,5.9-.87-.78-2.17-1.25-4.12-1.02-.14.02-.27.03-.41.05,12.88-5.71,25.87-11.4,39.23-16.99,4.46-1.87,8.91-3.74,13.34-5.61-12.99,5.71-25.34,11.57-36.93,17.67Zm26.01-32.45c6.35-3.02,13.25-6.01,18.29-9.26,3.39.06,6.77.11,10.16.17-9.63,2.98-19.18,5.99-28.45,9.09Zm-211.42-9.46c-.1-.19-.24-.4-.43-.64.98,0,1.96,0,2.95,0-.85.21-1.69.42-2.52.63Zm-17.1-.34c.05-.1.12-.2.15-.3.38,0,.76,0,1.14,0-.43.1-.87.2-1.29.3Zm-69.95,4.72c.21-.07.42-.14.64-.21-.06.03-.13.05-.19.08-.15.04-.3.09-.45.13Zm-143.38-2.77c-7.65,2.96-14.47,6.23-21.58,9.23-1.68.71-3.42,1.4-5.18,2.09-2.08.67-4.14,1.34-6.17,2.02,10.1-4.54,20.34-9.05,31.46-13.33.49,0,.98,0,1.47-.01Zm-67.43,13.53c0-.29.05-.59.11-.9.91-.24,1.8-.49,2.68-.75-.93.55-1.85,1.1-2.79,1.65Zm-12.81-7.91s-.03.02-.04.03c0-.05.02-.11.03-.16,0,.04.01.09.02.13Zm686.3,41.39s0-.04,0-.07c0,.05,0,.1,0,.14v-.08Zm-19.81-39.87c-.01.6,0,1.19.01,1.79-1.49.6-2.96,1.2-4.42,1.8-.04-.61-.08-1.21-.11-1.82.86-.39,1.72-.78,2.59-1.17.64-.2,1.28-.4,1.92-.6Zm-77.76-6.59c-9.6,3.18-18.41,6.62-27.1,10.09-5.24,2.1-10.38,4.21-15.45,6.33,13.25-5.79,25.95-11.72,37.31-17.95,2.9-.01,5.8-.04,8.7-.08-1.16.54-2.31,1.07-3.46,1.61Zm-540.71,1.04c.03-.33.03-.66-.02-.98.94-.02,1.88-.05,2.81-.07-.93.35-1.87.71-2.8,1.05Zm-26.46,2.41c.18-.86.18-1.85-.28-2.66,3.35-.09,6.7-.18,10.05-.28-3.33.95-6.56,1.95-9.77,2.93Zm655.52-12.16c.08-.19.18-.37.28-.56.02.15.05.29.07.44-.12.04-.23.08-.35.12Zm-17.31,7.03c-1.22.38-2.46.75-3.69,1.13-.89-.93-2.47-1.63-5.3-1.04-1.69.35-2.45,1.12-2.65,1.99-.98-.75-2.11-1.47-3.46-2.17-.42-.22-.95-.35-1.51-.42.08-.26.13-.52.15-.78,6.75-.18,13.52-.32,20.29-.39-1.29.56-2.56,1.12-3.83,1.68Zm-73.65-1.75c.08-.11.13-.22.2-.33,3.11.05,6.22.11,9.34.17-3.18.06-6.35.11-9.53.15Zm97.28-8.08c.11.03.21.07.31.1.02.01.03.02.07.04.03.02.13.08.19.12.03.03.08.07.13.12-.42.13-.83.27-1.24.41-.06-.3-.09-.59-.15-.89-.02-.08-.04-.15-.05-.23.15.11.39.22.74.32ZM28.66,84.9c.13,1.65.3,3.3.47,4.95-.67,5.9-1.2,11.8-1.56,17.7-1.14-7.55.25-15.1,1.09-22.65Zm8.76,67.24c.07-.16.13-.33.19-.49,1.89.1,3.78.16,5.67.17,4.92.17,9.92.18,14.79.13,9.96-.1,19.87-.45,29.8-.66,3.48-.07,6.95-.1,10.41-.09,8.56.16,17.11.4,25.65.68-28.84-.05-57.69.04-86.52.26Zm595.58,3.71c-.78-.03-1.55-.06-2.33-.1,27.71-.38,55.41-.87,83.13-1.15-.12.66-.23,1.33-.32,1.99-4.34.35-8.8.53-13.25.63-22.36.54-45.08-.43-67.23-1.38Zm86.27.18c.07-.49.14-.98.23-1.47,1.76-.02,3.52-.03,5.28-.04-.02.28-.02.56-.04.84-1.81.24-3.64.46-5.47.68Z"/>
      </g>
      <g>
        <path class="cls-2" d="m119.37,34.92c-.06-.86-.09-1.72-.1-2.58-.26.84-.52,1.68-.77,2.52l.87-.67c-1.12-3.04-2.24-6.08-3.35-9.12-1.47,7.19-1,14.89-1.47,22.2-.5,7.72-1.16,15.42-1.83,23.12-1.29,14.87-2.81,29.81-2.62,44.75,1.62-2.22,3.23-4.44,4.85-6.66l-1.01-2c-.17-1.09-.87-.99-1.03.03l-1.32,2.05c-2.37,2.69-2.27,10.53.32,13.07,3.78,3.72,4.78-4.49,4.85-6.66.46-14.51,1.63-28.95,2.81-43.42.61-7.43,1.18-14.86,1.56-22.31s1.39-15.48-.02-22.82c-.47-2.43-2.06-6.4-4.43-3.15-1.93,2.65-1.13,7.77.53,10.32-.2.63-.06,1.26.43,1.9.43,2.22,1.82,1.3,1.72-.58h0Z"/>
        <path class="cls-2" d="m136.85,51.02c-2.19,3.91-1.76,9.66-2.22,14.04-.63,5.88-1.44,11.74-2.26,17.6-1.72,12.29-3.77,24.66-3.95,37.08-.03,1.89.54,6.58,2.96,7.08s3.24-3.66,3.39-5.3c.57-6.34-.62-11.91-1.53-18.12-.18-1.22-1-1.13-1.16.03-.53,3.82-1.05,7.68-2.84,11.15l5.53,6.95c.81-12.45,1.95-24.82,3.29-37.23.64-5.92,1.27-11.86,1.59-17.81.26-4.73,1.01-10.47-.87-14.94-.32-.76-1.34-1.58-1.93-.53h0Z"/>
        <path class="cls-2" d="m137.34,78.65c3.81,1.82,8.18-.8,11.53-2.62,1.87-1.02,3.86-2.3,5.95-2.79.53-.12,4.08-.07,2.98-.53-.8-.34.59-1.24-.07.09-.14.27.02.72.02,1-.04,1.76-.24,3.53-.44,5.28-.45,3.89-1.19,7.74-2.02,11.57-.83,3.83-1.74,7.66-2.83,11.43-1.2,4.17-2.88,8.02-2.72,12.45.07,1.74.6,7.21,3.37,7.08l.38-.02c1.2-.06,2.11-1.45,2.47-2.43,3.41-9.23,5.74-18.91,7.31-28.62,1.44-8.89,2.82-18.81-.22-27.53-5.15-14.79-16.84,1.38-25.24,2.3-4.23.47-3.67,11.82-.48,13.34h0Z"/>
        <path class="cls-2" d="m220.06,57.64c-.15-.34.75,9.15.89,5.56.04-.88.01-1.78-.11-2.65-.2-1.36-.63-2.64-1.21-3.88-.86-1.84-2.09-3.89-3.89-4.95-2.55-1.51-5.4-.77-7.76.71-6.53,4.07-10.58,12.82-13.53,19.6-5.5,12.61-6.46,38.06,13.25,37.22,8.75-.37,14.12-6.26,15.32-14.64.34-2.37.15-7.72-2.17-9.24-2.36-1.54-3.66,1.12-4.12,3.32-.27,1.27-.07.24.1-.02-.23.35-.46.76-.77,1.06-.81.79-1.76,1.45-2.76,1.98-2.27,1.2-4.9,1.64-7.46,1.54s-5.24-.83-7.07-2.61c-.61-.6-1.26-1.44-1.44-2.22.08.35.09.9.2.09.59-4.38,4.61-11.56,7.78-16,2.73-3.82,7.25-9.11,11.68-4.36,1.73,1.86,2.91-.04,3.51-1.8.89-2.63.69-6.19-.43-8.71h0Z"/>
        <path class="cls-2" d="m218.13,52.06c-1.94,3.24-1.87,7.17-2.06,10.84-.23,4.48-.26,8.97-.24,13.46.03,9.12.31,18.24.33,27.36.02,9.75.89,19.45,1.57,29.17.34,4.87.65,9.74.68,14.62.03,4.53-.98,10.06,1.44,14.14.61,1.04,1.41,2.29,2.79,1.56,3.35-1.77,2.9-7.83,3.03-11,.2-4.96.02-9.93-.27-14.88-.6-10.11-1.87-20.18-2.09-30.32-.2-8.87-.31-17.73-.54-26.6-.11-4.4-.15-8.79-.17-13.19-.02-4.28.45-8.78-.77-12.93-.39-1.35-2.15-4.8-3.7-2.21h0Z"/>
        <path class="cls-2" d="m235.3,57.34c-2.02,8.99-3.08,18.29-3.16,27.51-.07,8.96.68,21.18,7.52,27.87,5.48,5.36,13,3.81,16.8-2.48,4.6-7.61,5.3-17.48,5.63-26.15.34-8.81.46-18.02-.59-26.79-2.08,2.14-4.16,4.29-6.24,6.43.7,1.99,1.39,3.8,2.48,5.6,1.43,2.38,3.17-1.02,3.42-2.21.53-2.55.68-5.06.52-7.66-.13-2.1-.45-7.35-3.23-7.92-2.77-.57-3.49,4.16-3.7,5.93-.87,7.39.44,15.21.28,22.65-.11,4.9.3,15.05-4.59,18.63-6.81,5-10.84-4.67-11.29-9.75-.37-4.21-.13-8.72.23-13.02s.86-7.86,1.42-11.16c.49-2.9.93-7.94-1.36-10.28s-3.66.63-4.15,2.81h0Z"/>
        <path class="cls-2" d="m271.63,90.66c4.03.74,8.4-3.76,11.27-6.09,3.54-2.88,7.11-5.8,11.83-6.19,3.77-.31,3.61-8.19,3.22-10.43-.88-4.98-2.45-11.98-7.93-13.78-3.68-1.21-7.55.81-10.45,3-10.62,8.04-13.43,21.98-11.78,34.6,1.12,8.54,5.32,24.24,15.41,26.36,7.59,1.59,13.71-6.93,17-12.53,2.87-4.87,5.27-10.06,6.5-15.6.94-4.23,2.61-11.26.19-15.28-.25-.42-.61-1.11-1.22-1.09-2,.07-2.98,4.24-3.69,5.71-1.6,3.32-3.01,6.74-4.71,10.01-2.3,4.45-7.23,13.24-13.45,12.28-7.09-1.09-10.28-13.74-8.54-19.48,1.33-4.39,4.97-8.43,8.96-10.63,2.11-1.17,6.26-2.37,6.87.96,1.07-3.48,2.14-6.95,3.22-10.43-5.13.51-8.93,3.43-12.63,6.81-3.77,3.44-8.33,6.5-11.76,10.2-2.09,2.26-2.07,10.92,1.69,11.61h0Z"/>
        <path class="cls-2" d="m331.13,48.85l-.31-.85c-.28-.77-1.12-1.99-2.09-1.99-9,.04-16.35,10.43-16.83,18.58-.27,4.57.35,11.27,4.78,13.9,3.3,1.97,7.82,1.25,11.46,1.49,2.18.14,4.21.51,6.14,1.56.29.16,3.65,2.49,3.14,2.8-.39.24-.4-3.37-.36-3.35.14.09-.59,1.71-.59,1.71-.75,1.65-1.75,3.16-2.84,4.61-4.8,6.35-11.75,11.71-19.63,13.34,1.2,3.36,2.4,6.71,3.6,10.07.1-.94,2.26-5.24,2.98-6.6.41-.79.42-3.06-.69-3.31-2.24-.51-1.37-.65-2.86-.64-.95.01-2.13.62-3.03.48-4.33-.68-4.94,16.3.39,16.04,8.67-.42,17.41-8.66,22.42-15.01,6.09-7.72,9.59-19.09,5.19-28.49-1.82-3.89-5.09-6.6-9.19-7.85-2.37-.72-4.76-.84-7.22-.87-2.03-.03-4.91-.75-6.82-.48l-.73-.34c-1.03,5.72-1.08,7.51-.15,5.37.7-.7,1.17-1.74,1.84-2.5,1.75-1.97,3.93-3.68,6.16-5.08,1.95-1.23,4.12-1.46,5.16-3.64,1.32-2.75,1.08-6.19.07-8.97h0Z"/>
        <path class="cls-2" d="m356.89,26.7c-1.3,13.15-2.32,26.32-3.89,39.45-.85,7.08-1.46,14.12-1.38,21.26.1,8.99,3.03,37.54,16.99,22.42,1.94-2.1,1.65-6.72,1.1-9.21-.24-1.1-1.89-6.09-3.92-4.16-1.37,1.31-3.31,3.27-5.16,3.18-1.2-.06-1.29-1.28-1.59-2.46-.95-3.7-.94-10.69-.79-15.27.54-16.98,4.71-36,3.71-53.8-.08-1.48-.37-5.23-2.36-5.57-1.98-.35-2.57,2.81-2.71,4.17h0Z"/>
        <path class="cls-2" d="m346.94,36.12l.34.89c-.45,2.98-.89,5.97-1.34,8.95-.34.3,9.21,2.83,10.3,3.01,3.71.63,7.38.83,11.1.1,7.08-1.4,16.46-4.32,20.95-10.18.73-.95.57-2.95-.1-3.88-5.48-7.73-13.63-4.19-21.27-2.82-3.74.67-7.33.74-11.09.25-3.98-.51-7.65-1.64-11.39.24-1.85.93-1.99,4.89-1.96,6.55v.96c.03,1.24.55,6.34,2.77,6,.57-.09.94-.26,1.39-.63,2.38-1.94,1.85-7.16.3-9.45h0Z"/>
        <path class="cls-2" d="m380.87,72.88l.34-1.17-1.38,1.86.59-.09c3.01-.47,2.6-7.8.9-9.34-6.89-6.23-9.15,14.94-9.2,18.3-.14,9.65,1.65,20.85,7.35,28.89,5.31,7.48,14.02,7.42,19.91.4,6.91-8.24,6.74-21.48,4.24-31.33-2.38-9.37-9.38-21.75-20.87-19.42-4.98,1.01-4.8,15.93.4,16.33,11.44.86,21.28-6.58,28.57-14.51.93-1.01.92-5.17-.75-5.5-9.96-2-18.47,4.41-28.21,3.69.13,5.44.27,10.88.4,16.33,7.88-1.8,13.56,4.85,15.02,12.06.94,4.63-2.23,12.36-9.22,12.68-6.39.29-8.95-8.1-9.9-13.04-.63-3.27-.83-6.68-.37-9.34.49-2.89,2.26-4.78,3.28-7.68-1.3-1.15-2.6-2.29-3.9-3.44.03,1.29.12,2.41.31,3.69.28,1.92,1.81,3.08,2.5.66h0Z"/>
        <path class="cls-2" d="m464.17,28.87c.73-1.95,1.14-4.59,2.55-6.19-.68-2.43-1.36-4.85-2.04-7.28-1.55,2.5-1.33,5.32-1.37,8.16-.05,3.95-.12,7.89-.32,11.83-.38,7.46-1.14,14.9-1.71,22.35-.88,11.6-1.56,23.51-1.14,35.15.27,7.33.71,22.03,9.84,24.35,3.69.94,6.35-1.49,8.73-4,1.95-2.05,5.31-6.42,8.39-6.59,3.73-.2,3.01-10.3.41-11.65-3.64-1.89-5.23-2.17-8.48.81-1.92,1.77-3.95,5.37-6.56,6.17-7.34,2.24-5.62-13.35-5.57-16.83.16-11.03.63-21.99,1.33-33,.43-6.84.88-13.71.83-20.56-.03-4.05.92-14.05-2.97-16.66-1.83-1.23-2.23,3.53-2.23,4.15.02,2.79-.64,5.6-.82,8.39-.03.48.58,2.84,1.13,1.4h0Z"/>
        <path class="cls-2" d="m456.76,39.27c-2.29-1.43-2.31-3.52-5.07-3.62-4.01-.14-2.55,10.55-.4,12.08,5.76,4.12,14.58.94,21.26,1.63,6.72.7,12.73.67,17.02-5.25.75-1.03.75-3.62-.36-4.45-4.71-3.54-12.03-6.39-17.94-6.82-6.02-.44-15.02,0-20.27,3.04.76,3.73,1.53,7.45,2.29,11.18,1.16-1.87,1.79-3.35,1.98-5.54l-.91,2.28c.41-.31,1.91-.83,2.48-1.06.93-.38.63-3.02-.09-3.47h0Z"/>
        <path class="cls-2" d="m497.04,55.18l-.45-.39c-2.07-1.78-3.21,3.94-3.25,4.65-.36,6.08-.24,10.9-.48,17.07-.26,6.76-.57,13.71,1.1,20.33,1.07,4.22,3.16,9.59,8.03,10.43,2.45.43,4.93-.5,7.13-1.52,1.6-.74,3.1-1.69,4.56-2.69,1.33-.91,3.79-3.63,5.35-3.81,2.18-.25,2.28-4.22,2.3-5.68.02-2.56-.52-4.61-1.61-6.89-.5-1.04-1.78-2.89-3.18-1.83-3.49,2.65-9.41,8.34-14.4,7.34-1.24-.25-1.8-.99-2.03-1.37.15.25-.32-.96-.3-.9.01.05-.29-2.07-.37-2.76.09.88-.1-1.64-.12-2.12-.05-1.18-.07-2.35-.09-3.53-.02-2.58.04-5.16.07-7.75.06-5.21.44-10.96-1.01-16.01.05,2.2.11,4.4.16,6.6l.21-.86c.59-2.47.48-6.5-1.63-8.31h0Z"/>
        <path class="cls-2" d="m519.86,62.95c-.14-.93-1.6-4.92-1.36-5.74.53-1.81.63-7.11-1.37-8.24-2.34-1.31-3.03,2.02-3.21,3.86-1.84,19.22,4.54,39.17,8.96,57.66.25,1.05,1.32,3.88,2.91,3.6,3.6-.63,5.13-2.18,6.55-5.42.93-2.12,1.34-7.97-1.32-9.24-2.07-.99-3.43-.49-5.59-.15.97,1.2,1.94,2.4,2.91,3.6-2.02-8.3-4.33-16.54-6.14-24.89-1.82-8.39-2.53-16.78-3.57-25.28-.73,2.48-1.45,4.96-2.18,7.44,1.71.67,2.51,1.82,2.4,3.47.23,1.61,1.16.41,1-.66h0Z"/>
        <path class="cls-2" d="m537.69,49.46c-2.53,10.51.6,22.09,1.47,32.64.84,10.12.07,20.21,2.87,30.11.47,1.65,1.6,4.11,3.66,3.2,1.99-.88,2.28-5.23,2.16-6.96-.39-5.57-1.55-10.75-2.57-16.22-.15-.83-.96-1.58-1.2-.32-.97,4.99-2.2,9.69-2.5,14.79,1.92-.62,3.83-1.23,5.75-1.85-2.49-8.26-1.5-17.18-2.44-25.68-.52-4.71-1.42-9.38-1.98-14.09s-.45-9.73-1.29-14.49c-.53-3.01-2.91-5.4-3.93-1.13h0Z"/>
        <path class="cls-2" d="m544.26,85.72c-1.53-5.18,7.51-12.56,10.92-15.46,1.11-.95,2.3-1.98,3.61-2.63.2-.1,1.91-.68,1.9-.67.13-.22-2.3-5.67-1.85-5.79.14-.04-.04,1.41-.02,2.21.05,1.99.4,3.83,1.1,5.68l-.87-4.29c.1,1.54.09,3.07.09,4.61,0,.45.12,1.53.73,1.59.77.08,1.43-.09,2.22,0,.67-.09,1.18-.43,1.53-1.02,2.83-4.38,3.35-13.38-.35-17.49-3.51-3.89-8.64,1.35-11.17,3.87-4.86,4.84-9.48,10.06-11.39,16.8-.91,3.21-1.05,6.53-.4,9.81.51,2.58,1.44,3.34,2.98,5.07.97,1.09,1.08-1.85.95-2.28h0Z"/>
        <path class="cls-2" d="m578.74,47.3c.78,3.39,1.56,6.78,2.34,10.17,2.29.1,1.62-5.52,1.39-6.61l-.31-1.49c-.25-1.19-2.14-4.57-3.42-2.07-5.33,10.44-2.71,22.67-1.93,33.84s.94,22.71,1.07,33.99l6.29-2.12c-.32-3.78-1.04-7.09-2.5-10.58-.3-.7-.89-.61-1.18.03-1.61,3.51-2.19,6.87-2.53,10.7-.2,2.28-.22,7.94,2.48,9.02,2.72,1.1,3.77-3.45,3.84-5.25.38-10.46-.83-20.95-1.06-31.41-.22-9.84-3.51-20.42-.89-30.1.55-2.04.48-5.33-.56-7.26-.57-1.06-2.06-2.71-3.01-.86h0Z"/>
        <path class="cls-2" d="m582.13,79.35c3.17-2.94,10.51-9.76,14.52-4.35,2.4,3.24,2.09,7.89,2.17,11.59.11,5.24.12,10.49.13,15.74,0,5.56.15,12.43,1.72,16.15.96,2.26,2.67,1.79,3.66-.09-.52.98.39-.37.61-.93.48-1.18.76-2.38.9-3.65.18-1.64.11-3.36.13-5.02.04-3.32.04-6.64.04-9.96,0-6.2.07-12.44-.52-18.61-.63-6.63-1.92-15.43-7.28-20.07-6.17-5.34-13.62.83-18.14,5.31-2.27,2.24-2.51,5.93-2.04,8.95.17,1.1,1.85,7.04,4.1,4.95h0Z"/>
        <path class="cls-2" d="m619.58,63.88c-2.66-4.98-5.48-.02-6.35,3.33-1.46,5.64-1.37,12.04-.97,17.82.42,6.06,1.92,12.09,4.01,17.78,2.05,5.57,5.01,12.36,10.4,15.51,9.39,5.48,15.39-4.45,16.88-12.39,2.1-11.16.11-23.23-4.02-33.7-3.08-7.8-9.84-19.17-19.79-14.91.76,5.26,1.52,10.51,2.27,15.77,3.21-2.28,6.71-3.76,10.51-4.78s6.59-1.02,9.23-3.9c2.33-2.55,2.02-10.75-1.02-12.78.04,4.3.09,8.59.13,12.89,2.88.82,2.13-7.84,1.9-8.84-1.28-5.71-5.15-5.32-9.92-4.07-4.66,1.22-9.18,2.9-13.11,5.72-3.56,2.55-3.13,18.12,2.27,15.77,6.6-2.87,11.17,6.36,12.9,11.12,1.19,3.29,2.09,7.77,2.25,9.83.27,3.37.66,5.14-.94,7.61-1.06,1.63-3.68,3.03-6.47,2.29-4.61-1.23-7.15-7.01-8.64-11.05-.84-2.28-1.54-4.72-2.01-7.08-.34-1.71-.49-3.2-.55-4.2-.16-2.5-.14-5,.03-7.5.08-1.2.05-2.51.3-3.69.3-1.4-.65-.07.16-.81,1.38-1.26,1.36-4.16.53-5.72h0Z"/>
      </g>
    </g>
  </g>
</svg>