<?xml version="1.0" encoding="utf-8"?>
<!-- Generator: Adobe Illustrator 28.1.0, SVG Export Plug-In . SVG Version: 6.00 Build 0)  -->
<svg version="1.1" id="Livello_2_00000145024059238539832000000001088475939579024531_"
	 xmlns="http://www.w3.org/2000/svg" xmlns:xlink="http://www.w3.org/1999/xlink" x="0px" y="0px" viewBox="0 0 1505 2055"
	 style="enable-background:new 0 0 1505 2055;" xml:space="preserve">
<style type="text/css">
	.st0{clip-path:url(#SVGID_00000047780622419581390710000007238495269094117000_);}
	.st1{fill:#DEDAF4;}
	.st2{fill:#B9B5E2;}
	.st3{fill:#F4E9E9;}
	.st4{fill:#FFADAD;}
	.st5{fill:#FFFFFF;}
</style>
<g id="Livello_1-2">
	<g>
		<defs>
			<rect id="SVGID_1_" x="205.6" y="68" width="1093.7" height="1949.6"/>
		</defs>
		<clipPath id="SVGID_00000135663448164953662230000003339655539571458952_">
			<use xlink:href="#SVGID_1_"  style="overflow:visible;"/>
		</clipPath>
		<g style="clip-path:url(#SVGID_00000135663448164953662230000003339655539571458952_);">
			<g>
				<rect x="172.6" y="47" class="st1" width="1152" height="2008"/>
				<path class="st2" d="M114,588.2c9.7-27.6,3.3-57.1,15.4-86c16.9-40.4,42.8-75.8,67.1-113.2c47.6-73,97.6-169.6,172.8-222.7
					c79.1-55.9,201.9-97.7,300.9-109.7C767.3,44.7,891.4,14,980,68.4c21.6,13.3,34.7,33.4,55,47.3c19.1,13.1,43,21.7,62.3,34
					c42.3,26.8,63,57.7,84.7,99.2c20.4,39.1,51.3,72.6,71.5,112.1c21.9,42.8,36.1,89.4,54.3,133.4c42.5,102.9,63.5,218.3,54.4,327.5
					c-5.4,64.2-2.8,126.8,0,191.1c2.8,66.5,32.5,129,46.7,193.7c30.5,139,4,284.9-70.3,409.4c-30.3,50.8-80.7,80-134.2,111.9
					c-25.8,15.4-51.6,29-76.8,45.2c-22.4,14.4-41.3,34.8-64.1,47.9c-43.9,25.3-104.3,36.7-152.7,53.8
					c-58.6,20.7-115.1,25.2-177.3,16.4c-54-7.6-108.3-13.8-162.4-21.4c-30.4-4.2-61.8,4.2-91-6.9c-24.4-9.3-42.5-29.9-61-46.2
					c-49.3-43.5-88.3-95.4-139.9-136.2c-60.4-47.8-117.6-88.1-149.4-156.7C95,1448.9,75.1,1370.1,71.9,1289
					c-3.3-83.8,10.1-168,10.1-252.2c0-75.1-3.4-147.3,0-222.5c1.2-26.8,44.4-165.3-2.7-177.9c-19.2-5.1-45.9,55.5-52.3,67.3
					c-18.9,35.1-31.2,68.8-35.8,108c-11.5,98.7-12.8,199.3-23.9,298c-14.9,132.2-12.4,268.5-10.6,401.5c1.4,105,23,210.9,32.8,316
					c6.6,71.7,11.4,168.3,98.6,198.8c36.6,12.8,77.4,7.5,117.4,7.4c57.9-0.2,116.1-1.6,174.1-2.6c133.1-2.3,264.7,5.3,397.5,4.9
					c116.4-0.3,231.5-2.4,347.7-2.4c68.9,0,136.3,0.9,205-4.9c42-3.5,76,1.6,96.2-35.5c20.8-38,19.5-85.6,24.2-126.8
					c6.8-59.6,3.3-118.4,2.1-177.6c-1.4-65.1-5.9-131.4-7.9-195.9c-2.3-76.8-19.6-156.8-15.5-233.3c-1.3-76.5-8.2-153.9-8-230.9
					c-3.6-249.2,2-508.4,23.3-759.6c3.9-46.2,10.4-91.5,11.6-137.6c0.6-23.4,15.9-80.3-12.2-99.7c-19.8-13.7-65-6-92.7-6
					c-48.6,0-96.9,0.9-145-2.3c-63.2-4.2-127.6-9.1-190.6-10.1c-60.9-0.9-122.5-1.4-183.3-4.3c-9.8-0.5-18.1,0.2-27.6-2.5
					C662.9,7.9,516.4-4.7,375.3,1.9c-49.3,2.3-99.5,7-149.3,9.5c-21.8,1.1-47-0.8-66.9,8.5c-44.8,21.1-41.8,62-42.5,100.2
					c-1.4,82.7-17.9,172.1-32.1,253.2c-11.8,67.3-40.1,157-31.5,228.3c7.6-7.4,35.9-16.3,36.9-15.9"/>
			</g>
		</g>
	</g>
</g>
<g id="Livello_1-2_00000134247500142598259080000010655450351369214369_">
	<g>
		<path class="st3" d="M335.5,543.7c3.4,98-2.2,194.8-0.7,293.2c1.5,100.9,4.7,200.9,6.2,301.3c0.8,54-1.8,107.7-4.4,161.2
			c-2.4,50.7,1,101.8,0.6,151.9c-0.9,99.3-3.9,198.8-2.4,297.6c3.1,0.3,6.2,0.6,9.3,0.9c7.1,0.6,14.3,0.3,21.5,0.6
			c16.6,0.6,33.1,2.2,49.6,4.4c16.6,2.3,33.1,5.8,49.8,7c16.1,1.1,32.3,0.7,48.4-0.6c16.4-1.3,32.7-3.9,49.1-6
			c16.4-2.1,32.9-3.2,49.4-3.7c33.3-1.1,66.7,0.2,100,1.6c33.4,1.4,66.8,2.9,100.3,2.1c33.1-0.8,65.8-5,98.7-9.3
			c50.4-6.5,101.8-13.3,152.3-6.3c-0.6-3.3-0.9-6.5-0.9-9.6c0.6-24,5.1-14.9,18.9-24c10-6.6,9.8,0,12.9-18.1c2.3-13.3-1.3-32-2.5-45
			c-7-75.6-12.7-150.7-15.2-227c-1.6-47.4,0.1-94.5,0.9-141.8c0.8-43.6-5.9-84.8-8.3-127.8c-2.5-43.5,0.9-87-0.1-130.5
			c-1.4-57.4-6.4-112.7-2.9-170.2c5.7-94,1.9-189.8-5.7-283.7c-3.4-42.1-3.5-85-7.3-126.5c-1.9-20.4,4.4-67.1-9.2-82
			c-11.8-13-33.8-2.5-47.3-3c-21.8-0.8-44.9-8-66.4-11.6c-26.6-4.5-51.4-18-78-20c-26.8-2-57,3.9-82.6,10.8
			c-82,22.1-160.1,13-243.3,11.9c-38.1-0.5-78.8,3.6-116.6,8.7c-12.1,1.6-57.3,14.6-55-13.3l15.3-0.4c-10.1-3.8-30.7-5-35.5,5.1
			c-0.9,2,0.1,24.8-0.5,29.4c-1.5,11.6-2.5,19.6-2.1,30.6C333,448.7,333.9,496.6,335.5,543.7L335.5,543.7z"/>
		<g>
			<path class="st4" d="M369.6,1223.5c0.1,0.1,0.3,0.2,0.4,0.3c0.3,0.1,0.7,0.1,1-0.2c0.3-0.2,0.5-0.5,0.6-0.9
				c0-0.1,0.1-0.2,0.1-0.3c0-0.1,0.1-0.1,0.1-0.2c0,0,0,0,0-0.1c0,0,0.1,0,0.1,0c0.1,0,0.2-0.1,0.3-0.1c0.2-0.1,0.3-0.1,0.4-0.3
				c0.1-0.1,0.2-0.3,0.3-0.4c0.1-0.2,0.1-0.4,0.2-0.6c0-0.2,0-0.4,0-0.6c-0.1-0.4-0.3-0.8-0.6-1c-0.1,0-0.2-0.1-0.3-0.2
				c-0.2-0.1-0.4-0.1-0.7,0c-0.3,0.1-0.6,0.2-0.9,0.4c-0.1,0-0.2,0.1-0.2,0.2c-0.2,0.1-0.3,0.3-0.5,0.5c-0.4,0.5-0.7,1.2-0.8,2
				c-0.1,0.4,0,0.8,0.1,1.2C369.3,1223.2,369.4,1223.4,369.6,1223.5L369.6,1223.5z"/>
			<path class="st5" d="M1140.5,1704.1c-6.6-2.2-13.6-2.2-20.4-1.4c0-1.6-0.1-3.2-0.2-4.8c0.4-11,0.6-21.9,0.4-32.9
				c-0.2-7.9-0.8-15.8-1.5-23.8c0.1-12.1,0.6-24.1,0.7-36.2c0.1-10.9,2-22.7-0.8-33.3c-0.5-1.7-2.5-1.4-2.5,0.4
				c-0.2,11.2-0.3,22.5-0.3,33.8c-0.1,0-0.1,0-0.1,0c0-4.1,0-8.2,0.1-12.4c0.1-21.1-0.2-42.2-0.9-63.3c0.1-2.4,0.2-4.7,0.4-7.1
				c0.3,4.6,0.6,9.1,0.9,13.7c0.3,4.3,1,8.7,1.5,13.2c0.2,5.4,0.5,10.8,0.9,16.2c0.1,2,2.4,2,2.5,0c0.3-4.7-0.2-9.5-0.8-14.2
				c-1-23.2-0.6-46.4-0.8-69.6c-0.1-14.1-0.6-28.2-1.1-42.3c0-0.4,0-0.9-0.1-1.3c0-0.7,0-1.5,0-2.2c0.1-16.6-0.3-33.3-1.1-49.8
				c0.2-8.4,0.1-16.8-1.6-24.9c-0.1-0.6-0.5-0.9-0.9-1.1c0.2-10.4,0.2-20.9,0.2-31.3c0.3,3.9,0.7,7.8,1.2,11.7
				c0.8,7.4,1.8,14.8,2.5,22.3c0,11.3-0.1,22.7-0.3,34c0,1.8,2.1,2.1,2.5,0.4c1.7-7.1,1.6-14.8,1.3-22.2c-0.2-4.1-0.6-8.2-1-12.3
				c0-21.4-0.2-42.8-0.2-64.2c-0.1-29.9-0.1-59.9,0-89.8c0.6-5.5,1.3-11,1.9-16.5c1.1-8.7,2.1-17.5,2.2-26.3
				c0.1-5.8,0.2-14.3-3.6-18.6c-0.6-0.7-1.7-0.6-2,0.4c0-7.6,0.1-15.2,0.1-22.8c0.4-0.3,0.7-0.9,0.6-1.7c-0.2-1-0.4-1.9-0.5-2.9
				c0.1-10.8,0.1-21.6,0-32.4c0-0.7,0-1.3,0-2c0.7-11.9,0.7-23.7,0.7-35.7c0.2-27.3,0.6-54.7,0.1-82c-0.3-16.9-0.9-33.8-1.6-50.7
				c0.4-32.8,0.6-65.7-0.2-98.5c-0.1-3.9-0.2-7.8-0.3-11.7c0.9,7.1,2,14.1,3.3,21.1c0.3,1.7,2.6,1.4,2.5-0.4
				c-2.7-41.3-3.1-82.7-3.1-124.1c0-25.7-0.4-51.4-0.8-77c0-2.5,0-4.9-0.1-7.4c0-2.5-0.1-5-0.1-7.5c0.3-5.8,0.6-11.6,0.8-17.3
				c1.1-26.1,1.6-52.3,0.1-78.4c-0.1-0.9-0.6-1.4-1.2-1.5c0.1-13.5,0.2-27.1,0.2-40.6c0.1-12,0.2-24,0.3-36
				c0.2-7.9,0.2-15.8,0.1-23.7c0-1.4,0-2.9,0-4.3c0-0.2,0-0.4-0.1-0.6c-0.2-12.3-0.6-24.6-1-36.9c0.4-9.5,1-18.9,1.2-28.4
				c0.2-10,0.1-20.3-1.7-30.1c0.2,0.1,0.3,0.2,0.5,0.3c0,2,2.5,1.9,2.5-0.1c0-2.3-1.7-3.4-3.9-4c-0.2-0.9-0.5-1.9-0.7-2.8
				c-0.1-0.4-0.3-0.7-0.6-0.9c-0.2-1.2-0.4-2.4-0.7-3.6c-0.4-1.8-2.4-1.3-2.5,0.4c0,0.8-0.1,1.5-0.1,2.3c-0.2-0.1-0.3-0.2-0.5-0.2
				c-1.4-0.1-2.9-0.2-4.3-0.3c1-0.4,1.9-0.9,2.9-1.5c1.2-0.7,0.6-2.9-0.6-3c-6.5-0.1-12.9,1.1-19.3,2.7c-0.7,0-1.5-0.1-2.2-0.1
				c-8.8-0.4-17.7-0.9-26.6-0.5c-6.7,0.4-13.2,1.5-19.7,2.9c-4.8-0.6-9.6-1.1-14.4-1.3c-3.7-0.1-7.5-0.1-11.2,0.4
				c-0.2,0-0.4,0-0.5,0c-6.3,0.1-12.8,0.9-18.7,3.9c-4.5,0.2-9.1,0.3-13.6,0.4c0.2-0.8,0-1.6-0.8-1.9c-4-1.1-8.1-1.6-12.2-1.8
				c-12.8-1.5-25.7-1.8-38.5-0.5c-5.5-0.1-10.9-0.1-16.4-0.2c-6.9-2.1-13.8-4.5-20.8-6.1c-10.5-2.4-21.2-2.9-31.8-3.1
				c-1.9,0-3.9-0.1-5.8-0.1c-11.1-5.4-23.5-3.4-35.3-1.3c-2.6-0.3-5.1-0.7-7.7-1.1c-5.5-1-11-0.6-16.6-0.6
				c-7.1,0.1-14.3,0.2-21.4,0.2c-9.6-1.1-19.3-2.1-28.9-3.2c-0.3,0-0.6-0.1-0.9-0.1c0.3-1.9,0.6-3.9,0.9-5.8
				c0.2-1.5-1.1-2.7-2.1-1.5c-1.8,2.1-3.5,4.3-5,6.7c-3.4-0.3-6.8-0.6-10.3-0.9c-0.1-0.1-0.2-0.1-0.4-0.1c-0.1,0-0.2,0-0.3,0l0,0
				c0,0,0,0,0,0c-2.8-0.5-5.6-0.8-8.4-1c-2.6-1.4-6.1-1.1-8.7-0.7c-1,0.2-2,0.4-2.9,0.6c-1.2,0.1-2.5,0.1-3.8,0.2c-0.5,0-1,0-1.4,0
				c-3.2,0-6.4-0.1-9.5,0.4c-2.8,0.4-5.5,1.1-8.3,1.6c-1,0.2-2,0.4-3,0.5c-2,0-4.1-0.1-6.1-0.1c-0.7,0-1.5-0.1-2.2-0.1
				c-1.5-0.5-2.9-1.3-4-2.6c-1.2-1.4-3,0.8-1.8,2.2c0,0,0,0,0,0c-2.1-0.1-4.2-0.3-6.4-0.4c-11.3-0.6-22.5,0-33.8,0.9
				c-4.5,0.4-9,0.9-13.5,1.3c-8.4,0.3-16.8,0.6-25.2,1c-2.2,0-4.4,0-6.6,0.2c-13.5,0.5-27.1,0.8-40.6,0.6c-12.5-0.2-25.1-1-37.4,1.9
				c-1.2,0.3-1.1,2.5-0.1,3c-7.4,1.2-14.8,2.7-22.3,4c-4.1,0.8-8.3,1.3-12.5,1.7c-4.1,0-8.3,0.1-12.5,0.3c-3.7,0.2-7.4,0.6-11.2,1
				c-11.1,0.4-22.2,0.6-33.2,2.1c-1.4,0.2-1.6,2.2-0.6,2.9c-3,0.1-6,0.2-9,0.3h-23.1c-0.1-0.4-0.2-0.8-0.3-1.2
				c-0.5-1.6-2.7-1.5-2.5,0.4c0,0.3,0,0.5,0.1,0.8h-0.1c-0.2-4.5-0.5-8.9-0.8-13.4c-0.1-1.7-2.1-2.2-2.5-0.4c-1.2,4.9-2,9.9-2.4,15
				c-10.1,0.5-20.2,1.1-30.3,2.1c-1.3,0.1-1.8,2.8-0.3,3.1c10,2.3,20.1,2.2,30.3,1.5c-0.5,18.1,2.5,36.8,3.5,54.5
				c0.3,5.6,0.5,11.2,0.5,16.9c0,0.4,0,0.8-0.1,1.2c-1.2,22.7-4.4,46.5-1.8,69.3c0,2.1-0.1,4.2-0.1,6.3c-0.2,32.3-2.6,64.4-4.5,96.6
				c-1.6,28.1-1.7,56.3-2.8,84.5c-0.9,21.1-2.9,46.7,4.9,66.6c-0.1,6.5-0.1,12.9-0.3,19.4c-0.5,28.6-1.9,57.6-1.1,86.4
				c-0.3,33.6-2.7,67.1-1.2,100.7c0.5,10.5,1.2,21,2.1,31.5c0.6-2.7,1.3-5.3,1.9-8c-0.6-7.8-1.1-15.7-1.4-23.5
				c-1.1-23.4-0.2-46.7,0.5-70c0.4,3.8,0.8,7.7,1.3,11.5c0.1,0.7,0.2,1.4,0.3,2.1c0.2,4.9,0.3,9.8,0.3,14.8c0,3.5,0.1,7,0.6,10.4
				c-0.4,3.5-0.8,7.1-1,10.7c-1,14-0.6,28.1,0,42.1c0.7-3,1.5-6.1,2.2-9.2c-0.3-8.7-0.4-17.3,0-26c0.1,4.9,0.2,9.8,0.4,14.7
				c0.1,3.1,0.1,6.1,0.2,9.2c0.1-0.4,0.2-0.8,0.3-1.1c0,0.1,0,0.2,0,0.2c-1.8,8.8-3.4,17.7-5,26.5c-0.2,1.5,1.2,2.8,2.1,1.5
				c3.2-4.4,5.8-9.5,8.1-14.7c-1.9,7-3.9,13.9-6.3,20.6c-0.4,1.1,0.3,2.4,1.1,2.5c-1,4-1.9,8.1-2.9,12.2c0.2,1.8,0.4,3.7,0.6,5.5
				c-0.2,4.3-0.4,8.6-0.5,12.9c-1.1,33.5-0.8,66.9,1,100.4v7.8c0,9.8-0.6,19.3-1.1,29.1c-0.5,8.1-0.9,17.5,2.5,24.8
				c0,3.6,0,7.3,0,10.9c-0.1,10.6-0.7,21-1.5,31.5c-0.3,0.2-0.5,0.7-0.5,1.2c-0.1,1.5,0,3,0.1,4.5c0,0.5-0.1,1.1-0.1,1.6
				c-1,12.2-1.8,24.4-0.4,36.6c0.1,0.6,0.5,1,1,1.1c-0.4,4.5-0.3,9-0.6,13.2c-0.8,14.4-0.8,28.7-0.8,43.1c0,1.3,0,2.6,0,3.9
				c-1.3,18.4-2.4,36.8-3.1,55.3c-0.6,16.9-0.8,33.8-0.5,50.8c-0.5,10.2-0.8,20.4-1.1,30.6c-0.8,32.4-0.5,64.8,0.6,97.2
				c-0.2,5.5-0.4,11-0.4,16.5c0,17.7,0.8,35.4,1.6,53.1c0.8,17.6,1.3,35.4,2.9,53c0.7,8.3,1.8,16.7,2.6,25.1
				c0.1,4.6,0.1,9.2,0.1,13.8c-2.5-0.9-5-1.7-7.6-2.4c-1.3-0.4-2.4,2.2-1,2.9c0.1,0.1,0.2,0.1,0.3,0.2l0,0c0,0,0,0,0,0
				c2.6,1.3,5.4,2.2,8.2,2.8c0,0.6,0,1.3,0,1.9c-0.3,0-0.6,0.1-0.9,0.1c-3.2-0.3-6.4-0.8-9.7-0.8c-0.1,0-0.2,0-0.2,0
				c-0.1,0-0.2,0-0.3,0c-1.1,0.1-1.6,2-0.9,2.8c-1.2,0.3-2.4,0.7-3.6,1.2c-1.1,0.4-1.3,2.7,0,3.1c5,1.5,10.2,1.8,15.3,1.6
				c0,0.7,0,1.4-0.1,2c-0.1,1.8,2.2,2.2,2.5,0.4c0.1-0.9,0.2-1.7,0.3-2.6c1.3-0.1,2.6-0.2,3.9-0.3c0.1,4.9,0.6,9.8,1.6,14.5
				c0.3,1.4,2.2,1.6,2.4,0c0.6-5,1-10,1.1-15c2.6-0.3,5.3-0.5,7.9-0.7h3.2c9.4,3,18.9,4.3,28.6,5.2c5.9,0.6,11.8,0.9,17.7,1.1
				c-0.1,0.9,0.3,1.8,1.2,1.8c4.9,0,9.8-0.2,14.6-0.4c0.1,0.1,0.3,0.2,0.4,0.3c24,7.6,49.1,2.5,73.5,1.2c0.5,0,1-0.1,1.5-0.1
				c9.6,0.3,19.1,0,28.7-0.7c25.6-0.8,51.2-2.2,76.8-2.8c35.6-0.8,71.4,1.4,107-3.2c5.1-0.7,10.2-1.5,15.4-2.4h25.8
				c3.3,2,7.2,2.8,10.7,3.4c6.5,1.1,13.1,0.9,19.7,1.1c10.8,0.2,21.7,0.4,32.5,0.8c2,0.1,4,0.2,6.1,0.3c0.2,0.3,0.6,0.6,1,0.6
				c2.5,0.2,4.9,0.1,7.3-0.1c5.5,0.4,11,0.9,16.5,1.4c-5.7,1.2-11.4,3-16.8,5.6c-1.2,0.6-1.2,2.5,0,3.1c5.9,2.9,12.2,0.3,18.2-1.1
				c7.1-1.7,14.5-1.7,21.7-2.1c15-0.8,29.9-1.8,44.9-2.7c10.6-0.7,21.3-1.7,31.9-2.7c10.6-0.5,21.2-0.9,31.7-1.1
				c24.7-0.5,49.2,1.5,73.9,1.7c1.2,0,1.7-2.2,0.8-2.9c1.8-0.6,3.7-1.2,5.5-1.9c1.6-0.6,3.3-1.3,5-1.9c3.6,0,7.2-0.3,10.7-1.5
				c0,0,0,0,0,0h0.7c0,2.9,0,5.8,0,8.7c0,2,2.5,2,2.5,0c0-3.2,0-6.3,0.1-9.5c0.5-0.1,1-0.1,1.4-0.2c0,0.2,0.1,0.3,0.2,0.5
				c-0.1,2.7-0.2,5.4-0.3,8.1c-0.1,1.8,2.2,2.1,2.5,0.4c0.6-3,0.9-6.1,1.1-9.2c0.6,0,1.2,0,1.8,0c1.1,0,1.6-1.6,1-2.6
				c5.9-0.8,11.8-1.9,17.7-3.3C1141.8,1706.8,1141.7,1704.4,1140.5,1704.1L1140.5,1704.1z M1116.9,1490.2c0.1,6.9,0.1,13.9,0.1,20.8
				c0,0,0-0.1,0-0.1c-0.2-3.4-0.4-6.7-0.6-10.1C1116.6,1497.3,1116.8,1493.8,1116.9,1490.2L1116.9,1490.2z M1120.7,1157.8
				c0.2-1.7,0.3-3.3,0.6-5c1.8,4.4,1.4,10.9,1.3,15.1c-0.2,7.3-0.9,14.6-1.8,21.9c-0.2-6.8-0.6-13.7-0.6-20.5
				C1121.3,1165.5,1121.2,1161.6,1120.7,1157.8L1120.7,1157.8z M373,315.3c-4.7,0.3-9.5,0.5-14.2,0.4c4.7-0.3,9.5-0.6,14.2-0.8
				C373,315,373,315.1,373,315.3z M376.9,1139.9c0,2.7,0.1,5.4,0.1,8.1C376.8,1145.3,376.8,1142.6,376.9,1139.9z M371.9,1514.6
				c-0.2-9.7-0.3-19.5-0.3-29.2c0.1,9.5,0.2,18.9,0.4,28.4L371.9,1514.6L371.9,1514.6z M376.7,1712.3c-2.8,0.1-5.7,0.1-8.5-0.2
				c2.5-0.6,5.1-1,7.7-1.3c0.3,0,0.6,0.1,0.9,0.1C376.7,1711.4,376.7,1711.9,376.7,1712.3L376.7,1712.3z M378.4,797.3
				c-0.1,8.5-0.1,17-0.1,25.5c-0.1-0.5-0.1-0.9-0.2-1.4c-0.1-20-0.2-40.1-0.3-60.1c0.2,3.2,0.4,6.4,0.6,9.5v25.2
				C378.4,796.5,378.4,796.9,378.4,797.3z M378.4,856.7c0,0.4,0,0.8,0,1.2c-0.1-4.3-0.1-8.5-0.1-12.8c0,0.4,0.1,0.7,0.1,1.1
				c0,2.5,0,5.1,0,7.6C378.4,854.8,378.4,855.7,378.4,856.7L378.4,856.7z M378.3,659c0-0.3,0-0.6,0-0.9v1.8
				C378.4,659.6,378.3,659.3,378.3,659z M490.7,310.5c2.7-0.5,5.3-1,7.9-1.5c0.1,0.8,0.7,1.4,1.5,1.2c2-0.5,4.1-0.9,6.1-1.3
				c1.6,0.1,3.2,0.3,4.8,0.5c0.2,0.3,0.4,0.5,0.6,0.6c0.4,0.2,0.8,0.3,1.3,0.5H490.7L490.7,310.5z M638.2,308.4c1.2,0,2.5,0,3.8,0
				c-0.8,0-1.5,0.1-2.3,0.1C639.2,308.5,638.7,308.5,638.2,308.4L638.2,308.4z M653.7,305.3c1.1-0.1,2.2-0.3,3.3-0.4
				c1.1,0,2.3,0.1,3.4,0.1c0.9,0.1,1.7,0.3,2.5,0.4C659.8,305.3,656.8,305.3,653.7,305.3L653.7,305.3z M742.1,293
				c0.7,0.1,1.4,0.1,2.1,0.2c-0.1,0.3-0.1,0.7-0.2,1c-0.9,0-1.8,0-2.7,0.1C741.6,293.8,741.9,293.4,742.1,293z M1051.4,1577.3
				c2.2-3.8,4.4-7.7,6.7-11.4c-0.4,1.8-0.8,3.7-1.3,5.5c-3,6.3-6,12.6-9,18.9c1.1-3.5,2.1-7,3-10.6
				C1051,1579,1051.1,1578.2,1051.4,1577.3C1051.3,1577.4,1051.4,1577.4,1051.4,1577.3z M1022.2,1640.2
				C1022.2,1640.2,1022.2,1640.2,1022.2,1640.2c-0.9,1.4-1.9,2.8-2.8,4.1c2.1-7.1,4.3-14.2,6.6-21.2c0.1-0.3,0.2-0.7,0.3-1
				c1.6-3,3.2-6.1,4.8-9.1c-2.4,5.8-4.6,11.8-6.4,17.9C1023.7,1634,1022.9,1637.1,1022.2,1640.2L1022.2,1640.2z M1024.2,1642.8
				c0.1-0.3,0.1-0.5,0.2-0.8c0.2-0.3,0.4-0.6,0.6-0.9C1024.6,1641.7,1024.4,1642.3,1024.2,1642.8z M1020.4,1651.6
				c-0.7,1.6-1.4,3.3-2.1,4.9c-0.8,1.8-2,2.6-3.2,2.6c0.7-2.4,1.4-4.9,2.1-7.3c1.3-1.5,2.5-3.1,3.7-4.8c-0.2,1.4-0.4,2.7-0.5,4.1
				C1020.4,1651.3,1020.4,1651.4,1020.4,1651.6L1020.4,1651.6z M1019.1,1636.1c-0.8,2.8-1.7,5.6-2.5,8.3c-0.5,1.8-1.1,3.7-1.6,5.5
				c-0.9,1.1-1.8,2.1-2.8,3.1C1014,1647.1,1016.5,1641.5,1019.1,1636.1L1019.1,1636.1z M1032.5,1603.9c1-2.7,2-5.4,3-8.1
				c2-4.3,3.9-8.5,5.9-12.8c-2.1,5.1-4.2,10.1-6.3,15.1C1034.2,1600.1,1033.4,1602,1032.5,1603.9z M1014.6,1477.6
				c-5.5,0-5.5-10.6,0-10.6S1020.1,1477.6,1014.6,1477.6z M1011.8,1657.4c0.5-0.5,1-0.9,1.4-1.4c-0.2,0.7-0.4,1.5-0.6,2.2
				C1012.3,1658,1012.1,1657.7,1011.8,1657.4L1011.8,1657.4z M1042.3,1598.4c-4.3,12-9.5,23.7-15.6,34.4c1.9-6.2,4.2-12.3,6.5-18.1
				c3.8-9.5,8.2-18.6,12.8-27.5C1044.9,1591,1043.6,1594.8,1042.3,1598.4L1042.3,1598.4z M1040.8,1591.5c-0.1,0.1-0.1,0.2-0.2,0.3
				c3.3-7.9,6.5-15.8,10-23.6c-0.5,2.6-1,5.2-1.6,7.8C1046.2,1581.1,1043.4,1586.2,1040.8,1591.5L1040.8,1591.5z M420.7,1376.5
				c5.2-12.9,10.3-25.8,15.4-38.7c0.5,0.2,1.1,0,1.4-0.7c5.2-10.9,9.7-22.3,13.8-34c0.3-0.6,0.5-1.2,0.8-1.7
				c-1.7,4.7-3.4,9.3-5.1,14c-4.8,13.4-9.3,27-14.7,40.1c-3.4,8.3-7.1,16.7-11.7,24.2C420.7,1378.7,420.7,1377.6,420.7,1376.5
				L420.7,1376.5z M452.5,351.5C452.5,351.5,452.6,351.5,452.5,351.5c0.4,0,0.8,0.1,1.2,0.3c0.3,0.2,0.6,0.4,0.9,0.6
				c-3.1,5.3-6.1,10.7-9,16.2c0.8-2.5,1.5-5.1,2-7.8c0-0.3,0.1-0.5,0.1-0.8C449.1,357.1,450.6,354.1,452.5,351.5L452.5,351.5z
				 M458.6,479.3c-16.9,48.1-38.2,94.6-47.1,146.4c-0.4,2.5-1.8,3.6-3.3,3.8c1.8-6.4,3.3-13,4.7-19.3c2.2-9.8,4.6-19.5,7-29.1
				c0.9-3.3,1.8-6.7,2.7-10c0.1-0.3,0.2-0.7,0.3-1c5-13.7,9.4-27.8,13.7-41.9c4.4-14.6,8.7-29.3,13.1-43.9c0.5-1.4,1-2.8,1.5-4.2
				c0.3-0.9,0.6-1.8,0.9-2.6c0.5,0.9,2,1,2.4-0.4c0.5-1.8,1-3.6,1.5-5.4C458.1,472.7,459.8,475.9,458.6,479.3L458.6,479.3z
				 M930,360.7c0.1,0.5,0.1,1,0.2,1.5c-3.6,6.1-6.5,12.8-9.2,19.6c-0.8,2.2-1.7,4.4-2.5,6.6c0.8-4.5,1.5-9.1,1.9-13.8
				c0.4-1.8,0.8-3.6,1.2-5.5C924,365.8,926.8,362.9,930,360.7L930,360.7z M1045.5,536.3c-0.9,1.6-1.9,3.2-2.8,4.8
				c0.9-3.4,1.9-6.9,2.8-10.3C1046.4,532.2,1046.7,534.2,1045.5,536.3z M398.2,860.5c0.5-1.5,1-3.1,1.5-4.6
				c-0.5,3.1-0.9,6.2-1.3,9.2c-0.3,0.5-0.6,1-1,1.5C397.6,864.6,397.9,862.5,398.2,860.5L398.2,860.5z M701.2,430
				c-0.3,0.8-0.7,1.6-1,2.4c-3.1,6.9-6.8,13.5-11.3,19.2c-0.9-0.7-1.7-1.9-2-3.2c0.2-1.2,0.5-2.4,0.8-3.6c2.4-5.6,4.9-11,7.4-16.4
				c4.1-8.9,8.3-17.6,11.4-27.1c3.7-11.1,7-22.5,10.4-33.8c1.3-2.2,2.6-4.4,3.9-6.6c-0.6,2.8-1.2,5.6-1.8,8.4
				c-2.5,11.1-5,22.4-8.2,33.4C707.5,411.8,704.4,420.9,701.2,430L701.2,430z M706.5,392.9c-0.3,0.9-0.5,1.7-0.8,2.6
				c-1.6,5-3.3,9.9-5.3,14.7c-1.8,4.3-3.7,8.4-5.6,12.6c0.8-2.1,1.6-4.2,2.5-6.3C700.3,408.6,703.5,400.8,706.5,392.9z M722.1,350.1
				c1.1-3.5,2.2-6.9,3.3-10.4c-0.6,2.4-1.1,4.8-1.6,7.2C723.2,348,722.7,349.1,722.1,350.1L722.1,350.1z M1019.9,338.6
				c0.3-0.4,0.7-0.9,1.1-1.3c0.1-0.1,0.2-0.2,0.3-0.3c0.1,0,0.2-0.1,0.2-0.1c0.1,2.7,0.2,5.4,0.2,8.1c-1.3,2.9-2.6,5.9-3.9,8.8
				c0-1.4-0.1-2.8-0.2-4.2c0-0.5-0.3-1-0.7-1.3c0.6-2.1,1.1-4.1,1.7-6.2C1019,341,1019.5,339.8,1019.9,338.6L1019.9,338.6z
				 M1035,536.2c-0.7,2-1.3,4-2,6c0.2-1.2,0.4-2.4,0.5-3.5C1034.1,537.8,1034.6,537,1035,536.2L1035,536.2z M1042.9,528.9
				c-1.7,7-3.6,13.9-5.5,20.8c0,0.2-0.1,0.3-0.1,0.5c-0.9,1.5-1.7,3-2.6,4.5c2.4-8.5,4.6-17.2,6.4-25.9
				C1041.7,528.6,1042.3,528.7,1042.9,528.9L1042.9,528.9z M1013.2,669.9c2.4-5.3,4.8-10.6,7.2-15.9c-1.5,4.2-3.1,8.3-4.8,12.4
				c-8,20.3-16.5,40.3-24.9,60.3c-2.8,6.6-5.5,13.3-8.3,19.9c0.7-2.7,1.5-5.5,2.3-8.2c7.3-17.1,14.2-34.5,20.8-52
				c0-0.1,0.1-0.2,0.1-0.2C1008.1,680.7,1010.7,675.3,1013.2,669.9L1013.2,669.9z M1070.9,1065.8c-2.6,7.1-5.2,14.2-7.8,21.4
				c2.8-9,5.1-18.2,6.8-27.6C1071.2,1061.1,1071.8,1063.4,1070.9,1065.8L1070.9,1065.8z M747.8,1632.6c-0.8,1.7-1.6,3.2-2.6,4.8
				c1.9-9.9,3.7-19.7,5.3-29.7c1.1-2.7,2.1-5.3,3.2-8c0,0.2,0,0.5,0,0.7c-0.1,6.9-0.6,13.7-2,20.2
				C750.4,1624.6,749.1,1628.6,747.8,1632.6L747.8,1632.6z M600.5,1543.5c7.2-17.7,14.4-35.4,21.5-53.2c-0.9,3.1-1.8,6.2-2.7,9.3
				c-4,11.3-8.3,22.4-12.8,33.4c-2.1,5-4.1,10-6.1,15.1C599.9,1546.8,599.8,1545.2,600.5,1543.5L600.5,1543.5z M464.4,643
				c4.9-14.1,9.5-28.4,14-42.7c3.3-10,6.7-20,10.1-30c-2.3,7.9-4.5,15.9-6.8,23.8c-11.6,33.8-22.6,67.8-33,102.2
				c3.2-11.6,6.4-23.1,9.6-34.7C460.4,655.5,462.4,649.3,464.4,643L464.4,643z M490,565c-0.1-0.3-0.2-0.6-0.4-0.8
				c0.7-2,1.4-4,2.1-6.1c0.3-1,0.7-1.9,1-2.9C491.8,558.5,490.9,561.7,490,565z M803.4,388.2c-3.3,8.3-6.5,16.7-9.8,25
				c1.3-5.1,2.6-10.1,3.9-15.2c2.6-5.2,5.2-10.4,7.8-15.5C804.6,384.4,804,386.3,803.4,388.2L803.4,388.2z M1019.2,357.2
				c-0.5,1.8-0.9,3.5-1.4,5.3c0,0.1,0,0.1,0,0.2c0-0.8,0-1.5,0.1-2.3C1018.3,359.4,1018.7,358.3,1019.2,357.2L1019.2,357.2z
				 M969.4,766.4c-1.5,3.7-2.7,7.6-3.3,11.6c-1.3-1.1-2-3-1.2-5.3c0-0.2,0.1-0.3,0.2-0.5C966.5,770.4,967.9,768.4,969.4,766.4
				L969.4,766.4z M603.8,1551.5c-0.5-0.1-1.1-0.4-1.6-0.8c1.4-3.5,2.7-6.9,4.1-10.4c1-2.5,2.1-5.1,3.1-7.6c-0.9,3.1-1.8,6.1-2.8,9.1
				C605.8,1545.1,604.8,1548.3,603.8,1551.5L603.8,1551.5z M620.7,1504.1c4.7-13.3,8.9-26.9,13.3-40.3c2.3-6.9,4.5-13.9,6.8-20.9
				c5.9-15.1,11.8-30.3,17.7-45.4c-3.9,14.3-8,28.4-12.2,42.6c-1.2,3.9-2.4,7.9-3.5,11.8c-2.2,5.5-4.3,11.1-6.5,16.6
				c-2.6,6.5-5.1,13-7.7,19.5c-0.4,0.4-0.6,1-0.5,1.7c0.2,1.2,1.2,2.6,2.1,3.6c-0.1,0.3-0.2,0.6-0.3,0.8
				c-7.3,18.3-14.6,36.5-22.1,54.7c-0.3,0.7-0.6,1.2-1,1.7C611.6,1535.1,616.2,1519.6,620.7,1504.1L620.7,1504.1z M588,617.4
				c0,0.1,0,0.1-0.1,0.2c0.2-1.8,0.2-3.7,0.3-5.5c6.5-19.2,13.2-38.3,20.1-57.3c-3.9,12-7.7,24-11.5,36.1
				C593.9,599.7,590.9,608.5,588,617.4L588,617.4z M562.8,699.1c-6.3,17.8-12.6,35.6-18.8,53.5c-0.6,1.2-1.1,2.4-1.7,3.6
				c2-6.6,4.1-13.2,6.1-19.8c5.6-16,11.2-31.9,16.9-47.8c0.8-1.9,1.6-3.9,2.4-5.8c-0.5,1.5-0.9,3.1-1.4,4.6
				C565.1,691.3,563.9,695.2,562.8,699.1L562.8,699.1z M906.5,417.5c-3.1,9.9-6.5,19.6-10,29.3c-1.9,4.7-3.8,9.5-5.7,14.2
				c0.8-4.3,1.5-8.6,2.1-12.9c2.1-6.8,4.2-13.6,6.4-20.4c3.5-10.9,7.1-21.7,10.6-32.7C908.8,402.5,907.7,410,906.5,417.5
				L906.5,417.5z M944.2,556.1c0.1-0.8,0.1-0.6,0.2-1.4c0.2-1.5,0.4-2.9,0.6-4.4c1.2-2.5,2.4-5,3.5-7.6c0.7-1.2,1.3-2.4,2-3.6
				c0,0.9,0,1.8,0,2.7c-1.9,5.4-3.7,10.9-5.5,16.4c-0.3,0.6-0.7,1.3-1.1,1.9c0-0.8,0.1-1.6,0.1-2.4
				C944.1,557.2,944.1,556.7,944.2,556.1L944.2,556.1z M1018.3,371c1-3.7,1.9-7.4,2.9-11c-0.1,1.3-0.2,2.6-0.3,3.9
				c-0.1,1-0.2,2-0.2,3.1c-1.6,5.5-3.2,11-4.8,16.4c0.3-2,0.5-4.1,0.8-6.1C1017.2,375.2,1017.7,373.1,1018.3,371L1018.3,371z
				 M1065.1,572.8c-0.5,1-0.9,1.9-1.4,2.8c1.2-6.3,2.8-12.6,4.6-18.6c0.8-2.8,1.7-5.6,2.6-8.4c-1,4.7-2,9.4-3.2,14.1
				C1066.9,566,1066,569.4,1065.1,572.8L1065.1,572.8z M927.3,1441.7c1.7-4.9,3.4-9.8,5.1-14.7c6.5-14.9,13-30,19.4-45
				c-3.2,10-6.6,19.9-10,29.8c-3.9,10.2-7.8,20.3-11.8,30.5c-0.3,0.6-0.6,1.2-0.9,1.8c0.1-0.3,0.2-0.6,0.2-0.9
				C929.8,1441.6,928.1,1440.8,927.3,1441.7L927.3,1441.7z M756.6,1614.1c2.5-7.4,5-14.9,7.5-22.3c-0.3,1.9-0.6,3.8-0.9,5.7
				C761,1603,758.8,1608.5,756.6,1614.1L756.6,1614.1z M779.8,1260.5c0.8-1.3,1.5-2.7,2.3-4c0.6,0.1,1.2-0.2,1.4-1.1
				c0.3-1,0.6-2.1,1-3.1c5.7-9.8,10.9-20.1,16.3-30.3c-5.6,13.8-11.5,27.3-17.7,40.8c-1.1,2.5-2.3,5-3.5,7.6
				c-2.7,5.1-5.3,10.3-8,15.4c2-6.1,3.9-12.1,5.9-18.2C778.3,1265.4,779,1262.9,779.8,1260.5L779.8,1260.5z M575.3,978
				c-1,2.1-2,4.1-2.9,6.2c5.2-13.6,10.1-27.4,14.3-41.5c0.3-1.1-0.5-2-1.3-2c1.9-6.2,3.9-12.3,5.9-18.5c1.4-4.2,2.8-8.3,4.2-12.5
				c0,0.6,0.2,1.1,0.6,1.4c-1.1,2.3-2.1,4.5-3.2,6.8c-0.7,1.5,1,3.3,2,1.9c1-1.5,2-3,3-4.5c-7.1,20.3-14.3,40.7-21.6,60.9
				C575.9,976.8,575.6,977.4,575.3,978L575.3,978z M517.1,803.6c4.8-13.8,9.5-27.7,14.3-41.5c-3.5,10.5-6.9,20.9-10.3,31.4
				c-1.2,3.1-2.4,6.3-3.7,9.4C517.4,803.2,517.3,803.4,517.1,803.6L517.1,803.6z M542.6,736.9c2.2-6.2,4.3-12.4,6.4-18.6
				c-2,6.4-4,12.8-5.9,19.2c-1.9,4.9-3.8,9.9-5.8,14.8C539,747.2,540.8,742.1,542.6,736.9L542.6,736.9z M568.2,673
				c5.4-17.1,11-34.1,16.7-51c-0.4,2.8-0.9,5.5-1.5,8.2C578.3,644.4,573.2,658.7,568.2,673L568.2,673z M584.2,615.1
				c-1.3,3.8-2.5,7.5-3.8,11.3c1.2-3.7,2.4-7.4,3.6-11.2C584.1,615.2,584.2,615.1,584.2,615.1L584.2,615.1z M750.6,506.9
				c-4.2,9.8-8.5,19.6-12.7,29.4c0.4-2.6,0.8-5.1,1.1-7.7c2.2-5.7,4.5-11.4,6.7-17.1c1.6-3.9,3.3-7.7,4.9-11.6
				C750.7,502.2,750.7,504.6,750.6,506.9L750.6,506.9z M953.6,531.5c0.8-1.7,1.5-3.5,2.3-5.2c-0.8,2.5-1.7,4.9-2.5,7.4
				C953.4,533,953.5,532.3,953.6,531.5L953.6,531.5z M1060,583.2c-0.6,1.2-1.1,2.3-1.7,3.5c-1.1,1.6-2.2,3.1-3.3,4.5
				c-0.3,0.4-0.7,0.8-1,1.2c1.4-4,2.8-8,4.2-12c0.6-1.7-1.5-2.6-2.3-1.2c1.4-5.2,2.8-10.5,4.1-15.7c0.3-0.9,0.6-1.8,0.9-2.7
				c3-6.2,6.1-12.3,9.1-18.4c-3.3,10-6.5,20.2-8.6,30.7C1060.9,576.5,1060.4,579.8,1060,583.2L1060,583.2z M960.2,1355.7
				c-5.5,12.8-11,25.7-16.5,38.6c0.3-0.8,0.6-1.6,0.8-2.4c9-23.8,18.1-47.6,26.6-71.7C967.5,1332,963.9,1343.9,960.2,1355.7
				L960.2,1355.7z M995,956c-1.6,2.6-3.2,5.1-5,7.5c2.1-3.7,4.2-7.4,6.3-11.1c0.7-1.3-0.7-3-1.7-2.2c-1.3,1.1-2.5,2.2-3.7,3.4
				c3.8-9.3,7.3-18.8,10.3-28.6c1.4-1.5,2.8-3.2,4.1-4.9c2-2.6,3.9-5.4,5.8-8.2c-1.9,6.4-3.8,12.9-5.6,19.4
				C1002,939.6,998.5,947.8,995,956L995,956z M1043.8,611.8c-0.3,0.6-0.5,1.3-0.8,1.9c0.1-0.5,0.3-1.1,0.4-1.6c0.6-2,1.2-4,1.8-6
				c0.2-0.1,0.3-0.3,0.5-0.4C1045.1,607.7,1044.4,609.7,1043.8,611.8L1043.8,611.8z M987.8,961.4c0.4-0.5,0.8-1,1.2-1.5
				c-0.8,1.5-1.7,3-2.5,4.5C986.9,963.4,987.3,962.4,987.8,961.4L987.8,961.4z M984.1,961.5c0.2-1.2,0.3-2.4,0.5-3.6
				c4-9.6,8.1-19.2,12.2-28.7c0.1-0.1,0.3-0.2,0.4-0.3c0,0,0.1-0.1,0.1-0.1c-3.4,10.5-7.5,20.8-11.7,30.9
				C985.1,960.2,984.6,960.9,984.1,961.5L984.1,961.5z M1008.8,907c-1.4,1.5-2.8,3-4.3,4.4c2.2-5.2,4.4-10.3,6.6-15.4
				c1.3-3,3.8-3.2,5.6-1.8c-0.6,1.9-1.2,3.7-1.8,5.6C1012.9,902.3,1010.9,904.7,1008.8,907z M909.4,1153.7
				c2.4-6.8,4.9-13.6,7.3-20.4c-1.6,5-3.3,10-4.9,14.9c-1.8,5.3-3.5,10.6-5.2,15.8C907.5,1160.7,908.5,1157.2,909.4,1153.7
				L909.4,1153.7z M928.3,1092.3c0.8-1.8,1.7-3.7,2.5-5.5c-1,2.7-2,5.5-3.1,8.2c-2.8,7.5-5.5,15-8.2,22.4c1.4-4.9,2.7-9.8,4.1-14.6
				C925.1,1099.3,926.7,1095.8,928.3,1092.3L928.3,1092.3z M915.8,1121c-2.5,9.1-5,18.3-7.5,27.4c-8.8,24.6-17.5,49.2-26.3,73.7
				c-1.6,3.7-3.2,7.3-4.8,11c2.4-7.5,4.7-15.1,7.1-22.6c5.9-18.9,11.7-37.8,17.6-56.8C906.5,1142.8,911.1,1131.9,915.8,1121z
				 M871,1225.2c3.2-7.3,6.3-14.5,9.5-21.8c3.7-8.6,7.4-17.2,11.1-25.9c-8.1,26.1-16.2,52.2-24.4,78.3
				c-5.6,12.6-11.2,25.3-16.8,37.8c-0.5,1-1.1,1.7-1.8,2.2c0-0.9-0.1-1.8-0.4-2.4c-0.5-1-1.9-1.5-2.8-1.9
				C853.6,1269.2,862.1,1247.1,871,1225.2L871,1225.2z M1003.7,915.8c1.3-1,2.5-2.1,3.7-3.3c-0.5,0.7-0.9,1.3-1.3,2
				c-1,1.4-2,2.7-3,4.1C1003.3,917.6,1003.5,916.7,1003.7,915.8L1003.7,915.8z M1028.2,804.7c5.5,0,5.5,10.5,0,10.5
				C1022.8,815.3,1022.8,804.7,1028.2,804.7z M844.4,1294.4c0.5,0.2,1,0.5,1.6,0.8c0,0.3,0,0.6,0.1,0.9c-0.7-0.2-1.3-0.6-1.8-1.1
				C844.2,1294.7,844.3,1294.6,844.4,1294.4z M802,1472.4c4.1-11.4,8.1-22.9,11.9-34.4c3.9-10.4,7.8-20.7,11.7-31.2
				c-5,15-9.7,30.2-15.1,44.9c-2.9,7.8-5.9,15.7-9.3,23.3C801.4,1474.2,801.7,1473.3,802,1472.4L802,1472.4z M950.4,1043.3
				c4.8-10.6,9.8-21.1,14.8-31.5c-2.5,6.9-4.9,13.8-7.4,20.7c-8.6,24.1-17.3,48.1-25.8,72.3C937.9,1084.3,944.1,1063.7,950.4,1043.3
				z M963.3,1009.7C963.3,1009.7,963.3,1009.7,963.3,1009.7c2.1-5.2,4.1-10.4,6.1-15.6c1.9-4.5,3.8-9,5.7-13.6
				c1.8-3.3,3.7-6.5,5.7-9.6c0,0,0,0.1,0,0.2c-0.2,0.6-0.5,1.2-0.8,1.8c-2.2,5.1-4.2,10.3-6.2,15.6
				C970.2,995.5,966.7,1002.6,963.3,1009.7L963.3,1009.7z M1048.6,606.9c0.9-2.2,1.7-4.4,2.6-6.7c0.4-0.5,0.8-0.9,1.3-1.4
				C1051.2,601.5,1049.9,604.2,1048.6,606.9L1048.6,606.9z M1046.8,600.7c0-0.2,0.1-0.3,0.1-0.5c0.2-0.6,0.3-1.1,0.5-1.7
				c0.4-1.1,0.9-2.2,1.3-3.2c-0.5,1.6-1,3.2-1.4,4.8C1047.1,600.3,1047,600.5,1046.8,600.7L1046.8,600.7z M798.6,1486.1
				c-3.9,10.8-7.8,21.6-11.6,32.4c2.9-9.1,5.8-18.2,8.8-27.2C796.8,1489.6,797.7,1487.9,798.6,1486.1L798.6,1486.1z M955.4,1046.7
				c6.7-18.8,13.1-37.8,20.3-56.3c2.7-5.2,5.3-10.4,8.1-15.5c2.1-1.8,4-4,5.8-6.2c-2.6,6.2-5.2,12.4-7.9,18.6
				c-11.2,26.6-22.4,53.1-33.6,79.7C950.6,1060.2,953,1053.5,955.4,1046.7L955.4,1046.7z M1016.5,902.9c0.6-1,1.2-2.1,1.7-3.1
				c0,0.6-0.1,1.2-0.1,1.8c-1.5,3.4-2.9,6.8-4.3,10.2C1014.7,908.9,1015.6,905.9,1016.5,902.9L1016.5,902.9z M1038.1,621.2
				c-1.4,4.7-2.8,9.4-4.2,14c-0.1,0.2-0.2,0.5-0.3,0.7c-0.5,0.4-0.9,0.8-1.4,1.2C1034,631.8,1036,626.5,1038.1,621.2L1038.1,621.2z
				 M727.1,578.6c-2.6,7.1-5.1,14.2-7.7,21.3c-3.9,10.7-7.9,21.4-12,32c5.8-19.2,11.5-38.4,17.2-57.6c1.8-4.2,3.5-8.3,5.3-12.5
				c0.5-1.2,1-2.4,1.5-3.5c-0.7,3.4-1.4,6.9-2.1,10.3C728.6,571.8,727.8,575.2,727.1,578.6L727.1,578.6z M567.3,989.9
				c-2.8,7-5.7,13.9-8.6,20.7c2.3-7.2,4.6-14.5,7-21.6c3-9.2,6.3-18.4,10.3-27.1C573.1,971.3,570.3,980.6,567.3,989.9z M613.8,876.7
				c3.2-8,6.3-16,9.2-24c0.8-1.5,1.6-3,2.4-4.5c-3.8,9.8-7.5,19.7-11.2,29.5c-0.7,1.3-1.3,2.5-2,3.8
				C612.7,879.9,613.2,878.3,613.8,876.7z M652.1,754.8c-0.1,0.2-0.2,0.5-0.4,0.7c0.3-0.9,0.7-1.8,1-2.7
				C652.5,753.4,652.3,754.1,652.1,754.8L652.1,754.8z M645.2,774.1c-0.2,0.4-0.3,0.8-0.5,1.2c0.1-0.3,0.2-0.6,0.3-0.9
				C645.1,774.3,645.1,774.2,645.2,774.1z M645.9,786c0.5-1.6,0.9-3.2,1.4-4.9c4.3-11.1,8.5-22.2,12.8-33.4
				c1.7-3.9,3.4-7.8,5.1-11.7c0.5-0.8,1-1.6,1.5-2.4c-0.6,2.2-1.3,4.3-1.9,6.5c-1.9,6.3-3.8,12.7-5.6,19c-4.1,9.3-8.4,18.5-13.3,27
				C645.9,786.1,645.9,786.1,645.9,786L645.9,786z M672.8,722.7c1.2-2.4,2.3-4.8,3.4-7.3c-1.9,4.9-3.8,9.8-5.6,14.7
				C671.3,727.7,672,725.2,672.8,722.7L672.8,722.7z M642.7,796.3c0.3-0.4,0.6-0.9,0.9-1.3c-0.5,1-1,2-1.4,3.1
				C642.3,797.5,642.5,796.9,642.7,796.3L642.7,796.3z M661,737.3c6.5-19.1,13-38.1,19.5-57.1c1.5-3.6,3-7.2,4.4-10.8
				c1.9-4.5,3.7-9.1,5.6-13.6c-9.6,27.2-19.4,54.3-29.4,81.3C661.1,737.1,661,737.2,661,737.3L661,737.3z M630.6,813.5
				c1-1.9,2-3.8,2.9-5.8c0.2-0.1,0.3-0.2,0.5-0.3c0.2-0.2,0.3-0.4,0.5-0.6c-2.5,6.3-4.9,12.7-7.4,19c-0.8,1.2-1.6,2.2-2.4,3.2
				C626.7,823.9,628.6,818.7,630.6,813.5z M624.1,833.6c-0.2,0.5-0.4,1-0.6,1.5c-1.1,1.9-2.2,3.7-3.3,5.5c0.7-1.9,1.5-3.8,2.2-5.7
				C623,834.6,623.6,834.1,624.1,833.6L624.1,833.6z M611.7,865.9c-1.1,2.3-2.2,4.6-3.3,6.9c2.5-7,5-14,7.6-21
				c0.8-1,1.6-2.1,2.4-3.1C616.1,854.4,613.9,860.1,611.7,865.9L611.7,865.9z M634.8,823.6c-1.2,1.9-2.3,3.8-3.5,5.8
				c0.9-2.5,1.7-5,2.5-7.5c2.8-5.8,5.5-11.5,8.1-17.2C639.6,811,637.2,817.3,634.8,823.6z M697.3,656.1c-2.7,6.2-5.3,12.4-8,18.6
				c-2,4.6-4.1,9.2-6.1,13.8c4.2-13.6,8.5-27.2,12.9-40.7c4.1-11.6,8.1-23.2,12.2-34.8c2.4-5.7,4.8-11.5,7.2-17.2
				c-3.5,11.8-7,23.6-10.6,35.3C702.4,639.5,699.9,647.8,697.3,656.1L697.3,656.1z M722.2,573.1c0.1-0.2,0.2-0.4,0.2-0.7
				c0,0.1-0.1,0.3-0.1,0.4C722.3,572.9,722.2,573,722.2,573.1L722.2,573.1z M554.9,1009.5c2.1-5.6,4.2-11.2,6.3-16.8
				c-2.8,8.2-5.6,16.3-8.4,24.5c0.2-0.9,0.5-1.8,0.7-2.7C554.1,1012.8,554.5,1011.2,554.9,1009.5L554.9,1009.5z M544.3,1037.9
				c1.7-2.6,3.1-5.4,4.4-8.4c-1.1,3.3-2.2,6.5-3.4,9.8c-0.1,0.1-0.2,0.1-0.2,0.2c-0.9,1-1.7,2-2.5,3.1
				C543.1,1041,543.7,1039.4,544.3,1037.9L544.3,1037.9z M612.2,873.4c-0.2,0.5-0.3,1-0.5,1.5c-2.2,5.6-4.5,11.1-6.9,16.6
				c1.8-4.7,3.5-9.4,5.3-14.1C610.8,876,611.5,874.7,612.2,873.4L612.2,873.4z M731.5,551.4c1-3.4,2-6.8,3.1-10.2
				c-0.3,1.7-0.6,3.4-0.9,5C732.9,547.9,732.2,549.6,731.5,551.4L731.5,551.4z M537.5,1056c1.5-2.9,3.1-5.7,4.9-8.3
				c-0.1,0.4-0.3,0.8-0.4,1.2c-4.6,10.5-9.2,21-13.7,31.6C531.4,1072.3,534.4,1064.1,537.5,1056z M580.5,947.5
				c-0.3,0.5-0.6,1-0.9,1.5c0.8-2.2,1.6-4.4,2.5-6.6C581.5,944.1,581,945.8,580.5,947.5L580.5,947.5z M597.8,902.8
				c-0.2,0.7-0.5,1.3-0.7,1.9c0.1-0.4,0.3-0.8,0.4-1.3C597.6,903.2,597.7,903,597.8,902.8z M699.4,1307.8
				c4.2-9.6,8.5-19.2,12.8-28.8c1-2.2,2.1-4.4,3.1-6.7c-5.8,15.5-11.6,31-17.4,46.4c-1.3,1-2.5,2.2-3.7,3.4
				C695.9,1317.4,697.6,1312.6,699.4,1307.8L699.4,1307.8z M851,546.8c-0.3,0.3-0.6,0.5-0.8,0.8c0.5-1.9,1.1-3.7,1.7-5.5
				c0.1,0,0.2-0.1,0.3-0.2c0.5-0.3,0.9-0.7,1.4-1c-0.3,0.8-0.7,1.6-1.1,2.5C852,544.5,851.5,545.7,851,546.8L851,546.8z
				 M711.8,1273.3c8.3-23.2,16.6-46.4,24.8-69.6c0.4,0,0.7-0.2,1-0.8c0.9-1.6,1.8-3.2,2.6-4.8c0.4-0.4,0.8-0.8,1.1-1.2
				c-7.4,21.9-15.3,43.5-24.3,64.5C715.3,1265.5,713.6,1269.4,711.8,1273.3L711.8,1273.3z M899.2,759.5c-0.3,0.6-0.6,1.3-0.8,1.9
				c1.5-4.1,2.9-8.2,4.3-12.3c1-2.8,1.9-5.6,2.8-8.4c1.8-4.7,3.5-9.3,5.2-14c1.5-2.8,3-5.5,4.6-8.3c-2.4,6.7-4.9,13.5-7.3,20.2
				C905.2,745.6,902.3,752.5,899.2,759.5L899.2,759.5z M649.3,1102.7c0.8-1.1,1.6-2.2,2.4-3.3c-4,11-7.9,22-11.8,33.1
				C642.9,1122.5,646,1112.6,649.3,1102.7z M653.4,1069c5-13.8,10-27.5,15-41.3c-3.2,11-6.3,22-9.2,33.1c-0.1,0.3,0,0.7,0.1,1.1
				c-4.1,13.2-8.2,26.4-12.4,39.5c-1.2,1.7-2.4,3.4-3.6,5.1C646.6,1094.1,650,1081.5,653.4,1069L653.4,1069z M638.7,1113.3
				c-0.9,1.4-1.9,2.9-2.8,4.4c2.2-6,4.3-12,6.5-18.1c0.1-0.3,0.2-0.6,0.3-0.9C641.4,1103.6,640,1108.4,638.7,1113.3L638.7,1113.3z
				 M824.1,624c0.5-1.4,1-2.8,1.5-4.2c0.4-1.2,0.9-2.4,1.3-3.5c-0.5,2.4-1.1,4.8-1.6,7.2C824.9,623.7,824.5,623.9,824.1,624
				C824.1,624.1,824.1,624.1,824.1,624L824.1,624z M824,627.5c0.1-0.1,0.3-0.1,0.4-0.2c-0.1,0.4-0.2,0.9-0.3,1.3
				c0,0.1-0.1,0.3-0.1,0.4C824.1,628.5,824,628,824,627.5L824,627.5z M758.4,808.8c3.1-10,6.3-20,9.5-30c-1.1,3.8-2.1,7.7-3.2,11.5
				c-1.4,4.1-2.7,8.2-4.1,12.4C759.9,804.7,759.1,806.7,758.4,808.8L758.4,808.8z M794.8,708.5c0.5-0.7,1-1.4,1.5-2.1
				c-2.9,7.7-5.7,15.4-8.6,23.1C790.1,722.5,792.4,715.5,794.8,708.5L794.8,708.5z M755.6,809c-3.8,12.3-7.4,24.6-11,36.9
				c-4.4,11.9-8.8,23.8-13.2,35.7c-4.9,13.2-9.8,26.4-14.7,39.6c-0.4,0.6-0.7,1.2-1,1.8c19.5-60.2,39.4-120.2,58.7-180.4
				c1.5-4.6,2.9-9.2,4.4-13.8c1.1-2.9,2.2-5.8,3.2-8.7c0.3-0.7,0.7-1.4,1.1-2.1c0.9-0.3,1.8-0.8,2.6-1.2
				C775.6,747.5,765.1,778,755.6,809L755.6,809z M692.4,967.4c0.4-0.4,0.8-0.8,1.2-1.3c-0.2,0.7-0.4,1.4-0.7,2.1
				c-5.9,18.1-12.1,36-18.4,53.9C680.5,1003.9,686.4,985.7,692.4,967.4L692.4,967.4z M694.8,960.2c1.5-4.6,3-9.2,4.5-13.8
				c3.3-10.1,6.6-20.1,9.9-30.2c0.8-2.3,1.7-4.5,2.5-6.8c-5.2,16.3-10.4,32.7-15.6,48.9C695.8,958.9,695.3,959.6,694.8,960.2
				L694.8,960.2z M742.3,827.1c4.6-12.3,9.2-24.7,13.7-37c-14.2,44-28.4,88-42.6,132c5-16.5,10-33,15-49.4
				C733.1,857.5,737.7,842.3,742.3,827.1L742.3,827.1z M716.2,904.2c-4.2,13.9-8.4,27.8-12.5,41.7c-0.6,1-1.2,2.1-1.8,3.2
				C706.7,934.2,711.5,919.2,716.2,904.2L716.2,904.2z M785.3,713.5c1.5-3,3-6.1,4.4-9.2c-0.9,2.7-1.7,5.3-2.6,8
				C786.6,712.7,786,713.1,785.3,713.5L785.3,713.5z M643.9,1110.6c-4.7,14.8-9.5,29.7-14.3,44.5c3.8-13.2,7.6-26.5,11.3-39.8
				C641.8,1113.7,642.8,1112.2,643.9,1110.6L643.9,1110.6z M691.1,982.3c2.4-7.2,4.8-14.5,7.1-21.7c0.6-0.9,1.3-1.8,1.9-2.8
				c-4.1,13.8-8.2,27.7-12.2,41.6c-6.5,17.8-13,35.5-19.4,53.3c-1,1.2-2,2.3-3.1,3.3C674.1,1031.5,682.9,1007,691.1,982.3
				L691.1,982.3z M916.7,710.5c0,0,0,0.1-0.1,0.1c2.3-5.5,4.7-10.9,7.4-16.1c-1,2.8-2.1,5.6-3.1,8.5
				C919.5,705.5,918.1,708,916.7,710.5L916.7,710.5z M914.3,709.4c-2.3,5.6-4.3,11.2-6.3,16.8c-2.5,4.6-5.1,9.2-7.7,13.9
				c0.7-2.7,1.3-5.5,1.9-8.3c0-0.2,0-0.4,0-0.5c0.4-0.8,0.8-1.6,1.2-2.4c4.7-9.7,9.2-19.5,14.2-28.9
				C916.5,703.1,915.4,706.3,914.3,709.4L914.3,709.4z M937.4,657.2c-1.9,3.7-4,7.2-6.3,10.4c2.1-6.5,4.2-13.1,6.4-19.7
				c0.8,0.9,1.3,2.1,1.5,3.5C938.5,653.4,938,655.3,937.4,657.2L937.4,657.2z M931.3,649.1c0.9-2.4,2.5-3,4-2.6
				c-2.4,7.5-4.8,15-7.2,22.5c-0.4,1.2-0.8,2.5-1.2,3.7c-0.9,0.7-1.9,1.1-2.8,0.9c-0.5-0.1-0.9-0.3-1.3-0.6
				C925.5,665,928.4,657,931.3,649.1L931.3,649.1z M806.9,995.4c4.9-13.6,9.7-27.1,14.6-40.7c-0.6,2.1-1.2,4.2-1.8,6.2
				c-0.7,2-1.4,3.9-2.1,5.9c-3.3,9.1-6.6,18.3-9.8,27.4C807.4,994.6,807.2,995,806.9,995.4L806.9,995.4z M921.9,686.8
				c-4.9,8.2-9.3,16.8-13.6,25.5c4.4-12.2,8.8-24.4,13.3-36.6c1.1,0.8,2.4,1.1,3.9,0.8c-1.1,3.2-2.1,6.5-3.2,9.7
				C922.2,686.4,922,686.6,921.9,686.8L921.9,686.8z M928.9,674.7c0.2-0.1,0.3-0.2,0.5-0.4c-0.3,0.4-0.5,0.9-0.8,1.3
				C928.6,675.3,928.7,675,928.9,674.7L928.9,674.7z M804.1,1003.5c0.2-0.2,0.4-0.4,0.5-0.7c-0.7,1.9-1.3,3.8-2,5.7
				c-0.3,0.9-0.6,1.8-1,2.7C802.4,1008.7,803.3,1006.1,804.1,1003.5L804.1,1003.5z M773.2,1106.1c3-6,6-12,9.1-17.9
				c-4.1,12.2-8.4,24.4-12.7,36.6c-2.2,6.1-4.4,12.1-6.6,18.2c-1.8,4.6-3.7,9.1-5.6,13.6c4.8-15.5,9.4-31,14-46.5
				C771.9,1108.8,772.5,1107.4,773.2,1106.1L773.2,1106.1z M776.1,1094.1c0.3-0.8,0.7-1.6,1-2.5c9-23,17.3-46.5,25.3-70
				c-4.9,17.2-9.9,34.4-15.2,51.5C783.4,1080,779.7,1087,776.1,1094.1L776.1,1094.1z M883.4,788.8c4.8-12.4,9.8-24.8,13.8-37.6
				c0.5-0.8,0.9-1.6,1.4-2.4c1.4-2.4,2.7-4.8,4-7.2c-7.8,20.7-16,41.2-24.6,61.4C879.7,798.2,881.5,793.5,883.4,788.8L883.4,788.8z
				 M924.6,687.6c1.7-2.9,3.4-5.8,5.1-8.6c-0.1,0.4-0.3,0.8-0.4,1.2c-1.7,2.5-3.2,5-4.8,7.7C924.5,687.8,924.5,687.7,924.6,687.6z
				 M794.6,1033.8c-0.1,0.2-0.2,0.5-0.3,0.8c0.1-0.2,0.1-0.4,0.2-0.6C794.6,1033.9,794.6,1033.9,794.6,1033.8z M752.1,1152.4
				c-0.2,0.7-0.5,1.3-0.7,2c0,0-0.1,0-0.2,0.1C751.5,1153.8,751.8,1153.1,752.1,1152.4L752.1,1152.4z M753,1157.7
				c2.6-7.2,5.2-14.5,7.7-21.7c-3.9,13-7.9,25.9-12,38.8c-1.4,2-2.7,4.1-4,6.2C747.5,1173.2,750.3,1165.4,753,1157.7L753,1157.7z
				 M964.1,522.8c-0.3,1.1-0.5,2.1-0.8,3.2c-1.6,4.3-3.2,8.6-4.7,12.9c1.5-5,3.1-10.1,4.7-15.1C963.5,523.5,963.8,523.2,964.1,522.8
				L964.1,522.8z M785,1056.2c-1.6,5.1-3.2,10.2-4.8,15.3c-1.5,4.8-3,9.5-4.4,14.3c-1.3,3.8-2.7,7.6-4.1,11.3
				c-3.3,7.9-6.6,15.7-10,23.4C769.5,1099.2,777.3,1077.7,785,1056.2L785,1056.2z M747.6,1165.2c-2.1,5.8-4.1,11.7-6.2,17.5
				c1-4.1,2.1-8.2,3.4-12.2C745.7,1168.6,746.6,1166.9,747.6,1165.2z M861.5,850.1c1.5-4.5,3-9,4.5-13.5c1.7-3.7,3.3-7.4,5-11.1
				c-3.7,9.7-7.4,19.4-11,29.2C860.5,853.1,861,851.6,861.5,850.1L861.5,850.1z M974.3,493.8c-0.1-0.5-0.2-1-0.3-1.5
				c0.9-2.4,1.8-4.9,2.7-7.3C975.9,488,975.1,490.9,974.3,493.8L974.3,493.8z M833.8,597.4c0.2-0.5,0.4-1,0.5-1.5
				c-0.5,2.1-1.1,4.2-1.6,6.3C833,600.6,833.4,599,833.8,597.4z M846.3,550.8c0.1-0.2,0.1-0.4,0.2-0.6c0.2-0.4,0.3-0.8,0.5-1.2
				c-0.2,0.6-0.3,1.2-0.5,1.7C846.4,550.7,846.3,550.8,846.3,550.8L846.3,550.8z M832.3,586.8c-0.2,0.9-0.3,1.9-0.5,2.8
				c-0.1,0.9,0.3,1.7,0.9,1.9c-0.3,1.2-0.6,2.5-0.9,3.7c-0.8,2.2-1.6,4.4-2.4,6.6c-1.4,3.9-2.8,7.8-4.2,11.6
				c0.9-6.2,2.3-12.2,3.9-18C830.1,592.5,831.2,589.7,832.3,586.8L832.3,586.8z M821.6,631.1c0.1,2.2,0.3,4.3,0.7,6.5
				c0,0,0,0.1,0,0.1c-7.1,18.8-14.2,37.5-21.2,56.3c-1,2-2.1,4-3.3,5.9C805.5,676.9,813.4,654,821.6,631.1L821.6,631.1z
				 M619.3,1164.5c3.9-11,7.8-22,11.7-33c1.6-2.9,3.3-5.7,5-8.5c-6.8,24.3-13.8,48.4-21.2,72.3c-5.3,16.9-10.8,33.6-16.6,50.2
				c2.3-11.6,4.5-23.2,6.8-34.8C609.8,1195.3,614.5,1179.8,619.3,1164.5L619.3,1164.5z M654.9,1090.6c-0.9,1.2-1.8,2.3-2.7,3.5
				c3.7-11,7.5-22,11.4-33c0.9-0.7,1.8-1.4,2.7-2.2C662.5,1069.5,658.7,1080.1,654.9,1090.6z M737.5,1188.4
				c-0.6,2.9-1.1,5.8-1.5,8.7c-0.5,1-1,2.1-1.5,3.2c-0.9,0.9-1.7,1.9-2.6,2.8C733.7,1198.2,735.6,1193.3,737.5,1188.4L737.5,1188.4z
				 M834.3,935c2.5-4.2,4.8-8.6,7-13c0,0,0,0.1,0,0.1c-4.5,11.5-9,23.1-13.8,34.3C829.7,949.3,832,942.2,834.3,935L834.3,935z
				 M855.9,884.2c-5.7,12.4-11.1,25.3-17.4,37.5c1.1-3.5,2.2-7,3.3-10.5c11-30,22.1-59.8,33.5-89.6c3.4-8.9,6.9-17.7,10.3-26.5
				c2.9-6,5.8-12,8.6-18.1c-8.8,24.6-17.7,49.2-26.5,73.8C863.8,862,859.8,873.1,855.9,884.2L855.9,884.2z M981.5,486.6
				c-0.7,1.6-1.3,3.2-2,4.8c-0.1,0.2-0.2,0.5-0.3,0.7c0,0,0,0,0,0c0.2-0.8,0.4-1.5,0.6-2.3c0.7-1.6,1.5-3.2,2.3-4.7
				C981.9,485.6,981.7,486.1,981.5,486.6L981.5,486.6z M982.7,463.1c-1.3,3.1-2.6,6.2-3.9,9.3c0.2-0.7,0.4-1.4,0.5-2.1
				c1.1-2.7,2.3-5.4,3.6-8C982.9,462.5,982.8,462.8,982.7,463.1L982.7,463.1z M853,557.5c-3.3,6.4-6.8,12.5-10.7,18.2
				c0.2-0.8,0.4-1.5,0.6-2.2c3-7.6,6.1-15.1,9.3-22.6c0.3-0.8,0.7-1.5,1-2.3c2-2,4-4.2,5.9-6.5C857,547.3,855,552.4,853,557.5
				L853,557.5z M822.1,616.2c-0.1-0.9-0.1-1.7-0.1-2.6c0.2-0.7,0.5-1.3,0.7-1.9C822.5,613.2,822.3,614.7,822.1,616.2z M796.5,695.4
				c1.2-3.8,2.5-7.7,3.7-11.5c6.8-21.3,13.1-42.9,19.7-64.3c0.2,2,0.6,3.9,1,5.8C812.6,648.6,804.5,671.9,796.5,695.4L796.5,695.4z
				 M593.3,1257.4c-0.3,1.4-0.6,2.8-0.8,4.2c-3.4,9.4-7,18.7-10.6,27.9c0.3-0.9,0.5-1.8,0.8-2.7c4.9-16.8,9.8-33.7,14.8-50.4
				C596,1243.4,594.6,1250.4,593.3,1257.4L593.3,1257.4z M575.1,1312.6c0.1-0.1,0.2-0.2,0.3-0.3c0-0.1,0.1-0.1,0.1-0.2
				c-0.5,1.3-0.9,2.5-1.3,3.8C574.4,1314.8,574.7,1313.7,575.1,1312.6L575.1,1312.6z M729.6,1210c0.3-0.3,0.6-0.7,0.9-1.1
				c-0.6,1.4-1.2,2.8-1.9,4.2C728.9,1212.1,729.3,1211,729.6,1210L729.6,1210z M725.6,1227.1c-1.3,3.6-2.6,7.2-3.8,10.8
				c0.4-1.4,0.8-2.8,1.1-4.2C723.8,1231.5,724.7,1229.3,725.6,1227.1z M804.5,1194c-0.5-0.1-1,0-1.4,0.7c0,0.1-0.1,0.2-0.1,0.2
				c-0.2-0.1-0.5-0.2-0.7-0.2c5.3-13.9,10.3-27.9,14.9-42.2c2-6.2,10.2-3.5,8.2,2.8c-1.8,5.4-3.6,10.9-5.4,16.2
				C814.7,1178.9,809.5,1186.4,804.5,1194z M804.9,1026.7c5.3-16.6,10.6-33.1,15.9-49.7c2.8-5.5,5.4-11.1,7.9-16.8
				C820.8,982.5,812.8,1004.6,804.9,1026.7L804.9,1026.7z M1000.3,427.2c-2.4,8.6-4.7,17.1-7.2,25.6c-1.7,5.7-3.5,11.3-5.3,16.9
				c-0.3,0.8-0.6,1.6-0.8,2.3c-0.9,1.2-1.8,2.5-2.7,3.9c2.8-8.8,5.5-17.7,7.7-26.8c0.3-1.3-0.8-2.2-1.7-1.9c0.4-1.1,0.7-2.3,1.1-3.4
				c2.9-8.6,6-17.6,10.2-25.5C1001.2,421.2,1000.7,424.2,1000.3,427.2L1000.3,427.2z M987.2,448.3c-0.1,0.2-0.2,0.5-0.2,0.7
				c-0.8,1.4-1.6,2.9-2.4,4.3c1.6-4.5,3.2-9.1,4.7-13.6C988.5,442.5,987.8,445.4,987.2,448.3L987.2,448.3z M955.7,535.5
				c0,0.1,0,0.2-0.1,0.3c-0.1,0.2-0.2,0.5-0.3,0.7c0.2-0.7,0.5-1.4,0.7-2.1C955.9,534.8,955.8,535.1,955.7,535.5L955.7,535.5z
				 M836.7,599.8c0.2-1.6,0.3-3.1,0.5-4.7c1-3.9,2.1-7.9,3.1-11.8c0.5-0.7,1-1.3,1.5-2c1.1-1,2.1-2,3.2-3
				C842.2,585.5,839.4,592.7,836.7,599.8L836.7,599.8z M862.4,533.2c-1.9,2.8-4,5.5-6.2,8.1c0.6-1.4,1.2-2.7,1.8-4.1
				c1.7-1.6,3.3-3.4,4.9-5.2C862.8,532.4,862.6,532.8,862.4,533.2L862.4,533.2z M856.1,534.9c-0.8,0.8-1.7,1.5-2.5,2.2
				c0.3-1.4,0.7-2.9,1-4.3c0.6-2,1.2-4,1.8-6c4.8-10.5,9.3-21.1,13.6-31.9C866.7,508.9,861.5,522.1,856.1,534.9L856.1,534.9z
				 M559.9,1354.1c1.9-6.9,3.8-13.9,5.6-20.9c5.3-18,10.4-36,15.4-54.2c1.8-6.6,3.5-13.1,5.3-19.7c3.5-9.9,6.9-19.9,10.4-29.8
				c1-2.9,2-5.8,3.1-8.8c-13,43.6-25.7,87.4-38.4,131.2C560.7,1352.6,560.3,1353.3,559.9,1354.1L559.9,1354.1z M709.5,1264.6
				c1.4-3.1,2.8-6.1,4.2-9.2c0.6-1.3,1.2-2.6,1.8-3.9c-2.7,9.7-5.5,19.3-8.8,28.6c-0.7,1.8-1.3,3.6-2,5.4c-1.8,4.9-3.8,9.8-6,14.6
				c-0.3,0.7-0.2,1.3,0.1,1.8c0,0.2-0.1,0.3-0.2,0.4c-0.5,1.3-0.9,2.6-1.4,3.9c-4.6,10.5-9.1,21.1-13.4,31.7
				c5.9-17.1,11.8-34.1,17.8-51.1C704.2,1279.4,706.8,1272,709.5,1264.6L709.5,1264.6z M646.3,1452.9c1.1-3.8,2.2-7.7,3.4-11.5
				c0.9-2.2,1.7-4.4,2.5-6.6c-1.5,4.8-3,9.7-4.5,14.4C647.2,1450.4,646.7,1451.6,646.3,1452.9L646.3,1452.9z M662.9,1409.1
				c1.8-5.8,3.7-11.6,5.7-17.3c7.5-20.1,15-40.2,22.3-60.4c1.4-2.3,3-4.5,4.7-6.5c-11.5,30.3-23.1,60.6-34.8,90.8
				C661.5,1413.5,662.2,1411.3,662.9,1409.1L662.9,1409.1z M794.1,1215.9c-0.7,1.6-1.4,3.2-2.1,4.9c0.4-1.1,0.8-2.2,1.2-3.2
				C793.5,1217,793.8,1216.4,794.1,1215.9L794.1,1215.9z M798.3,1212.8c1.8-4.2,3.6-8.4,5.3-12.7c4.2-6.5,8.6-12.9,13-19.2
				c-2.7,7.6-5.5,15.2-8.5,22.7c-6.7,11.5-12.8,23.6-19.2,35.4C792,1230.3,795.2,1221.6,798.3,1212.8L798.3,1212.8z M1009.7,403.5
				c0,0-0.1,0-0.1,0c0.2-0.6,0.4-1.3,0.5-2C1009.9,402.2,1009.8,402.9,1009.7,403.5L1009.7,403.5z M1002.6,411.1
				c-3.1,4.8-5.6,10.3-7.8,15.8c0.9-3.9,1.8-7.7,2.6-11.6c2-4,4-8,6.2-11.9C1003.3,405.9,1003,408.5,1002.6,411.1L1002.6,411.1z
				 M948.5,557.4c-0.5,1.5-1,3.1-1.6,4.6c-0.1,0-0.2,0-0.4,0c0.3-0.9,0.6-1.7,0.8-2.5C947.8,558.8,948.1,558.1,948.5,557.4z
				 M884.5,477.2c0.9-3.1,1.8-6.3,2.7-9.4c-0.4,1.8-0.7,3.6-1.1,5.4C885.5,474.5,885,475.9,884.5,477.2L884.5,477.2z M879.1,486.3
				c-1.7,6-3.5,12-5.3,18c-2.1,5.2-4.1,10.5-6.2,15.7c-1.9,3.2-4,6.3-6.2,9.1c5.5-13.6,10.5-27.7,13.1-42.6c0.1-0.8-0.1-1.4-0.5-1.7
				c1.4-3.7,2.8-7.4,4-11.1c1.2-3.4,2.3-6.9,3.5-10.3c2.7-6,5.5-12,8.2-18.1c0.5-1.2,1.1-2.4,1.6-3.6c-0.2,1.6-0.4,3.2-0.6,4.9
				C886.8,459.8,883,473,879.1,486.3L879.1,486.3z M750.3,517.3c-5.9,14.3-11.4,28.9-16.8,43.5c0.9-4.5,1.8-9,2.6-13.6
				c4.8-11.1,9.5-22.2,14.3-33.3C750.4,515.1,750.4,516.2,750.3,517.3L750.3,517.3z M506.9,1137.9c0.8-2.2,1.6-4.4,2.5-6.7
				c-3.8,12.1-7.2,24.4-10.9,36.5c-0.4-0.2-0.7-0.4-1.1-0.6C500.5,1157.4,503.7,1147.6,506.9,1137.9z M528.4,1087
				c-5.9,16.3-11.8,32.5-17.8,48.7C515.8,1119.1,521.9,1102.9,528.4,1087z M556.7,1365.7c0.2-0.4,0.4-0.8,0.6-1.2
				c-0.4,1.2-0.8,2.4-1.2,3.6C556.3,1367.3,556.5,1366.5,556.7,1365.7L556.7,1365.7z M676.5,1350.4c0.8-2.1,1.6-4.2,2.4-6.3
				c-3.8,11.1-7.6,22.2-11.4,33.4c-1.8,5.3-3.5,10.6-5.3,16c1.6-6.1,3.3-12.2,4.8-18.3C670.2,1366.9,673.4,1358.7,676.5,1350.4
				L676.5,1350.4z M632,1486.9c-0.2,0.8-0.7,1.8-1,2.8c-0.1-0.1-0.1-0.2-0.2-0.3c0.7-1.8,1.4-3.6,2.1-5.3
				C632.6,1485,632.3,1486,632,1486.9L632,1486.9z M764,1283c6.2-13,12.2-26.1,18.1-39.3c-0.1,0.4-0.3,0.8-0.4,1.3
				c-4.2,9.8-8.5,19.5-12.8,29.3C767.3,1277.1,765.6,1280,764,1283L764,1283z M756.8,1301.8c-2.6,5.9-5.3,11.8-7.9,17.8
				c0.4-1.7,0.8-3.4,1.1-5.1C752.2,1310.2,754.5,1306,756.8,1301.8L756.8,1301.8z M780.5,1529.9c-0.6,2.1-1.3,4.2-2,6.3
				c-3.6,11.8-7.8,23.5-11.9,35.3c-0.3-0.8-1.2-1.4-1.8-0.8c-0.2,0.2-0.4,0.4-0.6,0.6C769.7,1557.4,775.1,1543.7,780.5,1529.9
				L780.5,1529.9z M767.2,1587.4c0.2-1.9,0.3-3.9,0.4-5.8c9-26.2,18.3-52.3,27.7-78.3c5.3-14.7,10.6-29.4,15.9-44.1
				c0.4,0,0.7-0.3,0.9-0.8c6.8-17.5,13.5-35,20.2-52.6c-5.3,18.6-11.1,36.8-17.1,54.9C800.4,1503.7,783.9,1545.6,767.2,1587.4
				L767.2,1587.4z M1026.1,1169c-0.5,1.4-1,2.8-1.5,4.3c-1.6,4.5-3.4,9-5.1,13.4C1021.6,1180.8,1023.8,1174.9,1026.1,1169
				L1026.1,1169z M1051.2,1094.5l0.4-1.1c0,0.1,0,0.1,0,0.2C1051.4,1093.8,1051.3,1094.2,1051.2,1094.5L1051.2,1094.5z
				 M1045.4,1110.8c-0.1,0.3-0.3,0.5-0.4,0.8c0.8-2.3,1.7-4.6,2.5-6.9C1046.8,1106.7,1046.1,1108.7,1045.4,1110.8L1045.4,1110.8z
				 M1030.6,642c0.2-0.1,0.4-0.3,0.6-0.4c-0.5,1.2-1,2.3-1.5,3.5C1029.9,644.1,1030.2,643.1,1030.6,642z M1006.1,406.4
				c-0.1,0.1-0.2,0.2-0.3,0.4c0.4-3,0.8-6.1,1.2-9.1c0.9-1.4,1.8-2.8,2.7-4.2C1008.4,397.8,1007.3,402.2,1006.1,406.4z
				 M1001.7,401.3c1.1-2.9,2.2-5.8,3.3-8.7c-0.2,1.3-0.3,2.6-0.5,3.9C1003.6,398.1,1002.7,399.7,1001.7,401.3z M772.8,464.9
				c-0.8,1.8-1.6,3.7-2.4,5.5c1-2.9,2-5.8,3.1-8.7C773.3,462.8,773,463.9,772.8,464.9z M779.6,444.6c3.4-9.5,6.9-19,10.5-28.4
				c-1.4,5.6-2.9,11.2-4.3,16.8c-2.6,6.7-5.2,13.4-7.9,20.1C778.5,450.3,779.1,447.4,779.6,444.6z M755.9,503.9
				c-1,2.3-1.9,4.5-2.9,6.8c0-0.9,0.1-1.9,0.1-2.9c1-2.4,2.1-4.8,3.1-7.2c0.8-1.8-1.4-3.4-2.2-1.6c-0.3,0.7-0.6,1.4-0.9,2
				c0-2.3,0-4.6-0.1-6.8c0.9-2.1,1.8-4.1,2.7-6.2c3.1-7.1,6.2-14.3,9.4-21.4c-0.6,6.7-2.3,13.4-4,19.5
				C759.4,492.2,757.7,498.1,755.9,503.9L755.9,503.9z M586.4,608.8c-0.1,0.1-0.2,0.2-0.2,0.2c0.4-1.2,0.8-2.4,1.2-3.6
				c1.1-2.9,2.2-5.9,3.2-8.8C589.1,600.7,587.7,604.7,586.4,608.8L586.4,608.8z M495.5,867.1c4.4-11.6,8.9-23.2,13.4-34.8
				c-0.4,1.3-0.8,2.5-1.2,3.8c-7.3,23.4-14.7,46.7-22.5,69.8c1.3-6.7,2.6-13.4,4-20.1C491.3,879.6,493.4,873.3,495.5,867.1
				L495.5,867.1z M532.2,772.4c-0.9,2.9-1.8,5.8-2.7,8.7c-0.9,1.6-1.7,3.2-2.6,4.8C528.6,781.5,530.4,776.9,532.2,772.4L532.2,772.4
				z M496.5,1170.3c0.3,0.2,0.7,0.4,1,0.6c-2.2,6-4.5,11.9-6.8,17.9c0-0.1,0-0.1,0.1-0.2C492.7,1182.4,494.6,1176.4,496.5,1170.3
				L496.5,1170.3z M501.6,1168.7c-0.2,0-0.5-0.1-0.7-0.1c2-5.4,4-10.8,6.1-16.2c2.1-5.5,4.1-11.1,6.2-16.7
				C509.4,1146.7,505.5,1157.7,501.6,1168.7L501.6,1168.7z M500.5,1171.9c-1.4,3.8-2.7,7.6-4.1,11.4c1.2-3.8,2.4-7.6,3.5-11.5
				C500.1,1171.8,500.3,1171.8,500.5,1171.9L500.5,1171.9z M566.6,1002.3c-0.7,1.8-1.3,3.6-2,5.4c-0.2,0.4-0.2,0.8-0.1,1.2
				c-2.9,7.8-5.9,15.5-8.8,23.3c3-8.3,5.9-16.6,8.7-25C565.2,1005.5,565.9,1003.9,566.6,1002.3L566.6,1002.3z M555.8,1349.7
				c1.3-4.2,2.6-8.3,3.9-12.4c-2.9,11.5-5.8,23-8.8,34.5c-2.3,5-4.4,10.1-6.4,15.2C548.2,1374.5,551.9,1362.1,555.8,1349.7z
				 M499.1,1531.1c0.1-0.5,0.3-1.1,0.4-1.6c3.5-10.8,7-21.7,10.7-32.4c3.4-10.2,7-20.3,10.4-30.5c6.5-19.9,12.5-40.1,19.4-59.8
				c0.9-2.4,1.7-4.8,2.6-7.3c-5.1,16.9-10.2,33.8-15.3,50.7c-1.4,4.7-2.9,9.4-4.3,14.1c-8.3,24.9-16.8,49.6-25.1,74.5
				c-0.7,1.6-1.4,3.2-2.1,4.8C496.8,1539.4,498,1535.3,499.1,1531.1z M557.4,1372.7c1.6-4.8,3.2-9.6,4.9-14.4
				c-2.6,8.4-5.2,16.8-7.7,25.3c-6.9,23.1-13.7,46.6-20.9,69.8c0.1-0.5,0.3-0.9,0.4-1.4C541.8,1425.6,549.6,1399.2,557.4,1372.7
				L557.4,1372.7z M654.7,1506.9c-0.9,4.1-1.8,8.2-2.7,12.4c0.1-3.2,0.7-6.4,1.3-9.4C653.8,1508.9,654.3,1507.9,654.7,1506.9z
				 M659.4,1497.2c2.8-5.9,5.6-11.7,8.4-17.6c-3.4,10.3-7.1,20.4-11,30.3C657.7,1505.7,658.5,1501.4,659.4,1497.2L659.4,1497.2z
				 M727.4,1357.7c-0.8,1.9-1.5,3.8-2.3,5.7c-4.5,11.1-9.2,22.1-13.9,33.1c4.3-11,8.7-21.9,13.1-32.8
				C725.4,1361.6,726.4,1359.6,727.4,1357.7L727.4,1357.7z M739.9,1333.7c1.8-3.5,3.7-7.1,5.5-10.6c-0.6,2.8-1.3,5.7-1.9,8.5
				c-4.7,10.5-9.4,21-14.1,31.4c-5.9,13-11.8,26.1-17.6,39.1C721.4,1379.5,730.9,1356.7,739.9,1333.7L739.9,1333.7z M764.3,1291.4
				c2.3-5.3,4.7-10.7,7-16c0.8-1.4,1.6-2.8,2.4-4.2c-2.7,8.3-5.5,16.5-8,24.9c-0.4,1.2-0.8,2.5-1.1,3.7
				c-6.9,13.4-13.7,26.9-20.4,40.5c0.6-2.5,1.2-5,1.8-7.5C752,1319,758.2,1305.2,764.3,1291.4L764.3,1291.4z M760.4,1581.7
				c1.2-2.5,2.6-4.9,4.3-6.9c0.1,0.5,0.1,1.1,0.2,1.6c-3.1,9.2-6.2,18.3-8.7,27.7c0.1-3.7,0.2-7.4,0.1-11.1
				C757.7,1589.3,759.1,1585.5,760.4,1581.7L760.4,1581.7z M904.8,1505.8c0.4-1,0.8-2.1,1.2-3.1c0.3-0.4,0.7-0.8,1-1.3
				c-2.2,5.5-4.3,11-6.5,16.5C902,1513.9,903.4,1509.8,904.8,1505.8L904.8,1505.8z M909.7,1492.7c1-2.9,2-5.8,3-8.7
				c2-5.9,3.9-11.9,5.8-17.8c2.7-7.5,5.4-15,8.1-22.6c-1.2,4.9-2.4,9.8-3.6,14.7c-2.6,6.5-4.9,13.2-7.2,19.8
				c-0.6,1.7-1.1,3.3-1.7,4.9c-0.7,1.7-1.3,3.3-2,5C911.5,1489.6,910.6,1491.1,909.7,1492.7L909.7,1492.7z M994.9,1263.7
				c-6.8,19.2-13.3,38.5-19.9,57.8c-0.9,2.1-1.8,4.2-2.8,6.3c8.7-28,17.5-55.9,26.2-83.9c3.4-9.6,6.8-19.2,10.3-28.8
				c3-5.5,5.8-11.1,8.4-16.8c-5.5,16.4-11.1,32.9-16.5,49.4C998.7,1253.1,996.8,1258.4,994.9,1263.7L994.9,1263.7z M1028,1174.5
				c4.2-12.5,8.3-25,12.3-37.5c1.4-1.8,2.7-3.8,3.9-5.8c-5.8,16-11.8,31.9-17.8,47.8C1027,1177.5,1027.5,1176,1028,1174.5
				L1028,1174.5z M1046.9,1121.1c-1.1,2.1-2.2,4.1-3.4,6.1c0.5-1.5,1-2.9,1.4-4.4c1.6-4.8,3.2-9.7,4.8-14.5c1.9-3.6,4-7.2,6.1-10.7
				c0.2-0.3,0.4-0.6,0.6-0.9c-1.9,5.5-3.8,11.1-5.7,16.6C1049.4,1115.9,1048.2,1118.5,1046.9,1121.1L1046.9,1121.1z M1060.7,1086.1
				c-0.3,0-0.6,0.1-0.8,0.4c-2.1,2.9-4.1,6-6.1,9.1c0.2-0.6,0.4-1.2,0.7-1.8c0.2-0.2,0.3-0.4,0.4-0.7c0.1-0.3,0.2-0.8,0.3-1.2
				c0.8-2.2,1.7-4.5,2.5-6.7c0.7-1.8-1.4-3.4-2.2-1.6c-0.7,1.8-1.4,3.5-2.1,5.3c-0.1,0.1-0.2,0.2-0.2,0.3c3.5-9.6,7-19.1,10.4-28.7
				c0.9-2.4,2.5-3.1,4.1-2.6c-0.6,3.1-1.2,6.2-1.9,9.3C1064.3,1073.5,1062.6,1079.8,1060.7,1086.1L1060.7,1086.1z M1071.3,560.2
				c-0.2,0.4-0.4,0.8-0.6,1.2c1.7-7,3.1-14.2,4.4-21.3c0.1,0.3,0.2,0.7,0.3,1c-0.3,2.9-0.8,5.8-1.3,8.7
				C1073.1,553.3,1072.2,556.7,1071.3,560.2L1071.3,560.2z M1027.9,641.8c-1,3.1-1.9,6.3-2.8,9.5c-0.8,2.8-1.5,5.7-2,8.6
				c-2.6,5.9-5.1,11.7-7.6,17.7c-0.8,1.9-1.6,3.8-2.4,5.6c-4.1,9-8.2,18-12.3,27.1c-0.9,1.9-1.8,3.8-2.8,5.8
				c5.6-13.4,11.2-26.7,16.6-40.2c4.9-12.1,9.4-24.3,13.7-36.7c-0.2,0.6-0.3,1.2-0.5,1.8C1027.8,641.2,1027.8,641.5,1027.9,641.8
				L1027.9,641.8z M970.7,775.6c-0.2,0.3-0.4,0.6-0.7,0.9c-0.5,0.7-1,1.3-1.6,1.9c1-6.1,3.6-11.9,6-17.3c1.2-2.7,2.4-5.3,3.7-7.9
				c-0.5,2.5-1,5-1.5,7.5C974.7,765.7,972.7,770.6,970.7,775.6L970.7,775.6z M1027.2,339.6c0.3,1,0.4,2.1,0,3.4c-1.1,4-2.2,8-3.3,12
				c0.1-2.3,0.2-4.6,0.2-6.9c0.4-1.6,0.8-3.3,1.3-4.9C1026,342.1,1026.6,340.8,1027.2,339.6L1027.2,339.6z M1014.2,376.4
				c-0.9,3.5-1.8,6.9-2.8,10.4c-0.3,0-0.6,0.1-0.9,0.5c-1,1.4-1.9,2.8-2.8,4.2c0.4-2.9,0.8-5.9,1.1-8.8c0.4-1,0.8-2,1.1-3
				c1.6-4.2,3.3-8.3,5-12.5C1014.8,370.2,1014.5,373.3,1014.2,376.4L1014.2,376.4z M1010.3,371.8
				C1010.3,371.8,1010.3,371.8,1010.3,371.8c1.7-5.9,3.3-11.7,4.9-17.5c0.1,1.8,0.1,3.5,0.1,5.3
				C1013.6,363.7,1011.9,367.7,1010.3,371.8z M914.6,381.5c0.9-2,1.9-4,2.9-5.9c-1.8,7.9-3.7,15.8-5.8,23.7
				C912.7,393.4,913.6,387.4,914.6,381.5L914.6,381.5z M782.8,428.1C782.8,428.1,782.8,428.1,782.8,428.1
				C782.8,428.1,782.9,428.1,782.8,428.1C782.9,428.1,782.8,428.1,782.8,428.1L782.8,428.1z M777.2,443.6
				c-3.4,9.5-6.8,19.1-10.2,28.6c0.6-3.9,1-7.8,0.9-11.6c3.5-7.7,7-15.4,10.5-23C778,439.6,777.6,441.6,777.2,443.6L777.2,443.6z
				 M769.3,451.1c4.3-10.9,8.6-21.9,12.8-32.8c-0.5,2.9-1.1,5.7-1.6,8.6C776.7,434.9,773,443,769.3,451.1z M483.1,903.8
				c-1.1,5.7-2.1,11.5-3.2,17.2c-1.2,3.4-2.4,6.8-3.6,10.2c2.1-8.4,4.1-16.9,6.1-25.3C482.7,905.2,482.9,904.5,483.1,903.8z
				 M520.9,802.4c1.5-2.6,2.9-5.2,4.3-7.7c-0.9,3-1.9,5.9-2.8,8.9c-4.7,13.6-9.4,27.3-14.1,40.9c-3,8.8-6,17.5-9,26.3
				C506.7,848.1,513.7,825.2,520.9,802.4L520.9,802.4z M470.1,1241.4c2.2-7.7,4.5-15.4,6.9-23c3.7-9.9,7.4-19.8,11-29.8
				c-4,12.8-7.9,25.5-11.8,38.3c-2.5,6.6-5.1,13.3-7.6,19.9C469.1,1245.1,469.6,1243.2,470.1,1241.4z M481.6,1219.8
				c-0.1,0.2-0.1,0.3-0.2,0.5c-1.5,4.2-2.9,8.5-4.4,12.7c0.6-1.9,1.2-3.8,1.8-5.8C479.8,1224.7,480.7,1222.3,481.6,1219.8
				L481.6,1219.8z M503.2,1172.1c0.1,0,0.2,0,0.3,0c-2.9,7.7-5.7,15.4-8.6,23.1C497.7,1187.5,500.4,1179.8,503.2,1172.1
				L503.2,1172.1z M504.4,1168.6c4-11.4,8-22.8,12-34.3c-1.6,5.3-3.3,10.7-4.9,16c-2.2,6.1-4.5,12.1-6.7,18.2
				C504.6,1168.6,504.5,1168.6,504.4,1168.6L504.4,1168.6z M542.5,1061.1c0.6,0.6,1.5,0.6,2-0.3c2.6-5.9,5-12,7.3-18
				c-8,21.4-16,42.8-24,64.2C532.6,1091.6,537.5,1076.3,542.5,1061.1L542.5,1061.1z M514.8,1509.9c-0.1,0.3-0.2,0.6-0.3,0.8
				c2.3-7.6,4.7-15.2,7-22.8C519.4,1495.3,517.2,1502.7,514.8,1509.9L514.8,1509.9z M665.6,1493.9c3.6-10.3,7-20.7,10.2-31.2
				c3.5-7.3,6.9-14.7,10.4-22c8-16.9,16.3-33.6,24.6-50.2c-0.3,0.7-0.6,1.5-0.9,2.2c-8,20.4-15.6,41.1-23.4,61.7
				c-2.6,6.2-5.2,12.4-7.7,18.6c-1.2,3-2.5,6.1-3.7,9.1c-4.6,10.1-9.2,20.2-13.6,30.4c-1.8,2.1-3.7,4.2-5.5,6.3
				C659.4,1510.6,662.6,1502.3,665.6,1493.9L665.6,1493.9z M740.2,1345.4c-0.5,1.9-1,3.9-1.5,5.8c-0.9,1.8-1.8,3.6-2.7,5.5
				c-4.8,9.9-9.4,19.8-13.9,29.8c-1.5,2.9-3,5.9-4.5,8.8C725.2,1378.7,732.7,1362.1,740.2,1345.4L740.2,1345.4z M930.7,1416.9
				c-0.4,1.2-0.8,2.4-1.3,3.6c-2.9,8.1-6.2,16-9.5,23.9c2.3-6,4.7-12.1,7-18.1C928.1,1423.2,929.4,1420.1,930.7,1416.9L930.7,1416.9
				z M905.8,1489.7c2.9-7.6,5.8-15.2,8.9-22.6c-2.4,7.1-4.8,14.2-7.3,21.3c-1.3,3.5-2.7,7-4,10.5c0.4-2.3,0.9-4.5,1.5-6.7
				C905.2,1491.3,905.5,1490.5,905.8,1489.7z M999.3,1260.2c1.3-3.8,2.5-7.7,3.8-11.6c7.5-20.5,15.2-40.8,22.9-61.2
				c9.1-24.1,18.2-48.3,26.8-72.7c0.4-0.8,0.8-1.7,1.1-2.6c-7.9,21.8-15.9,43.6-24,65.4C1019.9,1205.2,1009.6,1232.7,999.3,1260.2
				L999.3,1260.2z M984,731.7c-4.4,11.1-9.5,22.3-16,31.9c4.9-13.1,10.8-25.6,16.4-38.2c2.9-6.5,5.8-13,8.7-19.4
				C990.3,714.7,987.3,723.3,984,731.7L984,731.7z M1029,564.8c-0.3,0.6-0.7,1.2-1,1.8c0-0.2,0.1-0.4,0.2-0.6
				c1.5-4.8,3.1-9.7,4.7-14.5c0.4-1.2,0.8-2.5,1.2-3.7c-0.3,1.2-0.7,2.4-1,3.6C1031.7,555.9,1030.4,560.4,1029,564.8L1029,564.8z
				 M1028.8,551.2c-0.9,4.7-2,9.3-3.1,14c-1.3,4.1-2.6,8.1-3.8,12.2c-2.3,3.9-4.6,7.8-6.9,11.7c-2.7,4.6-8.4,1.5-8.1-2.9
				c0.3-0.9,0.6-1.7,0.9-2.6c7.6-12.7,14.8-25.7,22.3-38.6C1029.6,547,1029.2,549.1,1028.8,551.2L1028.8,551.2z M1024.1,338.2
				c0-0.5,0-0.9-0.1-1.4c0,0,0-0.1,0-0.1c0.1,0,0.3,0.1,0.4,0.1C1024.3,337.3,1024.2,337.7,1024.1,338.2L1024.1,338.2z M917.5,370
				c0.2-0.9,0.5-1.7,0.7-2.6c0,0.5,0,1,0,1.5C917.9,369.3,917.7,369.7,917.5,370z M809.7,368.1c-4.4,8.3-8.7,16.7-12.9,25.2
				c-0.4,0-0.8,0.2-1,0.8c-0.8,2-1.5,3.9-2.3,5.9c-2.9,5.9-5.8,11.9-8.7,17.9c0.6-3.3,1.2-6.5,1.8-9.8c7.3-14.9,15.2-29.4,24-43.1
				C810.3,366,810,367,809.7,368.1L809.7,368.1z M645.6,455.5c1.4-3.7,2.8-7.4,4.1-11.1c0.4-1,0.8-2,1.1-3.1
				c-3,11.9-7.5,23.1-12.1,34.2C641.3,469,643.6,462.3,645.6,455.5L645.6,455.5z M564.2,366.3c-15.2,45.5-32.2,90.1-49,134.7
				c-6.5,17.3-12.9,34.7-19.1,52.2c0.4-1.5,0.9-3.1,1.3-4.6c2.9-10.2,5.9-20.5,8.9-30.7c7.9-21.3,16-42.5,24.4-63.5
				c0.7-1.8-1.5-3.4-2.2-1.6c-3.6,9.2-7.3,18.5-10.8,27.7c5.9-18.7,12.2-37.2,18.5-55.7c3.6-10.6,7-21.5,10.5-32.3
				c2.3-5.2,4.7-10.4,7.1-15.5c2.7-5.5,5.5-11,8.2-16.5C563.9,361.1,565.1,363.3,564.2,366.3L564.2,366.3z M521.1,460.9
				c-0.5,1.6-1.1,3.3-1.6,4.9c-5.4,16.9-10.6,33.9-15.6,51c-1.4,3.7-2.7,7.4-4.1,11.2c4.7-16.1,9.4-32.3,14.3-48.3
				C516.4,473.4,518.8,467.2,521.1,460.9L521.1,460.9z M486.6,916.5c0.9-2.5,1.7-5,2.6-7.5c-3.4,10.7-6.8,21.4-10.1,32.2
				c0.4-2.3,0.8-4.7,1.1-7C482.4,928.3,484.5,922.4,486.6,916.5L486.6,916.5z M463.8,1254.2c-2.1,7.2-4.1,14.3-6.3,21.4
				c-8.8,23-17.8,45.9-26.8,68.7C441.7,1314.2,452.7,1284.2,463.8,1254.2z M459.8,1277.1c2-5.1,3.9-10.3,5.9-15.4
				c-1.2,4.2-2.5,8.4-3.7,12.6c-1.3,3.1-2.7,6.1-4.1,9.1C458.5,1281.4,459.1,1279.2,459.8,1277.1L459.8,1277.1z M493,1541.5
				c-2.4,7.3-4.7,14.7-7.1,22c1.2-4.8,2.5-9.5,3.7-14.2C490.7,1546.8,491.8,1544.2,493,1541.5L493,1541.5z M491.9,1558.2
				c0.5,0.8,1.7,1,2.2-0.1c3.2-8.6,6.4-17.2,9.4-25.9c2.8-6.7,5.5-13.5,8-20.3c-1.6,5.2-3.2,10.4-4.9,15.6c-2,6.3-4,12.7-6.1,19
				c-4.5,10.6-9.3,21-14.4,31.1c1.5-5.8,3.1-11.6,4.7-17.3C491.2,1559.6,491.5,1558.9,491.9,1558.2L491.9,1558.2z M649.5,1521.6
				c0,1.7,0.2,3.3,0.5,5c-1.4,3.2-2.8,6.4-4.3,9.6C647,1531.4,648.2,1526.5,649.5,1521.6L649.5,1521.6z M658,1520.9
				c-2.4,5.7-4.7,11.3-7,17c-0.8,1.8-1.5,3.5-2.3,5.3c1.6-5.5,3-11,4.3-16.6C654.7,1524.7,656.4,1522.8,658,1520.9z M744,1643.9
				L744,1643.9c0.1-0.1,0.2-0.3,0.3-0.4c-0.2,0.6-0.4,1.3-0.6,1.9C743.8,1644.9,743.9,1644.4,744,1643.9L744,1643.9z M904.7,1483.5
				c-0.8,2.5-1.5,5.1-2.2,7.7c-4.5,12-9.1,24-14.4,35.4c-0.6,1.4-1.3,2.7-2,4.1C892.3,1515,898.5,1499.3,904.7,1483.5L904.7,1483.5z
				 M899.8,1505.5c0,0.5,0.2,1.1,0.5,1.5c-1.9,4.8-3.7,9.7-5.5,14.5c-1.7,3.2-3.5,6.3-5.6,9.2C893,1522.5,896.5,1514.1,899.8,1505.5
				L899.8,1505.5z M1025.3,635.7c-2.3,5.7-4.7,11.3-7.2,16.9c0.8-2.2,1.6-4.5,2.5-6.8C1022.1,642.5,1023.7,639.1,1025.3,635.7
				L1025.3,635.7z M1002.9,685.9c-1.1,2.5-2.3,5-3.4,7.5c0.4-1.4,0.8-2.7,1.2-4.1c0.1-0.3,0.2-0.6,0.2-0.8c1.9-4.2,3.8-8.3,5.7-12.5
				C1005.4,679.3,1004.1,682.6,1002.9,685.9L1002.9,685.9z M920.6,361.4c0-0.1,0-0.2,0-0.3c0-0.1,0.1-0.2,0.1-0.2
				C920.7,361.1,920.7,361.2,920.6,361.4z M813,356.3c-6.6,9.9-12.8,20.3-18.7,31c1.8-4.7,3.7-9.3,5.5-14
				c4.6-8.8,9.6-17.3,15.2-25.1C814.3,350.9,813.6,353.6,813,356.3L813,356.3z M657,445.6c-20,51.3-39.5,102.8-58.6,154.7
				c-3.8,10.3-7.6,20.7-11.3,31c2.7-8.7,5.3-17.4,8-26.1c11.5-32.1,23.1-64.1,35.4-95.7c8.6-22.1,17.5-44.1,26.9-65.6
				C657.4,444.4,657.3,445,657,445.6L657,445.6z M648.8,457.1c2.2-6.3,4.1-12.6,5.6-19.2c0.8,0.4,1.5,0.9,2,1.7
				C653.8,445.4,651.3,451.2,648.8,457.1L648.8,457.1z M420.3,435.4c2.8-6.2,5.5-12.6,8-19c-2.9,9.1-6.1,17.9-9.3,26.8
				c-0.2-0.5-0.4-1-0.5-1.5C419.1,439.6,419.7,437.4,420.3,435.4L420.3,435.4z M432.8,428.7c-0.6,0-1.2,0.5-1.2,1.5
				c0,0.4,0,0.9,0,1.3c-1.7,4-3.4,8-5.2,11.9c-0.5,1.2-1.3,1.9-2,2.3c1.3-5.2,2.5-10.5,3.9-15.7c3-11.9,6.4-23.5,11.1-34.6
				c4.5-10.8,10-21,15.4-31.1c0.5-0.9,1-1.8,1.5-2.8c-0.3,2.2-0.9,4.4-1.3,6c-2.3,8.8-5.4,17.3-8.4,25.8
				C442.1,405.3,437.6,417.1,432.8,428.7L432.8,428.7z M421.6,445.8c-0.2-0.1-0.5-0.2-0.7-0.4c0.8-2.3,1.6-4.6,2.5-6.9
				C422.8,440.9,422.2,443.3,421.6,445.8L421.6,445.8z M428.7,536.6c-2.2,8.5-4.4,17.1-6.6,25.6c-1.1,3.9-2.3,7.8-3.5,11.7
				c-4,10.6-8,21.1-11.9,31.7c5.8-25.9,14.4-50.7,23.5-75.2C429.8,532.5,429.3,534.6,428.7,536.6z M466.8,610
				c-2.1,6.7-4.3,13.4-6.4,20c-2.6,8-5.2,16-7.8,23.9C457.2,639.3,462,624.6,466.8,610L466.8,610z M500.4,516.9
				c-5.3,18.1-10.5,36.2-15.9,54.3c-1.2,3.6-2.5,7.1-3.7,10.7c4.2-14.7,8.5-29.4,12.9-44C495.9,530.9,498.1,523.9,500.4,516.9
				L500.4,516.9z M407.9,837.8c-0.8,3-1.5,6.1-2.4,9.2c-0.1,0.4-0.3,0.7-0.4,1.1c0.1-1.5,0.1-2.9,0.2-4.4c0-0.5-0.1-0.9-0.4-1.1
				c1.1-2.3,2.2-4.6,3.5-6.8C408.3,836.5,408.1,837.2,407.9,837.8L407.9,837.8z M392.9,902c-0.2,0.3-0.4,0.7-0.5,1
				c0.6-6.7,1.9-13.2,3.6-19.7C395,889.6,394,895.8,392.9,902L392.9,902z M439.7,1034.8c-0.3,0.8-0.5,1.7-0.8,2.6
				c-1.1,3.3-2.2,6.6-3.3,9.9C437,1043.1,438.3,1039,439.7,1034.8L439.7,1034.8z M446.6,1037.6c8.4-25.3,15.7-50.9,22.4-76.8
				c2.5-5.2,4.8-10.6,7-16c-0.6,3.7-1.2,7.5-1.8,11.2c0,0.3-0.1,0.5-0.1,0.8c-1.9,6-3.7,11.9-5.6,17.9c-0.5,1.6-1,3.1-1.5,4.7
				c-8.5,25.6-16.9,51.3-25.3,76.9C443.4,1050.1,445,1043.9,446.6,1037.6L446.6,1037.6z M465.2,1273.5c2.4-5.7,4.8-11.4,7.1-17.3
				c-3.8,10.3-7.6,20.6-11.3,30.8c0.9-3.2,1.9-6.4,2.8-9.7C464.3,1276.1,464.7,1274.8,465.2,1273.5L465.2,1273.5z M469.5,1598.9
				c-1.8-1.3-2.9-4-1.3-6.8c1.8-3.1,3.5-6.3,5.2-9.5C472.2,1588,470.9,1593.5,469.5,1598.9L469.5,1598.9z M472,1599.7
				c2.2-8.8,4.3-17.6,6.3-26.5c0.8-1.6,1.6-3.3,2.5-4.9c0.9-1.8,1.8-3.6,2.6-5.4c-1.1,4.2-2.2,8.5-3.2,12.7
				c-0.3,1.1,0.4,1.9,1.2,1.9c-1.4,4.3-2.8,8.5-4.2,12.8c-1,2.9-1.9,5.8-2.9,8.7C473.5,1599.5,472.7,1599.7,472,1599.7z
				 M481.8,1584.5c-0.2,0.8-0.4,1.6-0.6,2.4c0,0.1-0.1,0.2-0.1,0.3c-0.2,0.4-0.5,0.9-0.7,1.3
				C480.9,1587.3,481.3,1585.9,481.8,1584.5L481.8,1584.5z M640.1,1551.9c0.5,0.1,1-0.1,1.3-0.7c1.8-3.6,3.6-7.3,5.4-11.1
				c-3.3,11.9-7.3,23.7-12.5,34.5C636.3,1567.1,638.2,1559.5,640.1,1551.9L640.1,1551.9z M740.7,1630.6c1-2.1,2-4.2,2.9-6.3
				c-0.3,1.8-0.7,3.5-1,5.3c-0.7,4-1.3,8.3-0.9,12.5c-1.3,6.7-2.6,13.3-3.9,20c-0.9,2.4-1.8,4.8-2.8,7.2c-0.6,1.5-1.4,2.3-2.3,2.6
				c-0.1-8.7,0.8-17.5,2-26.1C736.8,1640.6,738.7,1635.6,740.7,1630.6L740.7,1630.6z M871.9,1566.8c3.5-8.8,6.9-17.6,10.4-26.4
				c0.4,0.5,1,0.8,1.6,0.3c2.2-1.8,4.2-4,6-6.3c-4.9,13.1-9.6,26.3-13.9,39.7c-0.1,0.2-0.2,0.5-0.3,0.7
				C873,1574.5,870.4,1570.8,871.9,1566.8L871.9,1566.8z M1093.2,518.8c0,0,0,0.1-0.2,0.3c0,0.1-0.1,0.2-0.2,0.3
				c-0.3,0.5-0.7,1-1,1.5c0,0,0,0,0,0c0,0.1-0.1,0.2-0.2,0.4c-0.3,0.5-0.6,0.9-0.8,1.4c-0.7,1.1-1.3,2.3-1.9,3.4
				c-3.4,6.2-6.7,12.7-10,19.1c-0.1-0.5-0.2-1-0.2-1.5c0.3-1.3,0.5-2.6,0.8-3.8c2.4-9.2,4.8-18.4,7.2-27.5c2-2.6,4.4-4.3,7.4-1.4
				C1096.6,513.4,1095.4,517.1,1093.2,518.8L1093.2,518.8z M932.9,358c-0.2,0.3-0.3,0.5-0.5,0.8c0-0.3-0.1-0.6-0.1-0.9
				c-0.2-1.1-1.2-1.3-1.9-0.9c-2.7,1.5-5.2,3.5-7.4,5.9c0.6-3.1,1.3-6.1,1.9-9.2c0.5-0.8,1-1.6,1.5-2.3c2.8,1.1,5.8,2.4,7.5,4.3
				C933.7,356.4,933.4,357.3,932.9,358L932.9,358z M806.8,355.6c0.8-2,1.6-4,2.4-6c0.8-2,2.1-2.8,3.4-2.7
				C810.6,349.7,808.6,352.6,806.8,355.6z M723.7,367.2c1.4-5.7,2.9-11.3,4.1-17.1c0.2-1.1,0.5-2.3,0.7-3.4
				c2.1-3.9,4.1-7.9,6.2-11.8c-1.4,5-2.8,10.1-4.2,15.1C728.1,355.7,725.9,361.5,723.7,367.2L723.7,367.2z M730.8,333.8
				c0.4-2.9,0.8-5.8,1-8.7c0.3-1.1,0.6-2.2,0.9-3.3c3.2-7.2,6.5-14.3,10-21.3c-1.3,6.8-2.8,13.5-4.5,20.1
				C735.8,325,733.3,329.4,730.8,333.8L730.8,333.8z M610.1,305.7c-4-0.1-8.1-0.5-12.2-0.9c-0.4-0.2-0.7-0.3-1.1-0.5
				c7.1,0.1,14.2,0.1,21.4,0.2C615.5,304.9,612.8,305.3,610.1,305.7L610.1,305.7z M604.1,309.5c-2.2,0-4.4-0.1-6.7-0.2
				c-0.1,0-0.1,0-0.2,0c1.1,0,2.3,0,3.4,0c0.1,0,0.2,0,0.3-0.1C602,309.4,603,309.5,604.1,309.5z M537,309.3c-0.1,0-0.2,0-0.3,0
				c-6.1-0.8-12.3-1.6-18.5-2.4c5.2-0.7,10.4-1.2,15.6-1.6c1.7,0.5,3.4,1.4,4.5,3C537.8,308.7,537.4,309,537,309.3z M422.6,755.4
				c11.4-36.2,23.2-72.2,34.9-108.2c6.2-19,12.3-38,18.4-57.1c-4.2,15-8.5,30.1-12.7,45.1c-0.5,1.9-1.1,3.8-1.6,5.7
				c-2.8,8.8-5.5,17.7-8.2,26.5c-2.3,6.7-4.5,13.5-6.6,20.3c-2.4,7.5-4.7,15-6.9,22.5c-7.5,22.8-15.3,45.5-23.5,67.9
				C418.4,770.5,420.5,763,422.6,755.4L422.6,755.4z M415.8,808.2c-0.2,0.6-0.3,1.2-0.5,1.7c-1.6,6-3.2,11.9-4.8,17.9
				c-1.7,2.2-3.3,4.6-4.7,7.2c-0.5-0.4-1.1-0.4-1.5,0c2-6.5,4.1-13,6.3-19.4c5.7-17.3,10.9-34.8,16.1-52.3
				C422.9,778.2,419.2,793.1,415.8,808.2z M389.8,894.6c1.5-7.4,3.1-14.9,5-22.3c0.4,0.4,1.1,0.5,1.6,0.2
				c-2.5,7.9-4.6,15.9-5.9,24.2c-0.6,3.8-1,7.6-1.1,11.4c0,1.1,1,1.9,1.8,1.5c-0.8,3.5-1.7,6.9-2.8,10.2c-1.4,4.5-3.1,8.9-5.3,12.9
				C385.2,919.9,387.2,907.2,389.8,894.6L389.8,894.6z M411.5,1123.2c-0.3,1.6-0.6,3.1-0.8,4.7c-0.7,1.9-1.5,3.8-2.2,5.6
				C409.5,1130,410.5,1126.6,411.5,1123.2z M420.4,1099.2c5.1-16.4,11.5-32.2,16.9-48.4c10.1-29.9,18.7-60.5,27.2-91.1
				c0-0.1,0.1-0.2,0.1-0.4c-1.5,5.6-3,11.2-4.5,16.8c-5.2,19.3-10.3,38.7-15.3,58.1c-8.4,25.5-17.5,50.7-27.1,75.6
				c-0.5,1.3-1,2.5-1.5,3.8C417.5,1108.7,418.9,1103.9,420.4,1099.2L420.4,1099.2z M436,1068.2c-2.6,9.8-5.2,19.5-7.9,29.3
				c-0.4,1.6-0.9,3.1-1.3,4.7c-4.1,12.7-8.2,25.3-12.4,38c-0.8,1.9-1.6,3.7-2.6,5.5c0-5.7,0.5-11.3,1.4-16.9
				C421,1108.7,428.7,1088.6,436,1068.2L436,1068.2z M418.4,1382.3c0.1,0.2,0.2,0.3,0.4,0.5c-0.5,0.7-0.9,1.3-1.4,2
				C417.8,1383.9,418.1,1383.1,418.4,1382.3L418.4,1382.3z M431.8,1363.7c5.4-12.2,9.9-25,14.3-37.7c1.6-4.5,3.2-9.1,4.8-13.6
				c-0.9,3.1-1.8,6.3-2.7,9.4c-7.1,19.3-14.2,38.7-21.2,58c-1.2,0.3-2.3,0.5-3.5,0.5C426.6,1375.1,429.3,1369.4,431.8,1363.7
				L431.8,1363.7z M612.3,1639.3c-1.7-1-2.8-3.1-2.1-5.9c8-31.3,18.1-61.7,29.6-91.3c-0.1,0.3-0.1,0.5-0.2,0.8
				c-3.5,14-7.1,28-10.7,42c-0.3,1,0.3,1.7,0.9,1.9c-5.5,12.8-10.9,25.6-16.2,38.5c-0.8,1.8,1.3,3.3,2.2,1.6c3-6,5.9-12.1,8.8-18.2
				c-2.4,6.6-4.8,13.3-7.2,20C615.8,1632.2,614.1,1635.8,612.3,1639.3L612.3,1639.3z M727.7,1663.8c1.1-2.9,2.3-5.9,3.4-8.8
				c-0.6,5.4-0.9,10.9-0.9,16.4C728.1,1670.3,726.5,1667.2,727.7,1663.8L727.7,1663.8z M1061.5,1561.8c0.1-0.6,0.2-1.2,0.3-1.9
				c0.2-1.4-1.2-2.9-2.1-1.5c-2.2,3.4-4.4,6.9-6.5,10.5c0.5-2.8,0.9-5.6,1.2-8.4c0.9-1.8,1.9-3.7,2.8-5.5c1.8-3.3,3.7-6.5,5.7-9.6
				c1.5,0.4,2.9,1.7,3.4,3.4c-1.3,3.9-2.6,7.8-4,11.6C1062,1560.9,1061.7,1561.3,1061.5,1561.8L1061.5,1561.8z M947.3,310.2
				c7.9-0.3,15.9-1.1,23.8-0.7c1.1,0.1,2.3,0.3,3.4,0.4c-5.3-0.1-10.7-0.2-16,0c-3.3,0.1-6.5,0.3-9.8,0.6h-11.1
				C940.8,310.4,944.1,310.3,947.3,310.2L947.3,310.2z M933.5,352.2c-1.7-1.1-3.5-2-5.3-2.9C930.2,348,932.5,349.7,933.5,352.2z
				 M861.1,301.2c0.5-0.3,0.9-0.9,0.9-1.6c9.5,0.2,18.9,0.5,28.3,2.1c5.3,0.9,10.5,2.3,15.7,4c-6.6,0-13.2,0.1-19.8,0.3
				c0.6-0.9,0.2-2.6-1-2.6c-7.6,0.1-15.1,0.8-22.6,1.8c-2.8-0.3-5.5-0.7-8.3-1.2C856.6,303.3,858.9,302.3,861.1,301.2L861.1,301.2z
				 M844.4,299.4c3.2,0,6.5,0.1,9.7,0.1c1.1,0,2.1,0,3.2,0c-3.8,1.6-7.8,2.5-11.8,3.1c-2.6-0.2-5.2-0.1-7.9-0.1
				c-1.2-0.2-2.3-0.5-3.5-0.7C837.6,301.4,841.1,300.6,844.4,299.4L844.4,299.4z M830.2,298.9c0.7,0,1.4,0.1,2.1,0.1
				c-1.6,0.2-3.1,0.3-4.7,0.5C828.5,299.3,829.3,299.1,830.2,298.9L830.2,298.9z M824.7,308.5c1.4,0.1,2.8,0.4,4.2,0.6
				c-7-0.6-14-1.1-21-1.6c0.6,0,1.1-0.1,1.7-0.1C814.6,307.6,819.6,307.9,824.7,308.5L824.7,308.5z M806,296.4
				c1.9,0,3.8,0.1,5.7,0.3c-1.8,0.2-3.6,0.4-5.4,0.5c-1.9-0.3-3.8-0.5-5.7-0.8C802.4,296.5,804.2,296.4,806,296.4L806,296.4z
				 M763.1,296.9c5-0.1,10.1-0.1,15.1-0.2c4.9,0.6,9.8,1.1,14.7,1.8c-0.2,0-0.4,0-0.6,0.1c-10-0.5-19.9-0.8-29.9-0.9
				C762.6,297.5,762.8,297.2,763.1,296.9L763.1,296.9z M757.2,297.5c-0.2,0.1-0.4,0.1-0.6,0.2c-0.8,0-1.5,0-2.3,0
				C755.3,297.6,756.3,297.5,757.2,297.5z M756.9,301c5.5,0.1,11,0.1,16.6,0.3c-0.4,0.2-0.8,0.4-1.3,0.7c-1.4,0.1-2.9,0.3-4.3,0.4
				c-5-0.1-10.1-0.2-15.1-0.4C754.1,301.8,755.5,301.5,756.9,301L756.9,301z M752,302.1l-5.1,12.7c-0.6,1.4-1.4,2.2-2.3,2.5
				c-2.1,4.6-4.2,9.2-6.3,13.9c0.6-2.2,1.2-4.4,1.7-6.6c1.9-3.7,3.8-7.3,5.8-11c0.8-1.5-1.1-3.3-2-1.9c-0.1,0.1-0.1,0.2-0.2,0.3l0,0
				l0,0c-0.3,0.5-0.6,1.1-1,1.6c1.4-6.2,2.7-12.5,3.8-18.8C749.7,292.8,754,297.1,752,302.1L752,302.1z M752.2,294
				c-1.9,0-3.7,0.1-5.6,0.1c0-0.2,0.1-0.5,0.1-0.7C748.6,293.6,750.4,293.8,752.2,294z M744.9,288.9c-0.1,0.4-0.1,0.8-0.2,1.2
				c-0.2,0-0.4,0-0.7-0.1C744.3,289.6,744.6,289.3,744.9,288.9L744.9,288.9z M717.5,294.5c0.3,0,0.7,0,1,0c1.2,0,1.5-1.6,1-2.5
				c0.8,0,1.7-0.1,2.5-0.1c0.1,0.2,0.2,0.4,0.2,0.5c0.5,1.8,2.8,1.1,2.5-0.6c1.1,0,2.2,0,3.4,0c3.7,0.3,7.4,0.6,11,0.9
				c-0.3,0.5-0.6,1.1-0.9,1.6c-3.4,0.1-6.7,0.2-10.1,0.3c-3.5,0.1-7.1,0-10.6,0.4C717.5,294.9,717.5,294.7,717.5,294.5L717.5,294.5z
				 M695.1,310c1.2,0.2,2.3,0.3,3.5,0.5c-2.7,0-5.4,0-8,0C692.1,310.3,693.6,310.1,695.1,310L695.1,310z M686.6,296.6
				c-0.3,0.1-0.6,0.1-0.8,0.2c-1.4,0.1-2.8,0.3-4.2,0.4C683.2,297,684.9,296.8,686.6,296.6L686.6,296.6z M671.1,309.2
				c1.5-0.1,3-0.2,4.5-0.3c-2.6,0.3-5.2,0.6-7.8,0.9c-0.4,0-0.7,0-1.1,0C668.2,309.6,669.7,309.4,671.1,309.2L671.1,309.2z
				 M664.2,295.9c-0.3,0-0.6,0.1-0.9,0.1c-4.2,0.7-8.3,1.3-12.5,1.9c-0.6-0.1-1.1-0.2-1.7-0.4c2-0.2,4.1-0.5,6.1-0.7
				C658.1,296.5,661.1,296.2,664.2,295.9L664.2,295.9z M654,293.3c1.7,0,3.4-0.1,5.1-0.1c-0.6,0.1-1.2,0.1-1.8,0.2
				c-6.5,0.7-13.1,1.7-19.7,1.9c-2.9-0.5-5.7-1-8.6-1.3C637.4,293.7,645.7,293.5,654,293.3L654,293.3z M625.7,298.5
				c2.8-0.2,5.5-0.1,8.3-0.1c1.1,0,2.2,0,3.3,0c1.4,0.3,2.9,0.5,4.3,0.8c-0.4,0-0.9,0-1.3,0c-5-0.2-10-0.3-15-0.4
				c-0.3,0-0.6-0.1-0.9-0.1C624.9,298.6,625.3,298.5,625.7,298.5L625.7,298.5z M620.2,296.5c-0.8,0.3-1.5,0.8-2.2,1.4
				c-0.1,0.1-0.2,0.2-0.2,0.3c-2.9-0.3-5.7-0.3-8.6-0.1c-0.5-0.2-1-0.4-1.5-0.6C611.8,296.6,616,296.4,620.2,296.5L620.2,296.5z
				 M600.4,295.5c0.9,0,1.9-0.1,2.8-0.1c-0.4,0.6-0.5,1.7,0,2.2c-7-0.5-14.1-0.5-21.1-0.3c-1.3-0.2-2.6-0.4-3.9-0.6
				C585.3,294.6,593.2,295.7,600.4,295.5z M577.5,310.5h-13.8c3.5-0.2,7.1-0.4,10.6-0.6C575.4,310.1,576.4,310.3,577.5,310.5
				L577.5,310.5z M541.2,296.3c10.4,0.2,20.9-0.1,31.4-0.4c-0.1,0-0.1,0.1-0.2,0.1c-0.6,0.3-0.7,1.1-0.6,1.8
				c-9.5,0.4-19,0.7-28.5,1.4c0.2-0.8-0.1-1.7-0.8-2c-0.9-0.4-1.7-0.7-2.6-0.9C540.3,296.3,540.7,296.3,541.2,296.3z M551.1,304.2
				c1.2,0.1,2.4,0.3,3.7,0.4c-0.1,0.9,0.4,1.9,1.2,1.9c2,0.1,4,0.2,5.9,0.3c0.6,0.2,1.2,0.4,1.8,0.5c-4.3,0.2-8.7,0.5-13,0.7
				c-3.1,0.2-6.3,0.5-9.5,0.8c0-0.4,0-0.7-0.2-1c-0.5-1.2-1.2-2.1-2-3C543.1,304.6,547.1,304.4,551.1,304.2L551.1,304.2z
				 M538.5,299.1c-0.4,0.2-0.8,0.4-1.2,0.6c-0.6,0.1-1.2,0.1-1.9,0.2c-4.2-0.1-8.5-0.4-12.7-1C528,298.2,533.4,297.8,538.5,299.1
				L538.5,299.1z M512.9,300.2c2.5,0.6,5.1,1.1,7.6,1.5c-0.3,0.1-0.6,0.1-1,0.2c-1.7,0.2-3.4,0.5-5,0.8c-0.6,0-1.2,0-1.7,0
				c-7.8,0.1-15.5,0.8-23.2,1.7c-0.2,0-0.5,0-0.7,0C496.9,302.8,504.9,301.2,512.9,300.2L512.9,300.2z M473.5,309.5
				c-0.5,0.2-1.1,0.5-1.6,0.8c-0.5,0.1-1,0.1-1.5,0.2h-5.9C467.5,310.2,470.5,309.8,473.5,309.5L473.5,309.5z M445.8,308.5
				c1.9-0.1,3.9-0.1,5.8-0.2c-2.9,0.2-5.9,0.4-8.9,0.6C443.7,308.7,444.8,308.6,445.8,308.5L445.8,308.5z M377.3,590.7
				c0.2-9,0.6-17.9,1.1-26.9v17.8C378,584.6,377.7,587.6,377.3,590.7L377.3,590.7z M376.2,308.1c0.1,1.1,0.1,2.3,0.2,3.4
				c-0.2,0-0.3,0-0.5,0C376,310.4,376.1,309.2,376.2,308.1L376.2,308.1z M375.7,314.7c0.3,0,0.6,0,0.9,0c0,0.1,0,0.2,0,0.4
				c-0.3,0-0.6,0-0.9,0.1C375.7,315,375.7,314.9,375.7,314.7z M376.3,341.4c-0.6-7.6-1-15.5-0.8-23.2c0.4,0,0.8-0.1,1.2-0.1
				c0.6,13.1,1,26.3,1,39.5C377.2,352.2,376.7,346.8,376.3,341.4L376.3,341.4z M374.6,827.2c0.2,0.9,0.3,1.8,0.5,2.7
				c0.1,0.4,0.3,0.8,0.6,0.9c0,0.8,0,1.6,0,2.5c0,2.6,0,5.2,0,7.8C375.3,836.4,374.9,831.8,374.6,827.2L374.6,827.2z M374.8,592.1
				c-0.7-0.6-2-0.2-2,1.3c-0.4,37.5,0.1,75.1-0.1,112.6c-4.4-16.6-3.3-36.2-2.7-53c1-26.8,1.1-53.7,2.6-80.5
				c1.7-31.2,4.1-62.4,4.8-93.7c0-1.8,0.1-3.7,0.1-5.5c0.3,0.3,0.6,0.4,0.9,0.4v51.6c-0.4,7.2-0.9,14.4-1.4,21.6
				C375.9,561.9,375.2,577,374.8,592.1L374.8,592.1z M397.3,850.6c3.9-15.4,7.9-30.7,12-46c4.2-10.8,8.2-21.8,12.2-32.8
				c-3.1,10.3-6.2,20.7-9.4,31c-5.6,17.9-12.4,35.3-15.8,54.2c-0.9,2.8-1.8,5.6-2.7,8.4C394.8,860.4,396,855.5,397.3,850.6
				L397.3,850.6z M383.6,913.7c0,0.3-0.1,0.6-0.1,0.9c-1.3,7.9-2.6,15.8-3.8,23.7c-0.2,1.2,0.8,2.3,1.6,1.9
				c-1.5,3.6-3.2,7.2-5.1,10.6C378.5,938.3,380.9,926,383.6,913.7L383.6,913.7z M376.5,1219.8c0.8,4.4,0.7,9.1,0.7,13.6
				c0,1.3,0,2.5,0,3.8c-0.2,0.8-0.4,1.5-0.6,2.3C376.1,1233,376.2,1226.4,376.5,1219.8z M377.3,1262.9c0.1,2,0.2,3.9,0.4,5.8
				c-0.3,2.8-0.6,5.5-0.9,8.3c0-2.1,0.1-4.3,0.2-6.4C377.1,1268,377.2,1265.5,377.3,1262.9z M378.4,1662.3c-0.1-2.9-0.3-5.9-0.4-8.9
				c0.1-0.2,0.1-0.4,0.1-0.6c0.1-1.8,0.2-3.7,0.3-5.6V1662.3L378.4,1662.3z M378.4,1638.3c-0.2-6.1-0.6-12.2-1.2-18.3
				c-0.2-2.7-0.5-5.3-0.7-8c0-1,0-2-0.1-3c0.5-8.4,0.9-16.7,1-25.1c0.2,2.2,0.3,4.4,0.5,6.7c0.1,2.3,0.2,4.6,0.4,6.9V1638.3
				L378.4,1638.3z M378.4,1379.6c0,3.6,0,7.3,0,10.9c-0.8,9.1-1.4,18.2-1.7,27.4c0-8.9,0.2-17.8,0.6-26.7c0.3-5.7,0.7-11.5,1.1-17.2
				V1379.6z M378.4,1350.7c-0.7,4.8-1.3,9.7-1.8,14.6c0-2.7,0-5.4,0.1-8.2c0.5-6.5,1.1-13.1,1.7-19.6
				C378.4,1337.5,378.4,1350.7,378.4,1350.7z M378.4,1311.6c-0.6,1.8-1.1,3.7-1.6,5.6c0-3.4,0-6.9,0-10.3c0-0.7,0.1-1.4,0.1-2.1
				c0.4-6,0.9-12.1,1.5-18.1V1311.6L378.4,1311.6z M378.4,1214.5c-0.5-3.3-0.8-6.6-0.9-9.9c0.3-3.4,0.6-6.9,0.9-10.3V1214.5z
				 M385.7,1716c0-0.4,0-0.7,0-1.1c0,0,0,0,0.1,0C385.8,1715.3,385.7,1715.7,385.7,1716L385.7,1716z M400.3,1161.1
				c3.1-7.7,6.2-15.4,9.2-23.1c-0.3,4.1-0.4,8.3-0.2,12.4c0,0.8,0.6,1.5,1.2,1.6c-0.8,2.5-1.6,5-2.4,7.5
				C406.7,1163.9,402.1,1163.8,400.3,1161.1L400.3,1161.1z M408.8,1404.3c1.2-3.5,2.5-6.9,3.8-10.4c0.4,0.1,0.8,0,1.2-0.4
				c2.9-3,5.5-6.5,7.8-10.2c1.4,0.2,2.8,0.2,4.1,0c-3.2,8.8-6.4,17.5-9.6,26.3C413.9,1415.8,406.6,1410.5,408.8,1404.3z M411.7,1714
				h1.2c6.2,0.5,12.3,1.1,18.5,2.1c0.1,0.2,0.3,0.3,0.5,0.3c0.2,0.1,0.4,0.1,0.5,0.1C425.5,1716.1,418.6,1715.4,411.7,1714
				L411.7,1714z M441,1715.2c-0.1-0.3-0.4-0.6-0.7-0.7c-0.4-0.2-0.9-0.3-1.3-0.5h10.4c4.9,0.2,9.7,0.2,14.5,0.2c0.9,0,1.8,0,2.7,0
				c0,0.8,0.4,1.5,1.2,1.6c1.6,0.1,3.3,0.1,4.9,0c2,0,4,0,6,0.1c-1.3,0.2-2.7,0.3-4,0.5c-0.5,0.1-1,0.1-1.5,0.2
				c-0.5,0.1-1,0.1-1.5,0.1C461.5,1717.2,451.2,1717,441,1715.2L441,1715.2z M539.5,1719.9c-1.6,0-3.3,0-4.9,0.1
				c-0.3,0-0.5,0.1-0.7,0.2c-10.2,0.6-20.3,1.8-30.4,2.3c-10.8,0.6-21.7,0.7-32.4-1.3c12.9-1,25.8-2.4,38.7-3.8
				c12.7,0.1,25.5,0.5,38.2,0.9c6,0.2,12,0.2,18,0.1C557.3,1719.1,548.4,1719.6,539.5,1719.9L539.5,1719.9z M616.3,1639.4
				c1.2-3.1,2.3-6.2,3.5-9.3c0.2-0.4,0.4-0.8,0.6-1.2c-0.6,2.4-1.3,4.9-1.9,7.3C618,1637.8,617.2,1638.8,616.3,1639.4L616.3,1639.4z
				 M625.5,1716c0.9-0.1,1.9-0.2,2.8-0.3c1.3-0.1,2.6-0.2,3.8-0.4c2.1-0.2,4.2-0.3,6.3-0.5c0.7,0,1.5,0,2.2,0
				C635.5,1715.3,630.5,1715.7,625.5,1716z M703.1,1716.2c-15.2,0.2-30.3,0-45.5,0.1c2.8-0.3,5.6-0.7,8.3-1.2
				c20.3,0.2,40.7,0.5,61-0.2c3.6-0.1,7.1-0.3,10.7-0.4C726.2,1715.6,714.6,1716,703.1,1716.2L703.1,1716.2z M860.1,1716.5
				c-9.2-0.4-18.3-0.7-27.5-0.8c-8.6-0.2-17.3,0-25.9-0.7c-2.3-0.2-4.6-0.4-6.9-0.9h62C861.2,1714.8,860.7,1715.6,860.1,1716.5
				L860.1,1716.5z M864.9,1716.7c-0.5,0-1-0.1-1.5-0.1c0.8-1,1.7-1.9,2.7-2.6h19.4c-1.2,0.2-2.4,0.5-3.6,0.8
				c-4.5,0.9-9,1.8-13.5,2.2C867.2,1716.8,866,1716.8,864.9,1716.7L864.9,1716.7z M914.7,1723.4c-8.2,0.5-16.5,0.7-24.7,1.8
				c-3.5,0.5-7,1.5-10.5,2.3c-2.3,0.6-4.6,1-6.9,0.8c7.8-3.2,16-4.8,24.2-5.7c6,0.4,12.1,0.7,18.1,0.8
				C914.8,1723.4,914.8,1723.4,914.7,1723.4L914.7,1723.4z M960.6,1719.5c-12.1,0.5-24.2,0.8-36.3,0.8c7.3-0.6,14.5-1.1,21.8-1.4
				c9.7-0.5,19.4-0.4,29.1-0.4c2.5,0,4.9,0,7.4,0C975.2,1718.9,967.9,1719.2,960.6,1719.5L960.6,1719.5z M1039.6,1714.4
				c-2.3,0.1-4.6,0.2-6.9,0.3c-0.8,0-1.6,0.1-2.5,0.1c-16.3,0.6-32.6,0.6-48.9,0.6c-9.5,0-18.9-0.2-28.4,0.1
				c-9.7,0.3-19.4,1-29.1,1.7c-8.9,0.7-17.9,1.2-26.8,2.3c-0.1,0-0.2,0-0.3,0c-5.2-0.3-10.4-0.9-15.6-1.4c5.9-1.2,11.9-2.3,17.8-3.8
				c0.4-0.1,0.8-0.2,1.1-0.3h146C1044.1,1714.1,1041.8,1714.3,1039.6,1714.4L1039.6,1714.4z M1049.3,1717.7c4,0.1,8,0.2,12,0.5
				C1057.3,1718,1053.3,1717.8,1049.3,1717.7z M1068.9,1633.8c5.5,0,5.5,10.6,0,10.6C1063.5,1644.3,1063.5,1633.8,1068.9,1633.8z
				 M1072,1716c-1.8-0.2-3.6-0.4-5.4-0.6c2.7-0.3,5.4-0.7,8.1-1C1073.8,1714.9,1072.9,1715.4,1072,1716L1072,1716z M1083.6,1717.8
				c-2.1-0.4-4.3-0.8-6.4-1.1c3.1-1.2,6.5-1.5,9.8-1.5c1.5,0.3,3,0.5,4.5,0.6C1088.9,1716.7,1086.2,1717.4,1083.6,1717.8z
				 M1113.1,310.5h-25.3c4.4-0.5,8.8-1,13.3-1.2c3.9,0.1,7.8,0.1,11.7,0.3c0.1,0,0.3,0,0.4-0.1
				C1113.1,309.8,1113.1,310.2,1113.1,310.5L1113.1,310.5z M1117.3,740.5c0.1-21.5-0.1-43.1-0.3-64.7c0.1-3.5,0.2-6.9,0.4-10.3
				c0.3-6.3,0.5-12.7,0.9-19c0.5,37,0,73.9,0.5,110.9c0.2,14.7,0.6,29.4,1.3,44.1c-1.5-12.5-2.5-25.1-3.1-37.7
				C1117.1,756.2,1117.2,748.3,1117.3,740.5L1117.3,740.5z M1118.1,983.4c-0.1,0-0.2,0-0.2,0.1v-0.3c0-2.2,0.1-4.5,0.2-6.7
				C1118.1,978.7,1118.1,981,1118.1,983.4L1118.1,983.4z M1117.5,1011.4c0-0.7,0-1.4,0-2.1c0.1-4.5,0.2-9,0.2-13.5
				C1117.9,1000.9,1117.7,1006.1,1117.5,1011.4L1117.5,1011.4z M1118.5,1280.8c0,19.8,0.1,39.5,0.2,59.3
				c-1.7-17.3-2.6-34.7-3.7-52.1c-0.2-2.5-0.3-5.1-0.4-7.6c0.4-6.1,0.8-12.2,1.3-18.2c0,0.3,0.1,0.5,0.2,0.8
				c0.1,5.7,0.2,11.3,0.2,17C1116.2,1281.4,1117.8,1281.7,1118.5,1280.8L1118.5,1280.8z M1115.7,809.7c0.1,1.9,0.1,3.8,0.2,5.8
				c0.2,6.5,0.3,13,0.4,19.5c-0.3-5.9-0.6-11.8-0.7-17.7C1115.7,814.8,1115.7,812.3,1115.7,809.7L1115.7,809.7z M1115.4,510.8
				c0.1,3.2,0.1,6.4,0,9.6C1115.4,517.2,1115.4,514,1115.4,510.8z M1114.4,442.5c0,6.7,0.1,13.3,0.1,20c0,1.3-0.1,2.6-0.1,3.9V442.5
				L1114.4,442.5z M1114.4,539.9c0.4,0.2,0.9,0.1,1.3-0.4c-0.1,3-0.1,6-0.2,9c-0.4,0.1-0.7,0.5-0.9,1c-0.1,0.3-0.2,0.5-0.2,0.8
				V539.9L1114.4,539.9z M1114.4,561.7c0.3-1.8,0.6-3.5,1-5.3c-0.1,9.9-0.2,19.8,0.1,29.6c-0.1,8.2-0.2,16.5-0.3,24.7
				c0-0.5-0.1-1-0.1-1.5c-0.2-2.9-0.4-5.9-0.7-8.9L1114.4,561.7L1114.4,561.7z M1114.4,872.4c0.1,1.3,0.1,2.5,0.2,3.8
				c0.6,14,1.2,28.1,1.8,42.1c-0.1,5.9-0.1,11.8-0.2,17.7c-0.3,0.2-0.6,0.7-0.6,1.3c0.1,8.2,0.1,16.5,0,24.7
				c-0.1,10.2-0.3,20.5-0.5,30.7c-0.2,1.4-0.4,2.8-0.6,4.2L1114.4,872.4L1114.4,872.4z M1114.4,1238.5c0-0.5,0.1-1,0.2-1.4
				c-0.1,4.4-0.2,8.7,0,13.1c-0.1,0.8-0.1,1.5-0.2,2.3L1114.4,1238.5L1114.4,1238.5z M1114.4,1435.5v-52.8c0-0.9,0-1.7,0.1-2.6
				c0.1,2.2,0.2,4.4,0.3,6.6c-0.1,3.6-0.2,7.2-0.3,10.8c-0.2,12.9,0.7,25.8,1.2,38.7c0,0.8,0.1,1.6,0.1,2.3
				c-0.1,9.9-0.2,19.8-0.5,29.8c-0.2-2.3-0.3-4.7-0.4-6.9C1114.8,1452.8,1114.6,1444.1,1114.4,1435.5L1114.4,1435.5z M1116.3,1679.5
				c0.2,7.9,0.4,15.7,0.6,23.6c-0.5,0.1-1,0.1-1.5,0.2C1115.6,1695.4,1115.9,1687.4,1116.3,1679.5L1116.3,1679.5z M1115.3,1708.1
				c0-0.6,0-1.1,0-1.7c0.5-0.1,1.1-0.2,1.6-0.3c0,0.6,0,1.2,0,1.7C1116.4,1708,1115.8,1708.1,1115.3,1708.1L1115.3,1708.1z
				 M1120.2,1707.6c0-0.6,0-1.2,0-1.8c4.2-0.5,8.4-0.7,12.6-0.2C1128.6,1706.4,1124.4,1707,1120.2,1707.6L1120.2,1707.6z"/>
			<path class="st4" d="M1170.5,1770.2c-0.4-0.2-0.6-0.3-0.9,0c0.2,0.7,0.3,1.5,0.7,1.8c0.1-0.1,0.1-0.7,0.5-0.3
				C1171.1,1770.9,1170.3,1770.9,1170.5,1770.2L1170.5,1770.2z"/>
			<path class="st4" d="M1171.4,1764.1c0.4-0.9-0.4-0.9-0.3-1.6c-0.4-0.2-0.6-0.3-0.9,0c0.2,0.7,0.3,1.5,0.7,1.8
				C1171,1764.3,1171,1763.7,1171.4,1764.1L1171.4,1764.1z"/>
			<path class="st4" d="M1173.3,1765.2c-0.3,0.1-0.6-0.4-0.8,0c0.2,0,0,0.6,0.2,0.7C1173.2,1766,1173.4,1765.8,1173.3,1765.2
				L1173.3,1765.2z"/>
			<path class="st4" d="M1170.7,1767.3c-0.2-0.3-0.5-0.7-0.8-0.6C1170.2,1766.9,1170.4,1767.5,1170.7,1767.3z"/>
			<path class="st4" d="M1170.2,1766.2c0-0.1-0.1-0.2,0-0.2c0.1,0.2,0.2,0.4,0.4,0.2c0-0.3-0.3-0.6-0.6-0.5
				C1170,1765.7,1169.8,1766.3,1170.2,1766.2L1170.2,1766.2z"/>
			<path class="st4" d="M1170.8,1766.4c0.1-0.1,0.6-0.1,0.5-0.7c-0.2,0-0.3-0.2-0.5-0.1C1170.7,1765.6,1170.6,1766.3,1170.8,1766.4
				L1170.8,1766.4z"/>
			<path class="st4" d="M1172.5,1762.7c-0.1-0.3,0-0.9-0.4-1C1172.1,1762.1,1172.2,1762.5,1172.5,1762.7z"/>
			<path class="st4" d="M1171.9,1763.6c0.1-0.1,0.5-0.4,0.1-0.6c0,0.1,0,0.2-0.1,0.2c0-0.2,0-0.5-0.2-0.4
				C1171.5,1762.9,1171.6,1763.5,1171.9,1763.6L1171.9,1763.6z"/>
			<path class="st4" d="M1172.4,1764.7c-0.2-0.2-0.5-0.3-0.8-0.3c0,0.3,0,0.6,0,0.9C1172,1765.3,1172.5,1765.4,1172.4,1764.7
				L1172.4,1764.7z"/>
			<path class="st4" d="M1172.3,1766.3c-0.7-0.2-0.8,0.5-0.6,1c0.3-0.1,0.3-0.1,0.7,0c-0.1-0.4,0.2-0.4,0.1-0.7
				C1172.4,1766.5,1172.3,1766.5,1172.3,1766.3L1172.3,1766.3z"/>
			<path class="st4" d="M1172.4,1767.7c-0.5,0.2-0.8,0.5-1.1,0.8c-0.5-0.4-1-0.9-1.6-0.6c0.6,0,1.1,0.5,1.5,0.8
				c-0.3,0.5-0.4,1.1-0.4,1.8c0.8,0.3-0.1,1.2,0.5,2c0.8,0.1,1.2-0.8,0.7-1.5C1173.2,1770.8,1172.3,1768,1172.4,1767.7
				L1172.4,1767.7z"/>
		</g>
	</g>
</g>
</svg>
