<?xml version="1.0" encoding="UTF-8"?>
<svg id="Livello_2" data-name="Livello 2" xmlns="http://www.w3.org/2000/svg" xmlns:xlink="http://www.w3.org/1999/xlink" viewBox="0 0 1504.97 2055.04">
  <defs>
    <style>
      .cls-1 {
        fill: #dedaf4;
      }

      .cls-1, .cls-2, .cls-3 {
        stroke-width: 0px;
      }

      .cls-2 {
        fill: none;
      }

      .cls-3 {
        fill: #b9b5e2;
      }

      .cls-4 {
        clip-path: url(#clippath);
      }
    </style>
    <clipPath id="clippath">
      <rect class="cls-2" x="250.32" y="67.99" width="1093.72" height="1949.64"/>
    </clipPath>
  </defs>
  <g id="Livello_1-2" data-name="Livello 1">
    <g class="cls-4">
      <g>
        <rect class="cls-1" x="217.32" y="47.04" width="1152" height="2008"/>
        <path class="cls-3" d="m158.71,588.16c9.71-27.61,3.27-57.09,15.4-86.03,16.92-40.39,42.77-75.82,67.13-113.21,47.57-73.02,97.61-169.62,172.75-222.7,79.15-55.9,201.91-97.69,300.94-109.71,97.08-11.78,221.2-42.53,309.77,11.87,21.6,13.27,34.67,33.36,55.01,47.26,19.12,13.06,42.97,21.75,62.26,33.97,42.29,26.78,63.03,57.72,84.65,99.16,20.41,39.13,51.33,72.64,71.48,112.06,21.89,42.83,36.13,89.4,54.26,133.35,42.47,102.94,63.51,218.29,54.37,327.53-5.38,64.24-2.78,126.81-.02,191.12,2.85,66.52,32.52,129,46.73,193.74,30.52,139.02,4.02,284.9-70.27,409.38-30.3,50.77-80.73,79.97-134.2,111.91-25.78,15.4-51.6,28.99-76.79,45.21-22.44,14.45-41.34,34.75-64.14,47.88-43.91,25.28-104.32,36.72-152.69,53.76-58.62,20.65-115.05,25.23-177.33,16.44-53.99-7.62-108.33-13.85-162.39-21.36-30.4-4.22-61.76,4.19-91-6.93-24.36-9.27-42.48-29.87-60.98-46.21-49.28-43.54-88.32-95.39-139.89-136.25-60.38-47.84-117.6-88.06-149.38-156.65-34.69-74.87-54.59-153.69-57.75-234.78-3.27-83.82,10.07-167.98,10.07-252.16,0-75.12-3.42-147.34,0-222.48,1.22-26.77,44.39-165.31-2.69-177.87-19.15-5.11-45.92,55.49-52.32,67.35-18.94,35.09-31.24,68.82-35.79,108.03-11.45,98.73-12.82,199.3-23.94,298C-2.94,1242.08-.43,1378.38,1.38,1511.37c1.42,104.99,23.05,210.87,32.78,315.99,6.64,71.65,11.37,168.34,98.57,198.8,36.63,12.79,77.38,7.53,117.38,7.4,57.93-.18,116.11-1.57,174.08-2.58,133.06-2.31,264.72,5.26,397.5,4.95,116.43-.28,231.55-2.36,347.66-2.37,68.95-.01,136.32.87,204.98-4.86,42.03-3.51,75.98,1.59,96.25-35.47,20.81-38.04,19.51-85.55,24.2-126.81,6.78-59.58,3.34-118.4,2.06-177.63-1.41-65.14-5.92-131.37-7.87-195.89-2.32-76.76-19.57-156.77-15.54-233.35-1.29-76.5-8.15-153.89-8.04-230.91-3.6-249.17,1.99-508.4,23.27-759.64,3.92-46.25,10.39-91.5,11.62-137.57.62-23.37,15.89-80.26-12.22-99.72-19.85-13.74-64.96-6.05-92.72-6.05-48.57,0-96.86.92-144.97-2.26-63.18-4.18-127.55-9.13-190.58-10.08-60.91-.92-122.47-1.44-183.32-4.27-9.82-.46-18.07.21-27.61-2.5-141.26,1.34-287.75-11.22-428.85-4.62-49.33,2.31-99.5,6.98-149.33,9.49-21.83,1.1-47-.82-66.86,8.52-44.78,21.06-41.8,62.03-42.47,100.24-1.44,82.75-17.92,172.1-32.09,253.21-11.76,67.32-40.07,156.95-31.48,228.29,7.64-7.41,35.87-16.29,36.92-15.9"/>
      </g>
    </g>
  </g>
</svg>