<?xml version="1.0" encoding="UTF-8"?>
<svg id="Livello_2" data-name="Livello 2" xmlns="http://www.w3.org/2000/svg" viewBox="0 0 841.74 1489.93">
  <defs>
    <style>
      .cls-1 {
        fill: #ffadad;
      }

      .cls-1, .cls-2, .cls-3 {
        stroke-width: 0px;
      }

      .cls-2 {
        fill: #f4e9e9;
      }

      .cls-3 {
        fill: #fff;
      }
    </style>
  </defs>
  <g id="Livello_1-2" data-name="Livello 1">
    <g>
      <path class="cls-2" d="m3.92,261.18c3.35,98.05-2.19,194.83-.72,293.25,1.5,100.92,4.69,200.88,6.18,301.27.8,54.04-1.82,107.68-4.39,161.2-2.43,50.74,1.04,101.81.57,151.94-.94,99.29-3.89,198.75-2.38,297.58,3.1.3,6.2.64,9.3.9,7.15.58,14.34.31,21.49.58,16.56.61,33.1,2.15,49.56,4.42,16.63,2.29,33.12,5.81,49.83,6.98,16.13,1.12,32.3.71,48.41-.59,16.43-1.33,32.72-3.92,49.08-6.04,16.41-2.12,32.92-3.19,49.4-3.73,33.33-1.11,66.67.23,99.97,1.64,33.4,1.41,66.83,2.91,100.26,2.11,33.06-.79,65.81-5.03,98.67-9.28,50.39-6.53,101.77-13.29,152.33-6.35-.56-3.28-.95-6.51-.87-9.58.61-23.99,5.08-14.89,18.86-24.01,9.98-6.6,9.78,0,12.92-18.12,2.3-13.31-1.3-32.02-2.5-45-7-75.59-12.69-150.72-15.21-226.99-1.56-47.43.05-94.51.9-141.84.79-43.64-5.92-84.83-8.35-127.84-2.46-43.52.91-87.02-.14-130.46-1.39-57.36-6.43-112.65-2.94-170.18,5.7-93.99,1.87-189.78-5.66-283.69-3.38-42.07-3.48-85.03-7.31-126.54-1.88-20.38,4.37-67.06-9.2-81.98-11.81-12.98-33.77-2.47-47.28-2.95-21.83-.78-44.93-7.96-66.38-11.56-26.6-4.46-51.44-17.99-77.99-19.98-26.75-2-56.95,3.87-82.64,10.8-82.02,22.14-160.13,13-243.28,11.86-38.09-.52-78.84,3.61-116.56,8.66-12.15,1.63-57.3,14.57-54.97-13.34l15.26-.35c-10.1-3.85-30.73-4.98-35.48,5.14-.93,1.97.12,24.82-.46,29.36C.72,100.11-.26,108.09.06,119.1c1.34,47.06,2.25,94.94,3.86,142.09Z"/>
      <g>
        <path class="cls-1" d="m37.95,940.91c.12.14.27.23.43.28.33.09.69.07.98-.16.27-.22.51-.54.58-.95.02-.11.05-.22.08-.32.03-.07.06-.13.09-.2.02-.02.03-.04.05-.06.02-.02.05-.04.07-.05.1-.04.2-.08.3-.11.17-.05.31-.14.43-.28.14-.11.25-.26.33-.44.09-.18.14-.38.15-.59.04-.21.03-.42-.02-.63-.1-.38-.29-.75-.58-.95-.1-.05-.2-.11-.3-.16-.23-.08-.45-.08-.68,0-.3.06-.58.2-.85.37-.08.05-.16.11-.23.17-.15.14-.32.28-.45.45-.43.53-.71,1.24-.84,1.96-.08.41-.05.85.13,1.22.08.18.19.33.33.44Z"/>
        <path class="cls-3" d="m808.9,1421.52c-6.63-2.25-13.61-2.21-20.42-1.43-.05-1.61-.12-3.21-.19-4.82.38-10.96.6-21.92.37-32.89-.17-7.94-.82-15.85-1.47-23.75.11-12.07.64-24.12.71-36.19.07-10.94,2.03-22.69-.82-33.31-.45-1.67-2.46-1.41-2.5.42-.23,11.25-.28,22.5-.35,33.75-.05,0-.09.02-.14.03.02-4.13.04-8.25.06-12.38.07-21.11-.2-42.17-.87-63.27.13-2.36.25-4.72.38-7.07.29,4.57.59,9.13.94,13.69.33,4.3.98,8.72,1.54,13.16.22,5.39.5,10.77.88,16.15.14,2.03,2.41,2.04,2.54,0,.31-4.72-.19-9.49-.8-14.24-1-23.15-.64-46.37-.83-69.55-.11-14.1-.55-28.18-1.12-42.26-.02-.44-.04-.87-.06-1.31,0-.74.02-1.47.02-2.21.07-16.63-.26-33.26-1.07-49.85.18-8.38.08-16.78-1.6-24.9-.12-.58-.48-.92-.88-1.05.15-10.45.2-20.9.17-31.35.34,3.92.71,7.84,1.15,11.73.84,7.43,1.8,14.85,2.54,22.3-.02,11.34-.09,22.67-.27,34.01-.03,1.82,2.09,2.11,2.5.42,1.74-7.12,1.64-14.83,1.27-22.18-.21-4.13-.55-8.24-.96-12.35.03-21.41-.15-42.82-.21-64.23-.08-29.93-.06-59.86-.03-89.79.62-5.5,1.27-10.99,1.94-16.47,1.07-8.72,2.08-17.52,2.22-26.35.09-5.84.25-14.34-3.6-18.63-.61-.68-1.66-.55-2.03.38.02-7.59.07-15.19.13-22.79.44-.32.74-.92.57-1.72-.21-.97-.38-1.94-.54-2.92.07-10.79.1-21.58-.03-32.37,0-.66-.03-1.31-.04-1.97.7-11.88.66-23.73.74-35.65.2-27.32.64-54.65.13-81.97-.32-16.9-.94-33.8-1.64-50.7.42-32.82.63-65.65-.25-98.46-.1-3.88-.22-7.77-.35-11.65.93,7.07,2.01,14.12,3.29,21.12.31,1.71,2.62,1.38,2.5-.42-2.73-41.29-3.08-82.73-3.06-124.13.01-25.7-.38-51.36-.78-77.04.03-2.45-.02-4.9-.11-7.36-.04-2.51-.08-5.03-.11-7.54.29-5.78.57-11.56.82-17.35,1.12-26.11,1.61-52.29.06-78.39-.05-.87-.59-1.43-1.16-1.53.08-13.55.15-27.09.24-40.64.11-12.01.2-24.02.26-36.03.16-7.89.17-15.78.07-23.67,0-1.43,0-2.86,0-4.3,0-.21-.03-.39-.08-.56-.21-12.29-.63-24.58-1.05-36.88.41-9.46,1.03-18.91,1.21-28.38.19-9.96.12-20.32-1.68-30.12.17.11.34.21.55.32.03,1.95,2.5,1.93,2.54-.08.05-2.3-1.7-3.44-3.88-4.01-.22-.93-.45-1.85-.7-2.76-.12-.42-.33-.7-.57-.88-.2-1.21-.42-2.41-.67-3.61-.39-1.8-2.39-1.3-2.5.42-.05.76-.09,1.53-.13,2.29-.15-.1-.33-.16-.53-.18-1.44-.14-2.88-.23-4.32-.28.98-.4,1.93-.88,2.86-1.46,1.17-.73.56-2.92-.64-2.95-6.53-.13-12.93,1.08-19.29,2.71-.73-.05-1.46-.09-2.17-.12-8.85-.41-17.72-.93-26.57-.47-6.65.35-13.2,1.47-19.73,2.86-4.8-.61-9.61-1.13-14.44-1.32-3.73-.14-7.5-.08-11.23.37-.18,0-.36,0-.54,0-6.33.07-12.76.94-18.65,3.88-4.54.2-9.09.34-13.63.35.22-.76.01-1.65-.84-1.88-4.02-1.07-8.09-1.58-12.17-1.78-12.81-1.5-25.7-1.78-38.54-.45-5.45-.08-10.91-.14-16.36-.18-6.93-2.14-13.8-4.55-20.83-6.13-10.48-2.36-21.2-2.86-31.83-3.08-1.93-.04-3.86-.07-5.79-.09-11.14-5.39-23.48-3.36-35.32-1.34-2.56-.29-5.12-.66-7.67-1.12-5.52-1.02-11.02-.65-16.6-.57-7.13.09-14.26.16-21.39.25-9.63-1.09-19.26-2.11-28.88-3.15-.31-.03-.62-.06-.92-.09.31-1.93.6-3.87.88-5.81.22-1.53-1.14-2.66-2.13-1.54-1.82,2.06-3.48,4.33-5.03,6.72-3.42-.33-6.84-.65-10.26-.92-.1-.07-.22-.12-.36-.14-.11-.02-.23-.03-.34-.05,0,0,0,0,0,0,0,0,0,0-.01,0-2.8-.5-5.6-.83-8.41-1.03-2.58-1.44-6.07-1.14-8.68-.72-.98.16-1.95.36-2.92.59-1.25.05-2.5.11-3.75.2-.48,0-.96-.02-1.44-.02-3.17-.02-6.35-.11-9.5.38-2.78.43-5.53,1.05-8.3,1.55-.95.17-1.98.36-3.04.52-2.04-.04-4.08-.08-6.12-.09-.74-.04-1.49-.08-2.23-.13-1.51-.48-2.9-1.3-4.03-2.64-1.19-1.4-2.99.83-1.8,2.24.01.01.02.03.04.04-2.12-.13-4.25-.26-6.37-.38-11.32-.6-22.51-.03-33.8.92-4.5.38-9.02.87-13.54,1.31-8.41.3-16.82.65-25.24.98-2.22,0-4.44.04-6.65.25-13.53.49-27.05.84-40.56.63-12.47-.19-25.1-.95-37.42,1.9-1.25.29-1.13,2.46-.1,2.99-7.43,1.21-14.83,2.67-22.27,4.04-4.15.77-8.32,1.32-12.48,1.74-4.15,0-8.3.09-12.45.29-3.72.18-7.45.58-11.18,1.05-11.09.35-22.18.62-33.24,2.08-1.37.18-1.6,2.18-.64,2.91-3.02.1-6.03.2-9.05.3h-23.12c-.1-.42-.2-.84-.32-1.25-.45-1.56-2.66-1.47-2.5.42.02.28.05.55.07.83h-.08c-.23-4.46-.48-8.92-.76-13.36-.11-1.74-2.06-2.19-2.5-.42-1.21,4.91-1.97,9.9-2.39,14.95-10.11.49-20.22,1.14-30.31,2.1-1.33.13-1.84,2.77-.34,3.11,10.03,2.28,20.15,2.2,30.26,1.55-.54,18.13,2.47,36.77,3.48,54.54.32,5.61.48,11.24.54,16.86-.02.41-.04.83-.06,1.25-1.22,22.72-4.41,46.47-1.75,69.26-.04,2.1-.06,4.19-.08,6.29-.22,32.27-2.64,64.43-4.5,96.6-1.63,28.15-1.69,56.3-2.85,84.46-.87,21.12-2.85,46.72,4.94,66.58-.06,6.46-.15,12.92-.27,19.37-.55,28.57-1.89,57.62-1.06,86.42-.27,33.58-2.73,67.14-1.17,100.72.49,10.53,1.21,21.05,2.07,31.55.64-2.67,1.29-5.33,1.93-8-.59-7.84-1.09-15.69-1.45-23.55-1.08-23.36-.23-46.7.49-70.04.37,3.83.78,7.65,1.27,11.46.09.71.19,1.42.28,2.13.17,4.91.26,9.82.31,14.78.04,3.46.12,7,.62,10.43-.4,3.55-.77,7.11-1.03,10.69-1,14.02-.61,28.09-.02,42.14.74-3.05,1.48-6.1,2.22-9.15-.27-8.67-.38-17.34-.03-26.02.12,4.89.23,9.78.35,14.67.07,3.06.14,6.12.21,9.18.09-.38.18-.75.28-1.13-.02.08-.03.17-.05.25-1.77,8.81-3.42,17.66-4.98,26.53-.25,1.45,1.22,2.78,2.13,1.54,3.19-4.4,5.79-9.45,8.07-14.66-1.89,6.96-3.92,13.86-6.3,20.59-.39,1.09.32,2.41,1.13,2.45-.97,4.05-1.94,8.1-2.91,12.16.21,1.83.43,3.66.64,5.49-.2,4.31-.38,8.62-.52,12.93-1.1,33.53-.83,66.9.97,100.37v7.75c0,9.82-.57,19.35-1.13,29.13-.46,8.09-.9,17.47,2.48,24.77.01,3.63,0,7.27-.04,10.9-.13,10.55-.74,20.99-1.52,31.45-.3.25-.52.66-.54,1.23-.05,1.49,0,2.99.1,4.49-.04.54-.08,1.08-.13,1.62-.98,12.17-1.75,24.4-.39,36.57.07.62.5,1,.98,1.11-.36,4.46-.34,9.03-.57,13.25-.78,14.36-.82,28.73-.76,43.11,0,1.3,0,2.61,0,3.91-1.34,18.41-2.43,36.85-3.08,55.32-.59,16.91-.82,33.85-.47,50.77-.45,10.2-.8,20.4-1.06,30.61-.82,32.44-.53,64.8.56,97.17-.25,5.5-.43,11-.44,16.52-.05,17.71.75,35.45,1.58,53.13.83,17.63,1.34,35.42,2.86,52.98.72,8.29,1.84,16.68,2.57,25.09.09,4.61.13,9.21.1,13.82-2.5-.89-5.02-1.72-7.56-2.43-1.33-.37-2.37,2.15-.98,2.89.1.05.2.1.31.15,0,0,0,0,0,0,.02,0,.03,0,.05.01,2.63,1.35,5.37,2.24,8.16,2.83,0,.64-.02,1.28-.04,1.91-.3.03-.6.06-.89.09-3.24-.35-6.44-.83-9.71-.75-.1,0-.18,0-.23,0-.09,0-.18,0-.26,0-1.15.05-1.65,2.01-.88,2.81-1.2.35-2.4.74-3.59,1.19-1.15.44-1.27,2.68,0,3.05,5.03,1.47,10.17,1.76,15.33,1.57-.03.68-.05,1.36-.08,2.04-.08,1.76,2.24,2.19,2.5.42.13-.87.24-1.73.34-2.6,1.29-.08,2.57-.18,3.86-.3.15,4.9.57,9.77,1.57,14.54.3,1.42,2.25,1.59,2.45,0,.64-5,.97-10.01,1.1-15.04,2.65-.27,5.3-.52,7.93-.67h3.22c9.38,2.98,18.92,4.28,28.58,5.24,5.9.59,11.79.95,17.66,1.11-.1.87.3,1.84,1.21,1.83,4.88,0,9.75-.16,14.62-.41.13.13.27.25.44.3,24.03,7.56,49.09,2.48,73.45,1.17.51-.03,1.01-.05,1.52-.08,9.57.28,19.12-.03,28.66-.71,25.6-.84,51.18-2.25,76.78-2.82,35.65-.8,71.43,1.36,106.97-3.25,5.13-.66,10.25-1.51,15.36-2.39h25.79c3.32,1.98,7.21,2.84,10.7,3.42,6.53,1.07,13.12.95,19.69,1.1,10.85.25,21.7.37,32.55.77,2.03.08,4.05.19,6.07.3.23.35.58.59.97.61,2.46.15,4.91.1,7.35-.08,5.51.41,11.02.9,16.53,1.44-5.74,1.24-11.4,2.99-16.82,5.64-1.2.59-1.21,2.47,0,3.05,5.92,2.88,12.21.27,18.15-1.14,7.12-1.7,14.52-1.67,21.73-2.08,14.97-.85,29.93-1.76,44.9-2.69,10.64-.67,21.27-1.67,31.9-2.69,10.58-.48,21.16-.92,31.73-1.14,24.66-.52,49.25,1.46,73.9,1.72,1.24.01,1.68-2.18.76-2.91,1.85-.58,3.68-1.24,5.46-1.9,1.64-.61,3.32-1.27,5.01-1.91,3.62-.01,7.23-.32,10.71-1.48,0,0,.01-.01.02-.01h.71c0,2.91-.01,5.82-.02,8.73,0,2.04,2.54,2.04,2.54,0,0-3.16.03-6.31.08-9.47.48-.05.97-.11,1.45-.15.04.16.09.32.15.49-.12,2.72-.23,5.43-.34,8.14-.07,1.79,2.15,2.14,2.5.42.61-3.03.95-6.11,1.13-9.21.6,0,1.19-.02,1.79,0,1.13.04,1.55-1.64,1-2.57,5.93-.83,11.84-1.91,17.71-3.29,1.27-.3,1.15-2.66,0-3.05Zm-23.58-213.85c.06,6.94.1,13.89.14,20.84,0-.04,0-.08,0-.12-.2-3.36-.42-6.73-.63-10.09.17-3.54.34-7.08.5-10.63Zm3.81-332.45c.15-1.67.34-3.33.58-4.99,1.75,4.38,1.37,10.86,1.26,15.12-.19,7.32-.95,14.61-1.82,21.86-.25-6.84-.59-13.7-.55-20.53,1.13-3.76,1-7.6.53-11.46ZM41.37,32.73c-4.73.32-9.46.49-14.17.36,4.73-.32,9.47-.58,14.2-.81,0,.15-.02.3-.03.45Zm3.89,824.59c.05,2.71.09,5.41.13,8.12-.23-2.68-.22-5.42-.13-8.12Zm-4.99,374.7c-.2-9.73-.31-19.46-.31-29.2.1,9.47.22,18.93.37,28.4l-.06.8Zm4.79,197.75c-2.84.14-5.69.13-8.51-.16,2.55-.58,5.12-.98,7.7-1.26.28.03.56.06.85.09-.01.44-.02.89-.04,1.33Zm1.7-914.99c-.11,8.51-.13,17.01-.11,25.52-.05-.46-.11-.92-.16-1.38-.11-20.03-.21-40.06-.31-60.09.2,3.18.4,6.36.6,9.55v25.19c0,.4-.01.81-.02,1.21Zm0,59.33c-.02.4-.03.8-.05,1.2-.05-4.26-.09-8.53-.11-12.79.04.37.08.74.12,1.11.01,2.55.02,5.09.03,7.64,0,.95,0,1.9,0,2.85Zm-.05-197.68c.02-.3.04-.6.05-.9v1.84c-.02-.31-.04-.63-.05-.94ZM159.07,27.93c2.66-.46,5.3-.96,7.94-1.48.14.77.71,1.44,1.54,1.25,2.04-.48,4.08-.91,6.12-1.31,1.61.15,3.21.31,4.82.48.17.26.38.47.62.58.42.18.84.33,1.26.48h-22.32Zm147.51-2.1c1.25,0,2.5,0,3.76,0-.76.03-1.51.07-2.27.1-.47.01-.97-.02-1.49-.09Zm15.49-3.1c1.09-.14,2.18-.29,3.28-.42,1.14.04,2.27.08,3.41.11.85.13,1.69.26,2.54.39-3.08-.03-6.15-.06-9.23-.09Zm88.43-12.3c.69.07,1.37.14,2.06.2-.06.33-.11.66-.17.99-.88.02-1.77.04-2.65.06.25-.42.5-.84.76-1.25Zm309.25,1284.35c2.17-3.85,4.4-7.65,6.7-11.37-.4,1.83-.83,3.65-1.28,5.46-3.03,6.27-6.04,12.56-9,18.88,1.08-3.5,2.08-7.02,2.98-10.58.2-.77.38-1.55.57-2.33.01-.02.02-.04.03-.06Zm-29.19,62.84s0,0,0,.01c-.92,1.4-1.86,2.78-2.83,4.13,2.11-7.11,4.29-14.18,6.58-21.2.11-.33.22-.66.33-.99,1.6-3.03,3.21-6.06,4.78-9.13-2.38,5.85-4.55,11.82-6.41,17.95-.92,3.03-1.75,6.1-2.44,9.22Zm2,2.63c.05-.26.1-.51.15-.77.19-.29.38-.57.56-.86-.24.54-.48,1.09-.71,1.63Zm-3.77,8.76c-.7,1.63-1.4,3.26-2.1,4.89-.77,1.81-1.98,2.59-3.22,2.63.67-2.44,1.37-4.86,2.07-7.29,1.29-1.52,2.53-3.12,3.74-4.77-.2,1.37-.38,2.74-.51,4.12-.01.14,0,.29.02.42Zm-1.31-15.49c-.85,2.78-1.69,5.56-2.52,8.34-.54,1.83-1.07,3.67-1.6,5.51-.9,1.07-1.83,2.1-2.79,3.09,1.86-5.89,4.28-11.5,6.9-16.94Zm13.38-32.19c.97-2.72,1.97-5.42,2.98-8.12,1.96-4.27,3.94-8.52,5.93-12.77-2.08,5.05-4.15,10.11-6.3,15.12-.84,1.95-1.71,3.87-2.61,5.77Zm-17.83-126.25c-5.47,0-5.46-10.55,0-10.55s5.46,10.55,0,10.55Zm-2.84,179.79c.49-.46.97-.93,1.44-1.4-.2.73-.41,1.46-.62,2.19-.3-.23-.57-.49-.83-.79Zm30.49-58.99c-4.3,11.98-9.46,23.68-15.64,34.38,1.86-6.23,4.16-12.28,6.51-18.07,3.84-9.47,8.17-18.64,12.83-27.53-1.14,3.79-2.37,7.54-3.7,11.23Zm-1.49-6.96c-.06.11-.11.22-.16.34,3.29-7.89,6.48-15.84,9.98-23.58-.47,2.61-1.02,5.2-1.62,7.76-2.84,5.07-5.57,10.24-8.19,15.49Zm-620.12-214.96c5.16-12.87,10.3-25.75,15.39-38.66.52.17,1.12,0,1.44-.67,5.23-10.95,9.73-22.35,13.81-34.01.27-.57.54-1.15.81-1.72-1.7,4.65-3.39,9.3-5.07,13.96-4.83,13.41-9.32,27.01-14.69,40.11-3.39,8.27-7.1,16.73-11.7,24.23,0-1.08,0-2.17,0-3.25ZM120.9,68.95s.04-.05.06-.07c.36.08.73.2,1.1.41.33.19.61.41.87.65-3.09,5.33-6.09,10.74-9.01,16.22.76-2.55,1.48-5.13,2.01-7.76.05-.27.1-.54.15-.8,1.38-3.08,2.94-6.04,4.83-8.65Zm6.07,127.8c-16.88,48.1-38.22,94.62-47.07,146.41-.42,2.46-1.81,3.62-3.33,3.77,1.83-6.41,3.3-12.98,4.73-19.32,2.19-9.77,4.57-19.46,7.02-29.13.9-3.33,1.79-6.66,2.67-9.99.09-.33.17-.66.26-.99,5.02-13.73,9.4-27.76,13.67-41.88,4.41-14.62,8.71-29.29,13.11-43.92.5-1.39,1.01-2.78,1.5-4.17.31-.87.62-1.75.94-2.62.5.91,1.95,1,2.36-.41.53-1.8,1.02-3.61,1.5-5.43,2.13,1.1,3.83,4.26,2.63,7.67Zm471.44-118.62c.07.49.14.98.21,1.47-3.6,6.08-6.52,12.78-9.17,19.57-.85,2.18-1.69,4.38-2.52,6.58.8-4.53,1.47-9.15,1.87-13.77.41-1.82.8-3.64,1.2-5.46,2.42-3.33,5.18-6.23,8.41-8.37Zm115.44,175.58c-.95,1.59-1.9,3.19-2.84,4.78.95-3.43,1.87-6.88,2.76-10.34,1.02,1.44,1.32,3.49.08,5.56ZM66.59,577.94c.49-1.54.99-3.07,1.51-4.59-.48,3.07-.91,6.15-1.34,9.23-.31.52-.64,1.02-.98,1.52.22-2.07.48-4.12.8-6.16ZM369.59,147.48c-.34.79-.68,1.58-1.03,2.36-3.14,6.93-6.83,13.52-11.26,19.24-.92-.73-1.68-1.85-2.04-3.19.24-1.19.49-2.38.77-3.56,2.35-5.55,4.86-11,7.36-16.43,4.08-8.86,8.3-17.64,11.44-27.1,3.7-11.14,7.03-22.46,10.38-33.76,1.31-2.19,2.6-4.4,3.87-6.63-.61,2.81-1.22,5.61-1.84,8.4-2.49,11.14-5.04,22.39-8.15,33.38-3.2,9.08-6.35,18.18-9.5,27.29Zm5.25-37.14c-.27.86-.54,1.72-.82,2.58-1.6,5-3.27,9.91-5.29,14.67-1.8,4.26-3.73,8.44-5.65,12.61.82-2.13,1.65-4.25,2.48-6.34,3.12-7.84,6.33-15.6,9.28-23.52Zm15.65-42.77c1.08-3.47,2.18-6.94,3.31-10.39-.56,2.39-1.11,4.78-1.64,7.18-.56,1.07-1.12,2.14-1.67,3.21Zm297.83-11.49c.35-.43.7-.86,1.06-1.28.08-.1.17-.18.26-.28.08-.04.15-.08.23-.12.12,2.7.18,5.4.17,8.11-1.34,2.91-2.64,5.85-3.92,8.8-.05-1.4-.13-2.8-.24-4.2-.04-.53-.31-1-.65-1.3.56-2.06,1.12-4.12,1.68-6.18.47-1.19.94-2.37,1.42-3.56Zm15.11,197.51c-.67,2.01-1.34,4.01-2,6.02.19-1.18.37-2.36.54-3.55.48-.83.97-1.65,1.46-2.48Zm7.89-7.25c-1.73,6.97-3.57,13.89-5.48,20.78-.04.15-.09.31-.13.46-.87,1.51-1.74,3.03-2.61,4.55,2.44-8.5,4.64-17.15,6.36-25.94.63-.11,1.26-.04,1.86.15Zm-29.76,140.96c2.44-5.27,4.81-10.59,7.15-15.93-1.54,4.17-3.12,8.32-4.75,12.44-8.01,20.27-16.47,40.27-24.86,60.3-2.78,6.63-5.54,13.27-8.29,19.92.73-2.74,1.52-5.45,2.35-8.15,7.26-17.14,14.15-34.51,20.79-52.02.03-.08.06-.17.09-.25,2.49-5.45,5-10.88,7.51-16.31Zm57.72,395.91c-2.58,7.12-5.18,14.24-7.76,21.36,2.76-8.99,5.07-18.22,6.85-27.58,1.18,1.52,1.78,3.81.91,6.22Zm-323.08,566.79c-.76,1.65-1.62,3.24-2.57,4.78,1.87-9.86,3.66-19.74,5.35-29.65,1.08-2.66,2.13-5.33,3.17-8.01,0,.23,0,.47,0,.7-.09,6.88-.64,13.74-2.04,20.22-1.31,3.98-2.61,7.97-3.91,11.96Zm-147.3-89.02c7.21-17.69,14.36-35.42,21.45-53.18-.89,3.1-1.79,6.2-2.69,9.3-4.03,11.26-8.26,22.42-12.78,33.41-2.06,5.01-4.11,10.03-6.09,15.1-.51-1.34-.57-2.95.11-4.62ZM132.77,360.47c4.89-14.11,9.51-28.35,13.96-42.68,3.33-10.02,6.7-20.02,10.13-29.99-2.26,7.94-4.51,15.87-6.77,23.8-11.57,33.77-22.6,67.81-33,102.19,3.17-11.57,6.4-23.11,9.65-34.65,2.01-6.23,4.02-12.45,6.04-18.68Zm25.62-78.08c-.07-.3-.19-.56-.36-.77.7-2.02,1.4-4.04,2.11-6.06.33-.95.67-1.9,1.01-2.85-.92,3.23-1.84,6.45-2.76,9.68ZM471.74,105.65c-3.28,8.34-6.55,16.68-9.82,25.02,1.3-5.06,2.59-10.11,3.89-15.17,2.58-5.2,5.19-10.37,7.82-15.53-.62,1.9-1.24,3.79-1.88,5.67Zm215.81-30.97c-.46,1.78-.91,3.55-1.37,5.33-.01.05-.03.11-.04.16.02-.76.04-1.53.06-2.29.45-1.07.9-2.14,1.36-3.2Zm-49.81,409.16c-1.46,3.74-2.7,7.63-3.35,11.65-1.29-1.06-2.01-2.95-1.23-5.35.05-.15.1-.3.15-.45,1.55-1.86,3.02-3.82,4.43-5.86Zm-365.53,785.05c-.55-.13-1.08-.39-1.57-.76,1.36-3.47,2.74-6.93,4.14-10.37,1.03-2.54,2.08-5.06,3.13-7.59-.92,3.05-1.83,6.1-2.76,9.14-.98,3.2-1.96,6.39-2.95,9.58Zm16.88-47.37c4.66-13.29,8.9-26.86,13.29-40.27,2.28-6.95,4.53-13.92,6.77-20.9,5.94-15.12,11.84-30.26,17.7-45.42-3.9,14.26-7.99,28.45-12.17,42.58-1.17,3.95-2.36,7.9-3.54,11.84-2.15,5.53-4.31,11.06-6.48,16.58-2.57,6.52-5.15,13.02-7.74,19.52-.39.38-.61,1.04-.49,1.69.22,1.16,1.16,2.63,2.13,3.6-.09.28-.17.55-.26.83-7.3,18.28-14.65,36.53-22.07,54.74-.29.7-.64,1.25-1.03,1.66,4.77-15.42,9.38-30.91,13.89-46.45Zm-32.68-886.72c-.02.07-.05.13-.07.2.16-1.83.25-3.67.3-5.51,6.53-19.19,13.23-38.29,20.11-57.29-3.88,12.01-7.69,24.05-11.46,36.11-3,8.81-5.97,17.64-8.88,26.5Zm-25.23,81.74c-6.31,17.8-12.58,35.62-18.81,53.47-.58,1.2-1.15,2.4-1.74,3.59,2.04-6.6,4.08-13.19,6.12-19.79,5.57-15.96,11.2-31.88,16.86-47.78.78-1.93,1.57-3.86,2.35-5.79-.46,1.55-.92,3.09-1.38,4.65-1.13,3.89-2.28,7.77-3.42,11.66Zm343.75-281.65c-3.1,9.9-6.52,19.6-9.96,29.31-1.89,4.74-3.79,9.48-5.68,14.23.79-4.28,1.5-8.59,2.11-12.91,2.06-6.83,4.17-13.65,6.38-20.42,3.55-10.88,7.14-21.74,10.58-32.67-1.16,7.48-2.3,14.97-3.44,22.46Zm37.65,138.66c.07-.75.06-.6.15-1.39.17-1.46.38-2.92.61-4.37,1.19-2.52,2.38-5.04,3.55-7.57.67-1.2,1.33-2.4,1.98-3.6,0,.9,0,1.79.05,2.69-1.87,5.44-3.72,10.9-5.52,16.38-.35.64-.72,1.28-1.08,1.91.02-.81.06-1.61.12-2.41.04-.55.09-1.1.14-1.65Zm74.07-185.08c.96-3.68,1.91-7.36,2.86-11.04-.08,1.31-.17,2.62-.27,3.93-.08,1.02-.16,2.04-.25,3.05-1.56,5.49-3.16,10.96-4.77,16.42.29-2.04.55-4.08.78-6.13.55-2.07,1.1-4.14,1.65-6.22Zm46.82,201.75c-.46.95-.93,1.89-1.39,2.84,1.18-6.34,2.83-12.56,4.59-18.61.82-2.82,1.68-5.62,2.56-8.41-.98,4.72-2.03,9.41-3.17,14.07-.82,3.37-1.69,6.75-2.6,10.11Zm-137.8,868.92c1.72-4.89,3.42-9.78,5.12-14.68,6.54-14.95,12.98-29.98,19.41-45.01-3.25,9.99-6.56,19.95-10.01,29.84-3.91,10.17-7.84,20.34-11.77,30.5-.3.61-.6,1.23-.89,1.84.08-.31.15-.63.23-.94.4-1.64-1.26-2.48-2.09-1.56Zm-170.65,172.35c2.47-7.44,4.98-14.86,7.5-22.27-.26,1.9-.56,3.79-.9,5.67-2.2,5.53-4.41,11.06-6.61,16.59Zm23.15-353.51c.77-1.32,1.53-2.65,2.3-3.97.56.07,1.17-.23,1.42-1.06.31-1.03.65-2.05.97-3.08,5.68-9.76,10.91-20.09,16.29-30.28-5.64,13.76-11.55,27.35-17.66,40.8-1.15,2.53-2.32,5.05-3.48,7.57-2.67,5.14-5.33,10.29-7.99,15.44,1.95-6.08,3.92-12.14,5.89-18.22.78-2.39,1.52-4.8,2.26-7.22Zm-204.49-282.53c-.98,2.06-1.96,4.13-2.94,6.2,5.25-13.57,10.11-27.36,14.27-41.54.31-1.07-.53-2.02-1.32-2,1.94-6.18,3.89-12.34,5.9-18.47,1.37-4.18,2.77-8.34,4.18-12.49,0,.57.25,1.11.59,1.43-1.06,2.26-2.14,4.52-3.23,6.76-.73,1.5,1.04,3.31,2,1.92,1.02-1.48,2.01-2.98,2.99-4.49-7.09,20.35-14.26,40.65-21.58,60.88-.29.6-.57,1.21-.86,1.81Zm-58.15-174.38c4.75-13.84,9.53-27.66,14.33-41.47-3.46,10.45-6.89,20.91-10.28,31.39-1.22,3.14-2.45,6.28-3.67,9.42-.12.22-.25.44-.37.66Zm25.42-66.69c2.17-6.17,4.28-12.38,6.37-18.59-1.98,6.4-3.96,12.81-5.94,19.21-1.92,4.92-3.83,9.85-5.75,14.77,1.75-5.14,3.52-10.27,5.32-15.39Zm25.61-63.96c5.44-17.06,11-34.06,16.69-50.98-.38,2.75-.86,5.48-1.45,8.19-5.1,14.25-10.18,28.52-15.25,42.79Zm16.06-57.92c-1.27,3.77-2.53,7.55-3.79,11.34,1.2-3.72,2.41-7.44,3.63-11.16.05-.06.11-.12.16-.18Zm166.39-108.13c-4.25,9.78-8.48,19.57-12.69,29.36.4-2.57.77-5.15,1.13-7.73,2.22-5.72,4.45-11.43,6.67-17.14,1.63-3.86,3.27-7.71,4.92-11.55.02,2.35,0,4.7-.03,7.06Zm202.98,24.6c.77-1.72,1.53-3.45,2.29-5.18-.85,2.46-1.7,4.92-2.55,7.37.08-.73.16-1.47.26-2.2Zm106.4,51.68c-.56,1.16-1.12,2.31-1.68,3.47-1.06,1.56-2.15,3.08-3.26,4.55-.32.42-.65.81-.97,1.22,1.44-3.98,2.84-7.98,4.18-12.01.58-1.74-1.48-2.56-2.28-1.21,1.44-5.21,2.83-10.45,4.14-15.72.29-.89.58-1.77.87-2.66,3.02-6.17,6.06-12.31,9.14-18.43-3.35,10.02-6.46,20.15-8.56,30.73-.66,3.31-1.21,6.67-1.59,10.05Zm-99.81,772.5c-5.51,12.84-10.99,25.71-16.5,38.56.28-.81.56-1.62.84-2.44,9.04-23.81,18.06-47.64,26.63-71.72-3.64,11.88-7.27,23.76-10.96,35.6Zm34.82-399.69c-1.56,2.56-3.21,5.1-4.95,7.51,2.07-3.72,4.16-7.43,6.29-11.1.74-1.28-.72-3.04-1.74-2.16-1.26,1.08-2.48,2.22-3.67,3.41,3.79-9.33,7.35-18.8,10.27-28.59,1.43-1.54,2.79-3.2,4.1-4.89,2.02-2.63,3.93-5.4,5.77-8.25-1.93,6.44-3.79,12.91-5.59,19.41-3.5,8.22-6.99,16.44-10.47,24.66Zm48.82-344.22c-.26.64-.52,1.29-.79,1.93.13-.53.27-1.07.4-1.6.59-2.02,1.17-4.03,1.75-6.05.16-.14.32-.29.47-.44-.61,2.05-1.23,4.1-1.84,6.16Zm-56.06,349.56c.4-.49.81-.97,1.22-1.45-.84,1.51-1.69,3.02-2.52,4.54.43-1.03.87-2.06,1.3-3.09Zm-3.64.14c.16-1.22.34-2.43.53-3.64,4.05-9.58,8.11-19.15,12.17-28.72.13-.1.26-.2.39-.3.05-.04.1-.08.14-.12-3.39,10.55-7.49,20.76-11.72,30.86-.51.63-1.02,1.27-1.52,1.92Zm24.63-54.52c-1.4,1.53-2.84,3.01-4.34,4.37,2.19-5.15,4.38-10.3,6.58-15.44,1.3-3.03,3.81-3.17,5.64-1.79-.62,1.86-1.22,3.73-1.81,5.6-1.95,2.53-3.97,4.96-6.07,7.26Zm-99.32,246.72c2.43-6.79,4.87-13.58,7.31-20.36-1.64,4.98-3.29,9.96-4.93,14.94-1.75,5.29-3.49,10.57-5.24,15.85.96-3.48,1.91-6.96,2.86-10.44Zm18.83-61.44c.83-1.84,1.66-3.69,2.49-5.53-1.02,2.74-2.05,5.47-3.07,8.21-2.77,7.47-5.51,14.95-8.23,22.44,1.36-4.87,2.72-9.75,4.1-14.61,1.57-3.5,3.14-7.01,4.72-10.51Zm-12.5,28.7c-2.52,9.13-5.01,18.28-7.51,27.42-8.8,24.56-17.5,49.16-26.31,73.71-1.59,3.65-3.18,7.3-4.77,10.95,2.36-7.52,4.72-15.05,7.06-22.58,5.88-18.91,11.71-37.84,17.57-56.76,4.66-10.91,9.32-21.82,13.96-32.74Zm-44.81,104.23c3.17-7.27,6.34-14.54,9.49-21.82,3.73-8.61,7.43-17.24,11.14-25.86-8.11,26.1-16.21,52.2-24.39,78.26-5.57,12.64-11.17,25.26-16.81,37.85-.47,1.05-1.09,1.74-1.77,2.15-.03-.92-.12-1.85-.42-2.43-.52-.99-1.9-1.51-2.79-1.88,8.15-22.3,16.71-44.37,25.56-66.26Zm132.78-309.4c1.27-1,2.48-2.12,3.65-3.28-.45.66-.89,1.33-1.35,1.98-.97,1.38-1.98,2.74-3.01,4.06.24-.92.48-1.84.7-2.77Zm24.48-111.08c5.47,0,5.46,10.55,0,10.55s-5.46-10.55,0-10.55Zm-183.87,489.66c.53.21,1.05.48,1.56.79.03.3.05.6.07.89-.66-.21-1.29-.6-1.83-1.13.07-.18.13-.37.2-.55Zm-42.34,178.02c4.08-11.41,8.06-22.88,11.9-34.42,3.93-10.36,7.83-20.74,11.68-31.15-4.97,15.02-9.7,30.16-15.11,44.94-2.86,7.83-5.9,15.7-9.34,23.28.29-.89.59-1.77.88-2.66Zm148.36-429.08c4.84-10.56,9.75-21.07,14.78-31.48-2.48,6.9-4.92,13.82-7.4,20.74-8.62,24.08-17.3,48.13-25.84,72.26,6.01-20.57,12.14-41.09,18.46-61.52Zm12.9-33.59s0-.01,0-.02c2.07-5.18,4.08-10.38,6.06-15.6,1.91-4.53,3.82-9.05,5.73-13.58,1.82-3.27,3.72-6.5,5.73-9.6,0,.05,0,.1,0,.15-.25.59-.5,1.19-.75,1.78-2.16,5.14-4.23,10.34-6.24,15.56-3.58,7.05-7.09,14.16-10.53,21.31Zm85.37-402.84c.87-2.22,1.73-4.44,2.57-6.67.43-.46.85-.93,1.28-1.4-1.29,2.69-2.57,5.38-3.85,8.08Zm-1.86-6.19c.04-.16.07-.31.11-.47.16-.56.32-1.11.48-1.67.45-1.08.9-2.16,1.35-3.25-.47,1.62-.95,3.24-1.43,4.85-.18.17-.34.36-.52.53Zm-248.14,885.44c-3.9,10.8-7.79,21.61-11.65,32.43,2.9-9.09,5.83-18.17,8.78-27.24.99-1.7,1.94-3.43,2.87-5.19Zm156.8-439.4c6.74-18.79,13.13-37.82,20.34-56.35,2.65-5.2,5.34-10.37,8.08-15.49,2.07-1.85,3.99-3.96,5.79-6.23-2.62,6.2-5.25,12.4-7.87,18.6-11.21,26.56-22.4,53.14-33.6,79.71,2.42-6.74,4.84-13.49,7.26-20.23Zm61.08-143.82c.58-1.03,1.16-2.06,1.73-3.1-.04.61-.07,1.22-.11,1.83-1.45,3.4-2.89,6.8-4.34,10.19.89-2.98,1.8-5.95,2.73-8.92Zm21.57-281.7c-1.37,4.68-2.76,9.36-4.16,14.03-.1.23-.2.46-.3.68-.47.42-.95.83-1.44,1.23,1.85-5.38,3.84-10.69,5.9-15.95Zm-311.02-42.63c-2.56,7.09-5.12,14.19-7.69,21.27-3.89,10.72-7.86,21.41-11.98,32,5.78-19.19,11.47-38.42,17.2-57.64,1.77-4.17,3.53-8.35,5.31-12.52.5-1.18,1.01-2.36,1.52-3.54-.68,3.43-1.39,6.86-2.11,10.27-.72,3.39-1.48,6.77-2.25,10.15Zm-159.76,411.34c-2.78,6.96-5.65,13.87-8.58,20.74,2.31-7.23,4.62-14.45,6.99-21.64,3.04-9.21,6.33-18.43,10.3-27.13-2.88,9.36-5.76,18.71-8.71,28.03Zm46.48-113.2c3.19-7.95,6.26-15.97,9.23-24.05.79-1.5,1.57-3,2.36-4.49-3.75,9.85-7.5,19.69-11.25,29.54-.66,1.28-1.33,2.55-1.99,3.81.55-1.6,1.1-3.2,1.65-4.81Zm38.34-121.91c-.12.22-.23.45-.35.67.32-.91.65-1.83.97-2.74-.21.69-.41,1.38-.62,2.07Zm-6.93,19.31c-.16.39-.32.79-.48,1.18.1-.28.2-.57.31-.85.06-.11.11-.22.17-.33Zm.68,11.88c.48-1.61.93-3.24,1.39-4.86,4.28-11.1,8.54-22.21,12.75-33.35,1.72-3.89,3.43-7.77,5.15-11.66.52-.8,1.04-1.61,1.55-2.43-.64,2.16-1.29,4.32-1.94,6.49-1.87,6.33-3.75,12.66-5.62,18.99-4.13,9.28-8.39,18.48-13.33,27.01.02-.06.04-.12.05-.18Zm26.87-63.3c1.18-2.38,2.32-4.81,3.42-7.26-1.88,4.9-3.77,9.79-5.65,14.69.74-2.48,1.49-4.96,2.23-7.43Zm-30.04,73.58c.29-.43.58-.86.86-1.3-.48,1.03-.96,2.05-1.44,3.08.2-.59.39-1.18.58-1.78Zm18.25-59.02c6.46-19.07,12.95-38.12,19.51-57.13,1.5-3.6,2.95-7.22,4.44-10.83,1.86-4.54,3.74-9.07,5.61-13.61-9.63,27.21-19.39,54.34-29.4,81.34-.05.08-.1.16-.16.23Zm-30.36,76.26c1.02-1.9,2-3.83,2.94-5.76.16-.07.32-.18.47-.34.17-.19.33-.38.5-.57-2.46,6.34-4.92,12.67-7.38,19.01-.77,1.15-1.58,2.23-2.44,3.21,1.98-5.18,3.95-10.36,5.91-15.55Zm-6.48,20.11c-.2.51-.39,1.01-.59,1.52-1.07,1.86-2.17,3.71-3.3,5.52.73-1.89,1.46-3.77,2.19-5.66.58-.42,1.15-.87,1.7-1.37Zm-12.42,32.25c-1.13,2.3-2.24,4.61-3.34,6.92,2.52-7,5.05-13.99,7.57-20.99.8-1.02,1.59-2.06,2.36-3.12-2.21,5.72-4.4,11.45-6.6,17.19Zm23.06-42.32c-1.17,1.92-2.32,3.85-3.47,5.79.86-2.5,1.71-4.99,2.55-7.5,2.82-5.75,5.5-11.54,8.13-17.17-2.4,6.29-4.81,12.58-7.21,18.88Zm62.54-167.51c-2.65,6.22-5.33,12.42-8.01,18.61-2.03,4.61-4.06,9.21-6.09,13.81,4.21-13.6,8.49-27.17,12.87-40.7,4.07-11.59,8.13-23.19,12.19-34.79,2.4-5.73,4.81-11.46,7.22-17.18-3.51,11.79-7.02,23.58-10.56,35.35-2.5,8.31-5.05,16.61-7.61,24.9Zm24.89-82.93c.08-.22.15-.44.23-.67-.04.13-.08.27-.12.4-.04.09-.08.18-.11.27Zm-167.25,436.39c2.11-5.6,4.23-11.21,6.34-16.81-2.81,8.15-5.6,16.31-8.37,24.46.25-.89.49-1.78.73-2.67.44-1.66.87-3.32,1.31-4.98Zm-10.65,28.34c1.69-2.62,3.14-5.44,4.41-8.4-1.12,3.27-2.24,6.54-3.37,9.8-.09.06-.17.14-.25.23-.87.99-1.71,2.01-2.54,3.05.58-1.56,1.17-3.12,1.75-4.67Zm67.91-164.5c-.17.51-.35,1.01-.52,1.51-2.23,5.56-4.51,11.09-6.87,16.58,1.77-4.71,3.54-9.41,5.32-14.11.69-1.33,1.37-2.66,2.06-3.99Zm119.26-322c1.02-3.4,2.05-6.8,3.08-10.19-.28,1.68-.57,3.36-.87,5.04-.74,1.72-1.48,3.44-2.21,5.16Zm-193.98,504.63c1.52-2.89,3.15-5.69,4.91-8.33-.14.41-.28.81-.42,1.22-4.63,10.48-9.23,20.99-13.66,31.59,3.05-8.16,6.11-16.32,9.17-24.48Zm42.98-108.53c-.3.51-.59,1.02-.89,1.53.82-2.21,1.64-4.41,2.47-6.61-.53,1.69-1.06,3.38-1.58,5.07Zm17.33-44.67c-.24.65-.48,1.29-.72,1.94.14-.42.28-.84.43-1.26.1-.23.19-.45.29-.68Zm101.59,405.06c4.24-9.64,8.53-19.25,12.82-28.85,1.04-2.22,2.08-4.45,3.09-6.69-5.78,15.49-11.59,30.97-17.42,46.43-1.3,1.02-2.52,2.15-3.67,3.4,1.73-4.76,3.44-9.53,5.17-14.29Zm151.6-761c-.28.26-.56.52-.84.77.55-1.85,1.1-3.7,1.66-5.55.11-.03.22-.08.33-.15.47-.33.93-.68,1.4-1.02-.35.82-.7,1.64-1.06,2.45-.5,1.16-.99,2.33-1.49,3.49Zm-139.15,726.47c8.31-23.17,16.57-46.37,24.81-69.58.36-.02.74-.24,1.03-.76.88-1.58,1.75-3.16,2.61-4.75.37-.38.75-.77,1.12-1.15-7.37,21.89-15.3,43.54-24.31,64.46-1.75,3.93-3.5,7.85-5.26,11.77Zm187.41-513.85c-.28.63-.56,1.26-.84,1.89,1.47-4.08,2.93-8.17,4.34-12.3.95-2.79,1.9-5.59,2.85-8.39,1.75-4.66,3.49-9.34,5.21-14.02,1.52-2.77,3.04-5.53,4.57-8.29-2.43,6.72-4.86,13.45-7.28,20.17-2.88,7.03-5.83,14.02-8.85,20.94Zm-249.95,343.27c.8-1.12,1.59-2.24,2.41-3.34-3.96,11.02-7.9,22.04-11.84,33.07,3.01-9.97,6.17-19.88,9.43-29.73Zm4.1-33.72c4.97-13.76,9.95-27.51,14.95-41.26-3.23,10.97-6.34,22-9.25,33.12-.09.35-.04.71.08,1.05-4.09,13.2-8.23,26.36-12.41,39.51-1.2,1.69-2.39,3.39-3.56,5.11,3.43-12.49,6.82-25,10.19-37.52Zm-14.69,44.29c-.94,1.45-1.86,2.91-2.78,4.38,2.15-6.02,4.3-12.04,6.45-18.05.11-.31.23-.63.34-.94-1.33,4.88-2.67,9.75-4.02,14.62Zm185.39-489.28c.5-1.4,1-2.81,1.5-4.21.42-1.18.85-2.36,1.27-3.53-.54,2.41-1.07,4.83-1.6,7.25-.39.2-.78.38-1.17.57,0-.03,0-.05,0-.08Zm-.06,3.48c.13-.06.27-.12.4-.18-.09.43-.19.86-.28,1.29-.03.15-.06.29-.09.44-.01-.52-.02-1.03-.02-1.55Zm-65.66,181.25c3.08-10.05,6.27-20.04,9.52-30.01-1.08,3.83-2.14,7.67-3.18,11.53-1.36,4.13-2.72,8.25-4.08,12.38-.75,2.03-1.51,4.07-2.26,6.1Zm36.43-100.21c.53-.67,1.05-1.35,1.55-2.06-2.87,7.69-5.74,15.37-8.6,23.06,2.34-7.01,4.69-14.01,7.05-21.01Zm-39.21,100.41c-3.75,12.26-7.37,24.59-10.96,36.93-4.41,11.9-8.82,23.8-13.23,35.69-4.9,13.19-9.78,26.39-14.66,39.59-.35.61-.7,1.21-1.04,1.83,19.47-60.2,39.37-120.18,58.72-180.43,1.47-4.59,2.94-9.18,4.41-13.77,1.07-2.89,2.15-5.78,3.22-8.67.35-.71.71-1.41,1.06-2.12.88-.34,1.75-.75,2.59-1.22-10.07,30.71-20.62,61.21-30.1,92.18Zm-63.16,158.49c.42-.42.83-.85,1.24-1.28-.22.69-.44,1.38-.67,2.08-5.88,18.11-12.1,36.05-18.39,53.93,5.88-18.27,11.83-36.5,17.82-54.73Zm2.39-7.26c1.51-4.59,3.03-9.19,4.55-13.78,3.33-10.06,6.62-20.13,9.92-30.21.84-2.27,1.68-4.55,2.52-6.82-5.18,16.33-10.36,32.65-15.61,48.94-.45.63-.91,1.26-1.37,1.87Zm47.52-133.05c4.59-12.34,9.17-24.68,13.74-37.02-14.22,44-28.43,88-42.57,132.04,4.96-16.49,9.96-32.96,14.97-49.42,4.62-15.2,9.25-30.39,13.86-45.6Zm-26.13,77.1c-4.21,13.9-8.39,27.82-12.54,41.74-.57,1.05-1.15,2.11-1.75,3.16,4.8-14.95,9.54-29.93,14.29-44.91Zm69.12-190.72c1.5-3.05,2.98-6.11,4.42-9.2-.86,2.66-1.72,5.32-2.59,7.97-.6.44-1.21.85-1.83,1.22Zm-141.48,397.13c-4.74,14.84-9.52,29.66-14.32,44.48,3.84-13.24,7.59-26.52,11.27-39.84,1-1.56,2.02-3.1,3.05-4.64Zm47.28-128.36c2.4-7.23,4.76-14.48,7.11-21.74.65-.91,1.29-1.84,1.92-2.79-4.1,13.84-8.16,27.7-12.17,41.59-6.49,17.76-12.97,35.53-19.41,53.32-1,1.2-2.05,2.31-3.15,3.32,8.68-24.52,17.51-48.97,25.7-73.7Zm225.57-271.81s-.05.09-.08.14c2.27-5.51,4.72-10.89,7.4-16.08-1.02,2.82-2.06,5.64-3.08,8.47-1.43,2.51-2.85,5-4.24,7.47Zm-2.42-1.04c-2.26,5.58-4.34,11.24-6.35,16.85-2.55,4.62-5.09,9.25-7.66,13.85.69-2.74,1.33-5.5,1.9-8.29.04-.18.04-.36.03-.53.38-.8.77-1.59,1.15-2.39,4.66-9.7,9.22-19.51,14.23-28.94-1.09,3.16-2.19,6.31-3.3,9.46Zm23.14-52.24c-1.89,3.69-3.96,7.22-6.27,10.44,2.13-6.55,4.24-13.1,6.36-19.66.78.9,1.34,2.12,1.47,3.49-.5,1.91-1.02,3.82-1.56,5.72Zm-6.14-8.09c.86-2.36,2.45-3.03,3.97-2.63-2.42,7.5-4.82,14.99-7.25,22.45-.4,1.23-.81,2.45-1.21,3.68-.91.66-1.87,1.06-2.83.93-.5-.07-.94-.29-1.35-.61,2.89-7.94,5.77-15.88,8.66-23.82Zm-124.38,346.27c4.86-13.56,9.71-27.12,14.56-40.69-.61,2.08-1.22,4.16-1.82,6.24-.7,1.96-1.4,3.92-2.12,5.87-3.33,9.12-6.57,18.26-9.82,27.41-.27.39-.53.78-.81,1.16Zm114.99-308.53c-4.86,8.23-9.29,16.81-13.57,25.51,4.42-12.21,8.84-24.42,13.28-36.63,1.12.82,2.42,1.15,3.92.76-1.07,3.23-2.14,6.45-3.22,9.67-.14.23-.27.46-.41.69Zm6.97-12.18c.15-.12.31-.22.46-.35-.26.44-.52.89-.79,1.33.11-.33.21-.65.32-.98Zm-124.78,328.85c.19-.21.37-.43.55-.65-.67,1.89-1.34,3.78-2.02,5.67-.32.91-.65,1.82-.98,2.73.81-2.59,1.63-5.17,2.45-7.75Zm-30.89,102.61c2.95-6.02,5.97-11.98,9.07-17.89-4.14,12.25-8.42,24.41-12.74,36.56-2.2,6.07-4.41,12.14-6.62,18.21-1.82,4.57-3.69,9.11-5.62,13.61,4.75-15.49,9.36-31.03,13.99-46.5.64-1.33,1.27-2.67,1.92-3.99Zm2.91-12.03c.33-.82.66-1.64.98-2.46,9-23.01,17.28-46.45,25.34-70.01-4.89,17.23-9.87,34.43-15.15,51.47-3.83,6.9-7.55,13.91-11.16,21Zm107.27-305.31c4.82-12.38,9.8-24.76,13.78-37.6.45-.79.91-1.59,1.36-2.38,1.36-2.39,2.71-4.79,4.05-7.19-7.79,20.71-15.98,41.18-24.58,61.37,1.76-4.76,3.56-9.49,5.39-14.21Zm41.2-101.16c1.7-2.88,3.4-5.75,5.11-8.62-.14.39-.28.78-.43,1.17-1.67,2.46-3.25,5.01-4.75,7.65.02-.07.04-.13.07-.2Zm-129.95,346.2c-.09.25-.18.51-.28.76.07-.21.13-.42.2-.63.03-.04.05-.09.08-.13Zm-42.5,118.61c-.23.65-.46,1.31-.7,1.96-.05.02-.11.04-.16.07.28-.67.57-1.35.85-2.03Zm.9,5.22c2.57-7.24,5.16-14.47,7.74-21.71-3.93,12.98-7.92,25.93-12.04,38.82-1.37,2.02-2.69,4.09-3.97,6.2,2.76-7.77,5.51-15.54,8.27-23.31Zm211.09-634.81c-.26,1.07-.53,2.13-.79,3.2-1.6,4.28-3.19,8.56-4.74,12.86,1.52-5.04,3.07-10.06,4.66-15.06.29-.33.59-.66.88-.99Zm-179.07,533.4c-1.6,5.12-3.2,10.23-4.79,15.35-1.48,4.77-2.95,9.55-4.4,14.33-1.35,3.77-2.7,7.55-4.06,11.32-3.27,7.86-6.65,15.65-10.04,23.45,7.79-21.47,15.55-42.95,23.29-64.44Zm-37.44,108.92c-2.07,5.84-4.14,11.67-6.22,17.51,1-4.13,2.13-8.22,3.38-12.25.92-1.78,1.85-3.54,2.84-5.26Zm113.93-315.08c1.5-4.5,3.01-8.99,4.54-13.48,1.68-3.69,3.35-7.39,5-11.09-3.71,9.71-7.4,19.43-11.05,29.16.51-1.53,1-3.06,1.51-4.59Zm112.75-356.24c-.12-.49-.23-1-.31-1.51.9-2.44,1.81-4.88,2.73-7.31-.79,2.94-1.6,5.88-2.42,8.81Zm-140.52,103.54c.18-.5.37-1,.55-1.5-.55,2.09-1.1,4.19-1.65,6.28.36-1.6.73-3.19,1.1-4.78Zm12.52-46.6c.06-.21.11-.43.17-.64.15-.39.31-.78.46-1.18-.17.58-.34,1.15-.5,1.73-.04.03-.08.06-.12.09Zm-13.99,36.01c-.17.94-.33,1.88-.48,2.82-.14.9.29,1.65.86,1.89-.3,1.24-.59,2.47-.88,3.71-.82,2.2-1.63,4.41-2.44,6.62-1.41,3.87-2.81,7.75-4.21,11.62.92-6.16,2.33-12.25,3.85-18.03,1.1-2.88,2.19-5.76,3.3-8.63Zm-10.72,44.35c.12,2.19.34,4.35.67,6.5,0,.03-.01.06-.02.08-7.11,18.75-14.18,37.53-21.21,56.32-1.03,2.01-2.13,3.98-3.29,5.88,7.8-23,15.72-45.94,23.85-68.78Zm-202.27,533.32c3.89-11.01,7.8-22.02,11.72-33.02,1.64-2.86,3.31-5.69,5.01-8.5-6.77,24.26-13.76,48.41-21.21,72.32-5.26,16.87-10.77,33.62-16.59,50.2,2.27-11.59,4.54-23.17,6.85-34.75,4.67-15.45,9.39-30.88,14.21-46.26Zm35.57-73.83c-.9,1.15-1.79,2.31-2.67,3.47,3.72-11.04,7.55-22.03,11.42-32.99.93-.65,1.82-1.38,2.69-2.17-3.82,10.56-7.63,21.12-11.44,31.69Zm82.63,97.79c-.59,2.88-1.11,5.77-1.54,8.7-.51,1.04-1.01,2.1-1.51,3.15-.87.94-1.74,1.89-2.61,2.84,1.86-4.91,3.74-9.81,5.65-14.69Zm96.8-253.44c2.46-4.21,4.79-8.56,7.02-12.99-.02.05-.04.09-.05.14-4.47,11.53-8.96,23.07-13.84,34.34,2.31-7.15,4.6-14.32,6.87-21.49Zm21.56-50.78c-5.65,12.42-11.13,25.34-17.37,37.55,1.1-3.48,2.2-6.97,3.3-10.45,10.98-29.96,22.09-59.84,33.49-89.56,3.41-8.87,6.88-17.7,10.32-26.54,2.92-6.01,5.8-12.05,8.62-18.13-8.83,24.58-17.65,49.17-26.45,73.78-3.98,11.12-7.95,22.24-11.92,33.36Zm125.64-397.61c-.65,1.6-1.32,3.2-2.01,4.78-.1.23-.21.46-.31.69,0,0-.02.01-.02.02.2-.76.4-1.51.59-2.27.74-1.61,1.51-3.19,2.32-4.74-.19.5-.38,1.01-.57,1.51Zm1.21-23.53c-1.33,3.08-2.63,6.18-3.9,9.29.18-.69.36-1.38.54-2.06,1.14-2.71,2.33-5.38,3.58-8.01-.07.26-.15.52-.23.78Zm-129.75,94.46c-3.27,6.36-6.83,12.47-10.74,18.23.2-.75.4-1.5.6-2.24,2.99-7.59,6.06-15.13,9.28-22.58.32-.75.65-1.5.98-2.26,2.05-2.02,4-4.21,5.86-6.49-1.99,5.11-3.99,10.22-5.97,15.34Zm-30.82,58.66c-.06-.85-.09-1.71-.11-2.57.25-.65.49-1.29.74-1.94-.24,1.5-.45,3-.63,4.51Zm-25.66,79.17c1.23-3.85,2.47-7.69,3.69-11.54,6.78-21.32,13.09-42.88,19.69-64.3.23,1.95.57,3.89,1.01,5.8-8.3,23.25-16.41,46.62-24.39,70.05Zm-203.22,562.09c-.28,1.4-.56,2.8-.84,4.21-3.43,9.37-6.98,18.69-10.64,27.92.26-.9.52-1.79.78-2.68,4.89-16.84,9.82-33.66,14.81-50.45-1.37,7-2.74,14-4.11,21Zm-18.2,55.18c.1-.09.19-.2.27-.33.04-.07.09-.14.13-.22-.45,1.27-.9,2.54-1.35,3.81.32-1.09.63-2.17.95-3.26Zm154.51-102.64c.31-.35.61-.71.92-1.06-.62,1.41-1.25,2.82-1.86,4.24.31-1.06.62-2.12.94-3.18Zm-3.99,17.13c-1.28,3.6-2.57,7.21-3.85,10.81.38-1.41.77-2.83,1.15-4.24.9-2.19,1.8-4.38,2.7-6.57Zm78.88-33.14c-.47-.13-1,.04-1.37.68-.05.08-.09.16-.14.24-.21-.13-.45-.2-.68-.18,5.31-13.87,10.31-27.94,14.92-42.22,2.01-6.23,10.21-3.49,8.18,2.8-1.76,5.44-3.57,10.86-5.44,16.24-5.28,7.35-10.43,14.84-15.47,22.44Zm.42-167.23c5.28-16.56,10.58-33.12,15.91-49.65,2.78-5.48,5.39-11.08,7.88-16.77-7.92,22.15-15.84,44.29-23.79,66.43Zm195.42-599.59c-2.36,8.56-4.69,17.12-7.21,25.6-1.69,5.68-3.45,11.33-5.34,16.92-.28.78-.57,1.56-.85,2.34-.92,1.25-1.8,2.53-2.65,3.86,2.85-8.79,5.46-17.71,7.65-26.8.32-1.32-.78-2.23-1.65-1.9.37-1.15.74-2.3,1.13-3.44,2.87-8.57,6-17.59,10.22-25.48-.42,2.97-.86,5.93-1.31,8.89Zm-13.14,21.11c-.08.25-.16.49-.24.74-.83,1.42-1.64,2.85-2.43,4.3,1.59-4.53,3.15-9.07,4.69-13.63-.67,2.86-1.35,5.72-2.03,8.58Zm-31.48,87.23c-.03.09-.05.17-.08.26-.1.24-.21.48-.31.73.24-.7.48-1.39.73-2.09-.11.37-.22.74-.34,1.1Zm-119.03,64.33c.16-1.57.33-3.13.52-4.69,1.03-3.93,2.06-7.87,3.08-11.81.5-.67.99-1.35,1.48-2.03,1.09-.98,2.14-1.99,3.2-2.99-2.77,7.17-5.53,14.35-8.28,21.53Zm25.79-66.65c-1.94,2.79-3.99,5.53-6.16,8.1.59-1.37,1.17-2.73,1.76-4.1,1.71-1.61,3.32-3.35,4.87-5.2-.16.4-.31.81-.47,1.21Zm-6.35,1.76c-.81.77-1.65,1.51-2.5,2.21.33-1.44.67-2.87,1.03-4.3.61-1.98,1.21-3.97,1.82-5.95,4.75-10.54,9.34-21.1,13.64-31.86-3.4,13.88-8.55,27.04-14,39.9Zm-296.23,819.14c1.92-6.93,3.77-13.88,5.56-20.86,5.31-17.98,10.44-36.04,15.36-54.22,1.78-6.57,3.54-13.14,5.31-19.71,3.46-9.93,6.93-19.86,10.39-29.78,1.02-2.93,2.04-5.85,3.06-8.78-13.04,43.61-25.66,87.42-38.43,131.16-.42.73-.84,1.45-1.25,2.19Zm149.59-89.46c1.39-3.07,2.78-6.13,4.17-9.2.59-1.31,1.17-2.62,1.76-3.94-2.67,9.67-5.49,19.28-8.75,28.63-.65,1.8-1.3,3.61-1.95,5.41-1.84,4.94-3.82,9.81-6,14.55-.32.69-.19,1.33.13,1.77-.05.15-.11.3-.16.44-.47,1.3-.94,2.59-1.41,3.89-4.59,10.5-9.07,21.06-13.43,31.69,5.88-17.06,11.82-34.08,17.81-51.08,2.61-7.39,5.21-14.78,7.83-22.17Zm-63.18,188.24c1.1-3.83,2.23-7.65,3.38-11.47.85-2.2,1.7-4.4,2.54-6.6-1.48,4.83-2.98,9.65-4.5,14.45-.47,1.21-.95,2.41-1.42,3.61Zm16.58-43.76c1.83-5.8,3.74-11.55,5.67-17.3,7.53-20.08,14.97-40.22,22.34-60.4,1.42-2.32,2.97-4.51,4.7-6.47-11.47,30.35-23.06,60.64-34.79,90.85.69-2.23,1.38-4.45,2.08-6.67Zm131.29-193.22c-.69,1.63-1.39,3.25-2.08,4.88.38-1.08.76-2.15,1.16-3.22.31-.55.62-1.1.92-1.65Zm4.15-3.05c1.79-4.22,3.57-8.44,5.34-12.67,4.25-6.5,8.58-12.92,12.99-19.23-2.73,7.63-5.55,15.2-8.47,22.72-6.74,11.5-12.83,23.56-19.21,35.37,3.06-8.76,6.28-17.43,9.34-26.19ZM678.04,120.96s-.08-.03-.12-.04c.18-.65.36-1.3.54-1.95-.13.66-.28,1.32-.41,1.99Zm-7.04,7.56c-3.11,4.78-5.59,10.33-7.79,15.75.88-3.86,1.75-7.71,2.62-11.57,1.96-4.05,4.02-8.03,6.2-11.89-.34,2.57-.68,5.14-1.04,7.71Zm-54.11,146.3c-.53,1.54-1.05,3.08-1.58,4.62-.12,0-.24-.01-.36-.03.28-.85.57-1.69.85-2.54.37-.68.73-1.37,1.09-2.05Zm-64.04-80.15c.91-3.14,1.82-6.29,2.73-9.43-.36,1.8-.74,3.59-1.13,5.38-.54,1.35-1.07,2.7-1.6,4.04Zm-5.34,9.08c-1.72,5.96-3.49,11.96-5.35,17.96-2.06,5.22-4.11,10.45-6.16,15.68-1.91,3.21-3.96,6.27-6.2,9.09,5.55-13.63,10.47-27.66,13.13-42.56.14-.79-.11-1.38-.5-1.68,1.39-3.69,2.75-7.39,4.05-11.15,1.19-3.42,2.35-6.86,3.51-10.3,2.72-6.02,5.46-12.02,8.16-18.05.53-1.19,1.07-2.38,1.6-3.56-.18,1.63-.38,3.25-.59,4.87-4,13.18-7.82,26.43-11.64,39.72Zm-128.82,31.01c-5.88,14.34-11.4,28.88-16.77,43.51.91-4.5,1.77-9.03,2.57-13.56,4.76-11.1,9.54-22.19,14.34-33.27-.04,1.11-.09,2.21-.14,3.32Zm-243.43,620.57c.83-2.22,1.65-4.44,2.48-6.65-3.82,12.08-7.19,24.37-10.85,36.52-.36-.17-.71-.36-1.06-.58,3.09-9.79,6.22-19.56,9.43-29.29Zm21.56-50.87c-5.86,16.26-11.8,32.48-17.81,48.67,5.18-16.64,11.28-32.78,17.81-48.67Zm28.29,278.72c.2-.4.4-.81.6-1.21-.4,1.18-.8,2.36-1.19,3.55.2-.78.4-1.56.59-2.34Zm119.82-15.36c.8-2.09,1.58-4.19,2.38-6.28-3.81,11.11-7.6,22.22-11.35,33.36-1.79,5.32-3.55,10.64-5.33,15.97,1.64-6.08,3.26-12.16,4.82-18.27,3.17-8.25,6.33-16.51,9.48-24.78Zm-44.53,136.56c-.25.79-.66,1.78-1.01,2.8-.08-.11-.15-.22-.22-.32.71-1.78,1.41-3.56,2.12-5.34-.3.95-.6,1.9-.89,2.85Zm131.98-203.99c6.19-13,12.24-26.1,18.08-39.34-.13.43-.26.85-.38,1.28-4.23,9.78-8.48,19.55-12.75,29.29-1.66,2.91-3.31,5.83-4.94,8.76Zm-7.23,18.83c-2.63,5.93-5.27,11.85-7.91,17.77.37-1.7.75-3.39,1.11-5.09,2.25-4.24,4.52-8.47,6.79-12.68Zm23.73,228.07c-.65,2.09-1.3,4.17-1.95,6.27-3.63,11.83-7.81,23.53-11.9,35.3-.27-.82-1.17-1.44-1.83-.83-.2.18-.38.39-.58.58,5.46-13.74,10.89-27.5,16.25-41.32Zm-13.26,57.55c.2-1.92.34-3.88.39-5.82,9.03-26.22,18.34-52.3,27.73-78.33,5.3-14.69,10.62-29.37,15.94-44.05.36-.02.7-.26.92-.81,6.75-17.51,13.52-35.02,20.22-52.57-5.27,18.55-11.13,36.85-17.12,54.95-14.87,42.89-31.41,84.8-48.08,126.64Zm258.84-418.38c-.51,1.42-1.01,2.85-1.53,4.26-1.64,4.49-3.36,8.96-5.14,13.37,2.21-5.88,4.44-11.76,6.68-17.63Zm25.12-74.53l.41-1.14c-.01.06-.03.12-.04.17-.12.32-.25.65-.37.97Zm-5.82,16.29c-.13.26-.26.52-.39.78.84-2.3,1.67-4.6,2.51-6.9-.72,2.03-1.43,4.07-2.12,6.11Zm-14.8-468.74c.19-.13.37-.26.56-.39-.51,1.17-1.03,2.34-1.54,3.51.32-1.04.65-2.08.98-3.12Zm-24.51-235.6c-.11.12-.21.25-.31.37.4-3.02.8-6.05,1.19-9.07.87-1.42,1.75-2.82,2.65-4.2-1.16,4.3-2.34,8.61-3.53,12.9Zm-4.32-5.16c1.1-2.92,2.2-5.83,3.31-8.74-.17,1.31-.33,2.61-.5,3.92-.96,1.59-1.89,3.2-2.81,4.82Zm-228.94,63.66c-.8,1.83-1.6,3.67-2.4,5.5,1.02-2.9,2.05-5.8,3.08-8.7-.23,1.07-.45,2.13-.68,3.2Zm6.81-20.32c3.43-9.5,6.91-18.97,10.47-28.4-1.43,5.59-2.87,11.18-4.32,16.77-2.62,6.7-5.24,13.4-7.86,20.09.58-2.82,1.15-5.64,1.71-8.46Zm-23.73,59.32c-.97,2.27-1.93,4.54-2.88,6.82.03-.95.06-1.9.08-2.85,1.05-2.42,2.09-4.84,3.14-7.25.78-1.79-1.42-3.39-2.2-1.6-.3.68-.59,1.36-.89,2.04,0-2.28-.04-4.55-.09-6.83.89-2.07,1.77-4.14,2.67-6.21,3.11-7.15,6.25-14.27,9.42-21.38-.58,6.7-2.33,13.4-4.04,19.53-1.66,5.94-3.44,11.84-5.22,17.73Zm-169.53,104.84c-.08.08-.16.16-.25.24.4-1.21.8-2.41,1.19-3.62,1.07-2.93,2.15-5.86,3.23-8.8-1.4,4.05-2.8,8.11-4.18,12.17Zm-90.86,258.31c4.41-11.62,8.87-23.22,13.35-34.8-.4,1.28-.81,2.55-1.21,3.83-7.31,23.37-14.67,46.72-22.49,69.83,1.28-6.72,2.61-13.43,4.01-20.1,2.11-6.25,4.22-12.51,6.33-18.76Zm36.68-94.65c-.9,2.9-1.81,5.8-2.71,8.69-.86,1.62-1.72,3.23-2.59,4.84,1.77-4.51,3.53-9.03,5.3-13.54Zm-35.72,397.84c.33.21.66.39,1.01.57-2.24,5.96-4.5,11.91-6.75,17.86.02-.06.04-.12.06-.18,1.88-6.09,3.78-12.17,5.69-18.24Zm5.16-1.62c-.24-.03-.47-.06-.71-.1,2.02-5.4,4.05-10.79,6.06-16.2,2.07-5.55,4.15-11.1,6.22-16.66-3.82,11-7.68,21.99-11.57,32.95Zm-1.14,3.21c-1.35,3.79-2.71,7.58-4.07,11.36,1.2-3.81,2.36-7.64,3.51-11.48.19.04.38.08.56.11Zm66.11-169.55c-.66,1.8-1.32,3.6-1.98,5.39-.16.42-.17.81-.1,1.15-2.93,7.77-5.85,15.54-8.77,23.31,3.04-8.28,5.93-16.64,8.71-25.05.71-1.6,1.42-3.2,2.14-4.8Zm-10.8,347.41c1.29-4.15,2.61-8.3,3.94-12.44-2.91,11.5-5.83,23-8.81,34.48-2.26,4.99-4.38,10.07-6.41,15.21,3.7-12.47,7.43-24.91,11.28-37.25Zm-56.68,181.37c.14-.52.27-1.05.4-1.57,3.5-10.83,7.03-21.65,10.67-32.41,3.44-10.19,7.05-20.28,10.39-30.52,6.49-19.92,12.48-40.09,19.39-59.79.85-2.42,1.71-4.84,2.59-7.26-5.12,16.89-10.19,33.8-15.34,50.68-1.43,4.69-2.86,9.37-4.31,14.05-8.3,24.86-16.78,49.63-25.15,74.46-.69,1.59-1.39,3.18-2.09,4.76,1.18-4.12,2.34-8.25,3.45-12.4Zm58.3-158.36c1.6-4.82,3.22-9.63,4.85-14.44-2.62,8.41-5.21,16.84-7.74,25.29-6.93,23.14-13.71,46.57-20.91,69.83.14-.47.27-.94.41-1.41,7.8-26.42,15.61-52.84,23.39-79.26Zm97.33,134.2c-.88,4.13-1.79,8.25-2.74,12.36.14-3.18.69-6.39,1.34-9.45.47-.97.93-1.94,1.4-2.91Zm4.68-9.73c2.8-5.86,5.59-11.73,8.37-17.6-3.44,10.26-7.12,20.39-11.03,30.35.91-4.26,1.79-8.52,2.66-12.74Zm68.03-139.55c-.76,1.89-1.52,3.79-2.29,5.68-4.54,11.07-9.18,22.08-13.87,33.07,4.29-11,8.67-21.94,13.13-32.83,1.01-1.97,2.01-3.94,3.02-5.91Zm12.41-24c1.84-3.53,3.69-7.06,5.54-10.58-.63,2.84-1.28,5.67-1.93,8.5-4.7,10.49-9.4,20.98-14.12,31.45-5.87,13.03-11.76,26.06-17.64,39.08,9.65-22.65,19.19-45.37,28.15-68.46Zm24.41-42.27c2.35-5.33,4.69-10.66,7.03-16,.79-1.4,1.58-2.79,2.37-4.18-2.69,8.28-5.48,16.52-8.04,24.87-.38,1.24-.75,2.48-1.12,3.72-6.89,13.43-13.72,26.9-20.42,40.48.59-2.48,1.17-4.97,1.75-7.46,6.17-13.79,12.32-27.59,18.43-41.43Zm-3.82,290.33c1.23-2.49,2.61-4.91,4.26-6.88.08.54.15,1.09.2,1.64-3.13,9.15-6.15,18.35-8.73,27.7.14-3.67.15-7.37.09-11.06,1.42-3.78,2.81-7.58,4.18-11.4Zm144.33-75.93c.41-1.02.81-2.05,1.22-3.08.35-.42.7-.85,1.04-1.29-2.15,5.5-4.3,11.02-6.46,16.52,1.41-4.05,2.81-8.1,4.2-12.16Zm4.96-13.13c1.03-2.9,2.03-5.81,3.02-8.73,2-5.91,3.91-11.87,5.78-17.84,2.74-7.51,5.44-15.03,8.1-22.59-1.2,4.87-2.38,9.77-3.57,14.68-2.57,6.52-4.91,13.18-7.17,19.84-.56,1.65-1.1,3.3-1.65,4.95-.65,1.68-1.31,3.35-1.96,5.02-.81,1.59-1.66,3.15-2.55,4.66Zm85.15-228.92c-6.82,19.16-13.3,38.5-19.89,57.78-.92,2.09-1.83,4.18-2.75,6.27,8.72-27.97,17.49-55.92,26.24-83.87,3.36-9.62,6.81-19.2,10.3-28.75,2.99-5.47,5.78-11.07,8.41-16.81-5.55,16.45-11.1,32.9-16.54,49.4-1.94,5.32-3.87,10.64-5.77,15.98Zm33.09-89.29c4.17-12.48,8.26-25,12.34-37.52,1.38-1.84,2.69-3.77,3.93-5.76-5.8,16-11.77,31.9-17.78,47.79.5-1.5,1.01-3,1.52-4.51Zm18.88-53.36c-1.07,2.07-2.2,4.12-3.38,6.14.48-1.47.96-2.94,1.44-4.42,1.58-4.84,3.18-9.66,4.76-14.5,1.94-3.64,3.96-7.21,6.1-10.69.19-.31.4-.61.59-.93-1.88,5.55-3.8,11.08-5.74,16.6-1.2,2.64-2.45,5.25-3.77,7.79Zm13.88-35.03c-.31,0-.62.12-.85.44-2.11,2.94-4.12,5.97-6.05,9.08.22-.59.44-1.19.66-1.78.16-.18.29-.41.37-.72.09-.35.21-.76.33-1.19.82-2.24,1.65-4.48,2.47-6.73.66-1.82-1.44-3.44-2.2-1.6-.72,1.76-1.43,3.53-2.13,5.3-.08.09-.15.18-.22.29,3.48-9.56,6.96-19.12,10.43-28.69.88-2.43,2.54-3.07,4.09-2.59-.59,3.1-1.24,6.19-1.93,9.26-1.44,6.36-3.09,12.7-4.97,18.94Zm10.52-525.85c-.2.41-.41.82-.61,1.23,1.67-7.05,3.13-14.18,4.45-21.33.1.32.2.65.29.97-.31,2.92-.76,5.82-1.35,8.69-.92,3.48-1.84,6.96-2.77,10.44Zm-43.33,81.56c-.99,3.12-1.92,6.27-2.77,9.45-.75,2.81-1.46,5.68-2.01,8.58-2.58,5.87-5.13,11.74-7.64,17.66-.79,1.87-1.57,3.75-2.36,5.63-4.13,9.02-8.25,18.05-12.33,27.1-.92,1.91-1.84,3.83-2.75,5.75,5.6-13.36,11.18-26.72,16.59-40.19,4.86-12.09,9.42-24.31,13.72-36.69-.15.59-.31,1.18-.46,1.77-.09.34-.07.67.01.95Zm-57.19,133.8c-.22.29-.44.59-.66.87-.52.66-1.05,1.29-1.58,1.94,1.04-6.12,3.56-11.91,5.98-17.26,1.2-2.66,2.43-5.3,3.66-7.94-.55,2.49-1.05,5-1.49,7.53-1.99,4.94-3.96,9.89-5.91,14.85Zm56.42-435.95c.33.96.39,2.12.04,3.43-1.08,4.02-2.18,8.04-3.28,12.05.11-2.3.18-4.6.22-6.89.42-1.63.84-3.26,1.26-4.9.58-1.24,1.17-2.47,1.76-3.69Zm-12.98,36.73c-.91,3.46-1.83,6.92-2.76,10.38-.31-.02-.62.12-.87.48-.95,1.37-1.88,2.76-2.8,4.16.37-2.93.75-5.86,1.12-8.79.38-.99.76-1.98,1.14-2.96,1.63-4.17,3.29-8.33,4.98-12.47-.19,3.08-.47,6.15-.82,9.2Zm-3.91-4.52s0-.02,0-.03c1.67-5.82,3.31-11.64,4.92-17.47.06,1.76.09,3.53.08,5.29-1.7,4.05-3.37,8.12-5,12.21Zm-95.67,9.65c.91-1.99,1.87-3.95,2.9-5.85-1.79,7.94-3.7,15.84-5.77,23.68.94-5.95,1.89-11.89,2.86-17.82Zm-131.75,46.66s0-.02,0-.03c0-.02.02-.03.02-.05-.01.03-.02.06-.03.08Zm-5.64,15.47c-3.44,9.52-6.82,19.07-10.19,28.63.63-3.86.97-7.75.85-11.61,3.47-7.71,6.98-15.39,10.54-23.04-.39,2.01-.8,4.01-1.2,6.01Zm-7.94,7.48c4.27-10.93,8.56-21.85,12.84-32.77-.54,2.86-1.08,5.72-1.63,8.58-3.79,8.03-7.52,16.09-11.21,24.19Zm-286.15,452.74c-1.09,5.73-2.15,11.48-3.16,17.23-1.19,3.4-2.39,6.8-3.61,10.18,2.06-8.43,4.08-16.89,6.08-25.35.23-.69.46-1.37.69-2.06Zm37.78-101.39c1.45-2.57,2.9-5.15,4.34-7.73-.93,2.96-1.86,5.91-2.79,8.87-4.71,13.63-9.41,27.27-14.08,40.93-3,8.75-5.98,17.51-8.96,26.27,7.26-22.73,14.3-45.57,21.49-68.33Zm-50.78,438.99c2.22-7.7,4.52-15.36,6.85-23.01,3.67-9.92,7.35-19.84,11.03-29.75-3.98,12.75-7.93,25.52-11.84,38.31-2.53,6.63-5.07,13.26-7.6,19.88.52-1.81,1.04-3.62,1.56-5.43Zm11.52-21.64c-.05.15-.1.31-.16.46-1.45,4.24-2.93,8.48-4.42,12.7.59-1.92,1.17-3.84,1.76-5.76.94-2.47,1.87-4.93,2.81-7.4Zm21.54-47.72c.1,0,.19,0,.29-.01-2.86,7.69-5.71,15.37-8.56,23.06,2.78-7.67,5.54-15.35,8.27-23.04Zm1.23-3.46c4.04-11.4,8.03-22.82,11.99-34.26-1.64,5.34-3.27,10.69-4.89,16.04-2.25,6.05-4.49,12.1-6.74,18.15-.12.02-.24.04-.36.06Zm38.05-107.54c.57.59,1.55.64,1.97-.33,2.56-5.94,5-11.95,7.35-18.01-8.03,21.39-16.05,42.79-24.05,64.2,4.86-15.31,9.77-30.59,14.72-45.86Zm-27.62,448.86c-.1.28-.2.55-.3.83,2.34-7.59,4.66-15.2,6.97-22.81-2.12,7.39-4.32,14.73-6.67,21.98Zm150.72-16.05c3.64-10.26,7.05-20.65,10.23-31.15,3.47-7.35,6.94-14.7,10.43-22.04,8.03-16.88,16.26-33.61,24.6-50.25-.29.73-.58,1.46-.87,2.19-8.01,20.44-15.63,41.11-23.38,61.7-2.6,6.19-5.17,12.4-7.71,18.64-1.24,3.04-2.47,6.09-3.7,9.13-4.64,10.06-9.17,20.19-13.57,30.41-1.85,2.11-3.69,4.22-5.54,6.33,3.35-8.21,6.51-16.54,9.5-24.96Zm74.64-148.45c-.48,1.94-.96,3.88-1.45,5.82-.88,1.82-1.78,3.64-2.66,5.47-4.75,9.87-9.37,19.83-13.91,29.85-1.49,2.93-2.99,5.86-4.48,8.79,7.51-16.63,15.02-33.27,22.49-49.92Zm190.48,71.49c-.43,1.19-.85,2.38-1.27,3.57-2.92,8.13-6.2,16.03-9.53,23.92,2.34-6.04,4.67-12.08,7-18.11,1.27-3.12,2.53-6.24,3.8-9.37Zm-24.83,72.76c2.87-7.59,5.77-15.18,8.87-22.63-2.41,7.12-4.84,14.22-7.29,21.32-1.33,3.49-2.67,6.98-4.01,10.47.43-2.26.94-4.5,1.51-6.72.31-.81.61-1.63.92-2.44Zm93.49-229.44c1.26-3.85,2.52-7.71,3.79-11.55,7.48-20.48,15.21-40.82,22.92-61.16,9.14-24.13,18.24-48.29,26.84-72.73.38-.85.76-1.7,1.12-2.56-7.95,21.8-15.93,43.6-23.96,65.36-10.17,27.59-20.42,55.13-30.72,82.64Zm-15.38-528.56c-4.41,11.12-9.48,22.31-15.98,31.88,4.89-13.06,10.84-25.65,16.39-38.19,2.87-6.49,5.76-12.96,8.66-19.43-2.75,8.73-5.73,17.34-9.06,25.74Zm45-166.86c-.33.59-.67,1.17-1,1.76.05-.2.1-.4.15-.61,1.54-4.84,3.08-9.68,4.65-14.5.4-1.24.81-2.47,1.21-3.71-.32,1.2-.65,2.39-.98,3.59-1.26,4.53-2.62,9.01-4.02,13.47Zm-.18-13.64c-.94,4.68-1.99,9.33-3.12,13.95-1.29,4.06-2.57,8.12-3.85,12.18-2.27,3.93-4.56,7.84-6.88,11.71-2.74,4.56-8.43,1.48-8.13-2.88.3-.86.59-1.72.88-2.58,7.62-12.69,14.85-25.74,22.26-38.62-.36,2.09-.75,4.17-1.17,6.25Zm-4.7-213c-.02-.46-.02-.92-.05-1.39,0-.03,0-.06,0-.09.13.03.27.07.4.11-.12.46-.23.91-.35,1.36Zm-106.59,31.83c.24-.87.5-1.74.74-2.61,0,.51-.03,1.03-.05,1.54-.23.35-.46.71-.69,1.07Zm-107.79-1.92c-4.36,8.33-8.65,16.72-12.86,25.17-.4,0-.8.22-1.02.77-.77,1.95-1.52,3.91-2.28,5.87-2.93,5.94-5.83,11.9-8.69,17.88.61-3.27,1.22-6.53,1.82-9.8,7.32-14.93,15.24-29.38,23.95-43.07-.3,1.06-.61,2.12-.92,3.18Zm-164.07,87.44c1.38-3.71,2.76-7.43,4.14-11.14.38-1.02.76-2.04,1.14-3.07-3.02,11.85-7.51,23.12-12.09,34.25,2.48-6.58,4.79-13.25,6.81-20.04Zm-81.45-89.28c-15.18,45.54-32.22,90.05-48.99,134.7-6.51,17.33-12.87,34.72-19.11,52.16.44-1.55.89-3.09,1.33-4.64,2.94-10.25,5.9-20.48,8.9-30.7,7.88-21.32,16-42.49,24.35-63.54.72-1.82-1.47-3.43-2.2-1.6-3.65,9.21-7.26,18.46-10.83,27.72,5.88-18.72,12.19-37.18,18.46-55.7,3.61-10.65,7.02-21.52,10.55-32.34,2.3-5.22,4.67-10.4,7.14-15.49,2.69-5.54,5.49-11.01,8.25-16.52,1.84.83,3.12,2.99,2.14,5.92Zm-43.06,94.64c-.54,1.64-1.07,3.27-1.6,4.92-5.42,16.89-10.58,33.91-15.61,50.99-1.37,3.72-2.74,7.44-4.1,11.17,4.68-16.13,9.39-32.25,14.26-48.29,2.35-6.26,4.7-12.52,7.04-18.78Zm-34.55,455.56c.87-2.48,1.72-4.98,2.58-7.47-3.38,10.72-6.76,21.44-10.13,32.16.38-2.34.76-4.68,1.15-7.02,2.21-5.85,4.33-11.75,6.4-17.68Zm-22.76,337.73c-2.05,7.16-4.12,14.31-6.26,21.42-8.84,22.96-17.78,45.87-26.82,68.71,10.98-30.07,22.01-60.11,33.08-90.13Zm-4.03,22.95c1.98-5.13,3.94-10.26,5.91-15.4-1.24,4.2-2.48,8.4-3.71,12.61-1.34,3.06-2.72,6.1-4.13,9.12.65-2.11,1.3-4.22,1.93-6.33Zm33.18,264.41c-2.36,7.34-4.72,14.69-7.09,22.03,1.22-4.75,2.46-9.49,3.71-14.22,1.15-2.59,2.27-5.19,3.38-7.81Zm-1.09,16.66c.53.79,1.74,1.02,2.16-.1,3.24-8.57,6.36-17.2,9.41-25.87,2.78-6.7,5.45-13.46,8.01-20.29-1.61,5.2-3.23,10.39-4.86,15.58-2,6.34-4.02,12.66-6.07,18.97-4.5,10.58-9.28,20.97-14.39,31.12,1.5-5.8,3.1-11.57,4.73-17.31.34-.7.67-1.4,1-2.09Zm157.61-36.58c.03,1.68.19,3.33.49,4.96-1.39,3.23-2.83,6.43-4.29,9.61,1.31-4.84,2.57-9.7,3.8-14.57Zm8.57-.73c-2.38,5.65-4.71,11.32-6.99,17.02-.77,1.76-1.54,3.53-2.31,5.29,1.57-5.48,3-11.04,4.33-16.63,1.66-1.9,3.32-3.79,4.97-5.68Zm85.97,122.97s0,0,0,0c.11-.13.21-.27.32-.41-.2.63-.4,1.26-.6,1.89.1-.49.19-.99.29-1.48Zm160.64-160.33c-.79,2.54-1.52,5.11-2.18,7.7-4.52,11.99-9.06,23.97-14.38,35.45-.64,1.38-1.31,2.73-1.97,4.09,6.2-15.73,12.37-31.48,18.53-47.24Zm-4.82,21.98c-.03.54.15,1.12.46,1.5-1.86,4.84-3.71,9.67-5.55,14.52-1.71,3.22-3.55,6.32-5.61,9.17,3.9-8.16,7.37-16.63,10.7-25.19Zm125.42-869.77c-2.34,5.65-4.72,11.26-7.17,16.85.82-2.25,1.64-4.5,2.46-6.76,1.57-3.36,3.14-6.73,4.71-10.09Zm-22.36,50.13c-1.13,2.49-2.26,4.99-3.37,7.49.39-1.36.79-2.71,1.17-4.07.08-.28.16-.56.23-.84,1.89-4.17,3.8-8.33,5.7-12.5-1.24,3.31-2.48,6.62-3.74,9.92Zm-82.27-324.47c0-.09-.01-.19-.02-.28.04-.08.09-.17.13-.25-.04.18-.07.35-.11.53Zm-107.67-5.1c-6.64,9.93-12.84,20.3-18.66,31.02,1.83-4.66,3.67-9.32,5.5-13.99,4.57-8.83,9.56-17.27,15.18-25.09-.65,2.7-1.33,5.38-2.03,8.05Zm-155.91,89.27c-20.04,51.26-39.54,102.84-58.57,154.69-3.79,10.33-7.56,20.68-11.32,31.03,2.67-8.72,5.34-17.42,8.04-26.13,11.53-32.06,23.09-64.1,35.35-95.74,8.57-22.13,17.48-44.07,26.94-65.63-.06.58-.2,1.17-.43,1.77Zm-8.22,11.53c2.2-6.26,4.14-12.64,5.57-19.22.75.35,1.46.94,2.01,1.72-2.57,5.81-5.09,11.64-7.58,17.5Zm-228.53-21.75c2.79-6.25,5.46-12.6,8.02-19.02-2.86,9.07-6.13,17.93-9.31,26.84-.22-.46-.38-.97-.46-1.51.56-2.11,1.14-4.22,1.76-6.31Zm12.48-6.62c-.6.04-1.18.55-1.16,1.52,0,.43,0,.86,0,1.29-1.7,4.01-3.44,7.99-5.24,11.92-.54,1.17-1.26,1.9-2.04,2.27,1.28-5.25,2.54-10.49,3.87-15.68,3.02-11.86,6.4-23.55,11.05-34.59,4.55-10.8,9.98-20.97,15.43-31.08.5-.92.99-1.84,1.49-2.76-.34,2.25-.92,4.43-1.33,6-2.3,8.81-5.38,17.33-8.44,25.76-4.31,11.87-8.79,23.75-13.62,35.36Zm-11.13,17.03c-.23-.09-.46-.21-.68-.35.82-2.31,1.64-4.61,2.47-6.92-.59,2.42-1.19,4.84-1.79,7.26Zm7.1,90.85c-2.2,8.55-4.41,17.09-6.61,25.63-1.15,3.9-2.3,7.8-3.46,11.7-3.96,10.57-8.05,21.07-11.88,31.72,5.84-25.93,14.41-50.72,23.52-75.23-.53,2.06-1.04,4.12-1.57,6.18Zm38.1,73.42c-2.14,6.68-4.28,13.35-6.45,20.01-2.6,7.98-5.2,15.95-7.81,23.91,4.63-14.7,9.38-29.35,14.25-43.93Zm33.51-93.18c-5.28,18.11-10.49,36.25-15.85,54.32-1.23,3.56-2.45,7.12-3.66,10.69,4.2-14.71,8.48-29.38,12.92-43.96,2.15-7.04,4.35-14.05,6.59-21.05Zm-92.42,320.97c-.77,3.05-1.54,6.13-2.38,9.17-.14.37-.28.74-.42,1.11.08-1.46.15-2.91.19-4.37.01-.49-.13-.86-.35-1.12,1.06-2.32,2.21-4.58,3.46-6.75-.17.65-.34,1.3-.5,1.95Zm-15.08,64.17c-.18.33-.35.67-.54,1,.57-6.65,1.87-13.21,3.58-19.65-.89,6.24-1.85,12.49-3.05,18.65Zm46.85,132.83c-.27.85-.53,1.71-.8,2.57-1.06,3.31-2.16,6.6-3.28,9.88,1.36-4.15,2.72-8.3,4.08-12.44Zm6.85,2.79c8.37-25.27,15.67-50.94,22.4-76.84,2.49-5.23,4.82-10.56,7.04-15.98-.6,3.74-1.18,7.49-1.75,11.24-.04.27-.08.54-.12.82-1.86,5.95-3.73,11.9-5.59,17.86-.49,1.57-.97,3.14-1.46,4.71-8.48,25.62-16.92,51.26-25.32,76.91,1.61-6.23,3.21-12.47,4.81-18.71Zm18.67,235.91c2.45-5.69,4.81-11.45,7.1-17.26-3.79,10.27-7.56,20.56-11.34,30.84.93-3.22,1.87-6.44,2.8-9.66.48-1.3.96-2.61,1.44-3.91Zm4.31,325.36c-1.82-1.33-2.86-4.03-1.29-6.8,1.79-3.14,3.52-6.32,5.24-9.53-1.29,5.45-2.6,10.9-3.95,16.32Zm2.44.85c2.19-8.79,4.28-17.62,6.33-26.46.83-1.64,1.65-3.29,2.46-4.95.88-1.81,1.75-3.63,2.62-5.45-1.09,4.23-2.18,8.46-3.24,12.71-.29,1.14.43,1.91,1.19,1.94-1.4,4.27-2.79,8.54-4.21,12.79-.97,2.9-1.94,5.8-2.92,8.69-.7.52-1.47.74-2.23.73Zm9.8-15.2c-.19.81-.39,1.62-.58,2.43-.03.11-.05.23-.08.34-.24.45-.48.9-.72,1.34.46-1.37.92-2.74,1.37-4.11Zm158.37-32.66c.48.09,1-.1,1.3-.7,1.85-3.64,3.62-7.33,5.37-11.05-3.34,11.94-7.31,23.66-12.47,34.54,1.94-7.6,3.88-15.19,5.8-22.79Zm100.56,78.7c.98-2.1,1.95-4.22,2.9-6.35-.35,1.76-.69,3.53-.98,5.31-.66,4.03-1.27,8.35-.85,12.48-1.28,6.67-2.6,13.32-3.93,19.97-.92,2.38-1.84,4.76-2.76,7.15-.56,1.46-1.4,2.26-2.33,2.56-.08-8.7.78-17.46,2.04-26.08,1.96-5.02,3.92-10.04,5.9-15.05Zm131.24-63.8c3.49-8.79,6.94-17.6,10.42-26.4.39.52,1.02.77,1.57.33,2.2-1.8,4.19-3.96,6.02-6.33-4.87,13.11-9.57,26.31-13.91,39.7-.12.23-.23.46-.35.68-2.68-.29-5.33-3.98-3.74-7.99ZM761.54,236.19s-.04.11-.17.33c-.03.12-.09.21-.18.28-.34.51-.7.99-1.03,1.5-.02.03,0,.01.01-.03-.05.08-.12.2-.23.38-.28.47-.56.94-.83,1.41-.65,1.12-1.29,2.27-1.92,3.41-3.45,6.25-6.72,12.66-9.96,19.08-.07-.49-.15-.98-.23-1.47.26-1.28.51-2.56.75-3.84,2.4-9.18,4.79-18.36,7.24-27.52,1.99-2.61,4.42-4.31,7.4-1.38,2.57,2.53,1.42,6.21-.83,7.85Zm-160.3-160.72c-.18.26-.35.54-.52.8-.04-.3-.09-.6-.13-.89-.15-1.1-1.2-1.32-1.87-.95-2.73,1.53-5.17,3.53-7.39,5.87.64-3.06,1.28-6.13,1.9-9.21.49-.78,1-1.56,1.51-2.32,2.78,1.05,5.77,2.44,7.48,4.26-.14.83-.45,1.66-.98,2.43Zm-126.07-2.47c.79-2.01,1.58-4.02,2.37-6.03.79-2,2.11-2.76,3.44-2.68-2.01,2.83-3.95,5.73-5.81,8.71Zm-83.11,11.67c1.44-5.66,2.85-11.33,4.1-17.06.25-1.13.49-2.27.72-3.41,2.08-3.94,4.14-7.89,6.19-11.84-1.37,5.05-2.79,10.07-4.24,15.08-2.31,5.71-4.56,11.46-6.76,17.24Zm7.15-33.41c.43-2.88.78-5.78,1.04-8.68.31-1.11.61-2.21.93-3.31,3.2-7.18,6.55-14.27,10.03-21.27-1.32,6.76-2.82,13.46-4.46,20.12-2.58,4.33-5.09,8.71-7.55,13.14Zm-120.71-28.11c-4.05-.12-8.11-.47-12.17-.94-.36-.16-.72-.31-1.08-.47,7.12.08,14.25.15,21.37.21-2.71.4-5.42.8-8.13,1.2Zm-6.02,3.83c-2.22-.04-4.43-.09-6.65-.18-.07,0-.13,0-.2-.01,1.13,0,2.26,0,3.39.02.11,0,.21-.03.31-.07,1.05.08,2.1.16,3.15.24Zm-67.11-.22c-.11,0-.21.02-.32.03-6.14-.84-12.3-1.65-18.46-2.37,5.18-.71,10.37-1.23,15.58-1.65,1.74.53,3.35,1.45,4.46,3.04-.4.35-.82.66-1.26.95Zm-114.4,446.08c11.45-36.17,23.16-72.21,34.93-108.22,6.21-19,12.33-38.05,18.37-57.13-4.25,15.04-8.45,30.1-12.72,45.13-.54,1.89-1.07,3.78-1.6,5.66-2.76,8.82-5.48,17.67-8.16,26.54-2.26,6.74-4.49,13.51-6.64,20.32-2.36,7.47-4.66,14.97-6.95,22.48-7.54,22.79-15.29,45.48-23.48,67.92,2.06-7.57,4.14-15.14,6.24-22.69Zm-6.77,52.75c-.16.58-.32,1.16-.48,1.73-1.63,5.96-3.25,11.94-4.82,17.93-1.72,2.22-3.28,4.63-4.69,7.16-.47-.38-1.11-.44-1.54.03,1.97-6.54,4.14-13,6.26-19.41,5.7-17.26,10.9-34.78,16.1-52.28-3.78,14.88-7.4,29.83-10.83,44.84Zm-26.02,86.41c1.5-7.44,3.13-14.91,5.04-22.27.41.44,1.08.53,1.57.18-2.49,7.87-4.59,15.9-5.88,24.16-.59,3.77-.97,7.59-1.08,11.43-.03,1.11,1.01,1.87,1.78,1.46-.81,3.46-1.72,6.88-2.77,10.24-1.4,4.48-3.11,8.89-5.3,12.87,2.01-12.75,4.09-25.48,6.64-38.08Zm21.74,228.6c-.29,1.56-.56,3.12-.8,4.68-.74,1.87-1.47,3.75-2.21,5.62,1.02-3.43,2.02-6.86,3.01-10.3Zm8.82-23.99c5.09-16.42,11.45-32.17,16.9-48.4,10.05-29.89,18.68-60.51,27.24-91.12.04-.12.08-.24.12-.37-1.5,5.59-3.01,11.18-4.52,16.77-5.22,19.32-10.28,38.69-15.3,58.08-8.39,25.51-17.47,50.68-27.05,75.62-.49,1.27-.98,2.53-1.47,3.79,1.22-4.87,2.6-9.67,4.06-14.38Zm15.62-30.95c-2.56,9.78-5.18,19.54-7.9,29.26-.44,1.56-.87,3.12-1.31,4.68-4.13,12.67-8.25,25.34-12.37,38.01-.8,1.86-1.65,3.69-2.58,5.45.03-5.68.53-11.31,1.38-16.88,7.85-20.02,15.5-40.17,22.77-60.52Zm-17.56,314.06c.1.19.24.35.4.47-.45.68-.92,1.34-1.39,2,.33-.82.66-1.64.99-2.46Zm13.39-18.54c5.38-12.19,9.85-24.96,14.31-37.7,1.59-4.54,3.21-9.07,4.84-13.59-.91,3.14-1.82,6.27-2.74,9.4-7.08,19.34-14.15,38.68-21.19,58.04-1.16.35-2.33.51-3.53.5,3.11-5.29,5.81-10.98,8.31-16.65Zm180.54,275.56c-1.65-.97-2.78-3.08-2.06-5.89,8.03-31.31,18.15-61.73,29.64-91.3-.07.26-.13.52-.2.78-3.54,14-7.09,27.98-10.68,41.96-.27,1.03.27,1.73.92,1.88-5.45,12.81-10.86,25.64-16.19,38.52-.75,1.81,1.33,3.34,2.2,1.6,2.98-6.02,5.89-12.08,8.75-18.18-2.42,6.64-4.77,13.33-7.19,19.97-1.72,3.57-3.45,7.12-5.2,10.66Zm115.4,24.5c1.13-2.94,2.27-5.87,3.4-8.81-.56,5.44-.94,10.92-.93,16.41-2.12-1.12-3.75-4.24-2.47-7.59Zm333.76-101.99c.11-.62.21-1.25.3-1.88.2-1.38-1.24-2.89-2.13-1.54-2.25,3.43-4.42,6.94-6.54,10.49.5-2.78.9-5.59,1.18-8.42.92-1.85,1.86-3.68,2.83-5.49,1.77-3.27,3.65-6.5,5.69-9.58,1.51.38,2.87,1.68,3.41,3.42-1.26,3.9-2.61,7.76-4.04,11.57-.23.47-.47.95-.7,1.42ZM615.66,27.61c7.89-.26,15.9-1.11,23.83-.73,1.13.13,2.27.27,3.4.43-5.33-.1-10.67-.19-16-.03-3.26.1-6.52.3-9.77.65h-11.11c3.22-.11,6.44-.21,9.66-.32Zm-13.8,42.01c-1.73-1.07-3.48-2.05-5.27-2.94,2.03-1.22,4.33.44,5.27,2.94Zm-72.38-51.01c.51-.26.86-.91.91-1.55,9.45.15,18.91.54,28.28,2.09,5.31.88,10.52,2.35,15.71,3.96-6.59,0-13.19.08-19.78.27.59-.91.18-2.62-.97-2.61-7.58.07-15.1.77-22.6,1.82-2.78-.34-5.55-.72-8.31-1.18,2.3-.72,4.57-1.63,6.77-2.78Zm-16.68-1.75c3.23.05,6.46.07,9.69.1,1.07,0,2.14.02,3.21.03-3.81,1.58-7.77,2.53-11.79,3.1-2.62-.16-5.23-.11-7.91-.05-1.17-.24-2.34-.47-3.51-.7,3.49-.51,6.95-1.28,10.31-2.49Zm-14.21-.53c.69.05,1.38.08,2.08.12-1.56.19-3.12.34-4.69.45.87-.2,1.74-.39,2.61-.57Zm-5.54,9.56c1.38.15,2.77.37,4.15.62-6.99-.61-14-1.14-21-1.6.56-.04,1.11-.07,1.67-.1,5.07.21,10.14.53,15.18,1.09Zm-18.65-12.04c1.92-.03,3.81.1,5.69.31-1.8.21-3.6.38-5.41.54-1.89-.27-3.78-.53-5.66-.78,1.8-.02,3.59-.04,5.39-.07Zm-42.93.53c5.03-.08,10.06-.14,15.1-.2,4.89.56,9.78,1.15,14.66,1.78-.21.03-.42.05-.63.07-9.97-.5-19.94-.76-29.91-.88.27-.25.53-.51.78-.79Zm-5.88.53c-.19.08-.38.14-.56.21-.75,0-1.5,0-2.26-.01.94-.07,1.88-.14,2.82-.2Zm-.35,3.52c5.52.06,11.04.15,16.56.29-.43.21-.85.43-1.26.66-1.44.13-2.89.28-4.33.44-5.04-.11-10.08-.22-15.11-.35,1.42-.23,2.81-.56,4.15-1.04Zm-4.84,1.11l-5.09,12.66c-.57,1.41-1.39,2.19-2.3,2.51-2.15,4.6-4.24,9.24-6.28,13.91.58-2.21,1.16-4.43,1.72-6.65,1.92-3.67,3.84-7.34,5.81-10.97.8-1.47-1.1-3.34-2-1.92-.07.11-.13.21-.2.32,0,0,0,0,0,0,0,0,0,0,0,0-.33.52-.65,1.05-.97,1.57,1.42-6.23,2.7-12.51,3.81-18.84,3.21-1.9,7.51,2.4,5.5,7.4Zm.17-8.13c-1.86.04-3.71.09-5.57.13.04-.22.08-.45.12-.67,1.82.18,3.64.36,5.45.54Zm-7.29-5.1c-.06.41-.12.82-.19,1.22-.22-.02-.43-.04-.65-.07.27-.39.55-.77.84-1.16Zm-27.41,5.65c.34,0,.67,0,1.01,0,1.19,0,1.51-1.62.98-2.54.85-.04,1.7-.07,2.55-.1.09.17.17.35.23.55.54,1.82,2.83,1.13,2.5-.63,1.12-.02,2.23-.03,3.35-.03,3.68.27,7.36.58,11.04.93-.32.54-.63,1.08-.94,1.63-3.37.1-6.73.21-10.1.34-3.46.14-7.1-.02-10.63.35.03-.17.03-.33.02-.5Zm-22.35,15.44c1.17.15,2.35.3,3.52.45-2.68.05-5.36.05-8.04.02,1.51-.16,3.01-.32,4.52-.47Zm-8.56-13.34c-.28.07-.56.14-.84.21-1.42.13-2.83.26-4.25.38,1.7-.24,3.4-.43,5.1-.59Zm-15.44,12.59c1.49-.09,2.99-.17,4.48-.26-2.58.29-5.17.59-7.75.88-.36-.01-.72-.03-1.08-.04,1.45-.19,2.9-.39,4.35-.58Zm-6.98-13.35c-.31.05-.63.1-.94.15-4.17.66-8.35,1.28-12.53,1.87-.56-.12-1.12-.23-1.68-.35,2.04-.23,4.08-.47,6.12-.7,3.01-.34,6.02-.65,9.03-.98Zm-10.13-2.53c1.71-.04,3.42-.07,5.12-.1-.62.07-1.23.13-1.85.2-6.52.73-13.11,1.73-19.67,1.86-2.86-.51-5.72-.95-8.58-1.29,8.33-.26,16.65-.5,24.98-.68Zm-28.29,5.18c2.77-.22,5.55-.13,8.33-.07,1.1.02,2.2.01,3.29-.01,1.43.26,2.86.53,4.29.81-.44-.01-.89-.02-1.33-.04-5-.16-10.01-.33-15.01-.43-.29-.05-.58-.09-.87-.14.44-.05.88-.09,1.31-.12Zm-5.57-2.04c-.77.34-1.51.77-2.15,1.38-.09.08-.16.18-.23.29-2.86-.34-5.72-.32-8.58-.14-.51-.18-1.02-.39-1.52-.64,4.13-.75,8.3-1,12.48-.9Zm-19.8-.94c.94-.02,1.87-.06,2.81-.09-.44.61-.54,1.67,0,2.2-7.03-.52-14.09-.5-21.1-.26-1.29-.18-2.59-.39-3.88-.62,7.13-2.17,14.96-1.1,22.17-1.23Zm-22.84,14.94h-13.85c3.53-.21,7.07-.4,10.61-.58,1.08.21,2.16.4,3.25.58Zm-36.34-14.18c10.45.2,20.91-.1,31.37-.44-.06.03-.13.06-.19.1-.56.31-.71,1.14-.55,1.83-9.5.36-19.04.74-28.54,1.43.19-.79-.14-1.73-.85-2.03-.86-.37-1.74-.66-2.62-.92.46,0,.92.02,1.38.03Zm9.89,7.95c1.22.13,2.44.27,3.67.41-.05.86.43,1.86,1.25,1.89,1.98.08,3.97.19,5.95.28.58.18,1.17.35,1.75.52-4.33.25-8.66.5-12.98.72-3.09.16-6.26.48-9.47.81.03-.36-.02-.73-.16-1.02-.54-1.18-1.23-2.14-2.03-2.95,4.01-.27,8.01-.49,12.02-.68Zm-12.59-5.11c-.39.2-.79.38-1.19.56-.62.06-1.25.11-1.87.17-4.24-.14-8.47-.42-12.66-.98,5.27-.66,10.64-1.04,15.72.26Zm-25.56,1.04c2.53.64,5.08,1.13,7.64,1.51-.32.05-.64.11-.95.17-1.69.21-3.36.48-5.03.8-.58,0-1.16.01-1.72.02-7.77.13-15.47.83-23.18,1.7-.24-.01-.49-.03-.73-.04,7.98-1.51,15.94-3.1,23.98-4.16Zm-39.46,9.31c-.54.25-1.08.52-1.61.81-.48.06-.96.12-1.45.17h-5.86c2.97-.3,5.94-.63,8.91-.98Zm-27.68-1c1.94-.06,3.88-.11,5.81-.18-2.95.21-5.9.4-8.86.57,1.01-.14,2.03-.27,3.04-.4ZM45.72,308.09c.22-8.96.56-17.91,1.07-26.87v17.76c-.39,3.03-.74,6.06-1.07,9.1Zm-1.11-282.56c.06,1.14.12,2.28.18,3.43-.17,0-.34.02-.51.02.09-1.15.2-2.3.34-3.45Zm-.55,6.63c.29-.01.59-.03.88-.04,0,.12.01.24.02.36-.31.02-.61.05-.92.07,0-.13.01-.26.02-.39Zm.67,26.72c-.56-7.64-1.01-15.46-.81-23.21.39-.03.79-.06,1.18-.09.59,13.12.95,26.31.95,39.47-.45-5.39-.93-10.77-1.33-16.17Zm-1.79,485.73c.17.91.34,1.81.54,2.72.1.44.31.75.56.93,0,.82,0,1.64,0,2.46,0,2.59,0,5.18.01,7.77-.4-4.62-.79-9.24-1.12-13.87Zm.22-235.08c-.74-.58-1.99-.16-2,1.27-.4,37.53.1,75.07-.14,112.6-4.42-16.63-3.31-36.22-2.67-52.96,1.02-26.84,1.1-53.7,2.55-80.52,1.68-31.24,4.14-62.43,4.84-93.74.04-1.84.08-3.68.11-5.52.26.31.59.44.93.4v51.59c-.45,7.2-.94,14.4-1.44,21.6-1.05,15.11-1.78,30.18-2.18,45.29Zm22.49,258.46c3.92-15.37,7.9-30.71,11.96-46.02,4.18-10.85,8.22-21.78,12.17-32.76-3.1,10.34-6.23,20.67-9.44,30.96-5.58,17.86-12.4,35.35-15.75,54.15-.92,2.8-1.81,5.61-2.68,8.43,1.24-4.92,2.48-9.84,3.73-14.75Zm-13.64,63.17c-.05.29-.1.57-.15.86-1.34,7.86-2.56,15.76-3.8,23.65-.19,1.22.77,2.32,1.64,1.93-1.53,3.64-3.2,7.22-5.11,10.58,2.25-12.4,4.69-24.75,7.41-37Zm-7.13,306.12c.76,4.43.73,9.14.71,13.57,0,1.26,0,2.51-.01,3.77-.23.75-.44,1.51-.62,2.29-.44-6.51-.39-13.06-.08-19.63Zm.85,43.06c.11,1.95.24,3.89.38,5.84-.27,2.76-.56,5.53-.85,8.29.04-2.14.1-4.29.17-6.43.08-2.57.19-5.13.3-7.7Zm1.04,399.41c-.13-2.95-.27-5.91-.4-8.86.07-.18.12-.38.13-.61.13-1.85.21-3.7.27-5.55v15.01Zm0-23.98c-.17-6.12-.62-12.23-1.16-18.32-.24-2.67-.47-5.33-.69-8-.02-1.01-.05-2.02-.07-3.03.45-8.36.92-16.69,1.04-25.07.16,2.23.32,4.45.51,6.68.12,2.32.25,4.63.37,6.95v40.79Zm0-258.75c-.02,3.64-.03,7.29-.02,10.94-.75,9.11-1.39,18.22-1.74,27.36-.01-8.9.16-17.8.61-26.71.29-5.74.67-11.48,1.15-17.21v5.62Zm0-28.93c-.68,4.85-1.27,9.72-1.78,14.61.02-2.72.04-5.43.06-8.15.53-6.54,1.1-13.08,1.72-19.61v13.15Zm0-39.05c-.59,1.85-1.11,3.73-1.58,5.64,0-3.44-.02-6.88-.04-10.32.05-.71.1-1.43.15-2.14.45-6.04.94-12.06,1.47-18.08v24.91Zm0-97.14c-.47-3.29-.84-6.59-.86-9.89.28-3.45.58-6.9.86-10.35v20.24Zm7.34,501.56c-.01-.36-.02-.71-.03-1.07.02,0,.05,0,.07,0-.01.36-.03.72-.04,1.08Zm14.59-554.96c3.1-7.69,6.18-15.39,9.23-23.11-.3,4.12-.4,8.27-.23,12.43.03.78.61,1.49,1.21,1.6-.81,2.49-1.62,4.98-2.43,7.48-1.44,4.44-6.02,4.32-7.79,1.61Zm8.52,243.26c1.25-3.46,2.51-6.91,3.77-10.37.37.11.8.02,1.17-.37,2.9-3.03,5.48-6.47,7.84-10.17,1.38.17,2.75.18,4.1-.03-3.19,8.75-6.38,17.5-9.56,26.26-2.24,6.18-9.55.81-7.32-5.32Zm2.89,309.7h1.21c6.17.48,12.33,1.12,18.46,2.07.14.15.3.28.5.33.18.05.35.08.53.13-6.91-.5-13.86-1.19-20.7-2.53Zm29.3,1.21c-.14-.3-.38-.56-.74-.71-.43-.18-.87-.33-1.31-.5h10.35c4.85.16,9.69.21,14.55.19.91,0,1.82-.02,2.73-.03.02.77.42,1.53,1.23,1.55,1.63.05,3.26.05,4.88.02,2.01.01,4.02.04,6.03.06-1.33.16-2.66.3-3.99.49-.51.07-1.02.14-1.53.21-.49.05-.98.1-1.48.14-10.29.51-20.56.35-30.74-1.42Zm98.51,4.69c-1.64.02-3.28.04-4.92.05-.26,0-.48.09-.66.22-10.15.6-20.27,1.75-30.42,2.34-10.78.63-21.69.71-32.37-1.35,12.92-.97,25.82-2.45,38.72-3.77,12.73.07,25.46.54,38.19.86,6.02.15,12.03.19,18.04.14-8.85.7-17.71,1.17-26.59,1.51Zm76.79-80.57c1.17-3.08,2.32-6.18,3.45-9.28.19-.39.38-.78.57-1.17-.65,2.44-1.3,4.88-1.93,7.33-.4,1.55-1.17,2.56-2.1,3.12Zm9.18,76.61c.92-.1,1.85-.2,2.77-.3,1.28-.13,2.56-.25,3.84-.36,2.09-.15,4.17-.31,6.26-.47.73,0,1.46.01,2.19.02-5.02.44-10.04.81-15.06,1.11Zm77.6.26c-15.17.25-30.34-.01-45.51.07,2.79-.35,5.57-.73,8.35-1.17,20.34.25,40.68.46,61.02-.19,3.57-.11,7.15-.26,10.72-.42-11.51,1.05-23.05,1.51-34.58,1.7Zm157.03.23c-9.16-.45-18.33-.66-27.5-.83-8.6-.17-17.28,0-25.87-.67-2.31-.18-4.63-.45-6.92-.92h62.02c-.63.74-1.21,1.55-1.73,2.43Zm4.73.24c-.49-.03-.99-.05-1.48-.08.81-1,1.71-1.86,2.69-2.59h19.41c-1.21.25-2.41.49-3.62.75-4.49.95-8.99,1.79-13.52,2.16-1.16-.09-2.32-.17-3.48-.24Zm49.81,6.71c-8.24.54-16.53.68-24.74,1.8-3.55.48-6.97,1.46-10.47,2.33-2.29.57-4.6.98-6.89.82,7.83-3.15,16-4.76,24.24-5.74,6.03.4,12.06.66,18.1.79-.08,0-.16,0-.25.02Zm45.89-3.87c-12.1.49-24.21.84-36.32.8,7.27-.56,14.54-1.08,21.81-1.42,9.7-.46,19.4-.41,29.1-.38,2.46,0,4.92.02,7.39.03-7.33.33-14.66.68-21.99.97Zm79.08-5.13c-2.29.12-4.59.23-6.88.32-.82.03-1.63.06-2.45.09-16.3.61-32.61.62-48.92.57-9.46-.03-18.94-.19-28.4.09-9.7.28-19.39.97-29.08,1.71-8.92.68-17.86,1.18-26.76,2.28-.09,0-.18,0-.27-.02-5.21-.34-10.42-.86-15.62-1.37,5.94-1.24,11.93-2.29,17.84-3.78.38-.09.75-.19,1.13-.29h146.02c-2.2.14-4.41.27-6.61.39Zm9.67,3.26c3.99.06,7.98.22,11.96.49-3.99-.17-7.97-.34-11.96-.49Zm19.61-83.9c5.47,0,5.46,10.55,0,10.55s-5.46-10.55,0-10.55Zm3.1,82.25c-1.81-.22-3.61-.41-5.42-.57,2.71-.31,5.42-.66,8.13-1.04-.93.45-1.83.98-2.7,1.61Zm11.56,1.75c-2.14-.4-4.28-.75-6.43-1.07,3.11-1.17,6.48-1.48,9.79-1.51,1.49.34,3.02.52,4.55.6-2.6.89-5.26,1.64-7.91,1.98ZM781.49,27.93h-25.28c4.42-.54,8.85-1.01,13.28-1.19,3.89.06,7.77.14,11.66.27.14,0,.26-.02.38-.06-.01.32-.03.65-.04.97Zm4.19,430.05c.12-21.55-.08-43.12-.32-64.67.11-3.45.22-6.89.36-10.34.26-6.33.55-12.66.87-18.99.47,36.97-.04,73.95.53,110.93.23,14.72.62,29.44,1.26,44.14-1.48-12.49-2.47-25.06-3.09-37.66.19-7.8.34-15.61.38-23.41Zm.83,242.83c-.07,0-.15.03-.22.06v-.31c.05-2.25.1-4.49.15-6.74.03,2.33.05,4.66.07,7Zm-.65,27.99c.01-.7.03-1.4.04-2.1.08-4.52.15-9.03.22-13.55.17,5.21.01,10.43-.26,15.65Zm1.03,269.39c.04,19.76.09,39.52.17,59.28-1.72-17.31-2.64-34.72-3.66-52.13-.15-2.55-.29-5.09-.43-7.64.4-6.09.84-12.17,1.32-18.25.05.26.1.51.15.77.11,5.66.17,11.32.18,16.98,0,1.62,1.6,1.95,2.26,1Zm-2.76-471.01c.06,1.92.13,3.84.18,5.76.19,6.51.32,13.02.43,19.52-.32-5.88-.59-11.77-.72-17.66.02-2.54.06-5.08.1-7.63Zm-.32-298.9c.06,3.2.07,6.4-.03,9.59-.02-3.2-.01-6.39.03-9.59Zm-1.06-68.39c.05,6.66.09,13.33.13,19.99-.04,1.3-.09,2.61-.13,3.91v-23.91Zm0,97.45c.45.18.95.08,1.27-.39-.05,2.98-.1,5.97-.15,8.95-.36.15-.69.5-.88,1.04-.09.26-.16.53-.24.79v-10.4Zm0,21.81c.27-1.78.6-3.53,1-5.26-.14,9.9-.18,19.79.1,29.65-.06,8.23-.19,16.46-.34,24.69-.03-.5-.06-.99-.09-1.49-.2-2.92-.44-5.9-.67-8.92v-38.68Zm0,310.68c.06,1.26.11,2.53.17,3.79.6,14.04,1.21,28.09,1.77,42.13-.07,5.91-.13,11.81-.19,17.72-.35.24-.6.68-.59,1.32.06,8.23.06,16.45.02,24.68-.09,10.24-.29,20.48-.53,30.71-.25,1.4-.45,2.82-.64,4.24v-124.61Zm0,366.08c.05-.48.1-.96.15-1.44-.13,4.36-.16,8.74.05,13.09-.07.76-.14,1.53-.21,2.29v-13.95Zm0,197.03v-52.78c.03-.87.05-1.74.07-2.62.13,2.21.25,4.43.35,6.64-.08,3.63-.21,7.25-.28,10.84-.25,12.89.69,25.81,1.23,38.68.03.77.06,1.55.09,2.32-.06,9.92-.23,19.83-.52,29.75-.18-2.34-.33-4.67-.37-6.94-.18-8.63-.32-17.26-.56-25.89Zm1.89,243.97c.22,7.87.42,15.74.58,23.61-.49.07-.98.14-1.47.22.22-7.95.54-15.89.89-23.83Zm-1,28.67c.01-.56.02-1.11.04-1.67.53-.09,1.06-.17,1.6-.26.01.58.02,1.16.03,1.74-.55.06-1.11.12-1.66.18Zm4.93-.58c0-.6,0-1.2-.01-1.8,4.18-.5,8.41-.68,12.58-.2-4.18.8-8.37,1.46-12.56,2Z"/>
        <path class="cls-1" d="m838.85,1487.65c-.37-.23-.62-.29-.92.03.23.67.33,1.5.73,1.85.06-.11.07-.68.46-.3.37-.92-.4-.87-.26-1.57Z"/>
        <path class="cls-1" d="m839.8,1481.55c.37-.92-.4-.87-.26-1.57-.37-.24-.62-.29-.92.03.23.67.33,1.5.73,1.85.06-.11.07-.68.46-.3Z"/>
        <path class="cls-1" d="m841.72,1482.62c-.3.13-.64-.42-.81.02.24.03.04.63.24.71.47.09.66-.16.56-.74Z"/>
        <path class="cls-1" d="m839.05,1484.74c-.24-.32-.47-.66-.76-.56.26.16.46.73.76.56Z"/>
        <path class="cls-1" d="m838.54,1483.6c-.04-.07-.07-.15.03-.2.12.17.22.41.39.18.03-.27-.34-.63-.59-.53,0,.12-.18.7.18.55Z"/>
        <path class="cls-1" d="m839.2,1483.83c.09-.12.55-.05.45-.73-.22.04-.26-.15-.47-.13-.09.1-.24.81.02.86Z"/>
        <path class="cls-1" d="m840.84,1480.11c-.14-.31-.04-.93-.37-1,.05.43.08.87.37,1Z"/>
        <path class="cls-1" d="m840.28,1480.99c.06-.09.46-.45.1-.58,0,.09-.01.17-.11.15-.01-.23,0-.5-.24-.42-.15.19-.01.76.25.86Z"/>
        <path class="cls-1" d="m840.77,1482.13c-.17-.22-.46-.29-.81-.26,0,.29.01.58.02.86.43,0,.94.08.8-.6Z"/>
        <path class="cls-1" d="m840.68,1483.71c-.7-.18-.78.51-.56,1.02.34-.14.35-.14.69-.02-.1-.4.16-.38.1-.72-.14-.01-.27-.04-.24-.28Z"/>
        <path class="cls-1" d="m840.82,1485.14c-.48.18-.82.46-1.06.81-.46-.42-.99-.94-1.59-.61.56.03,1.08.48,1.5.75-.27.47-.38,1.07-.41,1.83.84.33-.1,1.16.5,2,.78.08,1.15-.85.67-1.46,1.14-.22.21-3.02.4-3.32Z"/>
      </g>
    </g>
  </g>
</svg>