<?xml version="1.0" encoding="UTF-8"?>
<svg id="Livello_2" data-name="Livello 2" xmlns="http://www.w3.org/2000/svg" viewBox="0 0 358.52 156.09">
  <defs>
    <style>
      .cls-1 {
        fill: #9e8d8d;
      }

      .cls-1, .cls-2, .cls-3 {
        stroke-width: 0px;
      }

      .cls-2 {
        fill: #ffd6a5;
      }

      .cls-3 {
        fill: #e5bd93;
      }
    </style>
  </defs>
  <g id="Livello_3" data-name="Livello 3">
    <g>
      <g>
        <path class="cls-3" d="m333.9,143.16c.01,2-1.36,2.22-.07,3.22,6.78-.39,7.28,2.49,8.52-12.22,1.24-14.69-.39-31.54-.7-46.1-.44-20.79.28-41.81-.07-62.55-20.39-2.48-40.32-4.4-60.68-6.44-18.91-1.9-37.77.74-56.76-3.23-11.13-2.32-22,.07-33.04,3.1-13.07,3.59-25.76,3.07-38.85,1.53-25.4-2.98-51.09.07-76.53.08s-49.68.57-72.89,12.86C-.47,56.63.98,85.65.45,109.8c-.28,12.96-1.89,22.32,3.41,30.88,4.46,7.2,11.76,5.68,16.89,7.31,12.13,3.86,21.71,2.1,33.93.65,12.7-1.5,25.81,3.22,38.51,3.94,15.4.88,30.76.81,46.38-1.91,13.17-2.29,25.45,5.33,38.62,5.4,25.85.13,52.11-2.16,78.08-5.06,28-3.13,56.59-11.14,84.43-7.59-.97,1.75-.49,2.07-.46,2.88l-6.34-3.14Z"/>
        <path class="cls-2" d="m357.14,111.57c-.71.07-1.45.08-2.19,0-.05-.77-.08-1.52-.11-2.15,1.69-6.79.93-16.88.22-24.87.2-5.25.43-10.51.46-15.76.01-1.94-.62-2.95-1.29-3.06-.07-2.02-.15-4.04-.26-6.07.07-13.24.89-26.54.81-39.8,0-1.25-.35-2.22-.79-2.75.14-1.65.29-3.3.49-4.92.23-.38.41-.94.48-1.72.11-1.22.21-2.35.38-3.51.26-.23.49-.59.69-1.15.09-.15.17-.3.26-.45,1.37-2.2-.15-5.87-1.58-5.33-5.18,1.97-10.68,1.02-15.93,1.28-5.81.29-11.63.77-17.44,1.33-3.43.33-6.87.68-10.3,1.03-2.77-.47-5.55-.86-8.34-1-9.12-.46-18.21,1.03-27.22,3.97-19.14,1.18-38.28,2.07-57.41,3.93-11.41,1.11-22.83,1.43-34.24.31-6.12-.6-12.22-.91-18.32-1.02-6.97-2.04-14.03-2.22-21.05-1.33-2.95.38-5.88,1.05-8.81,1.82-6.8.23-13.6.53-20.41,1-11.28.78-22.58,1.52-33.87.88-12.85-.72-25.53-3.5-38.4-2.5-6.31.49-12.6,1.96-18.92,2.14-3.13.09-6.25-.04-9.37-.21.25-1.59.49-3.19.69-4.81.49-3.99-2.65-5.69-3.14-1.69-.14,1.11-.28,2.21-.42,3.3l-.13-.88c-.14-3.24-1.81-4.22-2.66-1.61-.51,1.56-.83,3.39-1.03,5.35-1.13-.04-2.26-.07-3.39-.08-2.09-.01-2.1,6.36,0,6.38,1.03,0,2.06.03,3.09.07-.03,3.17.05,6.34.02,9.07-.09,8.88.06,17.75.08,26.63-.17,3.6-.33,7.2-.47,10.8-.84,20.87-2.27,41.83-2.19,62.79,0,.01,0,.02,0,.03-.62-.14-1.27.51-1.51,2.2-.07.53-.15,1.05-.25,1.56-.29,1.63.32,3.47,1,3.92,4.44,2.99,8.81,2.17,13.36,1.46,2.2-.35,4.41-.17,6.61-.63,2.03-.43,4.07-.99,6.11-1.12.6,0,1.19,0,1.79-.03.06,0,.11,0,.17,0,4.5.07,8.92.79,13.46-.05,1.92-.35,3.83-.81,5.75-1.28,5.45.1,10.9.75,16.35.71,6.08-.04,12.16-.42,18.23-.94,1.1.28,2.2.57,3.31.86,4.84,1.31,9.7,2.57,14.58,2.92,4.67.34,9.34-.33,14.01-.71,18.7-1.54,37.36-4.5,56-8.35,5.52-.13,11.03-.28,16.55-.52,7.03,1.3,11.37,2.76,11.78,4.36h7.21c0-2.11,2.89-4.21,7.57-5.9,18.13-1.17,36.26-2.4,54.41-2.9,1.21-.03,2.42-.04,3.63-.06,1.23.86,2.46,1.73,3.73,2.32,4.35,2.04,8.84,1.24,13.25,1.64,4.02.36,8.02.24,11.94-1.83,4.91.55,9.82.97,14.72,1.62,2.35.31,4.71.52,7.04-.16,2.55-.74,4.93-3.05,7.52-3.17.07,0,.13-.03.2-.05,1.57.49,3.07.45,4.91-.05,1.26-.34,2.49-.24,3.72-.08-.03,1.34-.07,2.68-.02,4.03.13,3.68,2.54,4.21,3.19.85.25-1.31.48-2.63.67-3.97.48-.27.95-.53,1.42-.86,1.74-1.21,1.35-5.47-.14-6.12-.04-.52-.15-.97-.33-1.33.04-.44.07-.89.11-1.33.05-.04.1-.08.15-.11,1.61,1.84,3.43,2.96,5.27,3.54.46,2.47,1.17,4.46,2.27,5.45,1.4,1.26,2.15-2.65,1.44-4.94.28,0,.57-.02.85-.05,1.83-.19,1.84-6.56,0-6.38Zm-10.45-35.61c.29-2.29.58-4.65.88-7.05-.43,6.96-1.08,13.84-1.7,20.73-.26.11-.5.33-.7.67.49-4.48,1.01-9.3,1.52-14.35Zm-2.01,20.22c-.09,3.79-.4,7.58-.82,11.33-.23-.03-.47.1-.71.42.41-3.43.89-7.56,1.41-12.22.03.16.07.33.11.48Zm-226.28,25.94c7.13.28,14.25.61,21.16,1.01-.04,0-.09,0-.14,0-7.01.26-14.02.82-21.02,1.49.16-.79.15-1.7,0-2.5Zm218.57-42.17c.11-.19.21-.31.28-.39.22-.03.44-.09.65-.19-.45,3.82-.83,6.02-.83,6.02,0,3.16-2.16,4.2-4.31,4.54.3-.84.6-1.68.91-2.49.72-1.91,1.46-3.78,2.28-5.51.3-.64.8-1.6,1.02-1.98Zm-4.77,36.77c-.06,0-.11.02-.17.03-.24-.15-.48-.3-.73-.43-.28-.15-.57-.24-.85-.32.09-.2.17-.41.24-.66.38-1.28.27-2.51-.1-3.39,1.92.55,3.66,2.17,5.03,4.1-1.14.37-2.3.5-3.44.68Zm-25.65-13.24c-.53,1.04-1.11,1.44-1.67,1.39,3.98-12.78,10-22.95,15.33-32.43-4.29,10.9-8.78,21.39-13.65,31.04Zm-16.67,13.7c-.81-.01-1.62-.02-2.44-.02.81-.21,1.62-.42,2.43-.63,0,.22,0,.44,0,.65Zm-140.91-42.2c.69-1.28,1.4-2.55,2.1-3.81-.61,1.46-1.22,2.92-1.82,4.39-.86,1.22-1.72,2.44-2.58,3.66.77-1.41,1.54-2.82,2.3-4.24Zm-3.98-37.74c.78-2.43,3.08-8.42,6.91-8.42,2.85-1.4,4-.3,3.66,2.66-.52.84-1.03,1.69-1.54,2.54-.82-2.74-2.53-4.41-4.32-2.28-1.56,1.86-3.14,3.68-4.71,5.49Zm10.56,43.17c.22-.3.43-.61.65-.93-1.28,3.04-2.5,6.24-3.59,9.69-.28.88-.29,1.8-.14,2.6-1.35,1.96-2.65,3.83-3.86,5.56,2.31-5.64,4.6-11.33,6.94-16.92Zm134.52-40.02c1.92-.79,2.56-3.93,2.27-6.85h1.44c0,3.11-5.22,14.41-13.6,29.84-.29.44-.59.86-.88,1.29-1.23,1.85-2.52,3.62-3.83,5.37.23-.47.47-.94.7-1.41,3.24-6.59,6.53-13.08,9.8-19.62.84-1.69,1.66-3.42,2.51-5.11.43-.86.86-1.71,1.3-2.54.45-.86,1.24-1.35.3-.97Zm4.73,47.52c.14.46.33.83.54,1.07-.92,1.9-1.77,3.93-2.5,6.2l-2.81,1.1c1.64-2.67,3.22-5.48,4.77-8.37Zm4.28-51.49c.65-3.72,1.86-5.47,3.2-4.4-1.07,1.46-2.13,2.93-3.2,4.4Zm.54,52.12c.78-1.41,1.58-2.77,2.38-4.13-.59,1.08-1.18,2.16-1.76,3.26-.21.29-.42.59-.63.87Zm-47.03,15.89c-6.89,4.37-6.76-.41,2.72-14.34,2.37-4.07,4.6-7.93,6.68-11.56-.17.32-.33.65-.5.97-3.04,5.83-7.08,11.77-8.87,19.52-.45,1.94-.39,3.82-.04,5.4Zm-21.48-9.39c3.01-4.98,6.07-9.9,9.17-14.69-.68,1.6-1.35,3.23-2.01,4.89-2.58,6.56-5.1,13.71-8.43,18.95-.33.02-.65.04-.99.04-1.16,0-2.13,0-2.93-.02,1.7-3.11,3.4-6.23,5.18-9.17Zm-23.9-4.95c.69-1.36,1.49-2.82,2.36-4.35,2.87-3.93,5.84-7.55,8.68-11.5-2.11,3.72-4.21,7.47-6.27,11.32-.29-.13-.61-.06-.94.33-1.75,2.04-3.39,4.5-5.1,6.7l1.27-2.5Zm37.12.71c-.05.5-.07,1.02-.05,1.53-.54.91-1.08,1.73-1.6,2.52.55-1.36,1.1-2.72,1.65-4.05Zm-44.33,13.43c1.2.13,2.41-.47,3.62-1.49-.46,1.05-.91,2.12-1.35,3.19-1.04-.04-2.08-.06-3.11-.05l.85-1.66Zm84.5-5.79l-2.74,1.08,1.68-3.29c.26.85.63,1.62,1.06,2.22Zm18.35,1.74c-.12-.22-.27-.39-.43-.5-.03-1.27.19-2.59.76-3.73,2.57-5.08,5.03-10.4,7.41-15.89.15-.2.31-.41.46-.61.4-.51.61-1.25.67-2.02.92-2.16,1.83-4.35,2.73-6.56.61-.96,1.22-1.92,1.84-2.86,4.14-6.26,7.97-13.36,11.7-20.79.54-1.07,1.08-2.14,1.61-3.21-.67,2.01-1.37,3.98-2.14,5.82-2.96,7.11-6.45,13-9.83,19.05-5.16,9.23-10.83,19.07-14.79,31.29Zm26.94-65.19c-2.18,4.79-4.49,9.47-6.87,13.93,1.36-3.67,2.71-7.37,4.05-11.07.1-.8.3-1.6.63-2.33.38-.85.76-1.7,1.14-2.55.8-1.78,1.7-1.98,2.45-1.26-.49,1.16-.95,2.3-1.4,3.28Zm-6.87,6.32c.38-2.22.7-4.04,1.01-5.54,1.35-2.23,2.7-4.47,4.04-6.71.25-.06.52-.1.8-.13-.84,1.83-1.67,3.68-2.51,5.43-1.12,2.31-2.23,4.63-3.34,6.95Zm-157.64-10.96c.02-.51,0-1.01-.04-1.51.29-.03.66-.03,1.1-.03.03,0,.06,0,.09.01-.39.48-.77,1-1.15,1.53Zm-4.04,77.14c.86,1.12,1.98,1.29,3.11-.35,3.65-5.26,7.15-10.89,10.62-16.57-3.02,5.48-5.96,11.13-8.68,17.22-2.37,2.54-4.32,3.31-6.68,2.59.54-.97,1.08-1.93,1.63-2.89Zm161.41-31.3c1.61-3.81,3.25-7.57,4.92-11.27-1.62,3.81-3.27,7.57-4.92,11.32v-.05Zm-42.22-62.34c7.4-.47,14.8-1.14,22.2-1.85-3.49.62-7.2,1.24-11.05,1.82-.57-.2-1.17-.14-1.72.26-6.94,1.04-14.26,1.99-21.51,2.79,2.39-1,4.79-1.9,7.2-2.69,1.63-.11,3.26-.23,4.89-.33ZM97.3,98.85c-.12.36-.22.72-.28,1.09-.16-.08-.31-.2-.41-.41,0,0,.09-.27.27-.76.14.04.28.07.43.07ZM10.65,72.1c-.04-1.66-.08-3.31-.08-4.91,0-.75,0-1.5,0-2.25.37-9.19.8-18.38,1.37-27.54.16-2.56.31-5.14.5-7.7v3.84c0,11.09-.74,25.08-1.79,38.56Zm90.96-26.73c2.11-3.95,4.29-7.75,6.59-11.31.26-.06.53-.2.78-.43.87-.03,1.79-.04,2.75-.06-2.22,3.82-4.37,7.81-6.54,11.74-.53-.38-1.24-.54-2.1-.41-.37-.47-.84-.53-1.31.2-.05.08-.1.16-.15.24-.01,0-.02,0-.03.01Zm-60.02,55.52c.42-.58.74-1.29.96-2.1.59-1.04,1.29-2.02,1.98-2.96-.82,1.8-1.67,3.62-2.59,5.21-.12-.08-.24-.13-.36-.14Zm4.77-9.67c-.02.13-.03.27-.05.4-.51-.62-.94-1.64-1.17-2.83.74-1.84,1.49-3.64,2.27-5.39.38-.73.76-1.45,1.15-2.16-.85,3.17-1.6,6.49-2.2,9.98Zm22.35-21.72c4.96-9.46,9.77-19.93,15.37-28.13-.06,4.23-5.1,13.79-18.74,34.58-.07.13-.13.26-.2.39-.07.07-.15.15-.22.22,1.28-2.33,2.55-4.68,3.8-7.07Zm18.81-13.26c-.3-.05-.6-.06-.9-.05,1.09-2.84,2.04-5.68,2.76-8.52,1.3-7.63,3.3-11.14,8.64-12.76-3.63,6.84-7.06,14.1-10.5,21.33Zm-63.44-.56c.05.25.08.54.09.83-.14.3-.27.6-.41.91.08-.67.16-1.36.24-2.04.03.1.05.18.08.3Zm12.4,10.84c1.97-3.86,3.74-7.33,5.35-10.45.16-.18.33-.34.49-.51-1.82,3.69-3.54,7.42-5.14,11.64-1.11,2.94-2.18,5.89-3.33,8.7-1.36,2.55-2.72,5.11-4.09,7.64-2.55,4.69-5.3,8.9-7.54,14.11,2.24-6.93,7.07-17.06,14.26-31.14Zm-3.27,31.73c.07-.1.14-.21.2-.31-.28,1.23.01,1.58.66,1.58.46.9.92,1.44,1.53,1.46-.72,2.04-1.42,4.14-2.07,6.3-.19.62-.25,1.25-.22,1.84-2.86.66-5.22.99-7.08.93,2.66-2.63,4.75-8.43,6.99-11.8Zm16.79-9.86c2.51-11.34,6.7-20.6,11.41-28.32-.38.92-.76,1.83-1.13,2.76-.24.6-.48,1.21-.72,1.82-.25.43-.49.87-.74,1.31-.3.53-.44,1.15-.47,1.77-2.74,6.98-5.47,13.99-8.35,20.66Zm7.31,1.89c.05-.04.11-.09.16-.13-.25.4-.49.79-.73,1.17.19-.35.38-.69.57-1.04Zm23.58,3.5c.29,2.95,1.68,5.02,3.15,5.11-1.79,1.34-3.25,1.63-4.28.63-1.13,0-.67-2.07,1.13-5.74Zm35.1,3.7c-.21.09-.59.1-.92.17.29-.93.52-2.34.79-3.18.77-2.43,1.67-4.67,2.6-6.81,1.09-2.53,2.25-4.9,3.47-7.06.36-.48.72-.96,1.07-1.45,1.13-1.54,2.26-3.05,3.4-4.53-.37,1.14-.76,2.25-1.18,3.33-.63,1.39-1.25,2.84-1.85,4.32-2.41,5.19-5.17,9.88-7.34,15.22-.01,0-.02,0-.04,0ZM8.07,129.98c.16.34.36.63.58.88.04.17.08.32.13.48-.44-.11-.88-.25-1.32-.42.24-.2.46-.51.61-.94Zm40.72-2.17c-6.39.16-12.76,1.42-19.15,1.38-2.22-.01-4.44-.06-6.67-.1,3.87-1.55,8.28-3.48,12.35-5.44,5.72,1.92,11.58,2.04,17.37,1.94,3.35-.06,6.71-.13,10.06-.21-3.59.61-7.17,1.56-10.75,2.43-1.07-.02-2.14-.03-3.21,0Zm24.93-2.82c.29-.01.58-.02.87-.04,7.74-.38,15.49-.65,23.19,1.22.48.12.97.24,1.45.36-4.22.42-8.44.8-12.67,1.13-4.27-1.15-8.55-2.22-12.84-2.67Zm31.84-3.3c2.1.06,4.21.12,6.32.19-2.09.33-4.21.18-6.32-.19Zm5.47-12.73c-2.84,0-3.16-3.29,1.01-11.8-.09.93-.11,1.87-.02,2.8.32,3.43,1.62,4.25,2.96,4.18.02.06.03.13.05.19-.91,2.66-2.45,4.63-4.01,4.63Zm207.86,7.79c.63.11,1.27.23,1.9.32-.05,0-.11,0-.16,0-.58-.09-1.16-.2-1.74-.33Zm22.29-81.69s.04-.04.07-.06l-.16,1.57c-.26-.03-.52,0-.79.1.28-.57.57-1.11.88-1.6Zm-2.24,32.91c-.29-.38-.61-.65-.97-.75-1.23-.32-2.35.02-3.37.84,1.11-2.72,2.21-5.45,3.3-8.19.51-1.3,1.03-2.59,1.55-3.88-.07,4.34-.26,8.37-.5,11.98Zm-227.77,63.46c4.2-.42,8.4-.81,12.61-1.1.3-.02.6-.03.9-.05-4.48.51-9,1.01-13.51,1.16Zm231.43-14.37c-.03.18-.04.35-.05.52-.01.02-.02.05-.03.07-.18-.04-.36-.07-.54-.11.02-.17.05-.37.07-.6.23-.3.46-.6.7-.92-.05.34-.1.69-.15,1.03Z"/>
      </g>
      <g>
        <g>
          <path class="cls-1" d="m61.81,56.26c.39,4.49,1.89,8.51,1.91,13.15.03,5.43-.47,10.85-.61,16.28-.33,12.41.29,24.35-2.26,36.59-.07.35-.09,1.94.62,1.64,4.85-2.09,5.94-10.73,6.45-15.19.85-7.39.34-14.82.52-22.23.15-6.37.71-12.73.45-19.11-.2-4.87-.2-13.02-4.47-16.34-.39-.22-.78-.21-1.16.03l-.31.2c-1.44.92-1.26,3.61-1.14,4.99h0Z"/>
          <path class="cls-1" d="m56.11,67.52c-.76-.42-1.08-.42-1.88-.1l2,1.12-.29-.54.16,6.51c1.59-4.14,12.14-23.23,17.38-14.55,3.08,5.11,1.36,13.16-1.65,17.86-3.19,4.97-8.44,6.55-5.84,13.3.18.47.85,1.4,1.49,1.32,8.14-1,11.3-14.5,11.93-21,.64-6.62.38-19.14-6.31-23.13-5.58-3.34-11.34,3.96-14.05,7.93-3.27,4.78-9.35,13.82-5.1,19.5.62.83,1.45.68,2.05-.05.44-.53.71-1.13,1.03-1.74.77-1.5.83-5.44-.92-6.4h0Z"/>
          <path class="cls-1" d="m73.18,87.05c8.49,5.85,6.92,16.18,11.8,24.18,2.18,3.57,3.84-1.36,3.67-3.54-.4-5.19-6.42-34.16-15.68-28.77-2.15,1.25-1.65,6.86.2,8.13h0Z"/>
          <path class="cls-1" d="m88.57,71.52c-.4,7.01,1.76,14.26,2.29,21.28s.28,14.82,1.55,21.99c1.05,5.93,4.64,3.17,4.71-1.5.11-7.86-.89-15.98-1.64-23.81-.38-4-.85-8-1.58-11.95-.52-2.82-.81-6.23-2.84-8.39-1.51-1.61-2.42,1.25-2.49,2.38h0Z"/>
          <path class="cls-1" d="m88.46,60.32c.11.72.16,2.05.95,2.37l-.38-.48c.09.23.07.17-.05-.18l.05.35.12.82c.03.22.15.78.48.77s.41-.56.44-.79l.12-.83.05-.35c-.1.35-.1.41,0,.18l-.58.57h.01c.76-.16.89-1.16.99-1.79l.11-.7c.13-.81,0-1.84-.37-2.58-.16-.33-.44-.77-.86-.76s-.68.49-.82.8c-.34.78-.37,1.76-.24,2.59h0Z"/>
          <path class="cls-1" d="m114.56,79.65c-1.03-5.33-7.49-20.87-14.2-11.24-5.13,7.37-1.61,19.64-.3,27.74.96,5.97,2.36,21.98,10.84,22.39s9.42-14.14,7.94-19.67c-.17-.64-.93-1.69-1.57-.81-1.05,1.43-1.98,2.52-2.76,4.18s-1.27,4.37-3.49,4.49c-4.41.24-5.19-10.18-5.64-12.97-.35-2.12-.69-4.25-1.03-6.38-.37-2.28-1.5-5.76-.86-7.99,1.83-6.32,6.79,4.26,7.86,5.97,2.13,3.39,3.43-4.59,3.22-5.7h0Z"/>
          <path class="cls-1" d="m120.49,75.23c-1.11,8.67-.08,18.92,2.56,27.21,1.82,5.72,7.85,16.52,15.56,12.09,6.56-3.77,5.35-15.6,4.6-21.73-.92-7.56-2.69-16.02-6.21-22.86-1.79-3.47-6.36-9.53-10.74-6.37-4.31,3.11-4.19,11.27-3.5,15.87.1.68.72,1.76,1.23.69,1.89-3.98,4.42-7.54,8.25-3.27,1.22,1.36,1.97,3.51,2.76,5.97,1.64,5.18,4.52,13.38,2.89,18.84-1.89,6.35-9.23-1.32-10.49-4.4-2.91-7.08-2.23-14.73-3.26-22.14-.53-3.79-3.17-3.54-3.63.09h0Z"/>
          <path class="cls-1" d="m151,110.02c.35-13.4-6.05-26.23-4.85-39.62l-3.09,2.93c3.35,3.84,3.7,9.35,5.53,13.96,2.05,5.18,5.56,9.49,8.28,14.3,1.45,2.56,3.42,1.28,3.92-1.19,1.09-5.34,1.31-10.66,1.68-16.08.41-6.05,2.13-11.87,1.7-17.98l-4.56,2.9c2.5,7.11,2.85,14.65,4.7,21.92,1.21,4.73,2.42,9.37,3.35,14.17.91,4.73,4.99,5.2,5.22-.13.27-6.4-2.01-12.71-3.7-18.82-2.21-7.96-2.65-16.22-5.83-23.92-1.91-4.62-4.23,2.03-4.14,4.01.23,5.06-1.35,10.03-1.66,15.08-.27,4.49-.11,9.11-1.23,13.49l3.92-1.19c-2.96-5.15-7.08-9.78-9.05-15.44-1.66-4.75-2.8-9.46-6.15-13.37-1.85-2.16-2.95,1.71-3.09,2.93-1.7,14.42,4.06,27.94,4.97,42.16.32,5.04,3.96,4.96,4.09-.1h0Z"/>
          <path class="cls-1" d="m171.51,70.78c.7,6.74,2.2,13.43,3,20.18.78,6.54,1.27,13.23,2.91,19.62.43,1.69,1.62,3.13,3.29,2.12s1.56-4.79,1.34-6.37c-.95-7.05-2-14.1-2.97-21.15-.83-6.06-1.43-13.28-4.41-18.72-2.2-4.02-3.32,2.77-3.16,4.34h0Z"/>
          <path class="cls-1" d="m171.66,57.68l-.33-.06c1.18.51,1.83-.78,2.13-1.71.56-1.76.51-3.86-.14-5.59-.32-.85-1.09-2.25-2.21-1.6-.41.24-.69.8-.88,1.21-.44.93-.55,2.27-.52,3.28l.12,1.39-.06-2.25-.02.17c-.11,1.21,0,2.44.42,3.57.11.38.29.73.54,1.05.23.33.55.51.94.54h0Z"/>
          <path class="cls-1" d="m191.54,106.1l.04.27c.13.72.97,3.53,2.28,2.54,3.77-2.86.28-12.96-.53-16.56-1.81-8.03-4.36-16.27-3.86-24.58l-3.6,2.24c7.07,13.98,12.36,28.95,21.75,41.65,1.13,1.53,2.47.19,3.09-.91,1.05-1.84.73-4.52.24-6.46-1.88-7.55-2.92-15.24-4.56-22.83-1.23-5.66-2.86-11.11-3.08-16.93-.12-3.05-2.65-7.38-4.17-2.39-1.99,6.54.68,14.33,2.18,20.72,2.09,8.91,3.2,18.01,5.33,26.91,1.11-2.46,2.22-4.91,3.34-7.37-8.25-12.45-14.57-26-21.19-39.35-1.6-3.23-3.44.24-3.6,2.24-.59,7.17.28,14.19,1.8,21.2.7,3.22,1.51,6.42,2.26,9.63.57,2.41,2.19,7.86,2.24,9.27l2.19-3.63c-.19-.08-.38-.14-.58-.19-2.13-.61-1.82,3.46-1.57,4.54h0Z"/>
          <path class="cls-1" d="m224.65,67.99c-1.41-3.01-4.02-8.52-8.01-8.53-4.16-.01-6.12,5.31-6.72,8.58-1.59,8.6,1.34,17.34,4.37,25.27,1.8,4.72,5.98,18.67,13.47,15.82,6.61-2.52,8.95-15.14,5.21-20.49-.83-1.19-2.01-.2-2.42.73-1,2.28-1.19,8.13-4.62,8.4-3.63.29-6.04-8.12-7.01-10.57-1.42-3.59-2.98-7.26-3.71-11.07-.34-1.77-1.09-4.57,1.71-4.96,2.18-.31,4.11,2.7,5.44,3.99,3.03,2.93,2.93-5.79,2.28-7.17h0Z"/>
          <path class="cls-1" d="m234.26,64.69c.58,8.12,2.03,16.28,3.46,24.29.82,4.62,1.4,11.5,4.2,15.43,1.54,2.16,2.82-1.68,2.91-2.63.52-5.34-1.37-10.6-2.34-15.78-1.41-7.54-2.44-15.16-3.9-22.69-1.02-5.27-4.65-3.15-4.33,1.39h0Z"/>
          <path class="cls-1" d="m234.34,55.49c.1-.11.19-.22.3-.33l-.44.44c.42-.41.62-.6.87-1.17s.39-1.32.45-1.92c.08-.73.06-1.49-.05-2.21-.17-1.09-.51-2.19-1.41-2.9-.34-.19-.67-.18-1,.02-.14.08-.26.18-.39.28-.63.5-.89,1.24-1.09,1.99-.33,1.22-.27,2.59,0,3.81.18.82.42,1.66,1.07,2.24.19.23.44.35.75.35.41-.05.73-.25.95-.61h0Z"/>
          <path class="cls-1" d="m251.06,101.4c.63-6.51,1.78-12.95,2.11-19.5.36-7.3-1.39-15.54,2.13-22.25l-3.15.08c3.77,7.09,4.49,15.25,6.17,22.99,1.78,8.19,5.35,15.85,6.57,24.17l.91-5.42-1.07.8c-.44.21-.41,1.1-.36,1.47.14,1.06.31,2.11.52,3.16.94,5.24,4.81,3.13,4.42-1.38-.82-9.52-5.08-18-7.15-27.23-1.94-8.66-2.92-17.47-7.03-25.48-.92-1.8-2.24-1.6-3.15.08-3.87,7.13-3.28,15.47-3.16,23.3.12,7.75-1.03,15.46-1.37,23.19-.05,1.21-.14,4.35,1.41,4.85s2.09-1.71,2.2-2.83h0Z"/>
          <path class="cls-1" d="m251.77,86.72c17.6,7.15,39.36,3.28,47.14-16.05,3.24-8.06,3.19-17.39.14-25.49-3.39-9-10.49-15.31-18.69-19.98-36.65-20.86-80.05,3.27-117.66,8.09-13.78,1.76-28.07,2.73-41.96,2.9-12.12.15-24.93-3.02-36.77-.48-1.93.42-1.71,4.46-.94,5.73,2.07,3.41,4.03,4.77,8.08,4.99,4.96.27,9.92.54,14.88.82,11.94.68,23.77-.48,35.62-1.87,9.76-1.15,19.52-2.01,29.13-4.1s18.16-4.49,27.19-6.89c17.59-4.66,35.78-9.61,54.14-8.7,16.39.81,39.93,8.59,44.74,26.48,2.95,10.96-4.13,21.44-13.57,26.55-9.58,5.18-20.85,3.94-30.72.31-2.6-.95-2.96,6.78-.75,7.67h0Z"/>
          <path class="cls-1" d="m97.26,24.01c-1.42-1-3.46.12-4.99.56-2.85.82-5.76,1.47-8.69,1.92-4.76.72-10.84,1.47-15.17-1.14-2.5-1.5-3.72,3.22-3.92,4.73-.35,2.78.14,6.3,2.49,8.1,5.4,4.13,11.17,7.74,17.12,11.03,4.76,2.64,10.45,6.37,16.06,6.54.75.02.48-1.62.34-1.98-5.84-14.35-20.76-17.99-31.29-27.76-.74,4.06-1.48,8.12-2.23,12.17,4.76,3.22,12.24,2.23,17.54,1.28s12.51-2.66,14.2-8.63c.55-1.94.41-5.49-1.45-6.81h0Z"/>
        </g>
        <path class="cls-1" d="m276.58,117.33c1.59-2.23,3.23-4.33,5.05-6.4,2.54-2.89,4.2-6.24,6.31-9.41.35-.53.15-3.61-.62-2.9-1.1,1.02-3.31,1.42-4.66,2.23-1.95,1.16-3.53,2.17-5.09,3.9-2.67,2.97-5.15,8.92-2.38,12.61.4.54,1.02.5,1.4-.03h0Z"/>
        <path class="cls-1" d="m283.42,123.15c2.01-4.26,7.59-7.62,11.1-10.53,2.27-1.88,4.01-4.04,6.01-6.16,1.87-1.98,3.8-3.38,5.19-5.8.32-.56.64-3.76-.69-3.23-2.48.99-4.56,2.44-7.1,3.25-2.71.86-5.11,1.87-7.6,3.28-4.96,2.81-8.63,6.27-10.41,11.85-.7,2.18-1.12,5.35.18,7.42,1.08,1.73,2.36,1.95,3.32-.08h0Z"/>
      </g>
    </g>
  </g>
</svg>