<?xml version="1.0" encoding="UTF-8"?>
<svg id="Livello_2" data-name="Livello 2" xmlns="http://www.w3.org/2000/svg" viewBox="0 0 218.29 173.34">
  <defs>
    <style>
      .cls-1 {
        fill: #fff;
      }

      .cls-1, .cls-2, .cls-3 {
        stroke-width: 0px;
      }

      .cls-2 {
        fill: #9e8d8d;
      }

      .cls-3 {
        fill: #b9b5e2;
      }
    </style>
  </defs>
  <g id="testi">
    <g>
      <path class="cls-3" d="m210.55,60.58c4.67-3.09,3.57,21.39,3.28,24.16-1.09,10.46-2.96,20.92-3.84,31.32-8.61,3.56-17.82-.36-26.73-.29-8.3.07-16.63.9-25.11.9-9.35,0-18.06-2.14-27.31-2.53-8.72-.37-17.39-.13-26.13-.5-8.83-.38-17.26.92-25.9.96,6.94,3.85,8.29,17.48,7.39,24.61-3.47-.54-5.83-3.27-8.91-4.75-4.29-2.06-8.99-2.67-12.78-5.78-3.73-3.07-5.07-5.64-10.09-6.86-3.86-.94-7.94-1.2-11.83-2.11-9.04-2.1-12.99-8.27-21.27-11.43-5.02-1.92-16.97-2.42-20.37-7.39-1.69-2.47-.9-16.72.4-19.59,2.09-4.59,14.43-7.63,19.31-9.46,18.84-7.1,36.37-15.5,53.76-25.4,3.74-2.13,8.16-5.67,12.22-7.07,5.09-1.76,5.03.81,6.06,6.15.81,4.17,1.13,8.3,2.01,12.43,1.14,5.36.93,6.04-.72,11.14,4.7,1.95,15.47.93,20.42.1,10.51-1.77,20.63-6.44,31.36-7.09,15.94-.96,33.94,3.16,49.41-1.25,6.36-1.81,14.59-3.89,20.92-1.77"/>
      <path class="cls-2" d="m5.5,92.69c0,.06.05.11.06.16.06.33.17.63.33.92.03.05.04.11.08.17.2.32.46.59.75.83.07.06.15.1.23.15.14.09.27.21.43.28l79.68,36.16c1.16.52,2.52.33,3.48-.51.96-.83,1.35-2.15,1-3.37l-5.19-17.83,124.31,2.69h.07c1.67,0,3.07-1.26,3.24-2.93l4.32-42.03c.03-.31,0-.61-.05-.9,0-.03,0-.05,0-.08l-2.7-13.31c-.31-1.53-1.66-2.61-3.19-2.61-.1,0-.19,0-.29.01l-117.41,10.44,2.44-5.66c.14-.33.22-.67.25-1.01,0-.08-.01-.15,0-.23,0-.32-.04-.63-.12-.94-.02-.06,0-.11-.02-.17l-4.24-12.41c-.3-.86-.94-1.56-1.77-1.93-.42-.18-.87-.28-1.31-.28s-.89.09-1.31.28L5.37,75.1c-1.34.59-2.12,2-1.91,3.45l2.04,14.14Zm202.28,13.06l-125.75-2.73c-1.12,0-2.03.45-2.66,1.28-.63.82-.84,1.9-.54,2.9l4.45,15.29-66.63-30.24,71.11-31.86-7.13,16.52c-.46,1.05-.32,2.27.35,3.2.62.86,1.6,1.35,2.65,1.35.09,0,.18,0,.28-.01l127.49-10.82-3.61,35.13ZM34.47,69.44c.6,2.34,1.02,4.71,1.25,7.12l-5.62,2.52-.98-7.29,5.35-2.35Zm10.64-4.67l1.42,6.95-7.07,3.17c-.29-2.38-.72-4.73-1.34-7.04l7-3.07Zm22.63-9.94l1.62,6.65-8.88,3.98-1.37-6.84,8.63-3.79Zm5.25,5.03l-1.62-6.62,6.91-3.04,1.12,6.79-6.42,2.87Zm-16.17,7.24l-6.64,2.98-1.41-6.92,6.67-2.93,1.38,6.87Zm-30.45,13.64l-5.53,2.48-1.35-7.2,5.9-2.59.99,7.32Zm169.09-15.31l-.95-6.84,6.68-.59.95,6.87-6.68.57Zm-3.9.33l-7.98.68-.94-6.79,7.98-.71.94,6.83Zm-11.88,1.01l-8.48.72-.93-6.74,8.47-.75.94,6.78Zm-12.38,1.05l-7.23.61-.9-6.7,7.21-.64.93,6.73Zm-11.13.94l-5.79.49-.92-6.66,5.81-.52.9,6.69Zm-9.69.82l-8.48.72-.91-6.61,8.47-.75.92,6.64Zm-12.38,1.05l-7.23.61-.88-6.57,7.2-.64.91,6.59Zm-11.13.94l-8.25.7c0-.06.02-.11,0-.17l-.99-6.34,8.34-.74.88,6.55Zm-12.12,1.03l-8.19.7-1-6.46,8.17-.73,1.01,6.49Zm100.27-8.51l-5.06.43s0,0,0-.01l-.95-6.87,4.62-.41,1.4,6.87Zm-113.36,3.09l.99,6.44-9.96.85,2.91-6.75,6.06-.54Zm-7.72-14.97l-6.93,3.1-1.11-6.75,5.91-2.59,2.13,6.24ZM15.82,77.63l1.36,7.24-5.85,2.62-1.07-7.41,5.56-2.44Z"/>
      <path class="cls-1" d="m38.38,86.16c8.26-3.12,16.54-6.06,24.34-10.24,4.4-2.36,8.81-4.65,13.28-6.89,3.23-1.62,6.19-3.37,8.4-6.27.14-.18.16-.79-.07-.91-3.13-1.74-5.21,1.08-7.67,2.98-4.1,3.16-8.79,5.52-13.52,7.59-8.22,3.6-18.15,5.67-25.08,11.55-.44.38-.51,2.51.32,2.19h0Z"/>
      <path class="cls-1" d="m85.83,60c-1.11,1.54-1.57,3.57-2.27,5.32-.93,2.34-1.91,4.65-2.97,6.93-.6,1.29-4.02,7.11-2.51,8.76,1.95,2.13,4.44-4.46,4.96-5.59,1.85-4.02,3.8-8.35,4.29-12.78.06-.59-.44-4.11-1.5-2.64h0Z"/>
      <path class="cls-1" d="m98.67,84.22c3.53-.69,7.1-.38,10.68-.3,4.75.1,9.42-.11,14.17-.46,12.11-.87,24.16-2.33,36.21-3.81,11.07-1.36,22.22-2.34,33.27-3.83,2.83-.38,5.62-.96,8.45-1.32,2.1-.27,6-1.42,8.04-.4,1.23.62.82-4.32.29-5.02-2.54-3.32-11.81-.33-15.15.22-10.92,1.81-22.09,2.61-33.08,3.99-12.39,1.56-24.79,2.9-37.21,4.24-5.03.54-10.05,1.53-15.1,1.81-3.67.2-7.83.38-10.7,3-.24.22-.33,1.97.13,1.88h0Z"/>
      <path class="cls-1" d="m211.43,69.19c-2.91.49-2.83,10.01-2.98,12.09-.5,7.27-1.7,14.72-.7,21.97.25,1.81,2.1,3.33,2.56.68.29-1.69.5-2.85-.6-4.24l.72,3.49c.67-9.82.33-20,2.16-29.68.13-.67.34-4.56-1.16-4.31h0Z"/>
      <path class="cls-1" d="m82.4,117.1c-1.47-1.89-1.92-4.75-2.34-7.06-.19-1.02-.41-1.58-.22-2.04.47-1.09,1.28-2.05,1.73-3.23.15-.4.17-1.07-.2-1.37-3.93-3.13-4.6,3.58-4.28,6.08.53,4.09,1.34,9.21,4.08,12.44,1.55,1.83,2.22-3.56,1.22-4.84h0Z"/>
      <path class="cls-3" d="m128.26,41.86c3.56-3.34,4.59-8.96,6.31-13.35,1.2-3.08,2.56-6.13,4.01-9.1.92-1.87,2.19-6.33,3.85-7.68l-1.78-.52c1.44,1.91,1.72,4.55,2.54,6.76,1.03,2.8,2.27,5.53,3.38,8.31,2.07,5.18,4.33,10.3,6.54,15.42.52-3.31,1.04-6.62,1.57-9.93-8.08,1.31-16.2-.19-24.27-.37l2.67,9.5c1.71-5.84,5.25-11.74,8.47-16.86l-2.79.07c2.44,3.66,3.67,7.81,5.01,11.95.74-3.22,1.48-6.43,2.22-9.65-3.04.7-5.74-.78-8.68-.62.86,3.05,1.72,6.09,2.58,9.14.77-3.06.86-5.79-1.19-8.34s-3.53,1.45-3.8,3.02c-.42,2.4-.32,6.61,1.97,8.21,2.41,1.68,6.6,2.05,9.43,1.34,3.36-.85,3.05-7.2,2.22-9.65-1.93-5.7-3.85-11.17-7.23-16.19-.72-1.08-2.11-1.02-2.79.07-3.88,6.23-7.53,13.01-10.03,19.93-.83,2.3-1.68,10.52,2.26,10.79,4.47.31,9.28,1.03,13.72.58,3.77-.39,7.71.13,11.19-1.55,2.78-1.34,1.84-7.62.89-9.7-2.6-5.71-4.65-11.74-7.04-17.55-1.88-4.57-3.34-10.74-6.76-14.42-.38-.41-1.16-1.12-1.78-.52-3.6,3.48-5.47,9.53-7.47,14.02-1.43,3.2-2.76,6.46-3.78,9.83-.91,3.01-.98,7.31-3,9.75-1.24,1.5-.16,8.96,1.57,7.33h0Z"/>
      <path class="cls-3" d="m130.53,133.45l.2-.28-2.15-1.19c.76,2.33,1,4.71,1.51,7.09.77,3.57,2.31,6.77,3.54,10.18,2.27,6.33,2.25,13.01,6,18.79.66,1.02,1.94.83,2.58-.06,1.93-2.7,2.76-5.77,4.2-8.72,1.56-3.2,3.49-6.23,5.11-9.41,2.62-5.13,6.07-11.43,6.53-17.25.17-2.17.08-6.9-2.77-7.51-4.34-.94-9.43-1.44-13.87-1.35-2.18.05-4.07.55-6.22.16-1.33-.24-2.14-1-3.57-.7-3.53.72-3.07,7.53-2.29,9.96,1.46,4.55,3.48,8.92,4.86,13.48,1.07,3.55,1.87,7.22,4.16,10.22,1.76,2.3,3.63-.74,3.96-2.4.86-4.24,1.43-8.38,4.73-11.5,2.02-1.91,3.37-10.67-.29-11.81-2.89-.9-4.78-.84-7.63.22-3.15,1.17-2.38,13.09,1.05,12.38,1.74-.36,4.59,2.35,6.6,2.69-.89-3.15-1.78-6.29-2.67-9.44-.01.04-2.16,3.12-2.56,4.47-.78,2.61-.6,5.34.16,7.92.97,3.3,3.61,3.38,4.35-.11.39-1.83,2.47-4.08,3.08-6.04.73-2.37.68-8.88-2.67-9.44-2.28-.38-4.16-3.19-6.6-2.69.35,4.13.7,8.25,1.05,12.38,2.16-.95,3.26-.85,5.4-.31-.34-4-.68-8.01-1.02-12.01-4.95,4.7-6.63,10.46-8.22,16.94l3.96-2.4c-1.57-2.37-1.91-5.64-2.85-8.28-1.31-3.69-2.92-7.26-3.95-11.05-.76,3.32-1.53,6.64-2.29,9.96,1.4-.14,2.49.8,3.84,1.01,2,.31,3.95-.33,5.95-.39,4.63-.14,9.2.66,13.84.1l-2.77-7.51c-.1,1.81-1.56,4-2.23,5.7-1.08,2.76-2.3,5.43-3.7,8.05-1.32,2.48-2.75,4.91-3.98,7.44s-1.82,5.57-3.51,7.88l3.12.78c-3.2-6.14-3.54-13.34-6.22-19.75-1.29-3.09-2.24-6.1-3.34-9.24-.57-1.61-1.26-3.52-3.17-3.66-2.15-.16-1.35,4.97-.95,5.95l.15.37c.28.69,1.01,1.11,1.53.4h0Z"/>
      <path class="cls-2" d="m126.66,126.47c4.6,14.52,7.71,29.19,10.15,44.2.11.65.77,2.94,1.89,2.64,2.6-.7,1.73-4.47,1.24-6.36-1.44-5.53-3.06-11.01-4.56-16.53-1.35-4.94-2.46-9.89-3.55-14.9-.85-3.91-1.68-8.07-4.25-11.26-.87-1.08-1.05,1.8-.92,2.2h0Z"/>
      <path class="cls-2" d="m140.36,171.59c3.45-1.29,4.72-5.09,6.57-8.09,2.61-4.22,4.77-8.42,6.45-13.1s3.46-9.19,5.68-13.67c1.73-3.49.99-5.6.84-9.16,0-.13-.26-1.2-.53-.69-3.23,6.24-6.52,11.93-9,18.61-3.04,8.19-6.55,16.41-10.62,24.12-.22.42-.24,2.29.61,1.97h0Z"/>
      <path class="cls-2" d="m127.99,127.49c5.23.01,10.44,1.04,15.67,1.38,5.64.37,11.54-1.16,17.11.54l-1.34-6.6c-.09.33-1.42,9.62,2.39,6.58,1.66-1.33,2.28-7.83-.21-8.7-5.5-1.93-11.56.27-17.27-.13-4.75-.33-12.54-3.01-16.98-.47-1.66.95-1.77,7.41.63,7.41h0Z"/>
      <path class="cls-2" d="m125.1,43.85c3.98,2.84,8.24-13.34,9.09-15.67,1.64-4.46,2.96-9.04,4.62-13.48,1.46-3.91,3.14-6.79,2.92-11.07-.04-.83-.18-3.59-1.47-3.62l-.6-.02c-.73-.02-1.18,1.06-1.39,1.55-5.31,12.54-8.76,25.85-13.72,38.5-.41,1.05-.5,3.06.54,3.8h0Z"/>
      <path class="cls-2" d="m140.28,3.38l2.79-.94c-.64-3.65-2.89-2.05-2.79.94.23,6.51,3.69,12.78,6.19,18.7,2.9,6.86,5.81,13.72,8.16,20.79,1.72,5.19,3.97-1.64,3.13-4.32-2.33-7.43-4.7-14.85-7.47-22.13-1.37-3.6-2.84-7.13-4.42-10.64-.97-2.17-1.58-5.37-4.24-5.72-1.22-.16-1.37,2.74-1.35,3.31h0Z"/>
      <path class="cls-2" d="m126.68,43.88c2.85,4.23,9.58,2.49,14.07,2.67,4.72.2,9.39.08,14.1.15.59,0,1.06-.76,1.24-1.2.67-1.73,1.06-4.03-.14-5.67-1.39-1.91-4.77-1.89-6.99-1.81-4.2.15-8.03-.65-12.19-.82-3.42-.14-7.7-.7-10.21,1.82-1.08,1.08-.63,3.74.12,4.86h0Z"/>
      <path class="cls-1" d="m137.9,19.91c2.94-1.19,3.64-6.39,4.45-9.08l-1.09.34c2.61,4.96,2.59,11.44,4.52,16.72.97,2.65,2.63,8.42,5.51,9.43.44.16.51-.6.51-.86.04-5.53-3.04-11.12-4.93-16.25-1.38-3.76-2.53-8.2-4.83-11.54-.3-.43-.7-.07-.84.27-1.47,3.55-3.36,6.23-3.7,10.12-.02.2.01.99.4.84h0Z"/>
      <path class="cls-1" d="m133.71,128.3c2.63,2.51,7.75,1.92,11.06,2.38s8.68,2.85,11.59.3c.54-.47.81-2.64-.07-2.94-3.72-1.25-8.53-1.82-12.41-2.32-2.84-.37-8.84-2.47-10.3.91-.18.41-.23,1.32.14,1.67h0Z"/>
      <path class="cls-1" d="m157.09,128.13c-1.44-2.44-4.29,3.66-4.64,4.42-1.16,2.5-2.58,5.01-3.5,7.6-2.38,6.72-5.78,13.04-8.06,19.78-.09.26.11,1.67.58,1.1,2.65-3.17,4.01-7.4,6.12-10.98,1.91-3.24,4.28-5.72,5.92-9.15,1.32-2.76,3.33-6.21,3.94-9.16.25-1.25.27-2.52-.36-3.6h0Z"/>
    </g>
  </g>
</svg>