<?xml version="1.0" encoding="UTF-8"?>
<svg id="Livello_2" data-name="Livello 2" xmlns="http://www.w3.org/2000/svg" viewBox="0 0 147.23 1370.45">
  <defs>
    <style>
      .cls-1 {
        fill: #9e8d8d;
        stroke-width: 0px;
      }
    </style>
  </defs>
  <g id="testi">
    <g>
      <path class="cls-1" d="m99.83,1263.23c3.34-39.58,2.82-79.37,2.03-119.05-.81-40.55-1.64-81.05-1.28-121.61.72-82.04,4.05-164.02,8.63-245.93,4.5-80.38,4.57-160.89,4.55-241.37s1.99-163.24,1.49-244.85c-.57-92.09-7.85-183.92-11.71-275.89-.07-1.66-.5-6.33-2.99-6.27s-2.73,4.9-2.68,6.41c2.94,81.25,9.64,162.36,11.12,243.66,1.5,81.76-1.19,163.53-1.1,245.29.09,81.14.84,162.33-2.74,243.42-3.58,81.18-8.19,162.22-9.45,243.49-.7,44.8-.36,89.55.59,134.35.97,45.41,1.76,90.82-.49,136.21-.19,3.8,3.54,7.91,4.03,2.14h0Z"/>
      <path class="cls-1" d="m77.99,9.93c3.98,9.45,20.66,6.22,28.52,5.81,11.7-.61,24.98-2.66,36.44.61l-.35-14.36c-4.88,2.77-9.22.83-14.36,1.65-2.43.39-3.36,2.13-5.05,3.73-2.31,2.19-3.72,3.37-5.45,6.16-.25.4-.44,2.64.49,2.27,1.4-.55,3.25-1.03,4.72-.72s1.88,1.2,3.12,1.95c1.73,1.04,3.97,1.31,5.97,1.57,4.53.59,8.74.02,12.71-2.3s3.17-13.41-1.24-14.6c-11.32-3.07-23.87-1.26-35.36-.25-5.86.51-11.71,1.02-17.59,1.1-3.28.04-9.38-1.09-11.99,1.41-1.5,1.44-1.3,4.2-.56,5.97h0Z"/>
      <path class="cls-1" d="m80.58,1273.21c1.54,4.75,6.88,4.64,11.13,5.03,6.12.56,12.26,1.08,18.41,1.23,9.18.22,24.84,1.29,27.07-10.42.21-1.11-.77-9.82-3.24-6.24-.92,1.34-1.75,2.66-3.16,3.55-.83.53-.8,3.03.29,3.25.43.09,2.31,0,2.6.46.47-2.64.93-5.28,1.4-7.91-3.4.16-6.46,1.75-9.88,2.43-4.86.96-9.9,1.1-14.84,1.08s-10.36-.31-15.53-.67c-2.18-.15-4.37-.4-6.56-.48s-3.54.45-5.5.88c-1.37.31-1.79,1.55-2.17,2.76-.49,1.57-.52,3.49-.01,5.07h0Z"/>
      <path class="cls-1" d="m15.52,14.22c-2.07,6.94-2.01,15.13-1.78,22.29.22,7,.52,17.07,5.67,22.52,5.39,5.71,13.17-1.44,15.71-6.59,4.34-8.82,3.22-20.38.01-29.36C32.34,15.28,23.76,1.51,13.54,6.81c-1.42.74-1.7,3.86-1.6,5.19.34,4.27-.23,8.48.04,12.74.05.79.96,2.31,1.22.71.63-3.79,2.47-7.12,3.18-10.86l-1.96,2.69c4.34.55,7.81.61,11.22,3.75,3.24,2.98,5.26,7.22,6.42,11.39,1.87,6.75,1.41,17.18-7.27,19.04-10.45,2.25-6.92-28.95-6.24-34.47.27-2.2-1.74-7.11-3.03-2.77h0Z"/>
      <path class="cls-1" d="m61.97,22.09c.51-.58,1.08-.81,1.71-.68l-.18-7.4c-3.03.64-4.09,6.63-4.97,9.17-1.76,5.09-3.26,10.29-4.61,15.5-2.41,9.27-5.8,20.71-4.11,30.33.31,1.76,1.37,5,3.44,3.01,1.83-1.76,1.1-6.17.26-8.13-.54-1.27-.93-2.54-1.61-3.75-.26-.46-.55-.2-.65.21-.34,1.32-.14,2.7-.49,3.98l1.39-1.89-.29-.02c.72,2.58,1.45,5.15,2.17,7.73,1.03-3.97.94-8.27,1.56-12.33.74-4.8,1.8-9.56,2.98-14.26,1.1-4.39,2.36-8.73,3.68-13.05s3.08-8.39,2.96-12.83c-.08-3.27-2.54-5.16-3.2-.91l-.87,2.37c-.2.43-.06,3.76.83,2.96h0Z"/>
      <path class="cls-1" d="m47.76,29.27c.09-.22.18-.45.29-.66l-.42.82s.05-.1.09-.14l-.51.53s.01-.01.02-.02l-.57.2s0,0,.01,0l-.58-.17h0c-.18-.17-.36-.33-.53-.5h0c-.15-.26-.31-.52-.46-.79h0c-.12-.34-.24-.68-.37-1.02h0c-.08-.4-.17-.8-.25-1.21,0,0,0,.02,0,.02l-.11-1.36s0,.03,0,.05l.04-1.36c-.02.55-.11,1.03-.07,1.64.02.87.14,1.72.36,2.55.16.65.43,1.25.82,1.8.26.4.63.62,1.1.67.47-.06.82-.3,1.07-.72.43-.51.63-1.35.77-1.98.1-.44.16-.92.21-1.36.1-.91.05-1.89-.07-2.8s-.38-1.85-.85-2.66c-.22-.37-.35-.68-.77-.91-1.01-.55-1.69.45-2.13,1.21-.57.99-.81,2.04-.94,3.16-.17,1.52,0,3.13.51,4.56.14.48.35.93.66,1.34.2.35.48.55.84.6.3.15.59.11.88-.12.45-.37.76-.82.95-1.37h0Z"/>
      <path class="cls-1" d="m72.48,52.69c-.16-.41-.34-.8-.56-1.17l.34,1.63c.02-1.31-.24-4.14-1.66-4.89-.8-.42-1.66-.19-2.41.2l2.44,2.12c.14.46.22.93.24,1.41.04.55.05.65.03.32,0-.2-.02-.4-.03-.6-.02-.43-.02-.86-.02-1.29,0-.52.2-2.03-.02-.08.03-.25.02-.51.06-.76.25-1.56,0-3.55-.71-4.97-.31-.62-1.36-2.11-2.26-1.26-.84.79-1.73,1.54-2.45,2.44-1.26,1.57-1.14,4.38-.75,6.2.2.93,1.17,3.9,2.68,2.8,1.39-1.02,1.88-2.66,2.02-4.33l-.39,1.67c.75-1.75,1.25-3.54.04-5.26-.54-.77-.9-1.81-2-1.87-.31-.02-1.85.35-.5.09l.83,9.7c.77-.42,1.35-.98,1.99-1.59l-2.97-6.23c-.2,1.25-.08,2.66.01,3.93.14,1.91.31,3.71,1.02,5.5.25.63,1.28,1.91,2.09,1.17.38-.35.41-.29.74-.4.56-.18.79-.44,1.16-.9.91-1.14,1.4-2.12,1.04-3.58h0Z"/>
      <path class="cls-1" d="m2.01,1317.4l-.14-.27c-2.54-1.11-2.2,5.96-.7,7.14l.84.66c.38.22.75.21,1.12-.03,5.49-4.48,9.23-10.51,14.45-15.24l-3.42-5.52c.29,8.12.58,16.24.55,24.37-.02,7.67-1.79,16.32-.41,23.85l1.56-6.43c.85,1.06,1.06,1.07.63.04-.14-.39-.31-.77-.51-1.14-.37-.78-.97-.29-1.1.33-.55,2.57-.87,4.52-.59,7.2.22,2.1,2.76,5.81,4.17,2.19,2.78-7.15,1.6-16.68,1.6-24.28,0-8.76-.25-17.52-.73-26.26-.1-1.82-1.21-7.78-4.03-4.92s-5.02,5.87-7.34,8.99-5.45,6.11-7.37,9.45l2.56,3.12.03-1.8c.08-.6-.46-2.86-1.18-1.46h0Z"/>
      <path class="cls-1" d="m36.47,1313.73c-7.78,7.11-9.7,45.58,6.77,38.91,8.66-3.5,10.1-16.02,9.46-24.02-.65-8.13-4.18-20.9-14.02-21.91-1.4-.14-2.05,2.2-2.3,3.11-1.39,5.03-1.4,10.37.1,15.38.45,1.51,1.39.67,1.52-.49.3-2.66,1.98-5.06,2.89-7.53l-1.9,1.85c8.93,1.85,12.22,18.95,2.93,22.63s-6.55-15.13-3.52-18.97c1.4-1.78.32-11.03-1.92-8.98h0Z"/>
      <path class="cls-1" d="m57.02,1321.86c-3.01,6.71-2.07,17.08.4,23.77,2.95,8,10.3,9.7,16.54,3.46,9.5-9.5,4.82-45.52-13.28-39.05-2.2.79-1.88,5.88-1.71,7.42.4,3.55.87,7.22,2.07,10.61.63,1.77,1.55.2,1.49-.95-.17-3.19,1.16-6.6,1.66-9.78l-2.5,4.47c5.3-.53,8.99,1.62,10.71,6.79,1.31,3.94,1.18,8.38-2.41,10.96-10.44,7.5-9.42-8.47-9.27-14.43.05-1.94-1.99-7.06-3.7-3.25h0Z"/>
      <path class="cls-1" d="m108.87,1310.75c-6.07,4.86-8.68,14.57-11.37,21.49-3.74,9.61-7.86,19.41-10.63,29.35-.61,2.18-.71,6.56,1.22,8.2,2.06,1.74,3.21-.29,3.84-2.25,1.25-3.91.56-7.33-.92-11.02-.13-.32-.51-.53-.75-.19-.54.78-.97,2.03-1.76,2.45,1.01,3.33,2.01,6.65,3.02,9.98,3.79-8.93,6.34-18.49,9.71-27.6,3.04-8.21,6.5-16.26,9.31-24.56.25-.74.37-7.5-1.68-5.86h0Z"/>
      <path class="cls-1" d="m84.51,1324.56c.12.39.23.78.35,1.17l-.36-4.3c-.13,2.08.12,3.93.9,5.85.09.22.18.44.27.66.17.41.34.83.51,1.24.33.81.79,1.63,1.58,2.07.46.26,1.02.39,1.51.06.79-.53,1.24-1.71,1.43-2.58.31-1.39.38-2.86.15-4.26-.25-1.53-.69-2.87-1.87-3.84-.85-.71-1.78.39-2.13,1.03-.69,1.25-.99,2.9-.87,4.32.37-3.21.39-3.69.05-1.46-.08.49-.09.99-.05,1.48.01.55,0-1.04.05-1.42l1.07-3.33h0c.64-.2,1.27-.4,1.91-.6h0c.38.46.76.93,1.14,1.39.03.07.54,1.5.4,1.06.64,2.16.34,1.66.26,1.21-.02-.1-.04-.21-.05-.31-.2-1.15-.47-2.25-1.03-3.28-.49-.88-.92-1.97-1.56-2.73-.23-.38-.55-.59-.96-.65-.34-.16-.68-.12-1.01.13h-.02c.65.18,1.3.35,1.95.52-.18-.25-.36-.5-.54-.75-.35-.49-.94-.78-1.52-.59-.65.21-1.08.87-1.32,1.49-.79,1.97-.81,4.39-.21,6.41h0Z"/>
      <path class="cls-1" d="m112.41,1355.98c0,.09-.12,1.21,0,.61.03-.16.05-.33.08-.49l-1.17,2.52c1.17-.99,1.31-2.43,1.46-3.85l-.91,2.6c.82-1.08,1.01-2.44,1.09-3.75l-.56,2.14c.55-1.23.79-2.68.69-4.02-.12-1.47-.28-3.23-1.35-4.36-.82-.87-1.76-.81-2.54.06-.08.09-.16.18-.25.27l1.97-.57-.27-.14c-.81-.41-1.67-.02-2.2.64-1.32,1.65-2.24,3.32-2.77,5.39s-.43,4.48.38,6.47c.49,1.19,1.56,2.79,3.06,2.02,3.57-1.84,3.36-7.21,2.44-10.46-.41-1.46-1.91-3.78-3.56-2.27-1.75,1.59-1.72,4.71-1.46,6.83-.15-1.23-.08-2.32.24-3.52.04-.51.19-.98.47-1.4.24-.36.26-.42.04-.18l.67-.61c-.2.16-.4.28-.62.4,1.15,2.83,2.29,5.66,3.44,8.49.03-.12.34-1.09.04-.23-.27.78,0,.1.07-.08.25-.64-.49.65-.2.31.1-.11.18-.25.27-.37.16-.21.34-.4.5-.61.97-1.26,1.35-2.76,1.44-4.33l-.6,2.31c.06-.14.12-.29.18-.43l-3.98-.93c.13.35.27,1.06-.2-.88.28,1.16.54,2.07,1.27,3.04l-1.16-2.85c.25,1.25.38,2.78,1.35,3.69l-1.04-2.55c.27,1.32.41,3.06,1.71,3.77l-1.09-1.61c.12.47.24.86.44,1.31.33.72,1.08,1.21,1.76.63.8-.68.91-2.03.91-2.99h0Z"/>
      <path class="cls-1" d="m95.5,67.79c.17.48.34.93.58,1.38l-.35-2.47c-.17,4.39,1.99,6.83,6.27,7.58,3,.53,6.82.54,9.65-.66,2.16-.92,1.85-7.69-.21-8.58l1.46,3.07c-.09-.88-.51-2.66-1.46-3.07-2.43-1.05-5.12-.56-7.69-.64-2.05-.06-6.02-1.13-7.52.23l.85.23-.22-.31c-1.14-1.61-1.58,2.61-1.35,3.24h0Z"/>
      <path class="cls-1" d="m103.29,130.48c3.65,5.23,12.83,4.61,16.99.43l-2.76-3.37c-.02-1.87-.93,1.13-1.21,1.6-.25.43-.47,2.08.31,2.15,1.71.16,2.21,1.27,3.66-.37,1.18-1.34,1.39-6.4-.6-7.27-2.55-1.11-5.24-.14-7.89.04-1.73.12-5.39.89-6.8-.46-1.31-1.26-2.18.3-2.52,1.56-.48,1.79-.27,4.14.81,5.7h0Z"/>
      <path class="cls-1" d="m97.05,198.39c1.96,4.04,6.18,4.16,10.27,4.1,1.86-.03,3.62-.19,5.45-.44,1.37-.19,2.54-1.08,3.87-1.06.86.01.67-1.92.55-2.37-1.1-3.79-3.43-6.19-7.49-6.59-2.11-.21-4.4.16-6.51.28-2.44.15-4.43-.05-6,2-.77,1.02-.66,3-.13,4.08h0Z"/>
      <path class="cls-1" d="m97,270.77c1.54,1.62,4.23,2.53,6.32,3.12,2.74.78,6.55,2.03,8.56-.56l-2.55-3.11s-.4.68-.36.6c-.2.37-.22,2.22.55,1.92l.7.64c1.15,1.11,1.92-.27,2.21-1.37.43-1.64.2-3.58-.71-5.01-1.62-2.54-5.26-2.74-8.01-3.2-1.9-.32-4.08-.56-6.01-.5-2.55.08-1.83,6.31-.72,7.47h0Z"/>
      <path class="cls-1" d="m99.38,358.65c2,7.22,11.79,7.81,17.5,4.77-.66-3.1-1.33-6.2-1.99-9.3-1.02,1.29-2.16,2.46-3.16,3.76-.7.92-.66,3.14.32,3.88,1.14.85,2.36,1.02,3.61,1.69,3.17,1.69,4.26-10.27.36-10.06-2.85.16-5.64,1.31-8.49,1.61-2.12.22-4.7.67-6.1-1.29-.73-1.02-1.53-.11-1.91.6-.65,1.21-.49,3.06-.14,4.32h0Z"/>
      <path class="cls-1" d="m101.91,430.02c1.72,1.15,3.19,2.88,4.99,3.88,1.54.85,3.87,1.19,5.58,1.29,3.5.2,7.11-.41,9.57-3.01,1.48-1.56,1.23-5.09.64-6.97-.37-1.18-1.87-3.76-3.15-1.74s-4.13,3.85-6.09,5.4c-.59.47-.85,3.31.28,3.25,1.29-.07,4.94-.9,6.03.11.3-3.16.61-6.32.91-9.49-3.15.61-5.68,1.88-9.01,1.92-1.43.02-3.02-.27-4.44-.1-1.82.23-3.26.85-5.15.47-1.58-.32-1.11,4.36-.18,4.98h0Z"/>
      <path class="cls-1" d="m100.06,499.22c.37,1.68.68,2.62,2.35,3.09,1.44.4,2.92.75,4.43.68,1.7-.08,3.38-.41,5.08-.51,1.93-.11,2.82,0,4.2-1.52l-2.47-.65c.07.19.16.38.27.56l-.43-3.01c-.23,1.41-1.32,2.78-1.69,4.2-.11.4-.15,1.73.5,1.78,1.68.12,2.91-1.69,3.58-3.01l-.96.93.14.02c.37-.05.65-.23.86-.55l.2-.27c1.42-1.9,1.32-5.98-.19-7.81s-3-1.59-5.12-1.43c-1.89.15-4.04.28-5.82,1.01-2.96,1.22-5.77,2.68-4.92,6.48h0Z"/>
      <path class="cls-1" d="m102.2,553.5l.22.05-.58-.51c1.28,3.09,5.39,4.24,8.58,4.31,1.6.03,3.25.21,4.27-1.23.87-1.24,1.32-2.88,1.29-4.38-.03-1.39-.48-2.83-1.27-3.99-1.09-1.6-2.49-1.59-4.29-1.56-3.2.05-7.44,1.16-8.64,4.32l.55-.54-.22.04c-1.14.21-1,3.26.09,3.5h0Z"/>
      <path class="cls-1" d="m104.75,616.8c.67.2,1.08,1.43,1.96,1.7.53.16,1.21.13,1.75.17,1.61.13,3.14.08,4.73-.27,3.35-.73,6.65-1.92,9.38-4.03l-2.99-6.27c-.26,1.05-.86,1.91-1.78,2.6-.65.61-.66,4.08.51,3.42l3.04.29c3.36,2.02,4.07-10.93.36-10.15-3.16.67-6.18,1.78-9.25,2.77-1.38.44-2.74.95-4.07,1.51-.59.25-1.35.41-1.89.73-.24.14-1.77,1.55-1.51,1.53-1.82.15-1.77,5.57-.22,6.02h0Z"/>
      <path class="cls-1" d="m105.78,677.93c1.55.8,3.77.68,5.37.19.98-.3,1.94-.65,2.88-1.08.74-.34,1.85-1.78,2.63-1.67l-1.09-.63-.68-1.43c.2.62.78,2.35,1.78,2.17h.05c2.24-.42,2.04-4.47,1.88-6s-.76-3.24-2.2-4.04-2.71-.22-4.01.53c-2.53,1.44-5.26,2.79-7.18,5.04-1.16,1.37-1.29,5.95.57,6.92h0Z"/>
      <path class="cls-1" d="m100.33,733.13c.83.29,1.35.97,2.2,1.26s2.05.27,2.95.35c2.27.21,4.56,0,6.84.13,2.82.15,7.67,1.05,8.01-2.84.39-4.32-2.96-7.92-7.05-8.53-2.22-.33-4.62-.19-6.83.09-1.06.14-2.06.35-3.09.6-.44.11-.96.11-1.38.3s-.95.88-1.36.97c-2.25.52-2.42,6.94-.28,7.68h0Z"/>
      <path class="cls-1" d="m94.76,797.52c3.53,1.17,7.3.77,10.98.7,1.98-.04,4.04.16,6,.06,1.13-.06,3.95-1.57,4.6-.49.44.73.65-.49.62-.81-.45-4.53-4.73-7.67-8.73-8.78-5.87-1.63-11.8.32-13.91,6.3-.23.64-.5,2.71.44,3.02h0Z"/>
      <path class="cls-1" d="m88.91,866.05c2.73,1.92,4.51,4.5,8.17,4.95,3.09.38,5.78-2.7,5.76-5.74-.02-2.21-2.31-4.61-4.47-4.89-1.53-.2-3.12.3-4.61.52-1.23.18-3.24.81-4.35.33-1.75-.75-1.63,4.04-.5,4.84h0Z"/>
      <path class="cls-1" d="m84.11,921.49c1.96,1.9,2.53,3.4,5.23,4.54,1.98.84,4.22,1.24,6.35,1.37,4.39.27,8.66-.67,10.61-4.94.61-1.35.8-4.51-.48-5.63-2.75-2.41-6.48-1.03-9.84-.93-1.93.05-3.79-.11-5.69-.37-.89-.12-1.79-.36-2.68-.44-.58-.05-2.03.24-2.45.1-2.47-.84-2.14,5.26-1.06,6.31h0Z"/>
      <path class="cls-1" d="m88.02,990.13c.87,3.34,3.74,4.96,6.95,5.52,2.02.35,3.74-.03,5.69-.7.88-.3,1.76-.63,2.57-1.11.18-.11,3.13-2.33,1.9-2.55l-1.1-1.69c.19,1.06.33,2.1.56,3.15.11.48.62.83.85.21.17-.46.52-2.35.51-2.33,1.32-1.53,1.63-7.91-1.24-8.12-5.1-.37-9.76,4.82-15.01,2.39-2.25-1.04-1.93,4.31-1.69,5.23h0Z"/>
      <path class="cls-1" d="m86.36,1054.88c4.16.41,7.24-.51,11.3-1.56,1.65-.42,3.32-.61,4.89-1.24,1.67-.67,2.17-1.35,3.72.17.59.58.7-.88.66-1.18-.5-3.31-2.81-7.78-6.39-8.35-5.35-.86-10.46,2.9-14.78,5.24-1.71.92-1.65,6.7.6,6.92h0Z"/>
      <path class="cls-1" d="m92.64,1116.02c5.66-2.01,19.26.92,17.8-9.06-.68-4.69-4.18-5.48-8.26-4.73-1.7.31-3.46.81-5.06,1.46-2.49,1.02-3.76,2.44-5.68,4.28-1.47,1.4-2.02,9.19,1.19,8.05h0Z"/>
      <path class="cls-1" d="m88.21,1178.74c3.67-1.65,9.42-.11,13.23.4,4.13.56,7.39-.29,10.99-2.57.6-.38.42-1.71-.05-2.11-4.08-3.43-7.45-6.14-12.79-6.87-5.42-.73-8.4,1.39-12.36,4.71-1.35,1.13-1.45,7.52.98,6.43h0Z"/>
      <path class="cls-1" d="m90.64,1227.66c1.15.17,1.45,1.28,2.61,1.73,1.43.56,3.79.1,5.21-.21,1.71-.37,3.68-.86,5.22-1.71,1.41-.78,3.26-1.76,4.48-2.84.7-.62.75-2.33-.07-2.89-.93-.63-1.85-.59-2.8-1.06-.84-.42-1.38-.98-2.26-1.33-2.03-.82-4.48-1.02-6.62-.78-3.85.44-6.16,3.26-6.58,7.1-.06.58,0,1.88.8,2h0Z"/>
    </g>
  </g>
</svg>