<?xml version="1.0" encoding="UTF-8"?>
<svg id="Livello_2" data-name="Livello 2" xmlns="http://www.w3.org/2000/svg" viewBox="0 0 384.94 155.66">
  <defs>
    <style>
      .cls-1 {
        fill: #ffadad;
      }

      .cls-1, .cls-2, .cls-3 {
        stroke-width: 0px;
      }

      .cls-2 {
        fill: #f4e9e9;
      }

      .cls-3 {
        fill: #e0a0a0;
      }
    </style>
  </defs>
  <g id="Livello_3" data-name="Livello 3">
    <g>
      <g>
        <g>
          <path class="cls-3" d="m11.76,27.89c-.02-1.88,1.46-2.09.07-3.03-7.23.37-7.77-2.35-9.1,11.5-1.33,13.83.42,29.68.75,43.39.47,19.57-.3,39.35.08,58.87,21.77,2.33,43.04,4.14,64.78,6.06,20.19,1.78,40.32-.7,60.59,3.04,11.88,2.19,23.49-.07,35.27-2.92,13.95-3.38,27.49-2.89,41.47-1.44,27.12,2.8,54.54-.07,81.69-.08,25.97,0,53.03-.53,77.8-12.1,3.52-21.86,1.98-49.17,2.54-71.89.3-12.2,2.02-21.01-3.64-29.07-4.76-6.78-12.56-5.35-18.03-6.88-12.95-3.63-23.18-1.97-36.22-.62-13.56,1.41-27.55-3.03-41.1-3.71-16.44-.82-31.44-9.96-48.11-7.4-14.06,2.16-28.56,4.18-42.63,4.11-27.59-.12-55.63,2.03-83.34,4.76-29.89,2.95-60.41,10.49-90.13,7.15,1.03-1.65.52-1.95.5-2.71"/>
          <path class="cls-3" d="m13.44,30.29c.62-2.94,2.18-8.69-1.45-10.46-1.48-.72-5.44-.93-6.98-.14-2.33,1.19-3.02,4.79-3.49,7.37C.44,33.02.13,39.22.03,45.29c-.25,14.78,1.24,29.54,1.33,44.32.09,16.36-.42,32.72-.23,49.08.02,1.84.49,5.67,2.56,5.91,28.74,3.37,57.75,7.32,86.65,7.69,7.29.09,14.59.13,21.87.55,7.04.41,13.91,1.79,20.91,2.54,14.11,1.52,27.36-3.5,41.22-5.15,14.25-1.7,28.3.49,42.52,1.25,14.47.77,28.96.25,43.44-.26,27.31-.95,55.25,1.14,82.2-5,6.48-1.48,12.88-3.47,19.11-6.02,2.9-1.19,5.24-1.7,6.14-5.38.82-3.36,1.02-7.15,1.36-10.6,1.44-14.8,1.36-29.75,1.33-44.63-.01-7.26-.09-14.55.19-21.8.25-6.41.8-12.87-.02-19.25-.76-5.94-2.7-12.1-6.57-16.29-3.57-3.88-8.16-4.79-12.87-5.39-5.9-.75-11.6-2.58-17.54-2.95-6.15-.39-12.31.21-18.43.86-6.92.74-13.61,1.05-20.54.25-6.63-.76-13.2-2.07-19.83-2.84-6.71-.79-13.27-1.15-19.88-2.78-6.18-1.52-12.29-3.47-18.53-4.63-13.51-2.51-27.1,1.39-40.59,2.65-14.17,1.33-28.41.78-42.61,1.32-14.5.56-28.99,1.59-43.45,2.87-28.09,2.48-56.07,8.44-84.24,9.31-7.07.22-14.14-.01-21.19-.66.57,4.59,1.15,9.17,1.72,13.76,1.74-3.48,2.21-7.12,1.6-11.1-.29-1.85-1.17-6.32-3.57-5.05-2.2,1.17-2.09,7.06-1.77,9.13.05.34.1.68.15,1.02l.16-5.69.3-1.02c-1.43,2.74-2.58,13.25,1.72,13.76,30.42,3.63,60.78-4.17,90.98-7.16,15.59-1.55,31.2-2.88,46.83-3.73,15.69-.86,31.43-.33,47.1-1.34,7.43-.48,14.83-1.38,22.22-2.42s14.51-2.31,21.96-1.28c7.03.98,13.87,3.19,20.78,4.92,6.87,1.72,13.66,2.14,20.63,2.95,7.42.86,14.77,2.39,22.21,3.07,7.4.68,14.59-.21,21.95-.92,6.61-.64,13.25-.92,19.85.08,3.23.49,6.36,1.51,9.58,2.03,2.68.43,5.41.49,8.04,1.3,6.54,2.02,8.69,8,8.51,15.19-.21,8.65-.6,17.26-.6,25.93,0,17.92.68,36.19-2.11,53.9.55-1.14,1.11-2.28,1.66-3.42-21.5,9.84-44.75,11.55-67.65,11.81-23.55.27-47.14,1.74-70.69,1.32-11.82-.21-23.54-1.9-35.35-2.21-12.43-.33-23.95,2.36-36.11,4.71-5.28,1.02-10.63,1.74-15.99,1.73-6.1-.02-12.05-1.4-18.11-2.04-11.75-1.24-23.55-.81-35.33-.85-27.15-.08-54.53-3.37-81.57-5.97.85,1.97,1.71,3.94,2.56,5.91-.55-23.47.5-46.95-.75-70.39-.58-10.88-1.26-21.78-.1-32.64.17-1.56,0-3.95,1.17-4.84.86-.65,4.98-.97,5.66-.33-.5-2.06-1-4.11-1.51-6.17.31-2.35-.5,2.04-.56,2.48-.42,2.97,2.32,9.35,3.53,3.63h0Z"/>
        </g>
        <path class="cls-1" d="m383.47,105.01c-.76.07-1.54.07-2.33,0-.05-.73-.09-1.43-.12-2.03,1.8-6.39.99-15.88.23-23.4.22-4.94.46-9.89.49-14.83.01-1.82-.66-2.77-1.38-2.88-.07-1.9-.16-3.8-.27-5.71.08-12.46.95-24.98.86-37.46,0-1.18-.37-2.09-.84-2.58.15-1.56.31-3.1.52-4.63.25-.35.44-.88.51-1.62.11-1.15.23-2.21.4-3.3.27-.22.53-.56.73-1.08.09-.14.18-.28.28-.42,1.46-2.07-.16-5.53-1.69-5.01-5.53,1.85-11.4.96-17,1.21-6.21.27-12.41.73-18.61,1.25-3.66.31-7.33.64-10.99.97-2.96-.45-5.92-.81-8.9-.94-9.73-.44-19.44.97-29.06,3.74-20.43,1.11-40.86,1.95-61.28,3.7-12.18,1.04-24.37,1.34-36.55.3-6.54-.56-13.04-.85-19.55-.96-7.44-1.92-14.98-2.09-22.47-1.25-3.15.35-6.28.98-9.41,1.71-7.26.22-14.52.49-21.78.94-12.04.73-24.1,1.43-36.15.83-13.71-.68-27.25-3.29-40.99-2.35-6.74.46-13.45,1.84-20.19,2.02-3.34.09-6.67-.04-10.01-.2.27-1.5.52-3,.73-4.53.52-3.75-2.83-5.35-3.35-1.59-.14,1.04-.3,2.08-.45,3.11l-.14-.83c-.15-3.05-1.93-3.97-2.84-1.51-.55,1.47-.89,3.19-1.1,5.04-1.21-.04-2.42-.07-3.62-.07-2.23-.01-2.24,5.99,0,6,1.1,0,2.2.03,3.29.07-.03,2.98.06,5.96.03,8.53-.1,8.36.06,16.71.08,25.07-.18,3.39-.35,6.77-.51,10.16-.9,19.64-2.43,39.37-2.34,59.1,0,0,0,.02,0,.03-.66-.13-1.36.48-1.61,2.07-.07.5-.16.99-.27,1.47-.31,1.54.34,3.26,1.07,3.69,4.74,2.81,9.4,2.04,14.26,1.37,2.35-.33,4.7-.16,7.06-.6,2.17-.4,4.34-.94,6.53-1.05.64,0,1.27,0,1.91-.03.06,0,.12,0,.18,0,4.81.07,9.53.74,14.37-.04,2.05-.33,4.09-.76,6.13-1.2,5.82.1,11.63.7,17.45.67,6.49-.04,12.98-.39,19.46-.88,1.18.26,2.35.53,3.53.81,5.17,1.23,10.35,2.42,15.57,2.75,4.99.32,9.97-.31,14.96-.67,19.96-1.45,39.88-4.24,59.77-7.86,5.89-.12,11.78-.26,17.66-.49,7.51,1.23,12.14,2.6,12.57,4.1h7.7c0-1.98,3.08-3.96,8.08-5.55,19.36-1.1,38.71-2.26,58.08-2.72,1.29-.03,2.58-.04,3.88-.06,1.31.81,2.63,1.63,3.98,2.19,4.64,1.92,9.44,1.17,14.14,1.54,4.3.34,8.56.22,12.74-1.72,5.24.52,10.48.91,15.71,1.52,2.51.29,5.02.49,7.52-.15,2.72-.7,5.26-2.87,8.02-2.99.07,0,.14-.03.21-.05,1.68.46,3.28.42,5.24-.05,1.34-.32,2.66-.23,3.97-.07-.03,1.26-.07,2.52-.02,3.79.14,3.46,2.71,3.96,3.41.8.27-1.23.51-2.48.72-3.73.51-.25,1.01-.5,1.52-.81,1.86-1.14,1.44-5.15-.15-5.76-.04-.49-.16-.92-.35-1.25.04-.42.07-.84.11-1.25.05-.03.11-.07.16-.11,1.72,1.73,3.66,2.79,5.63,3.33.49,2.33,1.25,4.2,2.42,5.13,1.49,1.18,2.29-2.5,1.54-4.65.3,0,.61-.02.9-.05,1.95-.18,1.97-6.18,0-6Zm-11.16-33.52c.31-2.16.62-4.38.94-6.63-.46,6.55-1.15,13.02-1.82,19.51-.28.11-.53.31-.74.63.52-4.21,1.07-8.76,1.62-13.51Zm-2.14,19.03c-.09,3.57-.42,7.14-.87,10.66-.24-.03-.5.1-.76.39.43-3.23.95-7.12,1.51-11.5.03.16.07.31.12.45Zm-241.54,24.41c7.61.26,15.21.58,22.59.95-.05,0-.1,0-.14,0-7.48.25-14.96.77-22.44,1.4.17-.75.16-1.6,0-2.35Zm233.31-39.69c.12-.18.22-.3.29-.36.24-.03.47-.09.69-.18-.48,3.59-.88,5.67-.88,5.67,0,2.98-2.31,3.95-4.6,4.27.32-.79.64-1.58.97-2.35.76-1.8,1.55-3.56,2.44-5.19.32-.6.86-1.51,1.09-1.86Zm-5.09,34.61c-.06,0-.12.02-.18.02-.25-.14-.51-.28-.77-.41-.3-.14-.6-.23-.9-.3.09-.19.18-.39.26-.62.41-1.21.29-2.36-.1-3.19,2.05.52,3.91,2.05,5.37,3.86-1.21.35-2.45.47-3.67.64Zm-27.38-12.46c-.56.98-1.19,1.36-1.79,1.31,4.25-12.02,10.67-21.6,16.36-30.52-4.58,10.26-9.37,20.13-14.57,29.21Zm-17.79,12.9c-.87,0-1.73-.02-2.6-.02.86-.2,1.73-.39,2.59-.59,0,.21,0,.41,0,.62Zm-150.41-39.71c.74-1.21,1.49-2.4,2.24-3.59-.65,1.37-1.3,2.75-1.95,4.13-.92,1.15-1.83,2.3-2.75,3.45.82-1.33,1.64-2.66,2.46-3.99Zm-4.25-35.52c.83-2.28,3.28-7.92,7.38-7.92,3.04-1.31,4.27-.28,3.91,2.5-.55.79-1.1,1.59-1.65,2.39-.88-2.58-2.7-4.15-4.61-2.15-1.67,1.75-3.35,3.46-5.03,5.17Zm11.27,40.63c.23-.29.46-.58.7-.87-1.37,2.86-2.66,5.87-3.84,9.12-.3.83-.31,1.69-.15,2.45-1.44,1.85-2.83,3.61-4.12,5.23,2.47-5.31,4.91-10.66,7.41-15.92Zm143.6-37.67c2.05-.74,2.73-3.69,2.42-6.45h1.53c0,2.92-5.58,13.56-14.52,28.09-.31.41-.63.81-.94,1.22-1.31,1.74-2.69,3.41-4.09,5.05.25-.45.5-.88.75-1.33,3.46-6.2,6.97-12.31,10.46-18.47.9-1.59,1.78-3.22,2.68-4.81.46-.81.92-1.61,1.39-2.39.48-.81,1.32-1.27.32-.91Zm5.05,44.73c.15.43.35.78.58,1.01-.99,1.78-1.89,3.7-2.67,5.83l-3,1.04c1.75-2.51,3.43-5.16,5.09-7.88Zm4.57-48.46c.69-3.5,1.98-5.15,3.41-4.14-1.14,1.38-2.28,2.76-3.41,4.14Zm.58,49.06c.83-1.33,1.69-2.61,2.55-3.89-.63,1.02-1.26,2.03-1.88,3.07-.22.28-.45.55-.67.82Zm-50.21,14.96c-7.36,4.11-7.21-.39,2.9-13.49,2.53-3.83,4.91-7.46,7.13-10.88-.18.3-.35.61-.53.91-3.25,5.48-7.55,11.07-9.46,18.37-.48,1.83-.42,3.6-.04,5.09Zm-22.93-8.84c3.21-4.69,6.47-9.32,9.79-13.82-.73,1.51-1.44,3.04-2.14,4.6-2.75,6.18-5.44,12.9-8.99,17.83-.35.02-.7.04-1.06.04-1.24,0-2.27,0-3.12-.02,1.82-2.92,3.63-5.86,5.53-8.63Zm-25.51-4.66c.74-1.28,1.59-2.66,2.52-4.1,3.06-3.69,6.23-7.11,9.27-10.82-2.25,3.5-4.5,7.03-6.7,10.66-.31-.12-.65-.06-1.01.31-1.87,1.92-3.62,4.24-5.45,6.3l1.36-2.35Zm39.62.67c-.05.47-.07.96-.06,1.44-.58.85-1.15,1.63-1.71,2.37.58-1.28,1.17-2.56,1.77-3.81Zm-47.32,12.64c1.28.12,2.57-.44,3.86-1.4-.49.99-.97,1.99-1.44,3.01-1.11-.03-2.22-.05-3.32-.04l.9-1.56Zm90.2-5.45l-2.93,1.01,1.79-3.1c.28.8.67,1.52,1.13,2.09Zm19.58,1.64c-.13-.21-.29-.37-.46-.47-.03-1.2.2-2.44.82-3.51,2.74-4.78,5.37-9.79,7.91-14.95.16-.19.33-.39.49-.58.42-.48.65-1.17.72-1.9.98-2.04,1.95-4.09,2.91-6.17.65-.9,1.3-1.81,1.96-2.69,4.42-5.89,8.51-12.57,12.49-19.56.57-1.01,1.15-2.01,1.72-3.02-.71,1.9-1.46,3.74-2.28,5.48-3.16,6.69-6.88,12.24-10.49,17.93-5.51,8.69-11.56,17.95-15.78,29.45Zm28.76-61.36c-2.33,4.5-4.79,8.92-7.34,13.11,1.45-3.46,2.89-6.93,4.33-10.42.1-.76.32-1.5.67-2.19.41-.8.81-1.6,1.22-2.4.85-1.68,1.82-1.86,2.61-1.18-.52,1.1-1.02,2.16-1.49,3.08Zm-7.34,5.95c.4-2.09.75-3.8,1.08-5.22,1.44-2.1,2.88-4.21,4.32-6.32.27-.05.55-.09.86-.12-.9,1.72-1.78,3.47-2.68,5.11-1.19,2.18-2.38,4.36-3.57,6.54Zm-168.28-10.31c.03-.48,0-.95-.04-1.42.31-.03.7-.03,1.17-.03.03,0,.06,0,.09,0-.42.46-.82.94-1.22,1.44Zm-4.31,72.6c.92,1.06,2.11,1.21,3.32-.33,3.89-4.95,7.63-10.25,11.34-15.6-3.23,5.16-6.37,10.47-9.27,16.21-2.53,2.39-4.62,3.11-7.13,2.44.57-.92,1.15-1.82,1.74-2.72Zm172.29-29.46c1.72-3.59,3.46-7.13,5.25-10.61-1.73,3.59-3.49,7.12-5.25,10.66v-.05Zm-45.07-58.67c7.9-.45,15.8-1.07,23.7-1.74-3.73.59-7.68,1.16-11.79,1.72-.61-.18-1.24-.13-1.84.24-7.41.97-15.23,1.87-22.96,2.63,2.55-.94,5.12-1.79,7.68-2.54,1.74-.1,3.48-.21,5.22-.31ZM106.11,93.03c-.13.34-.23.68-.3,1.02-.18-.08-.33-.19-.44-.38,0,0,.1-.25.29-.71.15.04.3.06.46.07ZM13.62,67.86c-.05-1.56-.08-3.11-.09-4.62,0-.71,0-1.41,0-2.12.4-8.65.86-17.3,1.46-25.92.17-2.41.33-4.84.54-7.24v3.61c0,10.44-.79,23.6-1.91,36.29Zm97.1-25.16c2.25-3.72,4.58-7.29,7.03-10.64.28-.06.56-.19.84-.4.93-.02,1.92-.04,2.93-.05-2.37,3.59-4.66,7.35-6.98,11.05-.56-.36-1.32-.5-2.24-.38-.4-.45-.9-.5-1.4.19-.05.07-.11.15-.16.23-.01,0-.02,0-.03.01Zm-64.07,52.26c.45-.55.79-1.22,1.03-1.97.63-.98,1.37-1.9,2.12-2.79-.87,1.7-1.79,3.41-2.76,4.9-.12-.08-.25-.12-.39-.14Zm5.09-9.1c-.02.12-.04.25-.05.38-.55-.59-1-1.54-1.25-2.66.79-1.73,1.59-3.42,2.42-5.08.41-.68.82-1.36,1.23-2.04-.91,2.98-1.7,6.1-2.35,9.4Zm23.86-20.44c5.3-8.91,10.43-18.75,16.4-26.47-.06,3.98-5.44,12.97-20,32.55-.07.13-.14.24-.22.37-.08.07-.16.14-.24.21,1.36-2.2,2.72-4.4,4.06-6.65Zm20.08-12.48c-.32-.04-.64-.06-.96-.05,1.17-2.67,2.18-5.34,2.95-8.02,1.38-7.18,3.52-10.48,9.22-12-3.88,6.44-7.54,13.27-11.21,20.07Zm-67.72-.52c.06.24.08.51.1.79-.15.28-.29.56-.43.85.09-.63.17-1.28.25-1.92.03.09.06.17.08.29Zm13.23,10.2c2.1-3.63,3.99-6.9,5.71-9.83.17-.17.35-.32.53-.48-1.94,3.47-3.78,6.98-5.48,10.96-1.18,2.76-2.33,5.54-3.56,8.19-1.45,2.4-2.9,4.81-4.37,7.19-2.72,4.41-5.66,8.38-8.05,13.28,2.39-6.52,7.55-16.06,15.22-29.31Zm-3.49,29.86c.07-.1.15-.19.22-.29-.3,1.16.01,1.48.7,1.48.49.85.98,1.36,1.63,1.38-.77,1.92-1.52,3.89-2.21,5.93-.2.58-.27,1.18-.24,1.73-3.05.62-5.57.93-7.56.87,2.84-2.48,5.07-7.93,7.46-11.11Zm17.92-9.28c2.67-10.67,7.15-19.39,12.18-26.66-.4.87-.81,1.72-1.21,2.6-.26.57-.51,1.14-.77,1.71-.26.41-.53.82-.79,1.24-.32.5-.47,1.08-.5,1.66-2.92,6.57-5.83,13.16-8.92,19.45Zm7.8,1.78c.06-.04.11-.08.17-.13-.26.37-.53.75-.78,1.1.2-.33.41-.65.61-.97Zm25.17,3.3c.31,2.78,1.79,4.73,3.36,4.81-1.91,1.26-3.47,1.54-4.57.59-1.2,0-.71-1.95,1.21-5.4Zm37.47,3.49c-.23.09-.63.09-.98.16.3-.88.55-2.2.84-3,.82-2.29,1.79-4.4,2.77-6.41,1.17-2.38,2.4-4.61,3.71-6.65.38-.45.77-.9,1.15-1.36,1.2-1.45,2.41-2.87,3.63-4.27-.39,1.08-.82,2.12-1.26,3.13-.67,1.31-1.33,2.67-1.98,4.07-2.58,4.88-5.52,9.3-7.84,14.32-.01,0-.03,0-.04,0ZM10.86,122.33c.17.32.38.59.61.83.04.16.09.31.14.45-.47-.11-.94-.24-1.41-.4.26-.19.49-.48.65-.88Zm43.47-2.04c-6.82.15-13.62,1.34-20.45,1.3-2.37-.01-4.74-.05-7.12-.09,4.14-1.46,8.84-3.27,13.19-5.12,6.11,1.81,12.36,1.92,18.54,1.82,3.58-.06,7.16-.12,10.74-.2-3.83.57-7.65,1.47-11.48,2.29-1.14-.02-2.28-.03-3.42,0Zm26.61-2.65c.31-.01.62-.02.93-.03,8.26-.36,16.54-.61,24.76,1.15.51.11,1.03.22,1.55.34-4.51.39-9.01.76-13.52,1.06-4.56-1.08-9.12-2.09-13.71-2.52Zm33.99-3.11c2.24.06,4.49.12,6.75.18-2.23.31-4.49.17-6.75-.18Zm5.84-11.99c-3.03,0-3.37-3.1,1.08-11.11-.09.88-.12,1.76-.02,2.64.34,3.23,1.73,4,3.16,3.94.02.06.04.12.06.18-.97,2.5-2.62,4.36-4.28,4.36Zm221.88,7.33c.68.1,1.35.22,2.03.3-.06,0-.11,0-.17,0-.62-.08-1.24-.18-1.86-.31Zm23.8-76.88s.05-.04.07-.06l-.17,1.48c-.27-.03-.55,0-.84.09.3-.54.61-1.04.94-1.51Zm-2.39,30.97c-.31-.36-.65-.61-1.03-.7-1.31-.31-2.51.02-3.6.79,1.18-2.56,2.36-5.12,3.52-7.71.55-1.22,1.1-2.43,1.65-3.66-.07,4.08-.28,7.88-.53,11.27Zm-243.13,59.73c4.49-.4,8.97-.76,13.46-1.04.32-.02.64-.03.96-.05-4.79.48-9.6.95-14.42,1.09Zm247.04-13.52c-.03.17-.04.33-.05.49-.01.02-.02.04-.03.07-.19-.03-.39-.07-.58-.1.02-.16.05-.35.08-.56.25-.28.49-.57.74-.86-.05.32-.11.65-.16.97Z"/>
      </g>
      <g>
        <path class="cls-2" d="m101.97,52.27c1.77-9.31-3.83-17.12-13.47-13.38-10.87,4.22-15.07,17.66-12.33,28.28,1.27,4.92,3.55,7.06,7.91,9.22s8.56,5.55,11.46,9.61c.65.91,1.07,2.33,1.8,3.1.48-2.03.37-2.48-.33-1.34-.38.58-.86,1.06-1.45,1.43-1.96,1.46-4.53,1.73-6.9,1.54-2.01-.16-4.03-.8-5.66-2.02-.66-.5-1.13-1.28-1.81-1.72-.28-.36-.55-.72-.81-1.08.43,3.31.81,3.32,1.14.02.16-.52.36-5.18-1.13-4.15-3.67,2.55-4.16,7.67-3.39,11.8.95,5.13,3.97,8.67,9.04,10.02,12.47,3.32,18.39-9.81,15.76-20.22-1.35-5.36-4.75-9.77-8.67-13.55-3.61-3.48-7.79-5.3-11.9-7.98-.54-.35-.81-2.13-.79-.65-.02-1.49,2.31-4.26,3.25-5.31,1.51-1.7,3.47-3.09,5.55-3.98,3.17-1.36,7.99-2.35,9.46,1.46,1.07,2.78,2.91.79,3.27-1.11h0Z"/>
        <path class="cls-2" d="m115.9,64.28c1.58-2.15,2.1-5.36,4.75-6.63,2.93-1.41,5.06.66,6.01,3.31,2.71,7.61-1.04,15.48-.92,23.23.1,5.89,1.66,13.67,7.56,16.58,6.47,3.19,8.46-5.33,8.33-10.02-.06-2.13-3.05-9.53-4.78-4.22l-.56,5.97.56-5.97c-.7,2.16-1.9,1.98-3.78.5-3.25-2.55-1.45-6.48-.85-10.03,1.23-7.35,1.17-14.94-.99-22.13-1.32-4.4-4.49-11.18-10.24-9.52-5.65,1.63-8.11,9.88-8.18,15.02-.01,1.11,1.18,6.5,3.08,3.91h0Z"/>
        <path class="cls-2" d="m130.95,70.99c-3.78-10.99-14.8-5.09-19.95,1.51-5.77,7.4-6.35,21.03,1.38,27.39,6.56,5.4,17.48,2.49,18.39-6.62.16-1.57.16-7.6-2.41-8.04-1.69-.29-3.78,2.93-5.54,3.59-3.15,1.17-7.29.24-9.61-2.2-.19-.2-1.03-1.58-1.11-1.57,1.43-.22-1.65,3.37.35,1.1,1.61-1.82,2.65-3.82,4.63-5.39s4.1-2.85,6.57-3.06,3.41,1.23,5.5,1.75c2.67.67,2.14-7.43,1.78-8.47h0Z"/>
        <path class="cls-2" d="m143.88,32.69l.22.9.18-6.22c-3.02,8.89-2.12,18.75-1.15,27.92.89,8.48,1.8,16.56,1.5,25.08-.22,6.13-.09,16.56,6.77,19.41,8.07,3.36,12.3-6.35,12.09-12.69-.03-.91-.2-2.98-1.25-3.46l-.39-.18c-.22-.1-.42-.02-.55.18-1.5,2.2-8.07,5.38-10.45,2.3-2.06-2.66-.16-9.53-.26-12.71-.47-13.84-4.66-27.05-2.62-40.96.19-1.28-1.07-8.92-3.27-5.71-1.24,1.8-1.32,4.04-.81,6.13h0Z"/>
        <path class="cls-2" d="m166.32,59.43c4.73,12.87,2.38,27.26,10.56,38.99.92,1.32,2.09.88,3-.07,4.49-4.7,6.79-12.15,8.85-18.14,2.35-6.83,4.89-14.18,5.35-21.45.13-2.05.22-6.97-2.22-7.94s-3.21,3.05-3.46,4.63c-.75,4.75-2.64,11.36-4.5,16.6-1.76,4.98-3.57,10.98-7.3,14.89l3-.07c-6.95-9.96-3.57-23.7-9.54-34.26-2.96-5.25-4.6,4.51-3.74,6.84h0Z"/>
        <path class="cls-2" d="m205.06,54.19c6.06-4.1,11.89-.66,15.42,4.97,1.36,2.17,2.58,4.65,2.63,7.23.07,4.71-1.86,9.4-1.9,14.18-.04,5.24,1.04,14.79,6.6,17.5,6.87,3.35,9.19-9.26,7.66-13.4-.3-.82-1.63-3.32-2.65-1.47-.49,1.09-1.13,2.08-1.91,2.98-.51.68-.59,2.64.26,3.14.89-5.44.57-6.94-.94-4.51-.33.33-.71.43-1.14.29-.82-.15-1.34-1.37-1.59-2.05-1.17-3.15.72-7.6,1.18-10.82.9-6.41.24-12.68-2.39-18.62-4.19-9.45-14.5-18.93-23.17-8.58-1.35,1.62-.95,11.12,1.96,9.15h0Z"/>
        <path class="cls-2" d="m221.45,62.8c-9.25-4.83-15.68,3.94-18.02,12.02-1.95,6.73-3.04,22.07,6.31,24.11,5.73,1.25,13.15-3.78,15.42-8.64.83-1.77,1.22-8.3-1.79-8.49s-5.83,3.35-8.54,4.57c-1.53.69-3.53,1.34-5.22.85-.13-.04-1.54-.85-1.21-.6-.82-.59-.7-.84-.86-1.15-.03-.07.13.71-.11-.35-.3-1.29.3,1.23-.01-.11-.27-1.15.05,1.31-.02-.26s-.08.93,0-.34c.08-1.41.33-2.53.89-3.9.78-1.9,1.29-3.04,2.85-4.64,2.39-2.45,5.87-3.19,9.18-1.65,3.61,1.68,4.3-9.76,1.12-11.42h0Z"/>
        <path class="cls-2" d="m251.47,72.85c-1.08,6.63,0,13.78-1.59,20.26-.34,1.38-.63,9.68,2.54,9,10.68-2.3,21.71,3.03,32.39,3.64,9.66.55,20.6,1.78,29.26-3.46,2.36-1.43,2.38-6.38,1.96-8.58-1.04-5.42-.58-11.47-3.69-16.23-2.46-3.76-4.12,4.22-4.06,5.48.25,4.82.95,9.84,1.86,14.58l1.96-8.58c-8.33,5.05-19.53,3.8-28.86,3.34-10.26-.51-20.88-4.9-31.11-2.21.85,3,1.7,6,2.54,9,1.78-8.03,1.45-17.28.1-25.34-.38-2.25-2.73-4.36-3.3-.88h0Z"/>
        <path class="cls-2" d="m268.08,67.02c4.09,7.44,6.55,15.42,10.07,23.1.38.82,1.64,2.52,2.76,1.54,4.07-3.56,6.7-8.04,9.42-12.65,1.34-2.27,2.68-4.59,4.34-6.64,1.78-2.2,4.08-3.8,5.71-6.12l-3.52-4.3c-.11,7.74,4.47-7.51-.66-4.7-2.3,1.26-4.26,4.01-5.73,6.07-3.82,5.37-6.28,11.94-11.34,16.33l2.76,1.54c-3.5-7.37-5.3-16.48-11.18-22.44-3.3-3.35-3.55,6.57-2.62,8.26h0Z"/>
        <path class="cls-2" d="m283.28,72.6c.28-8.4.73-17.11,1.99-25.43,1.15-7.63,2.4-15.48.4-23.08-.47-1.78-1.53-3.49-3.34-2.36s-1.61,5.46-1.35,7.08c1.1,6.84-1.17,13.81-1.74,20.62-.67,8.02-1.38,16.72-.66,24.71.11,1.28.95,4.27,2.74,3.8s1.91-3.97,1.96-5.35h0Z"/>
      </g>
    </g>
  </g>
</svg>