<?xml version="1.0" encoding="UTF-8"?>
<svg id="Livello_2" data-name="Livello 2" xmlns="http://www.w3.org/2000/svg" viewBox="0 0 1366.11 2182.21">
  <defs>
    <style>
      .cls-1 {
        fill: #fff;
      }

      .cls-1, .cls-2 {
        stroke-width: 0px;
      }

      .cls-2 {
        fill: #fdffb6;
      }
    </style>
  </defs>
  <g id="Livello_1-2" data-name="Livello 1">
    <g>
      <rect class="cls-1" x="82.88" y="103.39" width="1152" height="2008"/>
      <path class="cls-2" d="m310.04,96.03c-25.63,11.9-43.6,48.94-60.45,70.99-11.83,15.48-26.58,29.76-35.1,47.45-7.9,16.42-11.64,34.61-20.4,51.4-35.49,68-47.63,147.18-67.11,221.02-44.04,166.96-58.11,342.64-48.94,514.88,5.24,98.43,10,197.62,10,296.13s1.17,191.27,47.34,275.46c38.43,70.07,116.73,114.26,189.83,138.66,41.23,13.76,81.57,31.04,123.61,41.56,50.59,12.66,102.37,14.79,153.2,25.27,62.95,12.98,114.54,15,173.98-10.99,36.04-15.76,76.23-33.33,115.99-35.85,41.58-2.63,80.42,4.39,119.92-12.94,38.09-16.71,77.14-55.07,105.63-84.73,87.23-90.83,205.17-185.87,178.05-325.71-13.34-68.76-8.48-140.46-14.99-210.14-6.44-68.9,2.92-137.37,1.44-206.34-1.28-59.58-8.16-121.17-23.01-178.55-17.4-67.21-29.3-137.33-49.28-203.43-18.67-61.77-43.34-120.9-61.31-182.84-13.53-46.63-30.19-96.45-57.53-137.37-32.84-49.14-76.59-63.56-131.18-76.72-54.47-13.13-113.26-36.19-169.28-39.35-74.52-4.2-149.72,3.27-224.31.1-54.8-2.33-109.03-15.44-163.65-9.99-20.04,2-37.43,6.61-56.35,13.4-12.81,4.6-40.22,20.88-53.69,19.2-15.18-1.9-16.69-22.61-9.94-38.16,9.8-22.58,38.67-23.29,59.67-29.9C416.48,5.16,490.31-1.21,569.13.18c116.65,2.07,233.51,5.91,349.66,13.83,82.46,5.63,167.62-.04,249.35,10.29,36.21,4.57,70.39,14.72,105.87,21.34,14.84,2.77,28.04,4.76,42.31,8.56,22.33,5.95,17.4,1.86,19.6,21.63,4.8,43.04-3.63,97.99-2.33,141.43,2,67.37,8.62,131.78,16.06,199.54,7.47,67.97,15.58,137.31,16.38,206.05.84,72.1-6.42,144.68-7.91,216.85-2.63,127.18-22.3,258.03-18.01,385.29-4.58,150.24-32.07,301.01-39.67,452.53-2.31,46.04,3.09,92.96,5.55,138.37,3.32,61.29,1.89,122.57.05,183.85-1.12,37.19-1.51,75.29.44,112.8.91,17.51,5.35,18.08-7.8,25.53-10.84,6.14-33.79,2.27-46.79,4.42-27.98,4.63-56.01,15.2-84.02,21.01-31.39,6.52-65.84,8.33-98.37,12.27-44.52,5.38-90.69,7.04-135.51,6.24-67.51-1.2-137.37-10.49-204.99-14.59-50-3.03-100.31-4.79-150.44-5.56-114.14-1.75-229.58-5.58-343.35-12.12-35.52-2.04-90.83-2.57-127.14-12.23-23.37-6.22-27.6-23.21-41.13-42.61-19.86-28.48-23.94-62.74-26.9-97.04-7.04-81.5,1.71-170.23.24-251.55-2.3-127.25-15.94-253.71-20-380.82-4.66-146.1-32.26-291.45-14.25-437.86.03-55.99.32-112.38-.03-168.56,1.1-48.97,4.78-100.24,8.16-149.19,3.47-50.21,19.61-106.29,15.64-156.86,17.51-75.84,23.33-176.29,24.23-255.73.45-39.83-4.03-84.99,12.1-122.92,15.49-36.43,62.79-45.93,98.12-53.94,41.57-9.42,75.69-23.59,95.78,23.59"/>
    </g>
  </g>
</svg>