<?xml version="1.0" encoding="UTF-8"?>
<svg id="Livello_2" data-name="Livello 2" xmlns="http://www.w3.org/2000/svg" viewBox="0 0 363.64 85.07">
  <defs>
    <style>
      .cls-1 {
        fill: #9e8d8d;
        stroke-width: 0px;
      }
    </style>
  </defs>
  <g id="Livello_1-2" data-name="Livello 1">
    <g>
      <path class="cls-1" d="m49.47,20.26C50.85,7.68,35.82-1.07,24.63.11,10.48,1.59,3.4,19.88,1.12,31.8c-2.58,13.5-.78,27.71,5.96,39.81,3.07,5.52,7.5,11.14,13.83,12.94,5.14,1.46,9.36-.28,13.63-3.14,6.33-4.24,22.81-18.99,13.08-27.06-.83-.69-.85,2.19-.64,2.57.68,1.21.98-1.13.23.65-.4.96-.64,1.96-1.09,2.89-1.2,2.46-3.09,4.66-4.96,6.64-3.57,3.79-8.38,8.08-13.47,9.67-13.18,4.12-21.12-14.81-23.24-24.52-2.93-13.41,1.29-31.02,11.91-40.23,9.07-7.87,27.71-3.27,31.06,8.89.56,2.03,1.88.87,2.04-.64h0Z"/>
      <path class="cls-1" d="m61.09,42.57c-2.55-1.16-3.58-1.58-5.08,1.48s-1.53,6.61-1.39,9.79c.36,7.85,2.58,16.71,7.41,23.06,4.88,6.42,11.18,5.43,15.72-.84,7.59-10.5,6.8-27.73-2.23-37.35-3.17-3.38-9.77-6.47-13.93-2.89s-2.74,10.32,0,14.18c.84,1.18,1.06-1.86.96-2.23-1.58-6.23,4.67-6.5,8.86-4.13,5.7,3.22,8.42,11.58,7.81,17.77-.52,5.3-6.46,16.41-13.2,11.76-4.76-3.28-6.92-10.6-7.89-15.97-.68-3.74-1.38-11.32,2.97-13.46.29-.14.26-1.04-.03-1.17h0Z"/>
      <path class="cls-1" d="m84.15,34.9c-2.66,5.43-.8,13.5.15,19.14,1.26,7.5,2.92,15.03,5.25,22.28,1.39,4.34,3.34-1.32,2.73-3.55-.42-1.56-.57-3.09-1.14-4.6-.13-.36-.41-.38-.52.01-.43,1.55-.71,3.12-1.17,4.66l2.82-.07c-1.93-5.72-3.35-11.66-4.53-17.58-1.05-5.26-2.9-11.85-1.67-17.22.24-1.06-.66-5.65-1.93-3.06h0Z"/>
      <path class="cls-1" d="m87.55,47.59c1.34-2.33,3.1-4.46,5.38-5.93,1.4-.9,4.62-2.85,6.35-2.32,3.41,1.03,3.31,8.17,3.3,11.09,0,3.58-1.92,21.74,4.03,21.96,1.37.05,1.32-2.94,1.2-3.64-.47-2.72-1.6-5.04-1.77-7.84-.19-3.08.06-6.18.12-9.26.1-5.12-.39-9.92-2.25-14.72-1.25-3.21-2.75-5.46-6.45-4.68-5.42,1.14-9.55,5.52-11.79,10.37-.6,1.3.61,7.17,1.88,4.97h0Z"/>
      <path class="cls-1" d="m114.58,5.42c-2.97,8.91-.88,19.83.15,28.94s1.1,17.86,2.3,26.67c.62,4.59,2.67,12.85,9.01,11.15,2.78-.75,4.95-3.43,6.8-5.47,2.17-2.4,4.06-3.86,6.75-5.51,1.66-1.02,1.09-4.79-.14-5.87-3.27-2.85-8.12,4.96-9.89,6.83s-4.5,4.45-7.17,2.6c-2.26-1.57-2.33-5.53-2.51-7.97-.53-6.99-.92-13.93-1.77-20.9-1.19-9.71-1.3-19.23-1.78-28.96-.04-.76-1.1-3.44-1.74-1.52h0Z"/>
      <path class="cls-1" d="m101.72,20.09l-.68-.55c-1.39-1.9-3.62,4.89-.98,5.91,5.22,2.02,15.04-3.9,20.01-5.04,1.94-.44,3.96-.76,5.96-.77.88,0,1.95.32,2.79.23,1.82-.2.47-.69-.25.87-.12.26-.15,2.07.49,1.67,4.37-2.73,4.13-10.01-1.55-10.83-9.62-1.39-18.09,6.46-27.21,7.53l1.38,4.81.42-1.33c.27-.41.54-2.59-.37-2.51h0Z"/>
      <path class="cls-1" d="m144.96,29.22l-.15.03c-.73.12-.93.88-1.13,1.49-2.02,6.27-.46,14.34.36,20.69.95,7.43,2.02,15.11,4.32,22.26,1.13,3.52,3.27.41,3.07-1.87-.22-2.58-.57-4.94-1.36-7.42-.17-.54-.61-.55-.75.02-.52,2.2-1.03,4.28-1.21,6.54l3.04-.92c-2.16-6.59-3.16-13.66-4.08-20.51-.5-3.71-.97-7.44-1.1-11.19-.08-2.41.44-4.9.15-7.27-.05-.45-.42-1.96-1.16-1.84h0Z"/>
      <path class="cls-1" d="m141.19,10.94c-1.4.17-1.98,2.59-2.09,3.7-.16,1.63.15,3.63,1.27,4.9,1.4,1.58,3.86,1.9,5.85,1.78,2.09-.13,4.37-.81,5.6-2.63,2.14-3.18.98-7.82-1.28-10.59-.31-.38-.85-.66-1.32-.35-3.66,2.42-5.24,6.23-4.79,10.56.04.43.37,1.55,1.02,1.21.29-.15.45-.35.66-.61l-.55.35c1.05-.02,1.55-.99,2.17-1.72.82-.95,1.56-1.83,2.58-2.58l-1.32-.35c.19.21.37.43.55.65.28.35-.05.01.12.15.22.18.06.65.03-.06.03.58-.06-.5-.07-.64-.06-.73.03-1.86.33-2.08-.08.06-.62.68-.28.38-1.03.9-2.28,1.22-3.61,1.37-1.24.14-2.72.12-3.72-.32-.26-.12-.49-.26-.74-.41.34.2-.04.05.02,0-.13.11.06-.35.06.13s.83,2.79.26.79c.15.52-.14,1.17-.02,1.66.06.25-.09.28.09-.14.15-.35.27-.69.36-1.06.18-.74.33-4.27-1.17-4.09h0Z"/>
      <path class="cls-1" d="m163.25,23.75l.18-.76c1.49-3.09-2.05-7.74-2.44-2.97-.66,8.19-.64,16.49-.13,24.68s1.13,16.13,3.77,23.55c1.65,4.65,3.51-1.95,2.55-4.41l-.74-2.86c-.12-.56-.67-1.07-.85-.22-.2,1.06-.46,2.11-.8,3.13l2.67.66c-3.63-14.48-3.67-28.95-3.67-43.79l-2.6,1.64.34,1.38c.28,1.71,1.54,1.71,1.71-.04h0Z"/>
      <path class="cls-1" d="m163.59,37.05c2.81-1.59,5.02-4.13,7.97-5.57,1.38-.68,3.99-1.66,5.63-1.31,1.93.42,1.81,1.47,2.2,3.34,2.48,11.91-1.17,24,2.22,35.86l-.09-3.8-1.25,2.23c-.25.29-.3,1.47.23,1.51l1.41.81c2.1,3.7,3.08-3.12,2.65-4.63-2.44-8.53-.25-17.36-.76-26.06-.25-4.16-.62-11.16-3.31-14.7-4.91-6.45-16.94,3.68-18.06,9.23-.11.57-.11,3.81,1.18,3.08h0Z"/>
      <path class="cls-1" d="m192.78,20.43c-1.91,4.98-1.39,10.63-.85,15.83.6,5.82,1.34,11.82,2.47,17.57.74,3.76,2.11,9.28,6.89,9.3,5.25.02,8.72-5.74,13.27-7.55,2.01-.8,1.37-7.94-1.05-6.97-3.35,1.35-5.62,4.23-8.69,6.03-5.42,3.16-7.06-.95-7.76-5.78-1.15-8.03-3.8-17.13-2.27-25.2.2-1.05-.93-6.05-2.01-3.23h0Z"/>
      <path class="cls-1" d="m212.26,13.93c-4.35-2.41-3.07,24.1-2.87,26.26.86,9.26,1.53,20.65,6.06,29.01.32.6.92,1.34,1.68.89,2.48-1.47,4.99-2.61,7.76-3.43,2.43-.71,1.72-7.76-.18-7.21-3.07.89-5.9,2.05-8.66,3.67l1.68.89c-3.89-7.19-4.34-17.27-5.17-25.23s-.97-15.95.11-23.37c.06-.41,0-1.25-.42-1.48h0Z"/>
      <path class="cls-1" d="m224.88,20.75c6.02-.83,13.41-3.49,18.92.42,4.5,3.19,3.39,10.3,3.66,15.16.35,6.29-.16,12.62-.06,18.93.09,5.51-.32,13.92,3.43,18.49,1.31,1.6,2.88,2.11,4.82,1.3,1.09-.45,2.02-1.35,2.86-2.17,1.31-1.29,2.23-3.74,3.59-4.75l-2.2-3.33s-.05.06-.07.09c-.31.52.11,2.49.54,1.78l.44,1.13c2.28,2.86,3.89-7.32.68-6.55s-7.86,10.98-9.62,3.28c-1.53-6.68-.81-14.08-.73-20.87.09-7.21.46-15.41-1.51-22.35-3.27-11.52-16.34-10.69-25.24-6.31-1.34.66-1.27,5.99.49,5.75h0Z"/>
      <path class="cls-1" d="m248.1,35.84c-4.87-6.22-13.3-7.37-19.23-1.86-5.83,5.42-7.28,14.45-5.48,21.93,1.52,6.29,5.05,15.37,12.54,16.12,3.95.4,6.78-1.63,9.34-4.34,1.31-1.39,2.55-2.89,3.69-4.43.7-.95,2.1-3.97,3.16-4.5.55-.28.47-1.75.07-2.13-3.24-3.11-5.41.22-7.81,2.94-4.33,4.89-10.47,6.59-14.66.28-3.7-5.57-4.65-12.74.2-17.93,5.36-5.72,11.28-3.38,17.19-.18,2.19,1.19,1.68-4.99.98-5.89h0Z"/>
      <path class="cls-1" d="m268.87,37.15l-.86.57c-1.61,1.06-1.91,7.48.65,7.53,6.84.15,14.43-2.47,21.02-4.12,7.05-1.76,14.1-3.59,21.25-4.92s13.97-2.17,21.02-1.82c3.61.18,7.22.67,10.7,1.66,3.09.87,6.3,2.98,9.53,2.86l-1.11-5.12c-.83,1.8-1.94,3.41-3.33,4.85-.38.32-.39,2.11.27,1.8,1.47-.68,3.02-1.1,4.54-1.65,1.66-.59.98-4.51.2-5.52-3.98-5.16-11.95-6.57-18.13-7.17-7.46-.73-15.02.09-22.37,1.41s-15.22,3.36-22.77,5.28c-6.92,1.76-14.19,2.75-21,4.78l1.06,7.13.72-1.18c.62-1,.9-7.87-1.38-6.37h0Z"/>
      <path class="cls-1" d="m323.97,12.27c.08-1.22-.02-2.25-.56-3.36-.17-.35-.51-.85-.97-.85h-.7c-1.02.02-1.29,1.78-1.39,2.47-1.28,8.82,9.44,13.33,15.96,15.96,4.73,1.91,9.6,3.47,14.54,4.72,3.38.86,7.34,2.09,10.87,1.63,2.7-.35,2.47-8.02-.21-8.36-14.92-1.89-26.64,12.21-33.35,23.79.83,2.21,1.67,4.41,2.5,6.62,1.03-2.89,1.94-5.67,2.39-8.7.06-.42-.04-1.85-.77-1.58-1.74.64-2.93,2.3-4.13,3.67-2,2.27.61,9.81,2.13,7.29,6.62-10.96,17.06-24.4,31.42-22.72-.07-2.79-.14-5.57-.21-8.36-6.46.9-14.42-2.3-20.38-4.35-3.89-1.35-7.74-2.89-11.39-4.8-1.84-.97-6.35-3.41-6.51-4.88l-.6,3.75.12-.36c.82.45,1.18-1.14,1.21-1.59h0Z"/>
      <path class="cls-1" d="m213.4,16.37c.06-.43.07-.87.07-1.3l-1.42,2.79.26.18-.81-4.2c-1.68,7.01-1.21,14.23-1.48,21.37-.31,8.34.67,16.58,1.05,24.9.19,4.14,3.25,4.14,3.11-.08-.26-7.81-.83-15.6-1.3-23.4-.37-6.28-2.19-14.2.04-20.22l-2.28-3.18c-.58,14.92-.82,29.74.77,44.62.33,3.13.83,10.46,4.32,12.12,2.85,1.36,5.78-3.31,7.47-5l-1.97-6.57c-3.19,5.46-7.42-1.17-8.52-4.8-1.24-4.09-3.33-.25-3.33,2.08,0,4.7-.82,12.76,4.71,14.89,4.56,1.77,11.35-2.15,13.07-6.45.49-1.23.86-7.81-1.95-6.59-4.92,2.14-6.99,1.85-8.4-3.86-1.12-4.51-1.3-9.23-1.47-13.85-.31-8.08-1.05-16.53-.62-24.58l-2.53.89.21.99c.38,1.79,1.57,1.55,1.96-.05l.24-1c.19-.8-.54-7.1-2.03-4.7-2.78,4.48-1.14,10.83-1.01,15.79.18,7,0,13.99.64,20.97.46,5.17.99,12.53,4.4,16.77,2.74,3.4,6.39,1.74,9.77.27l-1.95-6.59c-1,2.38-5.65,4.7-8.16,4.47-4.29-.39-3.28-4.23-3.27-7.45l-3.33,2.08c1.69,5.67,8.37,15.9,13.53,7.3.9-1.5.7-9.2-1.97-6.57-.91.9-1.75,1.86-2.68,2.74-1.48,1.41-1.57,1.92-2.69.23-2.31-3.47-1.44-10.49-1.76-14.5-.89-10.95-.81-21.84-.84-32.82,0-1.16-1.27-5.05-2.31-2.3-2.63,7.02-1.72,14.21-1.3,21.51.52,8.94,1.14,17.89,1.43,26.85l3.11-.08c-.33-7.37-1.25-14.7-1.13-22.09.11-7-.57-14.34.56-21.26.16-.99.38-3.58-.81-4.2l-.26-.14c-1.24-.65-1.45,2.26-1.42,2.79v-.19c-.17,2.4,1.76,5.27,2.28,1.44h0Z"/>
      <path class="cls-1" d="m213.29,57.4c-2.32-2.57-4.72-.11-7.11,1.3-5.62,3.32-9.17-.17-11.35-5.48-3.71-9.03-3.09-20.34-1.37-29.74l-1.5,2.05.75-.2-1.41-2.96-.2-.16c-.18.3-.2.85.03,1.14l.61,1.13c1.6,2.93,2.33-2.54,2.01-3.68l-.39-1.41c-.94-3.39-2.89-1.31-3.25,1.05-1.91,12.3-2.82,26.02,1.91,37.83,1.59,3.96,4.3,9.63,9.18,10.06s10.35-4.42,12.29-8.54c.29-.62.29-1.85-.2-2.39h0Z"/>
      <path class="cls-1" d="m249.49,41.12c-3.07-9.1-14.83-7.77-20.39-1.67-6.26,6.87-3.71,17.77-1.04,25.58l2.88-5.12c-2.53-4.72-2.18-11.19.74-15.69l-2.44-6.45c-3.42,10.06-7.83,22.59,1.23,31.21,2.93,2.79,7,4.11,10.93,2.78,5.3-1.79,6.02-6.09,6.66-10.96.04-.34-.26-2.01-.84-1.27-.74.95-3.68,2.53-4.71,3.16-2.4,1.48-5.01,1.83-7.64.74-9.22-3.81-5.16-13.04-2.83-19.87.56-1.65.79-3.81.01-5.45-.42-.89-1.49-2.49-2.45-1.01-5.21,8.03-6.03,21.22-.82,29.41,1.84,2.9,2.94-4.53,2.48-5.76-2.28-6.06-3.96-12.36,2.69-16.25,2.38-1.39,5.22-2.11,7.98-1.77,2.28.28,4.46,2.26,6.71,2.02,1.3-.14,1.12-2.83.85-3.62h0Z"/>
      <path class="cls-1" d="m251.52,66.52c-3.81-4.81-3.16-12.55-3.17-18.33-.01-5.57.16-11.21-.22-16.76-.35-5.15-1.14-11.68-5.26-15.32-5.07-4.47-12.75.13-18.15,1.69l.71,8.29c2.74-2.56,4.13-4.33,3.77-8.27-.03-.37-.38-1.81-1.03-1.66l-.26.06c-.29.07-.38.35-.45.61l-.14.49.86-1.16c-1.64.5-2.43.42-3.94,1.8-1.24,1.13-2.01,9.04.71,8.29,5.08-1.39,14.28-6.89,17.97-.84,3.05,5,1.54,12.54,1.6,18.1.06,5.18.25,10.48.95,15.62.49,3.62,1.29,10.38,5.68,11.3,1.4.3.82-3.4.4-3.92h0Z"/>
      <path class="cls-1" d="m159.85,20.09c-.3-.76-.59-1.17-1.32-1.54-1.22-.61-1.73,1.61-1.78,2.34-1,15.27,3.06,30.06,3.5,45.25.13,4.39,3.51,4.25,3.62-.09.27-10.32-1.27-20.57-.93-30.92.17-5.08,1.36-14.18-2.55-18.29-.76-.8-1.66-.36-2,.62-1.2,3.57-1.28,7.02-1.09,10.76.27,5.08.21,10.17.53,15.25.55,8.88.75,18.77,3.42,27.29.88,2.79,3.07,1.41,3.24-.93.13-1.81.03-3.35-.29-5.13-.17-.97-1.05-1.58-1.41-.33-.12.66-.46,1.16-1.02,1.51l2.67,2.06c-1.21-7.74-2.32-15.38-3.02-23.19-.37-4.2-.41-8.36-.53-12.56-.09-3.4-.82-7.06.2-10.36l-2.24,1.37c1.4,1.37.86,5.15.85,6.95-.02,2.91-.24,5.82-.37,8.72-.41,9.08.85,18.18.89,27.27l3.62-.09c-.8-14.86-4.63-29.44-4.18-44.36l-1.81,3.21v-.17c.59,1.38,1.42.83,2.07-.05.83-1.13.35-3.41-.11-4.59h0Z"/>
      <path class="cls-1" d="m161.06,41.16c4.76,1.5,11.52-12.86,16.23-6.86,1.68,2.14,1.73,6.96,1.86,9.58.18,3.47-.01,6.94.04,10.41.08,5.91.17,12.03,1.22,17.86l3.37-4.09c-1.41-3.01,1.18-17.75-3.22-18.3-.38-.05-.36.83-.34,1,.39,3.52-1.22,7.63-1.31,11.24-.1,4.19.29,8.13,2.07,11.95s3.68-2.41,3.37-4.09c-1.47-8-1.04-16.24-1.35-24.34-.22-5.77-.2-13.78-4.13-18.5-2.78-3.35-6.32-1.96-9.33.34s-7.31,5.78-9.17,9.16c-.49.89-.66,4.22.67,4.64h0Z"/>
      <path class="cls-1" d="m141.61,31.25c-1.54,9.57-.41,19.61.78,29.16.65,5.2-.85,14.07,3.26,18.14,5.41,5.35,8.93-4.26,7.9-8.52-1.1-4.54-2.86-9.08-4.1-13.62-1.14-4.19-2.34-8.48-4.26-12.39-.29-.6-.55.38-.5.64,1.27,6.55,1.15,13.26,2.54,19.78.11.53,2.36,7.38,2.44,7.29-.85.96-1.96-.2-2.34-.66-.62-.76-.37-2.74-.42-3.66-.68-11.83-2.47-23.4-2.07-35.31.11-3.18-2.6-4.74-3.23-.84h0Z"/>
      <path class="cls-1" d="m115.13,12.33l.11-1.26-.85,1.51.14-.04-1.65-2.62c1.21,5.8.76,11.85,1.14,17.74s.63,11.65.96,17.47c.33,5.93.11,11.87,1.03,17.77.6,3.8,1.89,11.44,6.92,11.78,6,.41,10.6-9.68,13.11-13.83.71-1.17,1.11-9.11-1.65-7.3-2.42,1.59-9.58,11.35-12.24,9.23-1.11-.89-.94-4.3-1.09-5.62-.36-3.25-.64-6.5-.88-9.76-.55-7.41-.68-14.83-1.1-22.25-.28-5-1.78-9.87-.9-14.86.19-1.1.5-4.3-.88-4.92s-2.01.99-2.08,2.31l-.07,1.36c-.04.72-.06,2.26.75,2.65l.52.25c-.05-2.24-.11-4.47-.16-6.71-4.38,3.46-1.67,13.19-1.16,17.78,1.12,10.22.81,20.68,1.67,30.96.39,4.73-.11,12.57,3.69,16.13,5.14,4.83,11.65-6.52,15.13-8.84l-1.65-7.3c-1.62,2.74-7.26,13.97-11.45,12.65-3.6-1.13-3.26-10.41-3.4-13.29-.28-5.75-.64-11.49-.94-17.23-.49-9.38.28-19.98-2.34-29.05-1.32-4.56-4.59,2.35-2.13,5.01.26.29.54.57.84.84.38.37.59-.28.61-.57h0Z"/>
      <path class="cls-1" d="m85.24,39.03c.14-1,.07-2.46.27-3.4l-2.91-.76c1.68,12.57,6.8,24.47,6.29,37.33l3.5-2.02c-2.52-6.26-3.81-12.81-5.33-19.37-1.48-6.39-4.07-12.77-4.4-19.35l-3.08,1.91c2.26,6.54,2.66,13.44,3.6,20.25s2.47,13.94,4.27,20.64c1.01,3.75,3.34-.42,2.9-2.58-.22-1.07-.39-1.85-1.05-2.72-.13-.17-.34-.14-.47.01l-.53.48,2.13,3.08c-.15-7.86-3.12-15.54-4.17-23.32-.89-6.62-1.66-13.25-3.88-19.59-1.26-3.59-3.19-.4-3.08,1.91.33,7.1,2.59,13.69,4.22,20.56,1.75,7.39,3.01,14.89,5.67,22.03,1.43,3.85,3.46.41,3.5-2.02.25-13.5-4.05-26.99-7.27-39.98-1-4.03-3.23.59-2.83,2.74.24,1.29.48,2.35.84,3.61.15.53.4,1.04.97,1.16l.44.09c.28.06.38-.57.4-.71h0Z"/>
      <path class="cls-1" d="m86.25,43.73c3.76-2.22,12.93-9.01,16.88-5.05,3.22,3.23,1.06,11.48,1.11,15.72.06,5.65.66,11.46,1.49,17.05.13.87.78.8.9-.02,1.21-8.01,1.38-16.05,1.64-24.12.17-5.19.32-11.93-3.85-15.78-3.52-3.26-7.7-1.48-11.19.8-2.86,1.86-7.48,4.07-8.38,7.68-.17.67-.09,4.59,1.4,3.71h0Z"/>
      <path class="cls-1" d="m60.46,41.98c-6.98-2.27-4.98,18.35-4.46,21.59,1.4,8.7,11.1,19.88,19.43,10.79,7.03-7.67,3.83-22.22-1.86-29.83-2.02-2.7-5.51-7.01-9.22-7.23-4.13-.25-5.68,5.06-5.84,8.35-.26,5.31,2.32,11.65,6.66,14.87,6.42,4.77,11.87-.4,13.6-6.65.11-.4.17-2.8-.77-2.57-3.16.79-6.42,3.6-9.75,2.41-2.18-.78-8.5-8.3-3.61-8.13,4.57.15,8.62,8.08,9.67,11.74,1.32,4.62,1.01,11.61-5.04,12.48-3.78.55-7.31-2.83-8.75-6.01-2.19-4.86-2.39-13.14.27-17.77.45-.78.93-3.64-.34-4.05h0Z"/>
      <path class="cls-1" d="m49.05,19.63c-1.5-8.49-9.87-14.75-18.38-15.2-10.21-.54-16.62,8.52-19.69,17.13-3.47,9.72-3.85,20.32-3.37,30.53.49,10.42,1.32,21.64,6.58,30.89l2.45-6.77c-7.15-7.09-9.13-17.46-10.38-27.08-.75-5.72-1.08-11.12.36-16.79,1.52-5.95,4.25-11.49,7.04-16.94l-2.88-5.75C3.92,26.88,1.06,46.11,6.56,64.14c1.3,4.27,3.71.3,3.74-2.16.15-12.26-1.37-24.53.08-36.75.19-1.62-1.29-7.56-3.21-3.85-2.47,4.77-2.85,10.17-3.01,15.46s-.69,10.52-.65,15.77c.06,9,1.44,21.98,8.59,28.47,11.23,10.18,40.31-3.37,34.5-19.57-.78-2.19-2.14-.29-2.09,1.16.16,5.03-8.66,9.82-12.48,11.6-6.97,3.26-17.1,3.72-20.9-4.2-3.5-7.28-3.85-15.68-3.44-23.58.33-6.36-.75-13.65,2.25-19.46l-3.21-3.85c-1.62,12.94-.15,25.92-.51,38.91l3.74-2.16c-4.35-15.05-2.04-30.17,3.7-44.52.82-2.05-.73-9.93-2.88-5.75C4.02,22.83.38,35.22,2.07,50.11c1.33,11.66,4.04,24.86,12.58,33.52,2.91,2.95,3.33-5.22,2.45-6.77-4-7.07-4.68-15.45-5.19-23.42s-.67-15.66,1.3-23.22c2-7.65,6.42-15.76,14.96-17.09,6.14-.96,16.18,2.76,17.83,9.37,1.06,4.25,3.44-.61,3.04-2.88h0Z"/>
    </g>
  </g>
</svg>