<?xml version="1.0" encoding="utf-8"?>
<!-- Generator: Adobe Illustrator 28.1.0, SVG Export Plug-In . SVG Version: 6.00 Build 0)  -->
<svg version="1.1" id="Livello_2_00000032636854256526825280000000570019426619751058_"
	 xmlns="http://www.w3.org/2000/svg" xmlns:xlink="http://www.w3.org/1999/xlink" x="0px" y="0px" viewBox="0 0 442.7 149.3"
	 style="enable-background:new 0 0 442.7 149.3;" xml:space="preserve">
<style type="text/css">
	.st0{fill:#9E8D8D;}
	.st1{fill:#F4E9E9;}
</style>
<g id="Livello_1-2">
	<g>
		<g>
			<path class="st0" d="M11.8,27.9c0-1.9,1.7-2.1,0.1-3c-8.4,0.4-9-2.4-10.5,11.5C-0.2,50.2,1.8,66,2.2,79.8
				c0.5,19.6-0.4,39.3,0.1,58.9c25.1,2.3,49.7,4.1,74.8,6.1c23.3,1.8,46.6-0.7,70,3c13.7,2.2,27.1-0.1,40.7-2.9
				c16.1-3.4,31.8-2.9,47.9-1.4c31.3,2.8,63-0.1,94.3-0.1c30,0,61.2-0.5,89.9-12.1c4.1-21.9,2.3-49.2,2.9-71.9
				c0.4-12.2,2.3-21-4.2-29.1c-5.5-6.8-14.5-5.4-20.8-6.9c-15-3.6-26.8-2-41.8-0.6s-31.8-3-47.5-3.7c-19-0.8-36.3-10-55.6-7.4
				c-16.2,2.2-33,4.2-49.2,4.1c-31.9-0.1-64.2,2-96.2,4.8C72.9,23.4,37.7,31,3.4,27.6c1.2-1.6,0.6-2,0.6-2.7"/>
			<path class="st0" d="M12.5,27.9c0.1-1,1.1-1.9,0.6-2.9c-0.6-1.1-2-0.8-3.1-0.8c-1.7,0-3.7-0.3-5.4,0.2c-1.4,0.5-2.1,1.7-2.6,3.1
				c-1,3-1.2,6.5-1.5,9.6c-1,10.5-0.2,21,0.4,31.5c0.6,10.6,0.8,21.3,0.7,31.9c-0.1,12.7-0.4,25.4-0.1,38.1c0,0.4,0.3,0.7,0.7,0.8
				c16.5,1.5,32.9,2.9,49.4,4.1s32.8,2.6,49.2,2.7c8.1,0,16.2,0,24.3,0.3s16.2,1.4,24.3,2.3c7.9,1,15.9,0.5,23.8-0.6
				c8.3-1.2,16.3-3.3,24.6-4.3c16.2-1.9,32.2,0.1,48.4,1s32.9,0.4,49.3-0.1c16-0.5,32-0.6,48-0.8c14.9-0.2,29.8-0.9,44.5-3.3
				c7.6-1.2,15.1-3,22.4-5.3c1.7-0.6,3.4-1.1,5.1-1.7c0.9-0.3,1.7-0.6,2.5-0.9c0.5-0.2,1.7-0.4,2.1-0.9c0.6-0.7,0.6-2.8,0.8-3.7
				c0.2-1.5,0.5-3.1,0.6-4.7c1.8-14.6,1.6-29.3,1.6-43.9c0-7.2-0.1-14.4,0.2-21.6c0.2-5.9,1-12,0.1-17.9c-0.8-5.1-3.4-10.3-7.8-13.2
				s-10.2-3-15.5-3.7c-3.3-0.5-6.5-1.4-9.8-1.9c-3.5-0.5-7-0.8-10.5-0.8c-7.3-0.1-14.5,0.7-21.8,1.4c-15.9,1.5-31.3-2.2-47.1-3.3
				c-7.7-0.5-15.1-1.6-22.7-3.3c-6.9-1.6-13.7-3.3-20.8-4.2c-7.8-0.9-15.2,0-22.9,1c-7.9,1-15.9,1.9-23.9,2.4
				c-16.2,1.1-32.5,0.6-48.8,1.2c-16.4,0.6-32.7,1.7-49,2.9c-16.2,1.3-32.3,3-48.4,5s-32,3.9-48.1,4.3c-7.8,0.2-15.5,0-23.3-0.8
				L4,28.1c0.8-1.2,0.8-1.8,0.7-3.1c-0.1-1-1.6-1-1.5,0s0.2,1.4-0.5,2.3c-0.3,0.5,0.1,1.1,0.6,1.1c31.6,3,63.1-2.9,94.4-6.2
				c32-3.4,64.3-5.4,96.4-5.7c8-0.1,16,0,24-0.5c7.9-0.5,15.7-1.3,23.5-2.2s14.9-2.3,22.5-1.7s14.7,2.3,21.9,4
				c6.8,1.6,13.6,3.1,20.6,3.6c7.7,0.5,15.2,1.4,22.8,2.4s15.5,2,23.4,1.6c7.3-0.3,14.6-1.4,21.9-1.7c7.4-0.3,14.8,0.2,22,1.9
				c5.2,1.2,10.9,0.8,16,2.9c12.9,5.4,9.6,22.3,9.3,33.2c-0.4,14.2,0.1,28.5-0.3,42.7c-0.2,7.1-0.6,14.3-1.5,21.4
				c-0.2,1.8-0.5,3.5-0.8,5.3c-0.2,1.1-0.2,1.2-1.2,1.7c-0.9,0.4-1.9,0.7-2.9,1.1c-3.5,1.3-7.1,2.4-10.6,3.4
				c-29.5,8.1-60.1,6.5-90.4,7.2c-16.2,0.4-32.3,1.1-48.5,1.1c-8.1,0-16.3-0.2-24.4-0.8s-15.8-1.4-23.7-1.5s-15.3,0.2-22.9,1.2
				c-8.3,1.2-16.3,3.3-24.6,4.3c-8.1,1-16.2,0.9-24.3-0.3s-15.8-1.7-23.7-1.9c-15.9-0.4-31.8,0.1-47.7-1.1S42.2,141.3,26,140
				c-7.9-0.7-15.8-1.4-23.8-2.1l0.8,0.8c-0.4-20.1,0.6-40.2-0.1-60.3c-0.3-9.3-1.2-18.6-1.4-28c-0.1-4.5,0-9.1,0.5-13.6
				c0.3-3,0.4-6.3,1.5-9.1c0.7-1.7,1.7-2,3.5-2c1.1,0,2.1,0,3.2,0c0.3,0,0.7-0.1,1,0c0.7,0.2,0.3-0.2,0.3,0.4c0,0.5-0.4,1.3-0.5,1.8
				C10.9,28.8,12.4,28.8,12.5,27.9L12.5,27.9L12.5,27.9z"/>
		</g>
		<path class="st1" d="M441,105c-0.9,0.1-1.8,0.1-2.7,0c-0.1-0.7-0.1-1.4-0.1-2c2.1-6.4,1.1-15.9,0.3-23.4c0.2-4.9,0.5-9.9,0.6-14.8
			c0-1.8-0.8-2.8-1.6-2.9c-0.1-1.9-0.2-3.8-0.3-5.7c0.1-12.5,1.1-25,1-37.5c0-1.2-0.4-2.1-1-2.6c0.2-1.6,0.4-3.1,0.6-4.6
			c0.3-0.4,0.5-0.9,0.6-1.6c0.1-1.1,0.3-2.2,0.5-3.3c0.3-0.2,0.6-0.6,0.8-1.1c0.1-0.1,0.2-0.3,0.3-0.4c1.7-2.1-0.2-5.5-2-5
			c-6.4,1.9-13.2,1-19.6,1.2C411.2,1.5,404,2,396.9,2.5c-4.2,0.3-8.5,0.6-12.7,1c-3.4-0.5-6.8-0.8-10.3-0.9
			c-11.2-0.4-22.5,1-33.6,3.7c-23.6,1.1-47.2,2-70.8,3.7c-14.1,1-28.1,1.3-42.2,0.3c-7.6-0.6-15.1-0.9-22.6-1
			c-8.6-1.9-17.3-2.1-25.9-1.2c-3.6,0.4-7.2,1-10.9,1.7c-8.4,0.2-16.8,0.5-25.1,0.9c-13.9,0.7-27.8,1.4-41.8,0.8
			c-15.8-0.7-31.5-3.3-47.3-2.3c-7.8,0.5-15.5,1.8-23.3,2c-3.9,0.1-7.7,0-11.6-0.2c0.3-1.5,0.6-3,0.8-4.5c0.6-3.8-3.3-5.3-3.9-1.6
			C15.7,6,15.5,7,15.3,8l-0.2-0.8c-0.2-3.1-2.2-4-3.3-1.5c-0.6,1.5-1,3.2-1.3,5c-1.4,0-2.8-0.1-4.2-0.1c-2.6,0-2.6,6,0,6
			c1.3,0,2.5,0,3.8,0.1c0,3,0.1,6,0,8.5c-0.1,8.4,0.1,16.7,0.1,25.1c-0.2,3.4-0.4,6.8-0.6,10.2c-1,19.6-2.8,39.4-2.7,59.1
			c0,0,0,0,0,0c-0.8-0.1-1.6,0.5-1.9,2.1c-0.1,0.5-0.2,1-0.3,1.5c-0.3,1.5,0.4,3.3,1.2,3.7c5.5,2.8,10.9,2,16.5,1.4
			c2.7-0.3,5.4-0.2,8.1-0.6c2.5-0.4,5-0.9,7.5-1.1c0.7,0,1.5,0,2.2,0c0.1,0,0.1,0,0.2,0c5.5,0.1,11,0.7,16.6,0
			c2.4-0.3,4.7-0.8,7.1-1.2c6.7,0.1,13.4,0.7,20.2,0.7c7.5,0,15-0.4,22.5-0.9c1.4,0.3,2.7,0.5,4.1,0.8c6,1.2,12,2.4,18,2.8
			c5.8,0.3,11.5-0.3,17.3-0.7c23.1-1.4,46.1-4.2,69-7.9c6.8-0.1,13.6-0.3,20.4-0.5c8.7,1.2,14,2.6,14.5,4.1h8.9c0-2,3.6-4,9.3-5.6
			c22.4-1.1,44.7-2.3,67.1-2.7c1.5,0,3,0,4.5-0.1c1.5,0.8,3,1.6,4.6,2.2c5.4,1.9,10.9,1.2,16.3,1.5c5,0.3,9.9,0.2,14.7-1.7
			c6,0.5,12.1,0.9,18.1,1.5c2.9,0.3,5.8,0.5,8.7-0.2c3.1-0.7,6.1-2.9,9.3-3c0.1,0,0.2,0,0.2-0.1c1.9,0.5,3.8,0.4,6-0.1
			c1.5-0.3,3.1-0.2,4.6-0.1c0,1.3-0.1,2.5,0,3.8c0.2,3.5,3.1,4,3.9,0.8c0.3-1.2,0.6-2.5,0.8-3.7c0.6-0.2,1.2-0.5,1.8-0.8
			c2.1-1.1,1.7-5.2-0.2-5.8c0-0.5-0.2-0.9-0.4-1.2c0-0.4,0.1-0.8,0.1-1.2c0.1,0,0.1-0.1,0.2-0.1c2,1.7,4.2,2.8,6.5,3.3
			c0.6,2.3,1.4,4.2,2.8,5.1c1.7,1.2,2.6-2.5,1.8-4.7c0.4,0,0.7,0,1-0.1C443.3,110.9,443.3,104.9,441,105L441,105z M428.1,71.5
			c0.4-2.2,0.7-4.4,1.1-6.6c-0.5,6.6-1.3,13-2.1,19.5c-0.3,0.1-0.6,0.3-0.9,0.6C426.8,80.8,427.5,76.2,428.1,71.5z M425.6,90.5
			c-0.1,3.6-0.5,7.1-1,10.7c-0.3,0-0.6,0.1-0.9,0.4c0.5-3.2,1.1-7.1,1.7-11.5C425.5,90.2,425.6,90.4,425.6,90.5z M146.7,114.9
			c8.8,0.3,17.6,0.6,26.1,0.9c-0.1,0-0.1,0-0.2,0c-8.6,0.2-17.3,0.8-25.9,1.4C146.9,116.5,146.9,115.7,146.7,114.9L146.7,114.9z
			 M416.1,75.2c0.1-0.2,0.3-0.3,0.3-0.4c0.3,0,0.5-0.1,0.8-0.2c-0.6,3.6-1,5.7-1,5.7c0,3-2.7,3.9-5.3,4.3c0.4-0.8,0.7-1.6,1.1-2.3
			c0.9-1.8,1.8-3.6,2.8-5.2C415.2,76.5,415.9,75.6,416.1,75.2z M410.3,109.9c-0.1,0-0.1,0-0.2,0c-0.3-0.1-0.6-0.3-0.9-0.4
			c-0.4-0.1-0.7-0.2-1-0.3c0.1-0.2,0.2-0.4,0.3-0.6c0.5-1.2,0.3-2.4-0.1-3.2c2.4,0.5,4.5,2.1,6.2,3.9
			C413.1,109.6,411.7,109.7,410.3,109.9L410.3,109.9z M378.6,97.4c-0.6,1-1.4,1.4-2.1,1.3c4.9-12,12.3-21.6,18.9-30.5
			C390.2,78.4,384.7,88.3,378.6,97.4L378.6,97.4z M358.1,110.3c-1,0-2,0-3,0c1-0.2,2-0.4,3-0.6C358.1,109.9,358.1,110.1,358.1,110.3
			L358.1,110.3z M184.4,70.6c0.9-1.2,1.7-2.4,2.6-3.6c-0.8,1.4-1.5,2.8-2.2,4.1c-1.1,1.2-2.1,2.3-3.2,3.4
			C182.5,73.2,183.4,71.9,184.4,70.6z M179.5,35.1c1-2.3,3.8-7.9,8.5-7.9c3.5-1.3,4.9-0.3,4.5,2.5c-0.6,0.8-1.3,1.6-1.9,2.4
			c-1-2.6-3.1-4.2-5.3-2.2C183.4,31.6,181.4,33.3,179.5,35.1L179.5,35.1z M192.5,75.7c0.3-0.3,0.5-0.6,0.8-0.9
			c-1.6,2.9-3.1,5.9-4.4,9.1c-0.3,0.8-0.4,1.7-0.2,2.4c-1.7,1.8-3.3,3.6-4.8,5.2C186.8,86.3,189.6,81,192.5,75.7L192.5,75.7z
			 M358.3,38c2.4-0.7,3.2-3.7,2.8-6.5h1.8c0,2.9-6.4,13.6-16.8,28.1c-0.4,0.4-0.7,0.8-1.1,1.2c-1.5,1.7-3.1,3.4-4.7,5.1
			c0.3-0.4,0.6-0.9,0.9-1.3c4-6.2,8-12.3,12.1-18.5c1-1.6,2-3.2,3.1-4.8c0.5-0.8,1.1-1.6,1.6-2.4C358.5,38.1,359.5,37.7,358.3,38
			L358.3,38z M364.2,82.8c0.2,0.4,0.4,0.8,0.7,1c-1.1,1.8-2.2,3.7-3.1,5.8l-3.5,1C360.3,88.1,362.2,85.5,364.2,82.8L364.2,82.8z
			 M369.4,34.3c0.8-3.5,2.3-5.2,3.9-4.1C372.1,31.5,370.7,32.9,369.4,34.3z M370.1,83.4c1-1.3,2-2.6,2.9-3.9c-0.7,1-1.5,2-2.2,3.1
			C370.6,82.8,370.4,83.1,370.1,83.4z M312.1,98.3c-8.5,4.1-8.3-0.4,3.4-13.5c2.9-3.8,5.7-7.5,8.2-10.9c-0.2,0.3-0.4,0.6-0.6,0.9
			c-3.8,5.5-8.7,11.1-10.9,18.4C311.6,95.1,311.7,96.8,312.1,98.3L312.1,98.3z M285.6,89.5c3.7-4.7,7.5-9.3,11.3-13.8
			c-0.8,1.5-1.7,3-2.5,4.6c-3.2,6.2-6.3,12.9-10.4,17.8c-0.4,0-0.8,0-1.2,0c-1.4,0-2.6,0-3.6,0C281.4,95.2,283.4,92.2,285.6,89.5
			L285.6,89.5z M256.2,84.8c0.9-1.3,1.8-2.7,2.9-4.1c3.5-3.7,7.2-7.1,10.7-10.8c-2.6,3.5-5.2,7-7.7,10.7c-0.4-0.1-0.8-0.1-1.2,0.3
			c-2.1,1.9-4.2,4.2-6.3,6.3L256.2,84.8L256.2,84.8z M301.9,85.5c-0.1,0.5-0.1,1-0.1,1.4c-0.7,0.8-1.3,1.6-2,2.4
			C300.6,88,301.3,86.7,301.9,85.5L301.9,85.5z M247.3,98.1c1.5,0.1,3-0.4,4.5-1.4c-0.6,1-1.1,2-1.7,3c-1.3,0-2.6-0.1-3.8,0
			L247.3,98.1L247.3,98.1z M351.5,92.7l-3.4,1l2.1-3.1C350.5,91.4,350.9,92.1,351.5,92.7z M374.1,94.3c-0.1-0.2-0.3-0.4-0.5-0.5
			c0-1.2,0.2-2.4,0.9-3.5c3.2-4.8,6.2-9.8,9.1-14.9c0.2-0.2,0.4-0.4,0.6-0.6c0.5-0.5,0.8-1.2,0.8-1.9c1.1-2,2.3-4.1,3.4-6.2
			c0.8-0.9,1.5-1.8,2.3-2.7c5.1-5.9,9.8-12.6,14.4-19.6c0.7-1,1.3-2,2-3c-0.8,1.9-1.7,3.7-2.6,5.5c-3.6,6.7-8,12.2-12.1,17.9
			C386,73.6,379,82.8,374.1,94.3L374.1,94.3z M407.3,33c-2.7,4.5-5.5,8.9-8.5,13.1c1.7-3.5,3.3-6.9,5-10.4c0.1-0.8,0.4-1.5,0.8-2.2
			c0.5-0.8,0.9-1.6,1.4-2.4c1-1.7,2.1-1.9,3-1.2C408.4,31,407.8,32,407.3,33L407.3,33z M398.8,38.9c0.5-2.1,0.9-3.8,1.2-5.2
			c1.7-2.1,3.3-4.2,5-6.3c0.3,0,0.6-0.1,1-0.1c-1,1.7-2.1,3.5-3.1,5.1C401.6,34.5,400.2,36.7,398.8,38.9L398.8,38.9z M204.5,28.6
			c0-0.5,0-1-0.1-1.4c0.4,0,0.8,0,1.4,0c0,0,0.1,0,0.1,0C205.4,27.6,205,28.1,204.5,28.6L204.5,28.6z M199.5,101.2
			c1.1,1.1,2.4,1.2,3.8-0.3c4.5-4.9,8.8-10.2,13.1-15.6c-3.7,5.2-7.4,10.5-10.7,16.2c-2.9,2.4-5.3,3.1-8.2,2.4
			C198.2,103,198.9,102.1,199.5,101.2z M398.5,71.7c2-3.6,4-7.1,6.1-10.6C402.6,64.7,400.5,68.2,398.5,71.7L398.5,71.7z M346.4,13.1
			c9.1-0.4,18.2-1.1,27.4-1.7c-4.3,0.6-8.9,1.2-13.6,1.7c-0.7-0.2-1.4-0.1-2.1,0.2c-8.5,1-17.6,1.9-26.5,2.6c3-0.9,5.9-1.8,8.9-2.5
			C342.4,13.3,344.4,13.2,346.4,13.1L346.4,13.1z M120.7,93c-0.2,0.3-0.3,0.7-0.3,1c-0.2-0.1-0.4-0.2-0.5-0.4c0,0,0.1-0.2,0.3-0.7
			C120.3,93,120.5,93,120.7,93z M13.9,67.9c-0.1-1.6-0.1-3.1-0.1-4.6c0-0.7,0-1.4,0-2.1c0.5-8.7,1-17.3,1.7-25.9
			c0.2-2.4,0.4-4.8,0.6-7.2v3.6C16.1,42,15.2,55.2,13.9,67.9L13.9,67.9z M126,42.7c2.6-3.7,5.3-7.3,8.1-10.6c0.3-0.1,0.6-0.2,1-0.4
			c1.1,0,2.2,0,3.4,0c-2.7,3.6-5.4,7.4-8.1,11.1c-0.6-0.4-1.5-0.5-2.6-0.4c-0.5-0.5-1-0.5-1.6,0.2C126.2,42.5,126.1,42.6,126,42.7
			C126.1,42.7,126,42.7,126,42.7L126,42.7z M52,95c0.5-0.6,0.9-1.2,1.2-2c0.7-1,1.6-1.9,2.5-2.8c-1,1.7-2.1,3.4-3.2,4.9
			C52.4,95,52.2,95,52,95z M57.9,85.9c0,0.1,0,0.2-0.1,0.4c-0.6-0.6-1.2-1.5-1.5-2.7c0.9-1.7,1.8-3.4,2.8-5.1c0.5-0.7,0.9-1.4,1.4-2
			C59.6,79.4,58.7,82.6,57.9,85.9z M85.5,65.4c6.1-8.9,12.1-18.8,18.9-26.5c-0.1,4-6.3,13-23.1,32.6c-0.1,0.1-0.2,0.2-0.2,0.4
			c-0.1,0.1-0.2,0.1-0.3,0.2C82.4,69.9,83.9,67.7,85.5,65.4L85.5,65.4z M108.7,52.9c-0.4,0-0.7-0.1-1.1,0c1.3-2.7,2.5-5.3,3.4-8
			c1.6-7.2,4.1-10.5,10.7-12C117.1,39.3,112.9,46.1,108.7,52.9z M30.5,52.4c0.1,0.2,0.1,0.5,0.1,0.8c-0.2,0.3-0.3,0.6-0.5,0.8
			c0.1-0.6,0.2-1.3,0.3-1.9C30.4,52.2,30.4,52.3,30.5,52.4L30.5,52.4z M45.7,62.6c2.4-3.6,4.6-6.9,6.6-9.8c0.2-0.2,0.4-0.3,0.6-0.5
			c-2.2,3.5-4.4,7-6.3,11c-1.4,2.8-2.7,5.5-4.1,8.2c-1.7,2.4-3.3,4.8-5,7.2c-3.1,4.4-6.5,8.4-9.3,13.3
			C30.9,85.4,36.9,75.9,45.7,62.6L45.7,62.6z M41.7,92.5c0.1-0.1,0.2-0.2,0.2-0.3c-0.3,1.2,0,1.5,0.8,1.5c0.6,0.8,1.1,1.4,1.9,1.4
			c-0.9,1.9-1.8,3.9-2.6,5.9c-0.2,0.6-0.3,1.2-0.3,1.7c-3.5,0.6-6.4,0.9-8.7,0.9C36.4,101.1,38.9,95.7,41.7,92.5L41.7,92.5z
			 M62.4,83.2c3.1-10.7,8.3-19.4,14.1-26.7c-0.5,0.9-0.9,1.7-1.4,2.6c-0.3,0.6-0.6,1.1-0.9,1.7c-0.3,0.4-0.6,0.8-0.9,1.2
			c-0.4,0.5-0.5,1.1-0.6,1.7C69.3,70.3,66,76.9,62.4,83.2L62.4,83.2z M71.4,85c0.1,0,0.1-0.1,0.2-0.1c-0.3,0.4-0.6,0.8-0.9,1.1
			C70.9,85.6,71.2,85.3,71.4,85L71.4,85z M100.5,88.3c0.4,2.8,2.1,4.7,3.9,4.8c-2.2,1.3-4,1.5-5.3,0.6
			C97.7,93.7,98.3,91.7,100.5,88.3L100.5,88.3z M143.8,91.8c-0.3,0.1-0.7,0.1-1.1,0.2c0.4-0.9,0.6-2.2,1-3c0.9-2.3,2.1-4.4,3.2-6.4
			c1.4-2.4,2.8-4.6,4.3-6.7c0.4-0.4,0.9-0.9,1.3-1.4c1.4-1.4,2.8-2.9,4.2-4.3c-0.4,1.1-0.9,2.1-1.5,3.1c-0.8,1.3-1.5,2.7-2.3,4.1
			C149.9,82.3,146.5,86.7,143.8,91.8C143.8,91.8,143.8,91.8,143.8,91.8L143.8,91.8z M10.7,122.3c0.2,0.3,0.4,0.6,0.7,0.8
			c0.1,0.2,0.1,0.3,0.2,0.4c-0.6-0.1-1.1-0.2-1.6-0.4C10.3,123,10.5,122.7,10.7,122.3z M60.9,120.3c-7.9,0.2-15.7,1.3-23.6,1.3
			c-2.7,0-5.5-0.1-8.2-0.1c4.8-1.5,10.2-3.3,15.2-5.1c7,1.8,14.3,1.9,21.4,1.8c4.1-0.1,8.3-0.1,12.4-0.2c-4.4,0.6-8.8,1.5-13.2,2.3
			C63.6,120.3,62.2,120.3,60.9,120.3L60.9,120.3z M91.6,117.6c0.4,0,0.7,0,1.1,0c9.5-0.4,19.1-0.6,28.6,1.2c0.6,0.1,1.2,0.2,1.8,0.3
			c-5.2,0.4-10.4,0.8-15.6,1.1C102.2,119.1,96.9,118.1,91.6,117.6L91.6,117.6z M130.9,114.5c2.6,0.1,5.2,0.1,7.8,0.2
			C136.1,115,133.5,114.9,130.9,114.5z M137.6,102.5c-3.5,0-3.9-3.1,1.2-11.1c-0.1,0.9-0.1,1.8,0,2.6c0.4,3.2,2,4,3.6,3.9
			c0,0.1,0,0.1,0.1,0.2C141.5,100.7,139.6,102.6,137.6,102.5L137.6,102.5z M393.9,109.9c0.8,0.1,1.6,0.2,2.3,0.3c-0.1,0-0.1,0-0.2,0
			C395.3,110.1,394.6,110,393.9,109.9L393.9,109.9z M421.3,33C421.3,33,421.4,33,421.3,33l-0.1,1.4c-0.3,0-0.6,0-1,0.1
			C420.6,34,421,33.5,421.3,33L421.3,33z M418.6,64c-0.4-0.4-0.8-0.6-1.2-0.7c-1.5-0.3-2.9,0-4.2,0.8c1.4-2.6,2.7-5.1,4.1-7.7
			c0.6-1.2,1.3-2.4,1.9-3.7C419.1,56.8,418.9,60.6,418.6,64L418.6,64z M137.8,123.7c5.2-0.4,10.4-0.8,15.5-1c0.4,0,0.7,0,1.1-0.1
			C148.9,123.1,143.4,123.6,137.8,123.7z M423.1,110.2c0,0.2,0,0.3-0.1,0.5c0,0,0,0,0,0.1c-0.2,0-0.5-0.1-0.7-0.1
			c0-0.2,0.1-0.3,0.1-0.6c0.3-0.3,0.6-0.6,0.9-0.9C423.2,109.5,423.1,109.9,423.1,110.2L423.1,110.2z"/>
	</g>
</g>
<g id="Livello_1-2_00000032627613306816986010000000750847891638290560_">
	<g>
		<path class="st0" d="M89,51.4c1.4-12.6-13.7-21.3-24.8-20.1C50,32.7,42.9,51,40.7,62.9c-2.6,13.5-0.8,27.7,6,39.8
			c3.1,5.5,7.5,11.1,13.8,12.9c5.1,1.5,9.4-0.3,13.6-3.1c6.3-4.2,22.8-19,13.1-27.1c-0.8-0.7-0.8,2.2-0.6,2.6c0.7,1.2,1-1.1,0.2,0.7
			c-0.4,1-0.6,2-1.1,2.9c-1.2,2.5-3.1,4.7-5,6.6c-3.6,3.8-8.4,8.1-13.5,9.7C54,112,46.1,93.1,44,83.4c-2.9-13.4,1.3-31,11.9-40.2
			C65,35.3,83.6,39.9,87,52C87.5,54.1,88.8,52.9,89,51.4L89,51.4L89,51.4z"/>
		<path class="st0" d="M100.6,73.7c-2.6-1.2-3.6-1.6-5.1,1.5C94,78.2,94,81.8,94.2,85c0.4,7.8,2.6,16.7,7.4,23.1
			c4.9,6.4,11.2,5.4,15.7-0.8c7.6-10.5,6.8-27.7-2.2-37.3c-3.2-3.4-9.8-6.5-13.9-2.9c-4.2,3.6-2.7,10.3,0,14.2
			c0.8,1.2,1.1-1.9,1-2.2c-1.6-6.2,4.7-6.5,8.9-4.1c5.7,3.2,8.4,11.6,7.8,17.8c-0.5,5.3-6.5,16.4-13.2,11.8
			c-4.8-3.3-6.9-10.6-7.9-16c-0.7-3.7-1.4-11.3,3-13.5C100.9,74.7,100.9,73.8,100.6,73.7L100.6,73.7L100.6,73.7z"/>
		<path class="st0" d="M123.7,66c-2.7,5.4-0.8,13.5,0.2,19.1c1.3,7.5,2.9,15,5.2,22.3c1.4,4.3,3.3-1.3,2.7-3.6
			c-0.4-1.6-0.6-3.1-1.1-4.6c-0.1-0.4-0.4-0.4-0.5,0c-0.4,1.6-0.7,3.1-1.2,4.7l2.8-0.1c-1.9-5.7-3.4-11.7-4.5-17.6
			c-1.1-5.3-2.9-11.8-1.7-17.2C125.8,68,124.9,63.4,123.7,66L123.7,66L123.7,66z"/>
		<path class="st0" d="M127.1,78.7c1.3-2.3,3.1-4.5,5.4-5.9c1.4-0.9,4.6-2.8,6.3-2.3c3.4,1,3.3,8.2,3.3,11.1c0,3.6-1.9,21.7,4,22
			c1.4,0.1,1.3-2.9,1.2-3.6c-0.5-2.7-1.6-5-1.8-7.8c-0.2-3.1,0.1-6.2,0.1-9.3c0.1-5.1-0.4-9.9-2.2-14.7c-1.2-3.2-2.8-5.5-6.4-4.7
			c-5.4,1.1-9.6,5.5-11.8,10.4C124.6,75,125.8,80.9,127.1,78.7L127.1,78.7z"/>
		<path class="st0" d="M154.1,36.5c-3,8.9-0.9,19.8,0.2,28.9s1.1,17.9,2.3,26.7c0.6,4.6,2.7,12.8,9,11.2c2.8-0.8,4.9-3.4,6.8-5.5
			c2.2-2.4,4.1-3.9,6.8-5.5c1.7-1,1.1-4.8-0.1-5.9c-3.3-2.8-8.1,5-9.9,6.8c-1.8,1.9-4.5,4.4-7.2,2.6c-2.3-1.6-2.3-5.5-2.5-8
			c-0.5-7-0.9-13.9-1.8-20.9c-1.2-9.7-1.3-19.2-1.8-29C155.8,37.3,154.8,34.6,154.1,36.5L154.1,36.5L154.1,36.5z"/>
		<path class="st0" d="M141.3,51.2l-0.7-0.5c-1.4-1.9-3.6,4.9-1,5.9c5.2,2,15-3.9,20-5c1.9-0.4,4-0.8,6-0.8c0.9,0,1.9,0.3,2.8,0.2
			c1.8-0.2,0.5-0.7-0.2,0.9c-0.1,0.3-0.1,2.1,0.5,1.7c4.4-2.7,4.1-10-1.6-10.8c-9.6-1.4-18.1,6.5-27.2,7.5l1.4,4.8l0.4-1.3
			C141.9,53.3,142.2,51.1,141.3,51.2L141.3,51.2L141.3,51.2z"/>
		<path class="st0" d="M184.5,60.3l-0.1,0c-0.7,0.1-0.9,0.9-1.1,1.5c-2,6.3-0.5,14.3,0.4,20.7c0.9,7.4,2,15.1,4.3,22.3
			c1.1,3.5,3.3,0.4,3.1-1.9c-0.2-2.6-0.6-4.9-1.4-7.4c-0.2-0.5-0.6-0.5-0.8,0c-0.5,2.2-1,4.3-1.2,6.5l3-0.9
			c-2.2-6.6-3.2-13.7-4.1-20.5c-0.5-3.7-1-7.4-1.1-11.2c-0.1-2.4,0.4-4.9,0.1-7.3C185.6,61.7,185.2,60.2,184.5,60.3L184.5,60.3
			L184.5,60.3z"/>
		<path class="st0" d="M180.7,42.1c-1.4,0.2-2,2.6-2.1,3.7c-0.2,1.6,0.1,3.6,1.3,4.9c1.4,1.6,3.9,1.9,5.9,1.8
			c2.1-0.1,4.4-0.8,5.6-2.6c2.1-3.2,1-7.8-1.3-10.6c-0.3-0.4-0.9-0.7-1.3-0.4c-3.7,2.4-5.2,6.2-4.8,10.6c0,0.4,0.4,1.5,1,1.2
			c0.3-0.2,0.4-0.4,0.7-0.6l-0.6,0.3c1.1,0,1.6-1,2.2-1.7c0.8-1,1.6-1.8,2.6-2.6l-1.3-0.3c0.2,0.2,0.4,0.4,0.6,0.6
			c0.3,0.4-0.1,0,0.1,0.2c0.2,0.2,0.1,0.6,0-0.1c0,0.6-0.1-0.5-0.1-0.6c-0.1-0.7,0-1.9,0.3-2.1c-0.1,0.1-0.6,0.7-0.3,0.4
			c-1,0.9-2.3,1.2-3.6,1.4c-1.2,0.1-2.7,0.1-3.7-0.3c-0.3-0.1-0.5-0.3-0.7-0.4c0.3,0.2,0,0.1,0,0c-0.1,0.1,0.1-0.3,0.1,0.1
			s0.8,2.8,0.3,0.8c0.1,0.5-0.1,1.2,0,1.7c0.1,0.2-0.1,0.3,0.1-0.1c0.1-0.4,0.3-0.7,0.4-1.1C182.1,45.4,182.2,41.9,180.7,42.1
			L180.7,42.1L180.7,42.1z"/>
		<path class="st0" d="M202.8,54.9l0.2-0.8c1.5-3.1-2.1-7.7-2.4-3c-0.7,8.2-0.6,16.5-0.1,24.7s1.1,16.1,3.8,23.5
			c1.6,4.7,3.5-1.9,2.6-4.4l-0.7-2.9c-0.1-0.6-0.7-1.1-0.9-0.2c-0.2,1.1-0.5,2.1-0.8,3.1l2.7,0.7c-3.6-14.5-3.7-28.9-3.7-43.8
			l-2.6,1.6l0.3,1.4C201.3,56.6,202.6,56.6,202.8,54.9L202.8,54.9L202.8,54.9z"/>
		<path class="st0" d="M203.1,68.2c2.8-1.6,5-4.1,8-5.6c1.4-0.7,4-1.7,5.6-1.3c1.9,0.4,1.8,1.5,2.2,3.3c2.5,11.9-1.2,24,2.2,35.9
			l-0.1-3.8l-1.2,2.2c-0.2,0.3-0.3,1.5,0.2,1.5l1.4,0.8c2.1,3.7,3.1-3.1,2.6-4.6c-2.4-8.5-0.2-17.4-0.8-26.1
			c-0.2-4.2-0.6-11.2-3.3-14.7c-4.9-6.5-16.9,3.7-18.1,9.2C201.9,65.7,201.9,68.9,203.1,68.2L203.1,68.2L203.1,68.2z"/>
		<path class="st0" d="M232.3,51.6c-1.9,5-1.4,10.6-0.9,15.8c0.6,5.8,1.3,11.8,2.5,17.6c0.7,3.8,2.1,9.3,6.9,9.3
			c5.2,0,8.7-5.7,13.3-7.6c2-0.8,1.4-7.9-1.1-7c-3.4,1.3-5.6,4.2-8.7,6c-5.4,3.2-7.1-0.9-7.8-5.8c-1.1-8-3.8-17.1-2.3-25.2
			C234.5,53.7,233.4,48.7,232.3,51.6L232.3,51.6z"/>
		<path class="st0" d="M251.8,45.1c-4.4-2.4-3.1,24.1-2.9,26.3c0.9,9.3,1.5,20.7,6.1,29c0.3,0.6,0.9,1.3,1.7,0.9
			c2.5-1.5,5-2.6,7.8-3.4c2.4-0.7,1.7-7.8-0.2-7.2c-3.1,0.9-5.9,2.1-8.7,3.7l1.7,0.9c-3.9-7.2-4.3-17.3-5.2-25.2s-1-16,0.1-23.4
			C252.3,46.1,252.2,45.3,251.8,45.1L251.8,45.1L251.8,45.1z"/>
		<path class="st0" d="M264.4,51.9c6-0.8,13.4-3.5,18.9,0.4c4.5,3.2,3.4,10.3,3.7,15.2c0.4,6.3-0.2,12.6-0.1,18.9
			c0.1,5.5-0.3,13.9,3.4,18.5c1.3,1.6,2.9,2.1,4.8,1.3c1.1-0.4,2-1.3,2.9-2.2c1.3-1.3,2.2-3.7,3.6-4.8l-2.2-3.3c0,0,0,0.1-0.1,0.1
			c-0.3,0.5,0.1,2.5,0.5,1.8l0.4,1.1c2.3,2.9,3.9-7.3,0.7-6.5c-3.2,0.8-7.9,11-9.6,3.3c-1.5-6.7-0.8-14.1-0.7-20.9
			c0.1-7.2,0.5-15.4-1.5-22.3c-3.3-11.5-16.3-10.7-25.2-6.3C262.6,46.8,262.7,52.1,264.4,51.9C264.4,51.9,264.4,51.9,264.4,51.9z"/>
		<path class="st0" d="M287.6,67c-4.9-6.2-13.3-7.4-19.2-1.9c-5.8,5.4-7.3,14.4-5.5,21.9c1.5,6.3,5,15.4,12.5,16.1
			c4,0.4,6.8-1.6,9.3-4.3c1.3-1.4,2.6-2.9,3.7-4.4c0.7-0.9,2.1-4,3.2-4.5c0.6-0.3,0.5-1.8,0.1-2.1c-3.2-3.1-5.4,0.2-7.8,2.9
			c-4.3,4.9-10.5,6.6-14.7,0.3c-3.7-5.6-4.6-12.7,0.2-17.9c5.4-5.7,11.3-3.4,17.2-0.2C288.8,74.1,288.3,67.9,287.6,67L287.6,67
			L287.6,67z"/>
		<path class="st0" d="M308.4,68.3l-0.9,0.6c-1.6,1.1-1.9,7.5,0.6,7.5c6.8,0.2,14.4-2.5,21-4.1c7-1.8,14.1-3.6,21.2-4.9
			s14-2.2,21-1.8c3.6,0.2,7.2,0.7,10.7,1.7c3.1,0.9,6.3,3,9.5,2.9l-1.1-5.1c-0.8,1.8-1.9,3.4-3.3,4.8c-0.4,0.3-0.4,2.1,0.3,1.8
			c1.5-0.7,3-1.1,4.5-1.7c1.7-0.6,1-4.5,0.2-5.5c-4-5.2-12-6.6-18.1-7.2c-7.5-0.7-15,0.1-22.4,1.4S336.6,62,329,63.9
			c-6.9,1.8-14.2,2.8-21,4.8l1.1,7.1l0.7-1.2C310.4,73.6,310.7,66.8,308.4,68.3L308.4,68.3L308.4,68.3z"/>
		<path class="st0" d="M363.5,43.4c0.1-1.2,0-2.2-0.6-3.4c-0.2-0.3-0.5-0.8-1-0.8h-0.7c-1,0-1.3,1.8-1.4,2.5
			c-1.3,8.8,9.4,13.3,16,16c4.7,1.9,9.6,3.5,14.5,4.7c3.4,0.9,7.3,2.1,10.9,1.6c2.7-0.3,2.5-8-0.2-8.4
			c-14.9-1.9-26.6,12.2-33.4,23.8c0.8,2.2,1.7,4.4,2.5,6.6c1-2.9,1.9-5.7,2.4-8.7c0.1-0.4,0-1.8-0.8-1.6c-1.7,0.6-2.9,2.3-4.1,3.7
			c-2,2.3,0.6,9.8,2.1,7.3c6.6-11,17.1-24.4,31.4-22.7c-0.1-2.8-0.1-5.6-0.2-8.4c-6.5,0.9-14.4-2.3-20.4-4.4
			c-3.9-1.3-7.7-2.9-11.4-4.8c-1.8-1-6.4-3.4-6.5-4.9l-0.6,3.8l0.1-0.4C363.1,45.4,363.4,43.8,363.5,43.4L363.5,43.4L363.5,43.4z"/>
		<path class="st0" d="M252.9,47.5c0.1-0.4,0.1-0.9,0.1-1.3l-1.4,2.8l0.3,0.2L251,45c-1.7,7-1.2,14.2-1.5,21.4
			c-0.3,8.3,0.7,16.6,1.1,24.9c0.2,4.1,3.2,4.1,3.1-0.1c-0.3-7.8-0.8-15.6-1.3-23.4c-0.4-6.3-2.2-14.2,0-20.2l-2.3-3.2
			c-0.6,14.9-0.8,29.7,0.8,44.6c0.3,3.1,0.8,10.5,4.3,12.1c2.9,1.4,5.8-3.3,7.5-5l-2-6.6c-3.2,5.5-7.4-1.2-8.5-4.8
			c-1.2-4.1-3.3-0.2-3.3,2.1c0,4.7-0.8,12.8,4.7,14.9c4.6,1.8,11.4-2.2,13.1-6.4c0.5-1.2,0.9-7.8-2-6.6c-4.9,2.1-7,1.8-8.4-3.9
			c-1.1-4.5-1.3-9.2-1.5-13.9c-0.3-8.1-1.1-16.5-0.6-24.6l-2.5,0.9l0.2,1c0.4,1.8,1.6,1.5,2,0l0.2-1c0.2-0.8-0.5-7.1-2-4.7
			c-2.8,4.5-1.1,10.8-1,15.8c0.2,7,0,14,0.6,21c0.5,5.2,1,12.5,4.4,16.8c2.7,3.4,6.4,1.7,9.8,0.3l-1.9-6.6c-1,2.4-5.6,4.7-8.2,4.5
			c-4.3-0.4-3.3-4.2-3.3-7.5l-3.3,2.1c1.7,5.7,8.4,15.9,13.5,7.3c0.9-1.5,0.7-9.2-2-6.6c-0.9,0.9-1.8,1.9-2.7,2.7
			c-1.5,1.4-1.6,1.9-2.7,0.2c-2.3-3.5-1.4-10.5-1.8-14.5c-0.9-10.9-0.8-21.8-0.8-32.8c0-1.2-1.3-5-2.3-2.3c-2.6,7-1.7,14.2-1.3,21.5
			c0.5,8.9,1.1,17.9,1.4,26.8l3.1-0.1c-0.3-7.4-1.2-14.7-1.1-22.1c0.1-7-0.6-14.3,0.6-21.3c0.2-1,0.4-3.6-0.8-4.2l-0.3-0.1
			c-1.2-0.6-1.4,2.3-1.4,2.8v-0.2C250.5,48.5,252.4,51.3,252.9,47.5L252.9,47.5L252.9,47.5z"/>
		<path class="st0" d="M252.8,88.5c-2.3-2.6-4.7-0.1-7.1,1.3c-5.6,3.3-9.2-0.2-11.4-5.5c-3.7-9-3.1-20.3-1.4-29.7l-1.5,2l0.8-0.2
			l-1.4-3l-0.2-0.2c-0.2,0.3-0.2,0.8,0,1.1l0.6,1.1c1.6,2.9,2.3-2.5,2-3.7l-0.4-1.4c-0.9-3.4-2.9-1.3-3.2,1
			c-1.9,12.3-2.8,26,1.9,37.8c1.6,4,4.3,9.6,9.2,10.1s10.4-4.4,12.3-8.5C253.3,90.3,253.3,89.1,252.8,88.5L252.8,88.5L252.8,88.5z"
			/>
		<path class="st0" d="M289,72.2c-3.1-9.1-14.8-7.8-20.4-1.7c-6.3,6.9-3.7,17.8-1,25.6l2.9-5.1c-2.5-4.7-2.2-11.2,0.7-15.7l-2.4-6.4
			c-3.4,10.1-7.8,22.6,1.2,31.2c2.9,2.8,7,4.1,10.9,2.8c5.3-1.8,6-6.1,6.7-11c0-0.3-0.3-2-0.8-1.3c-0.7,0.9-3.7,2.5-4.7,3.2
			c-2.4,1.5-5,1.8-7.6,0.7c-9.2-3.8-5.2-13-2.8-19.9c0.6-1.7,0.8-3.8,0-5.4c-0.4-0.9-1.5-2.5-2.5-1c-5.2,8-6,21.2-0.8,29.4
			c1.8,2.9,2.9-4.5,2.5-5.8c-2.3-6.1-4-12.4,2.7-16.2c2.4-1.4,5.2-2.1,8-1.8c2.3,0.3,4.5,2.3,6.7,2C289.5,75.7,289.3,73,289,72.2
			L289,72.2L289,72.2z"/>
		<path class="st0" d="M291.1,97.6c-3.8-4.8-3.2-12.5-3.2-18.3c0-5.6,0.2-11.2-0.2-16.8c-0.4-5.1-1.1-11.7-5.3-15.3
			c-5.1-4.5-12.8,0.1-18.1,1.7l0.7,8.3c2.7-2.6,4.1-4.3,3.8-8.3c0-0.4-0.4-1.8-1-1.7l-0.3,0.1c-0.3,0.1-0.4,0.4-0.5,0.6l-0.1,0.5
			l0.9-1.2c-1.6,0.5-2.4,0.4-3.9,1.8c-1.2,1.1-2,9,0.7,8.3c5.1-1.4,14.3-6.9,18-0.8c3,5,1.5,12.5,1.6,18.1
			c0.1,5.2,0.2,10.5,0.9,15.6c0.5,3.6,1.3,10.4,5.7,11.3C292.1,101.9,291.5,98.2,291.1,97.6L291.1,97.6L291.1,97.6z"/>
		<path class="st0" d="M199.4,51.2c-0.3-0.8-0.6-1.2-1.3-1.5c-1.2-0.6-1.7,1.6-1.8,2.3c-1,15.3,3.1,30.1,3.5,45.2
			c0.1,4.4,3.5,4.2,3.6-0.1c0.3-10.3-1.3-20.6-0.9-30.9c0.2-5.1,1.4-14.2-2.6-18.3c-0.8-0.8-1.7-0.4-2,0.6c-1.2,3.6-1.3,7-1.1,10.8
			c0.3,5.1,0.2,10.2,0.5,15.2c0.6,8.9,0.8,18.8,3.4,27.3c0.9,2.8,3.1,1.4,3.2-0.9c0.1-1.8,0-3.3-0.3-5.1c-0.2-1-1.1-1.6-1.4-0.3
			c-0.1,0.7-0.5,1.2-1,1.5l2.7,2.1c-1.2-7.7-2.3-15.4-3-23.2c-0.4-4.2-0.4-8.4-0.5-12.6c-0.1-3.4-0.8-7.1,0.2-10.4l-2.2,1.4
			c1.4,1.4,0.9,5.2,0.9,7c0,2.9-0.2,5.8-0.4,8.7c-0.4,9.1,0.9,18.2,0.9,27.3l3.6-0.1c-0.8-14.9-4.6-29.4-4.2-44.4l-1.8,3.2v-0.2
			c0.6,1.4,1.4,0.8,2.1,0C200.3,54.7,199.8,52.4,199.4,51.2L199.4,51.2L199.4,51.2z"/>
		<path class="st0" d="M200.6,72.3c4.8,1.5,11.5-12.9,16.2-6.9c1.7,2.1,1.7,7,1.9,9.6c0.2,3.5,0,6.9,0,10.4c0.1,5.9,0.2,12,1.2,17.9
			l3.4-4.1c-1.4-3,1.2-17.8-3.2-18.3c-0.4-0.1-0.4,0.8-0.3,1c0.4,3.5-1.2,7.6-1.3,11.2c-0.1,4.2,0.3,8.1,2.1,11.9s3.7-2.4,3.4-4.1
			c-1.5-8-1-16.2-1.4-24.3c-0.2-5.8-0.2-13.8-4.1-18.5c-2.8-3.4-6.3-2-9.3,0.3s-7.3,5.8-9.2,9.2C199.4,68.5,199.2,71.9,200.6,72.3
			L200.6,72.3L200.6,72.3z"/>
		<path class="st0" d="M181.1,62.4c-1.5,9.6-0.4,19.6,0.8,29.2c0.6,5.2-0.9,14.1,3.3,18.1c5.4,5.3,8.9-4.3,7.9-8.5
			c-1.1-4.5-2.9-9.1-4.1-13.6c-1.1-4.2-2.3-8.5-4.3-12.4c-0.3-0.6-0.6,0.4-0.5,0.6c1.3,6.5,1.1,13.3,2.5,19.8
			c0.1,0.5,2.4,7.4,2.4,7.3c-0.9,1-2-0.2-2.3-0.7c-0.6-0.8-0.4-2.7-0.4-3.7c-0.7-11.8-2.5-23.4-2.1-35.3
			C184.5,60,181.8,58.5,181.1,62.4L181.1,62.4L181.1,62.4z"/>
		<path class="st0" d="M154.7,43.5l0.1-1.3l-0.9,1.5l0.1,0l-1.6-2.6c1.2,5.8,0.8,11.9,1.1,17.7c0.4,5.9,0.6,11.6,1,17.5
			c0.3,5.9,0.1,11.9,1,17.8c0.6,3.8,1.9,11.4,6.9,11.8c6,0.4,10.6-9.7,13.1-13.8c0.7-1.2,1.1-9.1-1.6-7.3
			c-2.4,1.6-9.6,11.3-12.2,9.2c-1.1-0.9-0.9-4.3-1.1-5.6c-0.4-3.2-0.6-6.5-0.9-9.8c-0.6-7.4-0.7-14.8-1.1-22.2
			c-0.3-5-1.8-9.9-0.9-14.9c0.2-1.1,0.5-4.3-0.9-4.9c-1.4-0.6-2,1-2.1,2.3l-0.1,1.4c0,0.7-0.1,2.3,0.8,2.7l0.5,0.2
			c-0.1-2.2-0.1-4.5-0.2-6.7c-4.4,3.5-1.7,13.2-1.2,17.8c1.1,10.2,0.8,20.7,1.7,31c0.4,4.7-0.1,12.6,3.7,16.1
			c5.1,4.8,11.6-6.5,15.1-8.8l-1.6-7.3c-1.6,2.7-7.3,14-11.4,12.7c-3.6-1.1-3.3-10.4-3.4-13.3c-0.3-5.8-0.6-11.5-0.9-17.2
			c-0.5-9.4,0.3-20-2.3-29c-1.3-4.6-4.6,2.3-2.1,5c0.3,0.3,0.5,0.6,0.8,0.8C154.4,44.4,154.6,43.7,154.7,43.5L154.7,43.5L154.7,43.5
			z"/>
		<path class="st0" d="M124.8,70.2c0.1-1,0.1-2.5,0.3-3.4l-2.9-0.8c1.7,12.6,6.8,24.5,6.3,37.3l3.5-2c-2.5-6.3-3.8-12.8-5.3-19.4
			c-1.5-6.4-4.1-12.8-4.4-19.3l-3.1,1.9c2.3,6.5,2.7,13.4,3.6,20.2c0.9,6.8,2.5,13.9,4.3,20.6c1,3.8,3.3-0.4,2.9-2.6
			c-0.2-1.1-0.4-1.8-1.1-2.7c-0.1-0.2-0.3-0.1-0.5,0l-0.5,0.5l2.1,3.1c-0.1-7.9-3.1-15.5-4.2-23.3c-0.9-6.6-1.7-13.2-3.9-19.6
			c-1.3-3.6-3.2-0.4-3.1,1.9c0.3,7.1,2.6,13.7,4.2,20.6c1.8,7.4,3,14.9,5.7,22c1.4,3.8,3.5,0.4,3.5-2c0.2-13.5-4.1-27-7.3-40
			c-1-4-3.2,0.6-2.8,2.7c0.2,1.3,0.5,2.3,0.8,3.6c0.2,0.5,0.4,1,1,1.2l0.4,0.1C124.7,70.9,124.8,70.3,124.8,70.2L124.8,70.2
			L124.8,70.2z"/>
		<path class="st0" d="M125.8,74.9c3.8-2.2,12.9-9,16.9-5.1c3.2,3.2,1.1,11.5,1.1,15.7c0.1,5.7,0.7,11.5,1.5,17
			c0.1,0.9,0.8,0.8,0.9,0c1.2-8,1.4-16,1.6-24.1c0.2-5.2,0.3-11.9-3.9-15.8c-3.5-3.3-7.7-1.5-11.2,0.8c-2.9,1.9-7.5,4.1-8.4,7.7
			C124.2,71.8,124.3,75.7,125.8,74.9L125.8,74.9L125.8,74.9z"/>
		<path class="st0" d="M100,73.1c-7-2.3-5,18.3-4.5,21.6c1.4,8.7,11.1,19.9,19.4,10.8c7-7.7,3.8-22.2-1.9-29.8c-2-2.7-5.5-7-9.2-7.2
			c-4.1-0.2-5.7,5.1-5.8,8.3c-0.3,5.3,2.3,11.7,6.7,14.9c6.4,4.8,11.9-0.4,13.6-6.7c0.1-0.4,0.2-2.8-0.8-2.6
			c-3.2,0.8-6.4,3.6-9.8,2.4c-2.2-0.8-8.5-8.3-3.6-8.1c4.6,0.2,8.6,8.1,9.7,11.7c1.3,4.6,1,11.6-5,12.5c-3.8,0.6-7.3-2.8-8.8-6
			c-2.2-4.9-2.4-13.1,0.3-17.8C100.8,76.4,101.3,73.5,100,73.1L100,73.1L100,73.1z"/>
		<path class="st0" d="M88.6,50.8c-1.5-8.5-9.9-14.8-18.4-15.2C60,35,53.6,44.1,50.5,52.7C47,62.4,46.7,73,47.1,83.2
			c0.5,10.4,1.3,21.6,6.6,30.9l2.5-6.8C49,100.2,47,89.9,45.8,80.3c-0.8-5.7-1.1-11.1,0.4-16.8c1.5-6,4.2-11.5,7-16.9l-2.9-5.8
			c-6.9,17.2-9.7,36.5-4.2,54.5c1.3,4.3,3.7,0.3,3.7-2.2c0.1-12.3-1.4-24.5,0.1-36.8c0.2-1.6-1.3-7.6-3.2-3.9
			c-2.5,4.8-2.8,10.2-3,15.5S43,78.5,43,83.7c0.1,9,1.4,22,8.6,28.5c11.2,10.2,40.3-3.4,34.5-19.6c-0.8-2.2-2.1-0.3-2.1,1.2
			c0.2,5-8.7,9.8-12.5,11.6c-7,3.3-17.1,3.7-20.9-4.2c-3.5-7.3-3.8-15.7-3.4-23.6c0.3-6.4-0.8-13.6,2.2-19.5l-3.2-3.9
			c-1.6,12.9-0.1,25.9-0.5,38.9l3.7-2.2c-4.3-15.1-2-30.2,3.7-44.5c0.8-2-0.7-9.9-2.9-5.8C43.6,54,39.9,66.3,41.6,81.2
			c1.3,11.7,4,24.9,12.6,33.5c2.9,2.9,3.3-5.2,2.5-6.8c-4-7.1-4.7-15.4-5.2-23.4c-0.5-8-0.7-15.7,1.3-23.2c2-7.6,6.4-15.8,15-17.1
			c6.1-1,16.2,2.8,17.8,9.4C86.6,57.9,89,53,88.6,50.8L88.6,50.8L88.6,50.8z"/>
	</g>
</g>
</svg>
