<?xml version="1.0" encoding="UTF-8"?>
<svg id="Livello_2" data-name="Livello 2" xmlns="http://www.w3.org/2000/svg" viewBox="0 0 742.82 156.46">
  <defs>
    <style>
      .cls-1 {
        fill: #e2d48d;
      }

      .cls-1, .cls-2, .cls-3, .cls-4 {
        stroke-width: 0px;
      }

      .cls-2 {
        fill: #fff;
      }

      .cls-3 {
        fill: #9e8d8d;
      }

      .cls-4 {
        fill: #fdffb6;
      }
    </style>
  </defs>
  <g id="Livello_1-2" data-name="Livello 1">
    <g>
      <path class="cls-1" d="m714.17,76.08c-.45-2.58-.96-4.92-1.53-7.08,1.33-8.59,2.31-17.45.2-23.79-7.79-23.33-55.26-10.4-74.7-13.32-56.38-8.46-106.35-3.55-163.18-.32-31.17,1.77-60.99-5.73-92.09-2.71-30.98,3.01-63.23,1.47-94.68,3.03-54.74,2.72-106.68,4.51-160.52-5.99-17.69-3.45-79.89-8.15-98.62,8.8-6.61-1.92-16.76-3.31-20.62-.27-5.87,4.62-2.69,26.34-2.99,34.16-.5,12.95-.46,25.33-1.42,38.14-.51,6.8-4.2,31.3.15,37.01,6.9,9.08,60.79,1.25,73.13,1.78,28.42,1.24,56.37,1.51,85.02,1.48,15.19-.02,28.3,5.15,42.94,5.97,16.21.91,31.59-2.09,47.64-.42,31.07,3.23,61.08,6.05,92.39,1.55,29.21-4.19,55.44-2.54,84.79-1.18,35.81,1.66,68.28,1.12,103.65-2.88,61.15-6.91,125.8-6.54,186.25-16.17-9.41-12.4-3.1-42.19-5.81-57.81ZM12.91,33.11l14.79,2.96c-2.03,2.23-3.35,4.8-3.82,7.75-6.02-1.4-11.25-3.48-14.85-6.57.75-2.49,2.17-2.85,3.89-4.15Z"/>
      <path class="cls-4" d="m738.38,13.86c-10.87,1.85-22.42.96-33.44,1.21-12.21.27-24.41.73-36.61,1.25-23.74,1.02-47.47,2.29-71.22,3.04-48.52,1.53-97.08,2.32-145.58,4.43-23.96,1.04-47.93,1.34-71.89.3-24.25-1.06-48.28-1.17-72.56-.88-23.83.28-47.62.58-71.45,1.32-23.69.73-47.4,1.43-71.11.83-26.97-.68-53.59-3.29-80.63-2.35-13.25.46-26.46,1.84-39.72,2.02-6.56.09-13.12-.04-19.68-.2.52-1.5,1.02-3,1.44-4.53,1.02-3.75-5.56-5.35-6.58-1.59-.55,2.01-1.15,3.99-1.75,5.95-4.76-.11-9.53-.21-14.29-.23-4.39-.01-4.4,5.99,0,6,4.15.01,8.29.09,12.44.19-1.35,4.4-2.57,8.81-3.26,13.46-1.49,10.03-2.57,20.1-3.48,30.18-1.77,19.64-4.77,39.37-4.6,59.1.03,3.15,4.58,3.73,6.23,1.74.33.32.75.59,1.21.83,2.96,5.86,22.88,4.3,27.34,4.29,7.38-.03,14.77.23,22.14.1,12.33-.23,24.63-1.24,36.97-1.27,12.68-.03,25.36.72,38.05.68,13.14-.04,26.29-.41,39.42-.92,25.95-1.02,51.86-2.57,77.82-3.38,46.76-1.46,93.56-1.13,140.33-2.03,14.77,1.23,23.87,2.6,24.73,4.1h15.15c0-1.98,6.06-3.96,15.9-5.55,38.07-1.1,76.14-2.26,114.23-2.72,8.92-.11,17.84-.12,26.76-.1,13.09.63,26.18,1.25,39.25,1.94,11.07.59,22.15.98,33.21,1.64,4.93.29,9.88.49,14.79-.15,5.35-.7,10.34-2.87,15.78-2.99.15,0,.28-.03.41-.05,3.3.46,6.44.42,10.31-.05,2.64-.32,5.23-.23,7.81-.07-.07,1.26-.14,2.52-.05,3.79.27,3.46,5.33,3.96,6.71.8.54-1.23,1-2.48,1.42-3.73,1-.25,2-.5,2.98-.81,3.66-1.14,2.83-5.15-.29-5.76-.08-.49-.31-.92-.68-1.25,1.01-5.15,1.58-10.39,2.49-15.56,1.79-10.09,4.36-20.05,5.56-30.22,1.24-10.44,1.71-20.84,4-31.16.6-2.72,1-5.48,1.37-8.25.31-.64.62-1.24.93-1.78v-4.57c.32-1.87.71-3.73,1.21-5.56.49-.35.86-.88,1-1.62.22-1.15.45-2.21.8-3.3.54-.22,1.04-.56,1.44-1.08.18-.14.36-.28.55-.42,2.87-2.07-.32-5.53-3.32-5.01Zm-107.29,76.53c-3.36,3.5-7.33,6.91-10.66,10.65-3.49.55-6.94.95-9.94.95l-7.86,1.38c7.34-5.36,14.13-11.31,20.9-17.27,3.14,1.43,7.07,1.81,10.63,1.14-1.03,1.05-2.06,2.1-3.08,3.16Zm-40.08,15.02l-5.76,1.01,3.53-3.1c.54.8,1.32,1.52,2.23,2.09Zm80.07-20.94c3.38-3.59,6.81-7.13,10.33-10.61-3.39,3.59-6.86,7.12-10.33,10.66v-.05Zm11.2-44.36c.52-.05,1.08-.09,1.68-.12-1.77,1.72-3.5,3.47-5.28,5.11-2.34,2.18-4.68,4.36-7.02,6.54.8-2.09,1.47-3.8,2.12-5.22,2.83-2.1,5.66-4.21,8.49-6.32Zm11.94,54.93c1.5-1.8,3.06-3.56,4.8-5.19.64-.6,1.69-1.51,2.15-1.86.24-.18.44-.3.58-.36.47-.03.92-.09,1.36-.18-.95,3.59-1.74,5.67-1.74,5.67,0,2.98-4.54,3.95-9.06,4.27.63-.79,1.26-1.58,1.9-2.35Zm5.43-7.46c.45.05.9.08,1.34.08-.35,0-.79-.02-1.34-.08Zm1.46.08c.14,0,.28-.02.42-.02-.11.01-.26.02-.42.02Zm.71-.07c.22-.09.24-.05,0,0h0Zm3.5-10.88c-.6-.36-1.28-.61-2.03-.7-2.58-.31-4.93.02-7.09.79,2.33-2.56,4.63-5.12,6.92-7.71,1.08-1.22,2.17-2.43,3.25-3.66-.15,4.08-.54,7.88-1.05,11.27Zm2.85-29.46c.59-.54,1.2-1.04,1.85-1.51.05-.02.09-.04.14-.06l-.34,1.48c-.54-.03-1.09,0-1.66.09Zm-119.44,35.57c2.28-1.53,4.58-3.03,6.88-4.53-4.14,3.88-8.26,7.77-12.55,11.53-6.17,5.42-12.15,10.91-17.06,17.28-1,1.31-1.31,2.59-1.12,3.76-14.95-.04-14.85-4.49,10.29-17.74.82-1.08,1.64-2.09,2.46-3.06,3.73-2.36,7.42-4.77,11.1-7.24Zm-46.02,4.77c-6.39,5.48-14.86,11.07-18.61,18.37-.94,1.83-.82,3.6-.08,5.09-14.47,4.11-14.19-.39,5.71-13.49,4.98-3.83,9.66-7.46,14.03-10.88-.35.3-.69.61-1.04.91Zm-36.14,12.07c-1.14.85-2.26,1.63-3.36,2.37,1.15-1.28,2.3-2.56,3.47-3.81-.11.47-.14.96-.11,1.44Zm-32.38,11.2c-2.43,0-4.47,0-6.14-.02,3.58-2.92,7.14-5.86,10.87-8.63,6.32-4.69,12.73-9.32,19.25-13.82-1.43,1.51-2.84,3.04-4.21,4.6-5.41,6.18-10.71,12.9-17.69,17.83-.68.02-1.37.04-2.07.04Zm128.1,11.56c-.02.21-.01.41.01.62-1.7,0-3.41-.02-5.12-.02,1.69-.2,3.39-.39,5.1-.59Zm57.14-.08c2.59.22,5.17.42,7.77.59-2.47.06-4.94.1-7.4.15-.26,0-.52,0-.78.01.17-.23.31-.48.41-.75Zm-37.81-75.31c1.36-3.5,3.9-5.15,6.71-4.14-2.24,1.38-4.48,2.76-6.71,4.14Zm-41.53,26.59c-2.58,1.74-5.29,3.41-8.05,5.05.49-.45.99-.88,1.48-1.33,6.8-6.2,13.72-12.31,20.57-18.47,1.77-1.59,3.49-3.22,5.26-4.81.9-.81,1.81-1.61,2.73-2.39.95-.81,2.59-1.27.63-.91,4.04-.74,5.38-3.69,4.77-6.45h3.01c0,2.92-10.97,13.56-28.56,28.09-.61.41-1.23.81-1.84,1.22Zm-24.57-15.19c-13.51,9.55-26.63,19.38-39.1,29.93,1.18-1.13,2.35-2.25,3.56-3.37,7.5-6.9,15.12-13.71,22.71-20.54,4.45-4.01,8.87-9.13,13.91-13.16.29-.22.57-.44.85-.66,1.98-1.51,4.05-2.85,6.27-3.87,1.64-.76,2.62-1.82,3.09-2.98,1.82.99,3.01,2.42,3.24,4.29-4.88,3.42-9.69,6.94-14.54,10.36Zm-129.64,45.74c-3.39,2.76-2.34,6.4.36,8.48-4.81-.17-9.62-.26-14.42-.24l16.93-14.87c10.1-8.87,30.29-22.18,40.39-31.05,19.34-17,24.79-21.78,34.09-18.25-26.58,17.79-52.82,35.98-77.35,55.93Zm-11.23-23.75c-6.24,4.34-12.64,8.35-19.01,12.53-5.51,3.63-11.76,8.13-14.02,14.09-.62,1.63-.26,3.26.67,4.59-9.95,3.64-16.74,3.79-14.14-.79,0,0,10.1-8.87,25.24-17.74,15.15-8.87,30.29-22.18,40.39-26.62,6.02-5.29,12.02-8.98,16.97-11.12-11.71,8.71-24.08,16.69-36.11,25.05Zm-344.36-5.06c7.97-7,14.43-12.68,19.85-17.17-1.07,1-2.15,1.99-3.25,2.96-5.41,4.81-10.53,9.39-15.12,14.85-2.32,2.76-4.57,5.54-7,8.19-2.86,2.4-5.7,4.81-8.59,7.19-5.35,4.41-11.13,8.38-15.83,13.28,4.7-6.52,14.85-16.06,29.93-29.31Zm129.21-29.75c-19.68,16.62-36.52,35.91-58.47,50.26-3.49,2.28-3.53,6.02-1.82,8.62-10.3,6.03-18.43,10.8-18.43,10.8-10.1,0,10.1-17.74,35.34-31.05,10.1-8.87,20.19-17.74,25.24-26.62,2.72-7.18,6.93-10.48,18.14-12Zm15.06,9.78c-1.7-.56-4.32-.6-7.53.05,4.43-3.72,9.02-7.29,13.83-10.64.55-.06,1.1-.19,1.65-.4,1.83-.02,3.77-.04,5.77-.05-4.67,3.59-9.17,7.35-13.73,11.05Zm-51.02,45.62c.62,2.78,3.52,4.73,6.61,4.81-3.75,1.26-6.83,1.54-8.99.59-2.37,0-1.4-1.95,2.37-5.4Zm15.23-2.76c.15-.16.3-.31.42-.42,1.05-.9,2.16-1.74,3.28-2.57,2.94-2.18,5.87-4.35,8.79-6.55,7.83-5.9,15.76-11.7,23.64-17.54,7.49-5.55,14.45-11.56,21.74-17.31,2.93-2.31,5.93-4.54,9.01-6.69.93-.64,2.61-2.02,4.05-2.87h6.72c-.55.43-1.1.86-1.65,1.28-7.26,1.67-18.58,8.21-27.97,16.46-16.7,17.61-35.6,33.26-49.41,40.57,1.21-1.3,1.59-2.86,1.38-4.37Zm18.31,7.45c.29.04.59.06.9.07-.25.34-.45.68-.6,1.02-.34-.08-.65-.19-.87-.38,0,0,.19-.25.57-.71Zm143.62-64.38c.05-.48.01-.95-.08-1.42.62-.03,1.38-.03,2.31-.03.06,0,.12,0,.18,0-.82.46-1.62.94-2.41,1.44Zm-20.38,1.05c-1.09.79-2.17,1.59-3.24,2.39-1.73-2.58-5.31-4.15-9.07-2.15-3.28,1.75-6.58,3.46-9.89,5.17,1.63-2.28,6.46-7.92,14.52-7.92,5.98-1.31,8.39-.28,7.68,2.5Zm-260.11,1.93h9.74c-4.25,3.87-8.58,7.67-13.07,11.32-4.11,3.35-8.42,6.53-12.24,10.14-.35.33-.69.68-1.02,1.02.81-2.93,1.44-6.06,1.44-9.18q0-8.87,15.15-13.31Zm77.76,33.85c10.42-8.91,20.52-18.75,32.26-26.47-.12,3.98-10.71,12.97-39.34,32.55-6.94,6.1-12.81,10.78-18.05,14.46,8.39-6.82,16.92-13.51,25.13-20.53Zm107.74,12.87c2.09-1.25,4.19-2.51,6.27-3.79,13.57-8.32,27.63-15.77,41.77-23.16-4.2,3.69-8.38,7.41-12.61,11.09-.79.69-1.6,1.37-2.4,2.06-3.64,2.29-7.49,4.63-11.54,7-15.15,8.87-30.29,17.74-30.29,22.18s-5.05,8.87-10.1,8.87c-8.52,0-6.26-6.31,18.89-24.26Zm60.77-7.71c1.46-1.21,2.93-2.4,4.41-3.59-1.28,1.37-2.56,2.75-3.83,4.13-1.8,1.15-3.61,2.3-5.41,3.45,1.61-1.33,3.23-2.66,4.83-3.99Zm13.82,5.11c14.93-9.46,34.3-23.3,42.83-30.8,10.1-8.87,20.19-13.31,20.19-13.31,5.05,0-5.05,8.87-15.15,17.74-17.91,13.11-44.64,30.88-62.46,42.29,4.85-5.31,9.66-10.66,14.58-15.92Zm11.92,25.5c1.81,1.06,4.15,1.21,6.54-.33,7.66-4.95,15-10.25,22.3-15.6-6.34,5.16-12.52,10.47-18.23,16.21-4.98,2.39-9.08,3.11-14.02,2.44,1.13-.92,2.27-1.82,3.41-2.72Zm-268.77-8.7c.14-.1.29-.19.43-.29-.59,1.16.03,1.48,1.38,1.48,1.59,1.4,3.18,1.91,6.18.72,1.4,1.74,3.77,2.7,6.82,1.72.33-.11.67-.22,1.01-.32,1.81-.58,3.05-1.6,3.79-2.81,2.01-1.58,4.54-3.02,6.82-4.37-4.38,3.83-8.65,7.76-12.74,11.88-3.63.66-7.53,1.29-11.88,2.06-6.75.74-12.23,1.11-16.49,1.04,5.59-2.48,9.97-7.93,14.67-11.11Zm165.15,22.23c-4.39.31-8.83.17-13.27-.18,4.41.06,8.83.12,13.27.18Zm488.53-24.64c.07.16.14.31.24.45-.33,6.65-2.29,13.31-4.36,19.65-.06.17-.08.33-.1.49-.02.02-.04.04-.06.07-.38-.03-.76-.07-1.14-.1.67-2.41,2.8-10.09,5.42-20.55Zm-88.07-78.77c-7.34.59-15.11,1.16-23.19,1.72-1.2-.18-2.45-.13-3.62.24-18.55,1.24-38.41,2.35-57.56,3.21-.42-.86-1.03-1.63-1.76-2.24,13.18-.41,26.35-.82,39.53-1.2,15.54-.45,31.08-1.07,46.61-1.74Zm-94.2,3.19c-1.29.85-2.57,1.7-3.86,2.56-19.3.75-37.31,1.2-51.75,1.2-12.42,0-26.68-.27-41.8-.67,32.47-.97,64.94-2.06,97.41-3.09ZM18.75,47.94c.33-2.41.65-4.84,1.06-7.24v3.61c0,13.12-2.46,30.56-5.55,45.93.5-4.68.99-9.37,1.4-14.05.83-9.43,1.79-18.86,3.09-28.26Zm118.72,85.76c-13.79.06-27.57-.82-41.35-.66-13.42.15-26.79,1.34-40.22,1.3-4.66-.01-9.33-.05-14-.09,8.13-1.46,17.38-3.27,25.94-5.12,12.01,1.81,24.3,1.92,36.46,1.82,15.32-.12,30.66-.27,45.98-.6,16.25-.36,32.52-.61,48.69,1.15,1.01.11,2.03.22,3.04.34-21.51.95-43.02,1.76-64.54,1.86Zm148.96-5.06c-14.72.25-29.43.77-44.14,1.4.34-.75.31-1.6-.01-2.35,14.97.26,29.92.58,44.44.95-.09,0-.19,0-.28,0Zm411.18-4.53c-.78-.01-1.51-.09-2.21-.22-.4-.19-.87-.31-1.42-.33-1.55-.41-3.03-.96-4.7-1.35-.6-.14-1.19-.23-1.78-.3.18-.19.35-.39.51-.62.8-1.21.57-2.36-.2-3.19,5.42.7,10.16,3.21,13.22,5.79-1.14.14-2.28.24-3.42.22Zm22.22-26.99c-.54.11-1.05.31-1.46.63,1.03-4.21,2.11-8.76,3.19-13.51.61-2.16,1.23-4.38,1.84-6.63-.9,6.55-2.26,13.02-3.57,19.51Z"/>
      <g>
        <path class="cls-3" d="m716.33,17.24c.27-.18.52-.37.76-.58,1.58-1.45,2.43-3.54,2.89-5.63.19-.88.33-1.78.3-2.68-.12-3.27-2.53-6.2-5.56-7.45-3.03-1.24-6.53-.97-9.59.21-1.46.56-2.87,1.34-3.9,2.51-.93,1.05-1.48,2.34-1.84,3.7-1.31-.29-2.63-.55-3.94-.77-13.21-2.28-26.76-2.53-40.04-.76-4.12.55-8.36,1.14-12.51,2.07-.25-1.24-.67-2.42-1.42-3.44-.92-1.26-2.25-2.16-3.65-2.86-2.94-1.45-6.4-2.04-9.53-1.08-3.13.96-5.8,3.66-6.22,6.91-.11.9-.06,1.8.05,2.7.27,2.13.92,4.28,2.36,5.87.05.05.1.1.15.15-6.34,5.55-9.47,13.66-11.56,21.64-4.04,15.42-6.55,34.54-2.19,50.18,1.73,6.23,6,11.21,10.76,15.41,1.23,1.09,14.52,11.01,14.4,11.22-3.16,5.34-5.73,11.03-7.66,16.93h74.18c-1.18-5.59-3.54-10.93-6.95-15.51,14.05-5.4,25.29-17.65,29.47-32.12,2.04-7.09,2.46-14.54,2.48-21.91.04-13.25-1.28-26.9-7.39-38.66-1.1-2.11-2.36-4.16-3.83-6.03Z"/>
        <path class="cls-2" d="m646.57,33.56c4.07-4.21,9.93-6.25,15.72-7.08,7.4-1.05,15.15-.3,21.92,2.85,6.78,3.15,12.5,8.8,15.06,15.82,1.42,3.9,1.86,8.1,1.99,12.25.15,4.92-.13,9.95-1.94,14.52-2.99,7.58-9.92,13.09-17.48,16.13-8.85,3.56-19.16,4.07-27.85.11-8.73-3.97-17.33-14.62-17.54-24.57-.19-9.18,3.73-23.43,10.12-30.04Z"/>
        <path class="cls-3" d="m669.6,41.15c2.22-1.22,4.09-3.69,4.25-6.05.12-1.77-1.3-3.34-2.95-4-1.65-.65-3.48-.59-5.25-.51-2.07.09-4.64.56-5.19,2.55-.36,1.3.38,2.63,1.09,3.78l1.8,2.91c1.54,2.5,4.06,2.5,6.24,1.3Z"/>
        <path class="cls-3" d="m666.18,79.68s-.08,0-.11,0c-.44-.06-.74-.47-.68-.91,1.75-12.27,2.06-24.75.91-37.1-.04-.44.28-.83.72-.87.44-.04.83.28.87.72,1.16,12.47.85,25.08-.92,37.47-.06.4-.4.69-.79.69Z"/>
        <path class="cls-3" d="m667.71,80.69c-1.75,0-3.55-.58-5.06-1.69-2.04-1.5-3.55-3.91-4.24-6.78-.1-.43.16-.86.59-.96.43-.11.86.16.96.59.6,2.5,1.89,4.59,3.63,5.87,1.93,1.42,4.44,1.78,6.39.91,2.05-.91,3.3-3.28,2.78-5.27-.11-.43.15-.86.57-.98.42-.11.86.14.98.57.72,2.77-.9,5.9-3.68,7.14-.91.4-1.91.6-2.93.6Z"/>
        <path class="cls-2" d="m646.61,29.1c-.85,0-1.68-.24-2.37-.7-1.6-1.06-2.49-3.19-2.21-5.31.06-.44.46-.75.9-.69.44.06.75.46.69.9-.2,1.52.4,3.03,1.51,3.76.57.38,1.35.52,2.07.37.62-.12,1.12-.44,1.42-.89.48-.73.5-1.74.48-2.89,0-.44.34-.81.79-.81.46.02.81.34.81.79.02,1.1.05,2.6-.75,3.8-.53.81-1.4,1.37-2.43,1.58-.3.06-.6.09-.9.09Z"/>
        <path class="cls-2" d="m689.64,28.16c-1.02,0-2.06-.41-2.83-1.15-.97-.95-1.48-2.38-1.35-3.83.04-.44.42-.76.87-.73.44.04.76.43.73.87-.09.96.25,1.94.87,2.54.64.62,1.62.86,2.39.58.49-.18.91-.6,1.14-1.16.23-.56.23-1.15,0-1.62-.19-.4-.02-.88.38-1.07.4-.19.88-.02,1.07.38.42.88.43,1.94.03,2.92-.4.97-1.15,1.72-2.07,2.05-.39.14-.81.21-1.22.21Z"/>
        <path class="cls-2" d="m628.8,13.93c-.34.02-.94-.22-1.35-.67-.69-.76-1.14-2-1.36-3.68-.09-.72-.11-1.26-.05-1.69.19-1.53,1.64-3.04,3.43-3.59.46-.14.96-.23,1.48-.27,1.6-.12,3.41.28,5.1,1.12,1.04.51,1.78,1.06,2.19,1.63.5.68.74,1.67.87,2.79l-10.25,4.37h-.07Z"/>
        <path class="cls-2" d="m712.92,14.24l-9.82-5.29c.23-1.1.57-2.06,1.13-2.7.47-.53,1.25-1.01,2.33-1.42,1.76-.68,3.6-.91,5.18-.65.51.08,1,.22,1.45.41,1.73.71,3.03,2.35,3.08,3.89.02.44-.05.97-.21,1.68-.37,1.66-.93,2.85-1.69,3.54-.45.41-1.07.6-1.41.55,0,0-.04,0-.06-.01Z"/>
      </g>
    </g>
  </g>
</svg>