<?xml version="1.0" encoding="UTF-8"?>
<svg id="Livello_2" data-name="Livello 2" xmlns="http://www.w3.org/2000/svg" viewBox="0 0 763.94 157.71">
  <defs>
    <style>
      .cls-1 {
        fill: #d9edf8;
      }

      .cls-1, .cls-2, .cls-3, .cls-4 {
        stroke-width: 0px;
      }

      .cls-2 {
        fill: #a1c6d6;
      }

      .cls-3 {
        fill: #fff;
      }

      .cls-4 {
        fill: #9e8d8d;
      }
    </style>
  </defs>
  <g id="Livello_1-2" data-name="Livello 1">
    <g>
      <path class="cls-2" d="m32.76,15.51c34.19,1.09,71.92-2.73,107.31-4.44,50.75-2.45,101.95-6.53,152.77-4.44,49.03,2.02,98.89,10.24,148.17,8.87,53.24-1.48,107.41-5.01,160.67-7.39,24.89-1.11,50.31,1.77,75.36,2.97,20.55.99,44.29,4.32,64.13,3.09,1.3,24.27-.3,50.47-8.69,73.1-3.61,9.75-10.46,19.89-12.55,30.31-2.21,10.99.08,22.55-2.39,33.44-24.39,10.23-47.04,1.99-71.91,2.14-35.72.21-73.21,2.56-109.29,4.36-33.25,1.66-65.67-8.67-98.94-7.39-30.19,1.16-60.42,1.48-91.13,1.48-65.66,0-132.3-3.6-196.58.04-29.22,1.66-58.64,4.11-87.41,4.1-16.04,0-54.16,2.73-60.61-11.95-4.52-10.3,1.47-31.14,2.97-41.7,2.06-14.43,5.25-29.17,6.01-43.73.49-9.39-2.07-26.29,4.21-33.77.15-.18,18.67-9,19.37-9.21,6.83-2,12.75-4.54,14.8,4.55"/>
      <path class="cls-1" d="m763.38,74.17c-1.21-20.52.11-41.03-.73-61.56-.06-1.47-.55-2.66-1.3-3.58.05-.06.11-.11.16-.18.18-.14.36-.28.55-.42,2.87-2.07-.32-5.53-3.32-5.01-10.87,1.85-22.42.96-33.44,1.21-12.21.27-24.41.73-36.61,1.25-23.74,1.02-47.47,2.29-71.22,3.04-13.72.43-27.45.81-41.17,1.17-1.8-.09-3.61-.17-5.41-.21-12.26-.27-24.4-1.59-36.64-2.01-11.85-.41-23.7,1.39-35.55,1.66-12.39.28-24.78-.08-37.16-.62-12.17-.53-24.48-.74-36.62-1.89-11.82-1.12-23.24-3.01-35.16-2.72-24.55.61-48.97-1.38-73.55-.66-50.5,1.48-101.07.13-151.58-.16-24.3-.14-48.66.49-72.89-1.74C80.46.69,69.15-.19,57.83.03c-5.21.1-10.41.46-15.58,1.14-4.12.54-8.38.96-11.98,3.22-3.78,2.38-6.25,5.8-7.83,9.77-2.14.69-2.61,3.16-1.42,4.65-2.11,9.26-.89,20.26-.42,28.29.67,11.42.35,22.91.43,34.34.1,14.3.15,28.6-.16,42.9-.15,6.83,9.7,7.97,11.73,1.74,4.01,5.13,22.64,3.69,26.95,3.67,7.38-.03,14.77.23,22.14.1,12.33-.23,24.63-1.24,36.97-1.27,12.68-.03,25.36.72,38.05.68,13.14-.04,26.29-.41,39.42-.92,19.01-.75,38.01-1.78,57.02-2.6.96,1.16,2.44,1.9,4.45,1.82,13.56-.59,27.11,1.14,40.66.06,11.32-.91,22.62-2.28,33.89-3.76,27.38-.29,54.77-.4,82.14-.93,14.77,1.23,23.87,2.6,24.73,4.1h15.15c0-1.57,3.82-3.14,10.31-4.52,11.83,1.04,23.67,2.09,35.52,2.88,26.89,1.81,53.82,1.23,80.75,1.59,15.36.2,30.81,1.4,46.1-.49.6-.07,1.21-.16,1.81-.24,14.07,2.89,28.25,4.4,42.29-.52.11-.04.21-.09.31-.13,1.64.01,3.28,0,4.9-.06,10.35-.41,20.68-1.18,31.04-1.35,8.72-.14,17,.51,25.41-1.36.38,3.35,5.33,3.81,6.69.68.44-1.01.82-2.02,1.17-3.05,2.11-.69,4.25-1.29,6.44-1.45,2.47-.19,4.92.16,7.33-.62,6.95-2.24,8.17-10.94,8.98-17.14,1.18-9,.7-18.08.17-27.1Zm-565.63,18.01c1.21-1.3,1.59-2.86,1.38-4.37.15-.16.3-.31.42-.42,1.05-.9,2.16-1.74,3.28-2.57,2.94-2.18,5.88-4.35,8.79-6.55,7.83-5.9,15.76-11.7,23.64-17.54,7.49-5.55,14.45-11.56,21.74-17.31,2.93-2.31,5.93-4.54,9.01-6.69.93-.64,2.61-2.02,4.05-2.87h6.72c-.55.43-1.1.86-1.65,1.28-7.26,1.67-18.58,8.21-27.97,16.46-16.7,17.61-35.6,33.26-49.41,40.57Zm20.58,3.15c-.25.34-.45.68-.6,1.02-.34-.08-.65-.19-.87-.38,0,0,.19-.25.57-.71.29.04.59.06.9.07Zm-56.94-9.91c-3.49,2.28-3.53,6.02-1.82,8.62-10.3,6.03-18.43,10.8-18.43,10.8-10.1,0,10.1-17.74,35.34-31.05,10.1-8.87,20.19-17.74,25.24-26.62,2.72-7.18,6.93-10.48,18.14-12-19.68,16.62-36.52,35.91-58.47,50.26Zm29.12,9.96c-3.75,1.26-6.83,1.54-8.99.59-2.37,0-1.4-1.95,2.37-5.4.62,2.78,3.52,4.73,6.61,4.81Zm-100.22-61.51c-4.25,3.87-8.58,7.67-13.07,11.32-4.11,3.35-8.42,6.53-12.24,10.14-.35.33-.69.68-1.02,1.02.81-2.93,1.44-6.06,1.44-9.18q0-8.87,15.15-13.31h9.74Zm532.78,6.45c4.04-.74,5.38-3.69,4.77-6.45h3.01c0,2.92-10.97,13.56-28.56,28.09-.61.41-1.23.81-1.84,1.22-2.58,1.74-5.29,3.41-8.05,5.05.49-.45.99-.88,1.48-1.33,6.8-6.2,13.72-12.31,20.57-18.47,1.77-1.59,3.49-3.22,5.26-4.81.9-.81,1.81-1.61,2.73-2.39.95-.81,2.59-1.27.63-.91Zm-37.84,60.09c-14.95-.04-14.85-4.49,10.29-17.74.82-1.08,1.64-2.09,2.46-3.06,3.73-2.36,7.42-4.77,11.1-7.24,2.28-1.53,4.58-3.03,6.88-4.53-4.14,3.88-8.26,7.77-12.55,11.53-6.17,5.42-12.15,10.91-17.05,17.28-1,1.31-1.31,2.59-1.12,3.76Zm-40.86.19c-14.47,4.11-14.19-.39,5.71-13.49,4.98-3.83,9.66-7.46,14.03-10.88-.35.3-.69.61-1.04.91-6.39,5.48-14.86,11.07-18.61,18.37-.94,1.83-.82,3.6-.08,5.09Zm-7.59-22.68c1.18-1.13,2.35-2.25,3.56-3.37,7.5-6.9,15.12-13.71,22.71-20.54,4.45-4.01,8.87-9.13,13.91-13.16.29-.22.57-.44.85-.66,1.98-1.51,4.05-2.85,6.27-3.87,1.64-.76,2.62-1.82,3.09-2.98,1.82.99,3.01,2.42,3.24,4.29-4.88,3.42-9.69,6.94-14.54,10.36-13.51,9.55-26.63,19.38-39.1,29.93Zm68.83,18.06l3.53-3.1c.54.8,1.32,1.52,2.23,2.09l-5.76,1.01Zm-89.04-75.58c2.77-.17,5.54-.34,8.31-.49,3.61-.2,7.22-.15,10.82,0-6.67.21-13.08.37-19.13.48Zm-69.97,81.82c-1.62-.06-3.25-.09-4.87-.13.03-.02.06-.04.1-.07,1.13-.2,1.77-.85,2.03-1.65.26-.16.52-.32.78-.48.44.88,1.12,1.68,1.96,2.33Zm-51.56,1.21c13.41-18.5,34.31-30.83,51.46-45.43,2.6-2.21,22.21-18.15,30.52-20.51-.22,2.33-1.81,4.65-4.75,4.96,1.55-.16-1.4.5-1.43.52-.67.25-2.13,1.01-3.05,1.51-2.91,1.57-5.69,3.36-8.43,5.21-7,4.74-13.67,9.96-20.14,15.4-.49.41-.96.83-1.45,1.24,6.18-4.41,11.79-8.25,16.37-10.26,6.02-5.29,12.02-8.98,16.97-11.12-11.71,8.71-24.08,16.69-36.11,25.05-1.98,1.38-3.99,2.72-6,4.05-1.33,1.22-2.64,2.47-3.94,3.72-10.79,6.59-22.51,13.59-27.74,25.14-.81.21-1.56.39-2.29.53Zm-68.22-30.55c1.46-1.21,2.93-2.4,4.41-3.59-1.28,1.37-2.56,2.75-3.83,4.13-1.8,1.15-3.61,2.3-5.41,3.45,1.61-1.33,3.23-2.66,4.83-3.99Zm-8.35-35.52c1.63-2.28,6.46-7.92,14.52-7.92,5.98-1.31,8.39-.28,7.68,2.5-1.09.79-2.17,1.59-3.24,2.39-1.73-2.58-5.31-4.15-9.07-2.15-3.28,1.75-6.58,3.46-9.89,5.17Zm22.17,40.63c9.95-6.3,21.86-14.55,31.24-21.57,3.09-2.51,6.24-4.95,9.41-7.37.79-.65,1.52-1.28,2.19-1.86,4.38-3.85,8.75-6.86,12.3-9.03,5.26-3.99,10.41-8.02,15.29-12.25,1.83-1.59,3.98-1.57,5.69-.7-13.63,7.56-25.48,18.31-36.72,28.97-7.8,7.4-15.83,14.53-23.87,21.66-3.89,3.45-7.84,6.84-11.46,10.57-.97,1-1.93,2-2.89,2.98.11-.26.23-.52.39-.78,2.01-3.34,4.23-6.51,6.61-9.54-8.21,5.45-16.09,10.6-22.74,14.85,4.85-5.31,9.66-10.66,14.58-15.92Zm20.33-48.52c.62-.03,1.38-.03,2.31-.03.06,0,.12,0,.18,0-.82.46-1.62.94-2.41,1.44.05-.48.01-.95-.08-1.42Zm111.3,2.98c.19-.02.38-.03.55-.03-10.37,3.79-23.12,15.1-27.17,18.46-11.64,9.67-24.83,18.68-36.6,28.95,1.15-1.25,2.31-2.44,3.38-3.57,6.42-6.77,13.43-13.01,20.59-18.98,7.2-6.01,14.63-11.82,22.45-17.01,5.02-3.33,10.66-7.18,16.8-7.83Zm-84.11,70.38c-.32-.57-.24-1.36.36-2.41,0,0,1.2-1.05,3.36-2.77-1.3,1.68-2.54,3.41-3.72,5.19Zm-43.79-7.38c4.08-3.77,7.8-8.04,11.87-11.67,2.28-2.03,4.57-4.06,6.85-6.08-2.26,2.27-4.51,4.53-6.76,6.8-3.72,3.75-7.37,7.62-11.22,11.26-.25-.08-.5-.18-.74-.3Zm8.19,8.04c1.81,1.06,4.15,1.21,6.54-.33,7.66-4.95,15-10.25,22.3-15.6-6.34,5.16-12.52,10.47-18.23,16.21-4.98,2.39-9.08,3.11-14.02,2.44,1.13-.92,2.27-1.82,3.41-2.72Zm58.66-8.88c-.57,1.58-1.71,2.49-3.03,2.84.96-.99,1.97-1.94,3.03-2.84Zm25.32,3.53c-1.03,1.19-.74,2.81.17,3.88-1.52-.01-3.03-.04-4.55-.03l4.38-3.84Zm62.72-6.37c6.32-4.69,12.73-9.32,19.25-13.82-1.43,1.51-2.84,3.04-4.21,4.6-5.41,6.18-10.71,12.9-17.69,17.83-.69.02-1.37.04-2.08.04-2.43,0-4.47,0-6.14-.02,3.58-2.92,7.14-5.86,10.87-8.63Zm-44.08-5.17c-5.55,3.42-11.28,6.55-16.74,10.14-.28.12-.54.27-.8.45l11.46-10.07c10.1-8.87,30.29-22.18,40.39-31.05,19.34-17,24.79-21.78,34.09-18.25-23.38,15.64-46.48,31.6-68.4,48.79Zm71.84,1.19c-.11.47-.14.96-.11,1.44-1.14.85-2.26,1.63-3.36,2.37,1.15-1.28,2.3-2.56,3.47-3.81Zm-225.54-23.04c-.79.69-1.6,1.37-2.4,2.06-3.64,2.29-7.49,4.63-11.54,7-13.58,7.96-27.15,15.91-29.81,20.67-4.6,2.09-9.3,3.97-14.11,5.54,2.34-3.78,9.22-9.99,22.43-19.42,2.09-1.25,4.19-2.51,6.27-3.79,13.57-8.32,27.63-15.77,41.77-23.16-4.2,3.69-8.38,7.41-12.61,11.09Zm-52.84-30.83c-4.67,3.59-9.17,7.35-13.73,11.05-1.7-.56-4.32-.6-7.53.05,4.43-3.72,9.02-7.29,13.83-10.64.55-.06,1.1-.19,1.65-.4,1.83-.02,3.77-.04,5.77-.05Zm-90.33,33.81c10.42-8.91,20.52-18.75,32.26-26.47-.12,3.98-10.71,12.97-39.34,32.55-6.94,6.1-12.81,10.78-18.05,14.46,8.39-6.82,16.92-13.51,25.13-20.53Zm91.7,36.41c.94-.35,1.87-.71,2.8-1.08-.86.57-1.8,1.03-2.79,1.34,0-.09,0-.17,0-.26Zm471.51-26.59c.24-.18.44-.3.58-.36.47-.03.92-.09,1.36-.18-.95,3.59-1.74,5.67-1.74,5.67,0,2.98-4.54,3.95-9.06,4.27.63-.79,1.26-1.58,1.9-2.35,1.5-1.8,3.06-3.56,4.8-5.19.64-.6,1.69-1.51,2.15-1.86Zm-4.97-11.18c2.33-2.56,4.63-5.12,6.92-7.71,1.08-1.22,2.17-2.43,3.25-3.66-.15,4.08-.54,7.88-1.05,11.27-.6-.36-1.28-.61-2.03-.7-2.58-.31-4.93.02-7.09.79Zm-36.76,45.53c2.59.22,5.17.42,7.77.59-2.47.06-4.94.1-7.4.15-.26,0-.52,0-.78.01.17-.23.31-.48.41-.75Zm29.85-.12c-.6-.14-1.19-.23-1.78-.3.18-.19.35-.39.51-.62.8-1.21.57-2.36-.2-3.19,4.6.6,8.7,2.49,11.71,4.63-.4,0-.8,0-1.21,0-2.47-.07-4.94-.09-7.41-.07-.53-.15-1.06-.3-1.62-.43Zm23.2-1.69c1.01-3.68,2.68-9.92,4.63-17.7.07.16.14.31.24.45-.29,5.68-1.76,11.37-3.47,16.86-.47.13-.94.27-1.41.4Zm17.92-43.88c.04-.37.08-.73.12-1.1.29,5.45.79,10.98,1.07,16.5-1.23-.42-2.57-.5-3.78-.16,1.02-5.05,1.98-10.12,2.58-15.23Zm-7,.97c-.9,6.55-2.26,13.02-3.57,19.51-.54.11-1.05.31-1.46.63,1.03-4.21,2.11-8.76,3.19-13.51.61-2.16,1.23-4.38,1.84-6.63Zm-13.4-31.87s.09-.04.14-.06l-.34,1.48c-.54-.03-1.09,0-1.66.09.59-.54,1.2-1.04,1.85-1.51Zm.5,4.63c-2.8,2.03-5.25,4.73-7.36,7.15-4.41,5.05-8.12,10.65-12.44,15.77-4.56,5.41-8.84,11.09-13.12,16.78-7.56,8.52-14.92,17.21-21.92,26.2-.27.26-.53.53-.8.79-.4.39-.65.81-.78,1.23-.26.34-.53.67-.79,1.01-1.11,1.46-2.62,2.08-4.11,2.1-.55-.64-1.23-1.15-2.02-1.48,7.79-10.49,17.55-19.4,26.17-29.19,10.91-12.38,20.78-25.63,32.24-37.53,2.32-2.41-.55-5.91-3.1-5,2.75-2.75,6.89-.96,8.03,2.15Zm-36.72-3.95c2.83-2.1,5.66-4.21,8.49-6.32.52-.05,1.08-.09,1.68-.12-1.77,1.72-3.5,3.47-5.28,5.11-2.34,2.18-4.68,4.36-7.02,6.54.8-2.09,1.47-3.8,2.12-5.22Zm15.58,15.94c-7.18,8.48-14.07,17.21-21.48,25.5-5.07,5.68-10.46,11.1-15.61,16.72,11.77-14.58,24.37-28.45,37.08-42.22Zm-55.2,24.88c-1.03,1.05-2.06,2.1-3.08,3.16-3.35,3.5-7.33,6.91-10.66,10.65-3.49.55-6.94.95-9.94.95l-7.86,1.38c7.34-5.36,14.13-11.31,20.9-17.27,3.14,1.43,7.07,1.81,10.63,1.14Zm-12.54-40.21c1.36-3.5,3.9-5.15,6.71-4.14-2.24,1.38-4.48,2.76-6.71,4.14Zm7.42-22.98c-7.34.59-15.11,1.16-23.19,1.72-1.2-.18-2.45-.13-3.62.24-4.15.28-8.37.55-12.62.81-.28-.44-.57-.85-.87-1.23,13.44-.43,26.87-.96,40.3-1.54ZM40.17,33.87c0,4.9-.34,10.4-.93,16.18.13-5.56.24-11.12.45-16.68.15-1.04.3-2.07.48-3.11v3.61Zm4.68-19.5c.18-.53.36-1.05.53-1.58,3.55-.4,7.12-.6,10.68-.71,10.74-.32,21.49.39,32.19,1.34-7.9.51-15.8,1.05-23.72,1.15-6.56.09-13.12-.04-19.68-.2Zm45.8,50.56c7.97-7,14.43-12.68,19.85-17.17-1.07,1-2.15,1.99-3.25,2.96-5.41,4.81-10.53,9.39-15.12,14.85-2.32,2.76-4.57,5.54-7,8.19-2.86,2.4-5.7,4.81-8.59,7.19-5.35,4.41-11.13,8.38-15.83,13.28,4.7-6.52,14.85-16.06,29.93-29.31Zm-5.05,31.05c1.59,1.4,3.18,1.91,6.18.72,1.4,1.74,3.77,2.7,6.82,1.72.33-.11.67-.22,1.01-.32,1.81-.58,3.05-1.6,3.79-2.81,2.01-1.58,4.54-3.02,6.82-4.37-4.38,3.83-8.65,7.76-12.74,11.88-3.63.66-7.53,1.29-11.88,2.06-6.75.74-12.23,1.11-16.49,1.04,5.59-2.48,9.98-7.93,14.67-11.11.14-.1.29-.19.43-.29-.59,1.16.03,1.48,1.38,1.48Zm72.23,27.28c-13.79.06-27.57-.82-41.35-.66-13.42.15-26.79,1.34-40.22,1.3-4.66-.01-9.33-.05-14-.09,8.13-1.46,17.38-3.27,25.94-5.12,12.01,1.81,24.3,1.92,36.46,1.82,15.32-.12,30.66-.27,45.98-.6,16.25-.36,32.52-.61,48.69,1.15,1.01.11,2.03.22,3.04.34-21.51.95-43.02,1.76-64.54,1.86Zm77.84-6.42c4.41.06,8.83.12,13.27.18-4.39.31-8.83.17-13.27-.18Z"/>
      <g>
        <path class="cls-4" d="m731.59,44.9c-2.37,3.34-4.94,6.84-8.73,8.38-2.72,1.1-5.75,1.05-8.68.99-22.45-.51-44.89-1.02-67.34-1.53-3.51-.08-7.06-.16-10.45-1.06-4.09-1.09-7.86-3.37-10.72-6.49-2.83-3.1-5.47-7.36-9.66-7.42-1.02-.01-1.94,25.37-2.42,28.85-1.57,11.47-.91,23.21,2.03,34.41,1.19,4.51,2.76,8.98,5.29,12.9,3.61,5.58,9.04,9.59,15.08,12.41h87.22c.65-.24,1.31-.47,1.96-.73,8.15-3.34,13.28-11.3,16.35-19.24,9.15-23.66,8.84-50.84-.83-74.29-3.03,4.28-6.07,8.55-9.1,12.83Z"/>
        <path class="cls-3" d="m620.04,57.94s0,.04,0,.06c.03-.55,6.17-2.21,6.87-2.21-1.95-2.08-4.03-4.06-6.04-6.08-.37,4.14-.9,5.13-.82,8.22Z"/>
        <path class="cls-3" d="m732.83,53.11c2.06-1.78,3.82-3.87,6.03-5.53.77,2.56,1.06,5.26.87,7.93-.11,1.53-6.63-1.21-7.18-2.16.09-.08.18-.16.28-.24Z"/>
        <g>
          <path class="cls-3" d="m662.15,99.5c-.13,0-.27-.03-.4-.09-2.72-1.29-5.6-2.23-8.56-2.8-.5-.1-.83-.58-.73-1.08.1-.5.58-.83,1.08-.73,3.11.6,6.14,1.59,9,2.94.46.22.66.77.44,1.23-.16.33-.49.53-.84.53Z"/>
          <path class="cls-3" d="m651.92,106.37c-.38,0-.73-.23-.87-.61-.17-.48.08-1.01.56-1.19,2.92-1.05,5.95-1.79,9.03-2.19.51-.07.97.29,1.04.8.07.51-.29.97-.8,1.04-2.94.38-5.84,1.08-8.63,2.09-.1.04-.21.06-.31.06Z"/>
          <path class="cls-3" d="m650.78,114.33c-.28,0-.56-.13-.75-.38-.3-.41-.22-.99.2-1.3,3.94-2.9,8.8-4.7,13.69-5.06.51-.03.95.35.99.86.04.51-.35.95-.86.99-4.54.33-9.06,2.01-12.72,4.71-.17.12-.36.18-.55.18Z"/>
        </g>
        <g>
          <path class="cls-3" d="m703.76,113.81c-.14,0-.28-.03-.42-.1l-9.1-4.59c-.46-.23-.64-.79-.41-1.24.23-.46.79-.64,1.24-.41l9.1,4.59c.46.23.64.79.41,1.24-.16.32-.49.51-.83.51Z"/>
          <path class="cls-3" d="m706.02,106.01s-.1,0-.15-.01l-9.5-1.57c-.51-.08-.85-.56-.76-1.07.08-.5.55-.85,1.06-.76l9.5,1.57c.51.08.85.56.76,1.07-.07.45-.47.78-.91.78Z"/>
          <path class="cls-3" d="m696.33,99.68c-.3,0-.58-.14-.76-.4-.29-.42-.18-1,.24-1.29,2.71-1.87,5.87-2.97,9.15-3.19.5-.04.95.35.99.86.04.51-.35.95-.86.99-2.95.2-5.79,1.19-8.22,2.86-.16.11-.34.16-.52.16Z"/>
        </g>
        <path class="cls-3" d="m678.08,109.08c-.51,0-.93-.41-.93-.93v-6.24c0-.51.41-.93.93-.93s.93.41.93.93v6.24c0,.51-.41.93-.93.93Z"/>
        <path class="cls-3" d="m673.37,95.11c.19-.19.49-.36.94-.52,2.03-.72,5.29.04,7.43.03.71,0,1.48.01,2.05.44,3.11,2.35-3.11,8.16-5.58,8.46-3.24.39-4.22-3.15-4.75-5.64-.3-1.42-.67-2.2-.11-2.77Z"/>
        <path class="cls-3" d="m678.58,109.08c-.06,0-.12,0-.18,0-2.64-.08-4.75-1.65-6.06-2.94-.36-.36-.37-.95,0-1.31.36-.36.95-.37,1.31,0,1.52,1.5,3.23,2.36,4.81,2.41,1.55.06,3.41-.88,3.81-2.52.12-.5.63-.8,1.12-.68.5.12.8.62.68,1.12-.55,2.27-2.89,3.94-5.49,3.94Z"/>
        <path class="cls-3" d="m645.95,77.98c.53,1.22.83,2.68.73,4.17-.12,1.75-.75,3.28-1.71,4.08-1.37,1.14-3.15.58-4.27-1.13-1.02-1.55-1.14-4.85-.4-6.91-6.22,1.18-10.7,4.98-10.7,4.98,13.67,9.28,27.01,0,27.01,0-3.57-3.31-7.23-4.79-10.66-5.2Z"/>
        <path class="cls-3" d="m720.12,79.01c.53,1.22.83,2.68.73,4.17-.12,1.75-.75,3.28-1.71,4.08-1.37,1.14-3.15.58-4.27-1.13-1.02-1.55-1.14-4.85-.4-6.91-6.22,1.18-10.7,4.98-10.7,4.98,13.67,9.28,27.01,0,27.01,0-3.57-3.31-7.23-4.79-10.66-5.2Z"/>
      </g>
    </g>
  </g>
</svg>