<?xml version="1.0" encoding="UTF-8"?>
<svg id="Livello_2" data-name="Livello 2" xmlns="http://www.w3.org/2000/svg" viewBox="0 0 89.3 152.73">
  <defs>
    <style>
      .cls-1 {
        fill: #e2d48d;
        stroke-width: 0px;
      }
    </style>
  </defs>
  <g id="Livello_1-2" data-name="Livello 1">
    <g>
      <path class="cls-1" d="m38.43,133.88c-.41,0-.84-.09-1.23-.29-1.39-.68-1.97-2.37-1.29-3.76,5.7-11.65,14.59-31.03,23.18-49.77,8.16-17.8,15.87-34.62,21.11-45.44,1.25-2.59.4-5.86-2.11-8.16-3.26-2.98-7.05-5.35-10.67-6.67-4.41-1.61-9.26-2.07-14.03-1.33-1.91.3-3.49,1.38-4.36,2.99C37.51,42.84,15.04,92.9,5.51,116.21c-.59,1.44-2.23,2.13-3.66,1.54-1.44-.59-2.12-2.23-1.54-3.66,9.46-23.16,31.75-72.98,43.77-95.29,1.71-3.17,4.78-5.31,8.44-5.88,5.7-.88,11.52-.33,16.82,1.6,4.35,1.59,8.68,4.28,12.53,7.79,4.37,3.99,5.73,9.92,3.38,14.76-5.22,10.76-12.91,27.55-21.06,45.33-8.6,18.78-17.5,38.19-23.23,49.9-.49,1-1.49,1.57-2.53,1.57Z"/>
      <path class="cls-1" d="m83.25,37.1c-.4,0-.81-.09-1.2-.27-1.4-.66-2-2.34-1.34-3.74,3.54-7.49,3.93-13.21,1.19-17.49-2.52-3.95-6.84-6.2-12.54-8.36-3.89-1.48-6.95-1.93-9.35-1.41-4.25.93-8.44,10.07-10.45,14.46l-.47,1.01c-.65,1.41-2.32,2.02-3.73,1.37-1.41-.65-2.02-2.32-1.37-3.73l.46-.99c2.76-6.02,7.37-16.08,14.36-17.61,3.55-.77,7.53-.25,12.54,1.64,5.84,2.21,11.74,5.03,15.29,10.59,3.81,5.96,3.52,13.67-.85,22.91-.48,1.01-1.49,1.61-2.54,1.61Z"/>
      <path class="cls-1" d="m10.53,152.43c-1.28,0-2.44-.88-2.74-2.19L.07,116.29c-.34-1.51.6-3.02,2.12-3.36,1.52-.35,3.02.6,3.36,2.12l7.72,33.96c.34,1.51-.6,3.02-2.12,3.36-.21.05-.42.07-.63.07Z"/>
      <path class="cls-1" d="m10.76,152.73c-.9,0-1.79-.43-2.33-1.24-.87-1.29-.52-3.03.76-3.9l26.71-17.98c1.28-.86,3.03-.53,3.9.76.87,1.29.52,3.03-.76,3.9l-26.71,17.98c-.48.32-1.03.48-1.57.48Z"/>
      <path class="cls-1" d="m16.62,120.21c-.8,0-1.51-.57-1.65-1.38-.38-2.04-2.41-4.02-4.62-4.49-2.13-.47-4.34.45-5.14,2.12-.4.84-1.41,1.19-2.25.79-.84-.4-1.19-1.41-.79-2.25,1.48-3.09,5.21-4.76,8.89-3.96,3.56.77,6.6,3.79,7.22,7.17.17.92-.43,1.79-1.35,1.96-.11.02-.21.03-.31.03Z"/>
      <path class="cls-1" d="m29.62,124.77c-.81,0-1.53-.59-1.66-1.42-.29-1.87-1.93-3.75-3.9-4.47-1.91-.7-4.18-.31-5.38.93-.65.66-1.72.68-2.38.03-.67-.65-.68-1.72-.03-2.38,2.16-2.21,5.76-2.91,8.96-1.74,3.14,1.15,5.58,4.01,6.07,7.11.14.92-.48,1.78-1.4,1.93-.09.01-.18.02-.26.02Z"/>
      <path class="cls-1" d="m39.6,132.02c-.09,0-.17,0-.26-.02-.92-.14-1.55-1.01-1.4-1.93.25-1.61-.65-3.52-2.2-4.64-1.57-1.13-3.76-1.43-5.32-.71-.83.39-1.85.02-2.23-.83-.39-.84-.02-1.85.83-2.23,2.65-1.22,6.14-.8,8.7,1.04,2.57,1.86,4,5.03,3.55,7.89-.13.83-.85,1.42-1.66,1.42Z"/>
      <path class="cls-1" d="m19.94,145.99c-.49,0-.97-.21-1.31-.62-2.3-2.82-6.09-4.65-9.65-4.67-.93,0-1.68-.76-1.68-1.69,0-.93.76-1.68,1.69-1.68h0c4.6.02,9.29,2.28,12.25,5.9.59.72.48,1.78-.24,2.37-.31.25-.69.38-1.07.38Z"/>
      <path class="cls-1" d="m17.45,119.49c-.24,0-.49-.05-.72-.16-.84-.4-1.2-1.41-.79-2.25C28,91.85,50.4,39.66,59.52,15.54c.33-.87,1.3-1.31,2.17-.98.87.33,1.31,1.3.98,2.17-9.14,24.18-31.6,76.51-43.69,101.8-.29.61-.89.96-1.52.96Z"/>
      <path class="cls-1" d="m30.52,123.73c-.24,0-.49-.05-.72-.16-.84-.4-1.2-1.41-.79-2.25,12.06-25.23,34.47-77.42,43.58-101.54.33-.87,1.29-1.31,2.17-.98.87.33,1.31,1.3.98,2.17-9.14,24.18-31.6,76.51-43.69,101.8-.29.61-.89.96-1.52.96Z"/>
    </g>
  </g>
</svg>