<?xml version="1.0" encoding="UTF-8"?>
<svg id="Livello_2" data-name="Livello 2" xmlns="http://www.w3.org/2000/svg" viewBox="0 0 502.62 133.88">
  <defs>
    <style>
      .cls-1 {
        fill: #f4e9e9;
      }

      .cls-1, .cls-2 {
        stroke-width: 0px;
      }

      .cls-2 {
        fill: #9e8d8d;
      }
    </style>
  </defs>
  <g id="Livello_1-2" data-name="Livello 1">
    <g>
      <path class="cls-1" d="m.87,18.29c1.19,1.05,8.37-2.55,10.05-2.96,3.63-.88,6.73-.53,10.37-.29.73.05.43-11.16-.15-12.25.47.88,1.13,4.48.3,1.37-.17-.63-.2-1.15-.49-1.73-.43-.84-1.05-1.51-1.9-1.92-2.11-1.03-5.07-.26-7.19.33C7.57,2.02,1.74,4.16.52,8.93c-.42,1.64-1.07,8.11.35,9.36h0Z"/>
      <path class="cls-2" d="m3.58,33.76l-.33.23c-2.23,1.55-2.16,7.34-.32,9.18,2.97,2.98,9.49,1.28,13.24.98,2.78-.22,5.52-.24,8.3-.07,1.45.09,4.09-.34,5.08.38,2.94,2.14,2.73-6.75,2.48-7.72-1.64-6.31-6.91-7.19-12.64-6.72-3,.25-6,.67-8.92,1.43-1.57.41-5.32,2.69-6.62,2.34.61,2.84,1.21,5.68,1.82,8.53l.26-.48c.72-1.31.49-10.07-2.35-8.09h0Z"/>
      <path class="cls-2" d="m13.32,42.92c.91,13.02,2.1,25.45.57,38.52-1.38,11.79-4.29,23.15.07,34.72.54,1.45,1.29,3.04,3.04,2.46,4.72-1.56,1.62-12.13,1.32-15.38-.58-6.36,2.03-14.33,2.57-21.07.6-7.38.82-14.84.48-22.24s-.74-14.69-3.64-21.23c-2.11-4.76-4.56,2.02-4.4,4.22h0Z"/>
      <path class="cls-2" d="m2.21,120.98c3.23,5.18,11.72,1.01,16.69.76,2.36-.12,5.6.74,7.43-1.09,2.36-2.37,2.04-6.84.97-9.66-2.4-6.3-11.04-4.41-16.13-2.78-3.2,1.02-6.47,2.38-8.26,5.4-1.11,1.86-1.96,5.34-.7,7.37h0Z"/>
      <path class="cls-2" d="m48.13,56.28c-6.59-2.52-10.84,4.52-14.04,9.25-3.94,5.82-7.51,13.17-3.27,20.01,1.83,2.96,3.88,1.75,6.69,2.54,1.76.5,3.08,1.96,4.68,2.53,2.63.94,1.61-8.64-.21-7.13-.41.34-.64.99-1.02,1.38-4.64,4.81-8.3,9.25-8.79,16.15-.1,1.4,1.23,9.92,3.88,6.23,3.88-5.39,10.3-9.67,11.74-16.53.92-4.4.3-9.8-2.89-13.18-1.38-1.46-3.23-2.51-5.05-3.31-.86-.38-2.6-1.18-3.64-1.19-2.02-.02-1.67-.46-1.07,1.68l.48,5.67c-.07.99-1.34,2.72-.21,1.5.47-.51.82-1.35,1.2-1.94.75-1.16,1.54-2.29,2.32-3.42,2.22-3.18,4.47-6.69,8.7-6.87s3.82-12.1.49-13.37h0Z"/>
      <path class="cls-2" d="m69.57,62.02c-5.99-8.48-14.95,6.75-16.57,11.35-3.05,8.66-3.93,21.88,3.34,28.85s16.14-3.25,16.62-10.63c.08-1.3.42-3.88-.65-4.9-1.89-1.81-4.3-.52-6.02.55-2.36,1.46-6,3.34-7.95.27-.47-.74-.59-1.63-.69-2.48.12,1.08-.27,1.46.25.27.77-1.77,1.13-3.65,2.11-5.38s2.33-3.58,4.06-4.74c1.95-1.3,4.09-1.54,5.73-3.24,2.17-2.25,1.37-7.64-.24-9.92h0Z"/>
      <path class="cls-2" d="m88.03,64.34l-.11-.92-2.36,4.19.44.17c-.29-3.4-.57-6.81-.86-10.21-3.32,5.8-2.08,12.55-2.4,18.95-.4,7.94-1.5,15.91-1.27,23.87.05,1.81.48,6.06,2.81,6.53s3.09-3.33,3.23-4.9l.13-1.41c.09-.97-.07-7.83-2.68-7.17l-.6.15,3.15,8.43c.51-6.41.73-12.86,1.12-19.28.34-5.76-.77-11.97.18-17.61.29-1.73.82-7.32-1.72-8.18-2.7-.91-3.13,3.81-3.08,5.47.07,2.15.59,3.55,1.38,5.48,1.38,3.39,2.91-2.23,2.65-3.57h0Z"/>
      <path class="cls-2" d="m84.02,71.72c-.25-2.56,4.44-3.36,5.98-3.02,1.81.4,2.56,1.77,4,2.56-.79-.44,1.11-2.05-.19-.64-1.55,1.68-2.22,4.07-4.08,5.71-2.31,2.04-4.26,2.71-5.68,5.65-1.28,2.65-1.02,7.41,1.36,9.38,4.43,3.67,11.11-6.71,12.62-10.04,2.74-6.07,3.24-14,.05-20-3.01-5.64-10.04-8.25-14.98-3.4-4.61,4.51-5.44,12.84-2.52,18.46,2.29,4.41,3.61-3.02,3.45-4.65h0Z"/>
      <path class="cls-2" d="m92.86,82.27c.68,2.75-.01-.04-.15-.6-.34-1.38-1.32-3.16-2.94-2.51l-.41.17c-2.15.87-2.02,5.86-1.73,7.48.84,4.8,2.8,9.13,4.63,13.62,1.39,3.4,2.16,7.17,5.16,9.36,1.14.83,1.96-1.34,2.13-2.01,2.3-9.17-3.12-20.29-8.06-27.9.4,2.75.79,5.5,1.19,8.25-.55,2.54.29-.88.4-1.45.28-1.48.14-2.96-.22-4.42h0Z"/>
      <path class="cls-2" d="m109.48,60.73c-3.14,5.11-1.95,13.77-1.79,19.49.19,6.68.06,13.73,1.49,20.28,1.11,5.07,4.85,2.16,5.09-1.6.35-5.68-.42-11.46-.63-17.15s.35-10.88,0-16.01c-.08-1.14-1.87-8.72-4.16-5h0Z"/>
      <path class="cls-2" d="m125.88,60.61c-.43-.8-.81-1.76-1.48-2.39-.54-.51-.54.91-.49,1.14.26,1.06.76,2.03,1.22,3.02.21.45.6.41.8-.02.22-.49.22-1.27-.04-1.75h0Z"/>
      <path class="cls-2" d="m122.72,61.89c4.55,4.84,14.8,3.29,20.76,3.28l-1.77-8.28c-4.34,8.26-7.58,17.04-12.85,24.82-2.1,3.1-4.73,5.81-6.65,9.06-.62,1.05-1.21,2.15-1.59,3.31-.57,1.72-.63,5.3-1.88,6.49-1.12,1.06-1.32,7.22.91,6.09,1.89-.96,3.7-2.07,5.84-2.22,2.59-.19,5.26.41,7.87.3s5.38-.65,7.94-1.61c3.93-1.47,5.02-3.89,7.06-7.4.4-.68.79-3.4-.52-3.49-2.07-.14-2.26-.61-4.04-.27-1.21.23-2.16.75-3.28,1.19-3.57,1.39-6.8,1.77-10.61,1.91-5.15.2-7.43,2.03-11.17,5.5l1.74,4.61c1.31-4.18,2.56-8.29,4.96-12,2.09-3.23,4.54-6.23,6.66-9.44,4.37-6.59,9.34-13,12.91-20.04.8-1.57,1.15-8.35-1.77-8.28-3.37.08-6.74.22-10.11.15-2.66-.05-6.96.57-9.15-1.28-1.93-1.63-2.62,6.14-1.26,7.59h0Z"/>
      <path class="cls-2" d="m126.21,77.32c.11.16.22.32.33.48l-.69-1.83c.39,3.39,3.13,5.96,5.55,8.14,1.08.97,2.85,2.95,4.41,3.06s3-1.07,3.52-2.48c1.15-3.12-1.79-6.48-4.2-8s-4.34-4.07-7.05-5.16c-.59-.24-1.02-.05-1.41.44l-.27.33c-1.4.88-.97,3.89-.17,5.02h0Z"/>
      <path class="cls-2" d="m155.72,61.76l-.33-.1c-1.24.23-1.66,1.53-1.95,2.59-1.53,5.6-1.11,11.92-.73,17.65.41,6.06.69,12.44,2.59,18.25.49,1.5,1.32,3.01,2.94,2.01s1.33-4.58,1.19-6.04c-.63-6.48-1.49-12.94-1.81-19.46-.21-4.29,1.81-12.16-1.9-14.91h0Z"/>
      <path class="cls-2" d="m157.16,54.01l.02-.04-.4.72s.04-.06.06-.09l-.48.47s.04-.03.07-.04l-.55.18c.57-.09.7-.24,1.08-.69.03-.03.05-.07.08-.09l-.47.46c.07-.06.14-.11.21-.17.34-.3.59-.64.77-1.05.24-.55.36-1.19.42-1.78.07-.71.02-1.43-.05-2.13l.09,1.06c-.02-.37-.05-.73-.09-1.1-.06-.46-.16-.93-.3-1.38-.26-.85-.64-1.69-1.38-2.22-.38-.21-.74-.2-1.11.03-.42.29-.55.54-.77.94-.26.47-.45.95-.56,1.48-.23,1.13-.32,2.37-.12,3.51.14.83.35,1.63.8,2.34.25.4.71,1.02,1.27.95.74-.09,1.13-.75,1.42-1.37h0Z"/>
      <path class="cls-2" d="m171.5,62.92c-6.42-6.2-9.48,8.44-9.47,12.41.02,7.48,2.44,16.32,7.72,21.86s12.11,3.3,15.14-3.66c4.22-9.7-.34-23.46-7.69-30.57-2.46-2.38-7.05-6.46-10.68-4.11s-3.28,8.11-1.85,11.51c.24.57.85.6,1.06-.03,1.47-4.36,10.24,4.08,11.6,5.98,2.18,3.03,5.47,8.45,2.55,11.72-1.42,1.59-3.37,2.26-5.38,1.51-4.12-1.52-6.52-7.36-7.34-11.28-1.15-5.44,1.85-6.39,4.47-10.55.73-1.16.97-3.74-.12-4.8h0Z"/>
      <path class="cls-2" d="m187.01,55.7c-.34,6.67,1.2,13.39,1.62,20.04s-.14,14.11,1.05,20.92c.39,2.23,2.72,4.32,3.31.87,1.32-7.68.5-15.97-.13-23.7-.51-6.22-.46-14.43-4.11-19.76-.91-1.33-1.71,1.07-1.74,1.64h0Z"/>
      <path class="cls-2" d="m190.01,71.51c2.6-.87,4.46-3.36,6.99-4.57,1.04-.5,6.18-2.59,7.56-1.08,1.81,1.99-.04,9.85-.4,12.46-.8,5.97-1.9,11.94-1.85,17.99.02,3.11-.27,9.89,3.62,11.04.71.21.88-.76.95-1.26,1.13-7.14.65-14.45,1.67-21.68.94-6.67,1.88-13.58,1.06-20.32-.46-3.83-1.69-8.59-6.24-8.97-6.17-.52-13.09,4.65-15.18,10.16-.49,1.29-.88,7.14,1.81,6.24h0Z"/>
      <path class="cls-2" d="m237.46,57.46c-.78-4-3.01-4.76-6.9-5.07-3.33-.27-7.71.25-10.12,2.83-5.51,5.91-2.9,16.03-3.13,23.25-.18,5.86-1.39,17.68,6.33,19.59,3.39.84,7.16-.85,10.32-1.94,3.67-1.26,8.45-1.82,10.13-5.56l-3.55-1.95c.02.18-.14,1,.09,1.29,2.01,2.51,7.52-.96,2.25-7.32-.63-.76-1.17-.81-2.02-.53-4.84,1.6-10.18,4.72-15.4,4.46s-2.41-8.11-2.5-11.59c-.05-1.99-.93-5.38-.18-7.31.94-2.42,3.97-2.34,6.21-2.68,4.49-.68,9.63-1.57,8.49-7.47h0Z"/>
      <path class="cls-2" d="m217.17,80.95c1.41,2.24,7.39-.18,9.29-.85,2.03-.71,3.53-1.84,5.24-3.08,1.57-1.13,3.1-1.83,4.14-3.55.38-.63.42-1.83-.2-2.33-1.48-1.21-3.84-1.25-5.62-1.66-2.6-.59-5.01-.06-7.52.67-1.71.5-3.81.92-5.07,2.29-1.93,2.11-1.71,6.24-.28,8.51h0Z"/>
      <path class="cls-2" d="m303.02,44.31c-4.71-8.05-16.95-23.29-27.21-14.06-8.08,7.27-9.3,21.63-10.91,31.62-2.29,14.24-3.5,29.64,1.59,43.45,2.44,6.61,10.15,22.14,19.56,17.01,5.81-3.16,8.77-11.87,10.21-17.86,1.95-8.15,1.58-16.62,1.74-24.93l-5.83,1.9c2.25,11.21,5.16,22.38,7.07,33.64.67,3.95,1.85,19.46,7.94,18.8,3.16-.34,2.52-7.19,1.48-9.02l-.16-.28c-.29-.51-.73-1.23-1.42-1.22-1.5.02-1.7,2.14-1.82,3.18l1.82-3.18h-.16c.71.85,1.43,1.71,2.14,2.56-2-6.28-3.06-12.53-4.53-18.96-2.35-10.24-4.71-20.48-7.02-30.74-.36-1.58-1.59-3.76-3.45-2.95s-2.04,4.76-2.04,6.41c.01,6.45.61,13.13-.87,19.46-1.08,4.59-4.27,14.51-10.74,12.42-4.39-1.42-7.42-6.98-9.23-10.85-2.79-5.99-3.4-12.65-3.32-19.18.09-7.22,1.21-14.43,2.58-21.51.89-4.6,1.71-9.52,4.03-13.67,7.14-12.79,19.27-.23,25.86,6.29,3.37,3.34,3.72-6.56,2.69-8.33h0Z"/>
      <path class="cls-2" d="m275.38,83.88c1.95,2.63-2.52,8.26,2.42,6.72,1.01-.31,1.98-.63,2.98-.97,2.65-.9,5.29-1.8,7.95-2.67,4.14-1.36,8.23-2.64,12.28-4.25s12.98-4.17,12.42-10.01c-.69-7.21-9.57-4.15-13.68-2.62-9.02,3.36-19.94,6.04-26.93,12.91l3.11,4.99c.15-1.61.42-2.81-.54-4.11h0Z"/>
      <path class="cls-2" d="m318.14,84.79c1.95,4.01,1.41,8.29,1.33,12.63-.08,3.79-.57,9.14,2.04,12.23,1.84,2.19,3.1-1.71,3.18-2.99.33-5.19.01-10.89-.29-16.1-.22-3.78-.56-10.61-4.67-12.4-2.74-1.19-2.11,5.55-1.58,6.63h0Z"/>
      <path class="cls-2" d="m321.77,66.52c.69,0,1.18-.85,1.4-1.37.2-.47.33-.96.38-1.47.12-.58.16-1.16.13-1.75-.05-1.06-.16-2.24-.67-3.2-.3-.57-.72-1.3-1.47-1.3-.69,0-1.18.85-1.4,1.37-.2.47-.33.96-.38,1.47-.12.58-.16,1.16-.13,1.75.05,1.06.16,2.24.67,3.2.3.57.72,1.3,1.47,1.3h0Z"/>
      <path class="cls-2" d="m337.15,72.55c1.15,4.64-.3-1.2-.43-1.73-.29-1.16-1.32-3.19-2.81-2.4-3.57,1.92-4.3,7.22-4.6,10.82-.46,5.52.38,11.26,1.95,16.56,1.8,6.05,7.49,19.38,15.85,13.54,10.32-7.21,6.66-27.43,1.21-36.54-1.6-2.67-5.84-9.23-9.73-7.49-3.65,1.63-3.19,9.53-1.15,12.16.27.35.76.39,1-.02.42-.72.68-1.45,1.04-2.2l-1.85,1.14c3.61.98,6.3,4.28,7.89,7.87,1.51,3.4,3.97,14.53-3.19,13.55-5.8-.79-9.96-16.11-6.03-19.86,1.39-1.33,1.28-3.67.86-5.39h0Z"/>
      <path class="cls-2" d="m372.1,71.09c-2.77-7.42-11.66-16.58-17.29-5.74-4.38,8.44-1.31,19,.72,27.66,1.53,6.52,3.91,16.62,11.41,18.66,10.47,2.84,9.11-10.88,10.38-17.04.05-.24-.23-2.14-.66-1.37-1.63,2.88-2.82,5.89-6.4,6.6-5.6,1.12-7.88-4.88-9.05-9.18-1.11-4.08-2.53-8.76-2.68-12.98-.08-2.44,1.04-5.07,4.09-4.77,2.69.26,4.71,3.92,6.25,5.79,3.03,3.67,3.81-6.08,3.23-7.62h0Z"/>
      <path class="cls-2" d="m383.8,104.63c-.72-4.52,1.29-10.39,1.99-14.91,1.26-8.12,2.61-16.06,5.07-23.93l-3.52,2.15c4.53,4.72,3.63,13.61,4.51,19.71.61,4.24.86,8.52,1.58,12.74.59,3.47,1.14,8.57,3.9,11.03,3.07,2.73,3.65-4.32,3.35-6-.86-4.72-2.35-9.1-2.93-13.92-.49-4.12-1.15-8.21-1.57-12.33-.73-7.14-1.21-15.74-6.46-21.22-1.8-1.88-3.01.52-3.52,2.15-2.89,9.21-4.35,18.58-5.71,28.1-.97,6.74-2.31,13.69-.81,20.44.35,1.56,1.41,2.94,2.93,2.01s1.41-4.61,1.19-6.02h0Z"/>
      <path class="cls-2" d="m383.13,94.32c2.23,2.32,5.01,1.83,7.88,1.13,1.51-.36,2.96-.86,4.42-1.36,2.02-.69,3.2-1.92,4.76-3.36.85-.78.67-2.41.11-3.3-2.17-3.48-4.43-4.93-8.53-3.73-2.68.79-6.02,2.02-8.4,3.46-1.83,1.1-1.59,5.75-.25,7.15h0Z"/>
      <path class="cls-2" d="m415.3,66.88c4.22,10.42-2.21,22.42,1.44,33.28,2.02,6,4.9-.9,4.25-4.15-2.24-11.39,4.5-26.28-3.37-36.33-1.17-1.5-2.17.22-2.63,1.24-.81,1.76-.38,4.26.31,5.97h0Z"/>
      <path class="cls-2" d="m404.43,61.96c3.57,8.81-4,9.05,1.88,9.08,1.35,0,2.72-.21,4.06-.37,3.07-.37,6.18-.67,9.24-1.12,5.65-.82,11.36-1.56,16.42-4.33.89-.48.76-2.8.12-3.44-4.54-4.53-9.69-5.55-16.01-5.32-5.06.18-13.82.99-17.82,4.12l2.85,3.39c-.16-.78-.45-1.31-.74-2.02h0Z"/>
      <path class="cls-2" d="m446.62,64.81c-8.73,2.87-6.03,20.66-5.01,27.23,1.03,6.58,9.56,24.54,16.75,12.55,3.34-5.56,3.77-12.84,3.36-19.14-.44-6.81-1.59-14.44-4.94-20.48-2.33-4.2-7.04-7.35-10.74-2.58-3.25,4.19-4.02,11.14-3.33,16.2.1.72.74,1.77,1.27.7,1.78-3.61,6.46-9.37,9.48-3.57,2.39,4.58,5.34,16.95,1.2,21.17-4.46,4.54-8.37-5.62-8.85-8.81-.58-3.88-2.44-12.52,2.11-14.53,2.44-1.08,1.85-9.78-1.31-8.74h0Z"/>
      <path class="cls-2" d="m468.22,66.13l-.18-2.09c.18-3.18-2.55-6.83-3.23-1.85-.44,3.27.35,6.21.8,9.43.53,3.77.83,7.57,1.06,11.37.44,7.15.25,14.45,1.43,21.53.77,4.59,4.45,4.82,4.73-.12.16-2.9-.13-5.29-1.25-7.97-.65-1.55-1.48.24-1.6.98l-.33.42,3.23,5.13c.1-8.08-.66-16.32-1.4-24.37-.36-3.91-.9-7.8-1.68-11.65-.53-2.63-.73-5.67-3.03-7.35l-1.11,6.67,1.59,2.11c.77,1.59,1.24-1.51.96-2.26h0Z"/>
      <path class="cls-2" d="m462.74,65.77l.1-.53-.99,1.31h.11c.32-.03.57-.18.75-.46,2.8-4.83,12.41-5.44,15.8-1.28,2.58,3.17.21,6.94-2.01,9.64-2.69,3.26-5.61,4.93-7.37,8.95-.29.66-.32,1.96.21,2.53,5.32,5.66,11.78-4.66,13.52-9.22,2.59-6.77,2.37-16.1-2.97-21.54-4.22-4.29-11.85-3.91-16.13.14-1.96,1.85-3.18,4.41-3.33,7.11-.12,2.15.22,3.66,1.41,4.56.59.44.88-.96.91-1.2h0Z"/>
      <path class="cls-2" d="m474.26,83.15c.95,4.97,2.85,9.98,4.59,14.73,1.32,3.6,2.93,9.57,6.85,11.14,3.13,1.25,2.26-6.13,1.75-7.35-1.78-4.27-4.13-8.17-5.72-12.55-1.21-3.34-2.2-8.18-4.84-10.68-2.36-2.24-2.87,3.46-2.63,4.72h0Z"/>
      <path class="cls-2" d="m496.65,60.98c-4.2,3.17-2.2,13.88-1.82,18.26.66,7.44.9,15.67,2.85,22.87,1.28,4.7,4.24,1.92,4.68-1.47.15-1.15.34-2.63-.15-3.74.25,2.53.38,2.99.38,1.39.06-.85.03-1.69-.08-2.54-.23-4.04-.88-8.08-1.45-12.07s-1.17-8.21-1.42-12.36c-.2-3.17.19-6.51-1.3-9.42-.28-.54-.96-1.48-1.69-.93h0Z"/>
      <path class="cls-2" d="m494.14,52.82c.31.39,1.11.3,1.49.1.09-.05.16-.16.25-.23.21-.15.43-.3.61-.47.09-.08.45-.17.1-.07-.41.11.15.02.22.02.66-.01,1.27-.14,1.81-.56l-3.33-7.03c-.16,1.39-.13,2.71,0,4.11l.3-3.24c-.45.93-.94,1.82-1.28,2.8s-.89,1.87-1.35,2.84c-.15.31-.17,2.36.55,1.93.3-.18.55-.4.84-.6.41-.29.47-.21.89-.32.65-.17,1.13-.53,1.66-.93l-.75.02c.64.4,1.06.64,1.8.65,1.71.02,2.28-3.16,2.37-4.3.16-2.03.09-4.88-1.34-6.5-.94-1.07-2.2-1.68-3.55-.84-.89.55-1.5,1.52-1.94,2.44-.24.5-.99,2.66-.35.99-.33.88-.55,1.74-.65,2.67-.11,1.04-.11,2.1.05,3.13.1.75.31,1.47.62,2.16.21.51.55.93,1,1.24h0Z"/>
    </g>
  </g>
</svg>