<?xml version="1.0" encoding="utf-8"?>
<!-- Generator: Adobe Illustrator 28.1.0, SVG Export Plug-In . SVG Version: 6.00 Build 0)  -->
<svg version="1.1" id="Livello_2_00000079486325248419102920000004873496881366464403_"
	 xmlns="http://www.w3.org/2000/svg" xmlns:xlink="http://www.w3.org/1999/xlink" x="0px" y="0px" viewBox="0 0 776.8 204.9"
	 style="enable-background:new 0 0 776.8 204.9;" xml:space="preserve">
<style type="text/css">
	.st0{fill:#9E8D8D;}
	.st1{fill:#F4E9E9;}
</style>
<g id="Livello_1-2">
	<g>
		<path class="st0" d="M32.8,57.2c34.2,1.1,71.9-2.7,107.3-4.4c50.8-2.5,101.9-6.5,152.8-4.4c49,2,98.9,10.2,148.2,8.9
			c53.2-1.5,107.4-5,160.7-7.4c24.9-1.1,50.3,1.8,75.4,3c20.5,1,44.3,4.3,64.1,3.1c1.3,24.3-0.3,50.5-8.7,73.1
			c-3.6,9.8-10.5,19.9-12.5,30.3c-2.2,11,0.1,22.6-2.4,33.4c-24.4,10.2-47,2-71.9,2.1c-35.7,0.2-73.2,2.6-109.3,4.4
			c-33.2,1.7-65.7-8.7-98.9-7.4c-30.2,1.2-60.4,1.5-91.1,1.5c-65.7,0-132.3-3.6-196.6,0c-29.2,1.7-58.6,4.1-87.4,4.1
			c-16,0-54.2,2.7-60.6-11.9c-4.5-10.3,1.5-31.1,3-41.7c2.1-14.4,5.2-29.2,6-43.7c0.5-9.4-2.1-26.3,4.2-33.8
			c0.1-0.2,18.7-9,19.4-9.2c6.8-2,12.8-4.5,14.8,4.5"/>
		<g>
			<path class="st1" d="M774.2,173.8c-1.9,0-1.9,3,0,3S776.1,173.8,774.2,173.8z"/>
			<path class="st1" d="M775.3,43c-4.6-4.2-10-7.2-15.8-9.4c0.4-4.4,0.8-8.8,1.2-13.2c0.2-2.4-2.2-4.6-4.5-4.5
				c-0.7,0-1.3,0.2-1.8,0.4c0.2-0.6,0.3-1.2,0.5-1.9c0.3-1.1,0.7-2.1,1-3.1c0.2-0.4,0.3-0.8,0.5-1.2c0,0,0,0,0,0
				c0.1-0.2,0.2-0.5,0.3-0.7c0.4-0.9,0.9-1.7,1.4-2.6c1.2-2,0.5-5-1.6-6.2c-2.2-1.1-4.9-0.6-6.2,1.6c-4.8,8.2-6.4,18.1-7.4,27.4
				c-6.2-0.9-12.5-1.1-18.4-1.2c-9-0.1-17.8,0.7-26.8,1.5c-12.4,1.1-24.9,0.8-37.4-0.1c-25.4-1.8-50.5-4.9-76-5.1
				c-25.8-0.1-51.6,1.4-77.4,2.8c-26,1.4-52,2.3-78.1,2c-25.9-0.3-51.7-1.1-77.6-0.6c-12.8,0.2-25.6,0.7-38.4,1.8
				c-13.1,1-26.1,2.3-39.3,2.4c-26,0.4-52-1.5-77.9-2.7c-17.3-0.8-34.6-0.7-52-0.5c-0.7,0-1.4-0.1-2-0.1c-0.8-1.5-2.5-2.5-4.8-1.9
				c-2.1,0.5-4.1,1.2-6.1,1.9c-0.5,0-1,0-1.5,0.1c0.1-0.1,0.1-0.2,0.2-0.2c3.7-4.6-1.8-9.9-6.4-6.4c-2.4,1.9-4.9,3.8-7.3,5.6
				c-8.3-0.8-16.6-1.4-25-1.4c-2.7,0-5.4-0.1-8.1-0.2c0.5-3.8-4.2-7.4-7.5-3.9c-0.9,1-1.9,2-2.8,2.9c-1-2-3.3-3.1-6-1.6
				c-0.9,0.5-1.9,1.1-2.8,1.7c-1.8-0.1-3.6-0.1-5.4-0.2c2.6-3.2,4.8-6.7,6.5-10.7c1.5-3.7-3.5-7.1-6.6-5.1c-2.2,1.4-4.3,2.9-6.5,4.3
				c0.1-0.9-0.1-1.9-0.5-2.9c-0.4-0.8-0.8-1.5-1.3-2.2c0-0.1-0.1-0.1-0.1-0.2C49.8,7.7,49,5.8,47,4.9c-1.8-0.8-4.7-0.2-5.6,1.8
				c-0.2,0.4-0.3,0.7-0.4,1.1c0,0,0,0,0,0c0,0,0,0,0,0.1c-1.2,2.8-2.2,5.7-3.1,8.6c-1.6,0.7-2.8,2.3-2.7,4.1c0.1,1.7,0.1,3.4,0.1,5
				c-1.7,0.2-3.4,1.1-3.9,2.8c-0.3,0.1-0.6,0.2-1,0.2c-0.7-0.5-1.3-1-1.8-1.6c-4-4.3-10.3,2.1-6.4,6.4c0.4,0.4,0.8,0.8,1.2,1.2
				c-0.1,1.4,0.5,2.8,2.2,3.5c1.3,0.6,2.5,1.1,3.8,1.6c-0.5,2.8-0.9,5.6-1.4,8.4c0,0,0,0,0,0c-0.5,0.9-0.7,2-0.5,3
				c-1.4,8.3-2.7,16.6-4,25c-0.3,0.7-0.4,1.3-0.3,2c-0.3,2.3-0.6,4.7-1,7c-1.2,9.4-2.2,18.9-2.8,28.4c-0.4,5.6-0.4,11.2-0.5,16.8
				c-0.1,0.5-0.1,0.9,0,1.4c-0.1,2.5-0.1,5-0.3,7.4c-0.5,8.7-3.4,19.8,1,28c0.2,0.4,0.5,0.8,0.8,1.2c0.5,2.9,1.3,5.9,3.5,7.9
				c-1.2,1.4-1.6,3.6-0.5,5.2c1.3,2.1,4,2.9,6.2,1.6c1.8-1,3.1-2.7,4.1-4.5c1.3,1.6,3,2.9,5,3.6c3.8,1.4,7.8,0.2,11.2-1.6
				c0.7-0.4,0.8-1.1,0.7-1.6c30.2,0.4,60.5-1.3,90.7-1.9c3,0,6,0,9,0c2.8,0,5.7-0.1,8.5-0.2c38.7-0.1,77.4,3.1,115.9,7.1
				c39.5,4.1,79,8.9,118.6,11.5c40.2,2.7,80.2,2.4,120.3-1.4c20.2-1.9,40.4-4.8,60.7-5.6c19.9-0.9,39.8,1.3,59.6,2.1
				c5,0.2,10,0.3,15,0.3c0.8,0,1.3-0.6,1.4-1.2c25.5,1.2,51,1.7,76.6,0c4.7-0.3,9.3-0.7,12.8-2.8c-0.2,2.6-0.4,5.2-0.7,7.8
				c-0.2,2-0.5,4-0.7,6c-0.2,1.9,1.6,3.9,3.3,4.3c1.8,0.4,4.2-0.2,5.1-2.1c0.8-1.7,1.5-3.4,2-5.2c2.2-0.3,4.1-2.1,4.1-4.4
				c0-19.6,1.2-39.2,2.7-58.7c1.5-19.5,3.2-38.9,4.3-58.4c0.4-7.7,0.7-15.3,0.9-23c0.1-0.3,0.1-0.6,0.1-1v-8.2
				c3,1.4,5.8,3.2,8.2,5.4C773.3,53.2,779.7,46.9,775.3,43L775.3,43z M735.1,165.2c-0.2-0.1-0.4-0.1-0.6-0.2
				c0.8-0.8,1.5-1.7,2.2-2.6c0.7-0.2,1.3-0.4,2-0.6c0,0,0,0,0,0c-0.6,1.3-1.1,2.5-1.5,3.8C736.5,165.5,735.8,165.4,735.1,165.2
				L735.1,165.2z M685.9,181.7c-2.8,0-5.6,0-8.4-0.1c1.8-0.9,3.5-1.9,5.2-3c0.1-0.1,0.2-0.2,0.4-0.3
				C683.4,179.9,684.4,181.2,685.9,181.7z M163.5,173.6c-1.7,0.1-3.4,0.1-5.1,0.1c-5.1,0-10.3,0.1-15.4,0.2
				c-12.1,0-24.1-0.5-36.1-1.3c18-1.4,35.9-3.3,53.9-4.3c19.8-1.1,39.4-0.4,59,1.1C201.1,171.3,182.3,172.9,163.5,173.6L163.5,173.6
				z M36.8,144.8c4.9-3.1,9.7-6.2,14.5-9.5c-1.1,1.3-2.2,2.6-3.2,4c-2.7,2.1-5.5,4.2-8.2,6.3c-1.5,1.1-0.2,3.6,1.5,2.6
				c-1.6,1.4-3.1,2.9-4.3,4.6C37,150.2,36.9,147.5,36.8,144.8L36.8,144.8z M92.9,43.2c1.7-0.1,3.4-0.3,5.1-0.5
				c-4.9,3.7-9.8,7.4-14.7,11.1C86.7,50.5,90,47,92.9,43.2L92.9,43.2z M172.6,43.1c0.5,0,1,0.1,1.5,0.1c0.2,0,0.4,0,0.7,0.1
				c0,0,0,0,0.1,0c0.9,0.2,1.8,0.3,2.6,0.5c0.4,0.1,0.9,0.3,1.3,0.4c0,0,0.1,0,0.2,0.1c0.1,0,0.1,0.1,0.2,0.1c0.1,0,0.4,0.3,0.6,0.4
				c-0.2-0.2-0.2-0.3,0-0.1c0.1,0.1,0.1,0.1,0.2,0.2c0,0,0.1,0,0.1,0c0,0,0,0-0.1,0c0.1,0.1,0.2,0.2,0.4,0.4c1.2,1.3,3.2,1.6,4.9,1
				c-12.2,8.6-24.1,17.8-35.9,27.1c2.6-2.3,5.2-4.8,7.6-7.3c1.4-1.5,2.8-3,4-4.5c0.1-0.1,0.2-0.2,0.4-0.4c4.7-4.5,9.5-8.9,14.7-12.9
				l0,0c0.1-0.1,0.2-0.2,0.3-0.2c1.3-1-0.5-3.4-1.8-2.4c-0.1,0.1-0.2,0.2-0.3,0.2l0,0c-0.9,0.7-1.8,1.4-2.7,2.1
				c0.3-0.8,0.6-1.5,0.9-2.3c0.5-1.2-1.2-2.3-2.2-1.7c-0.9,0.5-1.8,1.1-2.6,1.7c0.9-0.9,1.8-1.9,2.7-2.8
				C171.2,43,171.9,43.1,172.6,43.1L172.6,43.1z M499,51.1c0.1-0.2,0.2-0.5,0.4-0.7c0.4,0,0.8,0,1.2,0C500,50.7,499.5,50.9,499,51.1
				L499,51.1z M379.7,171.7c-0.9,0.5-1.7,1.2-2.5,1.8c-0.2,0.1-0.5,0.3-0.7,0.4c0.8-0.8,1.7-1.5,2.6-2.2c0.1-0.1,0.4-0.3,0.6-0.4
				c0.3-0.2,0.7-0.5,1-0.7c0.8-0.6,1.6-1.1,2.4-1.6c0,0,0.1-0.1,0.1-0.1c-0.5,0.4-0.9,0.8-1.4,1.2c-0.5,0.4-1,0.8-1.4,1.2
				c-0.1,0.1-0.3,0.2-0.4,0.4C379.6,171.8,378.6,172.4,379.7,171.7L379.7,171.7z M319.5,169.5c-0.1-0.1-0.1-0.2-0.3-0.5
				c0,0,0,0.1,0.1,0.1C319.4,169.2,319.5,169.3,319.5,169.5C319.5,169.5,319.6,169.5,319.5,169.5
				C319.5,169.5,319.5,169.5,319.5,169.5L319.5,169.5z M77.8,165.5c-3.7,0.3-7.3,0.5-11,0.8c3.1-2.7,6-5.5,8.9-8.3
				c1.8-0.4,3.6-0.8,5.3-1.2c-0.9,1.1-1.8,2.1-2.7,3.2C77.1,161.6,77,163.8,77.8,165.5L77.8,165.5z M146.3,40.6
				c0.7,0,1.4,0.1,2.1,0.1c3,0.1,6,0.2,8.9,0.3c-4.2,3.2-8.3,6.5-12.4,9.7c1.1-1.3,2.1-2.7,3-4.2C149.6,44,148.3,41.7,146.3,40.6
				L146.3,40.6z M427.2,46.6c3.1,0.2,6.1,0.4,9.2,0.5c-3.9,1.5-7.7,3.2-11.4,5.2c0.6-0.8,1.1-1.7,1.7-2.5
				C427.4,48.7,427.5,47.6,427.2,46.6L427.2,46.6z M714,143.9c-1.1,0.9-2.3,1.7-3.4,2.6c1.1-1,2.2-2.1,3.4-3.1
				C714,143.6,714,143.8,714,143.9z M317.1,167c0.1,0.1,0.1,0.1,0.2,0.1c0.2,0.2,0.2,0.4-0.3-0.2C317,166.9,317,166.9,317.1,167
				L317.1,167z M39.2,166.9c1.6-0.5,3.2-1.2,4.8-1.9c-0.4,0.8,0,1.8,0.7,2.1C42.9,167,41.1,167,39.2,166.9
				C39.2,166.9,39.2,166.9,39.2,166.9L39.2,166.9z M215.1,62.7c2.2-0.5,4.3-1.1,6.4-1.7c-4.6,3.6-9.4,7.1-14.2,10.4
				C210.1,68.7,212.7,65.8,215.1,62.7L215.1,62.7z M227.3,71.3c-0.2,0.1-0.5,0.2-0.7,0.3c0.1-0.1,0.3-0.3,0.4-0.4
				C227.1,71.2,227.2,71.3,227.3,71.3z M668.1,70.2c6.7-4.2,14-8.5,21.7-11.2c-2.9,3.1-5.9,6.2-9,9.1c-7.2,1.5-13.8,4-20.3,7.2
				c0.1-0.1,0.2-0.2,0.3-0.3C663.2,73.3,665.6,71.7,668.1,70.2L668.1,70.2z M352.3,163.5c-0.2-0.1-0.5-0.2-0.7-0.3
				c0,0,0.1-0.1,0.1-0.1c0.4,0,0.8,0,1.2,0.1c-0.1,0.2-0.2,0.3-0.3,0.5C352.5,163.6,352.4,163.6,352.3,163.5L352.3,163.5z
				 M141.2,146.4c0.1,0.3,0.3,0.6,0.5,0.8c-2.4,1.5-4.7,2.9-7.1,4.3C136.6,149.7,138.8,148,141.2,146.4z M288.8,70.9
				c0.7-0.6,1.4-1.2,2-1.9c0.1,0.1,0.2,0.1,0.4,0.2c-0.6,0.7-1.2,1.4-1.8,2.2c-0.9,1.2-0.7,2.9-0.1,4.2c-6.8,4-13.5,8-20.2,12.1
				c-0.7,0.4-1.4,0.9-2.2,1.3C274.4,83.2,281.8,77.3,288.8,70.9L288.8,70.9z M477.4,165c-0.5-0.1-0.9-0.2-1.4-0.3
				c0.1,0,0.1-0.1,0.2-0.1c0.5,0,1,0,1.5,0C477.6,164.7,477.5,164.8,477.4,165C477.5,165,477.4,165,477.4,165L477.4,165z
				 M463.9,128.7c-3.8,3.3-7.6,6.6-11.6,9.7c-1.7,1.3-3.5,2.6-5.2,3.9c5.5-4.4,10.8-9.1,16.1-13.7
				C463.4,128.6,463.7,128.6,463.9,128.7L463.9,128.7z M433.2,161c-0.6-0.1-1.1-0.2-1.7-0.4c1.7-0.6,3.3-1.2,4.9-1.9
				c-0.6,0.6-1.3,1.2-1.9,1.9C434.1,160.7,433.7,160.9,433.2,161L433.2,161z M528.7,137.2c-2.2,1.6-4.3,3.2-6.4,4.8
				c-0.2-0.3-0.3-0.6-0.6-0.9c2.5-1.8,4.9-3.6,7.3-5.4c3.7-2.8,7.5-5.5,11.3-8.2C536.3,130.7,532.5,133.9,528.7,137.2L528.7,137.2z
				 M472.6,120.9c-0.1,0-0.2,0-0.3,0c1.5-1.2,3-2.5,4.5-3.7c-0.2,0.2-0.5,0.4-0.7,0.6C474.9,118.8,473.7,119.9,472.6,120.9
				L472.6,120.9z M504,117.5c6.6-5.5,13.2-10.9,20.1-16c8-6,16.1-11.9,24.2-17.7c-11.8,9.9-23.9,19.6-36.3,28.8
				C509.3,114.2,506.7,115.8,504,117.5z M144.8,152.8c1.8-0.9,3.6-1.8,5.4-2.8c0.1,0.1,0.1,0.2,0.2,0.3c-1.3,0.9-2.6,1.8-4,2.6
				C145.8,153,145.3,153,144.8,152.8L144.8,152.8z M215.6,111.5C215.6,111.5,215.6,111.6,215.6,111.5c-4.2,3.8-8.6,7.4-13,11
				c-3.3,2.6-6.6,5.2-9.8,7.9c-2.1,1.5-4.3,3-6.4,4.6c1-1.3,1.9-2.6,2.7-4.1c3-2.4,5.9-4.9,8.9-7.3c3.1-2.2,6.1-4.4,9.2-6.6
				C209.9,115.2,212.7,113.4,215.6,111.5L215.6,111.5z M230.6,102.6C230.6,102.6,230.6,102.6,230.6,102.6c1.4-1.3,2.9-2.6,4.4-3.8
				c0.8-0.5,1.5-1,2.3-1.5c-1.1,0.8-2.1,1.7-3.2,2.5C233,100.7,231.8,101.6,230.6,102.6L230.6,102.6z M196.6,120.2
				c0.5-0.5,1-0.9,1.5-1.4c0.7-0.3,1.4-0.6,2.1-0.9C199,118.7,197.8,119.5,196.6,120.2L196.6,120.2z M215,157.4
				C214.7,157.4,214.9,157.4,215,157.4L215,157.4z M406.1,128.6c3.5-2.5,7-5,10.5-7.4c-0.6,0.6-1.2,1.3-1.8,1.9
				C411.9,125,409,126.8,406.1,128.6L406.1,128.6z M365.6,138.7c0.5-0.4,1-0.7,1.5-1.1c-0.1,0.1-0.2,0.1-0.3,0.2
				c-0.4,0.3-0.7,0.6-1,0.9C365.8,138.7,365.7,138.7,365.6,138.7L365.6,138.7z M340.2,133.3c-4.1,3.1-8.1,6.2-12,9.5
				c0.4-0.6,0.5-1.4,0.5-2.1c5.1-4.2,10.1-8.7,15.1-13c1.7-1.4,3.3-2.8,5-4.2c1.5-1.1,3-2.3,4.5-3.4c6.5-4.9,13-9.9,20-14.1
				c5.8-3.5,11.8-6.6,17.9-9.6c6-3.1,12.1-6.2,18-9.7C386.6,102.9,361.9,116.8,340.2,133.3L340.2,133.3z M326.5,91.5
				c0.1,0.1,0.1,0.2,0.2,0.3c0.1,0.1,0.2,0.2,0.3,0.3c-7,6.1-13.9,12.3-20.7,18.6c-11,8.4-22.1,16.5-33.5,23.9
				c-3,1.9-6.1,3.9-9.2,5.7c1.7-1.7,3.5-3.4,5.3-5c1.4-1.3,2.8-2.5,4.2-3.8C290.8,118.1,309.1,105.3,326.5,91.5L326.5,91.5z
				 M387.4,117.2c7.8-5.4,15.7-10.7,23.7-15.9c-0.2,0.2-0.4,0.3-0.5,0.4c-9.5,8-19.1,15.8-28.6,23.6c0.2-1.3-0.1-2.8-0.8-3.7
				C383.2,120.1,385.3,118.6,387.4,117.2L387.4,117.2z M367.9,151.8c0.6-0.4,1.2-0.8,1.8-1.2c-0.8,0.9-1.5,1.7-2.3,2.5
				c0-0.1,0.1-0.1,0.1-0.2C367.8,152.5,367.9,152.1,367.9,151.8L367.9,151.8z M266.6,125.3c-3.1,2.3-6.1,4.7-9.1,7
				c-5,3.9-9.9,8-14.8,12.1c-0.6-0.8-1.4-1.4-2.4-1.6c-0.9-0.2-1.7-0.5-2.6-0.6c1-0.7,2-1.4,3-2.1c8.5-6.1,17-12.2,25.7-18
				c5.3-3.5,10.6-6.9,16-10.3C277.1,116.2,271.8,120.7,266.6,125.3z M224.2,141.5c-0.7,0.1-1.5,0.1-2.2,0.2c2.9-1.9,5.9-3.7,8.8-5.6
				C228.6,137.8,226.4,139.6,224.2,141.5z M256.4,81.6c3.2-2.4,6.5-4.8,9.6-7.3c-2.1,1.8-4.2,3.5-6.3,5.3
				C258.7,80.3,257.6,80.9,256.4,81.6L256.4,81.6z M189.9,121.7c0.3-0.1,0.6-0.2,0.9-0.3c-1.4,1.3-2.9,2.5-4.4,3.8c0,0,0,0-0.1,0
				c0.5-0.6,0.9-1.3,1.3-2C188.4,122.7,189.2,122.2,189.9,121.7z M142.2,154.8c0,0-0.1,0-0.1,0C142.1,154.8,142.1,154.8,142.2,154.8
				C142.1,154.7,142.1,154.8,142.2,154.8L142.2,154.8z M164,153.9c0.2-0.1,0.3-0.2,0.5-0.3c0.9-0.1,1.7-0.2,2.5-0.4
				c-0.2,0.4-0.5,0.7-0.8,1.1h-2.7C163.7,154.2,163.9,154,164,153.9L164,153.9z M359.9,160.1c1.8-1.5,3.6-3.1,5.3-4.6
				c-1.5,1.7-3.1,3.3-4.8,4.8c-0.4,0.1-0.7,0.1-1.1,0.2C359.6,160.4,359.8,160.2,359.9,160.1L359.9,160.1z M650.5,160.6
				c-0.1-0.2-0.3-0.4-0.5-0.5c3.7-4.2,7.8-8.2,11.9-12.1c-0.8,1.3-0.8,2.9-0.1,4.3c-1.4,1.1-2.9,2.1-4.3,3.2
				C655.3,157.3,653,159,650.5,160.6L650.5,160.6z M624.7,158.6c1.5-1.2,2.9-2.4,4.4-3.6c2-1.7,4.1-3.4,6.1-5.1
				c-1.5,1.4-2.9,2.8-4.3,4.2c-0.7,0.7-1.1,1.6-1.1,2.6c-1.1,0.7-2.2,1.3-3.3,1.9C625.9,158.6,625.3,158.6,624.7,158.6L624.7,158.6z
				 M713.4,109.6c0.1-0.2,0.2-0.5,0.3-0.7c0.5-0.2,1-0.5,1.5-0.7c-0.2,1.2-0.3,2.5-0.5,3.7l0,0c-1.6,1.4-3.2,2.8-4.9,4.2
				C711,113.9,712.2,111.8,713.4,109.6z M635.8,163.6c-0.6,0.8-1.1,1.6-1.7,2.4c-0.5,0.8-0.7,1.8-0.6,2.7c-1.6,0-3.2,0-4.8-0.1
				c-0.6,0-1.2-0.1-1.7-0.1C630,167,632.9,165.3,635.8,163.6L635.8,163.6z M657.7,106.5c-0.5,0.3-1,0.7-1.5,1
				c-1.1-0.3-2.2-0.2-3.2,0.5c-2.2,1.4-4.3,2.9-6.5,4.4c0-1.2-0.6-2.6-1.2-3.6c-0.2-0.3-0.5-0.6-0.7-0.9c0.3-0.2,0.7-0.5,1-0.7
				c5.1-1.8,10.3-3.3,15.6-4.3C660.1,104.2,658.9,105.4,657.7,106.5L657.7,106.5z M627.8,77.5c0.7-0.8,1.4-1.5,2-2.3
				c4-2.9,8-5.7,12-8.5C637.1,70.4,632.5,74,627.8,77.5L627.8,77.5z M571,96.2c-0.2-0.1-0.4-0.3-0.7-0.4c1-0.7,1.9-1.3,2.8-2
				c7.6-5.2,15.2-10.4,22.6-15.9c-0.5,1.2-0.4,2.5,0.1,3.6C587.7,86.5,579.4,91.4,571,96.2z M440.8,121.2c0.2-0.2,0.3-0.3,0.5-0.5
				c0,0,0.1,0,0.1,0.1C441.2,120.9,441,121.1,440.8,121.2L440.8,121.2z M256.8,72.2c2.5-1.5,5.1-2.9,7.9-4.2
				c-5.3,4.4-10.4,8.9-15.6,13.4c-6.3,4.6-12.7,9.1-19,13.8c-6.1,4.5-12.1,9-18.5,13.1c-2.2,1.4-4.4,2.7-6.6,3.9
				c1.2-1.2,2.3-2.5,3.5-3.7c3.5-2.5,7-5,10.5-7.4c12.9-9,25.1-19,37.5-28.6C256.5,72.3,256.6,72.2,256.8,72.2L256.8,72.2z
				 M419.2,167.1c0.2,0.1,0.5,0.1,0.8,0.2c-0.4,0-0.7,0.1-1.1,0.1C419,167.2,419.1,167.1,419.2,167.1L419.2,167.1z M722.6,73.1
				c0,0.2-0.1,0.5-0.1,0.7c-7.3,4.5-14.8,8.8-22.3,12.9c2.2-1.8,4.3-3.6,6.4-5.4c7-6.1,13.7-12.8,19.4-20.2c0,0.4,0,0.8,0,1.2
				C724.3,65.6,723.2,69.5,722.6,73.1L722.6,73.1z M714.9,88.6c0.3-0.2,0.6-0.3,0.9-0.5c-3.1,2.4-6.2,4.9-9.2,7.5
				c-4.8,3.7-9.6,7.2-14.5,10.7c0.6-1.5,0.2-3.3-0.8-4.6C699.2,97.4,707.1,93.1,714.9,88.6L714.9,88.6z M689.6,83.8
				c-4.5,3.4-9,6.7-13.5,9.9c-0.7-0.6-1.6-0.9-2.7-0.9c-2.9,0-5.8,0.2-8.6,0.5c1.2-1,2.5-1.9,3.7-2.9c6.7-4,13.5-7.8,20.2-11.6
				c0,0.3-0.1,0.5-0.2,0.8C688.3,81,688.7,82.7,689.6,83.8L689.6,83.8z M453.3,112.2c-1.3,0.9-2.6,1.9-3.9,2.8
				c-0.3-0.2-0.6-0.3-0.9-0.5c0,0,0,0,0,0c0.9-0.6,1.7-1.3,2.6-1.9c2.9-2.1,6-3.9,9.3-5.5C458,108.8,455.7,110.5,453.3,112.2z
				 M275.4,69.4c0.1-0.1,0.1-0.2,0.2-0.2c0.1-0.1,0.3-0.1,0.5-0.2C275.8,69.1,275.6,69.3,275.4,69.4L275.4,69.4z M142.9,140.8
				c-1.1,0.6-1.8,1.5-2.1,2.4c-1.3,0.8-2.5,1.7-3.8,2.6c-3.5,2.6-6.9,5.6-9.3,9.2c-1.4,0.6-2.8,1.1-4.2,1.6c-1.5,0-3-0.2-4.3-0.8
				c17.9-11.9,35.3-24.4,52.8-36.9c0.4-0.2,0.9-0.3,1.3-0.5C163.8,126.8,154,134.8,142.9,140.8L142.9,140.8z M158.8,57.8
				c-3.5,2.6-7,5.2-10.5,7.8c2.1-1.7,4.1-3.3,6.2-5.1C155.9,59.6,157.3,58.7,158.8,57.8z M76.1,143.5c-2.2,1.3-4.4,2.6-6.6,3.9
				c-1.1,0.1-2.3,0.2-3.4,0.3c0,0,0,0,0.1-0.1c1.5-0.5,2.9-1.1,4.2-1.7c2.9-1.3,5.7-2.9,8.4-4.7c1.5-1.1,3.1-2.2,4.4-3.5
				c-0.1,0.3-0.2,0.6-0.3,0.9C80.4,140.1,78.2,141.7,76.1,143.5L76.1,143.5z M90.3,147c0.5-0.9,0.8-1.7,1.1-2.6
				c2.2-1.6,4.4-3.2,6.6-4.8l0,0c0.7-0.3,1.4-0.6,2.1-0.9c-3.2,2.6-6.4,5.3-9.4,8.1C90.5,146.9,90.4,147,90.3,147L90.3,147z
				 M107,133.2c2.3-1.6,4.6-3.2,6.9-4.8c-2,1.4-4.1,2.9-6.1,4.4c-0.2,0.1-0.3,0.2-0.5,0.4C107.3,133.1,107.1,133.1,107,133.2
				L107,133.2z M135.6,100.7c0.3-0.3,0.7-0.7,1-1c7.5-7.6,15.7-14.4,24.2-20.9c1.4-1,2.7-2,4.1-3c-3.4,3.7-6.9,7.1-10.7,10.4
				C148.1,91.1,141.9,95.9,135.6,100.7L135.6,100.7z M93.7,131.3c-1.8,1.3-3.7,2.7-5.5,4c-0.8-0.2-1.5-0.2-2.2,0
				c-0.4,0.1-0.8,0.3-1.1,0.5c0.3-0.8,0-1.8-0.8-2.1c3.9-2.9,7.9-5.7,11.8-8.6c0.8-0.3,1.7-0.7,2.6-1c3.2-1.2,6.4-2.3,9.6-3.2
				C103.2,124.4,98.5,127.8,93.7,131.3L93.7,131.3z M133.5,83.3c-1.7,1.5-3.4,3.1-5.1,4.6c-0.4-0.2-0.8-0.2-1.3,0.1
				c-1.2,0.7-2.3,1.4-3.5,2.2c2.8-2.7,5.6-5.3,8.5-7.8c6.1-5.3,12.5-10.3,19-15.1c-0.5,0.5-1.1,1-1.6,1.6c-2.8,2.8-5.7,5.4-8.6,8.2
				C138.4,79.1,135.9,81.1,133.5,83.3z M53.4,161c0.5,0,1,0,1.5,0c-1.3,0.7-2.5,1.3-3.9,1.8C51.8,162.1,52.6,161.5,53.4,161z
				 M125.1,108.1c-0.2,0.3-0.4,0.6-0.7,0.9c-3.2,2.4-6.4,4.7-9.7,7c-3.5,0.8-7,1.8-10.5,2.9c12.8-9.6,25.6-19.3,38.3-29.1
				C136.3,95.5,130.3,101.4,125.1,108.1z M46.1,167c4.4-0.5,8.5-2.5,12.3-4.7c1-0.6,1.9-1.1,2.8-1.7c0.1,0.1,0.1,0.2,0.2,0.3
				c-2.3,1.9-4.6,3.9-6.8,6C51.8,167,48.9,167,46.1,167L46.1,167z M116.4,157.7C116.4,157.7,116.5,157.7,116.4,157.7
				C116.5,157.7,116.4,157.7,116.4,157.7C116.4,157.7,116.4,157.7,116.4,157.7z M151,158.9c0,0.2,0.1,0.4,0.1,0.6
				c-0.4,0.2-0.7,0.4-1.1,0.6C150.3,159.6,150.6,159.2,151,158.9z M329.6,157.8c-0.1,0.2-0.2,0.4-0.4,0.7c-0.2,0.4-0.3,0.8-0.4,1.2
				c-0.7,0-1.3,0-2,0.1C327.8,159.1,328.7,158.5,329.6,157.8z M667.4,169.2c3.5-3.4,7.1-6.6,10.7-9.7c5.1-3.1,10.1-6.4,15.1-9.7
				c-1,0.9-2.1,1.8-3.1,2.7c-4.2,3.6-8.8,6.7-13.2,10.4c-2.5,2.1-5.1,4.5-7.2,7.1C669,169.7,668.2,169.5,667.4,169.2L667.4,169.2z
				 M742,104.8c-0.4,0.3-0.8,0.6-1.2,0.9c0.4-0.5,0.8-1,1.3-1.5C742.1,104.4,742,104.6,742,104.8L742,104.8z M741.3,90.3
				c-1.6,1.1-3.1,2.3-4.6,3.4c-2-0.3-4.1-0.3-6.2-0.2c0.1-1.2,0.3-2.3,0.4-3.4c3.6-2.8,7.2-5.6,10.9-8.2c0.1-0.1,0.2-0.1,0.2-0.2
				c0.1,2.7,0.1,5.4,0.1,8.1C741.9,90,741.6,90.1,741.3,90.3L741.3,90.3z M700.6,73.1c0.3-0.5,0.6-1,0.9-1.5
				c1.6-0.9,3.2-1.9,4.8-2.8C704.4,70.4,702.7,71.8,700.6,73.1L700.6,73.1z M578.2,50c-4.9,1.9-9.4,4.7-13.7,7.7
				c-0.7-0.4-1.4-0.6-2.2-0.6C566.8,54.5,572.5,51.5,578.2,50z M522.4,67.9c-0.1,0-0.1,0.1-0.2,0.1c-20.7,9.9-39.6,23.2-58.3,36.6
				c0.5-0.9,0.6-2.1,0.5-3.1c8.7-6.1,17.2-12.4,25.3-19.2c5.9-4.1,11.8-8,17.9-11.8c8.6-5.4,17.5-10.3,26.7-14.8
				C530.5,60,526.5,64,522.4,67.9L522.4,67.9z M485.2,74.6c-8.9,6.2-17.7,12.6-26.4,19.2c-0.2-0.4-0.5-0.8-0.9-1.2
				c-0.4-0.4-0.9-0.7-1.4-0.9c8.3-5.5,16.3-11.3,23.8-17.9c1,0.8,2.4,1.1,3.6,0.6c0.9-0.3,1.7-0.7,2.6-1.1
				C486.2,73.8,485.7,74.2,485.2,74.6L485.2,74.6z M480,57.9c-0.1,1-0.2,2.1-0.4,3.1c-6.7,4-13.2,8.4-19.6,12.8
				c-0.1-0.6-0.4-1.2-0.8-1.7c-0.5-0.6-1.1-1.1-1.7-1.3c0.1-0.1,0.2-0.1,0.2-0.2c7.1-4.5,14.3-8.9,21.8-12.8
				C479.7,57.9,479.8,57.9,480,57.9L480,57.9z M225,56.8c1-0.3,1.9-0.7,2.9-1.1c-0.1,0.1-0.1,0.1-0.2,0.2
				C226.8,56.2,225.9,56.5,225,56.8z M176,116.1C176,116.1,176,116.1,176,116.1c0,0,0.1-0.1,0.1-0.1C176,116,176,116.1,176,116.1
				L176,116.1z M173.2,66.4c4.3-3.3,8.7-6.5,13.1-9.7c-3.7,4-7.6,7.9-11.6,11.6C175,67.4,174.1,66.4,173.2,66.4L173.2,66.4z
				 M166.5,50.4c0.5-0.4,0.9-0.7,1.4-1.1c-0.2,0.5-0.5,1.1-0.8,1.6C167,50.7,166.8,50.5,166.5,50.4L166.5,50.4z M59.3,166.7
				c1.5-1.4,3.1-2.7,4.7-4c0.7,0.2,1.4,0.3,2.1,0.2c-0.5,0.5-1,0.9-1.5,1.4c-0.9,0.8-1.8,1.5-2.7,2.3
				C61,166.6,60.2,166.7,59.3,166.7L59.3,166.7z M93.4,163.1c-0.2,0.5-0.2,1-0.3,1.5c-1.1,0.1-2.2,0.1-3.3,0.2
				C91,164.2,92.2,163.6,93.4,163.1L93.4,163.1z M112.5,160.3c0.1,0,0.1,0.1,0.2,0.1c3.9,0.7,7.8,0.3,11.6-0.8
				c1.9,0,3.8-0.4,5.7-0.8c0.7,0.2,1.4,0.3,2.2,0.4c-0.5,0.5-1.1,0.9-1.6,1.4c-0.4,0.3-0.5,0.7-0.5,1.1c-7.5,0.6-15,1.3-22.5,1.9
				C109.2,162.5,110.9,161.4,112.5,160.3L112.5,160.3z M143.2,158.4c1.6-0.3,3.1-0.8,4.6-1.4c0.5-0.2,0.9-0.4,1.4-0.6
				c-1.2,1.2-2.2,2.5-3.2,3.9c-2.7,0.2-5.4,0.4-8.1,0.6C139.7,160.2,141.5,159.4,143.2,158.4L143.2,158.4z M327.8,162.7
				c-0.3,0.8-0.4,1.7-0.2,2.6c0-0.1-0.1-0.2-0.1-0.3c-0.5-0.8-1.1-1.5-1.8-2.2C326.4,162.7,327.1,162.7,327.8,162.7L327.8,162.7z
				 M598.7,175.8c4.9,1.1,9.8,1.8,14.8,2.2c0,0.2,0,0.4,0,0.6c-6.2-0.4-12.4-0.9-18.6-1.3C596.3,176.8,597.5,176.3,598.7,175.8z
				 M716.6,166.1c0,0.1,0,0.1,0,0.2c-0.2,0.2-0.5,0.3-0.7,0.5C716.2,166.5,716.4,166.3,716.6,166.1z M722.7,136.7c0-0.5,0-1,0-1.5
				c1.2-1.2,2.5-2.3,3.7-3.5C725.2,133.5,724,135.1,722.7,136.7z M643.6,50c2.3-1.9,4.6-3.8,6.9-5.7c0.5-0.4,0.8-0.9,1-1.5
				c2.8-0.1,5.7-0.2,8.5-0.3C654.6,45,649,47.4,643.6,50z M598.2,53.3c-1.7,0.8-3.4,1.7-5.1,2.7c1.9-1.8,3.8-3.5,5.7-5.3
				c0.9-0.8,1.3-1.8,1.3-2.9c4.2-0.5,8.5-1,12.7-1.5C607.8,48.5,603,51.1,598.2,53.3L598.2,53.3z M457.4,54.9
				c0.8-0.8,1.3-1.8,1.4-2.9c0.8-1.1,1.7-2.2,2.5-3.4c4.8,0.3,9.5,0.5,14.3,0.8C469.3,50.3,463.2,52.4,457.4,54.9z M412.5,45.8
				c-9.3,2.9-18.2,6.6-26.8,10.9c-1.3,0.1-2.7,0.2-4,0.3c1.3-1.5,1.8-3.7,0.7-5.5c-1.2-1.8-3-2.4-5.1-2.1c-3,0.5-5.8,1.6-8.4,3.1
				c0.5-0.5,0.9-1,1.3-1.5c1.4-0.5,2.9-0.9,4.5-1.3c7.2-1.9,13.6-2.5,20.9-3.1c4-0.3,7.9-0.7,11.8-1
				C409.1,45.6,410.8,45.7,412.5,45.8L412.5,45.8z M329.8,45.1c-0.1-0.1-0.1-0.2-0.2-0.3c-0.1-0.2-0.2-0.3-0.3-0.4
				c0.6,0,1.3,0,2-0.1C330.8,44.5,330.3,44.8,329.8,45.1L329.8,45.1z M219.6,55.5c0.1-0.3,0.3-0.5,0.4-0.8c0.2-0.3,0.3-0.7,0.3-1.1
				c2.8-0.7,5.6-1.2,8.5-1.5C225.8,53.4,222.7,54.5,219.6,55.5L219.6,55.5z M198.1,58.6c0.1,0.4,0.4,0.8,0.8,1
				c-3.1,2.2-6.2,4.4-9.3,6.6c2-2.1,3.9-4.1,5.8-6.3C196.3,59.5,197.2,59.1,198.1,58.6z M135.7,40c2,0.2,4,0.3,6,0.4
				c-8,3.4-15.5,8-22.6,13.2C124.5,49,130.1,44.4,135.7,40z M328,166.4c0.1,0.2,0.2,0.4,0.3,0.5c1.4,1.7,3.9,2.3,5.8,1.2
				c0.9-0.6,1.8-1.1,2.7-1.7c1.6-0.1,3.1-0.4,4.6-1c0.1,0.2,0.3,0.4,0.5,0.6c0.9,0.9,2,1.3,3.1,1.3c-0.5,1.3-0.9,2.6-1.1,3.9
				c-5.7-0.4-11.4-0.9-17.1-1.3C327.8,169,328.3,167.7,328,166.4L328,166.4z M361.6,171.4c1.3,0.6,2.9,0.7,4.1-0.1
				c1.1-0.7,1.9-1.9,2.1-3.1c0.6-0.1,1.3-0.2,1.9-0.3c-1.1,1.1-2.2,2.2-3.3,3.5c-0.6,0.5-1,1.1-1.5,1.8c-1.7-0.2-3.3-0.3-5-0.5
				C360.5,172.3,361.1,171.9,361.6,171.4L361.6,171.4z M427.4,175.9c5.3-0.2,10.5,0,15.8,0.7c0.1,0,0.2,0,0.2,0
				c-6.9,0.2-13.8,0.3-20.7,0.2C424.4,176.4,425.9,176.2,427.4,175.9z M496.6,173.6c0.1,0.3,0.2,0.6,0.4,0.8c-1.1,0-2.2,0.1-3.4,0.1
				C494.7,174.3,495.7,173.9,496.6,173.6L496.6,173.6z M519.4,168.8c1.1,2.1,3.5,3.4,6,1.7c2.8-1.9,5.6-3.7,8.4-5.6c0,0,0.1,0,0.2,0
				c-0.4,0.4-0.8,0.9-1.1,1.3c-1,1.3-1.6,2.7-1.2,4.4c0.4,1.4,1.7,2.9,3.1,3.1c4.3,0.6,8.5-0.5,12.4-2.5c-0.5,0.9-0.9,1.9-1.3,3
				c-7.5-0.3-15-0.4-22.5-0.4c-3.9,0-7.8,0.1-11.7,0.1C514.4,172.6,516.9,170.8,519.4,168.8L519.4,168.8z M584.9,174.8
				c0,0.4,0.1,0.8,0.3,1.1c0.1,0.2,0.2,0.4,0.3,0.6c-0.9-0.1-1.8-0.1-2.8-0.2C583.5,175.8,584.2,175.3,584.9,174.8L584.9,174.8z
				 M665.7,180.5c0.1,0.3,0.2,0.6,0.4,0.9c-2.2-0.1-4.4-0.1-6.7-0.2C661.5,181,663.6,180.8,665.7,180.5L665.7,180.5z M712.5,179.6
				c0.3,0.6,0.6,1.1,1.1,1.6c-1.7,0.1-3.3,0.1-5,0.2C710,180.8,711.3,180.2,712.5,179.6L712.5,179.6z M739.8,152.7
				c-0.3,0-0.6,0.1-0.9,0.1c0.3-0.4,0.7-0.9,1-1.3C739.8,151.9,739.8,152.3,739.8,152.7L739.8,152.7z M740.1,43.9c0.6,0,1.3,0,1.9,0
				c-0.2,5.5-0.3,11-0.2,16.5c-0.4,0.3-0.8,0.6-1.2,0.9c0.3-0.9,0.5-1.9,0.7-2.8c0.8-4-3-6.7-6.5-5.1c0-0.3-0.1-0.6-0.2-0.9
				c-0.2-1-0.7-1.9-1.3-2.6c0,0,0,0,0,0c1.3-2.3,0.5-4.4-1.1-5.6C734.9,44.1,737.5,43.9,740.1,43.9L740.1,43.9z M706,45.5
				c6.7,0.1,13.3-0.4,20-0.9c-4.5,3.5-9,6.8-13.8,9.9c0.2-0.3,0.4-0.6,0.6-1c1.4-2.5,0.2-5.9-2.7-6.6c-10.7-2.7-22.4,1.4-32.3,5.9
				c1.1-2.2,2-4.6,2.5-7.1c0.5-0.7,0.7-1.6,0.7-2.4C689.2,44.2,697.5,45.4,706,45.5L706,45.5z M481.7,37.9c25.5-1.1,51-2.9,76.5-3.7
				c22.2-0.7,44.2-0.2,66.3,1.5c-3.1,0.3-6.1,0.7-9.2,1.1c-9.2,1.2-18.3,2.2-27.5,3c-5.3-2.2-12-0.7-17.7,1.3
				c-0.8,0-1.6,0.1-2.4,0.1c-0.3-0.5-0.8-1-1.3-1.3c-9.4-6.3-21.6-1.9-31,2.1c0,0-0.1,0-0.1,0c-12.6,0-25.1-0.3-37.7-0.8
				c-0.7-0.2-1.5-0.3-2.3-0.1c-10.3-0.4-20.6-1-30.9-1.5c-6.8-0.4-13.5-0.8-20.2-1.2C456.9,38.6,469.3,38.4,481.7,37.9L481.7,37.9z
				 M362.1,44c-5.9,2.2-11.5,4.8-17.1,7.6c-0.4-0.2-0.9-0.3-1.3-0.4c1.1-2.4,0-5.3-2.2-6.3c-0.1-0.3-0.2-0.6-0.4-0.8
				c0,0,0,0-0.1-0.1C348,43.9,355.1,43.9,362.1,44L362.1,44z M318,44.8c-1.1,0.5-2.1,1-3.2,1.6c-0.8-0.2-1.6-0.2-2.5-0.1
				c-0.6,0.1-1.2,0.2-1.8,0.3c0.3-0.5,0.6-1,0.9-1.5C313.7,45.1,315.8,44.9,318,44.8L318,44.8z M300,46.1c-1.2,1.6-2.5,3.2-3.8,4.7
				c-1.7,0.6-3.4,1.3-5.1,1.9c0-0.2,0-0.3,0-0.5c0.3-0.3,0.6-0.5,1-0.8c1.2-1-0.1-2.8-1.4-2.5c1.6-0.9,3.3-1.7,5-2.5
				C297.2,46.3,298.6,46.2,300,46.1L300,46.1z M267.8,50.4c0.7-0.8,1.1-1.7,1.2-2.6c1.9,0,3.8,0,5.8-0.1c-1.2,0.8-2.4,1.6-3.6,2.4
				c-2,0.8-3.9,1.8-5.9,2.8C266.2,52.1,267,51.3,267.8,50.4L267.8,50.4z M255.6,50C255.6,50,255.5,50,255.6,50
				c-0.2-0.7-0.5-1.3-0.9-1.9c-0.1-0.2-0.3-0.4-0.5-0.5c1.2,0,2.5,0.1,3.7,0.1C257.1,48.5,256.3,49.2,255.6,50L255.6,50z
				 M221.8,45.5c8.3,0.8,16.7,1.4,25,1.8c-2.9,0.8-5.8,1.8-8.5,3c-0.4-0.2-0.8-0.3-1.2-0.4c-0.2-0.5-0.7-1-1.4-1
				c-4.8-0.2-9.5,0.4-14.1,1.4c-0.1,0-0.3-0.1-0.4-0.1c-0.5,0-1,0-1.4,0c-1.1-2.1-3.5-3.3-5.9-1.6c-1.1,0.8-2.2,1.7-3.4,2.5
				c-3.5,0.8-6.9,1.9-10.2,3.3c2.8-3.3,5.4-6.6,7.9-10.1C212.7,44.7,217.2,45.1,221.8,45.5L221.8,45.5z M187,45.2
				c0.6-0.8,1-1.6,1.1-2.5c0.8,0.1,1.5,0.1,2.3,0.2C189.3,43.6,188.2,44.4,187,45.2z M66.3,45.8c0.5-0.5,1-0.9,1.5-1.4
				c1.2-0.3,2.4-0.7,3.6-1.1c-3.9,3.3-7.7,6.6-11.5,9.9c-1.7,1.5-3.5,3-5.3,4.5C58.5,53.7,62.4,49.8,66.3,45.8L66.3,45.8z
				 M73.1,105.6c3.2-2.8,6.3-5.6,9.5-8.4c8.8-6.5,18.1-12.2,27.4-18.1c-17.8,14.6-35.7,29-54.5,42.4c-2.2,1.6-4.4,3.1-6.6,4.6
				C56.8,119,65.2,112.5,73.1,105.6L73.1,105.6z M49.6,10C49.6,10,49.6,10,49.6,10c0,0.1,0,0.1,0,0.2C49.6,10.2,49.6,10.1,49.6,10
				L49.6,10z M37.2,91c1.8-0.9,3.6-1.8,5.4-2.8c-1.9,1.8-3.7,3.7-5.5,5.5C37.1,92.8,37.2,91.9,37.2,91z M36.2,106.2
				c0.2,0,0.5-0.1,0.7-0.2c4.8-1.6,9.3-3.7,13.6-6c-5.1,3.9-10.1,7.9-14.8,12.1C35.9,110.1,36,108.1,36.2,106.2L36.2,106.2z
				 M39.3,179.2c-0.4-0.2-0.8-0.4-1.2-0.6c2.2,0.1,4.4,0.1,6.5,0.2c0.2,0.2,0.4,0.4,0.7,0.5C43.4,179.9,41.4,180.1,39.3,179.2
				L39.3,179.2z M53.9,175.9c0.2-0.1,0.4-0.2,0.6-0.3c10.3-0.3,20.6-0.9,30.9-1.5c1.8,0.1,3.7,0.2,5.5,0.4c3.2,0.2,6.5,0.5,9.7,0.7
				C85,175.7,69.5,176.1,53.9,175.9L53.9,175.9z M529.2,189.3c-20.2,2.1-40.5,4-60.8,4.6c-20.1,0.6-40.2,0.3-60.3-0.8
				c-39.7-2-79.2-6.6-118.7-10.9c-30.9-3.3-61.8-6.4-92.8-7.8c13.1-1.1,26.2-2.4,39.2-3.8c10.4,1,20.9,2.1,31.3,3.1
				c1.2,2.1,4,3.5,6.4,2c0.6-0.4,1.2-0.8,1.8-1.2c18.7,1.9,37.4,2.9,56.2,4.3c13.9,1.1,27.7,2.5,41.6,3.8c0.5,0.2,1.2,0.4,1.8,0.5
				c0.8,0.1,1.5,0,2.3-0.1c3.1,0.3,6.2,0.5,9.2,0.8c18.7,1.5,37.4,2,56.2,1.4c19.2-0.5,38.4-1.6,57.6-2.2
				c26.6-0.8,53.2,0.3,79.8,1.9C563,185.5,546.1,187.6,529.2,189.3L529.2,189.3z M688.8,181.7c-0.2,0-0.4,0-0.6,0
				c0.1,0,0.1,0,0.2-0.1c3-0.9,5.7-2.2,8.4-3.7c-0.2,1.4,0.2,2.7,1,3.7C694.8,181.7,691.8,181.7,688.8,181.7L688.8,181.7z
				 M735.9,178.5c0.1-0.3-0.6,0.8,0,0.2c-0.2,0.2-0.3,0.3-0.3,0.4c0,0-0.1,0.1-0.3,0.1c0,0-0.1,0.1-0.1,0.1c0,0-0.1,0-0.1,0
				c-0.4,0.2-0.9,0.3-1.4,0.4c-3.5,0.8-7.3,1-11.1,1.1c4.9-1.8,9.4-4.5,14.3-6.2c-0.1,0.6-0.2,1.2-0.4,1.8
				C736.3,177.2,736.1,177.8,735.9,178.5L735.9,178.5z M741.2,131.4c0,0.7-0.1,1.3-0.1,2c-0.5,0.2-1,0.5-1.5,1
				c-3.3,2.9-6.8,5.6-10.3,8.2c4.8-6,9-12.4,12.1-19.4C741.3,125.9,741.3,128.6,741.2,131.4L741.2,131.4z"/>
			<path class="st1" d="M180.2,45C180.2,45,180.1,45,180.2,45c-0.1,0-0.1-0.1-0.2-0.1C180,44.9,180.1,45,180.2,45L180.2,45z"/>
		</g>
	</g>
</g>
<g id="Livello_1-2_00000096781577879925186390000010459163163449254577_">
	<g>
		<path class="st1" d="M137.9,53.8c1.2,1,8.4-2.6,10.1-3c3.6-0.9,6.7-0.5,10.4-0.3c0.7,0,0.4-11.2-0.2-12.2c0.5,0.9,1.1,4.5,0.3,1.4
			c-0.2-0.6-0.2-1.2-0.5-1.7c-0.4-0.8-1-1.5-1.9-1.9c-2.1-1-5.1-0.3-7.2,0.3c-4.3,1.2-10.1,3.3-11.3,8.1
			C137.2,46.1,136.5,52.6,137.9,53.8L137.9,53.8z"/>
		<path class="st0" d="M140.7,69.3l-0.3,0.2c-2.2,1.6-2.2,7.3-0.3,9.2c3,3,9.5,1.3,13.2,1c2.8-0.2,5.5-0.2,8.3-0.1
			c1.4,0.1,4.1-0.3,5.1,0.4c2.9,2.1,2.7-6.8,2.5-7.7c-1.6-6.3-6.9-7.2-12.6-6.7c-3,0.2-6,0.7-8.9,1.4c-1.6,0.4-5.3,2.7-6.6,2.3
			c0.6,2.8,1.2,5.7,1.8,8.5l0.3-0.5C143.7,76.1,143.5,67.3,140.7,69.3L140.7,69.3L140.7,69.3z"/>
		<path class="st0" d="M150.4,78.4c0.9,13,2.1,25.4,0.6,38.5c-1.4,11.8-4.3,23.2,0.1,34.7c0.5,1.4,1.3,3,3,2.5
			c4.7-1.6,1.6-12.1,1.3-15.4c-0.6-6.4,2-14.3,2.6-21.1c0.6-7.4,0.8-14.8,0.5-22.2c-0.3-7.4-0.7-14.7-3.6-21.2
			C152.7,69.5,150.2,76.2,150.4,78.4L150.4,78.4L150.4,78.4z"/>
		<path class="st0" d="M139.3,156.5c3.2,5.2,11.7,1,16.7,0.8c2.4-0.1,5.6,0.7,7.4-1.1c2.4-2.4,2-6.8,1-9.7c-2.4-6.3-11-4.4-16.1-2.8
			c-3.2,1-6.5,2.4-8.3,5.4C138.9,151,138,154.5,139.3,156.5C139.3,156.5,139.3,156.5,139.3,156.5z"/>
		<path class="st0" d="M185.2,91.8c-6.6-2.5-10.8,4.5-14,9.2c-3.9,5.8-7.5,13.2-3.3,20c1.8,3,3.9,1.8,6.7,2.5c1.8,0.5,3.1,2,4.7,2.5
			c2.6,0.9,1.6-8.6-0.2-7.1c-0.4,0.3-0.6,1-1,1.4c-4.6,4.8-8.3,9.3-8.8,16.2c-0.1,1.4,1.2,9.9,3.9,6.2c3.9-5.4,10.3-9.7,11.7-16.5
			c0.9-4.4,0.3-9.8-2.9-13.2c-1.4-1.5-3.2-2.5-5.1-3.3c-0.9-0.4-2.6-1.2-3.6-1.2c-2,0-1.7-0.5-1.1,1.7l0.5,5.7
			c-0.1,1-1.3,2.7-0.2,1.5c0.5-0.5,0.8-1.3,1.2-1.9c0.8-1.2,1.5-2.3,2.3-3.4c2.2-3.2,4.5-6.7,8.7-6.9S188.5,93.1,185.2,91.8
			L185.2,91.8L185.2,91.8z"/>
		<path class="st0" d="M206.6,97.5c-6-8.5-15,6.8-16.6,11.3c-3.1,8.7-3.9,21.9,3.3,28.9c7.3,7,16.1-3.2,16.6-10.6
			c0.1-1.3,0.4-3.9-0.7-4.9c-1.9-1.8-4.3-0.5-6,0.6c-2.4,1.5-6,3.3-8,0.3c-0.5-0.7-0.6-1.6-0.7-2.5c0.1,1.1-0.3,1.5,0.2,0.3
			c0.8-1.8,1.1-3.7,2.1-5.4c1-1.7,2.3-3.6,4.1-4.7c1.9-1.3,4.1-1.5,5.7-3.2C209,105.2,208.2,99.8,206.6,97.5L206.6,97.5L206.6,97.5z
			"/>
		<path class="st0" d="M225.1,99.9l-0.1-0.9l-2.4,4.2l0.4,0.2c-0.3-3.4-0.6-6.8-0.9-10.2c-3.3,5.8-2.1,12.6-2.4,19
			c-0.4,7.9-1.5,15.9-1.3,23.9c0.1,1.8,0.5,6.1,2.8,6.5c2.3,0.5,3.1-3.3,3.2-4.9l0.1-1.4c0.1-1-0.1-7.8-2.7-7.2l-0.6,0.1l3.2,8.4
			c0.5-6.4,0.7-12.9,1.1-19.3c0.3-5.8-0.8-12,0.2-17.6c0.3-1.7,0.8-7.3-1.7-8.2c-2.7-0.9-3.1,3.8-3.1,5.5c0.1,2.2,0.6,3.6,1.4,5.5
			C223.8,106.8,225.4,101.2,225.1,99.9L225.1,99.9L225.1,99.9z"/>
		<path class="st0" d="M221.1,107.2c-0.2-2.6,4.4-3.4,6-3c1.8,0.4,2.6,1.8,4,2.6c-0.8-0.4,1.1-2.1-0.2-0.6c-1.6,1.7-2.2,4.1-4.1,5.7
			c-2.3,2-4.3,2.7-5.7,5.7c-1.3,2.7-1,7.4,1.4,9.4c4.4,3.7,11.1-6.7,12.6-10c2.7-6.1,3.2-14,0.1-20c-3-5.6-10-8.2-15-3.4
			c-4.6,4.5-5.4,12.8-2.5,18.5C219.9,116.3,221.3,108.9,221.1,107.2L221.1,107.2L221.1,107.2z"/>
		<path class="st0" d="M229.9,117.8c0.7,2.8,0,0-0.1-0.6c-0.3-1.4-1.3-3.2-2.9-2.5l-0.4,0.2c-2.2,0.9-2,5.9-1.7,7.5
			c0.8,4.8,2.8,9.1,4.6,13.6c1.4,3.4,2.2,7.2,5.2,9.4c1.1,0.8,2-1.3,2.1-2c2.3-9.2-3.1-20.3-8.1-27.9c0.4,2.8,0.8,5.5,1.2,8.2
			c-0.6,2.5,0.3-0.9,0.4-1.4C230.4,120.7,230.3,119.2,229.9,117.8L229.9,117.8L229.9,117.8z"/>
		<path class="st0" d="M246.6,96.3c-3.1,5.1-1.9,13.8-1.8,19.5c0.2,6.7,0.1,13.7,1.5,20.3c1.1,5.1,4.8,2.2,5.1-1.6
			c0.4-5.7-0.4-11.5-0.6-17.2c-0.2-5.7,0.3-10.9,0-16C250.6,100.1,248.8,92.5,246.6,96.3L246.6,96.3L246.6,96.3z"/>
		<path class="st0" d="M263,96.1c-0.4-0.8-0.8-1.8-1.5-2.4c-0.5-0.5-0.5,0.9-0.5,1.1c0.3,1.1,0.8,2,1.2,3c0.2,0.4,0.6,0.4,0.8,0
			C263.2,97.4,263.2,96.6,263,96.1L263,96.1L263,96.1z"/>
		<path class="st0" d="M259.8,97.4c4.5,4.8,14.8,3.3,20.8,3.3l-1.8-8.3c-4.3,8.3-7.6,17-12.9,24.8c-2.1,3.1-4.7,5.8-6.7,9.1
			c-0.6,1.1-1.2,2.2-1.6,3.3c-0.6,1.7-0.6,5.3-1.9,6.5c-1.1,1.1-1.3,7.2,0.9,6.1c1.9-1,3.7-2.1,5.8-2.2c2.6-0.2,5.3,0.4,7.9,0.3
			c2.6-0.1,5.4-0.7,7.9-1.6c3.9-1.5,5-3.9,7.1-7.4c0.4-0.7,0.8-3.4-0.5-3.5c-2.1-0.1-2.3-0.6-4-0.3c-1.2,0.2-2.2,0.8-3.3,1.2
			c-3.6,1.4-6.8,1.8-10.6,1.9c-5.1,0.2-7.4,2-11.2,5.5l1.7,4.6c1.3-4.2,2.6-8.3,5-12c2.1-3.2,4.5-6.2,6.7-9.4
			c4.4-6.6,9.3-13,12.9-20c0.8-1.6,1.1-8.3-1.8-8.3c-3.4,0.1-6.7,0.2-10.1,0.2c-2.7,0-7,0.6-9.1-1.3C259.1,88.2,258.4,96,259.8,97.4
			L259.8,97.4L259.8,97.4z"/>
		<path class="st0" d="M263.3,112.8c0.1,0.2,0.2,0.3,0.3,0.5l-0.7-1.8c0.4,3.4,3.1,6,5.6,8.1c1.1,1,2.9,2.9,4.4,3.1s3-1.1,3.5-2.5
			c1.1-3.1-1.8-6.5-4.2-8s-4.3-4.1-7.1-5.2c-0.6-0.2-1-0.1-1.4,0.4l-0.3,0.3C262.1,108.7,262.5,111.7,263.3,112.8L263.3,112.8
			L263.3,112.8z"/>
		<path class="st0" d="M292.8,97.3l-0.3-0.1c-1.2,0.2-1.7,1.5-1.9,2.6c-1.5,5.6-1.1,11.9-0.7,17.7c0.4,6.1,0.7,12.4,2.6,18.2
			c0.5,1.5,1.3,3,2.9,2s1.3-4.6,1.2-6c-0.6-6.5-1.5-12.9-1.8-19.5C294.5,107.9,296.5,100,292.8,97.3L292.8,97.3L292.8,97.3z"/>
		<path class="st0" d="M294.2,89.5L294.2,89.5l-0.4,0.7c0,0,0-0.1,0.1-0.1l-0.5,0.5c0,0,0,0,0.1,0l-0.6,0.2c0.6-0.1,0.7-0.2,1.1-0.7
			c0,0,0-0.1,0.1-0.1l-0.5,0.5c0.1-0.1,0.1-0.1,0.2-0.2c0.3-0.3,0.6-0.6,0.8-1c0.2-0.6,0.4-1.2,0.4-1.8c0.1-0.7,0-1.4-0.1-2.1
			l0.1,1.1c0-0.4,0-0.7-0.1-1.1c-0.1-0.5-0.2-0.9-0.3-1.4c-0.3-0.8-0.6-1.7-1.4-2.2c-0.4-0.2-0.7-0.2-1.1,0
			c-0.4,0.3-0.5,0.5-0.8,0.9c-0.3,0.5-0.5,0.9-0.6,1.5c-0.2,1.1-0.3,2.4-0.1,3.5c0.1,0.8,0.4,1.6,0.8,2.3c0.2,0.4,0.7,1,1.3,1
			C293.6,90.8,294,90.1,294.2,89.5L294.2,89.5L294.2,89.5z"/>
		<path class="st0" d="M308.6,98.4c-6.4-6.2-9.5,8.4-9.5,12.4c0,7.5,2.4,16.3,7.7,21.9c5.3,5.5,12.1,3.3,15.1-3.7
			c4.2-9.7-0.3-23.5-7.7-30.6c-2.5-2.4-7-6.5-10.7-4.1s-3.3,8.1-1.9,11.5c0.2,0.6,0.9,0.6,1.1,0c1.5-4.4,10.2,4.1,11.6,6
			c2.2,3,5.5,8.4,2.5,11.7c-1.4,1.6-3.4,2.3-5.4,1.5c-4.1-1.5-6.5-7.4-7.3-11.3c-1.1-5.4,1.9-6.4,4.5-10.6
			C309.4,102.1,309.7,99.5,308.6,98.4L308.6,98.4L308.6,98.4z"/>
		<path class="st0" d="M324.1,91.2c-0.3,6.7,1.2,13.4,1.6,20c0.4,6.7-0.1,14.1,1.1,20.9c0.4,2.2,2.7,4.3,3.3,0.9
			c1.3-7.7,0.5-16-0.1-23.7c-0.5-6.2-0.5-14.4-4.1-19.8C324.9,88.3,324.1,90.7,324.1,91.2L324.1,91.2L324.1,91.2z"/>
		<path class="st0" d="M327.1,107c2.6-0.9,4.5-3.4,7-4.6c1-0.5,6.2-2.6,7.6-1.1c1.8,2,0,9.8-0.4,12.5c-0.8,6-1.9,11.9-1.9,18
			c0,3.1-0.3,9.9,3.6,11c0.7,0.2,0.9-0.8,0.9-1.3c1.1-7.1,0.6-14.5,1.7-21.7c0.9-6.7,1.9-13.6,1.1-20.3c-0.5-3.8-1.7-8.6-6.2-9
			c-6.2-0.5-13.1,4.7-15.2,10.2C324.8,102.1,324.4,107.9,327.1,107L327.1,107L327.1,107z"/>
		<path class="st0" d="M374.5,93c-0.8-4-3-4.8-6.9-5.1c-3.3-0.3-7.7,0.2-10.1,2.8c-5.5,5.9-2.9,16-3.1,23.2
			c-0.2,5.9-1.4,17.7,6.3,19.6c3.4,0.8,7.2-0.9,10.3-1.9c3.7-1.3,8.4-1.8,10.1-5.6l-3.6-1.9c0,0.2-0.1,1,0.1,1.3
			c2,2.5,7.5-1,2.2-7.3c-0.6-0.8-1.2-0.8-2-0.5c-4.8,1.6-10.2,4.7-15.4,4.5s-2.4-8.1-2.5-11.6c-0.1-2-0.9-5.4-0.2-7.3
			c0.9-2.4,4-2.3,6.2-2.7C370.6,99.8,375.7,98.9,374.5,93L374.5,93L374.5,93z"/>
		<path class="st0" d="M354.2,116.5c1.4,2.2,7.4-0.2,9.3-0.8c2-0.7,3.5-1.8,5.2-3.1c1.6-1.1,3.1-1.8,4.1-3.6
			c0.4-0.6,0.4-1.8-0.2-2.3c-1.5-1.2-3.8-1.2-5.6-1.7c-2.6-0.6-5-0.1-7.5,0.7c-1.7,0.5-3.8,0.9-5.1,2.3
			C352.6,110.1,352.8,114.2,354.2,116.5L354.2,116.5L354.2,116.5z"/>
		<path class="st0" d="M440.1,79.8c-4.7-8.1-17-23.3-27.2-14.1c-8.1,7.3-9.3,21.6-10.9,31.6c-2.3,14.2-3.5,29.6,1.6,43.5
			c2.4,6.6,10.1,22.1,19.6,17c5.8-3.2,8.8-11.9,10.2-17.9c2-8.1,1.6-16.6,1.7-24.9l-5.8,1.9c2.2,11.2,5.2,22.4,7.1,33.6
			c0.7,3.9,1.9,19.5,7.9,18.8c3.2-0.3,2.5-7.2,1.5-9l-0.2-0.3c-0.3-0.5-0.7-1.2-1.4-1.2c-1.5,0-1.7,2.1-1.8,3.2l1.8-3.2H444
			c0.7,0.8,1.4,1.7,2.1,2.6c-2-6.3-3.1-12.5-4.5-19c-2.4-10.2-4.7-20.5-7-30.7c-0.4-1.6-1.6-3.8-3.5-2.9s-2,4.8-2,6.4
			c0,6.4,0.6,13.1-0.9,19.5c-1.1,4.6-4.3,14.5-10.7,12.4c-4.4-1.4-7.4-7-9.2-10.8c-2.8-6-3.4-12.7-3.3-19.2
			c0.1-7.2,1.2-14.4,2.6-21.5c0.9-4.6,1.7-9.5,4-13.7c7.1-12.8,19.3-0.2,25.9,6.3C440.8,91.5,441.1,81.6,440.1,79.8L440.1,79.8
			L440.1,79.8z"/>
		<path class="st0" d="M412.5,119.4c2,2.6-2.5,8.3,2.4,6.7c1-0.3,2-0.6,3-1c2.6-0.9,5.3-1.8,8-2.7c4.1-1.4,8.2-2.6,12.3-4.2
			s13-4.2,12.4-10c-0.7-7.2-9.6-4.2-13.7-2.6c-9,3.4-19.9,6-26.9,12.9l3.1,5C413.2,121.9,413.4,120.7,412.5,119.4L412.5,119.4
			L412.5,119.4z"/>
		<path class="st0" d="M455.2,120.3c2,4,1.4,8.3,1.3,12.6c-0.1,3.8-0.6,9.1,2,12.2c1.8,2.2,3.1-1.7,3.2-3c0.3-5.2,0-10.9-0.3-16.1
			c-0.2-3.8-0.6-10.6-4.7-12.4C454.1,112.5,454.7,119.2,455.2,120.3L455.2,120.3L455.2,120.3z"/>
		<path class="st0" d="M458.8,102c0.7,0,1.2-0.8,1.4-1.4c0.2-0.5,0.3-1,0.4-1.5c0.1-0.6,0.2-1.2,0.1-1.8c0-1.1-0.2-2.2-0.7-3.2
			c-0.3-0.6-0.7-1.3-1.5-1.3c-0.7,0-1.2,0.8-1.4,1.4c-0.2,0.5-0.3,1-0.4,1.5c-0.1,0.6-0.2,1.2-0.1,1.8c0,1.1,0.2,2.2,0.7,3.2
			C457.7,101.3,458.1,102,458.8,102L458.8,102z"/>
		<path class="st0" d="M474.2,108.1c1.1,4.6-0.3-1.2-0.4-1.7c-0.3-1.2-1.3-3.2-2.8-2.4c-3.6,1.9-4.3,7.2-4.6,10.8
			c-0.5,5.5,0.4,11.3,2,16.6c1.8,6.1,7.5,19.4,15.9,13.5c10.3-7.2,6.7-27.4,1.2-36.5c-1.6-2.7-5.8-9.2-9.7-7.5
			c-3.6,1.6-3.2,9.5-1.1,12.2c0.3,0.3,0.8,0.4,1,0c0.4-0.7,0.7-1.4,1-2.2l-1.9,1.1c3.6,1,6.3,4.3,7.9,7.9c1.5,3.4,4,14.5-3.2,13.6
			c-5.8-0.8-10-16.1-6-19.9C474.8,112.1,474.7,109.8,474.2,108.1L474.2,108.1L474.2,108.1z"/>
		<path class="st0" d="M509.2,106.6c-2.8-7.4-11.7-16.6-17.3-5.7c-4.4,8.4-1.3,19,0.7,27.7c1.5,6.5,3.9,16.6,11.4,18.7
			c10.5,2.8,9.1-10.9,10.4-17c0-0.2-0.2-2.1-0.7-1.4c-1.6,2.9-2.8,5.9-6.4,6.6c-5.6,1.1-7.9-4.9-9-9.2c-1.1-4.1-2.5-8.8-2.7-13
			c-0.1-2.4,1-5.1,4.1-4.8c2.7,0.3,4.7,3.9,6.2,5.8C509,117.9,509.8,108.2,509.2,106.6L509.2,106.6L509.2,106.6z"/>
		<path class="st0" d="M520.9,140.2c-0.7-4.5,1.3-10.4,2-14.9c1.3-8.1,2.6-16.1,5.1-23.9l-3.5,2.2c4.5,4.7,3.6,13.6,4.5,19.7
			c0.6,4.2,0.9,8.5,1.6,12.7c0.6,3.5,1.1,8.6,3.9,11c3.1,2.7,3.6-4.3,3.3-6c-0.9-4.7-2.3-9.1-2.9-13.9c-0.5-4.1-1.1-8.2-1.6-12.3
			c-0.7-7.1-1.2-15.7-6.5-21.2c-1.8-1.9-3,0.5-3.5,2.2c-2.9,9.2-4.3,18.6-5.7,28.1c-1,6.7-2.3,13.7-0.8,20.4c0.3,1.6,1.4,2.9,2.9,2
			C521.2,145.2,521.1,141.6,520.9,140.2L520.9,140.2L520.9,140.2z"/>
		<path class="st0" d="M520.2,129.8c2.2,2.3,5,1.8,7.9,1.1c1.5-0.4,3-0.9,4.4-1.4c2-0.7,3.2-1.9,4.8-3.4c0.8-0.8,0.7-2.4,0.1-3.3
			c-2.2-3.5-4.4-4.9-8.5-3.7c-2.7,0.8-6,2-8.4,3.5C518.6,123.8,518.9,128.4,520.2,129.8L520.2,129.8L520.2,129.8z"/>
		<path class="st0" d="M552.4,102.4c4.2,10.4-2.2,22.4,1.4,33.3c2,6,4.9-0.9,4.2-4.1c-2.2-11.4,4.5-26.3-3.4-36.3
			c-1.2-1.5-2.2,0.2-2.6,1.2C551.3,98.2,551.7,100.7,552.4,102.4L552.4,102.4L552.4,102.4z"/>
		<path class="st0" d="M541.5,97.5c3.6,8.8-4,9.1,1.9,9.1c1.4,0,2.7-0.2,4.1-0.4c3.1-0.4,6.2-0.7,9.2-1.1c5.7-0.8,11.4-1.6,16.4-4.3
			c0.9-0.5,0.8-2.8,0.1-3.4c-4.5-4.5-9.7-5.6-16-5.3c-5.1,0.2-13.8,1-17.8,4.1l2.8,3.4C542.1,98.7,541.8,98.2,541.5,97.5L541.5,97.5
			L541.5,97.5z"/>
		<path class="st0" d="M583.7,100.3c-8.7,2.9-6,20.7-5,27.2c1,6.6,9.6,24.5,16.8,12.6c3.3-5.6,3.8-12.8,3.4-19.1
			c-0.4-6.8-1.6-14.4-4.9-20.5c-2.3-4.2-7-7.3-10.7-2.6c-3.2,4.2-4,11.1-3.3,16.2c0.1,0.7,0.7,1.8,1.3,0.7c1.8-3.6,6.5-9.4,9.5-3.6
			c2.4,4.6,5.3,17,1.2,21.2c-4.5,4.5-8.4-5.6-8.9-8.8c-0.6-3.9-2.4-12.5,2.1-14.5C587.4,108,586.8,99.3,583.7,100.3L583.7,100.3
			L583.7,100.3z"/>
		<path class="st0" d="M605.3,101.7l-0.2-2.1c0.2-3.2-2.5-6.8-3.2-1.8c-0.4,3.3,0.4,6.2,0.8,9.4c0.5,3.8,0.8,7.6,1.1,11.4
			c0.4,7.2,0.2,14.5,1.4,21.5c0.8,4.6,4.5,4.8,4.7-0.1c0.2-2.9-0.1-5.3-1.2-8c-0.7-1.6-1.5,0.2-1.6,1l-0.3,0.4l3.2,5.1
			c0.1-8.1-0.7-16.3-1.4-24.4c-0.4-3.9-0.9-7.8-1.7-11.7c-0.5-2.6-0.7-5.7-3-7.3l-1.1,6.7l1.6,2.1
			C605.1,105.5,605.6,102.4,605.3,101.7L605.3,101.7L605.3,101.7z"/>
		<path class="st0" d="M599.8,101.3l0.1-0.5l-1,1.3h0.1c0.3,0,0.6-0.2,0.8-0.5c2.8-4.8,12.4-5.4,15.8-1.3c2.6,3.2,0.2,6.9-2,9.6
			c-2.7,3.3-5.6,4.9-7.4,8.9c-0.3,0.7-0.3,2,0.2,2.5c5.3,5.7,11.8-4.7,13.5-9.2c2.6-6.8,2.4-16.1-3-21.5c-4.2-4.3-11.8-3.9-16.1,0.1
			c-2,1.8-3.2,4.4-3.3,7.1c-0.1,2.2,0.2,3.7,1.4,4.6C599.5,102.9,599.8,101.5,599.8,101.3L599.8,101.3L599.8,101.3z"/>
		<path class="st0" d="M611.3,118.7c1,5,2.9,10,4.6,14.7c1.3,3.6,2.9,9.6,6.8,11.1c3.1,1.2,2.3-6.1,1.8-7.4
			c-1.8-4.3-4.1-8.2-5.7-12.6c-1.2-3.3-2.2-8.2-4.8-10.7C611.6,111.7,611.1,117.4,611.3,118.7L611.3,118.7L611.3,118.7z"/>
		<path class="st0" d="M633.7,96.5c-4.2,3.2-2.2,13.9-1.8,18.3c0.7,7.4,0.9,15.7,2.8,22.9c1.3,4.7,4.2,1.9,4.7-1.5
			c0.2-1.2,0.3-2.6-0.1-3.7c0.2,2.5,0.4,3,0.4,1.4c0.1-0.8,0-1.7-0.1-2.5c-0.2-4-0.9-8.1-1.5-12.1s-1.2-8.2-1.4-12.4
			c-0.2-3.2,0.2-6.5-1.3-9.4C635.1,96.9,634.5,95.9,633.7,96.5L633.7,96.5L633.7,96.5z"/>
		<path class="st0" d="M631.2,88.3c0.3,0.4,1.1,0.3,1.5,0.1c0.1,0,0.2-0.2,0.2-0.2c0.2-0.2,0.4-0.3,0.6-0.5c0.1-0.1,0.5-0.2,0.1-0.1
			c-0.4,0.1,0.1,0,0.2,0c0.7,0,1.3-0.1,1.8-0.6l-3.3-7c-0.2,1.4-0.1,2.7,0,4.1l0.3-3.2c-0.5,0.9-0.9,1.8-1.3,2.8
			c-0.3,1-0.9,1.9-1.3,2.8c-0.2,0.3-0.2,2.4,0.5,1.9c0.3-0.2,0.5-0.4,0.8-0.6c0.4-0.3,0.5-0.2,0.9-0.3c0.7-0.2,1.1-0.5,1.7-0.9
			l-0.8,0c0.6,0.4,1.1,0.6,1.8,0.7c1.7,0,2.3-3.2,2.4-4.3c0.2-2,0.1-4.9-1.3-6.5c-0.9-1.1-2.2-1.7-3.5-0.8c-0.9,0.5-1.5,1.5-1.9,2.4
			c-0.2,0.5-1,2.7-0.3,1c-0.3,0.9-0.5,1.7-0.7,2.7c-0.1,1-0.1,2.1,0,3.1c0.1,0.8,0.3,1.5,0.6,2.2C630.4,87.6,630.8,88,631.2,88.3
			L631.2,88.3L631.2,88.3z"/>
	</g>
</g>
</svg>
