<?xml version="1.0" encoding="UTF-8"?>
<svg id="Livello_2" data-name="Livello 2" xmlns="http://www.w3.org/2000/svg" viewBox="0 0 752.71 177.04">
  <defs>
    <style>
      .cls-1 {
        fill: #dedaf4;
      }

      .cls-1, .cls-2, .cls-3, .cls-4 {
        stroke-width: 0px;
      }

      .cls-2 {
        fill: #fff;
      }

      .cls-3 {
        fill: #9e8d8d;
      }

      .cls-4 {
        fill: #b9b5e2;
      }
    </style>
  </defs>
  <g id="Livello_1-2" data-name="Livello 1">
    <g>
      <path class="cls-4" d="m18.72,56.33c-.03-1.88,2.86-2.09.14-3.03-14.23.37-15.28-2.35-17.89,11.5-2.61,13.83.82,29.68,1.47,43.39.93,19.57-.6,39.35.15,58.87,42.82,2.33,84.66,4.14,127.4,6.06,39.71,1.78,79.3-.7,119.18,3.04,23.36,2.19,46.19-.07,69.38-2.92,27.43-3.38,54.08-2.89,81.56-1.44,53.33,2.8,107.26-.07,160.67-.08,51.07,0,104.3-.53,153.03-12.1,6.92-21.86,3.88-49.17,4.99-71.89.59-12.2,3.97-21.01-7.16-29.07-9.36-6.78-24.7-5.35-35.46-6.88-25.47-3.63-45.58-1.97-71.24-.62-26.67,1.41-54.18-3.03-80.84-3.71-32.34-.82-61.84-9.96-94.63-7.4-27.65,2.16-56.18,4.18-83.84,4.11-54.27-.12-109.41,2.03-163.92,4.76-58.79,2.95-118.82,10.49-177.27,7.15,2.03-1.65,1.03-1.95.97-2.71"/>
      <path class="cls-1" d="m749.82,134.52c-1.49.07-3.03.07-4.59,0-.1-.73-.17-1.43-.23-2.03,3.54-6.39,1.95-15.88.46-23.4.42-4.94.9-9.89.96-14.83.02-1.82-1.31-2.77-2.72-2.88-.14-1.9-.31-3.8-.54-5.71.16-12.46,1.86-24.98,1.69-37.46-.02-1.18-.72-2.09-1.65-2.58.29-1.56.61-3.1,1.03-4.63.49-.35.86-.88,1-1.62.22-1.15.45-2.21.8-3.3.54-.22,1.04-.56,1.44-1.08.18-.14.36-.28.55-.42,2.87-2.07-.32-5.53-3.32-5.01-10.87,1.85-22.42.96-33.44,1.21-12.21.27-24.41.73-36.61,1.25-7.21.31-14.41.64-21.62.97-5.82-.45-11.65-.81-17.5-.94-19.14-.44-38.23.97-57.15,3.74-40.18,1.11-80.37,1.95-120.53,3.7-23.96,1.04-47.93,1.34-71.89.3-12.86-.56-25.66-.85-38.46-.96-14.64-1.92-29.46-2.09-44.2-1.25-6.2.35-12.35.98-18.5,1.71-14.28.22-28.56.49-42.84.94-23.69.73-47.4,1.43-71.11.83-26.97-.68-53.59-3.29-80.63-2.35-13.25.46-26.46,1.84-39.72,2.02-6.56.09-13.12-.04-19.68-.2.52-1.5,1.02-3,1.44-4.53,1.02-3.75-5.56-5.35-6.58-1.59-.28,1.04-.58,2.08-.89,3.11l-.28-.83c-.29-3.05-3.79-3.97-5.59-1.51-1.07,1.47-1.74,3.19-2.16,5.04-2.38-.04-4.75-.07-7.13-.07-4.39-.01-4.4,5.99,0,6,2.16,0,4.32.03,6.48.07-.07,2.98.11,5.96.05,8.53-.19,8.36.12,16.71.17,25.07-.35,3.39-.69,6.77-.99,10.16-1.77,19.64-4.77,39.37-4.6,59.1,0,0,0,.02,0,.03-1.3-.13-2.67.48-3.18,2.07-.14.5-.32.99-.53,1.47-.6,1.54.67,3.26,2.1,3.69,9.32,2.81,18.49,2.04,28.05,1.37,4.62-.33,9.25-.16,13.89-.6,4.27-.4,8.54-.94,12.84-1.05,1.25,0,2.51,0,3.76-.03.12,0,.24,0,.36,0,9.45.07,18.73.74,28.27-.04,4.03-.33,8.05-.76,12.06-1.2,11.44.1,22.88.7,34.33.67,12.77-.04,25.53-.39,38.28-.88,2.31.26,4.63.53,6.95.81,10.17,1.23,20.37,2.42,30.61,2.75,9.81.32,19.62-.31,29.42-.67,39.27-1.45,78.44-4.24,117.57-7.86,11.58-.12,23.16-.26,34.74-.49,14.77,1.23,23.87,2.6,24.73,4.1h15.15c0-1.98,6.06-3.96,15.9-5.55,38.07-1.1,76.14-2.26,114.23-2.72,2.54-.03,5.08-.04,7.62-.06,2.58.81,5.17,1.63,7.82,2.19,9.12,1.92,18.57,1.17,27.82,1.54,8.45.34,16.83.22,25.06-1.72,10.3.52,20.61.91,30.91,1.52,4.93.29,9.88.49,14.79-.15,5.35-.7,10.34-2.87,15.78-2.99.15,0,.28-.03.41-.05,3.3.46,6.44.42,10.31-.05,2.64-.32,5.23-.23,7.81-.07-.07,1.26-.14,2.52-.04,3.79.27,3.46,5.33,3.96,6.71.8.54-1.23,1-2.48,1.42-3.73,1-.25,2-.5,2.98-.81,3.66-1.14,2.83-5.15-.29-5.76-.08-.49-.31-.92-.68-1.25.08-.42.15-.84.22-1.25.1-.03.21-.07.31-.11,3.38,1.73,7.19,2.79,11.06,3.33.96,2.33,2.45,4.2,4.76,5.13,2.93,1.18,4.5-2.5,3.03-4.65.6,0,1.19-.02,1.77-.05,3.84-.18,3.87-6.18,0-6Zm-21.94-34.58c.61-2.16,1.23-4.38,1.84-6.63-.9,6.55-2.26,13.02-3.57,19.51-.54.11-1.05.31-1.46.63,1.03-4.21,2.11-8.76,3.19-13.51Zm-4.21,19.03c-.18,3.57-.83,7.14-1.71,10.66-.47-.03-.98.1-1.49.39.85-3.23,1.87-7.12,2.97-11.5.07.16.14.31.24.45Zm-475.07,24.41c14.97.26,29.92.58,44.44.95-.09,0-.19,0-.28,0-14.72.25-29.43.77-44.14,1.4.34-.75.31-1.6-.01-2.35Zm458.88-39.69c.24-.18.44-.3.58-.36.47-.03.92-.09,1.36-.18-.95,3.59-1.74,5.67-1.74,5.67,0,2.98-4.54,3.95-9.06,4.27.63-.79,1.26-1.58,1.9-2.35,1.5-1.8,3.06-3.56,4.8-5.19.64-.6,1.69-1.51,2.15-1.86Zm-10.01,34.61c-.12,0-.23.02-.35.02-.5-.14-1-.28-1.52-.41-.6-.14-1.19-.23-1.78-.3.18-.19.35-.39.51-.62.8-1.21.57-2.36-.2-3.19,4.04.52,7.69,2.05,10.56,3.86-2.39.35-4.82.47-7.22.64Zm-53.86-12.46c-1.11.98-2.34,1.36-3.51,1.31,8.35-12.02,20.99-21.6,32.18-30.52-9.01,10.26-18.42,20.13-28.67,29.21Zm-35,12.9c-1.71,0-3.41-.02-5.12-.02,1.69-.2,3.39-.39,5.1-.59-.02.21-.01.41.01.62Zm-220-11.39c-9.95,3.64-16.74,3.79-14.14-.79,0,0,10.1-8.87,25.24-17.74,15.15-8.87,30.29-22.18,40.39-26.62,6.02-5.29,12.02-8.98,16.97-11.12-11.71,8.71-24.08,16.69-36.11,25.05-6.24,4.34-12.65,8.35-19.01,12.53-5.51,3.63-11.76,8.13-14.02,14.09-.62,1.63-.26,3.26.67,4.59Zm-75.84-28.32c1.46-1.21,2.93-2.4,4.41-3.59-1.28,1.37-2.56,2.75-3.83,4.13-1.8,1.15-3.61,2.3-5.41,3.45,1.61-1.33,3.23-2.66,4.83-3.99Zm-8.35-35.52c1.63-2.28,6.46-7.92,14.52-7.92,5.98-1.31,8.39-.28,7.68,2.5-1.09.79-2.17,1.59-3.24,2.39-1.73-2.58-5.31-4.15-9.07-2.15-3.28,1.75-6.58,3.46-9.89,5.17Zm22.17,40.63c.45-.29.91-.58,1.37-.87-2.69,2.86-5.24,5.87-7.55,9.12-.59.83-.61,1.69-.3,2.45-2.84,1.85-5.57,3.61-8.1,5.23,4.85-5.31,9.66-10.66,14.58-15.92Zm237.82,21.91c-7.26-1.51-3.35-6.46,17.06-17.22.82-1.08,1.64-2.09,2.46-3.06,3.73-2.36,7.42-4.77,11.1-7.24,2.28-1.53,4.58-3.03,6.88-4.53-4.14,3.88-8.26,7.77-12.55,11.53-6.17,5.42-12.15,10.91-17.05,17.28-.56.73-.89,1.45-1.05,2.14-2.28.35-4.56.72-6.84,1.1Zm44.61-59.57c4.04-.74,5.38-3.69,4.77-6.45h3.01c0,2.92-10.97,13.56-28.56,28.09-.61.41-1.23.81-1.84,1.22-2.58,1.74-5.29,3.41-8.05,5.05.49-.45.99-.88,1.48-1.33,6.8-6.2,13.72-12.31,20.57-18.47,1.77-1.59,3.49-3.22,5.26-4.81.9-.81,1.81-1.61,2.73-2.39.95-.81,2.59-1.27.63-.91Zm9.93,44.73c.3.43.69.78,1.13,1.01-1.94,1.78-3.72,3.7-5.24,5.83l-5.9,1.04c3.44-2.51,6.76-5.16,10.01-7.88Zm8.98-48.46c1.36-3.5,3.9-5.15,6.71-4.14-2.24,1.38-4.48,2.76-6.71,4.14Zm1.13,49.06c1.64-1.33,3.32-2.61,5.01-3.89-1.23,1.02-2.47,2.03-3.69,3.07-.44.28-.88.55-1.32.82Zm-98.75,14.96c-14.47,4.11-14.19-.39,5.71-13.49,4.98-3.83,9.66-7.46,14.03-10.88-.35.3-.69.61-1.04.91-6.39,5.48-14.86,11.07-18.61,18.37-.94,1.83-.82,3.6-.08,5.09Zm-45.1-8.84c6.32-4.69,12.73-9.32,19.25-13.82-1.43,1.51-2.84,3.04-4.21,4.6-5.41,6.18-10.71,12.9-17.69,17.83-.69.02-1.37.04-2.08.04-2.43,0-4.47,0-6.14-.02,3.58-2.92,7.14-5.86,10.87-8.63Zm-50.17-4.66c1.46-1.28,3.13-2.66,4.95-4.1,6.02-3.69,12.25-7.11,18.23-10.82-4.43,3.5-8.85,7.03-13.17,10.66-.61-.12-1.28-.06-1.98.31-3.67,1.92-7.12,4.24-10.71,6.3l2.67-2.35Zm77.93.67c-.11.47-.14.96-.11,1.44-1.14.85-2.26,1.63-3.36,2.37,1.15-1.28,2.3-2.56,3.47-3.81Zm9.75-9.85c1.18-1.13,2.35-2.25,3.56-3.37,7.5-6.9,15.12-13.71,22.71-20.54,4.45-4.01,8.87-9.13,13.91-13.16.29-.22.57-.44.85-.66,1.98-1.51,4.05-2.85,6.27-3.87,1.64-.76,2.62-1.82,3.09-2.98,1.82.99,3.01,2.42,3.24,4.29-4.88,3.42-9.69,6.94-14.54,10.36-13.51,9.55-26.63,19.38-39.1,29.93Zm-102.83,22.5c2.51.12,5.06-.44,7.6-1.4-.96.99-1.9,1.99-2.84,3.01-2.18-.03-4.36-.05-6.53-.04l1.78-1.56Zm177.42-5.45l-5.76,1.01,3.53-3.1c.54.8,1.32,1.52,2.23,2.09Zm38.52,1.64c-.26-.21-.56-.37-.91-.47-.06-1.2.4-2.44,1.61-3.51,5.39-4.78,10.55-9.79,15.55-14.95.32-.19.64-.39.97-.58.84-.48,1.27-1.17,1.41-1.9,1.93-2.04,3.84-4.09,5.73-6.17,1.28-.9,2.56-1.81,3.86-2.69,8.7-5.89,16.74-12.57,24.57-19.56,1.13-1.01,2.26-2.01,3.39-3.02-1.41,1.9-2.87,3.74-4.49,5.48-6.22,6.69-13.53,12.24-20.64,17.93-10.84,8.69-22.75,17.95-31.05,29.45Zm56.57-61.36c-4.59,4.5-9.42,8.92-14.43,13.11,2.85-3.46,5.69-6.93,8.51-10.42.21-.76.63-1.5,1.32-2.19.8-.8,1.6-1.6,2.4-2.4,1.68-1.68,3.58-1.86,5.14-1.18-1.02,1.1-2,2.16-2.94,3.08Zm-14.43,5.95c.8-2.09,1.47-3.8,2.12-5.22,2.83-2.1,5.66-4.21,8.49-6.32.52-.05,1.08-.09,1.68-.12-1.77,1.72-3.5,3.47-5.28,5.11-2.34,2.18-4.68,4.36-7.02,6.54Zm-330.98-10.31c.05-.48.01-.95-.08-1.42.62-.03,1.38-.03,2.31-.03.06,0,.12,0,.18,0-.82.46-1.62.94-2.41,1.44Zm-8.49,72.6c1.81,1.06,4.15,1.21,6.54-.33,7.66-4.95,15-10.25,22.3-15.6-6.34,5.16-12.52,10.47-18.23,16.21-4.98,2.39-9.08,3.11-14.02,2.44,1.13-.92,2.27-1.82,3.41-2.72Zm16.02-37.79c-5.67,3.58-11.44,7.02-17.24,10.38,9.14-8.65,19.55-16.11,28.44-24.96.45-.45.7-.96.8-1.49,1.06-.87,2.03-1.69,2.89-2.45,10.1-8.87,20.19-13.31,20.19-13.31,5.05,0-5.05,8.87-15.15,17.74-5.9,4.32-12.76,9.14-19.94,14.08Zm322.85,8.33c3.38-3.59,6.81-7.13,10.33-10.61-3.39,3.59-6.86,7.12-10.33,10.66v-.05Zm-88.64-58.67c15.54-.45,31.08-1.07,46.61-1.74-7.34.59-15.11,1.16-23.19,1.72-1.2-.18-2.45-.13-3.62.24-14.57.97-29.95,1.87-45.16,2.63,5.02-.94,10.06-1.79,15.11-2.54,3.42-.1,6.84-.21,10.26-.31ZM183.7,118.32c1.21-1.3,1.59-2.86,1.38-4.37.15-.16.3-.31.42-.42.21-.18.43-.35.64-.52,1.24-.13,2.47-.32,3.72-.64,1.91-.48,2.42-2.22,1.98-3.69,1.91-1.42,3.83-2.84,5.73-4.27,7.83-5.9,15.76-11.7,23.64-17.54,7.49-5.55,14.45-11.56,21.74-17.31,2.93-2.31,5.93-4.54,9.01-6.69.93-.64,2.61-2.02,4.05-2.87h6.72c-.55.43-1.1.86-1.65,1.28-7.26,1.67-18.58,8.21-27.97,16.46-16.7,17.61-35.6,33.26-49.41,40.57Zm20.58,3.15c-.25.34-.45.68-.6,1.02-.34-.08-.65-.19-.87-.38,0,0,.19-.25.57-.71.29.04.59.06.9.07Zm-58.76-1.29c-10.3,6.03-18.43,10.8-18.43,10.8-10.1,0,10.1-17.74,35.34-31.05,4.3-3.78,8.61-7.57,12.52-11.35.53-.19,1.07-.35,1.61-.5-9.14,8.41-18.58,16.53-29.22,23.48-3.49,2.28-3.53,6.02-1.82,8.62Zm-123.16-23.89c-.09-1.56-.16-3.11-.18-4.62,0-.71,0-1.41-.01-2.12.78-8.65,1.68-17.3,2.88-25.92.33-2.41.65-4.84,1.06-7.24v3.61c0,10.44-1.56,23.6-3.75,36.29Zm190.97-25.16c4.43-3.72,9.02-7.29,13.83-10.64.55-.06,1.1-.19,1.65-.4,1.83-.02,3.77-.04,5.77-.05-4.67,3.59-9.17,7.35-13.73,11.05-1.11-.36-2.61-.5-4.4-.38-.79-.45-1.77-.5-2.75.19-.11.07-.21.15-.32.23-.02,0-.04,0-.06.01Zm-126.02,52.26c.88-.55,1.56-1.22,2.03-1.97,1.25-.98,2.7-1.9,4.17-2.79-1.71,1.7-3.51,3.41-5.43,4.9-.24-.08-.5-.12-.76-.14Zm10.01-9.1c-.05.12-.07.25-.1.38-1.08-.59-1.97-1.54-2.46-2.66,1.55-1.73,3.14-3.42,4.76-5.08.8-.68,1.6-1.36,2.41-2.04-1.79,2.98-3.35,6.1-4.62,9.4Zm46.93-20.44c10.42-8.91,20.52-18.75,32.26-26.47-.12,3.98-10.71,12.97-39.34,32.55-.14.13-.28.24-.43.37-.16.07-.31.14-.47.21,2.68-2.2,5.35-4.4,7.98-6.65Zm39.49-12.48c-.63-.04-1.26-.06-1.89-.05,2.3-2.67,4.28-5.34,5.8-8.02,2.72-7.18,6.93-10.48,18.14-12-7.62,6.44-14.82,13.27-22.05,20.07Zm-35.26-19.69c-.74.79-1.5,1.56-2.27,2.3-.61.38-1.18.75-1.72,1.08-5.28,3.3-10.16,7.17-15.33,10.63-4.98,3.33-9.83,6.76-14.52,10.34,1.62-1.85,3.23-3.7,4.86-5.54,6.99-7.9,14.47-15.15,21.92-22.6,3.27-3.27,7.84-.55,8.47,2.93-.49.12-.97.38-1.41.85Zm-97.92,19.17c.11.24.17.51.2.79-.29.28-.57.56-.85.85.18-.63.34-1.28.49-1.92.05.09.11.17.16.29Zm12.6-9.53c-2.24,1.83-4.53,3.61-6.78,5.43-.14-.28-.3-.55-.49-.8-1.08-1.44-2.73-2.03-4.56-2.14,0-.15.01-.29.01-.44,1.52-1.29,1.38-3.7.18-4.85.59-4.31,3.23-5.08,14.97-8.52h9.74c-4.25,3.87-8.58,7.67-13.07,11.32Zm13.43,19.73c4.13-3.63,7.85-6.9,11.24-9.83.34-.17.69-.32,1.03-.48-3.81,3.47-7.44,6.98-10.78,10.96-2.32,2.76-4.57,5.54-7,8.19-2.86,2.4-5.7,4.81-8.59,7.19-5.35,4.41-11.13,8.38-15.83,13.28,4.7-6.52,14.85-16.06,29.93-29.31Zm-6.86,29.86c.14-.1.29-.19.43-.29-.59,1.16.03,1.48,1.38,1.48.96.85,1.93,1.36,3.21,1.38-1.52,1.92-2.98,3.89-4.36,5.93-.39.58-.52,1.18-.47,1.73-6.01.62-10.96.93-14.87.87,5.59-2.48,9.98-7.93,14.67-11.11Zm35.25-9.28c5.26-10.67,14.06-19.39,23.96-26.66-.79.87-1.59,1.72-2.37,2.6-.5.57-1,1.14-1.51,1.71-.52.41-1.04.82-1.55,1.24-.62.5-.92,1.08-.99,1.66-5.75,6.57-11.48,13.16-17.54,19.45Zm15.35,1.78c.11-.04.22-.08.33-.13-.52.37-1.03.75-1.54,1.1.4-.33.81-.65,1.21-.97Zm49.51,3.3c.62,2.78,3.52,4.73,6.61,4.81-3.75,1.26-6.83,1.54-8.99.59-2.37,0-1.4-1.95,2.37-5.4Zm73.69,3.49c-.44.09-1.24.09-1.92.16.6-.88,1.09-2.2,1.65-3,1.61-2.29,3.51-4.4,5.45-6.41,2.29-2.38,4.72-4.61,7.29-6.65.75-.45,1.51-.9,2.25-1.36,2.36-1.45,4.75-2.87,7.14-4.27-.77,1.08-1.6,2.12-2.48,3.13-1.32,1.31-2.62,2.67-3.89,4.07-5.07,4.88-10.86,9.3-15.41,14.32-.03,0-.05,0-.08,0Zm42.45-28.09c-.49-.33-1.08-.53-1.68-.56-3.39-.13-6.46.5-9.31,1.65,0,0,0-.01,0-.02,8.26-4.6,16.63-9.02,25.03-13.4-4.2,3.69-8.38,7.41-12.61,11.09-.48.42-.96.83-1.44,1.24ZM16.94,150.78c.33.32.75.59,1.21.83.08.16.18.31.28.45-.93-.11-1.85-.24-2.77-.4.5-.19.96-.48,1.29-.88Zm85.49-2.04c-13.42.15-26.79,1.34-40.22,1.3-4.66-.01-9.33-.05-14-.09,8.13-1.46,17.38-3.27,25.94-5.12,12.01,1.81,24.3,1.92,36.46,1.82,7.04-.06,14.08-.12,21.12-.2-7.54.57-15.05,1.47-22.57,2.29-2.24-.02-4.49-.03-6.73,0Zm52.34-2.65c.61-.01,1.22-.02,1.82-.03,16.25-.36,32.52-.61,48.69,1.15,1.01.11,2.03.22,3.04.34-8.86.39-17.73.76-26.59,1.06-8.97-1.08-17.95-2.09-26.97-2.52Zm66.85-3.11c4.41.06,8.83.12,13.27.18-4.39.31-8.83.17-13.27-.18Zm11.49-11.99c-5.96,0-6.63-3.1,2.12-11.11-.19.88-.23,1.76-.05,2.64.67,3.23,3.41,4,6.22,3.94.04.06.07.12.11.18-1.9,2.5-5.15,4.36-8.41,4.36Zm436.4,7.33c1.33.1,2.66.22,3.99.3-.11,0-.22,0-.33,0-1.22-.08-2.44-.18-3.66-.31Zm46.8-76.88s.09-.04.14-.06l-.34,1.48c-.54-.03-1.09,0-1.66.09.59-.54,1.2-1.04,1.85-1.51Zm-4.7,30.97c-.6-.36-1.28-.61-2.03-.7-2.58-.31-4.93.02-7.09.79,2.33-2.56,4.63-5.12,6.92-7.71,1.08-1.22,2.17-2.43,3.25-3.66-.15,4.08-.54,7.88-1.05,11.27Zm-478.2,59.73c8.82-.4,17.64-.76,26.47-1.04.63-.02,1.26-.03,1.89-.05-9.41.48-18.89.95-28.36,1.09Zm485.88-13.52c-.06.17-.08.33-.1.49-.02.02-.04.04-.06.07-.38-.03-.76-.07-1.14-.1.05-.16.1-.35.16-.56.48-.28.97-.57,1.46-.86-.1.32-.21.65-.31.97Z"/>
      <g>
        <path class="cls-3" d="m721.68,17.97c-.48-3.8-1.29-7.7-3.52-10.82-2.24-3.11-6.22-5.25-9.93-4.29-4.77,1.24-7,6.61-8.32,11.36-4.36,15.62-6.34,31.91-5.89,48.12-2.62-.84-5.33-1.44-8.04-1.83-8.83-1.24-17.8-.39-26.68.47-4.94.48-10,.99-14.67,2.53-1.02-10.91-2.04-21.81-3.06-32.72-.6-6.43-1.23-12.97-3.72-18.92-5.45-13.07-19.99-18.29-20.79-.16-.9,20.69,4.86,41.61,16.17,58.96-3.89,4.03-6.8,9.12-9.09,14.29-7.93,17.86-9.78,38.21-5.85,57.33h98.65c6.2-18.02,6.66-38.05.33-56.05-1.81-5.13-4.16-10.16-7.75-14.24-.1-.12-.21-.22-.32-.34,10.25-15.7,14.84-35.08,12.49-53.7Z"/>
        <path class="cls-2" d="m669.96,114.76s-.07,0-.1,0c-.44-.06-.75-.46-.69-.9.41-3.15.5-6.35.27-9.52-.03-.44.3-.82.74-.86.44-.05.82.3.86.74.24,3.28.14,6.59-.28,9.84-.05.4-.4.7-.79.7Z"/>
        <path class="cls-2" d="m670.16,115.37c-1.62,0-3.19-.18-4.66-.78-2.28-.92-2.52-2.88-2.76-4.77l-.08-.59c-.06-.44.25-.84.68-.9.44-.06.84.25.9.68l.08.61c.24,1.92.43,2.94,1.77,3.49,2.03.82,4.32.72,6.88.52,2.38-.19,2.48-.74,3.01-3.42l.11-.55c.08-.43.5-.72.94-.63.43.09.71.51.63.94l-.11.54c-.52,2.67-.86,4.43-4.45,4.71-.99.08-1.98.14-2.94.14Z"/>
        <path class="cls-2" d="m670.6,109.23c.66.02,1.33-.03,1.94-.27.53-.21,1-.55,1.44-.9,1.35-1.07,2.58-2.28,3.67-3.62.06-.08.13-.16.15-.26.05-.3-.31-.48-.6-.55-2.28-.55-4.62-.82-6.96-.94-1.22-.06-2.43-.08-3.65-.07-.83,0-2.86-.31-3.51.3-.99.94,1.5,3.45,2.25,4.13,1.44,1.29,3.33,2.1,5.27,2.17Z"/>
        <path class="cls-2" d="m640.45,92.39c-1-.15-2.01-.02-2.51.52-.22.24-.31.54-.4.83-.3,1.1-.42,2.38.51,3.27,1.06,1.02,3.34,1,4.28-.04.29-.32.45-.7.59-1.07.24-.66.41-1.36.16-2.03-.27-.73-1.45-1.3-2.64-1.48Z"/>
        <path class="cls-2" d="m698.96,93.39c-1-.15-2.01-.02-2.51.52-.22.24-.31.54-.4.83-.3,1.1-.42,2.38.51,3.27,1.06,1.02,3.34,1,4.28-.04.29-.32.45-.7.59-1.07.24-.66.41-1.36.16-2.03-.27-.73-1.45-1.3-2.64-1.48Z"/>
      </g>
    </g>
  </g>
</svg>