<?xml version="1.0" encoding="UTF-8"?>
<svg id="Livello_2" data-name="Livello 2" xmlns="http://www.w3.org/2000/svg" viewBox="0 0 769.9 153.35">
  <defs>
    <style>
      .cls-1 {
        fill: #fff;
      }

      .cls-1, .cls-2, .cls-3, .cls-4 {
        stroke-width: 0px;
      }

      .cls-2 {
        fill: #9e8d8d;
      }

      .cls-3 {
        fill: #ffd6a5;
      }

      .cls-4 {
        fill: #e5bd93;
      }
    </style>
  </defs>
  <g id="Livello_1-2" data-name="Livello 1">
    <g>
      <path class="cls-4" d="m39.31,31.12c-7.17,5.21-19.39,7.31-26.59,13.53C2.22,53.74,2.88,68.21,2.25,81.05c-.66,13.63-6.73,60.5,4.33,69.6,7.86,6.47,26.54-.62,35.29-1.5,12.38-1.24,23.83-1.6,35.99-1.12,23.37.92,45.88-3.37,68.77-4.53,22.54-1.14,46.23,1.96,68.73,2.94,26.84,1.16,53.24-5.54,80.26-5.84,27.14-.31,51.78,2.59,78.77-.08,31.15-3.08,61.47-1.95,92.46-2.96,14.35-.47,29.49-3.36,43.5-2.89,14.18.47,26.56,7.91,40.59,9.63,26.48,3.24,52.79,3.23,79.01,1.11,24.32-1.97,47.4-10.7,72.19-13.71,14.46-1.76,18.45.76,20.67-14.68,1.88-13.03.15-28.8,1.49-42.61,2.56-26.5,8.89-59.95-27.83-59.55-15.08.17-28.61,10.33-43.56,10.46-13.78.12-28.22-3.06-42.54-3.06-59.02,0-118.84,3.83-177.64,2.96-62.91-.94-127.06-3.44-190.73,0-32.98,1.78-65.34,15.09-98.35,11.82-27.98-2.77-55.64,1.2-83.63-3.03-9.32-1.41-29.21-6.81-35.51.08"/>
      <path class="cls-3" d="m769.86,113.62c-.71-4.82-6.8-5.5-11.43-5.48-1.07-24.45-5.98-48.7-6.76-73.11.34-3.59.64-7.18.88-10.81.29-4.31.97-9.4.52-14.15.22-.31.35-.64.38-.97.14-.4.28-.8.39-1.22.37-1.52-.48-3.32-2.1-3.69,0,0-.02,0-.02,0-.37-.92-.83-1.8-1.39-2.62-2.15-3.18-7.35-.18-5.18,3.03.35.51.63,1.06.88,1.63-5.2.66-10.54.78-15.87.78,1.96-.77,3.92-1.31,5.56-1.03,3.78.65,5.4-5.13,1.6-5.79-6.6-1.14-12.69,3.63-19,4.83-11.54,2.19-23.79,2-35.49,2.56-23.1,1.09-46.22-.52-69.32.34-46.54,1.74-93-4.86-139.52-2.12-23.18,1.36-46.26,3.29-69.49,4-23.25.71-46.51,1.03-69.75,1.9-23.07.86-46.17,2.45-69.26.93-11.34-.75-22.3-1.15-33.65-.23-11.41.92-22.81,2.33-34.27,2.16-12.88-.19-25.74-.76-38.62-.7-10.53.05-20.98.74-31.46,1.32-10.95-.43-21.92-.64-32.95-.26-9.7.34-19.37,1.16-29.05,1.65-1.43-.42-2.7-1.06-3.74-1.99-2.21-1.99-5.23.07-5.18,2.31-.58.01-1.16.03-1.74.04-6.56.09-13.12-.04-19.68-.2.52-1.5,1.02-3,1.44-4.53,1.02-3.75-5.56-5.35-6.58-1.59-.34,1.26-.71,2.5-1.08,3.74-2.33-.61-5.15.09-6.79,2.09-2.72-.05-5.45-.09-8.17-.1-4.39-.01-4.4,5.99,0,6,2.21,0,4.42.03,6.64.07-1.52,19.81-3.38,39.58-4.83,59.4-1.12,15.23-4.74,31-1.96,46.23,1.03,5.66,7.72,5.31,10.49,1.63,5.81,3.67,21.63,2.47,25.56,2.46,7.38-.03,14.77.23,22.14.1,12.33-.23,24.63-1.24,36.97-1.27,12.68-.03,25.36.72,38.05.68,8.33-.03,16.67-.19,25-.44,1.24.11,2.47.22,3.71.3,23.5,1.58,46.86.16,70.36-.56,23.31-.72,46.54,2.65,69.86,1.72,23-.92,45.78-3.98,68.82-4.01,14.02-.02,28.04-.04,42.06-.44,1.4.39,2.26.79,2.49,1.2h15.15c0-.69.75-1.38,2.13-2.05,3.01-.18,6.02-.39,9.02-.64,11.08-.89,22.15-2.01,33.26-2.35,11.65-.35,23.28.6,34.93.39,17.22-.31,34.55-1.57,51.72-3.63,8.61-.1,17.22-.11,25.84-.09,13.09.63,26.18,1.25,39.25,1.94,11.07.59,22.15.98,33.21,1.64,4.93.29,9.88.49,14.79-.15,5.35-.7,10.34-2.87,15.78-2.99.15,0,.28-.03.41-.05,3.3.46,6.44.42,10.31-.05,2.64-.32,5.23-.23,7.81-.07-.07,1.26-.14,2.52-.04,3.79.27,3.46,5.33,3.96,6.71.8.54-1.23,1-2.48,1.42-3.73,1-.25,2-.5,2.98-.81,3.66-1.14,2.83-5.15-.29-5.76-.08-.49-.31-.92-.68-1.25.03-.14.05-.28.07-.42.03,0,.06,0,.09-.01.41.98,1.26,1.78,2.58,1.92,1.62.17,3.31.11,5-.05-.02.22-.04.44-.07.67-.45.48-.74,1.13-.72,1.99.04.99.04,1.97,0,2.96-.06,3.31,5.23,4.18,5.89.8.21-1.06.37-2.12.51-3.19,2.63,1.38,5.53,2.36,8.49,3.02,1.9.43,3.78-.87,3.8-2.89.02-1.65,0-3.29-.02-4.94.18,0,.36,0,.54,0,1.24.04,2.41.2,3.64.38,1.27.19,1.25.38,1.29.65.56,3.81,6.34,2.19,5.79-1.6Zm-22.4-40.45c.16-2.95.35-5.89.62-8.83.37,3.23.76,6.47,1.15,9.7-.5-.5-1.12-.79-1.77-.87Zm3.5,41.36c.05-.01.11-.03.16-.04.5-.04.99-.08,1.49-.12,0,.27,0,.53.01.8-.57-.19-1.13-.4-1.68-.63,0,0,.01,0,.02-.01Zm-5.31-80.25c.01.45.02.9.04,1.36-.43,4.22-.98,8.42-1.57,12.63-.3-.03-.61-.03-.92.01.47-3.64,1.04-7.27,1.84-10.89.23-1.03.42-2.07.6-3.11Zm-13.44,41.87c.61-2.16,1.23-4.38,1.84-6.63-.21,1.5-.44,3-.69,4.49-.08.4-.15.8-.22,1.21-.38,1.76-.7,3.54-.97,5.33-.55,2.83-1.12,5.66-1.69,8.48-.54.11-1.05.31-1.46.63,1.03-4.21,2.11-8.76,3.19-13.51Zm-20.4,3.75c.24-.18.44-.3.58-.36.47-.03.92-.09,1.36-.18-.95,3.59-1.74,5.67-1.74,5.67,0,2.98-4.54,3.95-9.06,4.27.63-.79,1.26-1.58,1.9-2.35,1.5-1.8,3.06-3.56,4.8-5.19.64-.6,1.69-1.51,2.15-1.86Zm-218.6-59.07c.13.71.32,1.41.59,2.07-1.33,0-2.64.01-3.92.01-12.42,0-26.68-.27-41.8-.67,15.04-.45,30.09-.93,45.13-1.41Zm219.6,19.09c-4.51,12.74-14.88,23.43-22.93,34.01-3.94,5.18-7.28,10.81-10.63,16.44-3.15-1.01-5.38-5.24-2.33-8.33,2.42-2.46,4.69-5.04,6.86-7.71-.68.7-1.37,1.4-2.05,2.09v-.05c.83-.88,1.68-1.76,2.52-2.63,8.61-10.74,15.45-22.86,22.33-34.75,1.9-3.29,5.7-2.88,7.82-.84-.69.31-1.27.88-1.59,1.77Zm-119.12,41.8c-6.17,5.42-12.15,10.91-17.05,17.28-1,1.31-1.31,2.59-1.12,3.76-14.95-.04-14.85-4.49,10.29-17.74.82-1.08,1.64-2.09,2.46-3.06,3.73-2.36,7.42-4.77,11.1-7.24,2.28-1.53,4.58-3.03,6.88-4.53-4.14,3.88-8.26,7.77-12.55,11.53Zm7.97,15.6l-5.76,1.01,3.53-3.1c.54.8,1.32,1.52,2.23,2.09Zm-164.77,7.25c-4.81-.17-9.62-.26-14.42-.24l3.71-3.26c3.05-1.26,6.1-2.5,9.16-3.74-1.85,2.54-.76,5.46,1.55,7.24Zm-248.85-10.03c1.21-1.3,1.59-2.86,1.38-4.37.15-.16.3-.31.42-.42,1.05-.9,2.16-1.74,3.28-2.57,2.94-2.18,5.88-4.35,8.79-6.55,7.83-5.9,15.76-11.7,23.64-17.54,3.59-2.66,7.06-5.44,10.51-8.23.16.03.32.06.47.06-16.47,17.22-34.94,32.45-48.5,39.62Zm20.58,3.15c-.25.34-.45.68-.6,1.02-.34-.08-.65-.19-.87-.38,0,0,.19-.25.57-.71.29.04.59.06.9.07Zm-27.82.05c-2.33.78-4.39,1.18-6.14,1.15-2.67,2.29-5.63,4.48-8.61,5.09,3.8-2.34,7.56-4.74,11.29-7.19,1.04.56,2.23.92,3.46.95ZM351.26,31.82c.62-.03,1.38-.03,2.31-.03.06,0,.12,0,.18,0-.82.46-1.62.94-2.41,1.44.05-.48.01-.95-.08-1.42Zm40.96,5.24c1.1-.55,1.74-.83,1.74-.83,3.65,0-.63,4.65-7.09,10.58-2-.22-4-.4-6-.52-3.66-.23-3.83,5.17-.54,5.91-3.78,2.22-8.66,3.24-12.36,4.97-2.23,1.05-1.79,3.53-.28,4.77-2.04,1.43-4.14,2.89-6.27,4.36-1.06.51-2.12,1.02-3.19,1.5-.21.1-.4.21-.57.33.5-.56,1-1.13,1.51-1.69,9.7-10.71,20.21-22.92,33.11-30.12,0,.25-.01.5-.06.75Zm121.65,3.1c-4.23,2.83-8.45,5.68-12.65,8.53-4.61.99-9.21,2.01-13.8,3.05,13.37-11.54,18.51-14.59,26.45-11.58Zm118.4-1.21c1.36-3.5,3.9-5.15,6.71-4.14-2.24,1.38-4.48,2.76-6.71,4.14Zm-15.78-21.26c-1.2-.18-2.45-.13-3.62.24-18.55,1.24-38.41,2.35-57.56,3.21-.42-.86-1.03-1.63-1.76-2.24,13.18-.41,26.35-.82,39.53-1.2,15.54-.45,31.08-1.07,46.61-1.74-7.34.59-15.11,1.16-23.19,1.72Zm-291.38,72.92c-.5.32-.99.64-1.48.96-.2-.76-.66-1.45-1.32-1.85,1.84-2.02,3.69-4.03,5.54-6.04,1.12-.54,2.24-1.08,3.35-1.62-2.09,2.81-4.12,5.66-6.09,8.55Zm-12.84-11.38c1.61-1.33,3.23-2.66,4.83-3.99,1.46-1.21,2.93-2.4,4.41-3.59-1.28,1.37-2.56,2.75-3.83,4.13-1.8,1.15-3.61,2.3-5.41,3.45Zm-13.9-18.79c-1.11,1-2.27,1.94-3.45,2.83-2.96,1.04-5.9,2.11-8.83,3.19-1.52.56-3.02,1.14-4.52,1.72,4.63-2.56,9.3-5.06,13.99-7.54.94-.13,1.87-.21,2.81-.2Zm-60.93,46.77c-6.87,0-6.72-4.11,6.78-15.11,2.12-.95,4.21-1.95,6.3-2.98-4.78,4.16-8.13,9.01-6.2,13.85.15.37.33.71.52,1.04-1.93,1.9-4.67,3.21-7.4,3.21Zm1.78,12.17c-4.39.31-8.83.17-13.27-.18,4.41.06,8.83.12,13.27.18Zm221.62-71.83s.07.04.1.05c-.02.02-.04.05-.06.07-5.65,4.18-11.44,8.21-17.28,12.19-3.5,2.14-7.08,4.16-10.71,6.09-.55.15-1.09.31-1.64.47,4.92-3.44,9.4-6.34,13.18-8,5.8-5.09,11.58-8.7,16.42-10.87Zm18.71,12.16c2.82-.67,5.65-1.32,8.47-1.96-1.43.99-2.87,1.98-4.29,2.98-3.54,1-7.06,2.03-10.58,3.09,1.64-1.27,3.18-2.5,4.58-3.67.61-.14,1.21-.3,1.82-.44Zm-14.81,14.62c-2.39,1-4.76,2.02-7.12,3.07-1.37.35-2.75.69-4.13,1.02,1.63-1.21,3.3-2.43,4.98-3.66,3.42-1.13,6.84-2.24,10.28-3.32-1.33.97-2.67,1.93-4,2.9Zm109.59-33.01c-.03-.1-.07-.19-.12-.28-.25-.68-.71-1.27-1.33-1.6.49-.26.98-.51,1.48-.75,1.64-.76,2.62-1.82,3.09-2.98,1.1.6,1.96,1.36,2.53,2.28-1.89,1.1-3.78,2.2-5.64,3.34Zm-195.54,61.46s6.23-5.47,16.24-12.12c-.44,1.11-.23,2.27.4,3.1-1.36,1.61-2.47,3.34-3.18,5.22-.62,1.63-.26,3.26.67,4.59-9.95,3.64-16.74,3.79-14.14-.79Zm138.51-12.64c-.11.47-.14.96-.11,1.44-1.14.85-2.26,1.63-3.36,2.37,1.15-1.28,2.3-2.56,3.47-3.81Zm-143.54-47.58c1.73-1.78,3.46-3.55,5.19-5.32.83-.84,1-1.83.77-2.71,1.62-1.03,3.27-2.02,5-2.93,1.48-.78,2.92-.77,4.14-.27-5.4,3.05-10.4,6.94-15.09,11.23Zm-42.83-8.26c-1.09.79-2.17,1.59-3.24,2.39-1.73-2.58-5.31-4.15-9.07-2.15-3.28,1.75-6.58,3.46-9.89,5.17,1.63-2.28,6.46-7.92,14.52-7.92,5.98-1.31,8.39-.28,7.68,2.5Zm-113.28,13.07c4.43-3.72,9.02-7.29,13.83-10.64.55-.06,1.1-.19,1.65-.4.19,0,.39,0,.59,0-.28.16-.56.38-.81.68-9.61,11.68-22.43,19.67-34.67,28.3,6.73-5.82,13.5-11.65,20.68-16.92.58-.43,1.25-.93,1.96-1.45-.99.06-2.06.2-3.22.44Zm19.69-9.87c-.33-.52-.78-.94-1.3-1.21.94,0,1.89-.02,2.86-.02-.53.41-1.04.82-1.57,1.23Zm-41.94,37.21c5.08-3.82,10.38-7.39,15.63-11.04-1.98,1.73-3.95,3.48-5.92,5.21-10.05,8.85-21.21,16.8-32.71,24.16,7.7-6.06,15.17-12.45,23-18.33Zm31.82-23.36c2.52-2.2,4.94-4.52,7.21-7,1.25,1.28,1.58,2.93,1.27,4.46-2.91-.14-5.82,1.01-8.49,2.54Zm38.17-13.83c-6.72,1.55-16.92,7.27-25.85,14.66,0-.06.02-.12.02-.18,2.55-2.08,5.11-4.16,7.71-6.21,2.93-2.31,5.93-4.54,9.01-6.69.93-.64,2.61-2.02,4.05-2.87h6.72c-.55.43-1.1.86-1.65,1.28Zm-55.27.02c-19.68,16.62-36.52,35.91-58.47,50.26-3.49,2.28-3.53,6.02-1.82,8.62-10.3,6.03-18.43,10.8-18.43,10.8-10.1,0,10.1-17.74,35.34-31.05,10.1-8.87,20.19-17.74,25.24-26.62,2.72-7.18,6.93-10.48,18.14-12Zm-68.62,38.62c-6.94,6.1-12.81,10.78-18.05,14.46,8.39-6.82,16.92-13.51,25.13-20.53,10.42-8.91,20.52-18.75,32.26-26.47-.12,3.98-10.71,12.97-39.34,32.55Zm-75.07,27.35c.68.19,1.44.14,2.16-.24.3-.16.58-.35.87-.52.73-.15,1.45-.11,2.16.15,2.9.56,4.51-2.71,3.39-4.6.01-.01.02-.02.03-.03.23.04.5.07.82.07,1.59,1.4,3.18,1.91,6.18.72,1.4,1.74,3.77,2.7,6.82,1.72.33-.11.67-.22,1.01-.32,1.81-.58,3.05-1.6,3.79-2.81,2.01-1.58,4.54-3.02,6.82-4.37-4.38,3.83-8.65,7.76-12.74,11.88-3.63.66-7.53,1.29-11.88,2.06-6.75.74-12.23,1.11-16.49,1.04,2.55-1.13,4.85-2.88,7.05-4.75Zm186.47,16.09c14.97.26,29.92.58,44.44.95-.09,0-.19,0-.28,0-14.72.25-29.43.77-44.14,1.4.34-.75.31-1.6-.01-2.35Zm70.84-27.02s-.01.02-.02.03c0,0,0,0,0-.01,0,0,.01-.01.02-.02Zm33.19-23.67c-.17.31-.27.65-.28.99-2.93,3.54-5.83,7.14-8.75,10.71-.03,0-.05.02-.08.03-1.3.44-1.93,1.46-2.04,2.54-3.78,4.54-7.65,8.98-11.78,13.13,7.44-9.31,15.01-18.51,22.94-27.4Zm-14.11,36.94c1.81,1.06,4.15,1.21,6.54-.33,7.66-4.95,15-10.25,22.3-15.6-6.34,5.16-12.52,10.47-18.23,16.21-4.98,2.39-9.08,3.11-14.02,2.44,1.13-.92,2.27-1.82,3.41-2.72Zm146.71-11.72c2.91-2.16,5.86-4.31,8.81-6.44.27.96.98,1.82,1.92,2.18-4.03,4.64-8.25,9.24-13.39,12.87-.69.02-1.37.04-2.08.04-2.43,0-4.47,0-6.14-.02,3.58-2.92,7.14-5.86,10.87-8.63Zm45.1,8.84c-14.47,4.11-14.19-.39,5.71-13.49,4.98-3.83,9.66-7.46,14.03-10.88-.35.3-.69.61-1.04.91-6.39,5.48-14.86,11.07-18.61,18.37-.94,1.83-.82,3.6-.08,5.09Zm57.92-38.64c-.61.41-1.23.81-1.84,1.22-2.58,1.74-5.29,3.41-8.05,5.05.49-.45.99-.88,1.48-1.33,6.8-6.2,13.72-12.31,20.57-18.47,1.77-1.59,3.49-3.22,5.26-4.81.9-.81,1.81-1.61,2.73-2.39.95-.81,2.59-1.27.63-.91,4.04-.74,5.38-3.69,4.77-6.45h3.01c0,2.92-10.97,13.56-28.56,28.09Zm32.09,21.93c-.71.86-1.41,1.73-2.08,2.63-2.33,3.08,2.88,6.07,5.18,3.03,3.44-4.55,7.51-8.61,11.66-12.53,1.79.18,3.63.11,5.38-.22-1.03,1.05-2.06,2.1-3.08,3.16-3.35,3.5-7.33,6.91-10.66,10.65-3.49.55-6.94.95-9.94.95l-7.86,1.38c3.93-2.87,7.7-5.91,11.4-9.03Zm26.61-3.4c4.53-4.88,8.67-10.09,12.71-15.38-4.02,6.07-7.41,12.53-9.66,19.72-.41,1.31.06,2.34.88,2.98-.02.08-.05.15-.07.22-.12.39-.14.74-.12,1.08-3.72-.03-7.07-5.02-3.72-8.63Zm43.9-38c-2.24,2.98-4.47,5.88-7.18,8.4,2.98-3.78,5.71-7.72,7.9-12,.33,1.14.19,2.39-.72,3.6Zm-1.73-12.44c-.29.34-.56.68-.83,1.02-2.7,2.12-5.15,4.76-7.45,7.45-.96.89-1.91,1.78-2.87,2.68.8-2.09,1.47-3.8,2.12-5.22,2.83-2.1,5.66-4.21,8.49-6.32.34-.03.71-.06,1.08-.09-.2.13-.38.28-.55.48Zm-10.04,10.58c-1.42,1.72-2.79,3.42-4.13,4.98-1.15,1.34-2.3,2.68-3.44,4.03.69-.87,1.38-1.75,2.08-2.61.27-.63.72-1.23,1.4-1.79.11-.09.21-.19.31-.28,1.23-1.47,2.49-2.91,3.78-4.34Zm-2.85,19.09c-5.06,6.54-9.93,13.24-15.14,19.65,4.09-7.13,9.64-13.37,15.14-19.65Zm-138.94-40.35c-1.04.04-2.07.08-3.11.12-.48-.6-1.23-1-2.26-.94-3.9.22-7.84.51-10.87-1.09,6.7-.22,13.39-.43,20.09-.65-1.29.85-2.57,1.7-3.86,2.56Zm-24.31-1.65c.59.91,1.22,1.7,1.91,2.4-3.76.1-7.42.19-10.96.26,2.11-.81,4.16-1.78,6.28-2.57.93-.03,1.85-.06,2.78-.09ZM96.1,63.81c-5.63,6.27-11.14,12.7-16.46,19.23-3.76,4.62-6.95,10.16-11.85,13.67-.28-.25-.54-.53-.75-.84,1.74-2.65,3.38-5.4,5.36-7.9,6.05-7.61,12.81-14.68,19.81-21.41,3.53-3.39,7.31-7.17,11.35-10.76-2.54,2.62-5.03,5.29-7.47,8Zm66.25,60.42c-3.96-.51-7.91-1.12-11.86-1.77,3.48-.06,6.95-.12,10.43-.2,16.25-.36,32.52-.61,48.69,1.15,1.01.11,2.03.22,3.04.34-13.54.6-27.09,1.14-40.64,1.48-3.23-.27-6.46-.6-9.67-1.01Zm153.49-25.34c.33-.23.64-.47.96-.71.85-.35,1.69-.7,2.54-1.07.86-.38,1.33-.97,1.49-1.63.27-.08.54-.16.81-.24.19-.06.36-.13.52-.21-2.49,3.84-4.88,7.77-7.12,11.79-1.83-2.12-2.18-5.85.8-7.94ZM550.03,12.87c-9.9.26-19.8.52-29.7.8-.67-.53-1.54-.72-2.6-.58-1.05.14-2.06.41-3.05.74-1.2.04-2.4.07-3.6.11.16-.94-.07-1.93-.78-2.62,2.94.03,5.89.1,8.84.2,10.31.34,20.6.85,30.9,1.35Zm-100.45.79c15.52-1.08,30.89-1.99,46.33-2.27-.64.66-1.22,1.47-1.72,2.51-.1.2-.18.4-.26.6-10.59.36-21.17.74-31.75,1.2-21.79.95-43.59,1.27-65.38.54,17.62-.58,35.22-1.35,52.79-2.57ZM55.7,49.54q0-8.87,15.15-13.31h9.74c-4.25,3.87-8.58,7.67-13.07,11.32-4.11,3.35-8.42,6.53-12.24,10.14-.35.33-.69.68-1.02,1.02.81-2.93,1.44-6.06,1.44-9.18Zm25.24,17.74c7.74-6.8,14.05-12.34,19.38-16.77,7.2-7.86,15.32-15.61,24.88-19.72,2.54-1.09,4.94-.09,6.35,1.61-1.83,1.16-3.62,2.37-5.37,3.63-10.63,2.52-19.71,9.55-28.21,17.1.71-.8,1.42-1.59,2.15-2.39-.85.79-1.7,1.57-2.57,2.34-5.11,4.55-9.96,8.89-14.35,13.97-3.57,3.59-7.03,7.29-10.35,11.11-.14.16-.28.32-.42.48-1.86,1.56-3.71,3.12-5.59,4.67-5.35,4.41-11.13,8.38-15.83,13.28,4.7-6.52,14.85-16.06,29.93-29.31Zm-26.9,58.61c.08.09.16.18.25.26,0,0,.02.01.03.02-.59,0-1.18,0-1.77-.01.49-.09.99-.18,1.49-.27Zm52.72-.94c-8.68.1-17.33.62-26,.98,9.01-1.53,18.34-2.09,27.38-2.23,7.94-.13,15.82.61,23.67,1.67-8.35-.23-16.7-.51-25.05-.42Zm202.52,1.42c2.64-.04,5.27-.08,7.91-.11-2.64.06-5.27.1-7.91.11Zm398.97-10.35c-.78-.01-1.51-.09-2.21-.22-.4-.19-.87-.31-1.42-.33-1.55-.41-3.03-.96-4.7-1.35-.47-.11-.94-.18-1.41-.25,2.2-.58,4.35-1.27,6.43-2.11,2.67,1.1,4.98,2.55,6.74,4.03-1.14.14-2.28.24-3.42.22Zm7.7-47.4c-.6-.36-1.28-.61-2.03-.7-2.58-.31-4.93.02-7.09.79,2.33-2.56,4.63-5.12,6.92-7.71,1.08-1.22,2.17-2.43,3.25-3.66-.15,4.08-.54,7.88-1.05,11.27Zm4.5-29.55c-.54-.03-1.09,0-1.66.09.59-.54,1.2-1.04,1.85-1.51.05-.02.09-.04.14-.06l-.34,1.48Zm3.19,75.76c-.06.17-.08.33-.1.49-.02.02-.04.04-.06.07-.38-.03-.76-.07-1.14-.1.67-2.41,2.8-10.09,5.42-20.55.07.16.14.31.24.45-.33,6.65-2.29,13.31-4.35,19.65Z"/>
      <g>
        <path class="cls-2" d="m740.52,59.7c-.79-3.46-4.22-10.1-5.6-13.41,7.09-4.44,7.92-16.03,1.65-21.58-6.27-5.54-17.49-3.46-21.52,3.87-8.09-6.26-18.58-8.88-28.82-8.79-10.23.08-20.28,2.69-29.96,6.02-2.92-8.25-14.29-12.09-21.61-7.31-7.33,4.78-8.39,16.73-2.01,22.73-8.26,25.98-11.68,53.5-10.04,80.71h118.4c.98-4.74.93-9.74.85-14.61-.25-15.41,2.11-32.57-1.34-47.63Z"/>
        <path class="cls-1" d="m648.45,26.97c.04-.67-.22-1.33-.57-1.91-1.9-3.18-6.67-4.23-9.68-2.07-3.31,2.37-3.69,8.79.28,10.81,3.56,1.8,9.73-3.21,9.97-6.83Z"/>
        <path class="cls-1" d="m720.84,32.07c-.04-.67.22-1.33.57-1.91,1.9-3.18,6.66-4.23,9.68-2.07,3.31,2.37,3.69,8.79-.28,10.81-3.56,1.8-9.73-3.2-9.97-6.82Z"/>
        <path class="cls-1" d="m670.61,98.19c-.23-3.22-.31-6.45-.24-9.68.1-4.67.77-9.86,4.35-12.87,2.99-2.51,7.21-2.81,11.12-2.82,2.02,0,4.1.04,5.99.75,3.6,1.35,5.98,4.93,6.91,8.66.93,3.73.62,7.64.3,11.47-.6,7.14-3.54,16.63-12.44,16.6-6.28-.02-15.53-5.7-15.99-12.11Z"/>
        <path class="cls-2" d="m681.47,79.56c1.53-.02,3.06-.04,4.59-.06,1.74-.02,3.59-.02,5.08.89,1.58.97,2.47,2.84,2.56,4.69.4,8.18-9.56,11.78-16.09,8.36-7.2-3.77-3.76-13.79,3.86-13.89Z"/>
        <path class="cls-2" d="m683.93,104.23c-.12,0-.23,0-.35-.01-2.9-.19-5.61-2.52-6.57-5.66-.13-.42.11-.87.53-1,.42-.13.87.11,1,.53.77,2.52,2.89,4.39,5.15,4.54,1.19.07,2.48-.46,3.37-1.4.76-.8,1.12-1.77,1.01-2.71-.05-.44.26-.84.7-.89.44-.04.84.26.89.7.17,1.41-.36,2.87-1.44,4-1.15,1.21-2.73,1.9-4.29,1.9Z"/>
        <path class="cls-2" d="m683.54,103.3s-.07,0-.1,0c-.44-.06-.75-.46-.69-.9.31-2.37.38-4.77.21-7.14-.03-.44.3-.82.74-.86.43-.05.82.3.86.74.18,2.48.11,5-.21,7.47-.05.4-.4.7-.79.7Z"/>
        <g>
          <path class="cls-1" d="m660.23,34.52c-.06,0-.12,0-.18-.02-.43-.1-.7-.52-.61-.96.33-1.46,1.11-2.82,2.21-3.84.32-.3.83-.28,1.13.04.3.32.28.83-.04,1.13-.86.8-1.48,1.87-1.73,3.01-.08.37-.41.62-.78.62Z"/>
          <path class="cls-1" d="m649.54,45.97c-.09,0-.18-.02-.27-.05-.42-.15-.63-.61-.48-1.03.62-1.71.88-3.58.74-5.4-.03-.44.29-.83.74-.86.44-.02.83.3.86.74.16,2.04-.13,4.14-.83,6.07-.12.33-.43.53-.75.53Z"/>
          <path class="cls-1" d="m638.82,48.48c-.23,0-.47-.1-.62-.3-.28-.34-.22-.85.12-1.12.65-.52,1.18-1.2,1.53-1.96.19-.4.66-.58,1.06-.39.4.19.58.66.39,1.06-.45.98-1.14,1.86-1.98,2.53-.15.12-.32.18-.5.18Z"/>
          <path class="cls-1" d="m640.11,64.23h0c-.44,0-.8-.36-.8-.8,0-1.33-.26-2.69-.77-3.92-.17-.41.02-.88.43-1.05.41-.17.88.02,1.05.43.59,1.43.9,3,.9,4.54,0,.44-.36.8-.8.8Z"/>
          <path class="cls-1" d="m630.08,77.24c-.11,0-.22-.02-.33-.07-.4-.18-.58-.66-.4-1.06l1.62-3.56c.18-.4.66-.58,1.06-.4.4.18.58.66.4,1.06l-1.62,3.56c-.13.29-.42.47-.73.47Z"/>
          <path class="cls-1" d="m643.09,95.98c-.37,0-.7-.26-.78-.64l-.87-4.23c-.09-.43.19-.86.62-.94.43-.09.86.19.94.62l.87,4.23c.09.43-.19.86-.62.94-.05.01-.11.02-.16.02Z"/>
          <path class="cls-1" d="m630.3,97.47c-.11,0-.22-.02-.32-.07-.4-.18-.59-.65-.41-1.05l1.08-2.47c.18-.41.65-.59,1.05-.41.4.18.59.65.41,1.05l-1.08,2.47c-.13.3-.42.48-.73.48Z"/>
          <path class="cls-1" d="m629.82,112.98c-.1,0-.19-.02-.29-.05-.41-.16-.62-.62-.46-1.03l1.25-3.25c.16-.41.62-.62,1.03-.46.41.16.62.62.46,1.03l-1.25,3.25c-.12.32-.43.51-.75.51Z"/>
          <path class="cls-1" d="m644.07,110.23c-.44,0-.8-.36-.8-.8v-4c0-.44.36-.8.8-.8s.8.36.8.8v4c0,.44-.36.8-.8.8Z"/>
          <path class="cls-1" d="m655.42,100.05c-.15,0-.29-.04-.43-.12-.37-.24-.48-.73-.25-1.1.43-.68.49-1.59.15-2.32-.19-.4-.01-.88.39-1.06.4-.19.88,0,1.06.39.57,1.23.47,2.71-.25,3.85-.15.24-.41.37-.68.37Z"/>
          <path class="cls-1" d="m664.34,87.98c-.4,0-.75-.3-.79-.71-.12-1.09-.08-2.19.13-3.27.09-.43.51-.71.94-.63.43.09.72.51.63.94-.18.91-.22,1.85-.11,2.77.05.44-.27.84-.7.89-.03,0-.06,0-.09,0Z"/>
          <path class="cls-1" d="m672.82,39.23c-.44,0-.8-.36-.8-.8v-3c0-.44.36-.8.8-.8s.8.36.8.8v3c0,.44-.36.8-.8.8Z"/>
          <path class="cls-1" d="m661.32,46.73c-.44,0-.8-.36-.8-.8v-2c0-.44.36-.8.8-.8s.8.36.8.8v2c0,.44-.36.8-.8.8Z"/>
          <path class="cls-1" d="m673.27,57.47c-.07,0-.15,0-.22-.03-.42-.12-.67-.57-.55-.99.26-.89-.08-1.95-.81-2.52-.35-.27-.41-.78-.13-1.12.27-.35.78-.41,1.12-.13,1.24.97,1.8,2.71,1.36,4.22-.1.35-.42.58-.77.58Z"/>
          <path class="cls-1" d="m679.82,65.23c-.44,0-.8-.36-.8-.8v-2.5c0-.44.36-.8.8-.8s.8.36.8.8v2.5c0,.44-.36.8-.8.8Z"/>
          <path class="cls-1" d="m681.84,30.74c-.09,0-.18-.02-.27-.05-.42-.15-.63-.61-.48-1.03.39-1.08,1.03-2.07,1.84-2.88.31-.31.82-.31,1.13,0,.31.31.31.82,0,1.13-.65.64-1.15,1.43-1.47,2.29-.12.33-.43.53-.75.53Z"/>
          <path class="cls-1" d="m683.32,43.48c-.44,0-.8-.36-.8-.8v-2.5c0-.44.36-.8.8-.8s.8.36.8.8v2.5c0,.44-.36.8-.8.8Z"/>
          <path class="cls-1" d="m692.56,50.98s-.07,0-.11,0c-.44-.06-.75-.46-.69-.9.12-.9.06-1.83-.17-2.7-.11-.43.14-.87.57-.98.42-.11.86.15.98.57.28,1.07.35,2.22.2,3.32-.05.4-.4.69-.79.69Z"/>
          <path class="cls-1" d="m698.27,36.47c-.06,0-.13,0-.2-.02-.43-.11-.69-.54-.58-.97.24-.93.17-1.93-.2-2.82-.17-.41.03-.88.44-1.05.41-.17.88.03,1.04.44.5,1.2.59,2.56.27,3.82-.09.36-.42.6-.77.6Z"/>
          <path class="cls-1" d="m710.35,40.49c-.06,0-.11,0-.17-.02-.43-.09-.71-.52-.61-.95l.7-3.26c.09-.43.52-.7.95-.61.43.09.71.52.61.95l-.7,3.26c-.08.38-.41.63-.78.63Z"/>
          <path class="cls-1" d="m710.59,51.23c-.39,0-.72-.28-.79-.67-.14-.87-.09-1.78.16-2.63.12-.42.57-.66.99-.54.42.12.67.57.54.99-.18.62-.22,1.28-.12,1.92.07.44-.22.85-.66.92-.04,0-.09.01-.13.01Z"/>
          <path class="cls-1" d="m723.56,53.23s-.09,0-.14-.01c-.43-.08-.72-.49-.65-.93.11-.62.06-1.26-.15-1.86-.15-.42.08-.87.49-1.02.42-.15.87.08,1.02.49.3.86.37,1.78.21,2.67-.07.39-.41.66-.79.66Z"/>
          <path class="cls-1" d="m733.57,63.73c-.44,0-.8-.36-.8-.8v-2c0-.44.36-.8.8-.8s.8.36.8.8v2c0,.44-.36.8-.8.8Z"/>
          <path class="cls-1" d="m734.56,77.48c-.06,0-.12,0-.17-.02-.43-.1-.7-.52-.61-.95.1-.43.05-.89-.12-1.29-.17-.41.02-.88.42-1.05.41-.17.88.02,1.05.42.3.71.37,1.51.21,2.26-.08.37-.41.63-.78.63Z"/>
          <path class="cls-1" d="m707.57,89.73c-.44,0-.8-.36-.8-.8v-2.5c0-.44.36-.8.8-.8s.8.36.8.8v2.5c0,.44-.36.8-.8.8Z"/>
          <path class="cls-1" d="m719.03,93.02c-.38,0-.72-.27-.79-.66-.14-.78-.46-1.24-.59-1.21-.44.06-.84-.24-.91-.68-.06-.44.24-.84.68-.91,1.16-.16,2.1.82,2.39,2.52.08.44-.22.85-.65.92-.05,0-.09.01-.14.01Z"/>
          <path class="cls-1" d="m732.32,93.48c-.44,0-.8-.36-.8-.8v-3c0-.44.36-.8.8-.8s.8.36.8.8v3c0,.44-.36.8-.8.8Z"/>
          <path class="cls-1" d="m706.84,103.24c-.12,0-.23-.02-.34-.08-.4-.19-.57-.67-.38-1.07.34-.71.84-1.33,1.46-1.81.35-.27.85-.21,1.12.14.27.35.21.85-.14,1.12-.42.33-.77.75-.99,1.23-.14.29-.42.45-.72.45Z"/>
          <path class="cls-1" d="m720.89,106.25c-.08,0-.16-.01-.23-.04-.42-.13-.66-.58-.53-1,.21-.69.26-1.43.14-2.15-.07-.44.22-.85.65-.92.44-.07.85.22.92.66.16.96.1,1.96-.19,2.88-.11.34-.42.57-.76.57Z"/>
          <path class="cls-1" d="m734.59,110.73s-.06,0-.08,0c-.44-.05-.76-.44-.71-.88.03-.25-.18-.54-.42-.6-.43-.11-.69-.54-.59-.97.11-.43.53-.7.97-.59,1.02.25,1.74,1.27,1.63,2.32-.04.41-.39.72-.79.72Z"/>
          <path class="cls-1" d="m711.31,116.73s-.07,0-.1,0c-.44-.06-.75-.46-.69-.89.11-.84.07-1.67-.11-2.5-.1-.43.18-.86.61-.95.43-.09.86.18.95.61.22,1,.27,2.03.14,3.04-.05.4-.4.7-.79.7Z"/>
          <path class="cls-1" d="m728.11,119.72c-.37,0-.7-.25-.78-.63l-.61-2.73c-.1-.43.18-.86.61-.96.43-.09.86.18.95.61l.61,2.73c.1.43-.18.86-.61.96-.06.01-.12.02-.17.02Z"/>
          <path class="cls-1" d="m663.73,113.97s-.08,0-.12,0c-.44-.06-.74-.47-.68-.91,0-.03-.06-.09-.09-.09-.44.04-.81-.33-.83-.77-.02-.44.33-.81.77-.83.47-.03.96.19,1.3.57.34.38.5.88.43,1.36-.06.4-.4.68-.79.68Z"/>
          <path class="cls-1" d="m682.09,116.73c-.38,0-.71-.27-.79-.65-.15-.81-.09-1.66.18-2.44.15-.42.6-.63,1.02-.49.42.15.64.6.49,1.02-.18.52-.22,1.07-.12,1.61.08.43-.2.85-.64.93-.05,0-.1.01-.15.01Z"/>
          <path class="cls-1" d="m699.32,119.48c-.44,0-.8-.36-.8-.8v-3c0-.44.36-.8.8-.8s.8.36.8.8v3c0,.44-.36.8-.8.8Z"/>
          <path class="cls-1" d="m651.57,119.73c-.44,0-.8-.36-.8-.8v-2c0-.44.36-.8.8-.8s.8.36.8.8v2c0,.44-.36.8-.8.8Z"/>
          <path class="cls-1" d="m635.37,119.73c-.4,0-.75-.3-.79-.71-.11-1.03.42-2.07,1.32-2.59.38-.22.87-.09,1.09.3.22.38.09.87-.3,1.09-.35.2-.56.63-.52,1.02.05.44-.27.83-.71.88-.03,0-.06,0-.09,0Z"/>
          <path class="cls-1" d="m666.52,75.72c-.06,0-.13,0-.19-.02-.43-.11-.69-.54-.58-.97l.87-3.47c.11-.43.54-.69.97-.58.43.11.69.54.58.97l-.87,3.47c-.09.36-.42.61-.78.61Z"/>
          <path class="cls-1" d="m694.55,64.49c-.36,0-.69-.25-.78-.61l-.54-2.24c-.1-.43.16-.86.59-.96.43-.1.86.16.96.59l.54,2.24c.1.43-.16.86-.59.96-.06.01-.13.02-.19.02Z"/>
          <path class="cls-1" d="m701.32,78.48c-.44,0-.8-.36-.8-.8v-3c0-.44.36-.8.8-.8s.8.36.8.8v3c0,.44-.36.8-.8.8Z"/>
          <path class="cls-1" d="m724.82,70.73c-.44,0-.8-.36-.8-.8v-2.5c0-.44.36-.8.8-.8s.8.36.8.8v2.5c0,.44-.36.8-.8.8Z"/>
          <path class="cls-1" d="m642.08,77.74c-.15,0-.31-.04-.45-.14-.37-.25-.46-.75-.21-1.11.36-.54.49-1.23.34-1.87-.1-.43.17-.86.6-.96.43-.1.86.16.96.6.25,1.06.03,2.23-.58,3.13-.15.23-.41.35-.66.35Z"/>
          <path class="cls-1" d="m650.6,83.73c-.36,0-.69-.25-.78-.62-.32-1.37-.15-2.81.48-4.07.2-.4.68-.55,1.07-.36.39.2.56.68.36,1.07-.45.91-.58,2-.35,2.98.1.43-.17.86-.6.96-.06.01-.12.02-.18.02Z"/>
          <path class="cls-1" d="m719.07,79.73c-.44,0-.8-.36-.8-.8v-2c0-.44.36-.8.8-.8s.8.36.8.8v2c0,.44-.36.8-.8.8Z"/>
        </g>
        <g>
          <path class="cls-1" d="m664.72,61.79c0,7.94-8.86,7.97-12.13,5.3-2.87-2.34-3.46-7.51-.45-10.3,3.31-3.06,12.58-3.15,12.58,5Z"/>
          <path class="cls-2" d="m657.71,65.08c-1.24,0-2.37-.39-2.85-.78-.65-.53-1.09-1.55-1.12-2.58-.02-.55.07-1.57.84-2.29.51-.47,1.76-.95,3.14-.95,3.39,0,3.39,2.41,3.39,3.32,0,1.81-.68,2.38-.91,2.56-.56.46-1.47.73-2.5.73Z"/>
        </g>
        <g>
          <path class="cls-1" d="m717.98,62.22c0,7.94-8.86,7.97-12.13,5.3-2.87-2.34-3.46-7.51-.45-10.3,3.31-3.06,12.58-3.15,12.58,5Z"/>
          <path class="cls-2" d="m710.97,65.51c-1.24,0-2.37-.39-2.85-.78-.65-.53-1.09-1.55-1.12-2.58-.02-.55.07-1.57.84-2.29.51-.47,1.76-.95,3.14-.95,3.39,0,3.39,2.41,3.39,3.32,0,1.81-.68,2.38-.91,2.56-.56.46-1.47.73-2.5.73Z"/>
        </g>
      </g>
      <path class="cls-3" d="m614.95,122.05c7.09-3.63,15.38-2.83,22.94-1.41,7.87,1.48,15.64,3.92,23.67,4.41,20.1,1.23,40.1-2.87,60.13-3.53,9.92-.33,19.93.77,29.77-.88,1.02-.17,1.28-1.42.9-2.2-.72-1.47-1.96-2.37-3.3-3.23-1.63-1.05-3.13,1.54-1.51,2.59.93.6,1.73,1.14,2.23,2.16l.9-2.2c-8.87,1.49-17.98.59-26.92.72-9.89.14-19.77,1.33-29.62,2.24-10.21.94-20.47,1.75-30.73,1.42-8.07-.26-15.86-2.64-23.73-4.19-8.71-1.71-18.05-2.66-26.23,1.52-1.72.88-.2,3.47,1.51,2.59h0Z"/>
      <path class="cls-3" d="m609.28,117.79c-.3.19-.14-.03-.08.06.03.04-.18,0,.16-.02.39-.03.79-.05,1.18-.07,1.21-.04,2.43-.04,3.65-.03,2.74.02,5.49.08,8.23.17,3.39.11,6.68.5,10.01,1.16,4.46.89,8.92,1.87,13.5,1.78,1.64-.03,2.1-2.56.4-2.95-5.75-1.31-11.71-1.75-17.6-1.65s-11.89.72-17.57,2.36c-1.59.46-1.33,3.01.4,2.95,4.79-.18,9.56.22,14.3.92,4.68.7,9.31,1.81,14.01,2.32,9.42,1.03,18.76-1.12,28.12-1.85,19.02-1.48,38.18,1.52,57.08-1.75,5.04-.87,10.17-2.17,15.31-1.39,3.5.53,8.14,2.8,11.52.81,1.66-.98.16-3.57-1.51-2.59-1.24.73-3.08.21-4.38-.07-1.86-.4-3.69-.91-5.58-1.15-4.41-.57-8.8.14-13.14.94-9.3,1.72-18.6,2.19-28.04,2.07s-18.91-.59-28.36-.06-18.43,2.63-27.72,2.28c-5.34-.2-10.56-1.54-15.83-2.35-5.23-.81-10.5-1.33-15.79-1.13l.4,2.95c5.44-1.57,11.13-2.16,16.77-2.25s11.31.3,16.8,1.54l.4-2.95c-4.77.1-9.38-1.05-14.03-1.93-3.31-.63-6.6-.92-9.96-1.03-2.85-.09-5.71-.16-8.56-.16-1.13,0-2.26,0-3.39.06-.71.04-1.6.02-2.22.41-1.63,1.02-.13,3.62,1.51,2.59h0Z"/>
      <path class="cls-3" d="m614.55,114.02c-.22-.23-.48-.39-.74-.56-.13-.07-.25-.14-.38-.2-.32-.2-.23-.08.27.34l-.9,2.2c-.22.05-.06.02.12.06.3.07.64.02.95.03.48.01.95.02,1.43.03,1.19.02,2.37.02,3.56,0,2.13-.03,4.27-.1,6.4-.2,4.35-.21,8.69-.57,13.03-.96,8.79-.8,17.57-1.76,26.4-2.06,4.41-.15,8.82-.14,13.22.13s8.92.79,13.39,1.16c8.85.73,17.74,1.17,26.62.6,4.87-.31,9.64-1.47,14.51-1.71,4.78-.24,9.16,1.59,13.86,1.96,1.43.11,2.12-2.21.76-2.8-1.25-.54-2.37-.52-3.7-.6-1.93-.12-1.92,2.88,0,3,.69.04,1.53-.09,2.18.19l.76-2.8c-4.14-.33-8.04-1.96-12.22-2s-8.48,1.04-12.73,1.48c-8.92.92-17.97.57-26.9-.09s-18.02-1.78-27.11-1.61c-8.84.16-17.64,1.07-26.43,1.89-4.89.46-9.78.89-14.69,1.15-2.45.13-4.9.22-7.35.25-1.27.01-2.53.01-3.8,0-.98-.02-2.09-.21-3.05,0-1.03.22-1.27,1.38-.9,2.2.25.55,1.08.78,1.32,1.03,1.34,1.39,3.46-.73,2.12-2.12h0Z"/>
      <path class="cls-3" d="m621.32,112.64c.83-5.03,1.53-10.09,1.93-15.17.4-5.01.23-9.98.29-15,.11-9.59,3-18.86,3.51-28.41.1-1.93-2.9-1.92-3,0-.51,9.4-3.31,18.52-3.51,27.95-.1,5.01.12,9.97-.26,14.98s-1.05,9.93-1.86,14.86c-.31,1.89,2.58,2.7,2.89.8h0Z"/>
    </g>
  </g>
</svg>