<?xml version="1.0" encoding="UTF-8"?>
<svg id="Livello_2" data-name="Livello 2" xmlns="http://www.w3.org/2000/svg" viewBox="0 0 755.79 154.31">
  <defs>
    <style>
      .cls-1 {
        fill: #94ddc8;
      }

      .cls-1, .cls-2, .cls-3, .cls-4 {
        stroke-width: 0px;
      }

      .cls-2 {
        fill: #b9eddf;
      }

      .cls-3 {
        fill: #fff;
      }

      .cls-4 {
        fill: #9e8d8d;
      }
    </style>
  </defs>
  <g id="Livello_1-2" data-name="Livello 1">
    <g>
      <path class="cls-1" d="m722.92,120.28c-2.56,26.42-26.52,21.28-47.67,22.19-21.69.94-44.22,4.96-66.16,2.96-11.21-1.02-21.44-4.03-32.59-4.77-12.49-.83-23.9,1.7-36.42,1.82-29.83.29-58.22,1.49-88.34,4.44-105.48,10.31-212.3,4.72-318.35,5.9-28.22.31-56.6,1.38-84.78,1.47-9.86.03-22.69-1.08-32.51-2.92-15.56-2.91-17.75-6.49-15.21-22.51,2.2-13.91,5.42-25.77,6-39.98.22-5.28-2.05-30.06.55-33.77,3.82-5.45,22.76-5.41,29.03-7.28,10.94-3.27,19.59-13.07,29.55-16.09,19.58-5.94,47.82,5.38,68.17,4.37,25.98-1.29,50.69-11.15,77.88-8.73,58.86,5.23,118.69,4.62,178.13,7.1,65.45,2.73,128.48-1.24,193.64,2.96,31.4,2.03,62.92.34,94.76,1.47,9.76.35,27.14-1.55,33.73,7.17,6.45,8.54,5.64,35.86,6.14,46.48.54,11.27,4.07,26.35-2.96,35.11"/>
      <path class="cls-2" d="m752.13,109.4c-1.08.36-2.16.72-3.23,1.1-.02-.15-.03-.31-.05-.46-1.03-9.56-1.22-19.07-1.49-28.68-.3-10.43-.2-20.72.29-31.14.45-9.44.71-18.84-.42-28.22,2.18-.61,4.31-1.4,6.5-2.13,3.64-1.23,2.08-7.03-1.59-5.79-.22.08-.44.15-.66.23-.38-.2-.84-.32-1.37-.34-.52-.01-1.04-.01-1.56-.01-.71-.33-1.53-.49-2.34-.35-.69.12-1.39.22-2.09.32-.66-.82-1.76-1.15-2.8-.99-.09-2.6-.09-5.21.04-7.83.15-2.97-4.2-4.09-5.59-1.51-1.94,3.6-2.19,7.34-1.96,11.14-7.02.22-14.14-.08-21.04.08-12.21.27-24.41.73-36.61,1.25-23.74,1.02-47.47,2.29-71.22,3.04-48.52,1.53-97.08,2.32-145.58,4.43-23.96,1.04-47.93,1.34-71.89.3-24.25-1.06-48.28-1.17-72.56-.88-23.83.28-47.62.58-71.45,1.32-23.69.73-47.4,1.43-71.11.83-26.97-.68-53.59-3.29-80.63-2.35-13.25.46-26.46,1.84-39.72,2.02-6.56.09-13.12-.04-19.68-.2.52-1.5,1.02-3,1.44-4.53,1.02-3.75-5.56-5.35-6.58-1.59-.55,2.01-1.15,3.99-1.75,5.95-1.38-.03-2.77-.06-4.15-.09,0-.04,0-.08-.02-.12-.53-2.01-1.01-3.02-2.82-4.13-2.11-1.29-4.28.44-4.51,2.59-.04.36-.06.72-.09,1.09-.43.07-.85.22-1.21.45-.49,0-.99-.01-1.48-.02-4.39-.01-4.4,5.99,0,6,.09,0,.18,0,.27,0,.22,17.86,1.85,35.8,3.31,53.58.15,1.81.35,3.64.58,5.48-.56,5.17-1.11,10.34-1.6,15.52-1.86,6.92-3.92,13.99-3.94,21.17,0,1.72,1.18,2.67,2.49,2.86-.02,1.44-.03,2.88-.02,4.32.03,3.15,4.58,3.73,6.23,1.74.33.32.75.59,1.21.83,2.96,5.86,22.88,4.3,27.34,4.29,7.38-.03,14.77.23,22.14.1,12.33-.23,24.63-1.24,36.97-1.27,12.68-.03,25.36.72,38.05.68,13.14-.04,26.29-.41,39.42-.92,25.95-1.02,51.86-2.57,77.82-3.38,46.76-1.46,93.56-1.13,140.33-2.03,14.77,1.23,23.87,2.6,24.73,4.1h15.15c0-1.98,6.06-3.96,15.9-5.55,38.07-1.1,76.14-2.26,114.23-2.72,8.92-.11,17.84-.12,26.76-.1,13.09.63,26.18,1.25,39.25,1.94,11.07.59,22.15.98,33.21,1.64,4.93.29,9.88.49,14.79-.15,5.35-.7,10.34-2.87,15.78-2.99.15,0,.28-.03.41-.05,3.3.46,6.44.42,10.31-.05,2.64-.32,5.23-.23,7.81-.07-.07,1.26-.14,2.52-.04,3.79.27,3.46,5.33,3.96,6.71.8.54-1.23,1-2.48,1.42-3.73,1-.25,2-.5,2.98-.81.68-.21,1.2-.52,1.58-.89.23,2.6.19,5.25-.81,7.33-1.65,3.47,3.52,6.52,5.18,3.03,2.27-4.76,1.97-10.22,1.21-15.67.58,1.02,1.72,1.48,2.83,1.38-.22.68-.42,1.37-.59,2.1-.62,2.67,3,5.41,5.01,2.92,2.53-3.12,3.47-6.81,3.69-10.63,1.7-.46,3.19-1.02,4.17-1.49,1.15-.56,1.57-1.65,1.45-2.72,2.07-1.91.48-6.19-2.74-5.13ZM18.26,53.39c.24.06.48.1.72.11-.16,1.29-.32,2.58-.47,3.88-.09-1.33-.17-2.66-.25-3.99Zm2.84-13.88c-.47-3.08-.97-6.14-1.22-9.23,1.23.02,2.45.05,3.68.07-.92,3.02-1.78,6.05-2.45,9.16Zm6.52,4.56c0,10.52-1.58,23.82-3.8,36.6-.08-1.2-.24-2.4-.46-3.61.03-.37.07-.74.1-1.11.83-9.43,1.79-18.86,3.09-28.26.33-2.41.65-4.84,1.06-7.24v3.61Zm596.58,62.43c-.13-.16-.24-.33-.35-.5.4-.33.81-.65,1.22-.95-.28.5-.57.98-.87,1.45Zm-96.4-21.74c7.5-6.9,15.12-13.71,22.71-20.54,4.45-4.01,8.87-9.13,13.91-13.16.29-.22.57-.44.85-.66,1.98-1.51,4.05-2.85,6.27-3.87,1.64-.76,2.62-1.82,3.09-2.98,1.82.99,3.01,2.42,3.24,4.29-4.88,3.42-9.69,6.94-14.54,10.36-13.51,9.55-26.63,19.38-39.1,29.93,1.18-1.13,2.35-2.25,3.56-3.37Zm82.73-34.24c4.04-.74,5.38-3.69,4.77-6.45h3.01c0,2.21-6.3,8.86-17,18.26-4.42,1.9-8.16,5.95-11.67,9.89-.58.39-1.16.76-1.74,1.15-2.58,1.74-5.29,3.41-8.05,5.05.49-.45.99-.88,1.48-1.33,6.8-6.2,13.72-12.31,20.57-18.47,1.77-1.59,3.49-3.22,5.26-4.81.9-.81,1.81-1.61,2.73-2.39.95-.81,2.59-1.27.63-.91Zm-24.51,38.92c-.51.51-1.02,1.02-1.54,1.52.32-.39.64-.78.95-1.15.19-.12.39-.25.58-.37Zm-22.93,16.74c4.46-1.03,8.2-3.24,11.72-6.17,1.11-.92,1.21-2.09.75-3.06,1.95-1.12,4.13-2.32,6.55-3.61-5.66,5.63-11.34,11.23-17.35,16.45-2.14-.7-2.79-1.86-1.67-3.61Zm32.82-17.59c1.06-1.35,2.12-2.69,3.19-4.02,2.11-1.93,4.27-3.81,6.48-5.63,6.48-5.32,12.97-10.8,19.78-15.69,2.52-1.8,5.34-3.79,8.35-5.46-9.24,8.4-18.34,16.97-28.07,24.82-5.48,4.43-10.98,8.88-16.14,13.7,2.13-2.68,4.45-5.24,6.4-7.72Zm27.54,8.23c-.52-.32-1.12-.5-1.72-.45,3.3-3.52,6.79-6.9,10.19-10.29.3.12.61.24.93.35-3.19,3.41-6.33,6.86-9.39,10.39Zm51.27-57.13c-.7.58-1.39,1.18-2.07,1.79.58-.87,1.29-1.46,2.07-1.79Zm-28.69,7.25c-.48.41-.96.82-1.43,1.23-6.86.36-13.38,3.51-19.45,7.62,4.43-4.18,9.04-8.17,13.9-11.87,3.15-2.39,6.24-.04,6.98,3.02Zm-16.6-.14c1.36-3.5,3.9-5.15,6.71-4.14-2.24,1.38-4.48,2.76-6.71,4.14Zm-39.19-21.24c15.54-.45,31.08-1.07,46.61-1.74-7.34.59-15.11,1.16-23.19,1.72-1.2-.18-2.45-.13-3.62.24-18.55,1.24-38.41,2.35-57.56,3.21-.42-.86-1.03-1.63-1.76-2.24,13.18-.41,26.35-.82,39.53-1.2Zm-145.74,69.79c-.23-.18-.48-.33-.76-.43,4.84-3.67,9.84-7.11,14.98-10.37-4.79,3.55-9.53,7.15-14.23,10.8Zm37.75-27.72c-.78-1.24-2.35-2.03-4.02-1.16-1.38.72-2.75,1.44-4.11,2.17,1-.82,1.95-1.62,2.82-2.38,19.34-17,24.79-21.78,34.09-18.25-9.66,6.46-19.27,12.98-28.77,19.62Zm-29.33-8.38c-.23-.29-.5-.54-.8-.74,2.27-1.37,4.45-2.5,6.44-3.36-1.86,1.39-3.75,2.75-5.65,4.11Zm-79.63,3.22c-.84.6-1.23,1.41-1.3,2.24-1.83,1.32-3.72,2.67-5.68,4.04-4.19,1.56-8.24,3.48-12.3,5.46,7.8-5.34,15.22-11.36,23.61-15.6-1.28,1.42-2.71,2.71-4.34,3.86Zm-28.72,15.05c.28.31.62.56,1,.72-.84.38-1.68.75-2.52,1.11.51-.61,1.01-1.22,1.52-1.83Zm-9.35,11.12c.55-.64,1.09-1.29,1.64-1.94.62.55,1.5.8,2.55.46-2.32,1.55-4.62,3.08-6.89,4.57.91-1.02,1.81-2.05,2.69-3.1Zm33.63,9.13c-1.56,1.27-3.11,2.55-4.65,3.84-.28.05-.55.1-.83.15,1.83-1.33,3.66-2.66,5.48-3.99Zm23.75.48c2.24-1.1,4.53-2.13,6.79-3.14-3.68,2.31-7.47,4.45-11.37,6.26,1.42-1,2.95-2.04,4.58-3.12Zm34.34,13.99c1.6-1.03,3.2-2.06,4.78-3.11.16.57.41,1.12.76,1.63-.84.53-1.68,1.05-2.53,1.56-1-.03-2.01-.06-3.01-.08Zm115.7-85.23c-1.29.85-2.57,1.7-3.86,2.56-19.3.75-37.31,1.2-51.75,1.2-12.42,0-26.68-.27-41.8-.67,32.47-.97,64.94-2.06,97.4-3.09Zm-151.53,17.07c2.89,0,.82,2.9-3.36,7.04-.5-1.31-1.73-2.24-3.41-1.71-2.24.7-4.39,1.55-6.48,2.5,7.32-5.21,13.25-7.82,13.25-7.82Zm-25.24-4.97c5.3-3.69,10.29,4.98,5.05,8.63-3.23,2.25-6.27,4.91-9.19,7.72,1.2-1.69,2.37-3.38,3.52-5.1.93.35,2,.21,2.86-.81,1.4-1.64,2.33-3.06,3.09-5.07.98-2.57-2.29-4.56-4.41-3.39-.59.33-1.17.69-1.75,1.03-.91,0-1.82.41-2.45,1.39-.02.04-.05.07-.07.11-4.4,2.76-8.53,5.86-12.49,9.19,4.96-5.02,10.16-9.75,15.84-13.7Zm-98.44,47.25c4.53-3.99,9.19-8.17,14.15-11.9,5.4-2.95,10.85-5.83,16.31-8.7-.28.81-.74,1.64-1.32,2.46-2.54,2.24-5.09,4.49-7.65,6.72-.79.69-1.6,1.37-2.4,2.06-3.64,2.29-7.49,4.63-11.54,7-5.03,2.95-10.06,5.9-14.54,8.68,2.71-2.28,5.14-4.7,6.98-6.33Zm46.83-3.27c1.46-1.21,2.93-2.4,4.41-3.59-1.28,1.37-2.56,2.75-3.83,4.13-1.8,1.15-3.61,2.3-5.41,3.45,1.61-1.33,3.23-2.66,4.83-3.99Zm36.46-43.44c.06,0,.12,0,.18,0-.82.46-1.62.94-2.41,1.44.05-.48.01-.95-.08-1.42.62-.03,1.38-.03,2.31-.03Zm-30.29,0c5.98-1.31,8.39-.28,7.68,2.5-1.09.79-2.17,1.59-3.24,2.39-1.73-2.58-5.31-4.15-9.07-2.15-3.28,1.75-6.58,3.46-9.89,5.17,1.63-2.28,6.46-7.92,14.52-7.92Zm-75.98,13.99c2.93-2.31,5.93-4.54,9.01-6.69.93-.64,2.61-2.02,4.05-2.87h6.72c-.55.43-1.1.86-1.65,1.28-7.26,1.67-18.58,8.21-27.97,16.46-3.28,3.45-6.64,6.83-10.03,10.08-1.6.21-3.15.59-4.67,1.1.93-.69,1.87-1.38,2.8-2.07,7.49-5.55,14.45-11.56,21.74-17.31Zm-38.67,51.91c-.25.34-.45.68-.6,1.02-.34-.08-.65-.19-.87-.38,0,0,.19-.25.57-.71.29.04.59.06.9.07Zm-19.2-7.52c.15-.16.3-.31.42-.42.6-.52,1.23-1.01,1.86-1.5.34.04.7.03,1.09-.07.45-.11.9-.24,1.34-.37,3.22-.87,6.32-2,9.35-3.29-.95.71-1.89,1.39-2.82,2.05-1.07.49-2.15.96-3.25,1.38-1.1.41-1.71,1.25-1.93,2.16-2.6,1.69-5.1,3.18-7.44,4.42,1.21-1.3,1.59-2.86,1.38-4.37Zm42.1-53.45c.55-.06,1.1-.19,1.65-.4,1.83-.02,3.77-.04,5.77-.05-4.67,3.59-9.17,7.35-13.73,11.05-1.7-.56-4.32-.6-7.53.05,4.43-3.72,9.02-7.29,13.83-10.64Zm-39.5,12.82c2.72-7.18,6.93-10.48,18.14-12-19.68,16.62-36.52,35.91-58.47,50.26-3.49,2.28-3.53,6.02-1.82,8.62-10.3,6.03-18.43,10.8-18.43,10.8-10.1,0,10.1-17.74,35.34-31.05,10.1-8.87,20.19-17.74,25.24-26.62Zm-11.21,48.21c-3.75,1.26-6.83,1.54-8.99.59-2.37,0-1.4-1.95,2.37-5.4.62,2.78,3.52,4.73,6.61,4.81Zm.07-54.14c-.12,3.98-10.71,12.97-39.34,32.55-6.94,6.1-12.81,10.78-18.05,14.46,8.39-6.82,16.92-13.51,25.13-20.53,10.42-8.91,20.52-18.75,32.26-26.47Zm-34.44-5.91c.55.27,1.05.62,1.48,1.05.05.28.09.56.14.83.18,1.05.76,1.68,1.48,1.97.42,1.82-.2,3.73-2.47,4.75-6.16,2.77-11.6,6.67-16.61,11.16-.22-1.22-1.05-2.29-2.14-2.56,5.74-6.05,11.7-11.88,18.12-17.21Zm-56.36,62.69c1.71-.59,2.9-1.57,3.62-2.74,2.01-1.58,4.54-3.02,6.82-4.37-4.38,3.83-8.65,7.76-12.74,11.88-.73.13-1.47.26-2.22.39,1.42-1.79,2.93-3.51,4.52-5.16Zm31.67-34.22c-6.12,6.67-11.8,13.82-17.73,20.2-1.69,1.82-3.78,1.88-5.46,1.01,3.76-3.87,7.43-7.85,11.05-11.87,3.98-3.2,8.04-6.29,12.14-9.34Zm-52.17,36.8c-.26.67-.16,1.34.13,1.94-.42,1.01-.19,2.07.41,2.87-4.17.35-7.74.52-10.7.48,4.66-2.06,8.49-6.2,12.35-9.36-.86,1.22-1.6,2.56-2.18,4.07Zm59.98-57.77c-8.28,8.29-16.02,17.13-23.91,25.83-1.63,1.31-3.25,2.65-4.85,4.01,9.04-10.23,17.87-21.53,28.76-29.84Zm-73.86,4.34q0-8.87,15.15-13.31h9.74c-4.25,3.87-8.58,7.67-13.07,11.32-4.11,3.35-8.42,6.53-12.24,10.14-.35.33-.69.68-1.02,1.02.81-2.93,1.44-6.06,1.44-9.18Zm25.24,17.74c7.97-7,14.43-12.68,19.85-17.17-1.07,1-2.15,1.99-3.25,2.96-5.41,4.81-10.53,9.39-15.12,14.85-2.32,2.76-4.57,5.54-7,8.19-2.86,2.4-5.7,4.81-8.59,7.19-5.35,4.41-11.13,8.38-15.83,13.28,4.7-6.52,14.85-16.06,29.93-29.31Zm67.18,58.33c-13.79.06-27.57-.82-41.35-.66-13.42.15-26.79,1.34-40.22,1.3-4.66-.01-9.33-.05-14-.09,8.13-1.46,17.38-3.27,25.94-5.12,12.01,1.81,24.3,1.92,36.46,1.82,15.32-.12,30.66-.27,45.98-.6,16.25-.36,32.52-.61,48.69,1.15,1.01.11,2.03.23,3.04.34-21.51.95-43.02,1.76-64.54,1.86Zm77.84-6.42c4.41.06,8.83.12,13.27.18-4.39.31-8.83.17-13.27-.18Zm11.49-11.99c-7.36,0-6.66-4.72,9.87-17.56.33.38.77.7,1.37.89,2.23.72,4.6.33,6.95-.67-4.9,3.47-8.09,6.43-8.09,8.47,0,.34-.04.69-.1,1.03-.46.82-.86,1.67-1.19,2.58-.07.18-.11.37-.13.55-1.85,2.69-5.26,4.72-8.68,4.72Zm59.63,13.34c-14.72.25-29.43.77-44.14,1.4.34-.75.31-1.6-.01-2.35,14.97.26,29.92.58,44.44.95-.09,0-.19,0-.28,0Zm14.07-25.97c-1.1-3.39,1.34-5.7,4.09-6.07,1.06.71,2.49.82,3.66-.35,11.81-11.89,22.69-25.41,35.41-36.56-7.47,9.91-15.59,19.45-23.71,28.58-4.12,4.63-8.3,9.32-11.74,14.49-.84,1.27-1.75,2.7-2.48,4.2-2.19.07-4.21-1.16-5.23-4.3Zm28.29,13.98c1.13-.92,2.27-1.82,3.41-2.72,1.81,1.06,4.15,1.21,6.54-.33,2.43-1.57,4.82-3.19,7.19-4.82.23.04.48.06.75.08.56.03,1.13.03,1.7.02-1.9,1.74-3.77,3.51-5.58,5.33-4.98,2.39-9.08,3.11-14.02,2.44Zm38.87-4.5s.08,0,.12-.02c3.73-.75,7.38-1.9,10.95-3.33-.54.46-1.1.91-1.64,1.38-1.15.99-1.18,2.26-.61,3.28-5.68,1.43-9.26,1.13-8.81-1.31Zm78.77-6.11c.9-.21,1.71-.8,2.13-1.86.88-.43,1.92-.62,3.09-.46-.74-.11.13-.08.09-.07.59-.1,1.16-.27,1.73-.46,1.19-.4,2.29-.98,3.39-1.59,3.21-1.77,6.21-3.94,9.09-6.19,7.41-5.77,14.29-12.24,21.13-18.66,6.41-6.03,12.7-12.21,19.35-17.98,3.21-2.78,6.49-5.73,9.96-8.42,5.95-2.96,13.12-6.18,20.11-6.77,0,0,0,0,0,0-11.37,11.57-25.04,20.64-38.17,30.13-8.28,5.99-16.41,12.19-24.68,18.19-4.31,3.12-8.68,6.2-12.84,9.52-1.9,1.52-3.84,3.65-6.01,5.19-1.08-.94-2.78-1.31-4.21-.2-1.45,1.13-2.49,2.19-3.59,3.65-.55.72-.59,1.57-.32,2.33-1.78-1.5-1.66-4.33-.26-6.36Zm9.59,6.77c1.16-.65,2.28-1.44,3.39-2.32,4.23-3.36,8.3-6.83,12.66-10.03,6.75-4.95,13.47-9.93,20.21-14.89-1.15,1.08-2.3,2.16-3.45,3.22-7.03,6.48-14.2,12.95-22.08,18.4-3.31,2.29-6.89,4.52-10.73,5.62Zm37.93-19.82c-5.41,6.18-10.71,12.9-17.69,17.83-.69.02-1.37.04-2.08.04-2.43,0-4.47,0-6.14-.02,3.58-2.92,7.14-5.86,10.87-8.63,6.32-4.69,12.73-9.32,19.25-13.82-1.43,1.51-2.84,3.04-4.21,4.6Zm12.62,6.67c-1.14.85-2.26,1.63-3.36,2.37,1.15-1.28,2.3-2.56,3.47-3.81-.11.47-.14.96-.11,1.44Zm36.14-12.07c-6.39,5.48-14.86,11.07-18.61,18.37-.94,1.83-.82,3.6-.08,5.09-14.47,4.11-14.19-.39,5.71-13.49,4.98-3.83,9.66-7.46,14.03-10.88-.35.3-.69.61-1.04.91Zm21.99,23.27c.05-.05.11-.1.16-.15,0,.05,0,.1.02.15-.06,0-.12,0-.17,0Zm26.32-5.44l-2.87.5c-.21.75-.63,1.48-1.32,2.16-1.45,1.43-3.19,3.31-5.45,3.04-1.26-.15-2.62-.76-3.62-1.68,1.35-3.52,7.34-7.92,9.38-9.77,5-4.54,10.25-8.79,15.51-13.03-1.81,2.18-3.6,4.38-5.37,6.6-2,2.51-3.97,5.03-5.92,7.58-.63.83-1.51,1.77-2.38,2.75.53.7,1.22,1.34,2.04,1.84Zm6.17,17.6c1.69-.2,3.39-.39,5.1-.59-.02.21-.01.41.01.62-1.71,0-3.41-.02-5.12-.02Zm26.49-15.74c-.46.48-.96.83-1.46,1.08.41-.78.82-1.57,1.28-2.37,1.13-1.99,2.39-3.92,3.69-5.81,1.7-.67,3.42-1.3,5.12-1.96-2.87,3.04-5.75,6.05-8.63,9.07Zm36.12,15.8c-.26,0-.52,0-.78.01.17-.23.31-.48.41-.75,2.59.22,5.17.42,7.77.59-2.47.06-4.94.1-7.4.15Zm-19.03-33.95c-.81-.5-1.84-.62-2.92,0-1.35.79-2.76,1.49-4.19,2.14,3.98-5.17,8.2-10.17,12.39-15.17,8.56-10.21,17.38-20.23,27.27-29.13,0,0,0,0,0,.01-9.18,15.3-20.55,29-32.55,42.14Zm30.31-4.61v-.05c3.38-3.59,6.81-7.13,10.33-10.61-3.39,3.59-6.86,7.12-10.33,10.66Zm7.6-39.42c-2.34,2.18-4.68,4.36-7.02,6.54.75-1.98,1.4-3.62,2.02-4.99.35-.32.71-.63,1.06-.94.4-.3.8-.6,1.2-.89,1.02.1,2.1-.24,2.86-1.25.5-.66.99-1.32,1.48-1.99.66-.49,1.33-.98,1.99-1.48.52-.05,1.08-.09,1.68-.12-1.77,1.72-3.5,3.47-5.28,5.11Zm18.93,79.01c-.78-.01-1.51-.09-2.21-.22-.4-.19-.87-.31-1.42-.33-1.55-.41-3.03-.96-4.7-1.35-.6-.14-1.19-.23-1.78-.3.18-.19.35-.39.51-.62.8-1.21.57-2.36-.2-3.19,5.42.7,10.16,3.21,13.22,5.79-1.14.14-2.28.24-3.42.22Zm3.76-31c0,2.98-4.54,3.95-9.06,4.27.63-.79,1.26-1.58,1.9-2.35,1.5-1.8,3.06-3.56,4.8-5.19.64-.6,1.69-1.51,2.15-1.86.24-.18.44-.3.58-.36.47-.03.92-.09,1.36-.18-.95,3.59-1.74,5.67-1.74,5.67Zm3.94-16.4c-.6-.36-1.28-.61-2.03-.7-2.58-.31-4.93.02-7.09.79,2.33-2.56,4.63-5.12,6.92-7.71,1.08-1.22,2.17-2.43,3.25-3.66-.15,4.08-.54,7.88-1.05,11.27Zm4.5-29.55c-.54-.03-1.09,0-1.66.09.59-.54,1.2-1.04,1.85-1.51.05-.02.09-.04.14-.06l-.34,1.48Zm3.19,75.76c-.06.17-.08.33-.1.49-.02.02-.04.04-.06.07-.38-.03-.76-.07-1.14-.1.67-2.41,2.8-10.09,5.42-20.55.07.16.14.31.24.45-.33,6.65-2.29,13.31-4.35,19.65Zm16.56-5.69c-.06-.37-.11-.74-.16-1.11.07.37.17.71.31,1.02.18.89.3,1.76.36,2.66,0,.24,0,.48.01.71-.14-.85-.27-1.71-.4-2.55,0-.26-.05-.51-.11-.73Zm-.65-5.63c0-4.15-.01-8.31-.02-12.46,0-.08,0-.16,0-.23.4,4.77.74,9.53.96,14.31-.34.45-.55,1.03-.55,1.74,0,.23,0,.45.03.66-.19-1.37-.33-2.71-.42-4.02Zm4.39-31.64c-.06-.84-.5-2.94-.65-4.6.26-.11.49-.26.7-.45.02.97.03,1.93.07,2.9.07,1.78.1,3.56.13,5.34-.08-1.06-.17-2.13-.25-3.19Zm.04-9.76c-.29-.25-.63-.46-1.04-.6.82.28-.5-.34-1.08-.59.21-2.17.42-4.34.65-6.5.47-.77.5-1.51.23-2.15.09-.85.19-1.7.29-2.56.4.29.86.47,1.34.54-.19,3.96-.35,7.91-.39,11.85Zm-13.5,26.92c-.54.11-1.05.31-1.46.63,1.03-4.21,2.11-8.76,3.19-13.51.37-1.31.75-2.66,1.12-4.01.02.59.04,1.2.04,1.77-.84,5.06-1.88,10.09-2.9,15.13Zm3.2,26.55c-.08-.49-.31-.92-.68-1.25.19-.96.35-1.93.51-2.9,0,.79,0,1.57-.02,2.36-.01.8.27,1.45.72,1.94-.17-.06-.35-.11-.53-.15Z"/>
      <g>
        <path class="cls-4" d="m722.49,8.32c-6.37-2.77-14.24-1.52-15.99,5.2-1.23-5.33-6.47-7.71-11.42-10.05-4.95-2.34-10.51-3.03-15.98-3.33-5.57-.31-11.26-.24-16.56,1.48-5.3,1.72-9.87,2.55-13.41,7.59-2.04-4.26-2.97-5.3-6.32-6.89-3.74-1.77-8.04-2.76-11.76-.31-5.27,3.47-6.79,11.23-3.88,16.83,1.37,2.63,3.65,4.87,6.47,5.77-5.28,23.63-2.97,48.25-5.51,72.33-1.08,10.23-3.49,20.35-4.72,30.56h100.45c.23-32.48-.36-64.98-4.92-97.1,5.38,1,10.87-3.59,11.53-9.02.66-5.43-2.98-10.87-7.99-13.05Z"/>
        <path class="cls-3" d="m661.97,96.47c-3.32-4.38-3.91-10.18-4.37-15.65-.56-6.54-1.06-13.43,1.7-19.39,2.22-4.78,6.51-8.55,11.54-10.13,5.03-1.58,10.71-.94,15.26,1.72,5.23,3.05,8.73,8.5,10.57,14.27,1.84,5.77,2.18,11.9,2.31,17.95.18,8.02-.91,17.64-10.33,18.72-8.66,1-21.05-.07-26.69-7.49Z"/>
        <path class="cls-4" d="m679.84,93.66c-1.13-.17-2.29.19-3.42-.03-1.32-.27-2.58-.88-3.58-1.8-2.7-2.5-3.08-7.04-1-10.07,2.08-3.03,6.28-4.33,9.78-3.2,3.5,1.13,6.1,4.5,6.53,8.15.25,2.15-.24,4.47-1.7,6.07-.77.84-1.84,1.43-2.96,1.64-1.27.24-2.25-.47-3.44-.72-.07-.01-.14-.03-.21-.04Z"/>
        <path class="cls-3" d="m666.73,35.51c-.42-.1-.86.17-.96.6-.78,3.38-3.84,6.12-7.29,6.51-3.46.39-7.05-1.6-8.56-4.73-.19-.39-.35-.79-.51-1.19-.34-.85-.69-1.74-1.29-2.52-.27-.35-.77-.42-1.12-.15-.35.27-.42.77-.15,1.12.46.61.76,1.35,1.07,2.14.03.08.07.17.11.25-.02.03-.04.06-.05.1-.36,1.15-.84,2.25-1.45,3.29-.22.38-.09.87.29,1.09.13.07.27.11.4.11.28,0,.54-.14.69-.4.42-.72.77-1.48,1.08-2.25.68,1.09,1.59,2.02,2.63,2.78,0,.04-.02.08-.01.12.08.83-.04,1.67-.36,2.44-.17.41.03.88.44,1.04.1.04.2.06.3.06.31,0,.61-.19.74-.5.29-.7.45-1.45.49-2.21,1.37.67,2.88,1.05,4.4,1.05.17,0,.35-.02.52-.03.02.74.12,1.65.33,2.12.13.3.42.47.73.47.11,0,.22-.02.33-.07.4-.18.58-.65.4-1.06-.1-.23-.19-1.09-.19-1.69,1.51-.36,2.92-1.08,4.12-2.07.56.33,1.06.77,1.45,1.3.16.22.4.33.65.33.16,0,.33-.05.47-.15.36-.26.44-.76.18-1.12-.43-.59-.96-1.1-1.56-1.51,1.1-1.23,1.91-2.72,2.28-4.33.1-.43-.17-.86-.6-.96Z"/>
        <path class="cls-3" d="m706.45,40.1l-2.43-2.74c.37-.44.71-.91,1.01-1.41.23-.38.1-.87-.28-1.1-.38-.23-.87-.1-1.1.28-1.82,3.05-5.31,4.97-8.85,4.9-3.11-.06-5.95-1.82-6.92-4.26-.16-.41-.62-.61-1.04-.45-.41.16-.61.63-.45,1.04.29.74.71,1.42,1.23,2.03-1.05.53-1.88,1.47-2.25,2.58-.14.42.09.87.51,1.01.08.03.17.04.25.04.34,0,.65-.21.76-.55.25-.76.83-1.4,1.56-1.72.13-.06.22-.14.3-.25.98.79,2.16,1.4,3.46,1.76-.02.09-.03.17-.02.26.13,1.05.08,2.11-.15,3.15-.09.43.18.86.61.95.06.01.12.02.17.02.37,0,.7-.25.78-.63.25-1.14.31-2.3.19-3.46.32.04.63.08.96.08.08,0,.15,0,.23,0,1.04,0,2.07-.15,3.07-.43.26.66.47,1.33.59,2.03.07.39.41.66.79.66.05,0,.09,0,.14-.01.44-.08.73-.49.65-.93-.14-.79-.37-1.55-.66-2.29,1.22-.53,2.35-1.26,3.33-2.15l2.35,2.65c.16.18.38.27.6.27.19,0,.38-.07.53-.2.33-.29.36-.8.07-1.13Z"/>
        <g>
          <path class="cls-3" d="m639.46,63.93c.55-.2,1.23.47.56,1.09-.43.4-1.24.09-1.02-.56.1-.3.28-.46.46-.53Z"/>
          <path class="cls-3" d="m638.12,58.77c.55-.2,1.23.47.56,1.09-.43.4-1.24.09-1.02-.56.1-.3.28-.46.46-.53Z"/>
          <path class="cls-3" d="m645.65,59.42c.55-.2,1.23.47.56,1.09-.43.4-1.24.09-1.02-.56.1-.3.28-.46.46-.53Z"/>
          <path class="cls-3" d="m642.62,56.15c.55-.2,1.23.47.56,1.09-.43.4-1.24.09-1.02-.56.1-.3.28-.46.46-.53Z"/>
          <path class="cls-3" d="m651.07,58.77c.55-.2,1.23.47.56,1.09-.43.4-1.24.09-1.02-.56.1-.3.28-.46.46-.53Z"/>
          <path class="cls-3" d="m646.99,55.5c.55-.2,1.23.47.56,1.09-.43.4-1.24.09-1.02-.56.1-.3.28-.46.46-.53Z"/>
          <path class="cls-3" d="m641.95,60.07c.55-.2,1.23.47.56,1.09-.43.4-1.24.09-1.02-.56.1-.3.28-.46.46-.53Z"/>
          <path class="cls-3" d="m644.98,62.98c.55-.2,1.23.47.56,1.09-.43.4-1.24.09-1.02-.56.1-.3.28-.46.46-.53Z"/>
          <path class="cls-3" d="m645.65,65.88c.55-.2,1.23.47.56,1.09-.43.4-1.24.09-1.02-.56.1-.3.28-.46.46-.53Z"/>
          <path class="cls-3" d="m649.18,62.33c.55-.2,1.23.47.56,1.09-.43.4-1.24.09-1.02-.56.1-.3.28-.46.46-.53Z"/>
          <path class="cls-3" d="m649.85,67.07c.55-.2,1.23.47.56,1.09-.43.4-1.24.09-1.02-.56.1-.3.28-.46.46-.53Z"/>
          <path class="cls-3" d="m642.62,66.42c.55-.2,1.23.47.56,1.09-.43.4-1.24.09-1.02-.56.1-.3.28-.46.46-.53Z"/>
        </g>
        <g>
          <path class="cls-3" d="m703.28,63.98c.55-.2,1.23.47.56,1.09-.43.4-1.24.09-1.02-.56.1-.3.28-.46.46-.53Z"/>
          <path class="cls-3" d="m701.94,58.82c.55-.2,1.23.47.56,1.09-.43.4-1.24.09-1.02-.56.1-.3.28-.46.46-.53Z"/>
          <path class="cls-3" d="m709.48,59.47c.55-.2,1.23.47.56,1.09-.43.4-1.24.09-1.02-.56.1-.3.28-.46.46-.53Z"/>
          <path class="cls-3" d="m706.45,56.21c.55-.2,1.23.47.56,1.09-.43.4-1.24.09-1.02-.56.1-.3.28-.46.46-.53Z"/>
          <path class="cls-3" d="m714.9,58.82c.55-.2,1.23.47.56,1.09-.43.4-1.24.09-1.02-.56.1-.3.28-.46.46-.53Z"/>
          <path class="cls-3" d="m710.82,55.56c.55-.2,1.23.47.56,1.09-.43.4-1.24.09-1.02-.56.1-.3.28-.46.46-.53Z"/>
          <path class="cls-3" d="m705.78,60.12c.55-.2,1.23.47.56,1.09-.43.4-1.24.09-1.02-.56.1-.3.28-.46.46-.53Z"/>
          <path class="cls-3" d="m708.81,63.04c.55-.2,1.23.47.56,1.09-.43.4-1.24.09-1.02-.56.1-.3.28-.46.46-.53Z"/>
          <path class="cls-3" d="m709.48,65.93c.55-.2,1.23.47.56,1.09-.43.4-1.24.09-1.02-.56.1-.3.28-.46.46-.53Z"/>
          <path class="cls-3" d="m713,62.39c.55-.2,1.23.47.56,1.09-.43.4-1.24.09-1.02-.56.1-.3.28-.46.46-.53Z"/>
          <path class="cls-3" d="m713.67,67.13c.55-.2,1.23.47.56,1.09-.43.4-1.24.09-1.02-.56.1-.3.28-.46.46-.53Z"/>
          <path class="cls-3" d="m706.45,66.48c.55-.2,1.23.47.56,1.09-.43.4-1.24.09-1.02-.56.1-.3.28-.46.46-.53Z"/>
        </g>
      </g>
      <path class="cls-2" d="m614.2,129.43c15.6,0,31.19-.6,46.75-1.6,15.1-.97,30.28-2.03,45.29-3.96,3.61-.46,7.41-1.11,11.05-.63,2.9.38,5.62,1.8,8.41,2.6v-2.89c-8.01,3.26-16.73.46-25.06.6s-17.06.86-25.48,2.25l.8,2.89c8.34-2.11,16.61-4.61,25.08-6.16,4.22-.77,8.39-.72,12.63-.07s8.25,1.58,12.42,2.12l-1.06-2.56c-1.73,1.39-3.96,2.12-6.08,2.64-2.72.67-5.52.98-8.31,1.14-6.04.35-12.12.02-18.13-.55-2.57-.25-5.13-.55-7.68-.9-1.89-.26-2.7,2.63-.8,2.89,5.45.76,10.92,1.33,16.42,1.58,6.27.28,12.75.27,18.9-1.17,2.81-.66,5.55-1.69,7.81-3.51,1.15-.92.06-2.42-1.06-2.56-4.27-.55-8.46-1.58-12.72-2.17s-8.44-.61-12.7.15c-8.63,1.54-17.03,4.09-25.52,6.24-1.91.48-1.07,3.2.8,2.89,8.44-1.39,17.01-2.05,25.56-2.15,8.38-.1,16.87,2.6,24.97-.7,1.3-.53,1.54-2.45,0-2.89-2.53-.73-4.95-1.9-7.52-2.45-3.13-.66-6.39-.38-9.54-.03-7.46.83-14.91,1.66-22.39,2.33-15.36,1.37-30.75,2.46-46.17,3.07-8.89.35-17.79.54-26.69.55-1.93,0-1.93,3,0,3h0Z"/>
      <path class="cls-2" d="m607.82,129.43c1.96-.14,3.7-.84,5.32-1.93,1.48-.99,2.82-2.2,4.4-3.01,3.07-1.58,7.14-.06,10.29.59,4.41.91,8.86,1.05,13.35,1.15,5.11.11,10.22-.11,15.27-.95,4.29-.71,9.69-2.13,13.45.87,1.49,1.19,3.63-.92,2.12-2.12-3.55-2.84-7.84-2.94-12.16-2.34-2.27.32-4.52.79-6.79,1.06-2.69.32-5.39.47-8.09.5s-5.4-.05-8.1-.18c-2.25-.1-4.48-.17-6.7-.59-3.62-.68-7.63-2.12-11.34-1.56-4.24.64-6.76,5.19-11.02,5.5-1.91.14-1.93,3.14,0,3h0Z"/>
    </g>
  </g>
</svg>