<?xml version="1.0" encoding="UTF-8"?>
<svg id="Livello_2" data-name="Livello 2" xmlns="http://www.w3.org/2000/svg" viewBox="0 0 100.71 102.39">
  <defs>
    <style>
      .cls-1 {
        fill: #e0a0a0;
        stroke-width: 0px;
      }
    </style>
  </defs>
  <g id="Livello_1-2" data-name="Livello 1">
    <path class="cls-1" d="m99.54,40.68C93.64,13.06,66.77-4.69,39.65,1.09,12.52,6.89-4.74,34.08,1.16,61.7c5.15,24.1,26.25,40.69,49.56,40.69,3.41,0,6.88-.36,10.34-1.09,13.15-2.81,24.4-10.67,31.67-22.13,7.25-11.44,9.68-25.11,6.82-38.47Zm-40.08,17.88l2.61,12.19c1.13,5.28-3.63,6.58-4.6,6.79-2.34.49-7.05.12-8.13-4.92l-2.43-11.38c-.35-1.61-1.77-2.72-3.36-2.72-.24,0-.48.02-.72.08l-12.19,2.6c-5.3,1.13-6.58-3.63-6.79-4.6-.5-2.34-.12-7.05,4.92-8.12l11.38-2.43c1.85-.4,3.03-2.22,2.64-4.08l-2.6-12.19c-.47-2.19.01-3.96,1.43-5.24,1.77-1.6,4.72-2.16,7.17-1.37,1.52.49,3.47,1.71,4.11,4.74l2.43,11.38c.4,1.85,2.21,3.04,4.08,2.64l12.19-2.6c5.31-1.12,6.58,3.63,6.79,4.6.5,2.34.11,7.05-4.92,8.12h0l-11.37,2.43c-.89.19-1.67.73-2.17,1.49-.5.76-.67,1.7-.48,2.59Z"/>
  </g>
</svg>