<?xml version="1.0" encoding="UTF-8"?>
<svg id="Livello_2" data-name="Livello 2" xmlns="http://www.w3.org/2000/svg" viewBox="0 0 763.23 174.31">
  <defs>
    <style>
      .cls-1 {
        fill: #ffadad;
      }

      .cls-1, .cls-2, .cls-3, .cls-4 {
        stroke-width: 0px;
      }

      .cls-2 {
        fill: #fff;
      }

      .cls-3 {
        fill: #9e8d8d;
      }

      .cls-4 {
        fill: #e0a0a0;
      }
    </style>
  </defs>
  <g id="Livello_1-2" data-name="Livello 1">
    <g>
      <g>
        <path class="cls-4" d="m763.23,27.34l-5.61,3.37c.82.52,1.6,1.09,2.32,1.74,1-1.96,2.39-3.36,3.29-5.11Z"/>
        <path class="cls-4" d="m723.28,27.66c-14.9.64-29.34-.33-44.38-.33-32.43,0-62.51,6.11-94.35,9.21-57.06,5.54-114.17,11.76-171.24,14.41-48.61,2.26-96.15,3.01-145.06,3.01-80.44,0-167.57,17.96-243.33-14.64-5.75,16.58-2.83,38.05-7.62,55.7C11.9,114.9-2.69,144,.43,164.4c28.57,3.67,56.14-1.78,84.07-4.32,8.09,1.03,16.19,2.04,24.3,2.97,33.75,3.9,67.7,6.38,101.62,8.42,33.92,2.03,67.9,3.21,101.89,2.73,33.14-.47,66.23-2.66,99.2-6.01,7.16-.73,14.31-1.52,21.46-2.35,8.53.03,17.07-.04,25.6-.23,27.08-.61,54.04-3.09,81.07-4.57,8.26.9,16.51,1.88,24.8,2.32,3.87.21,7.73.28,11.61.19.15,0,.28-.03.41-.06,13.7,2.12,27.38,4.49,41.17,6.61,15.29,2.35,28.29,3.67,43.9,2.2,15.65-1.47,32.26,2.25,47.49-1.51,41.82-10.31,23.63-97.15,32.03-130.15l16.58-9.95c-9.22-5.83-23.94-3.48-34.34-3.04Zm-290.33,135.18c-9-.03-17.99-.17-26.98-.4,4.58-.3,9.17-.58,13.76-.82,11.49-.6,22.99-1.05,34.49-1.41-7.08.92-14.17,1.8-21.27,2.63Zm-37.34-10.59c-9.45-.22-18.91-.53-28.35-.92,9.54-.04,18.97.34,28.35.92Zm.82,3.88c-37.67-.07-75.32-1.38-112.93-3.44-13.84-.76-27.67-1.61-41.5-2.52,8.99-.39,18.02-.51,27.08-.06,19.13.95,37.8,1.83,56.61,1.96,24.01,1.61,48.05,2.69,72.11,3.22,10,.22,20.01.34,30.01.37-2.31.14-4.61.27-6.92.39-8.15.05-16.31.08-24.46.07Zm-44.97,2.36c-7.43.17-14.86.3-22.29.39-20.84-1.23-41.67-2.62-62.48-4.17.56.03,1.12.07,1.68.1,27.67,1.66,55.38,2.95,83.09,3.67Zm-156.57-5.29c3.56-.19,7.12-.41,10.7-.65,14.71,1.95,29.45,3.63,44.22,5.03-18.31-1.03-36.6-2.54-54.84-4.37-.03,0-.05,0-.08,0Zm85.86,8.64c12.24.28,24.5.34,36.75.26,9.62.37,19.24.62,28.86.75,1.25.07,2.51.14,3.76.21-22.37,1.1-44.77,1.55-67.17.86-28.3-.88-56.67-3.68-84.76-7.4,27.45,2.7,54.98,4.69,82.56,5.33Zm-55.09,7.48c-33.41-1.73-66.87-4.04-100.16-7.45-8.43-.86-16.85-1.82-25.27-2.84.35-.01.7-.03,1.06-.04,22.45-.72,44.59-2.63,66.54-4.17,6.18,1.16,12.39,2.18,18.62,3.09,13.89,2.03,27.85,3.54,41.81,4.99,15.52,1.61,31.03,3.05,46.62,3.72,32.22,1.39,64.48.32,96.64-1.8,1.92-.13,3.84-.27,5.77-.4,10.38.46,20.75.81,31.14,1.06-27.38,2.73-54.86,4.66-82.36,5.42-33.47.93-66.97.14-100.4-1.59Zm248.63-7.22c-5.08.21-10.16.36-15.24.48,7.47-.99,14.94-2.04,22.4-3.13,11.85-.35,23.73-.65,35.54-.26.47.02.94.05,1.41.07-14.7,1.03-29.39,2.24-44.11,2.85Z"/>
      </g>
      <path class="cls-1" d="m757.42,19.46c-.91-3.32-5-5.75-8.92-3.96-11.04,5.03-24.57,1.06-36.19.84-13.1-.24-26.26.35-39.36.52-25.59.34-51.14,1.98-76.62,4.21-12.91,1.13-25.64,1.28-38.58.79-12.42-.48-24.88-1.13-37.3-.12-24.8,2.01-48.94,9-73.84,10.28-12.55.64-25.15-.45-37.72-.29-9.09.12-18.17.46-27.25.73-17.54-.51-35.03-.59-52.61-.43-12.18-.48-24.36-1.06-36.54-1.38-25.76-.67-51.54-.14-77.31-.82-25.22-.66-50.35-2.24-75.42-5.07-25.45-2.87-51.11-.31-76.62-2.05-5.83-.4-11.68-.82-17.53-.97.8-4.72,1.55-9.44,2.21-14.17.46-3.23-.79-6.41-4.19-7.38-2.81-.81-6.93.99-7.38,4.19-.83,5.84-1.77,11.68-2.78,17.5-7.53.41-15.25,1.51-21.31,6.28-4.84,3.81-.37,9.96,4.69,9.87.53.74,1.44,1.27,2.74,1.28,3.56,0,7.11.07,10.66.15-6.54,34.29-14.1,68.52-14.24,103.49-.03,7.13,10.18,7.68,11.78,1.65.11.07.22.14.34.2,2.96,5.86,22.88,4.3,27.34,4.29,7.38-.03,14.77.23,22.14.1,12.33-.23,24.63-1.24,36.97-1.27,12.68-.03,25.36.72,38.05.68,13.14-.04,26.29-.41,39.42-.92,25.95-1.02,51.86-2.57,77.82-3.38,46.76-1.46,93.56-1.13,140.33-2.03,14.77,1.23,23.87,2.6,24.73,4.1h15.15c0-1.98,6.06-3.96,15.9-5.55,38.07-1.1,76.14-2.26,114.23-2.72,8.92-.11,17.84-.12,26.76-.1,2.4.12,4.81.23,7.21.35-.8,2.78,3.61,4.96,5.61,2.12.42-.6.86-1.19,1.29-1.79,8.38.41,16.77.82,25.14,1.26,11.07.59,22.15.98,33.21,1.64,4.93.29,9.88.49,14.79-.15,5.35-.7,10.34-2.87,15.78-2.99.15,0,.28-.03.41-.05,3.3.46,6.44.42,10.31-.05,2.64-.32,5.23-.23,7.81-.07-.07,1.26-.14,2.52-.04,3.79.21,2.74,3.41,3.61,5.42,2.31,2.21.87,4.93.86,7.47.09,6.81-2.07,9.32-7.89,11.09-14.23,4.43-15.81,4.7-32.95,6-49.24,1.49-18.59,2.62-37.2,4.1-55.78.29-3.68-2.3-5.59-5.16-5.74Zm-74.94,88.84s-.06-.03-.09-.04c.07-.17.14-.34.18-.54,1.21-5.31,4.35-10.16,7.79-14.5-2.81,4.93-5.46,9.94-7.89,15.09Zm-325.59-59.49c.62-.03,1.38-.03,2.31-.03.06,0,.12,0,.18,0-.82.46-1.62.94-2.41,1.44.05-.48.01-.95-.08-1.42Zm-163.22,62.72c1.21-1.3,1.59-2.86,1.38-4.37.15-.16.3-.31.42-.42,1.05-.9,2.16-1.74,3.28-2.57,2.94-2.18,5.88-4.35,8.79-6.55,7.83-5.9,15.76-11.7,23.64-17.54,7.49-5.55,14.45-11.56,21.74-17.31,2.93-2.31,5.93-4.54,9.01-6.69.93-.64,2.61-2.02,4.05-2.87h6.72c-.55.43-1.1.86-1.65,1.28-7.26,1.67-18.58,8.21-27.97,16.46-16.7,17.61-35.6,33.26-49.41,40.57Zm20.58,3.15c-.25.34-.45.68-.6,1.02-.34-.08-.65-.19-.87-.38,0,0,.19-.25.57-.71.29.04.59.06.9.07Zm-56.94-9.91c-3.49,2.28-3.53,6.02-1.82,8.62-10.3,6.03-18.43,10.8-18.43,10.8-10.1,0,10.1-17.74,35.34-31.05,10.1-8.87,20.19-17.74,25.24-26.62,2.72-7.18,6.93-10.48,18.14-12-19.68,16.62-36.52,35.91-58.47,50.26Zm29.12,9.96c-3.75,1.26-6.83,1.54-8.99.59-2.37,0-1.4-1.95,2.37-5.4.62,2.78,3.52,4.73,6.61,4.81Zm-68.97-25.14c1.7-1.78,3.41-3.55,5.13-5.31,4.32-4.41,8.67-8.8,13.37-12.81,2.16-1.84,6.14-5.65,9.94-7.41-.07.18-.13.35-.22.53-.28.52-.57,1.02-.87,1.52-9.34,7.57-17.89,16.06-27.35,23.49Zm-1.55-32.43c.24-.35.37-.69.45-1.03,2.06-1.55,4.26-2.95,6.56-3.8.3.47.72.85,1.19,1.13-2.7.13-5.68,1.89-8.36,3.93.05-.08.11-.15.16-.22Zm7.12-8.62c.65-.76.77-.87.35-.35-.11.13-.2.27-.29.41-.02-.02-.04-.04-.06-.06Zm14.79,9.98c2.15-2.15,4.9-1.74,6.68-.16-2.61,1.14-5.06,2.87-7.08,4.33-5.12,3.72-9.78,8.03-14.27,12.48-9.94,9.86-19.42,20.16-28.77,30.58.22-.54.54-1.07.99-1.58,13.86-15.49,27.78-30.94,42.46-45.66Zm-76.49,8.01q0-8.87,15.15-13.31h9.74c-4.25,3.87-8.58,7.67-13.07,11.32-4.11,3.35-8.42,6.53-12.24,10.14-.35.33-.69.68-1.02,1.02.81-2.93,1.44-6.06,1.44-9.18Zm28.49,2.89c5.44-6.57,11.25-12.99,17.93-18.33,4.76-3.8,10.43-7.75,16.79-7.65,4.85.08,6.04,5.77,3.58,8.53.62-1.2,1.1-1.89.91-3.43-.17-1.45-1.24-3.23-3-3-11.03,1.42-20.4,11.41-28.3,18.54-8.68,7.83-16.01,16.94-23.65,25.76,4.88-7.18,10.43-14.01,15.73-20.41Zm-7.19,25.7c-3.84,5.61-7.29,11.47-9.85,17.52-1.16,2.74-3.63,3.11-5.71,2.14.38-.71.41-1.52.17-2.26,4.82-6.07,10.05-11.79,15.39-17.4Zm-2.92,19.01c.14-.1.29-.19.43-.29-.59,1.16.03,1.48,1.38,1.48.93.82,1.88,1.32,3.1,1.37-2.34,2.64-4.69,5.27-7.04,7.9-4.97.47-9.15.7-12.54.64,5.59-2.48,9.98-7.93,14.67-11.11Zm11.67,3.98c.88.11,1.86.02,2.92-.29.06,1.02.62,1.71,1.37,2.08-.76.74-1.52,1.49-2.27,2.24-2.11.38-4.31.76-6.63,1.15,1.54-1.73,3.08-3.46,4.61-5.18Zm9.91-4.88c1.57-1.04,3.26-2.03,4.85-2.97-1.85,1.62-3.67,3.26-5.48,4.91.16-.66.38-1.31.63-1.95Zm1.15-1.97c-.15.16-.3.31-.45.45,1.93-3.72,5.25-6.94,8.85-9.8-2.81,3.11-5.6,6.23-8.4,9.35Zm51.8-24.18c10.42-8.91,20.52-18.75,32.26-26.47-.12,3.98-10.71,12.97-39.34,32.55-6.94,6.09-12.81,10.78-18.05,14.46,8.39-6.82,16.92-13.51,25.13-20.53Zm69.07-22.72c4.43-3.72,9.02-7.29,13.83-10.64.55-.06,1.1-.19,1.65-.4,1.83-.02,3.77-.04,5.77-.05-4.67,3.59-9.17,7.35-13.73,11.05-1.7-.56-4.32-.6-7.53.05Zm267.36-26.27c20.15-.64,40.3-1.29,60.45-1.93-1.29.85-2.57,1.7-3.86,2.56-19.3.75-37.31,1.2-51.75,1.2-4.69,0-9.64-.04-14.8-.11,3.32-.56,6.64-1.14,9.96-1.72Zm206.1,12.25c.59-.44,1.19-.88,1.78-1.32.52-.05,1.08-.09,1.68-.12-1.62,1.57-3.2,3.15-4.82,4.67.56-1.02,1.03-2.09,1.35-3.23Zm-2.05,4.39c.04-.07.08-.13.13-.2.02.02.03.04.05.07-.06.04-.12.09-.18.13Zm-72.6-20.05c-1.2-.18-2.45-.13-3.62.24-18.55,1.24-38.41,2.35-57.56,3.21-.42-.86-1.03-1.63-1.76-2.24,13.18-.41,26.35-.82,39.53-1.2,15.54-.45,31.08-1.07,46.61-1.74-7.34.59-15.11,1.16-23.19,1.72Zm22.49,17.12c-2.24,1.38-4.48,2.76-6.71,4.14,1.36-3.5,3.9-5.15,6.71-4.14Zm-58.28,5.18c-.3.21-.6.43-.91.65.3-.24.59-.49.89-.73,0,.03.01.06.02.08Zm-47.77,35.43c-1.97,1.61-3.93,3.22-5.86,4.86,1.18-1.13,2.35-2.25,3.56-3.37,7.5-6.9,15.12-13.71,22.71-20.54,4.45-4.01,8.87-9.13,13.91-13.16.29-.22.57-.44.85-.66.73-.56,1.47-1.08,2.23-1.58-5.26,4.82-10.21,9.98-15.4,14.92-6.81,6.48-14.76,12.71-22,19.53Zm-19.09,18.53c1.15-1.28,2.3-2.56,3.47-3.81-.11.47-.14.96-.11,1.44-1.14.85-2.26,1.63-3.36,2.37Zm23.42-14.55c7-6.55,14.71-12.5,21.2-18.59,6.19-5.8,11.94-12.03,18.33-17.62,2.38-1.94,4.77-3.87,7.17-5.79,4.13-2.99,8.68-5.55,13.54-6.5-.2,1.33.56,2.63,1.64,3.26-13.05,8.48-24.51,19.08-36.26,29.24-7.32,6.33-14.36,11.53-22.18,17.3-3.05,2.25-6.1,4.51-9.11,6.84,1.37-3.01,3.72-5.83,5.68-8.14Zm46.91-10.14c6.8-6.2,13.72-12.31,20.57-18.47,1.77-1.59,3.49-3.22,5.26-4.81.9-.81,1.81-1.61,2.73-2.39.95-.81,2.59-1.27.63-.91,4.04-.74,5.38-3.69,4.77-6.45h3.01c0,2.92-10.97,13.56-28.56,28.09-.61.41-1.23.81-1.84,1.22-2.58,1.74-5.29,3.41-8.05,5.05.49-.45.99-.88,1.48-1.33Zm50.01,8.75c.81.37,1.68.67,2.58.9,4.64-4.51,9.54-8.79,13.97-13.19,9.2-9.13,17.61-20.68,28.67-27.8-.59,1.02-1.16,2.06-1.73,3.11-.18.16-.36.32-.54.47-3.62,3.21-7.11,6.5-10.59,9.86-8.27,7.98-16.42,16.1-24.73,24.05-5.59,5.35-13.19,11.44-18.88,18.44-.62.03-1.22.05-1.8.05l-7.86,1.38c7.34-5.36,14.13-11.31,20.9-17.27Zm95.57,8.65c.02.85.04,1.71.06,2.58-.29.11-.56.24-.79.43.24-.98.49-1.99.73-3.01Zm1.26-5.29c.4-1.71.8-3.44,1.21-5.22.61-2.16,1.23-4.38,1.84-6.63-.5,3.61-1.14,7.2-1.83,10.79-.45.29-.86.64-1.22,1.06Zm8.52-.83c-.12-.09-.24-.17-.37-.25.26-1.34.51-2.67.74-4.01-.12,1.42-.24,2.84-.37,4.26ZM43.46,33.77s0-.04,0-.05c1.83.03,3.67.08,5.5.16-1.84-.03-3.67-.06-5.51-.1Zm22.94,68.96c.2-.4.42-.81.63-1.21.28.34.61.63.99.85-1.28,1.46-2.53,2.93-3.76,4.43-2.68,2.14-5.28,4.34-7.61,6.78,2.14-2.97,5.42-6.56,9.76-10.84Zm87.35,39.87c-13.79.06-27.57-.82-41.35-.66-13.42.15-26.79,1.34-40.22,1.3-4.66-.01-9.33-.05-14-.09,8.13-1.46,17.38-3.27,25.94-5.12,12.01,1.81,24.3,1.92,36.46,1.82,15.32-.12,30.66-.27,45.98-.6,16.25-.36,32.52-.61,48.69,1.15,1.01.11,2.03.22,3.04.34-21.51.95-43.02,1.76-64.54,1.86Zm77.84-6.42c4.41.06,8.83.12,13.27.18-4.39.31-8.83.17-13.27-.18Zm71.12,1.36c-14.72.25-29.43.77-44.14,1.4.34-.75.31-1.6-.01-2.35,14.97.26,29.92.58,44.44.95-.09,0-.19,0-.28,0Zm-5.3-53.46c-.79.69-1.6,1.37-2.4,2.06-3.64,2.29-7.49,4.63-11.54,7-15.15,8.87-30.29,17.74-30.29,22.18s-5.05,8.87-10.1,8.87c-8.52,0-6.26-6.31,18.89-24.26,2.09-1.25,4.19-2.51,6.27-3.79,13.57-8.32,27.63-15.77,41.77-23.16-4.2,3.69-8.38,7.41-12.61,11.09Zm31.5-35.3c5.98-1.31,8.39-.28,7.68,2.5-1.09.79-2.17,1.59-3.24,2.4-1.73-2.58-5.31-4.15-9.07-2.15-3.28,1.75-6.58,3.46-9.89,5.17,1.63-2.28,6.46-7.92,14.52-7.92Zm-6.17,43.44c1.46-1.21,2.93-2.4,4.41-3.59-1.28,1.37-2.56,2.75-3.83,4.13-1.8,1.15-3.61,2.3-5.41,3.45,1.61-1.33,3.23-2.66,4.83-3.99Zm13.82,5.11c14.93-9.46,34.3-23.3,42.83-30.8,10.1-8.87,20.19-13.31,20.19-13.31,5.05,0-5.05,8.87-15.15,17.74-17.91,13.11-44.64,30.88-62.46,42.29,4.85-5.31,9.66-10.66,14.58-15.92Zm22.53,25.78c-4.98,2.39-9.08,3.11-14.02,2.44,1.13-.92,2.27-1.82,3.41-2.72,1.81,1.06,4.15,1.21,6.54-.33,7.66-4.95,15-10.25,22.3-15.6-6.34,5.16-12.52,10.47-18.23,16.21Zm38.82-7.16c-.62,1.63-.26,3.26.67,4.59-9.95,3.64-16.74,3.79-14.14-.79,0,0,10.1-8.87,25.24-17.74,15.15-8.87,30.29-22.18,40.39-26.62,6.02-5.29,12.02-8.98,16.97-11.12-11.71,8.71-24.08,16.69-36.11,25.05-6.24,4.34-12.65,8.35-19.01,12.53-5.51,3.63-11.76,8.13-14.02,14.09Zm44.25-2.88c-3.39,2.76-2.34,6.4.36,8.48-4.81-.17-9.62-.26-14.42-.24l16.93-14.87c10.1-8.87,30.29-22.18,40.39-31.05,19.34-17,24.79-21.78,34.09-18.25-26.58,17.79-52.82,35.98-77.35,55.93Zm68.07-11.19c-5.41,6.18-10.71,12.9-17.69,17.83-.69.02-1.37.04-2.08.04-2.43,0-4.47,0-6.14-.02,3.58-2.92,7.14-5.86,10.87-8.63,6.32-4.69,12.73-9.32,19.25-13.82-1.43,1.51-2.84,3.04-4.21,4.6Zm48.75-5.4c-3.13,2.69-6.75,5.4-10.08,8.32-.4.53-.78,1.07-1.15,1.62-.32.48-1.54,2.63-1.39,2.3-.61,1.34-.34.59-.27,1.39.37,3.7-2.81,5.24-5.68,4.66-.01.03-.03.05-.04.08-.94,1.83-.82,3.6-.08,5.09-11.85,3.36-13.8.96-3.21-7.21-.07-.09-.12-.19-.18-.28,5.06-4.12,10.3-8.03,15.58-11.87-.81.89-1.61,1.78-2.37,2.71,3.46-2.68,6.77-5.25,9.92-7.71-.35.3-.69.61-1.04.91Zm42.55,18.84l3.53-3.1c.54.8,1.32,1.52,2.23,2.09l-5.76,1.01Zm-2.21-16.61c-6.17,5.42-12.15,10.91-17.05,17.28-1,1.31-1.31,2.59-1.12,3.76-14.95-.04-14.85-4.49,10.29-17.74.82-1.08,1.64-2.09,2.46-3.06,3.73-2.36,7.42-4.77,11.1-7.24,2.28-1.53,4.58-3.03,6.88-4.53-4.14,3.88-8.26,7.77-12.55,11.53Zm19.24,32.61c-.02.21-.01.41.01.62-1.71-.01-3.41-.02-5.12-.02,1.69-.2,3.39-.39,5.1-.59Zm57.51.66c-.26,0-.52,0-.78.01.17-.23.31-.48.41-.75,2.59.22,5.17.42,7.77.59-2.47.06-4.94.1-7.4.15Zm16.27-30.11c3.54-6.59,7.42-12.99,11.43-19.33,1.87,1.75,2.6,4.75.26,7.08-3.98,3.98-8,7.97-11.69,12.25Zm21.54,31.14c-.78-.01-1.51-.09-2.21-.22-.4-.19-.87-.31-1.42-.33-1.55-.41-3.03-.96-4.7-1.35-.6-.14-1.19-.23-1.78-.3.18-.19.35-.39.51-.62.8-1.21.57-2.36-.2-3.19,5.42.7,10.16,3.21,13.22,5.79-1.14.14-2.28.24-3.42.22Zm3.76-31c0,2.98-4.54,3.95-9.06,4.27.63-.79,1.26-1.58,1.9-2.35,1.5-1.8,3.06-3.56,4.8-5.19.64-.6,1.69-1.51,2.15-1.86.24-.18.44-.3.58-.36.47-.03.92-.09,1.36-.18-.95,3.59-1.74,5.67-1.74,5.67Zm3.94-16.4c-.6-.36-1.28-.61-2.03-.7-2.58-.31-4.93.02-7.09.79,2.33-2.56,4.63-5.12,6.92-7.71,1.08-1.22,2.17-2.43,3.25-3.66-.15,4.08-.54,7.88-1.05,11.27Zm4.5-29.55c-.54-.03-1.09,0-1.66.09.59-.54,1.2-1.04,1.85-1.51.05-.02.09-.04.14-.06l-.34,1.48Zm3.08,76.24s-.04.04-.06.07c-.38-.03-.76-.07-1.14-.1.67-2.41,2.8-10.09,5.42-20.55.07.16.14.31.24.45-.33,6.65-2.29,13.31-4.35,19.65-.06.17-.08.33-.1.49Z"/>
      <g>
        <path class="cls-3" d="m722.78,138.97c-3.19-17.19-1.73-35.22-3.33-52.77-1.9-20.91-10.23-43.73-29.37-52.37-10.63-4.8-22.99-4.35-34.32-1.55-4.85,1.2-9.65,2.83-13.85,5.54-10.11,6.53-15.49,18.55-17.33,30.44-1.84,11.89-.68,24.02-.65,36.05.03,11.61-1.01,23.22-3.08,34.65h101.93Z"/>
        <path class="cls-2" d="m629.87,95.03c-.39-9.82-.19-20.14,4.57-28.73,1.53-2.76,3.58-5.35,6.34-6.88,2.76-1.53,6.33-1.86,9.06-.26,3.49,2.05,4.69,6.42,5.59,10.37,1.72,7.56,3.44,15.13,5.16,22.69,1.1,4.82,2.29,9.84,5.45,13.64,3.16,3.8,8.93,5.93,13.19,3.42,3.14-1.85,4.6-5.55,5.63-9.04,2.07-7,3.3-14.25,3.65-21.54.22-4.55.1-9.16,1.12-13.6.7-3.06,2.11-6.2,4.83-7.77,3.66-2.11,8.57-.57,11.47,2.5,4.55,4.82,4.99,12.09,5.17,18.72.31,11.66.63,23.33.94,34.99.08,2.94.09,6.13-1.64,8.51-2.11,2.9-6.05,3.66-9.61,4.1-15.1,1.9-30.34,2.38-45.55,2.65-10,.18-20.26,1.68-23.09-10.06-1.84-7.62-1.97-15.93-2.28-23.72Z"/>
        <path class="cls-3" d="m640.91,78.5c.51-.89,1.59-1,2.68.02.81.75,1.16,1.87,1.41,2.95.3,1.27.4,2.88-.69,3.6-1.09.73-2.67-.1-3.2-1.3-.52-1.18-.57-2.88-.5-4.14.02-.45.13-.83.3-1.12Z"/>
        <path class="cls-3" d="m699.31,76.97c.69-.75,1.77-.62,2.61.61.62.91.71,2.08.72,3.19,0,1.3-.25,2.89-1.47,3.36-1.23.47-2.58-.69-2.83-1.98-.24-1.27.09-2.93.44-4.15.12-.43.31-.78.54-1.02Z"/>
        <path class="cls-2" d="m672.04,102.57c.32,1.22.8,2.52.92,3.03.19.78.47,1.65,1.2,2.01.69.34,1.56.07,2.12-.45.57-.52.9-1.24,1.22-1.94.67-1.47,1.24-3.46,0-4.49-.5-.41-1.17-.54-1.81-.63-2.57-.36-4.47-.73-3.64,2.47Z"/>
      </g>
    </g>
  </g>
</svg>