<?xml version="1.0" encoding="UTF-8"?>
<svg id="Livello_2" data-name="Livello 2" xmlns="http://www.w3.org/2000/svg" viewBox="0 0 128.61 162.38">
  <defs>
    <style>
      .cls-1 {
        fill: #f4e9e9;
      }

      .cls-1, .cls-2 {
        stroke-width: 0px;
      }

      .cls-2 {
        fill: #9e8d8d;
      }
    </style>
  </defs>
  <g id="Livello_1-2" data-name="Livello 1">
    <g>
      <path class="cls-1" d="m119.31,15.2c-3.88.05-6.92,0-10.77-.71-3.85-.7-7.72-.62-11.62-.72-4.57-.12-9.09-.83-13.59-1.66.5-5.05-.36-10.31-6.3-11.82-3.42-.87-7.35.3-10.34,1.97-1.59.89-2.89,1.94-3.98,3.4-.57.76-.91,1.93-1.35,2.89-3.76-.59-7.48-1.31-11.27-2.43-5.13-1.52-10.78-2.87-15.16,1.1-2.02,1.83-3.28,4.28-4.24,6.79-.2.53-.36,1.09-.49,1.67-1.09,0-2.17.04-3.27.23-2.39-1.32-5.42-1.18-7.14,1.61-2.36.28-4.55,1.59-5.12,4.22-4.13,19.2-6.5,38.71-8.52,58.24-.99,9.52-1.89,19.06-2.91,28.58-1.06,9.89-4.21,20.23-2.91,30.19.42,3.24,2.41,5.97,6,6,3.45.03,6.74-.75,10.16-.95,3.77-.22,7.44.86,11.15,1.44,7.43,1.16,14.86,2.66,22.33,3.52,7.39.85,14.82.73,22.25.95,3.41.1,6.79.12,10.21-.03,4.08-.19,7.89.51,11.93.56,3.49.05,5.39-2.32,5.73-4.97.7-.97,1.12-2.15,1.1-3.41,0-.19,0-.4,0-.6,2.42-.11,4.71-1.71,5.6-4.34,2.84-8.42,2.5-17.63,3.79-26.35,1.46-9.86,2.87-19.74,4.16-29.62,2.52-19.27,3.28-39.85,10.37-58.16,1.42-3.67-2.2-7.64-5.79-7.6Zm-26.45,10.37c-4.67,3.04-9.16,6.29-13.52,9.71,3.26-3.36,6.63-6.61,9.71-10.13,1.27.17,2.54.31,3.81.42ZM26.22,131.16c1.35-.98,2.57-2.08,3.68-3.27.97.96,1.92,1.89,2.88,2.75-.15.34-.26.68-.34,1.03-2.09-.11-4.16-.27-6.22-.51Zm16.42-20.24s-.01,0-.02,0c.02-.02.04-.04.05-.06-.01.02-.02.04-.04.06Zm-26.02,19.88c.15.71-.16,1.76,0,0h0Zm80.41-5.21s.03-.05.05-.07c-.07.49-.15.97-.23,1.45-.33,0-.67.04-1,.09.38-.5.78-.99,1.19-1.47Zm5.53-43.44c-2.11-.97-4.6-.84-6.33,1.31-.31.38-.63.76-.94,1.14-.6-.08-1.21-.08-1.81.04,3.47-4.55,6.95-9.1,10.43-13.66-.23,2.06-.46,4.11-.7,6.14-.2,1.68-.43,3.36-.64,5.04Zm6.83-49.05c-.72.12-1.44.41-2.13.9-7.87,5.6-15.44,11.59-22.86,17.77,8.07-7.86,17.04-14.94,25.15-22.48.59-.55,1.02-1.15,1.32-1.77-.54,1.84-1.03,3.7-1.48,5.57Zm-10.15,72.55c-1.01-.52-2.18-.73-3.38-.52,1.45-2.24,2.93-4.47,4.44-6.68-.35,2.4-.7,4.8-1.06,7.2Z"/>
      <path class="cls-2" d="m128.55,31.45c-1.1-4.39-7.38-5.21-18.78-6.68-6.53-.85-14.62-1.9-23.87-3.9.91-2.59,1.75-5.67-.06-8.63-1.11-1.81-3.11-3.09-5.77-3.68-2.26-.51-4.28-.4-6,.31-2.87,1.2-4.88,4.13-5.25,7.65-.05.47-.07.95-.06,1.43-6.95-.96-13.27-2.24-18.42-3.29-11.22-2.29-17.41-3.54-19.17.47-.06.15-.11.3-.14.45l-1.37,7.8c-5.38-.67-9.82-.78-11.09,2.5-.06.15-.1.3-.12.46L2.66,146.7c-.04.32,0,.65.11.96,1.59,4.28,7.73,4.79,18.86,5.73,6.7.56,15.05,1.27,24.73,3.01.05,0,.11.02.17.02,9.13.85,18.5,2.24,26.76,3.47,10.7,1.59,17.28,2.49,21.34,2.49,2.67,0,4.26-.39,5.21-1.22.62-.54.97-1.27,1.01-2.07l.56-4.27c.28,0,.55.02.8.02,2.07,0,3.39-.33,4.25-1.02.64-.52,1.03-1.23,1.1-2.02l21.02-119.51c.05-.28.04-.56-.03-.83Zm-55.06-9.62c-.62-1.87-.85-3.47-.7-4.89.16-1.55,1-3.62,2.81-4.37.94-.39,2.15-.43,3.59-.1.9.2,2.53.71,3.23,1.87.92,1.51.4,3.26-.56,5.95-.32.88-.65,1.8-.87,2.71-.6,2.42-.17,4.46,1.19,5.75.93.88,2.06,1.18,3.08,1.45,3.24.86,7.74,2.7,10.76,6.53,1.29,1.64,2.24,3.6,2.73,5.61.06.35.23,1.79.36,3.1l-42.7-8.05c.14-1.57.9-3.28,2.04-4.48,1.32-1.39,3.27-2.39,5.49-2.83.59-.12,1.2-.2,1.8-.28,1.98-.27,4.23-.57,6.13-1.98,1.18-.88,1.88-1.99,2.05-3.21.14-1.06-.17-1.99-.43-2.78Zm-21.01,17.3c.09.64.43,1.19.95,1.56,0,0,0,0,.01,0,.5.35,1.03.42,1.4.47l46.04,8.68c.13.02.26.04.38.04.54,0,1.07-.22,1.45-.62.77-.8.6-3.4.34-5.38l7.89,1.35-15.69,88.59-67.61-11.61,15.68-88.54,9.42,1.61c-.33,1.29-.44,2.61-.27,3.85Zm-31.14-3.98l7.59-7.59-.44,2.52-7.46,7.46.31-2.39Zm-13.5,102.92l2.2-2.2c.02.08.02.16.05.24.2.63.52,1.18.92,1.67l-3.6,3.6.43-3.31Zm2.74-6.13l-2.23,2.23.65-4.98,2.5-2.5-.92,5.25Zm1.65-9.37l-2.71,2.71.63-4.79,2.97-2.97-.89,5.05Zm1.61-9.17l-3.18,3.18.56-4.24,3.41-3.41-.79,4.47Zm1.51-8.59l-3.62,3.62.51-3.87,3.83-3.83-.72,4.08Zm1.44-8.2l-4.04,4.04.65-4.98,4.31-4.31-.92,5.25Zm1.65-9.37l-4.52,4.52.63-4.79,4.78-4.78-.89,5.05Zm1.61-9.17l-5,5,.51-3.87,5.21-5.2-.72,4.08Zm1.44-8.2l-5.42,5.42.6-4.61,5.67-5.67-.85,4.86Zm1.58-8.98l-5.88,5.88.6-4.61,6.13-6.13-.85,4.86Zm1.58-8.98l-6.34,6.34.29-2.2,6.46-6.46-.41,2.32Zm1.13-6.44l-6.67,6.67.46-3.5,6.86-6.86-.65,3.69Zm1.37-7.8l-7.07,7.07.43-3.31,7.25-7.25-.61,3.49Zm-1.12-10.62l-4.17,4.17.51-3.91c.32-.18,1.2-.41,3.66-.26ZM6.88,145.28l5.98-5.98c1.14.64,2.6,1.14,4.38,1.56l-7.15,7.15c-1.68-.37-2.89-.82-3.38-1.42l.17-1.31Zm6.11,3.22l7.08-7.08c1.27.22,2.66.43,4.17.63l-6.93,6.93c-1.54-.15-3-.31-4.32-.49Zm7.43.77l6.81-6.81c.47.06.94.12,1.43.18.68.09,1.4.18,2.11.27l-6.67,6.67c-.73-.06-1.45-.12-2.15-.18-.52-.04-1.03-.09-1.55-.13Zm67.75,8.64l4.22-4.22c.88.15,1.7.28,2.48.4l-4.09,4.09c-.82-.08-1.69-.17-2.61-.27Zm-3.02-.37c-1.1-.14-2.23-.3-3.39-.46l4.49-4.49c1.14.21,2.22.41,3.25.6l-4.35,4.35Zm-6.36-.88c-1.12-.16-2.24-.33-3.35-.49l4.74-4.74c1.12.22,2.19.42,3.22.62l-4.61,4.61Zm-6.31-.93c-.74-.11-1.47-.22-2.23-.33l4.93-4.93c.72.14,1.44.28,2.15.41l-4.85,4.85Zm-5.19-.76c-1.38-.2-2.79-.4-4.21-.6l5.19-5.19c1.37.25,2.72.5,4.06.75l-5.04,5.04Zm-7.2-1c-1.46-.19-2.93-.38-4.41-.56l5.46-5.46c1.42.23,2.84.48,4.25.72l-5.3,5.3Zm-7.44-.92c-1.55-.18-3.09-.34-4.64-.49l5.74-5.74c1.49.21,2.98.43,4.47.66l-5.57,5.57Zm-7.6-.92c-1.41-.24-2.8-.46-4.15-.66l6.03-6.03c1.3.25,2.64.52,4,.81l-5.88,5.88Zm-7.13-1.07c-1.51-.2-3-.39-4.42-.55l6.31-6.31c1.37.21,2.8.46,4.26.71l-6.14,6.14Zm-7.49-.87c-1.1-.11-2.17-.21-3.21-.31l6.55-6.54c1,.14,2.03.28,3.09.43l-6.42,6.42Zm63.52,8.22l3.39-3.39-.42,3.23c-.6.17-1.64.21-2.97.16Zm9.72-7.63c-2.69.64-13.41-1.45-22.93-3.3-8.23-1.59-17.55-3.4-26.71-4.66-9.75-2.19-18.13-3.26-24.86-4.13-7.1-.91-13.83-1.77-15.12-3.48L34.89,16.73c1.46-.83,8.46.59,14.65,1.85,5.5,1.12,12.32,2.5,19.87,3.5.1.37.19.74.32,1.13.09.27.25.73.23.87,0,.04-.11.26-.47.52-1.06.79-2.62,1-4.27,1.23-.69.09-1.37.19-2.04.32-3.07.6-5.71,1.98-7.62,3.99-.4.42-.76.89-1.09,1.37l-12.43-2.13c-1.09-.18-2.12.54-2.31,1.62l-16.38,92.48c-.09.52.03,1.06.33,1.5.31.44.77.73,1.3.82l71.55,12.28c.12.02.23.03.34.03.95,0,1.8-.68,1.97-1.65l16.38-92.53c.09-.52-.03-1.06-.33-1.5-.31-.43-.77-.73-1.3-.82l-11.49-1.96c-.69-1.96-1.69-3.8-2.95-5.41-3.7-4.7-9.04-6.9-12.99-7.96-.49-.13-1.04-.28-1.23-.46-.15-.14-.23-.55-.18-1.12,9.55,2.07,17.83,3.15,24.51,4.02,6.97.9,14.17,1.84,15.28,3.42l-20.86,118.61ZM51.38,54.22l2-3.31c.57-.95,1.8-1.24,2.75-.67.95.57,1.25,1.8.67,2.75l-3.68,6.07c-.36.59-1,.96-1.69.96h-.02c-.68,0-1.32-.35-1.69-.93l-2.16-3.41c-.59-.93-.31-2.17.62-2.76.93-.59,2.17-.32,2.76.62l.43.68Zm6.31,4.24c.22-1.08,1.26-1.78,2.36-1.57,5.27,1.06,12.28,2.36,19.06,3.61,6.83,1.26,13.89,2.57,19.22,3.64,1.08.22,1.78,1.27,1.57,2.36-.19.95-1.03,1.6-1.96,1.6-.13,0-.26-.01-.4-.04-5.29-1.07-12.34-2.37-19.15-3.63-6.8-1.25-13.82-2.55-19.13-3.62-1.08-.22-1.78-1.27-1.57-2.36Zm-12.92,11.54c-.59-.93-.32-2.17.61-2.76.93-.6,2.17-.32,2.76.61l.44.69,2.15-3.54c.57-.95,1.8-1.25,2.75-.67.95.57,1.25,1.8.67,2.75l-3.82,6.3c-.36.59-1,.96-1.69.96h-.02c-.68,0-1.32-.35-1.69-.93l-2.16-3.4Zm12.47,1.22c5.28,1.06,12.31,2.36,19.1,3.62,6.82,1.26,13.86,2.56,19.18,3.63,1.08.22,1.78,1.27,1.57,2.36-.19.95-1.03,1.6-1.96,1.6-.13,0-.26-.01-.4-.04-5.28-1.06-12.32-2.36-19.12-3.62-6.81-1.26-13.85-2.56-19.16-3.63-1.08-.22-1.78-1.27-1.57-2.36.22-1.08,1.26-1.78,2.36-1.57Zm-15.59,14.68c-.59-.93-.31-2.17.62-2.76.93-.59,2.17-.32,2.76.62l.43.68,1.69-2.79c.57-.95,1.8-1.24,2.75-.67.95.57,1.25,1.8.67,2.75l-3.36,5.54c-.36.59-1,.96-1.69.96h-.02c-.68,0-1.32-.35-1.69-.93l-2.16-3.41Zm52.32,10.82c-.19.95-1.03,1.6-1.96,1.6-.13,0-.26-.01-.4-.04-5.27-1.06-12.28-2.36-19.06-3.61-6.83-1.26-13.89-2.57-19.22-3.64-1.08-.22-1.78-1.27-1.57-2.36.22-1.08,1.27-1.78,2.36-1.57,5.29,1.07,12.34,2.37,19.15,3.63,6.8,1.25,13.82,2.55,19.13,3.62,1.08.22,1.78,1.27,1.57,2.36Zm-45.25.81l-3.82,6.3c-.36.59-1,.96-1.69.96h-.02c-.68,0-1.32-.35-1.69-.93l-2.16-3.41c-.59-.93-.31-2.17.62-2.76.93-.59,2.17-.32,2.76.62l.43.68,2.15-3.54c.57-.95,1.8-1.24,2.75-.67.95.57,1.25,1.8.67,2.75Zm42.94,13.75c-.19.95-1.03,1.6-1.96,1.6-.13,0-.26-.01-.4-.04-5.29-1.07-12.34-2.37-19.15-3.63-6.8-1.25-13.82-2.55-19.13-3.62-1.08-.22-1.78-1.27-1.57-2.36.22-1.08,1.26-1.78,2.36-1.57,5.27,1.06,12.28,2.36,19.06,3.61,6.83,1.26,13.89,2.57,19.22,3.64,1.08.22,1.78,1.27,1.57,2.36Z"/>
    </g>
  </g>
</svg>